<svg xmlns="http://www.w3.org/2000/svg" width="88" height="88" viewBox="0 0 88 88">
  <g id="Grupo_25003" data-name="Grupo 25003" transform="translate(-235 -3084)">
    <g id="Elipse_1361" data-name="Elipse 1361" transform="translate(235 3084)" fill="#fff" stroke="#039be5" stroke-width="1">
      <circle cx="44" cy="44" r="44" stroke="none"/>
      <circle cx="44" cy="44" r="43.5" fill="none"/>
    </g>
    <g id="administrador-web_1_" data-name="administrador-web (1)" transform="translate(257.153 3104.288)">
      <path id="Trazado_9156" data-name="Trazado 9156" d="M242.585,56V79.262a1.667,1.667,0,0,1-1.662,1.662H217.662A1.667,1.667,0,0,1,216,79.262V56Zm0,0" transform="translate(-193.569 -50.185)" fill="#00f1d5"/>
      <g id="Grupo_24933" data-name="Grupo 24933" transform="translate(33.231 9.138)">
        <path id="Trazado_9157" data-name="Trazado 9157" d="M324.835,281.659a2.484,2.484,0,0,0-4.1-.931,2.355,2.355,0,0,0-.581.931,2.3,2.3,0,0,0-.15.831,2.492,2.492,0,1,0,4.985,0A2.305,2.305,0,0,0,324.835,281.659Zm0,0" transform="translate(-320 -260.059)" fill="#ffd422"/>
        <path id="Trazado_9158" data-name="Trazado 9158" d="M356.985,186.492A2.492,2.492,0,1,1,354.492,184,2.492,2.492,0,0,1,356.985,186.492Zm0,0" transform="translate(-348.677 -174.031)" fill="#ffd422"/>
        <path id="Trazado_9159" data-name="Trazado 9159" d="M322.492,88A2.492,2.492,0,1,1,320,90.492,2.492,2.492,0,0,1,322.492,88Zm0,0" transform="translate(-320 -88)" fill="#ffd422"/>
      </g>
      <path id="Trazado_9160" data-name="Trazado 9160" d="M221.695,176.972a3.323,3.323,0,1,1-2.351-.972A3.323,3.323,0,0,1,221.695,176.972Zm0,0" transform="translate(-193.59 -157.723)" fill="#00b4ec"/>
      <path id="Trazado_9161" data-name="Trazado 9161" d="M27.108,345.607H8v-8.657a5,5,0,0,1,3.672-4.81l4.337-1.18,3.622,3.016,3.622-3.016,4.337,1.18a5,5,0,0,1,3.672,4.81v8.657Zm0,0" transform="translate(-7.169 -296.592)" fill="#00b4ec"/>
      <path id="Trazado_9162" data-name="Trazado 9162" d="M92.365,308.162l-3.622,3.016-3.622-3.016,1.13-.307V305.52a4.951,4.951,0,0,0,4.985,0v2.335Zm0,0" transform="translate(-76.282 -273.793)" fill="#ffce8c"/>
      <path id="Trazado_9163" data-name="Trazado 9163" d="M79,217.437a2.5,2.5,0,0,0,2.417,1.886h.548v1.662a4.985,4.985,0,0,1-7.477,4.312,4.788,4.788,0,0,1-1.03-.789A4.94,4.94,0,0,1,72,220.985v-1.662h.831a6.612,6.612,0,0,0,4.154-1.462,6.9,6.9,0,0,0,1.163-1.2l.5-.664Zm0,0" transform="translate(-64.523 -193.569)" fill="#ffdaaa"/>
      <path id="Trazado_9164" data-name="Trazado 9164" d="M48.308,174.846a6.612,6.612,0,0,1-4.154,1.462h-.831a3.039,3.039,0,0,1-.831-.108A3.317,3.317,0,0,1,40,172.985v-4.154a.831.831,0,0,1,.831-.831h7.477a5.815,5.815,0,0,1,5.815,5.815v2.492H52.744a2.5,2.5,0,0,1-2.417-1.886l-.357-1.437-.5.664A6.9,6.9,0,0,1,48.308,174.846Zm0,0" transform="translate(-35.846 -150.554)" fill="#fff"/>
      <path id="Trazado_9165" data-name="Trazado 9165" d="M217.662,8h23.262a1.667,1.667,0,0,1,1.662,1.662v3.323H216V9.662A1.667,1.667,0,0,1,217.662,8Zm0,0" transform="translate(-193.569 -7.169)" fill="#00b8ed"/>
      <path id="Trazado_9166" data-name="Trazado 9166" d="M222.048,99.938a3.277,3.277,0,0,0-1.677.471l-4.83-4.83a4.12,4.12,0,0,0,.609-1.456h6.017a3.323,3.323,0,1,0,0-1.662h-6.017a4.125,4.125,0,0,0-.608-1.456l4.83-4.83a3.283,3.283,0,0,0,1.677.471,3.323,3.323,0,1,0-3.323-3.323A3.277,3.277,0,0,0,219.2,85l-4.83,4.83a4.154,4.154,0,1,0,0,6.924l4.83,4.83a3.277,3.277,0,0,0-.471,1.677,3.323,3.323,0,1,0,3.323-3.323Zm3.323-8.308a1.662,1.662,0,1,1-1.662,1.662A1.662,1.662,0,0,1,225.371,91.631Zm-3.323-9.969a1.662,1.662,0,1,1-1.662,1.662A1.662,1.662,0,0,1,222.048,81.662Zm-9.969,14.123a2.492,2.492,0,1,1,2.492-2.492A2.492,2.492,0,0,1,212.079,95.785Zm9.969,9.138a1.662,1.662,0,1,1,1.662-1.662A1.662,1.662,0,0,1,222.048,104.923Zm0,0" transform="translate(-186.325 -71.692)" fill="#084c73"/>
      <path id="Trazado_9167" data-name="Trazado 9167" d="M233.754,0H210.492A2.492,2.492,0,0,0,208,2.492V16.615h1.662V6.646h24.923V29.077a.831.831,0,0,1-.831.831h-6.646v1.662h6.646a2.492,2.492,0,0,0,2.492-2.492V2.492A2.492,2.492,0,0,0,233.754,0ZM209.662,4.985V2.492a.831.831,0,0,1,.831-.831h23.262a.831.831,0,0,1,.831.831V4.985Zm0,0" transform="translate(-186.4)" fill="#084c73"/>
      <path id="Trazado_9168" data-name="Trazado 9168" d="M210.492,260.985h6.646v-1.662h-6.646a.831.831,0,0,1-.831-.831V256H208v2.492A2.492,2.492,0,0,0,210.492,260.985Zm0,0" transform="translate(-186.4 -229.415)" fill="#08557a"/>
      <path id="Trazado_9169" data-name="Trazado 9169" d="M264.308,356.154H256v1.662h9.138a.831.831,0,0,0,.831-.831V352h-1.661Zm0,0" transform="translate(-229.415 -315.446)" fill="#084c73"/>
      <path id="Trazado_9170" data-name="Trazado 9170" d="M256,424h1.662v1.662H256Zm0,0" transform="translate(-229.415 -379.969)"/>
      <path id="Trazado_9171" data-name="Trazado 9171" d="M288,424h1.662v1.662H288Zm0,0" transform="translate(-258.092 -379.969)"/>
      <path id="Trazado_9172" data-name="Trazado 9172" d="M368,352h1.662v1.662H368Zm0,0" transform="translate(-329.785 -315.446)"/>
      <path id="Trazado_9173" data-name="Trazado 9173" d="M368,384h1.662v1.662H368Zm0,0" transform="translate(-329.785 -344.123)"/>
      <path id="Trazado_9174" data-name="Trazado 9174" d="M320,424h1.662v1.662H320Zm0,0" transform="translate(-286.769 -379.969)"/>
      <path id="Trazado_9175" data-name="Trazado 9175" d="M64,60.593v1.662h7.964L70.89,63.328,72.064,64.5l2.492-2.492a.831.831,0,0,0,0-1.175l-2.492-2.492L70.89,59.519l1.074,1.074Zm0,0" transform="translate(-57.354 -52.285)" fill="#084c73"/>
      <path id="Trazado_9176" data-name="Trazado 9176" d="M240,24h1.662v1.662H240Zm0,0" transform="translate(-215.077 -21.508)"/>
      <path id="Trazado_9177" data-name="Trazado 9177" d="M272,24h1.662v1.662H272Zm0,0" transform="translate(-243.754 -21.508)"/>
      <path id="Trazado_9178" data-name="Trazado 9178" d="M304,24h1.662v1.662H304Zm0,0" transform="translate(-272.431 -21.508)"/>
      <path id="Trazado_9179" data-name="Trazado 9179" d="M32,80h1.662v1.662H32Zm0,0" transform="translate(-28.677 -71.692)"/>
      <path id="Trazado_9180" data-name="Trazado 9180" d="M0,80H1.662v1.662H0Zm0,0" transform="translate(0 -71.692)"/>
      <path id="Trazado_9181" data-name="Trazado 9181" d="M56,32h4.985v1.662H56Zm0,0" transform="translate(-50.185 -28.677)"/>
      <path id="Trazado_9182" data-name="Trazado 9182" d="M24,32h1.662v1.662H24Zm0,0" transform="translate(-21.508 -28.677)"/>
      <path id="Trazado_9183" data-name="Trazado 9183" d="M20.639,178.132l-4.854-1.32v-1.246a5.808,5.808,0,0,0,2.492-4.765v-.831a.831.831,0,0,0,.831-.831v-2.492A6.654,6.654,0,0,0,12.462,160H4.985a1.662,1.662,0,0,0-1.662,1.662v4.154a4.136,4.136,0,0,0,3.1,4.015c.074.021.15.03.225.046v.924a5.809,5.809,0,0,0,2.492,4.765v1.246l-4.857,1.321A5.84,5.84,0,0,0,0,183.743V192.4a.831.831,0,0,0,.831.831H24.092a.831.831,0,0,0,.831-.831v-8.657A5.841,5.841,0,0,0,20.639,178.132ZM4.985,165.815v-4.154h7.477a4.99,4.99,0,0,1,4.985,4.985v1.662H16.9a1.667,1.667,0,0,1-1.612-1.255l-.356-1.437a.831.831,0,0,0-.642-.614.778.778,0,0,0-.165-.017.831.831,0,0,0-.664.332l-.5.665a6.113,6.113,0,0,1-1.023,1.052,5.8,5.8,0,0,1-3.629,1.274H7.477a2.238,2.238,0,0,1-.626-.083A2.481,2.481,0,0,1,4.985,165.815ZM8.308,170.8v-.831a7.469,7.469,0,0,0,4.676-1.647,7.836,7.836,0,0,0,.742-.684,3.323,3.323,0,0,0,2.889,2.307v.854a4.154,4.154,0,0,1-8.308,0Zm4.154,5.815a5.78,5.78,0,0,0,1.662-.249v1.08a.822.822,0,0,0,.29.617l-1.952,1.626-1.952-1.625a.822.822,0,0,0,.29-.618v-1.08A5.78,5.78,0,0,0,12.462,176.615Zm10.8,14.954H20.769v-7.477H19.108v7.477H5.815v-7.477H4.154v7.477H1.662v-7.826a4.174,4.174,0,0,1,3.06-4.009l3.919-1.066,3.29,2.741a.831.831,0,0,0,1.064,0l3.29-2.741,3.916,1.065a4.176,4.176,0,0,1,3.062,4.009Zm0,0" transform="translate(0 -143.385)" fill="#084c73"/>
    </g>
  </g>
</svg>
