<svg xmlns="http://www.w3.org/2000/svg" width="88" height="88" viewBox="0 0 88 88">
  <g id="Grupo_25005" data-name="Grupo 25005" transform="translate(-235 -4779)">
    <g id="Elipse_1364" data-name="Elipse 1364" transform="translate(235 4779)" fill="#fff" stroke="#039be5" stroke-width="1">
      <circle cx="44" cy="44" r="44" stroke="none"/>
      <circle cx="44" cy="44" r="43.5" fill="none"/>
    </g>
    <g id="datos-de-terceros" transform="translate(248.887 4785.959)">
      <g id="Grupo_24935" data-name="Grupo 24935" transform="translate(5.246 17.084)">
        <path id="Trazado_9211" data-name="Trazado 9211" d="M64.2,78.288H18.58a2,2,0,0,1-2-2V40.374a2,2,0,0,1,2-2H64.2a2,2,0,0,1,2,2V76.287A2,2,0,0,1,64.2,78.288Z" transform="translate(-16.579 -38.373)" fill="#f4efed"/>
      </g>
      <g id="Grupo_24936" data-name="Grupo 24936" transform="translate(51.065 17.084)">
        <path id="Trazado_9212" data-name="Trazado 9212" d="M224.149,38.373h-1.8a2,2,0,0,1,2,2V76.287a2,2,0,0,1-2,2h1.8a2,2,0,0,0,2-2V40.374A2,2,0,0,0,224.149,38.373Z" transform="translate(-222.348 -38.373)" fill="#d6d1cf"/>
      </g>
      <g id="Grupo_24937" data-name="Grupo 24937" transform="translate(5.246 17.084)">
        <path id="Trazado_9213" data-name="Trazado 9213" d="M18.58,38.373h1.8a2,2,0,0,0-2,2V76.287a2,2,0,0,0,2,2h-1.8a2,2,0,0,1-2-2V40.374A2,2,0,0,1,18.58,38.373Z" transform="translate(-16.579 -38.373)" fill="#fff"/>
      </g>
      <g id="Grupo_24938" data-name="Grupo 24938" transform="translate(5.246 17.084)">
        <path id="Trazado_9214" data-name="Trazado 9214" d="M64.2,38.373H18.58a2,2,0,0,0-2,2v4.707H66.2V40.374a2,2,0,0,0-2-2Z" transform="translate(-16.579 -38.373)" fill="#00f2d7"/>
      </g>
      <g id="Grupo_24940" data-name="Grupo 24940" transform="translate(4.801 16.638)">
        <path id="Trazado_9216" data-name="Trazado 9216" d="M64.646,43.971H15.025a.446.446,0,0,1-.445-.445V38.819a2.449,2.449,0,0,1,2.446-2.446H62.645a2.449,2.449,0,0,1,2.446,2.446v4.707a.446.446,0,0,1-.446.445Zm-49.175-.891H64.2V38.819a1.557,1.557,0,0,0-1.556-1.555H17.026a1.557,1.557,0,0,0-1.556,1.555v4.261Z" transform="translate(-14.58 -36.373)" fill="#690589"/>
      </g>
      <g id="Grupo_24941" data-name="Grupo 24941" transform="translate(4.801 16.638)">
        <path id="Trazado_9217" data-name="Trazado 9217" d="M62.644,77.178H17.025a2.449,2.449,0,0,1-2.446-2.446V38.819a2.449,2.449,0,0,1,2.446-2.446H62.644a2.449,2.449,0,0,1,2.446,2.446V74.732a2.449,2.449,0,0,1-2.446,2.446ZM17.025,37.264a1.557,1.557,0,0,0-1.556,1.555V74.732a1.557,1.557,0,0,0,1.556,1.555H62.644A1.557,1.557,0,0,0,64.2,74.732V38.819a1.557,1.557,0,0,0-1.556-1.555Z" transform="translate(-14.579 -36.373)" fill="#08557a"/>
      </g>
      <g id="Grupo_24942" data-name="Grupo 24942" transform="translate(7.247 19.194)">
        <path id="Trazado_9218" data-name="Trazado 9218" d="M28.052,49.093a1.244,1.244,0,1,1-1.244-1.244,1.244,1.244,0,0,1,1.244,1.244Z" transform="translate(-25.564 -47.849)" fill="#00f2d7"/>
      </g>
      <g id="Grupo_24943" data-name="Grupo 24943" transform="translate(11.324 19.194)">
        <path id="Trazado_9219" data-name="Trazado 9219" d="M46.363,49.093a1.244,1.244,0,1,1-1.244-1.244,1.244,1.244,0,0,1,1.244,1.244Z" transform="translate(-43.875 -47.849)" fill="#00f2d7"/>
      </g>
      <g id="Grupo_24944" data-name="Grupo 24944" transform="translate(15.402 19.194)">
        <path id="Trazado_9220" data-name="Trazado 9220" d="M64.674,49.093a1.244,1.244,0,1,1-1.244-1.244,1.244,1.244,0,0,1,1.244,1.244Z" transform="translate(-62.186 -47.849)" fill="#fff"/>
      </g>
      <g id="Grupo_24945" data-name="Grupo 24945" transform="translate(6.802 18.748)">
        <path id="Trazado_9221" data-name="Trazado 9221" d="M25.254,49.227a1.689,1.689,0,1,1,1.689-1.689A1.691,1.691,0,0,1,25.254,49.227Zm0-2.488a.8.8,0,1,0,.8.8A.8.8,0,0,0,25.254,46.739Z" transform="translate(-23.565 -45.848)" fill="#08557a"/>
      </g>
      <g id="Grupo_24946" data-name="Grupo 24946" transform="translate(10.879 18.748)">
        <path id="Trazado_9222" data-name="Trazado 9222" d="M43.565,49.227a1.689,1.689,0,1,1,1.689-1.689,1.691,1.691,0,0,1-1.689,1.689Zm0-2.488a.8.8,0,1,0,.8.8.8.8,0,0,0-.8-.8Z" transform="translate(-41.876 -45.848)" fill="#08557a"/>
      </g>
      <g id="Grupo_24947" data-name="Grupo 24947" transform="translate(14.956 18.748)">
        <path id="Trazado_9223" data-name="Trazado 9223" d="M61.875,49.227a1.689,1.689,0,1,1,1.689-1.689A1.691,1.691,0,0,1,61.875,49.227Zm0-2.488a.8.8,0,1,0,.8.8A.8.8,0,0,0,61.875,46.739Z" transform="translate(-60.186 -45.848)" fill="#0b5a87"/>
      </g>
      <g id="Grupo_24948" data-name="Grupo 24948" transform="translate(6.602 28.795)">
        <path id="Trazado_9224" data-name="Trazado 9224" d="M23.112,94.53a.446.446,0,0,1-.445-.445V91.412a.445.445,0,0,1,.891,0v2.672A.446.446,0,0,1,23.112,94.53Z" transform="translate(-22.667 -90.967)" fill="#08557a"/>
      </g>
      <g id="Grupo_24949" data-name="Grupo 24949" transform="translate(51.065 14.783)">
        <path id="Trazado_9225" data-name="Trazado 9225" d="M224.149,28.04h-1.8a2,2,0,0,1,2,2v4.707h1.8V30.041A2,2,0,0,0,224.149,28.04Z" transform="translate(-222.348 -28.04)" fill="#6a348a"/>
      </g>
      <g id="Grupo_24950" data-name="Grupo 24950" transform="translate(2.445 40.005)">
        <path id="Trazado_9226" data-name="Trazado 9226" d="M27.419,148.861H4.929A.929.929,0,0,1,4,147.932v-5.69a.929.929,0,0,1,.929-.929H27.419a.929.929,0,0,1,.929.929v5.69A.929.929,0,0,1,27.419,148.861Z" transform="translate(-4 -141.312)" fill="#f4efed"/>
      </g>
      <g id="Grupo_24951" data-name="Grupo 24951" transform="translate(2.445 55.103)">
        <path id="Trazado_9227" data-name="Trazado 9227" d="M27.419,216.662H4.929A.929.929,0,0,1,4,215.733v-5.69a.929.929,0,0,1,.929-.929H27.419a.929.929,0,0,1,.929.929v5.69A.929.929,0,0,1,27.419,216.662Z" transform="translate(-4 -209.113)" fill="#f4efed"/>
      </g>
      <g id="Grupo_24952" data-name="Grupo 24952" transform="translate(2.445 47.554)">
        <path id="Trazado_9228" data-name="Trazado 9228" d="M27.419,182.762H4.929A.929.929,0,0,1,4,181.833v-5.69a.929.929,0,0,1,.929-.929H27.419a.929.929,0,0,1,.929.929v5.69A.929.929,0,0,1,27.419,182.762Z" transform="translate(-4 -175.213)" fill="#f4efed"/>
      </g>
      <g id="Grupo_24953" data-name="Grupo 24953" transform="translate(24.284 55.103)">
        <path id="Trazado_9229" data-name="Trazado 9229" d="M103.656,209.114h-1.58a.929.929,0,0,1,.929.929v5.69a.929.929,0,0,1-.929.929h1.58a.929.929,0,0,0,.929-.929v-5.69A.929.929,0,0,0,103.656,209.114Z" transform="translate(-102.076 -209.114)" fill="#d6d1cf"/>
      </g>
      <g id="Grupo_24954" data-name="Grupo 24954" transform="translate(24.284 47.554)">
        <path id="Trazado_9230" data-name="Trazado 9230" d="M103.656,175.213h-1.58a.929.929,0,0,1,.929.929v5.69a.929.929,0,0,1-.929.929h1.58a.929.929,0,0,0,.929-.929v-5.69a.929.929,0,0,0-.929-.929Z" transform="translate(-102.076 -175.213)" fill="#d6d1cf"/>
      </g>
      <g id="Grupo_24955" data-name="Grupo 24955" transform="translate(24.284 40.005)">
        <path id="Trazado_9231" data-name="Trazado 9231" d="M103.656,141.312h-1.58a.929.929,0,0,1,.929.929v5.69a.929.929,0,0,1-.929.929h1.58a.929.929,0,0,0,.929-.929v-5.69A.929.929,0,0,0,103.656,141.312Z" transform="translate(-102.076 -141.312)" fill="#d6d1cf"/>
      </g>
      <g id="Grupo_24956" data-name="Grupo 24956" transform="translate(2.445 40.005)">
        <path id="Trazado_9232" data-name="Trazado 9232" d="M4.929,148.861h1.58a.929.929,0,0,1-.929-.929v-5.69a.929.929,0,0,1,.929-.929H4.929a.929.929,0,0,0-.929.929v5.69A.929.929,0,0,0,4.929,148.861Z" transform="translate(-4 -141.312)" fill="#fff"/>
      </g>
      <g id="Grupo_24957" data-name="Grupo 24957" transform="translate(2.445 47.554)">
        <path id="Trazado_9233" data-name="Trazado 9233" d="M4.929,182.762h1.58a.929.929,0,0,1-.929-.929v-5.69a.929.929,0,0,1,.929-.929H4.929a.929.929,0,0,0-.929.929v5.69A.929.929,0,0,0,4.929,182.762Z" transform="translate(-4 -175.213)" fill="#fff"/>
      </g>
      <g id="Grupo_24958" data-name="Grupo 24958" transform="translate(2.445 55.103)">
        <path id="Trazado_9234" data-name="Trazado 9234" d="M4.929,216.662h1.58a.929.929,0,0,1-.929-.929v-5.69a.929.929,0,0,1,.929-.929H4.929a.929.929,0,0,0-.929.929v5.69A.929.929,0,0,0,4.929,216.662Z" transform="translate(-4 -209.113)" fill="#fff"/>
      </g>
      <g id="Grupo_24959" data-name="Grupo 24959" transform="translate(2 39.56)">
        <path id="Trazado_9235" data-name="Trazado 9235" d="M25.864,147.751H3.375A1.376,1.376,0,0,1,2,146.377v-5.69a1.376,1.376,0,0,1,1.375-1.375H25.864a1.376,1.376,0,0,1,1.375,1.375v5.69A1.376,1.376,0,0,1,25.864,147.751ZM3.375,140.2a.484.484,0,0,0-.484.484v5.69a.484.484,0,0,0,.484.484H25.864a.484.484,0,0,0,.484-.484v-5.69a.484.484,0,0,0-.484-.484Z" transform="translate(-2 -139.312)" fill="#08557a"/>
      </g>
      <g id="Grupo_24960" data-name="Grupo 24960" transform="translate(11.492 49.95)">
        <path id="Trazado_9236" data-name="Trazado 9236" d="M55.255,188.491H45.886a1.258,1.258,0,1,1,0-2.516h9.369a1.258,1.258,0,1,1,0,2.516Z" transform="translate(-44.628 -185.975)" fill="#00b8ed"/>
      </g>
      <g id="Grupo_24961" data-name="Grupo 24961" transform="translate(11.047 49.505)">
        <path id="Trazado_9237" data-name="Trazado 9237" d="M53.7,187.383H44.331a1.7,1.7,0,1,1,0-3.407H53.7a1.7,1.7,0,1,1,0,3.407Zm-9.369-2.516a.813.813,0,1,0,0,1.625H53.7a.813.813,0,1,0,0-1.625Z" transform="translate(-42.628 -183.976)" fill="#08557a"/>
      </g>
      <g id="Grupo_24962" data-name="Grupo 24962" transform="translate(5.861 49.95)">
        <path id="Trazado_9238" data-name="Trazado 9238" d="M21.857,187.233a1.258,1.258,0,1,1-1.258-1.258A1.258,1.258,0,0,1,21.857,187.233Z" transform="translate(-19.341 -185.975)" fill="#00f2d7"/>
      </g>
      <g id="Grupo_24963" data-name="Grupo 24963" transform="translate(5.416 49.505)">
        <path id="Trazado_9239" data-name="Trazado 9239" d="M19.044,187.383a1.7,1.7,0,1,1,1.7-1.7A1.705,1.705,0,0,1,19.044,187.383Zm0-2.516a.813.813,0,1,0,.813.813A.814.814,0,0,0,19.044,184.867Z" transform="translate(-17.341 -183.976)" fill="#08557a"/>
      </g>
      <g id="Grupo_24964" data-name="Grupo 24964" transform="translate(11.492 57.499)">
        <path id="Trazado_9240" data-name="Trazado 9240" d="M55.255,222.392H45.886a1.258,1.258,0,1,1,0-2.516h9.369a1.258,1.258,0,1,1,0,2.516Z" transform="translate(-44.628 -219.876)" fill="#00b8ed"/>
      </g>
      <g id="Grupo_24965" data-name="Grupo 24965" transform="translate(11.047 57.054)">
        <path id="Trazado_9241" data-name="Trazado 9241" d="M53.7,221.284H44.331a1.7,1.7,0,1,1,0-3.407H53.7a1.7,1.7,0,1,1,0,3.407Zm-9.369-2.516a.813.813,0,1,0,0,1.625H53.7a.813.813,0,1,0,0-1.625Z" transform="translate(-42.628 -217.877)" fill="#08557a"/>
      </g>
      <g id="Grupo_24966" data-name="Grupo 24966" transform="translate(5.861 57.499)">
        <path id="Trazado_9242" data-name="Trazado 9242" d="M21.857,221.134a1.258,1.258,0,1,1-1.258-1.258A1.258,1.258,0,0,1,21.857,221.134Z" transform="translate(-19.341 -219.876)" fill="#00f2d7"/>
      </g>
      <g id="Grupo_24967" data-name="Grupo 24967" transform="translate(5.416 57.054)">
        <path id="Trazado_9243" data-name="Trazado 9243" d="M19.044,221.284a1.7,1.7,0,1,1,1.7-1.7A1.705,1.705,0,0,1,19.044,221.284Zm0-2.516a.813.813,0,1,0,.813.813A.814.814,0,0,0,19.044,218.767Z" transform="translate(-17.341 -217.877)" fill="#08557a"/>
      </g>
      <g id="Grupo_24968" data-name="Grupo 24968" transform="translate(11.492 42.402)">
        <path id="Trazado_9244" data-name="Trazado 9244" d="M55.255,154.591H45.886a1.258,1.258,0,1,1,0-2.516h9.369a1.258,1.258,0,1,1,0,2.516Z" transform="translate(-44.628 -152.075)" fill="#00b8ed"/>
      </g>
      <g id="Grupo_24969" data-name="Grupo 24969" transform="translate(11.047 41.956)">
        <path id="Trazado_9245" data-name="Trazado 9245" d="M53.7,153.482H44.331a1.7,1.7,0,1,1,0-3.407H53.7a1.7,1.7,0,0,1,0,3.407Zm-9.369-2.516a.813.813,0,1,0,0,1.625H53.7a.813.813,0,1,0,0-1.625Z" transform="translate(-42.628 -150.075)" fill="#08557a"/>
      </g>
      <g id="Grupo_24970" data-name="Grupo 24970" transform="translate(5.861 42.402)">
        <path id="Trazado_9246" data-name="Trazado 9246" d="M21.857,153.333a1.258,1.258,0,1,1-1.258-1.258A1.258,1.258,0,0,1,21.857,153.333Z" transform="translate(-19.341 -152.075)" fill="#00f3d9"/>
      </g>
      <g id="Grupo_24971" data-name="Grupo 24971" transform="translate(5.416 41.956)">
        <path id="Trazado_9247" data-name="Trazado 9247" d="M19.044,153.482a1.7,1.7,0,1,1,1.7-1.7A1.705,1.705,0,0,1,19.044,153.482Zm0-2.516a.813.813,0,1,0,.813.813A.814.814,0,0,0,19.044,150.965Z" transform="translate(-17.341 -150.075)" fill="#08557a"/>
      </g>
      <g id="Grupo_24972" data-name="Grupo 24972" transform="translate(2 47.108)">
        <path id="Trazado_9248" data-name="Trazado 9248" d="M25.864,181.651H3.375A1.376,1.376,0,0,1,2,180.277v-5.69a1.376,1.376,0,0,1,1.375-1.375H25.864a1.376,1.376,0,0,1,1.375,1.375v5.69A1.376,1.376,0,0,1,25.864,181.651ZM3.375,174.1a.484.484,0,0,0-.484.484v5.69a.484.484,0,0,0,.484.484H25.864a.484.484,0,0,0,.484-.484v-5.69a.484.484,0,0,0-.484-.484Z" transform="translate(-2 -173.212)" fill="#08557a"/>
      </g>
      <g id="Grupo_24973" data-name="Grupo 24973" transform="translate(2 54.657)">
        <path id="Trazado_9249" data-name="Trazado 9249" d="M25.864,215.553H3.375A1.376,1.376,0,0,1,2,214.178v-5.69a1.376,1.376,0,0,1,1.375-1.375H25.864a1.376,1.376,0,0,1,1.375,1.375v5.69A1.376,1.376,0,0,1,25.864,215.553ZM3.375,208a.485.485,0,0,0-.484.484v5.69a.484.484,0,0,0,.484.484H25.864a.484.484,0,0,0,.484-.484v-5.69a.485.485,0,0,0-.484-.484Z" transform="translate(-2 -207.113)" fill="#08557a"/>
      </g>
      <g id="Grupo_24974" data-name="Grupo 24974" transform="translate(33.32 11.431)">
        <path id="Trazado_9250" data-name="Trazado 9250" d="M166.075,20.535H143.585a.929.929,0,0,1-.929-.929v-5.69a.929.929,0,0,1,.929-.929h22.489a.929.929,0,0,1,.929.929v5.69A.929.929,0,0,1,166.075,20.535Z" transform="translate(-142.656 -12.986)" fill="#f4efed"/>
      </g>
      <g id="Grupo_24975" data-name="Grupo 24975" transform="translate(33.32 26.528)">
        <path id="Trazado_9251" data-name="Trazado 9251" d="M166.075,88.336H143.585a.929.929,0,0,1-.929-.929v-5.69a.929.929,0,0,1,.929-.929h22.489a.929.929,0,0,1,.929.929v5.69A.929.929,0,0,1,166.075,88.336Z" transform="translate(-142.656 -80.787)" fill="#f4efed"/>
      </g>
      <g id="Grupo_24976" data-name="Grupo 24976" transform="translate(33.32 18.979)">
        <path id="Trazado_9252" data-name="Trazado 9252" d="M166.075,54.435H143.585a.929.929,0,0,1-.929-.929v-5.69a.929.929,0,0,1,.929-.929h22.489a.929.929,0,0,1,.929.929v5.69A.929.929,0,0,1,166.075,54.435Z" transform="translate(-142.656 -46.886)" fill="#f4efed"/>
      </g>
      <g id="Grupo_24977" data-name="Grupo 24977" transform="translate(55.159 26.528)">
        <path id="Trazado_9253" data-name="Trazado 9253" d="M242.311,80.787h-1.58a.929.929,0,0,1,.929.929v5.69a.929.929,0,0,1-.929.929h1.58a.929.929,0,0,0,.929-.929v-5.69A.929.929,0,0,0,242.311,80.787Z" transform="translate(-240.731 -80.787)" fill="#d6d1cf"/>
      </g>
      <g id="Grupo_24978" data-name="Grupo 24978" transform="translate(55.159 18.979)">
        <path id="Trazado_9254" data-name="Trazado 9254" d="M242.311,46.886h-1.58a.929.929,0,0,1,.929.929v5.69a.929.929,0,0,1-.929.929h1.58a.929.929,0,0,0,.929-.929v-5.69a.929.929,0,0,0-.929-.929Z" transform="translate(-240.731 -46.886)" fill="#d6d1cf"/>
      </g>
      <g id="Grupo_24979" data-name="Grupo 24979" transform="translate(55.159 11.431)">
        <path id="Trazado_9255" data-name="Trazado 9255" d="M242.311,12.986h-1.58a.929.929,0,0,1,.929.929v5.69a.929.929,0,0,1-.929.929h1.58a.929.929,0,0,0,.929-.929v-5.69A.929.929,0,0,0,242.311,12.986Z" transform="translate(-240.731 -12.986)" fill="#d6d1cf"/>
      </g>
      <g id="Grupo_24980" data-name="Grupo 24980" transform="translate(33.32 11.431)">
        <path id="Trazado_9256" data-name="Trazado 9256" d="M143.585,20.535h1.58a.929.929,0,0,1-.929-.929v-5.69a.929.929,0,0,1,.929-.929h-1.58a.929.929,0,0,0-.929.929v5.69A.929.929,0,0,0,143.585,20.535Z" transform="translate(-142.656 -12.986)" fill="#fff"/>
      </g>
      <g id="Grupo_24981" data-name="Grupo 24981" transform="translate(33.32 18.979)">
        <path id="Trazado_9257" data-name="Trazado 9257" d="M143.585,54.435h1.58a.929.929,0,0,1-.929-.929v-5.69a.929.929,0,0,1,.929-.929h-1.58a.929.929,0,0,0-.929.929v5.69A.929.929,0,0,0,143.585,54.435Z" transform="translate(-142.656 -46.886)" fill="#fff"/>
      </g>
      <g id="Grupo_24982" data-name="Grupo 24982" transform="translate(33.32 26.528)">
        <path id="Trazado_9258" data-name="Trazado 9258" d="M143.585,88.336h1.58a.929.929,0,0,1-.929-.929v-5.69a.929.929,0,0,1,.929-.929h-1.58a.929.929,0,0,0-.929.929v5.69A.929.929,0,0,0,143.585,88.336Z" transform="translate(-142.656 -80.787)" fill="#fff"/>
      </g>
      <g id="Grupo_24983" data-name="Grupo 24983" transform="translate(32.875 10.985)">
        <path id="Trazado_9259" data-name="Trazado 9259" d="M164.52,19.425H142.031a1.376,1.376,0,0,1-1.375-1.375V12.36a1.376,1.376,0,0,1,1.375-1.375H164.52a1.376,1.376,0,0,1,1.375,1.375v5.69A1.376,1.376,0,0,1,164.52,19.425Zm-22.489-7.549a.484.484,0,0,0-.484.484v5.69a.485.485,0,0,0,.484.484H164.52A.485.485,0,0,0,165,18.05V12.36a.484.484,0,0,0-.484-.484Z" transform="translate(-140.656 -10.985)" fill="#08557a"/>
      </g>
      <g id="Grupo_24984" data-name="Grupo 24984" transform="translate(42.367 21.376)">
        <path id="Trazado_9260" data-name="Trazado 9260" d="M193.911,60.165h-9.369a1.258,1.258,0,0,1,0-2.516h9.369a1.258,1.258,0,1,1,0,2.516Z" transform="translate(-183.284 -57.649)" fill="#00f2d7"/>
      </g>
      <g id="Grupo_24985" data-name="Grupo 24985" transform="translate(41.921 20.93)">
        <path id="Trazado_9261" data-name="Trazado 9261" d="M192.356,59.056h-9.369a1.7,1.7,0,1,1,0-3.407h9.369a1.7,1.7,0,1,1,0,3.407Zm-9.369-2.516a.813.813,0,1,0,0,1.625h9.369a.813.813,0,1,0,0-1.625Z" transform="translate(-181.284 -55.649)" fill="#08557a"/>
      </g>
      <g id="Grupo_24986" data-name="Grupo 24986" transform="translate(36.736 21.376)">
        <path id="Trazado_9262" data-name="Trazado 9262" d="M160.513,58.907a1.258,1.258,0,1,1-1.258-1.258A1.258,1.258,0,0,1,160.513,58.907Z" transform="translate(-157.997 -57.649)" fill="#00f2d7"/>
      </g>
      <g id="Grupo_24987" data-name="Grupo 24987" transform="translate(36.291 20.93)">
        <path id="Trazado_9263" data-name="Trazado 9263" d="M157.7,59.056a1.7,1.7,0,1,1,1.7-1.7A1.705,1.705,0,0,1,157.7,59.056Zm0-2.516a.813.813,0,1,0,.813.813A.814.814,0,0,0,157.7,56.539Z" transform="translate(-155.996 -55.649)" fill="#08557a"/>
      </g>
      <g id="Grupo_24988" data-name="Grupo 24988" transform="translate(42.367 28.924)">
        <path id="Trazado_9264" data-name="Trazado 9264" d="M193.911,94.065h-9.369a1.258,1.258,0,0,1,0-2.516h9.369a1.258,1.258,0,1,1,0,2.516Z" transform="translate(-183.284 -91.549)" fill="#00f2d7"/>
      </g>
      <g id="Grupo_24989" data-name="Grupo 24989" transform="translate(41.921 28.479)">
        <path id="Trazado_9265" data-name="Trazado 9265" d="M192.356,92.957h-9.369a1.7,1.7,0,1,1,0-3.407h9.369a1.7,1.7,0,1,1,0,3.407Zm-9.369-2.516a.813.813,0,0,0,0,1.626h9.369a.813.813,0,1,0,0-1.626Z" transform="translate(-181.284 -89.55)" fill="#08557a"/>
      </g>
      <g id="Grupo_24990" data-name="Grupo 24990" transform="translate(36.736 28.924)">
        <path id="Trazado_9266" data-name="Trazado 9266" d="M160.513,92.807a1.258,1.258,0,1,1-1.258-1.258A1.258,1.258,0,0,1,160.513,92.807Z" transform="translate(-157.997 -91.549)" fill="#00f2d7"/>
      </g>
      <g id="Grupo_24991" data-name="Grupo 24991" transform="translate(36.291 28.479)">
        <path id="Trazado_9267" data-name="Trazado 9267" d="M157.7,92.957a1.7,1.7,0,1,1,1.7-1.7A1.705,1.705,0,0,1,157.7,92.957Zm0-2.516a.813.813,0,1,0,.813.813A.814.814,0,0,0,157.7,90.44Z" transform="translate(-155.996 -89.55)" fill="#08557a"/>
      </g>
      <g id="Grupo_24992" data-name="Grupo 24992" transform="translate(42.367 13.827)">
        <path id="Trazado_9268" data-name="Trazado 9268" d="M193.911,26.264h-9.369a1.258,1.258,0,0,1,0-2.516h9.369a1.258,1.258,0,1,1,0,2.516Z" transform="translate(-183.284 -23.748)" fill="#00f2d7"/>
      </g>
      <g id="Grupo_24993" data-name="Grupo 24993" transform="translate(41.921 13.382)">
        <path id="Trazado_9269" data-name="Trazado 9269" d="M192.356,25.156h-9.369a1.7,1.7,0,1,1,0-3.407h9.369a1.7,1.7,0,1,1,0,3.407Zm-9.369-2.516a.813.813,0,1,0,0,1.625h9.369a.813.813,0,1,0,0-1.625Z" transform="translate(-181.284 -21.749)" fill="#08557a"/>
      </g>
      <g id="Grupo_24994" data-name="Grupo 24994" transform="translate(36.736 13.827)">
        <path id="Trazado_9270" data-name="Trazado 9270" d="M160.513,25.006a1.258,1.258,0,1,1-1.258-1.258A1.258,1.258,0,0,1,160.513,25.006Z" transform="translate(-157.997 -23.748)" fill="#00f2d7"/>
      </g>
      <g id="Grupo_24995" data-name="Grupo 24995" transform="translate(36.291 13.382)">
        <path id="Trazado_9271" data-name="Trazado 9271" d="M157.7,25.156a1.7,1.7,0,1,1,1.7-1.7A1.705,1.705,0,0,1,157.7,25.156Zm0-2.516a.813.813,0,1,0,.813.813A.814.814,0,0,0,157.7,22.639Z" transform="translate(-155.996 -21.749)" fill="#08557a"/>
      </g>
      <g id="Grupo_24996" data-name="Grupo 24996" transform="translate(32.875 18.534)">
        <path id="Trazado_9272" data-name="Trazado 9272" d="M164.52,53.326H142.031a1.376,1.376,0,0,1-1.375-1.375v-5.69a1.376,1.376,0,0,1,1.375-1.375H164.52a1.376,1.376,0,0,1,1.375,1.375v5.69A1.376,1.376,0,0,1,164.52,53.326Zm-22.489-7.549a.484.484,0,0,0-.484.484v5.69a.484.484,0,0,0,.484.484H164.52a.484.484,0,0,0,.484-.484v-5.69a.484.484,0,0,0-.484-.484Z" transform="translate(-140.656 -44.887)" fill="#08557a"/>
      </g>
      <g id="Grupo_24997" data-name="Grupo 24997" transform="translate(32.875 26.083)">
        <path id="Trazado_9273" data-name="Trazado 9273" d="M164.52,87.226H142.031a1.376,1.376,0,0,1-1.375-1.375v-5.69a1.376,1.376,0,0,1,1.375-1.375H164.52a1.376,1.376,0,0,1,1.375,1.375v5.69A1.376,1.376,0,0,1,164.52,87.226Zm-22.489-7.549a.484.484,0,0,0-.484.484v5.69a.484.484,0,0,0,.484.484H164.52a.484.484,0,0,0,.484-.484v-5.69a.484.484,0,0,0-.484-.484Z" transform="translate(-140.656 -78.787)" fill="#08557a"/>
      </g>
      <g id="Grupo_24998" data-name="Grupo 24998" transform="translate(15.629 26.664)">
        <path id="Trazado_9274" data-name="Trazado 9274" d="M74.371,84.253l-3.5-2.855V83.12H63.207v9.393h2.266V85.386h5.4v1.722Z" transform="translate(-63.207 -81.398)" fill="#00bcee"/>
      </g>
      <g id="Grupo_24999" data-name="Grupo 24999" transform="translate(33.32 36.303)">
        <path id="Trazado_9275" data-name="Trazado 9275" d="M142.656,132.948l3.5,2.855v-1.722h7.662v-9.393h-2.266v7.126h-5.4v-1.722Z" transform="translate(-142.656 -124.688)" fill="#00f2d7"/>
      </g>
      <g id="Grupo_25000" data-name="Grupo 25000" transform="translate(15.184 26.219)">
        <path id="Trazado_9276" data-name="Trazado 9276" d="M63.919,91.4H61.652a.445.445,0,0,1-.445-.445V81.565a.446.446,0,0,1,.445-.445h7.216V79.844A.445.445,0,0,1,69.6,79.5l3.5,2.855a.445.445,0,0,1,0,.69L69.6,85.9a.445.445,0,0,1-.727-.345V84.277h-4.5v6.681a.446.446,0,0,1-.445.445ZM62.1,90.513h1.376V83.832a.445.445,0,0,1,.445-.445h5.4a.446.446,0,0,1,.445.445v.784L72.112,82.7l-2.352-1.917v.784a.446.446,0,0,1-.445.445H62.1Z" transform="translate(-61.207 -79.398)" fill="#08557a"/>
      </g>
      <g id="Grupo_25001" data-name="Grupo 25001" transform="translate(32.875 35.858)">
        <path id="Trazado_9277" data-name="Trazado 9277" d="M144.6,134.693a.445.445,0,0,1-.281-.1l-3.5-2.855a.445.445,0,0,1,0-.69l3.5-2.855a.445.445,0,0,1,.727.345v1.276h4.5v-6.681a.445.445,0,0,1,.445-.445h2.266a.445.445,0,0,1,.445.445v9.393a.445.445,0,0,1-.445.445H145.05v1.276a.445.445,0,0,1-.445.445Zm-2.8-3.3,2.352,1.917v-.784a.445.445,0,0,1,.445-.445h7.216v-8.5h-1.376v6.681a.445.445,0,0,1-.445.445h-5.4a.445.445,0,0,1-.445-.445v-.784Z" transform="translate(-140.657 -122.688)" fill="#08557a"/>
      </g>
    </g>
  </g>
</svg>
