<svg xmlns="http://www.w3.org/2000/svg" width="88" height="88" viewBox="0 0 88 88">
  <g id="Grupo_24931" data-name="Grupo 24931" transform="translate(-235 -1503)">
    <g id="Elipse_1355" data-name="Elipse 1355" transform="translate(235 1503)" fill="#fff" stroke="#039be5" stroke-width="1">
      <circle cx="44" cy="44" r="44" stroke="none"/>
      <circle cx="44" cy="44" r="43.5" fill="none"/>
    </g>
    <g id="database-server-management-config-network" transform="translate(249 1519.514)">
      <g id="Grupo_24918" data-name="Grupo 24918" transform="translate(2.85 2.85)">
        <path id="Trazado_9070" data-name="Trazado 9070" d="M26.8,42.549c-3.753,0-6.8-1.141-6.8-2.549v5.1c0,1.408,3.043,2.549,6.8,2.549s6.8-1.141,6.8-2.549V40C33.593,41.408,30.55,42.549,26.8,42.549Z" transform="translate(-5.558 -8.567)" fill="#00f0d3"/>
        <path id="Trazado_9071" data-name="Trazado 9071" d="M26.8,36.549c-3.753,0-6.8-1.141-6.8-2.549v5.1c0,1.408,3.043,2.549,6.8,2.549s6.8-1.141,6.8-2.549V34C33.593,35.408,30.55,36.549,26.8,36.549Z" transform="translate(-5.558 -7.664)" fill="#00f0d3"/>
        <path id="Trazado_9072" data-name="Trazado 9072" d="M26.8,30.549c-3.753,0-6.8-1.141-6.8-2.549v5.1c0,1.408,3.043,2.549,6.8,2.549s6.8-1.141,6.8-2.549V28C33.593,29.408,30.55,30.549,26.8,30.549Z" transform="translate(-5.558 -6.761)" fill="#00f0d3"/>
        <path id="Trazado_9073" data-name="Trazado 9073" d="M26.8,48.549c-3.753,0-6.8-1.141-6.8-2.549v5.1c0,1.408,3.043,2.549,6.8,2.549s6.8-1.141,6.8-2.549V46C33.593,47.408,30.55,48.549,26.8,48.549Z" transform="translate(-5.558 -9.47)" fill="#00f0d3"/>
        <path id="Trazado_9074" data-name="Trazado 9074" d="M43.778,11H4.7A1.7,1.7,0,0,0,3,12.7v5.1H45.477V12.7A1.7,1.7,0,0,0,43.778,11Z" transform="translate(-3 -4.204)" fill="#00b4ec"/>
        <path id="Trazado_9075" data-name="Trazado 9075" d="M51.778,3H12.7A1.7,1.7,0,0,0,11,4.7V9.8H53.477V4.7A1.7,1.7,0,0,0,51.778,3Z" transform="translate(-4.204 -3)" fill="#00b0eb"/>
        <path id="Trazado_9076" data-name="Trazado 9076" d="M41,26.4h6.8V23H41Z" transform="translate(-8.717 -6.009)" fill="#9bc9ff"/>
        <path id="Trazado_9077" data-name="Trazado 9077" d="M13.8,27H7v3.4h6.8Z" transform="translate(-3.602 -6.611)" fill="#9bc9ff"/>
        <path id="Trazado_9078" data-name="Trazado 9078" d="M41,56.4h6.8V53H41Z" transform="translate(-8.717 -10.523)" fill="#9bc9ff"/>
        <path id="Trazado_9079" data-name="Trazado 9079" d="M7,56.4h6.8V53H7Z" transform="translate(-3.602 -10.523)" fill="#9bc9ff"/>
      </g>
      <path id="Trazado_9080" data-name="Trazado 9080" d="M7.7,14H6.85a.85.85,0,0,0,0,1.7H7.7a.85.85,0,1,0,0-1.7Z" transform="translate(-0.602 -1.805)" fill="#1e81ce"/>
      <path id="Trazado_9081" data-name="Trazado 9081" d="M12.7,14h-.85a.85.85,0,0,0,0,1.7h.85a.85.85,0,0,0,0-1.7Z" transform="translate(-1.354 -1.805)" fill="#1e81ce"/>
      <path id="Trazado_9082" data-name="Trazado 9082" d="M17.7,14h-.85a.85.85,0,0,0,0,1.7h.85a.85.85,0,0,0,0-1.7Z" transform="translate(-2.106 -1.805)" fill="#1e81ce"/>
      <path id="Trazado_9083" data-name="Trazado 9083" d="M50.424,2H11.345A2.556,2.556,0,0,0,8.8,4.549V8.8H4.549A2.556,2.556,0,0,0,2,11.345V50.424a2.556,2.556,0,0,0,2.549,2.549H43.628a2.556,2.556,0,0,0,2.549-2.549V46.176h4.248a2.556,2.556,0,0,0,2.549-2.549V4.549A2.556,2.556,0,0,0,50.424,2ZM44.477,50.424a.85.85,0,0,1-.85.85H4.549a.85.85,0,0,1-.85-.85V17.292H44.477Zm0-34.831H3.7V11.345a.85.85,0,0,1,.85-.85H43.628a.85.85,0,0,1,.85.85Zm6.8,28.035a.85.85,0,0,1-.85.85H46.176V11.345a2.549,2.549,0,0,0-.153-.85h5.25Zm0-34.831H10.5V4.549a.85.85,0,0,1,.85-.85H50.424a.85.85,0,0,1,.85.85Z" fill="#08426b"/>
      <path id="Trazado_9084" data-name="Trazado 9084" d="M15.7,6h-.85a.85.85,0,1,0,0,1.7h.85a.85.85,0,1,0,0-1.7Z" transform="translate(-1.805 -0.602)" fill="#1e81ce"/>
      <path id="Trazado_9085" data-name="Trazado 9085" d="M20.7,6h-.85a.85.85,0,1,0,0,1.7h.85a.85.85,0,1,0,0-1.7Z" transform="translate(-2.558 -0.602)" fill="#1e81ce"/>
      <path id="Trazado_9086" data-name="Trazado 9086" d="M25.7,6h-.85a.85.85,0,1,0,0,1.7h.85a.85.85,0,1,0,0-1.7Z" transform="translate(-3.31 -0.602)" fill="#1e81ce"/>
      <path id="Trazado_9087" data-name="Trazado 9087" d="M32.336,31.345h6.8a.85.85,0,0,0,.85-.85V27.1H42.53a.85.85,0,0,0,.85-.85v-3.4a.85.85,0,0,0-.85-.85h-6.8a.85.85,0,0,0-.85.85v3.4a.85.85,0,0,0,.85.85h2.549v2.549H32.336V27.1c0-2.234-3.848-3.4-7.646-3.4s-7.646,1.164-7.646,3.4v7.646H11.1V30.5h2.549a.85.85,0,0,0,.85-.85v-3.4a.85.85,0,0,0-.85-.85H6.85a.85.85,0,0,0-.85.85v3.4a.85.85,0,0,0,.85.85H9.4v5.1a.85.85,0,0,0,.85.85h6.8v7.646h-6.8a.85.85,0,0,0-.85.85v2.549H6.85a.85.85,0,0,0-.85.85v3.4a.85.85,0,0,0,.85.85h6.8a.85.85,0,0,0,.85-.85v-3.4a.85.85,0,0,0-.85-.85H11.1v-1.7h5.947v1.7c0,2.234,3.848,3.4,7.646,3.4s7.646-1.164,7.646-3.4V41.54h5.947v5.947H35.734a.85.85,0,0,0-.85.85v3.4a.85.85,0,0,0,.85.85h6.8a.85.85,0,0,0,.85-.85v-3.4a.85.85,0,0,0-.85-.85H39.982v-6.8a.85.85,0,0,0-.85-.85h-6.8ZM36.584,25.4V23.7h5.1v1.7ZM7.7,28.8V27.1h5.1v1.7Zm5.1,20.389v1.7H7.7v-1.7Zm17.84-1.7c0,.493-2.081,1.7-5.947,1.7s-5.947-1.206-5.947-1.7V44.6a13.508,13.508,0,0,0,5.947,1.189A13.508,13.508,0,0,0,30.637,44.6Zm0-5.1c0,.493-2.081,1.7-5.947,1.7s-5.947-1.206-5.947-1.7V39.5A13.508,13.508,0,0,0,24.69,40.69,13.508,13.508,0,0,0,30.637,39.5Zm0-5.1c0,.493-2.081,1.7-5.947,1.7s-5.947-1.206-5.947-1.7V34.4a13.508,13.508,0,0,0,5.947,1.189A13.508,13.508,0,0,0,30.637,34.4Zm0-5.1c0,.493-2.081,1.7-5.947,1.7s-5.947-1.206-5.947-1.7V29.306A13.508,13.508,0,0,0,24.69,30.5a13.508,13.508,0,0,0,5.947-1.189ZM24.69,28.8c-3.865,0-5.947-1.206-5.947-1.7s2.081-1.7,5.947-1.7,5.947,1.206,5.947,1.7S28.555,28.8,24.69,28.8ZM41.681,49.185v1.7h-5.1v-1.7Z" transform="translate(-0.602 -3.009)" fill="#08426b"/>
    </g>
  </g>
</svg>
