<svg xmlns="http://www.w3.org/2000/svg" width="88" height="88" viewBox="0 0 88 88">
  <g id="Grupo_25002" data-name="Grupo 25002" transform="translate(-235 -2397)">
    <g id="Elipse_1356" data-name="Elipse 1356" transform="translate(235 2397)" fill="#fff" stroke="#039be5" stroke-width="1">
      <circle cx="44" cy="44" r="44" stroke="none"/>
      <circle cx="44" cy="44" r="43.5" fill="none"/>
    </g>
    <g id="desarrollo-de-software_1_" data-name="desarrollo-de-software (1)" transform="translate(235.898 2398.143)">
      <path id="Trazado_9129" data-name="Trazado 9129" d="M55.707,272.943v8.13l-9.756-9.756v16.26H24v-18.7A4.878,4.878,0,0,1,28.878,264h16.2a4.064,4.064,0,0,1,2.875,1.191Z" transform="translate(-7.187 -222.797)" fill="#00f0d3"/>
      <path id="Trazado_9130" data-name="Trazado 9130" d="M336,336h15.447v15.447H336Z" transform="translate(-287.48 -287.48)" fill="#00b0eb"/>
      <path id="Trazado_9131" data-name="Trazado 9131" d="M208,456h13.008v3.252H209.626A1.626,1.626,0,0,1,208,457.626Z" transform="translate(-172.488 -395.286)" fill="#ffa100"/>
      <g id="Grupo_24932" data-name="Grupo 24932" transform="translate(21.691 38.764)">
        <path id="Trazado_9132" data-name="Trazado 9132" d="M124.878,240v4.878a2.4,2.4,0,0,1-.14.813,2.439,2.439,0,0,1-4.738-.813V240Z" transform="translate(-115.122 -240)" fill="#ffceb6"/>
        <path id="Trazado_9133" data-name="Trazado 9133" d="M72,376.471,76.471,372l3.658,3.658h8.943l2.521-1.26a3.461,3.461,0,0,1,4.208.88l2.75,3.3a1.194,1.194,0,0,1-.917,1.958,1.3,1.3,0,0,1-.778-.259l-2.906-2.18L90.7,380.536H78.759a6.5,6.5,0,0,1-4.6-1.9Z" transform="translate(-72 -358.586)" fill="#ffceb6"/>
        <path id="Trazado_9134" data-name="Trazado 9134" d="M278.5,330.439v8.13l-6.5-6.5L276.065,328Z" transform="translate(-251.675 -319.057)" fill="#ffceb6"/>
      </g>
      <circle id="Elipse_1357" data-name="Elipse 1357" cx="2.388" cy="2.388" r="2.388" transform="translate(54.208 53.635)" fill="#ffe28f"/>
      <path id="Trazado_9135" data-name="Trazado 9135" d="M232,25.626A1.626,1.626,0,0,1,233.626,24H256.39a1.626,1.626,0,0,1,1.626,1.626V46.764a1.626,1.626,0,0,1-1.626,1.626h-6.5v4.065l-5.691-4.065H233.626A1.626,1.626,0,0,1,232,46.764Z" transform="translate(-194.049 -7.187)" fill="#00f0d3"/>
      <path id="Trazado_9136" data-name="Trazado 9136" d="M123.252,215.317A3.252,3.252,0,0,1,120,212.065v-1.626L122.439,208H126.5v4.065A3.252,3.252,0,0,1,123.252,215.317Z" transform="translate(-93.431 -172.488)" fill="#ffceb6"/>
      <path id="Trazado_9137" data-name="Trazado 9137" d="M126.5,179.252l.793-.4a1.507,1.507,0,0,0-.674-2.856h-3.371A3.252,3.252,0,0,0,120,179.252v2.439l2.439-2.439Z" transform="translate(-93.431 -143.74)" fill="#c47220"/>
      <path id="Trazado_9138" data-name="Trazado 9138" d="M63.966,184.26H48.52a.813.813,0,0,0-.761.528l-6.417-6.417a4.846,4.846,0,0,0-3.449-1.429H33.8a4.068,4.068,0,0,0,.082-.813v-3.562l.343-.172a2.32,2.32,0,0,0-1.038-4.4H29.821a4.07,4.07,0,0,0-4.065,4.065v4.065a4.068,4.068,0,0,0,.082.813H21.691A5.7,5.7,0,0,0,16,182.634v18.7h1.626V190.287l5.65,5.65a7.268,7.268,0,0,0,5.174,2.143H34.7v.813a2.442,2.442,0,0,0,2.439,2.439H63.966a.813.813,0,0,0,.813-.813V185.073a.813.813,0,0,0-.813-.813Zm-16.26,8.606-4.541-4.541,2.915-2.915,1.626,1.626Zm-5.2-2.9a4.3,4.3,0,0,0-1.585.437l-1.344.672v-4.039ZM27.382,179.38a4.062,4.062,0,0,0,3.252.733v.082a1.626,1.626,0,0,1-3.252,0Zm0-3.25v-1.289l1.963-1.963H32.26v3.252a2.439,2.439,0,0,1-4.878,0Zm2.439-6.5h3.371a.694.694,0,0,1,.311,1.315l-.621.311H29.008a.813.813,0,0,0-.575.238l-1.051,1.051v-.476A2.442,2.442,0,0,1,29.821,169.626ZM17.626,182.634a4.07,4.07,0,0,1,4.065-4.065h4.065v1.626a3.252,3.252,0,0,0,6.5,0v-.815a4.1,4.1,0,0,0,.811-.811h4.822a3.231,3.231,0,0,1,2.3.953l4.738,4.738-2.915,2.915L39.339,184.5a.813.813,0,0,0-1.388.575v6.5H30.157l-7.892-7.892-1.15,1.15,3.9,3.9-3.322,3.322-4.065-4.065Zm6.8,12.154L22.841,193.2l3.322-3.322,3.084,3.084a.813.813,0,0,0,.575.238h8.943a.812.812,0,0,0,.364-.086l2.521-1.26a2.649,2.649,0,0,1,3.22.674l2.75,3.3a.381.381,0,0,1-.292.624.487.487,0,0,1-.29-.1l-2.906-2.18a.813.813,0,0,0-.976,0l-3.035,2.276H28.45a5.653,5.653,0,0,1-4.024-1.667Zm20.029,1.667H42.829l.813-.61Zm-8.13,2.439v-.813H47.707v1.626H37.138A.814.814,0,0,1,36.325,198.894Zm26.829.813H49.333V185.886H63.153Z" transform="translate(0 -136.553)" fill="#08426b"/>
      <path id="Trazado_9139" data-name="Trazado 9139" d="M387.252,382.5A3.252,3.252,0,1,0,384,379.252,3.252,3.252,0,0,0,387.252,382.5Zm0-4.878a1.626,1.626,0,1,1-1.626,1.626A1.626,1.626,0,0,1,387.252,377.626Z" transform="translate(-330.603 -323.416)" fill="#08426b"/>
      <path id="Trazado_9140" data-name="Trazado 9140" d="M249.2,16H226.439A2.442,2.442,0,0,0,224,18.439V38.764h1.626V18.439a.814.814,0,0,1,.813-.813H249.2a.814.814,0,0,1,.813.813V39.577a.814.814,0,0,1-.813.813h-6.5a.813.813,0,0,0-.813.813v2.485l-4.405-3.147a.813.813,0,0,0-.472-.151h-7.317v1.626h7.056l5.479,3.914a.813.813,0,0,0,1.285-.662V42.016H249.2a2.442,2.442,0,0,0,2.439-2.439V18.439A2.442,2.442,0,0,0,249.2,16Z" transform="translate(-186.862)" fill="#08426b"/>
      <circle id="Elipse_1358" data-name="Elipse 1358" cx="0.796" cy="0.796" r="0.796" transform="translate(39.349 18.612)"/>
      <circle id="Elipse_1359" data-name="Elipse 1359" cx="0.796" cy="0.796" r="0.796" transform="translate(42.002 18.612)"/>
      <circle id="Elipse_1360" data-name="Elipse 1360" cx="0.796" cy="0.796" r="0.796" transform="translate(44.656 18.612)"/>
      <path id="Trazado_9141" data-name="Trazado 9141" d="M264,80h1.626v1.626H264Z" transform="translate(-222.797 -57.496)"/>
      <path id="Trazado_9142" data-name="Trazado 9142" d="M304,80h4.878v1.626H304Z" transform="translate(-258.732 -57.496)" fill="#08426b"/>
      <path id="Trazado_9143" data-name="Trazado 9143" d="M368,80h1.626v1.626H368Z" transform="translate(-316.229 -57.496)"/>
      <path id="Trazado_9144" data-name="Trazado 9144" d="M264,112h1.626v1.626H264Z" transform="translate(-222.797 -86.244)"/>
      <path id="Trazado_9145" data-name="Trazado 9145" d="M304,112h2.439v1.626H304Z" transform="translate(-258.732 -86.244)"/>
      <path id="Trazado_9146" data-name="Trazado 9146" d="M344,112h8.943v1.626H344Z" transform="translate(-294.667 -86.244)" fill="#08426b"/>
      <path id="Trazado_9147" data-name="Trazado 9147" d="M264,144h1.626v1.626H264Z" transform="translate(-222.797 -114.992)"/>
      <path id="Trazado_9148" data-name="Trazado 9148" d="M304,144h6.5v1.626H304Z" transform="translate(-258.732 -114.992)" fill="#08426b"/>
      <path id="Trazado_9149" data-name="Trazado 9149" d="M384,144h1.626v1.626H384Z" transform="translate(-330.603 -114.992)"/>
      <path id="Trazado_9150" data-name="Trazado 9150" d="M264,176h1.626v1.626H264Z" transform="translate(-222.797 -143.74)"/>
      <path id="Trazado_9151" data-name="Trazado 9151" d="M304,176h11.382v1.626H304Z" transform="translate(-258.732 -143.74)" fill="#08426b"/>
      <path id="Trazado_9152" data-name="Trazado 9152" d="M432,176h1.626v1.626H432Z" transform="translate(-373.725 -143.74)"/>
      <path id="Trazado_9153" data-name="Trazado 9153" d="M264,208h1.626v1.626H264Z" transform="translate(-222.797 -172.488)"/>
      <path id="Trazado_9154" data-name="Trazado 9154" d="M304,208h7.317v1.626H304Z" transform="translate(-258.732 -172.488)" fill="#08426b"/>
      <path id="Trazado_9155" data-name="Trazado 9155" d="M392,208h1.626v1.626H392Z" transform="translate(-337.79 -172.488)"/>
    </g>
  </g>
</svg>
