<svg xmlns="http://www.w3.org/2000/svg" width="88" height="88" viewBox="0 0 88 88">
  <g id="Grupo_25004" data-name="Grupo 25004" transform="translate(-235 -3886)">
    <g id="Elipse_1362" data-name="Elipse 1362" transform="translate(235 3886)" fill="#fff" stroke="#039be5" stroke-width="1">
      <circle cx="44" cy="44" r="44" stroke="none"/>
      <circle cx="44" cy="44" r="43.5" fill="none"/>
    </g>
    <g id="rendimiento" transform="translate(252 3900)">
      <circle id="Elipse_1363" data-name="Elipse 1363" cx="6" cy="6" r="6" transform="translate(6 25)" fill="#f0d0b4"/>
      <path id="Trazado_9184" data-name="Trazado 9184" d="M6.194,59.106H2V54.074A10.049,10.049,0,0,1,11.058,44.06l-.671,10.014,1.677,1.677,1.677-1.677L13.071,44.06a10.062,10.062,0,0,1,9.058,10.014v5.032H6.194Z" transform="translate(-0.161 -6.945)" fill="#00f1d5"/>
      <path id="Trazado_9185" data-name="Trazado 9185" d="M14.684,44.05l.671,10.014-1.677,1.677L12,54.065l.671-10.014q.5-.05,1.006-.05T14.684,44.05Z" transform="translate(-1.774 -6.935)" fill="#ff826e"/>
      <path id="Trazado_9186" data-name="Trazado 9186" d="M58,38h3.355V58.129H58Z" transform="translate(-9.194 -5.968)" fill="#00f1d5"/>
      <path id="Trazado_9187" data-name="Trazado 9187" d="M34,48h3.355V59.742H34Z" transform="translate(-5.323 -7.581)" fill="#00f1d5"/>
      <path id="Trazado_9188" data-name="Trazado 9188" d="M42,40h3.355V58.452H42Z" transform="translate(-6.613 -6.29)" fill="#00f1d5"/>
      <path id="Trazado_9189" data-name="Trazado 9189" d="M50,44h3.355V59.1H50Z" transform="translate(-7.903 -6.935)" fill="#00f1d5"/>
      <g id="Grupo_24934" data-name="Grupo 24934" transform="translate(28.677 6.871)">
        <path id="Trazado_9190" data-name="Trazado 9190" d="M36.86,40.495a1.64,1.64,0,0,1,.495,1.183A1.677,1.677,0,1,1,35.677,40,1.64,1.64,0,0,1,36.86,40.495Z" transform="translate(-34 -13.161)" fill="#fcd770"/>
        <path id="Trazado_9191" data-name="Trazado 9191" d="M43.677,32a1.682,1.682,0,0,1,1.677,1.677,1.605,1.605,0,0,1-.176.746,1.679,1.679,0,0,1-1.5.931A1.69,1.69,0,0,1,42,33.677,1.682,1.682,0,0,1,43.677,32Z" transform="translate(-35.29 -11.871)" fill="#fcd770"/>
        <path id="Trazado_9192" data-name="Trazado 9192" d="M53.019,36.671A1.677,1.677,0,1,1,50,37.677a1.605,1.605,0,0,1,.176-.746,1.679,1.679,0,0,1,1.5-.931A1.7,1.7,0,0,1,53.019,36.671Z" transform="translate(-36.581 -12.516)" fill="#fcd770"/>
        <path id="Trazado_9193" data-name="Trazado 9193" d="M59.677,30a1.677,1.677,0,1,1,0,3.355,1.678,1.678,0,0,1-.377-3.313A1.793,1.793,0,0,1,59.677,30Z" transform="translate(-37.871 -11.548)" fill="#fcd770"/>
        <path id="Trazado_9194" data-name="Trazado 9194" d="M49.032,8A5.032,5.032,0,1,1,44,13.032,5.036,5.036,0,0,1,49.032,8Zm1.677,5.032a1.677,1.677,0,1,0-1.677,1.677A1.682,1.682,0,0,0,50.71,13.032Z" transform="translate(-35.613 -8)" fill="#fff"/>
      </g>
      <path id="Trazado_9195" data-name="Trazado 9195" d="M58.129,9.548v5.032l-2.273.57c-.034.084-.059.168-.1.252l1.208,2-2.248,2.248L53.4,20.963l-2-1.208c-.084.042-.168.067-.252.1l-.57,2.273H45.548l-.57-2.273c-.084-.034-.168-.059-.252-.1l-2,1.208L39.166,17.4l1.208-2c-.042-.084-.067-.168-.1-.252L38,14.581V9.548l2.273-.57c.034-.084.059-.168.1-.252l-1.208-2L42.73,3.166l2,1.208c.084-.042.168-.067.252-.1L45.548,2h5.032l.57,2.273c.084.034.168.059.252.1l2-1.208L56.963,6.73l-1.208,2c.042.084.067.168.1.252ZM53.1,12.065A5.032,5.032,0,1,0,48.065,17.1,5.036,5.036,0,0,0,53.1,12.065Z" transform="translate(-5.968 -0.161)" fill="#00b4ec"/>
      <path id="Trazado_9196" data-name="Trazado 9196" d="M29.161,15.032v8.387H9.032A5.036,5.036,0,0,1,4,18.387V15.032A5.036,5.036,0,0,1,9.032,10h15.1A5.036,5.036,0,0,1,29.161,15.032Z" transform="translate(-0.484 -1.452)" fill="#fff"/>
      <path id="Trazado_9197" data-name="Trazado 9197" d="M15.5,41.364a6.71,6.71,0,1,0-7.194,0A10.913,10.913,0,0,0,1,51.645v5.871H22.806V51.645A10.913,10.913,0,0,0,15.5,41.364Zm-2.782,9.957-.815.815-.815-.815.593-8.89c.075,0,.148-.012.222-.012s.148.009.222.011ZM6.871,35.71A5.032,5.032,0,1,1,11.9,40.742,5.037,5.037,0,0,1,6.871,35.71ZM21.129,55.839H18.613v-6.71H16.935v6.71H6.871v-6.71H5.194v6.71H2.677V51.645a9.24,9.24,0,0,1,7.309-9.023l-.623,9.347,2.54,2.54,2.54-2.54-.623-9.347a9.24,9.24,0,0,1,7.309,9.023Z" transform="translate(0 -4.516)" fill="#084c73"/>
      <path id="Trazado_9198" data-name="Trazado 9198" d="M48.871,7a5.871,5.871,0,1,0,5.871,5.871A5.878,5.878,0,0,0,48.871,7Zm0,10.065a4.194,4.194,0,1,1,4.194-4.194A4.2,4.2,0,0,1,48.871,17.065Z" transform="translate(-6.774 -0.968)" fill="#084c73"/>
      <path id="Trazado_9199" data-name="Trazado 9199" d="M58.161,8.732l-2.026-.506,1.074-1.79L52.726,1.951,50.935,3.025,50.429,1H44.087l-.506,2.026L41.79,1.951,37.306,6.436l1.074,1.79-2.025.507v6.342l2.025.506-1.074,1.791,4.484,4.485,1.791-1.074.5,2.025h6.342l.506-2.026,1.791,1.074.707-.708.862,3.736A2.515,2.515,0,0,0,53.129,27a2.463,2.463,0,0,0,.126.745l-2.925,2.194a2.5,2.5,0,0,0-3.136.285l-2.483-1.241a2.46,2.46,0,0,0,.031-.305,2.516,2.516,0,1,0-5.032,0,2.475,2.475,0,0,0,.252,1.078l-3.367,3.367a2.493,2.493,0,0,0-1.079-.252,2.516,2.516,0,1,0,2.516,2.516,2.475,2.475,0,0,0-.252-1.078l3.367-3.367a2.476,2.476,0,0,0,2.821-.456l2.483,1.241a2.46,2.46,0,0,0-.031.305,2.516,2.516,0,0,0,5.032,0,2.489,2.489,0,0,0-.125-.745l2.926-2.195a2.51,2.51,0,1,0,1.679-4.579l-1.1-4.765,2.377-2.378L56.136,15.58l2.025-.506ZM35.516,36.226a.839.839,0,1,1,.839-.839A.84.84,0,0,1,35.516,36.226Zm6.71-6.71a.839.839,0,1,1,.839-.839A.84.84,0,0,1,42.226,29.516Zm6.71,3.355a.839.839,0,1,1,.839-.839A.84.84,0,0,1,48.935,32.871ZM56.484,27a.839.839,0,1,1-.839-.839A.84.84,0,0,1,56.484,27Zm0-13.236-1.635.408-.448.169-.39.958L55.1,17.112l-2.633,2.632-1.811-1.087-1.023.422-.512,2.051H45.4l-.512-2.051-1.023-.422-1.811,1.087-2.633-2.632L40.5,15.3l-.416-1.022-2.057-.513V10.042l1.635-.408.449-.17.389-.958L39.418,6.7l2.633-2.632,1.811,1.087,1.023-.422L45.4,2.677h3.722l.512,2.051,1.023.422,1.811-1.087L55.1,6.7l-1.087,1.81.416,1.023,2.057.513Z" transform="translate(-5.161)" fill="#084c73"/>
      <path id="Trazado_9200" data-name="Trazado 9200" d="M33,60.419h5.032V47H33Zm1.677-11.742h1.677V58.742H34.677Z" transform="translate(-5.161 -7.419)" fill="#084c73"/>
      <path id="Trazado_9201" data-name="Trazado 9201" d="M41,59.129h5.032V39H41Zm1.677-18.452h1.677V57.452H42.677Z" transform="translate(-6.452 -6.129)" fill="#084c73"/>
      <path id="Trazado_9202" data-name="Trazado 9202" d="M49,59.774h5.032V43H49Zm1.677-15.1h1.677V58.1H50.677Z" transform="translate(-7.742 -6.774)" fill="#084c73"/>
      <path id="Trazado_9203" data-name="Trazado 9203" d="M57,58.806h5.032V37H57Zm1.677-20.129h1.677V57.129H58.677Z" transform="translate(-9.032 -5.806)" fill="#084c73"/>
      <path id="Trazado_9204" data-name="Trazado 9204" d="M8.871,24.1H29.839V14.871A5.878,5.878,0,0,0,23.968,9H8.871A5.878,5.878,0,0,0,3,14.871v3.355A5.878,5.878,0,0,0,8.871,24.1ZM4.677,14.871a4.2,4.2,0,0,1,4.194-4.194h15.1a4.2,4.2,0,0,1,4.194,4.194v7.548H8.871a4.2,4.2,0,0,1-4.194-4.194Z" transform="translate(-0.323 -1.29)" fill="#084c73"/>
      <path id="Trazado_9205" data-name="Trazado 9205" d="M7,13H8.677v1.677H7Z" transform="translate(-0.968 -1.935)"/>
      <path id="Trazado_9206" data-name="Trazado 9206" d="M11,13h1.677v1.677H11Z" transform="translate(-1.613 -1.935)"/>
      <path id="Trazado_9207" data-name="Trazado 9207" d="M15,13H28.419v1.677H15Z" transform="translate(-2.258 -1.935)" fill="#084c73"/>
      <path id="Trazado_9208" data-name="Trazado 9208" d="M7,17H27.129v1.677H7Z" transform="translate(-0.968 -2.581)" fill="#084c73"/>
      <path id="Trazado_9209" data-name="Trazado 9209" d="M7,21H27.129v1.677H7Z" transform="translate(-0.968 -3.226)" fill="#084c73"/>
      <path id="Trazado_9210" data-name="Trazado 9210" d="M49.516,11a2.516,2.516,0,1,0,2.516,2.516A2.519,2.519,0,0,0,49.516,11Zm0,3.355a.839.839,0,1,1,.839-.839A.84.84,0,0,1,49.516,14.355Z" transform="translate(-7.419 -1.613)"/>
    </g>
  </g>
</svg>
