<?xml version="1.0" encoding="utf-8"?>
<!-- Generator: Adobe Illustrator 24.0.0, SVG Export Plug-In . SVG Version: 6.00 Build 0)  -->
<svg version="1.1" id="Capa_1" xmlns="http://www.w3.org/2000/svg" xmlns:xlink="http://www.w3.org/1999/xlink" x="0px" y="0px"
	 viewBox="0 0 1286.5 558.2" style="enable-background:new 0 0 1286.5 558.2;" xml:space="preserve">
<style type="text/css">
	.st0{fill:none;stroke:#4770EF;stroke-width:3;stroke-linecap:round;}
	.st1{fill:#70D2DF;}
	.st2{fill:#7CC5FF;}
	.st3{fill:#E16B31;}
	.st4{fill:#EA3065;}
	.st5{fill:#FF9B6A;}
	.st6{fill:#FF5151;}
	.st7{fill:#592FE6;}
	.st8{fill:#6782C2;}
	.st9{fill:none;stroke:#FDD94D;stroke-width:2;stroke-linecap:round;stroke-linejoin:round;}
	.st10{fill:none;stroke:#FDD94D;stroke-width:2;stroke-linecap:round;}
	.st11{fill:none;stroke:#5274B2;stroke-width:2;stroke-linecap:round;stroke-dasharray:0.2,4;}
	.st12{fill:none;stroke:#5274B2;stroke-width:2;stroke-linecap:round;}
	.st13{fill:none;stroke:#5274B2;stroke-width:2;stroke-linecap:round;stroke-dasharray:0.2,3.97;}
	.st14{fill:none;stroke:#5274B2;stroke-width:2;stroke-linecap:round;stroke-linejoin:round;}
	.st15{fill:#FFFFFF;}
	.st16{fill:#12263F;}
	.st17{fill:#0F2771;}
	.st18{fill:#F4CD58;}
</style>
<path id="Trazado_183790" class="st0" d="M391.8,151.8h151.3c6,0,10.8,4.8,10.8,10.8c0,0,0,0,0,0v24.9c0,6-4.8,10.8-10.8,10.8l0,0
	H391.8c-6,0-10.8-4.8-10.8-10.8v-24.9C381,156.7,385.9,151.8,391.8,151.8z"/>
<path id="Trazado_183791" class="st1" d="M470.5,182.8h166.3c6,0,10.8,4.8,10.8,10.8c0,0,0,0,0,0v50.8c0,6-4.8,10.8-10.8,10.8l0,0
	H470.5c-6,0-10.8-4.8-10.8-10.8v-50.8C459.7,187.6,464.5,182.8,470.5,182.8z"/>
<path id="Trazado_183803" class="st2" d="M135.2,482.3h97c7.9,0,14.3,6.4,14.3,14.3c0,0,0,0,0,0v47.3c0,7.9-6.4,14.3-14.3,14.3l0,0
	h-97c-7.9,0-14.3-6.4-14.3-14.3v-47.3C120.8,488.7,127.3,482.3,135.2,482.3C135.2,482.3,135.2,482.3,135.2,482.3z"/>
<path id="Trazado_183821" class="st3" d="M875.4,482.3H983c7.9,0,14.3,6.4,14.3,14.3c0,0,0,0,0,0v47.3c0,7.9-6.4,14.3-14.3,14.3l0,0
	H875.4c-7.9,0-14.3-6.4-14.3-14.3v-47.3C861.1,488.7,867.5,482.3,875.4,482.3C875.4,482.3,875.4,482.3,875.4,482.3z"/>
<path id="Trazado_183827" class="st4" d="M1016.4,482.3h107.5c7.9,0,14.3,6.4,14.3,14.3c0,0,0,0,0,0v47.3c0,7.9-6.4,14.3-14.3,14.3
	l0,0h-107.5c-7.9,0-14.3-6.4-14.3-14.3v-47.3C1002.1,488.7,1008.5,482.3,1016.4,482.3C1016.4,482.3,1016.4,482.3,1016.4,482.3z"/>
<path id="Trazado_183804" class="st5" d="M14.3,482.3h88.5c7.9,0,14.3,6.4,14.3,14.3c0,0,0,0,0,0v47.3c0,7.9-6.4,14.3-14.3,14.3l0,0
	H14.3c-7.9,0-14.3-6.4-14.3-14.3v-47.3C0,488.7,6.4,482.3,14.3,482.3C14.3,482.3,14.3,482.3,14.3,482.3z"/>
<path id="Trazado_183805" class="st2" d="M709,482.3h132.9c7.9,0,14.3,6.4,14.3,14.3c0,0,0,0,0,0v47.3c0,7.9-6.4,14.3-14.3,14.3l0,0
	H709c-7.9,0-14.3-6.4-14.3-14.3v-47.3C694.7,488.7,701.1,482.3,709,482.3C709,482.3,709,482.3,709,482.3z"/>
<path id="Trazado_183806" class="st5" d="M593,482.3h82.2c7.9,0,14.3,6.4,14.3,14.3c0,0,0,0,0,0v47.3c0,7.9-6.4,14.3-14.3,14.3l0,0
	H593c-7.9,0-14.3-6.4-14.3-14.3v-47.3C578.7,488.7,585.1,482.3,593,482.3C593,482.3,593,482.3,593,482.3z"/>
<path id="Trazado_183807" class="st6" d="M264.7,482.3h101.5c7.9,0,14.3,6.4,14.3,14.3c0,0,0,0,0,0v47.3c0,7.9-6.4,14.3-14.3,14.3
	l0,0H264.7c-7.9,0-14.3-6.4-14.3-14.3v-47.3C250.4,488.7,256.8,482.3,264.7,482.3C264.7,482.3,264.7,482.3,264.7,482.3z"/>
<path id="Trazado_183808" class="st7" d="M399.9,482.3h93.8c7.9,0,14.3,6.4,14.3,14.3c0,0,0,0,0,0v47.3c0,7.9-6.4,14.3-14.3,14.3
	l0,0h-93.8c-7.9,0-14.3-6.4-14.3-14.3v-47.3C385.6,488.7,392,482.3,399.9,482.3C399.9,482.3,399.9,482.3,399.9,482.3z"/>
<path id="Trazado_183830" class="st7" d="M1157.4,482.3h114.8c7.9,0,14.3,6.4,14.3,14.3c0,0,0,0,0,0v47.3c0,7.9-6.4,14.3-14.3,14.3
	l0,0h-114.8c-7.9,0-14.3-6.4-14.3-14.3v-47.3C1143.1,488.7,1149.5,482.3,1157.4,482.3C1157.4,482.3,1157.4,482.3,1157.4,482.3z"/>
<g id="Top_Title" transform="translate(736.417 3485.528)">
	<ellipse id="Elipse_5540" class="st8" cx="-69.9" cy="-3413.9" rx="63.5" ry="65.1"/>
</g>
<path id="Trazado_182545" class="st9" d="M343.3,283.8h0.1v0.1"/>
<path id="Trazado_183789" class="st10" d="M125.4,283.8h-0.1"/>
<path id="Trazado_183797" class="st11" d="M666,1c38.1,0,69,31.6,69,70.6s-30.9,70.6-69,70.6s-69-31.6-69-70.6S627.8,1,666,1z"/>
<path id="Trazado_183812" class="st12" d="M762.1,107h0.1"/>
<path id="Trazado_183801" class="st13" d="M650,219h172"/>
<path id="Trazado_183792" class="st13" d="M257,332.8h682"/>
<path id="Trazado_183798" class="st13" d="M59,436.8l388-1"/>
<path id="Trazado_183802" class="st13" d="M654.3,437h607.2"/>
<path id="Trazado_183824" class="st13" d="M892.3,274.6h47"/>
<path id="Trazado_182551" class="st14" d="M1095.9,107h0.1v0.1"/>
<path id="Trazado_183829" class="st12" d="M1096,195v0.1"/>
<path id="Trazado_183799" class="st12" d="M568.5,107.1h-0.1"/>
<path id="Trazado_182552" class="st14" d="M234.8,107.1h-0.1v0.1"/>
<path id="Trazado_183788" class="st12" d="M234.7,195v0.1"/>
<path id="Trazado_182553" class="st11" d="M666.5,144.3v188.8"/>
<path id="Trazado_182554" class="st11" d="M915.3,237.2v37.4"/>
<path id="Trazado_182555" class="st11" d="M939.8,332.8v37.4"/>
<path id="Trazado_182556" class="st11" d="M256,332.8v37.4"/>
<path id="Trazado_182557" class="st11" d="M256,398.5v37.4"/>
<path id="Trazado_182566" class="st11" d="M941,398.5v37.4"/>
<path id="Trazado_182558" class="st11" d="M315.6,437.1v44.6"/>
<path id="Trazado_182562" class="st11" d="M1101.1,437v44.6"/>
<path id="Trazado_182559" class="st11" d="M446.6,437.1v44.6"/>
<path id="Trazado_182563" class="st11" d="M1261.1,437v44.6"/>
<path id="Trazado_182560" class="st11" d="M180.6,437.1v44.6"/>
<path id="Trazado_182564" class="st11" d="M941.1,437v44.6"/>
<path id="Trazado_182561" class="st11" d="M58.6,437.1v44.6"/>
<path id="Trazado_182565" class="st11" d="M796.1,437v44.6"/>
<path id="Trazado_182567" class="st11" d="M654.1,437v44.6"/>
<path id="Trazado_183800" class="st15" d="M631.9,51.1V36.9h5.1c1.5-0.1,2.9,0.3,4.2,1c0.9,0.7,1.5,1.8,1.4,2.9
	c0,0.7-0.2,1.3-0.5,1.9c-0.4,0.5-0.9,0.9-1.5,1.2c0.7,0.2,1.3,0.5,1.7,1.1c0.4,0.6,0.6,1.3,0.6,2c0.1,1.2-0.4,2.4-1.3,3.1
	c-1.2,0.8-2.5,1.2-3.9,1.1H631.9z M635.3,45.1v3.4h2.3c0.5,0,1-0.1,1.4-0.4c0.3-0.3,0.5-0.7,0.5-1.2c0.1-0.9-0.5-1.7-1.3-1.8
	c-0.1,0-0.3,0-0.4,0L635.3,45.1z M635.3,42.8h1.8c0.6,0,1.1-0.1,1.6-0.4c0.3-0.3,0.5-0.7,0.5-1.2c0-0.5-0.1-1-0.5-1.3
	c-0.5-0.3-1.1-0.4-1.7-0.4h-1.7V42.8z M650.6,51.1c-0.1-0.3-0.3-0.6-0.3-0.9c-0.6,0.8-1.6,1.2-2.5,1.1c-0.9,0-1.8-0.3-2.5-0.9
	c-0.7-0.6-1.1-1.4-1-2.3c-0.1-1,0.4-2,1.3-2.6c1.1-0.7,2.4-1,3.7-0.9h1v-0.6c0-1-0.4-1.5-1.3-1.5c-0.6-0.1-1.1,0.3-1.2,0.9
	c0,0.1,0,0.2,0,0.3h-3.3c0-1,0.5-1.9,1.3-2.5c1-0.7,2.1-1,3.3-1c1.1-0.1,2.3,0.3,3.2,1c0.8,0.7,1.2,1.7,1.2,2.7v4.7
	c0,0.8,0.1,1.5,0.4,2.2v0.2H650.6z M648.6,49c0.4,0,0.7-0.1,1-0.3c0.2-0.1,0.4-0.4,0.6-0.6v-1.7h-1c-1.1,0-1.7,0.5-1.7,1.5
	c0,0.3,0.1,0.5,0.3,0.7C648,48.9,648.3,49,648.6,49z M660.8,48.2c0-0.3-0.2-0.6-0.4-0.7c-0.5-0.2-1.1-0.4-1.7-0.5
	c-0.7-0.1-1.4-0.4-2-0.7c-0.5-0.3-0.9-0.6-1.2-1.1c-0.3-0.4-0.4-0.9-0.4-1.5c0-0.9,0.4-1.8,1.2-2.4c0.9-0.7,2-1,3.1-0.9
	c1.2-0.1,2.4,0.3,3.4,0.9c0.8,0.6,1.3,1.5,1.3,2.5h-3.3c0-0.8-0.4-1.3-1.3-1.3c-0.3,0-0.6,0.1-0.9,0.3c-0.2,0.2-0.4,0.4-0.4,0.7
	c0,0.3,0.2,0.6,0.4,0.7c0.4,0.2,0.9,0.4,1.4,0.4c0.6,0.1,1.1,0.2,1.7,0.4c1.4,0.3,2.4,1.5,2.4,2.9c0,1-0.5,1.8-1.3,2.4
	c-1,0.6-2.1,1-3.3,0.9c-0.8,0-1.7-0.2-2.4-0.5c-0.7-0.3-1.2-0.7-1.7-1.3c-0.4-0.5-0.6-1.1-0.6-1.8h3.1c0,0.4,0.2,0.8,0.5,1.1
	c0.4,0.2,0.8,0.4,1.2,0.3c0.4,0,0.7-0.1,1-0.3C660.7,48.7,660.8,48.4,660.8,48.2L660.8,48.2z M670.6,51.3c-1.5,0.1-2.9-0.5-3.9-1.5
	c-1-1-1.6-2.4-1.5-3.8v-0.3c0-1,0.2-2,0.6-2.9c0.4-0.8,1-1.5,1.8-1.9c0.8-0.5,1.8-0.7,2.7-0.7c1.3-0.1,2.6,0.4,3.5,1.4
	c0.9,1.1,1.4,2.5,1.3,3.9v1.3h-6.5c0.1,0.5,0.4,1,0.8,1.4c0.4,0.4,1,0.5,1.5,0.5c0.9,0,1.8-0.4,2.4-1.1l1.5,1.8
	c-0.5,0.6-1.1,1.1-1.7,1.4C672.3,51.2,671.5,51.3,670.6,51.3z M670.3,42.9c-1,0-1.5,0.6-1.7,1.9h3.3v-0.3c0-0.4-0.1-0.9-0.4-1.2
	C671.1,43,670.7,42.9,670.3,42.9L670.3,42.9z M681,45.8c-0.1-1.4,0.3-2.8,1.1-4c0.7-1,1.8-1.5,3-1.5c0.9,0,1.8,0.4,2.4,1.1v-5.4h3.3
	v15h-3l-0.2-1.1c-0.6,0.8-1.6,1.3-2.6,1.3c-1.2,0-2.3-0.5-3-1.4C681.3,48.7,680.9,47.2,681,45.8L681,45.8z M684.3,46
	c0,1.9,0.5,2.8,1.6,2.8c0.7,0,1.3-0.3,1.6-0.9v-4c-0.3-0.6-0.9-1-1.5-0.9c-1,0-1.6,0.8-1.6,2.5L684.3,46z M697.8,51.3
	c-1.5,0.1-2.9-0.5-3.9-1.5c-1-1-1.6-2.4-1.5-3.8v-0.3c0-1,0.2-2,0.6-2.9c0.4-0.8,1-1.5,1.8-1.9c0.8-0.5,1.8-0.7,2.7-0.7
	c1.3-0.1,2.6,0.4,3.5,1.4c0.9,1.1,1.4,2.5,1.3,3.9v1.3h-6.5c0.1,0.5,0.4,1,0.8,1.4c0.4,0.4,1,0.5,1.5,0.5c0.9,0,1.8-0.4,2.4-1.1
	l1.5,1.8c-0.5,0.6-1.1,1.1-1.7,1.4C699.4,51.2,698.6,51.3,697.8,51.3z M697.4,42.9c-1,0-1.5,0.6-1.7,1.9h3.3v-0.3
	c0-0.4-0.1-0.9-0.4-1.2C698.3,43,697.8,42.9,697.4,42.9L697.4,42.9z M642.3,72.8c-0.1-1.4,0.3-2.8,1.1-4c0.7-1,1.8-1.5,3-1.4
	c0.9,0,1.8,0.4,2.4,1.1v-5.4h3.3v15h-3l-0.2-1.1c-0.6,0.8-1.6,1.3-2.6,1.3c-1.2,0-2.3-0.5-3-1.4C642.6,75.7,642.2,74.2,642.3,72.8z
	 M645.6,73c0,1.9,0.5,2.8,1.6,2.8c0.7,0,1.3-0.3,1.6-0.9v-4c-0.3-0.6-0.9-1-1.5-0.9c-1,0-1.6,0.8-1.7,2.5L645.6,73z M659.9,78.1
	c-0.1-0.3-0.3-0.6-0.3-0.9c-0.6,0.8-1.6,1.2-2.5,1.1c-0.9,0-1.8-0.3-2.5-0.9c-0.7-0.6-1.1-1.4-1-2.3c-0.1-1,0.4-2,1.3-2.6
	c1.1-0.7,2.4-1,3.7-0.9h1v-0.6c0-1-0.4-1.5-1.3-1.5c-0.6-0.1-1.1,0.3-1.2,0.9c0,0.1,0,0.2,0,0.3h-3.3c0-1,0.5-1.9,1.3-2.5
	c1-0.7,2.1-1,3.3-1c1.1-0.1,2.3,0.3,3.2,1c0.8,0.7,1.2,1.7,1.2,2.7v4.7c0,0.8,0.1,1.5,0.4,2.2v0.2H659.9z M657.8,76
	c0.4,0,0.7-0.1,1-0.3c0.2-0.1,0.4-0.4,0.6-0.6v-1.7h-1c-1.1,0-1.7,0.5-1.7,1.5c0,0.3,0.1,0.5,0.3,0.7C657.3,75.9,657.5,76,657.8,76z
	 M668.4,64.9v2.6h1.7v2.3h-1.7v4.8c0,0.3,0,0.6,0.2,0.8c0.2,0.2,0.5,0.3,0.9,0.2c0.3,0,0.5,0,0.8-0.1v2.4c-0.6,0.2-1.2,0.3-1.9,0.3
	c-0.9,0.1-1.8-0.2-2.5-0.8c-0.6-0.7-0.9-1.5-0.8-2.4v-5.2h-1.3v-2.3h1.3v-2.6H668.4z M670.7,72.8c0-1,0.2-1.9,0.6-2.8
	c0.4-0.8,1-1.5,1.8-1.9c0.8-0.5,1.8-0.7,2.7-0.7c1.4-0.1,2.8,0.5,3.7,1.5c1,1.1,1.4,2.5,1.4,4V73c0.1,1.4-0.4,2.8-1.4,3.9
	c-1,1-2.3,1.5-3.7,1.5c-1.3,0.1-2.7-0.4-3.6-1.4c-0.9-1-1.5-2.3-1.5-3.7L670.7,72.8z M674,73c-0.1,0.7,0.1,1.5,0.5,2.1
	c0.3,0.5,0.8,0.7,1.4,0.7c1.2,0,1.8-0.9,1.8-2.7v-0.3c0-1.9-0.6-2.8-1.8-2.8c-1.1,0-1.7,0.8-1.8,2.5L674,73z M687.9,75.2
	c0-0.3-0.2-0.6-0.4-0.7c-0.5-0.2-1.1-0.4-1.7-0.5c-0.7-0.1-1.4-0.4-2-0.7c-0.5-0.3-0.9-0.6-1.2-1.1c-0.3-0.4-0.4-0.9-0.4-1.5
	c0-0.9,0.4-1.8,1.2-2.4c0.9-0.7,2-1,3.1-0.9c1.2-0.1,2.4,0.3,3.4,0.9c0.8,0.6,1.3,1.5,1.3,2.5h-3.3c0-0.8-0.4-1.3-1.3-1.3
	c-0.3,0-0.6,0.1-0.9,0.3c-0.2,0.2-0.4,0.4-0.4,0.7c0,0.3,0.2,0.6,0.4,0.7c0.4,0.2,0.9,0.4,1.4,0.4c0.6,0.1,1.1,0.2,1.7,0.4
	c1.4,0.3,2.4,1.5,2.4,2.9c0,1-0.5,1.8-1.3,2.4c-1,0.6-2.1,1-3.3,0.9c-0.8,0-1.7-0.2-2.4-0.5c-0.7-0.3-1.2-0.7-1.7-1.3
	c-0.4-0.5-0.6-1.1-0.6-1.8h3.1c0,0.4,0.2,0.8,0.5,1.1c0.4,0.2,0.8,0.4,1.2,0.3c0.4,0,0.7-0.1,1-0.3
	C687.8,75.7,687.9,75.4,687.9,75.2L687.9,75.2z M648.4,105.1H645l-5-8.8v8.8h-3.4V90.9h3.4l5,8.8v-8.8h3.4L648.4,105.1z M650,99.8
	c0-1,0.2-1.9,0.6-2.8c0.4-0.8,1-1.5,1.8-1.9c0.8-0.5,1.8-0.7,2.7-0.7c1.4-0.1,2.8,0.5,3.7,1.5c1,1.1,1.4,2.5,1.4,4v0.1
	c0.1,1.4-0.4,2.8-1.4,3.9c-1,1-2.3,1.5-3.7,1.4c-1.3,0.1-2.7-0.4-3.6-1.4c-0.9-1-1.5-2.3-1.5-3.7L650,99.8z M653.3,100
	c-0.1,0.7,0.1,1.5,0.5,2.1c0.3,0.5,0.8,0.7,1.4,0.7c1.2,0,1.8-0.9,1.8-2.7v-0.3c0-1.9-0.6-2.8-1.8-2.8c-1.1,0-1.7,0.8-1.8,2.5
	L653.3,100z M669.2,101.4c0-0.5-0.2-0.9-0.5-1.2c-0.6-0.4-1.2-0.7-1.9-0.9c-0.7-0.2-1.5-0.5-2.2-0.9c-1.8-0.9-2.8-2.1-2.8-3.7
	c0-0.8,0.2-1.5,0.7-2.1c0.5-0.6,1.2-1.1,1.9-1.4c0.9-0.3,1.9-0.5,2.8-0.5c0.9,0,1.9,0.2,2.7,0.5c0.8,0.3,1.4,0.9,1.9,1.5
	c0.5,0.7,0.7,1.5,0.7,2.3h-3.4c0-0.5-0.2-1-0.5-1.3c-0.4-0.3-0.9-0.5-1.4-0.5c-0.5,0-1,0.1-1.5,0.4c-0.5,0.4-0.7,1.1-0.3,1.7
	c0.1,0.2,0.2,0.3,0.4,0.4c0.6,0.4,1.3,0.7,2.1,0.9c0.8,0.3,1.7,0.6,2.4,1c1.4,0.7,2.3,2.1,2.3,3.7c0,1.1-0.5,2.2-1.4,2.9
	c-1.1,0.8-2.5,1.1-3.9,1.1c-1.1,0-2.1-0.2-3.1-0.6c-0.9-0.3-1.6-0.9-2.1-1.7c-0.5-0.7-0.7-1.6-0.7-2.5h3.4c-0.1,0.6,0.2,1.2,0.6,1.7
	c0.6,0.4,1.2,0.6,1.9,0.5c0.5,0,0.9-0.1,1.3-0.4C669,102.2,669.2,101.8,669.2,101.4L669.2,101.4z M686.4,98.3c0,1.2-0.2,2.4-0.7,3.4
	c-0.4,0.9-1,1.7-1.8,2.4l2.3,1.8l-2.1,1.8l-3.1-2.5c-0.3,0-0.6,0.1-0.9,0.1c-1.1,0-2.2-0.3-3.2-0.8c-0.9-0.6-1.7-1.4-2.2-2.4
	c-0.5-1.1-0.8-2.3-0.8-3.6v-0.8c0-1.3,0.2-2.5,0.8-3.7c0.5-1,1.2-1.9,2.2-2.5c2-1.2,4.5-1.2,6.5,0c1,0.6,1.7,1.4,2.2,2.4
	c0.5,1.1,0.8,2.4,0.8,3.6L686.4,98.3z M682.9,97.7c0.1-1.1-0.2-2.2-0.7-3.2c-0.7-1.1-2.3-1.4-3.4-0.7c-0.3,0.2-0.5,0.4-0.7,0.7
	c-0.5,1-0.8,2.1-0.7,3.2v0.7c-0.1,1.1,0.2,2.2,0.7,3.2c0.4,0.7,1.2,1.2,2.1,1.1c0.8,0,1.6-0.4,2-1.1c0.5-1,0.8-2.1,0.7-3.2
	L682.9,97.7z M691.6,102.5h6v2.6h-9.4V90.9h3.4L691.6,102.5z"/>
<path id="Trazado_183793" class="st16" d="M431.9,171.1h-6l-1.3,3.7h-1.9l5.4-14.2h1.6l5.4,14.2h-1.9L431.9,171.1z M426.5,169.5h4.8
	l-2.4-6.6L426.5,169.5z M438.8,174.8H437v-15h1.8L438.8,174.8z M443.4,164.2l0,1.2c0.8-0.9,1.9-1.4,3.1-1.4c1.3-0.1,2.5,0.6,3,1.7
	c0.4-0.5,0.8-0.9,1.4-1.2c0.6-0.3,1.3-0.5,2-0.5c2.3,0,3.5,1.2,3.5,3.7v7.1h-1.8v-7c0-0.6-0.1-1.2-0.5-1.7c-0.5-0.4-1.1-0.6-1.7-0.6
	c-0.6,0-1.2,0.2-1.7,0.6c-0.5,0.4-0.7,1-0.8,1.6v7h-1.8v-6.9c0.2-1.1-0.6-2.1-1.7-2.3c-0.2,0-0.4,0-0.6,0c-1.1-0.1-2,0.5-2.4,1.5
	v7.7h-1.8v-10.6H443.4z M465.7,174.8c-0.1-0.4-0.2-0.7-0.3-1.1c-0.8,0.8-1.9,1.3-3,1.3c-0.9,0-1.8-0.3-2.6-0.9c-0.7-0.6-1-1.4-1-2.2
	c0-1,0.4-2,1.3-2.6c1.1-0.7,2.3-1,3.5-0.9h1.8v-0.8c0-0.6-0.2-1.1-0.6-1.5c-0.5-0.4-1.1-0.6-1.7-0.6c-0.6,0-1.1,0.2-1.6,0.5
	c-0.4,0.3-0.6,0.7-0.7,1.2h-1.8c0-0.6,0.2-1.1,0.6-1.5c0.4-0.5,0.9-0.9,1.5-1.2c0.7-0.3,1.4-0.4,2.1-0.4c1-0.1,2.1,0.3,2.9,0.9
	c0.7,0.6,1.1,1.6,1.1,2.5v4.9c0,0.8,0.1,1.6,0.4,2.3v0.2H465.7z M462.7,173.4c0.6,0,1.1-0.2,1.6-0.4c0.5-0.3,0.9-0.7,1.1-1.1v-2.2
	H464c-2.2,0-3.3,0.6-3.3,1.9c0,0.5,0.2,1,0.6,1.3C461.7,173.3,462.2,173.4,462.7,173.4L462.7,173.4z M474.3,173.5
	c0.6,0,1.2-0.2,1.7-0.6c0.5-0.4,0.8-0.9,0.8-1.5h1.7c0,0.6-0.3,1.2-0.6,1.7c-0.4,0.6-0.9,1-1.5,1.3c-0.6,0.3-1.3,0.5-2,0.5
	c-1.3,0.1-2.6-0.5-3.4-1.4c-0.9-1.1-1.4-2.5-1.3-3.9v-0.3c0-0.9,0.2-1.9,0.6-2.7c0.3-0.8,0.9-1.4,1.6-1.9c0.8-0.5,1.6-0.7,2.5-0.7
	c1.1,0,2.1,0.3,3,1.1c0.8,0.7,1.2,1.7,1.3,2.8h-1.7c0-0.6-0.3-1.2-0.8-1.7c-0.5-0.4-1.1-0.7-1.7-0.7c-0.8,0-1.6,0.3-2.1,1
	c-0.6,0.8-0.8,1.9-0.8,2.9v0.3c-0.1,1,0.2,2,0.8,2.8C472.7,173.2,473.5,173.6,474.3,173.5L474.3,173.5z M484.9,175
	c-1.3,0-2.6-0.5-3.5-1.4c-0.9-1-1.4-2.4-1.3-3.8v-0.3c0-1,0.2-1.9,0.6-2.8c0.4-0.8,1-1.5,1.7-1.9c0.7-0.5,1.5-0.7,2.3-0.7
	c1.2-0.1,2.4,0.4,3.2,1.4c0.8,1.1,1.2,2.5,1.1,3.9v0.8h-7.2c0,0.9,0.3,1.8,0.9,2.5c0.6,0.6,1.4,1,2.2,1c0.6,0,1.1-0.1,1.6-0.4
	c0.5-0.3,0.8-0.6,1.2-1l1.1,0.9C488,174.3,486.5,175.1,484.9,175z M484.7,165.5c-0.7,0-1.4,0.3-1.8,0.8c-0.5,0.6-0.9,1.4-0.9,2.2
	h5.3v-0.1c0-0.8-0.3-1.5-0.7-2.1C486,165.8,485.4,165.5,484.7,165.5L484.7,165.5z M492.8,164.2l0.1,1.3c0.7-1,1.9-1.6,3.2-1.5
	c2.2,0,3.4,1.3,3.4,3.8v7h-1.8v-7c0-0.6-0.1-1.2-0.5-1.7c-0.4-0.4-1-0.6-1.6-0.5c-0.6,0-1.1,0.2-1.5,0.5c-0.4,0.3-0.8,0.7-1,1.2v7.5
	h-1.8v-10.6L492.8,164.2z M508.7,174.8c-0.1-0.4-0.2-0.7-0.3-1.1c-0.8,0.8-1.9,1.3-3,1.3c-0.9,0-1.8-0.3-2.6-0.9
	c-0.7-0.6-1-1.4-1-2.2c0-1,0.4-2,1.3-2.6c1.1-0.7,2.3-1,3.5-0.9h1.8v-0.8c0-0.6-0.2-1.1-0.6-1.5c-0.5-0.4-1.1-0.6-1.7-0.6
	c-0.6,0-1.1,0.2-1.6,0.5c-0.4,0.3-0.6,0.7-0.7,1.2h-1.8c0-0.6,0.2-1.1,0.6-1.5c0.4-0.5,0.9-0.9,1.5-1.2c0.7-0.3,1.4-0.4,2.1-0.4
	c1-0.1,2.1,0.3,2.9,0.9c0.7,0.6,1.1,1.6,1.1,2.5v4.9c0,0.8,0.1,1.6,0.4,2.3v0.2H508.7z M505.7,173.4c0.6,0,1.1-0.2,1.6-0.4
	c0.5-0.3,0.9-0.7,1.1-1.1v-2.2H507c-2.2,0-3.3,0.6-3.3,1.9c0,0.5,0.2,1,0.6,1.3C504.6,173.3,505.2,173.4,505.7,173.4L505.7,173.4z"
	/>
<path id="Trazado_183813" class="st15" d="M140.6,520.8l2.6-9.3h3.4l-4.3,12.8h-3.4l-4.3-12.8h3.4L140.6,520.8z M151.6,524.5
	c-1.3,0.1-2.6-0.4-3.5-1.3c-0.9-0.9-1.4-2.1-1.4-3.4v-0.2c0-0.9,0.2-1.8,0.5-2.6c0.3-0.7,0.9-1.3,1.6-1.7c0.8-0.4,1.6-0.6,2.5-0.6
	c1.2-0.1,2.3,0.4,3.2,1.2c0.8,1,1.2,2.2,1.2,3.5v1.2h-5.9c0.1,0.5,0.3,0.9,0.7,1.3c0.4,0.3,0.9,0.5,1.4,0.5c0.8,0,1.7-0.3,2.2-1
	l1.4,1.6c-0.4,0.5-0.9,1-1.6,1.2C153.1,524.3,152.4,524.5,151.6,524.5L151.6,524.5z M151.3,516.9c-0.9,0-1.4,0.6-1.5,1.7h3v-0.2
	c0-0.4-0.1-0.8-0.4-1.1C152.1,517,151.7,516.9,151.3,516.9z M162.6,517.5l-1-0.1c-0.7-0.1-1.4,0.2-1.8,0.9v6h-3v-9.5h2.8l0.1,1.2
	c0.4-0.8,1.2-1.4,2.1-1.4c0.3,0,0.6,0,0.8,0.1L162.6,517.5z M168.6,521.6c0-0.3-0.2-0.5-0.4-0.6c-0.5-0.2-1-0.4-1.5-0.5
	c-0.6-0.1-1.3-0.3-1.8-0.6c-0.4-0.2-0.8-0.6-1.1-1c-0.3-0.4-0.4-0.8-0.4-1.3c0-0.9,0.4-1.7,1.1-2.2c0.8-0.6,1.8-0.9,2.8-0.8
	c1.1-0.1,2.1,0.2,3,0.9c0.7,0.5,1.2,1.3,1.1,2.2h-3c0-0.8-0.4-1.1-1.2-1.1c-0.3,0-0.6,0.1-0.8,0.3c-0.2,0.2-0.3,0.4-0.3,0.6
	c0,0.3,0.2,0.5,0.4,0.6c0.4,0.2,0.8,0.3,1.2,0.4c0.5,0.1,1,0.2,1.5,0.4c1.3,0.3,2.1,1.4,2.1,2.6c0,0.9-0.4,1.7-1.2,2.1
	c-0.9,0.6-1.9,0.9-3,0.8c-0.7,0-1.5-0.1-2.2-0.4c-0.6-0.3-1.1-0.7-1.5-1.2c-0.3-0.5-0.5-1-0.5-1.6h2.8c0,0.4,0.1,0.7,0.4,1
	c0.3,0.2,0.7,0.3,1.1,0.3c0.3,0,0.6-0.1,0.9-0.2C168.5,522.1,168.6,521.9,168.6,521.6z M178.2,524.3c-0.1-0.3-0.2-0.6-0.3-0.9
	c-0.6,0.7-1.4,1.1-2.3,1c-0.8,0-1.7-0.3-2.3-0.8c-0.6-0.5-1-1.3-0.9-2c-0.1-0.9,0.4-1.8,1.1-2.3c1-0.6,2.2-0.9,3.3-0.8h0.9V518
	c0-0.9-0.4-1.3-1.1-1.3c-0.5-0.1-1,0.3-1.1,0.8c0,0.1,0,0.2,0,0.3h-3c0-0.9,0.4-1.7,1.2-2.2c0.9-0.6,1.9-0.9,3-0.9
	c1-0.1,2.1,0.3,2.9,0.9c0.7,0.6,1.1,1.5,1.1,2.4v4.2c0,0.7,0.1,1.4,0.4,2v0.2H178.2z M176.4,522.4c0.3,0,0.6-0.1,0.9-0.2
	c0.2-0.1,0.4-0.3,0.5-0.5v-1.5H177c-1,0-1.5,0.5-1.5,1.4c0,0.2,0.1,0.5,0.3,0.7C175.9,522.3,176.1,522.4,176.4,522.4L176.4,522.4z
	 M185.9,512.4v2.4h1.6v2.1h-1.6v4.4c0,0.3,0,0.5,0.2,0.7c0.2,0.2,0.5,0.2,0.8,0.2c0.2,0,0.5,0,0.7-0.1v2.1c-0.5,0.2-1.1,0.3-1.7,0.3
	c-0.8,0.1-1.6-0.2-2.3-0.7c-0.5-0.6-0.8-1.4-0.7-2.2v-4.7h-1.2v-2.1h1.2v-2.4H185.9z M191.7,524.3h-3v-9.5h3V524.3z M188.6,512.3
	c0-0.4,0.2-0.8,0.5-1c0.7-0.5,1.7-0.5,2.4,0c0.3,0.3,0.5,0.6,0.5,1c0,0.4-0.2,0.8-0.5,1c-0.7,0.5-1.7,0.5-2.4,0
	C188.7,513.1,188.6,512.7,188.6,512.3z M196.7,524.3h-3v-13.5h3V524.3z M201.6,524.3h-3v-9.5h3V524.3z M198.5,512.3
	c0-0.4,0.2-0.8,0.5-1c0.7-0.5,1.7-0.5,2.4,0c0.3,0.3,0.5,0.6,0.5,1c0,0.4-0.2,0.8-0.5,1c-0.7,0.5-1.7,0.5-2.4,0
	C198.6,513.1,198.5,512.7,198.5,512.3z M203.1,519.5c-0.1-1.3,0.3-2.5,1-3.6c0.6-0.9,1.7-1.3,2.7-1.3c0.8,0,1.6,0.4,2.1,1v-4.8h3
	v13.5h-2.7l-0.1-1c-0.5,0.8-1.4,1.2-2.3,1.2c-1.1,0-2.1-0.4-2.7-1.3C203.3,522.1,203,520.8,203.1,519.5L203.1,519.5z M206,519.7
	c0,1.7,0.5,2.5,1.5,2.5c0.6,0,1.1-0.3,1.4-0.8v-3.6c-0.2-0.5-0.8-0.9-1.4-0.8c-0.9,0-1.4,0.7-1.5,2.2L206,519.7z M218.9,524.3
	c-0.1-0.3-0.2-0.6-0.3-0.9c-0.6,0.7-1.4,1.1-2.3,1c-0.8,0-1.7-0.3-2.3-0.8c-0.6-0.5-1-1.3-0.9-2c-0.1-0.9,0.4-1.8,1.1-2.3
	c1-0.6,2.2-0.9,3.3-0.8h0.9V518c0-0.9-0.4-1.3-1.1-1.3c-0.5-0.1-1,0.3-1.1,0.8c0,0.1,0,0.2,0,0.3h-3c0-0.9,0.4-1.7,1.2-2.2
	c0.9-0.6,1.9-0.9,3-0.9c1-0.1,2.1,0.3,2.9,0.9c0.7,0.6,1.1,1.5,1.1,2.4v4.2c0,0.7,0.1,1.4,0.4,2v0.2H218.9z M217.1,522.4
	c0.3,0,0.6-0.1,0.9-0.2c0.2-0.1,0.4-0.3,0.5-0.5v-1.5h-0.9c-1,0-1.5,0.5-1.5,1.4c0,0.2,0.1,0.5,0.3,0.7
	C216.6,522.3,216.8,522.4,217.1,522.4z M222.8,519.5c-0.1-1.3,0.3-2.5,1-3.6c0.6-0.9,1.7-1.3,2.7-1.3c0.8,0,1.6,0.4,2.1,1v-4.8h3
	v13.5h-2.7l-0.1-1c-0.5,0.8-1.4,1.2-2.3,1.2c-1.1,0-2.1-0.4-2.7-1.3C223,522.1,222.7,520.8,222.8,519.5L222.8,519.5z M225.7,519.7
	c0,1.7,0.5,2.5,1.5,2.5c0.6,0,1.1-0.3,1.4-0.8v-3.6c-0.2-0.5-0.8-0.9-1.4-0.8c-0.9,0-1.4,0.7-1.5,2.2L225.7,519.7z"/>
<path id="Trazado_183822" class="st15" d="M868.8,512.5l2.9,8.9l2.8-8.9h4.1v12.8h-3.1v-3l0.3-6.1l-3.1,9.1h-2l-3.1-9.1l0.3,6.1v3
	h-3.1v-12.8H868.8z M885,525.5c-1.3,0.1-2.6-0.4-3.5-1.3c-0.9-0.9-1.4-2.1-1.4-3.4v-0.2c0-0.9,0.2-1.8,0.5-2.6
	c0.3-0.7,0.9-1.3,1.6-1.7c0.8-0.4,1.6-0.6,2.5-0.6c1.2-0.1,2.3,0.4,3.2,1.2c0.8,1,1.2,2.2,1.2,3.5v1.2h-5.9c0.1,0.5,0.3,0.9,0.7,1.3
	c0.4,0.3,0.9,0.5,1.4,0.5c0.8,0,1.7-0.3,2.2-1l1.4,1.6c-0.4,0.5-0.9,1-1.6,1.2C886.5,525.3,885.7,525.5,885,525.5z M884.7,517.9
	c-0.9,0-1.4,0.6-1.5,1.7h3v-0.2c0-0.4-0.1-0.8-0.4-1.1C885.4,518,885.1,517.9,884.7,517.9z M892.9,515.8l0.1,1.1
	c0.6-0.9,1.7-1.3,2.7-1.3c0.8-0.1,1.7,0.3,2.2,0.9c0.5,0.8,0.8,1.7,0.8,2.7v6.1h-3v-6c0-0.4-0.1-0.8-0.3-1.1
	c-0.3-0.3-0.7-0.4-1.1-0.3c-0.5,0-1,0.2-1.3,0.7v6.7h-3v-9.5H892.9z M900,520.4c0-0.9,0.2-1.7,0.6-2.5c0.3-0.7,0.9-1.3,1.6-1.7
	c0.7-0.4,1.6-0.6,2.4-0.6c1.3-0.1,2.5,0.4,3.4,1.3c0.9,1,1.3,2.3,1.2,3.6v0.1c0.1,1.3-0.4,2.6-1.2,3.5c-0.9,0.9-2.1,1.4-3.3,1.3
	c-1.2,0.1-2.4-0.4-3.3-1.2c-0.9-0.9-1.3-2.1-1.3-3.3L900,520.4z M902.9,520.6c0,0.7,0.1,1.3,0.4,1.9c0.3,0.4,0.7,0.6,1.2,0.6
	c1.1,0,1.6-0.8,1.6-2.4v-0.3c0-1.7-0.5-2.6-1.6-2.6c-1,0-1.5,0.7-1.6,2.2L902.9,520.6z M915.4,522.6c0-0.3-0.2-0.5-0.4-0.6
	c-0.5-0.2-1-0.4-1.5-0.5c-0.6-0.1-1.3-0.3-1.8-0.6c-0.4-0.2-0.8-0.6-1.1-1c-0.3-0.4-0.4-0.8-0.4-1.3c0-0.9,0.4-1.7,1.1-2.2
	c0.8-0.6,1.8-0.9,2.8-0.8c1.1-0.1,2.1,0.2,3,0.9c0.7,0.5,1.2,1.4,1.1,2.2h-3c0-0.8-0.4-1.1-1.2-1.1c-0.3,0-0.6,0.1-0.8,0.3
	c-0.2,0.2-0.3,0.4-0.3,0.6c0,0.3,0.2,0.5,0.4,0.6c0.4,0.2,0.8,0.3,1.2,0.4c0.5,0.1,1,0.2,1.5,0.4c1.3,0.3,2.1,1.4,2.1,2.6
	c0,0.9-0.4,1.7-1.2,2.1c-0.9,0.6-1.9,0.9-3,0.8c-0.7,0-1.5-0.1-2.2-0.4c-0.6-0.3-1.1-0.7-1.5-1.2c-0.3-0.5-0.5-1-0.5-1.6h2.8
	c0,0.4,0.1,0.7,0.4,1c0.3,0.2,0.7,0.3,1.1,0.3c0.3,0,0.6-0.1,0.9-0.2C915.3,523.1,915.4,522.9,915.4,522.6L915.4,522.6z
	 M926.9,515.8l0.1,1.1c0.6-0.8,1.7-1.3,2.7-1.3c1-0.1,2,0.5,2.4,1.4c0.6-0.9,1.7-1.5,2.8-1.4c1.9,0,2.9,1.2,3,3.5v6.2h-3v-6
	c0-0.4-0.1-0.7-0.2-1.1c-0.2-0.3-0.6-0.4-0.9-0.3c-0.6,0-1.1,0.3-1.3,0.8l0,0.1v6.5h-3v-6c0-0.4-0.1-0.8-0.2-1.1
	c-0.2-0.3-0.6-0.4-0.9-0.3c-0.5,0-1.1,0.3-1.3,0.8v6.6h-3v-9.5H926.9z M945,525.3c-0.1-0.3-0.2-0.6-0.3-0.9c-0.6,0.7-1.4,1.1-2.3,1
	c-0.8,0-1.7-0.3-2.3-0.8c-0.6-0.5-1-1.3-0.9-2c-0.1-0.9,0.4-1.8,1.1-2.3c1-0.6,2.2-0.9,3.3-0.8h0.9V519c0-0.9-0.4-1.3-1.1-1.3
	c-0.5-0.1-1,0.3-1.1,0.8c0,0.1,0,0.2,0,0.3h-3c0-0.9,0.4-1.7,1.2-2.2c0.9-0.6,1.9-0.9,3-0.9c1-0.1,2.1,0.3,2.9,0.9
	c0.7,0.6,1.1,1.5,1.1,2.4v4.2c0,0.7,0.1,1.4,0.4,2v0.2H945z M943.2,523.4c0.3,0,0.6-0.1,0.9-0.2c0.2-0.1,0.4-0.3,0.5-0.5v-1.5h-0.9
	c-1,0-1.5,0.5-1.5,1.4c0,0.2,0.1,0.5,0.3,0.7C942.7,523.3,942.9,523.4,943.2,523.4L943.2,523.4z M948.8,520.5
	c-0.1-1.3,0.3-2.5,1-3.6c0.6-0.9,1.7-1.3,2.7-1.3c0.8,0,1.6,0.4,2.1,1v-4.8h3v13.5H955l-0.1-1c-0.5,0.8-1.4,1.2-2.3,1.2
	c-1.1,0-2.1-0.4-2.7-1.3C949.1,523.1,948.8,521.8,948.8,520.5L948.8,520.5z M951.8,520.7c0,1.7,0.5,2.5,1.5,2.5
	c0.6,0,1.1-0.3,1.4-0.8v-3.6c-0.2-0.5-0.8-0.9-1.4-0.8c-0.9,0-1.4,0.7-1.5,2.2L951.8,520.7z M965,524.3c-0.6,0.8-1.5,1.2-2.5,1.2
	c-0.9,0.1-1.8-0.3-2.4-0.9c-0.6-0.7-0.9-1.7-0.8-2.6v-6.2h3v6.2c-0.1,0.6,0.3,1.1,0.9,1.2c0.1,0,0.2,0,0.3,0
	c0.6,0.1,1.1-0.2,1.5-0.7v-6.7h3v9.5h-2.8L965,524.3z M975.2,518.5l-1-0.1c-0.7-0.1-1.4,0.2-1.8,0.9v6h-3v-9.5h2.8l0.1,1.2
	c0.4-0.8,1.2-1.4,2.1-1.4c0.3,0,0.6,0,0.8,0.1L975.2,518.5z M980.7,525.5c-1.3,0.1-2.6-0.4-3.5-1.3c-0.9-0.9-1.4-2.1-1.4-3.4v-0.2
	c0-0.9,0.2-1.8,0.5-2.6c0.3-0.7,0.9-1.3,1.6-1.7c0.8-0.4,1.6-0.6,2.5-0.6c1.2-0.1,2.3,0.4,3.2,1.2c0.8,1,1.2,2.2,1.2,3.5v1.2h-5.9
	c0.1,0.5,0.3,0.9,0.7,1.3c0.4,0.3,0.9,0.5,1.4,0.5c0.8,0,1.7-0.3,2.2-1l1.4,1.6c-0.4,0.5-0.9,1-1.6,1.2
	C982.2,525.3,981.5,525.5,980.7,525.5L980.7,525.5z M980.4,517.9c-0.9,0-1.4,0.6-1.5,1.7h3v-0.2c0-0.4-0.1-0.8-0.4-1.1
	C981.2,518,980.8,517.9,980.4,517.9z M989.4,523h4.3v2.3h-8.1v-1.7l4.2-5.6h-4v-2.3h7.8v1.6L989.4,523z"/>
<path id="Trazado_183814" class="st15" d="M12.9,520v4.3H9.8v-12.8h5.1c0.9,0,1.8,0.2,2.6,0.5c0.7,0.3,1.3,0.9,1.7,1.5
	c0.4,0.7,0.6,1.5,0.6,2.3c0,1.2-0.5,2.3-1.3,3c-1.1,0.8-2.4,1.2-3.7,1.1L12.9,520z M12.9,517.6h2c0.5,0,1-0.1,1.4-0.4
	c0.3-0.3,0.5-0.8,0.5-1.3c0-0.5-0.1-1-0.5-1.4c-0.3-0.4-0.8-0.6-1.3-0.5h-2.1V517.6z M20.9,519.4c0-0.9,0.2-1.7,0.6-2.5
	c0.3-0.7,0.9-1.3,1.6-1.7c0.7-0.4,1.6-0.6,2.4-0.6c1.3-0.1,2.5,0.4,3.4,1.3c0.9,1,1.3,2.3,1.2,3.6v0.1c0.1,1.3-0.4,2.6-1.2,3.5
	c-0.9,0.9-2.1,1.4-3.3,1.3c-1.2,0.1-2.4-0.4-3.3-1.2c-0.9-0.9-1.3-2.1-1.3-3.3L20.9,519.4z M23.8,519.6c0,0.7,0.1,1.3,0.4,1.9
	c0.3,0.4,0.7,0.6,1.2,0.6c1.1,0,1.6-0.8,1.6-2.4v-0.3c0-1.7-0.5-2.6-1.6-2.6c-1,0-1.5,0.7-1.6,2.2L23.8,519.6z M37.1,517.5l-1-0.1
	c-0.7-0.1-1.4,0.2-1.8,0.9v6h-3v-9.5h2.8l0.1,1.2c0.4-0.8,1.2-1.4,2.1-1.4c0.3,0,0.6,0,0.8,0.1L37.1,517.5z M42.1,512.4v2.4h1.6v2.1
	h-1.6v4.4c0,0.3,0,0.5,0.2,0.7c0.2,0.2,0.5,0.2,0.8,0.2c0.2,0,0.5,0,0.7-0.1v2.1c-0.5,0.2-1.1,0.3-1.7,0.3c-0.8,0.1-1.6-0.2-2.3-0.7
	c-0.5-0.6-0.8-1.4-0.7-2.2v-4.7h-1.2v-2.1h1.2v-2.4H42.1z M50.2,524.3c-0.1-0.3-0.2-0.6-0.3-0.9c-0.6,0.7-1.4,1.1-2.3,1
	c-0.8,0-1.7-0.3-2.3-0.8c-0.6-0.5-1-1.3-0.9-2c-0.1-0.9,0.4-1.8,1.1-2.3c1-0.6,2.2-0.9,3.3-0.8h0.9V518c0-0.9-0.4-1.3-1.1-1.3
	c-0.5-0.1-1,0.3-1.1,0.8c0,0.1,0,0.2,0,0.3h-3c0-0.9,0.4-1.7,1.2-2.2c0.9-0.6,1.9-0.9,3-0.9c1-0.1,2.1,0.3,2.9,0.9
	c0.7,0.6,1.1,1.5,1.1,2.4v4.2c0,0.7,0.1,1.4,0.4,2v0.2H50.2z M48.3,522.4c0.3,0,0.6-0.1,0.9-0.2c0.2-0.1,0.4-0.3,0.5-0.5v-1.5h-0.9
	c-1,0-1.5,0.5-1.5,1.4c0,0.2,0.1,0.5,0.3,0.7C47.8,522.3,48.1,522.4,48.3,522.4z M63.2,519.6c0.1,1.3-0.3,2.5-1,3.6
	c-0.6,0.8-1.7,1.3-2.7,1.3c-0.9,0-1.8-0.4-2.3-1.2l-0.1,1h-2.7v-13.5h3v4.8c0.5-0.6,1.3-1,2.1-0.9c1.1-0.1,2.1,0.4,2.7,1.3
	c0.7,1.1,1,2.3,1,3.6L63.2,519.6z M60.2,519.4c0.1-0.7-0.1-1.3-0.4-2c-0.2-0.4-0.7-0.6-1.1-0.6c-0.6-0.1-1.1,0.2-1.4,0.8v3.8
	c0.3,0.5,0.8,0.8,1.4,0.8c0.6,0,1.2-0.4,1.3-1C60.2,520.6,60.2,520,60.2,519.4z M67.6,524.3h-3v-9.5h3L67.6,524.3z M64.5,512.3
	c0-0.4,0.2-0.8,0.5-1c0.7-0.5,1.7-0.5,2.4,0c0.3,0.3,0.5,0.6,0.5,1c0,0.4-0.2,0.8-0.5,1c-0.7,0.5-1.7,0.5-2.4,0
	C64.6,513.1,64.5,512.7,64.5,512.3z M72.6,524.3h-3v-13.5h3L72.6,524.3z M77.5,524.3h-3v-9.5h3L77.5,524.3z M74.4,512.3
	c0-0.4,0.2-0.8,0.5-1c0.7-0.5,1.7-0.5,2.4,0c0.3,0.3,0.5,0.6,0.5,1c0,0.4-0.2,0.8-0.5,1c-0.7,0.5-1.7,0.5-2.4,0
	C74.5,513.1,74.4,512.7,74.4,512.3z M79,519.5c-0.1-1.3,0.3-2.5,1-3.6c0.6-0.9,1.7-1.3,2.7-1.3c0.8,0,1.6,0.4,2.1,1v-4.8h3v13.5
	h-2.7l-0.1-1c-0.5,0.8-1.4,1.2-2.3,1.2c-1.1,0-2.1-0.4-2.7-1.3C79.2,522.1,78.9,520.8,79,519.5L79,519.5z M81.9,519.7
	c0,1.7,0.5,2.5,1.5,2.5c0.6,0,1.1-0.3,1.4-0.8v-3.6c-0.2-0.5-0.8-0.9-1.4-0.8c-0.9,0-1.4,0.7-1.5,2.2L81.9,519.7z M94.8,524.3
	c-0.1-0.3-0.2-0.6-0.3-0.9c-0.6,0.7-1.4,1.1-2.3,1c-0.8,0-1.7-0.3-2.3-0.8c-0.6-0.5-1-1.3-0.9-2c-0.1-0.9,0.4-1.8,1.1-2.3
	c1-0.6,2.2-0.9,3.3-0.8h0.9V518c0-0.9-0.4-1.3-1.1-1.3c-0.5-0.1-1,0.3-1.1,0.8c0,0.1,0,0.2,0,0.3h-3c0-0.9,0.4-1.7,1.2-2.2
	c0.9-0.6,1.9-0.9,3-0.9c1-0.1,2.1,0.3,2.9,0.9c0.7,0.6,1.1,1.5,1.1,2.4v4.2c0,0.7,0.1,1.4,0.4,2v0.2H94.8z M93,522.4
	c0.3,0,0.6-0.1,0.9-0.2c0.2-0.1,0.4-0.3,0.5-0.5v-1.5h-0.9c-1,0-1.5,0.5-1.5,1.4c0,0.2,0.1,0.5,0.3,0.7
	C92.5,522.3,92.7,522.4,93,522.4z M98.6,519.5c-0.1-1.3,0.3-2.5,1-3.6c0.6-0.9,1.7-1.3,2.7-1.3c0.8,0,1.6,0.4,2.1,1v-4.8h3v13.5
	h-2.7l-0.1-1c-0.5,0.8-1.4,1.2-2.3,1.2c-1.1,0-2.1-0.4-2.7-1.3C98.9,522.1,98.6,520.8,98.6,519.5L98.6,519.5z M101.6,519.7
	c0,1.7,0.5,2.5,1.5,2.5c0.6,0,1.1-0.3,1.4-0.8v-3.6c-0.2-0.5-0.8-0.9-1.4-0.8c-0.9,0-1.4,0.7-1.5,2.2L101.6,519.7z"/>
<path id="Trazado_183815" class="st15" d="M710.5,525.3h-3.1l-4.5-8v8h-3.1v-12.8h3.1l4.5,8v-8h3.1V525.3z M711.9,520.4
	c0-0.9,0.2-1.7,0.6-2.5c0.3-0.7,0.9-1.3,1.6-1.7c0.7-0.4,1.6-0.6,2.4-0.6c1.3-0.1,2.5,0.4,3.4,1.3c0.9,1,1.3,2.3,1.2,3.6v0.1
	c0.1,1.3-0.4,2.6-1.2,3.5c-0.9,0.9-2.1,1.4-3.3,1.3c-1.2,0.1-2.4-0.4-3.3-1.2c-0.9-0.9-1.3-2.1-1.3-3.3L711.9,520.4z M714.9,520.6
	c0,0.7,0.1,1.3,0.4,1.9c0.3,0.4,0.7,0.6,1.2,0.6c1.1,0,1.6-0.8,1.6-2.4v-0.3c0-1.7-0.5-2.6-1.6-2.6c-1,0-1.5,0.7-1.6,2.2
	L714.9,520.6z M726.5,520.5c-0.1-1.3,0.3-2.5,1-3.6c0.6-0.9,1.7-1.3,2.7-1.3c0.8,0,1.6,0.4,2.1,1v-4.8h3v13.5h-2.7l-0.1-1
	c-0.5,0.8-1.4,1.2-2.3,1.2c-1.1,0-2.1-0.4-2.7-1.3C726.8,523.1,726.4,521.8,726.5,520.5z M729.4,520.7c0,1.7,0.5,2.5,1.5,2.5
	c0.6,0,1.1-0.3,1.4-0.8v-3.6c-0.2-0.5-0.8-0.9-1.4-0.8c-0.9,0-1.4,0.7-1.5,2.2L729.4,520.7z M736.6,520.5c0-0.9,0.2-1.7,0.6-2.5
	c0.3-0.7,0.9-1.3,1.6-1.7c0.7-0.4,1.6-0.6,2.4-0.6c1.3-0.1,2.5,0.4,3.4,1.3c0.9,1,1.3,2.3,1.2,3.6v0.1c0.1,1.3-0.4,2.6-1.2,3.5
	c-0.9,0.9-2.1,1.4-3.3,1.3c-1.2,0.1-2.4-0.4-3.3-1.2c-0.9-0.9-1.3-2.1-1.3-3.3L736.6,520.5z M739.6,520.6c0,0.7,0.1,1.3,0.4,1.9
	c0.3,0.4,0.7,0.6,1.2,0.6c1.1,0,1.6-0.8,1.6-2.4v-0.3c0-1.7-0.5-2.6-1.6-2.6c-1,0-1.5,0.7-1.6,2.2L739.6,520.6z M751.1,523.2
	c0.4,0,0.7-0.1,1-0.3c0.2-0.3,0.4-0.6,0.3-0.9h2.8c0,1-0.4,1.9-1.1,2.6c-0.8,0.7-1.8,1-2.9,1c-1.2,0.1-2.4-0.4-3.3-1.3
	c-0.8-1-1.3-2.3-1.2-3.6v-0.1c0-0.9,0.2-1.8,0.5-2.6c0.3-0.7,0.9-1.3,1.5-1.7c0.7-0.4,1.5-0.6,2.4-0.6c1.1-0.1,2.1,0.3,2.9,1
	c0.7,0.7,1.1,1.7,1.1,2.8h-2.8c0-0.4-0.1-0.8-0.4-1.1c-0.2-0.3-0.6-0.4-1-0.4c-0.8,0-1.2,0.5-1.3,1.5c0,0.4-0.1,0.9-0.1,1.3
	c-0.1,0.7,0.1,1.4,0.3,2C750.3,523,750.7,523.2,751.1,523.2L751.1,523.2z M762.1,524.3c-0.6,0.8-1.5,1.2-2.5,1.2
	c-0.9,0.1-1.8-0.3-2.4-0.9c-0.6-0.7-0.9-1.7-0.8-2.6v-6.2h3v6.2c-0.1,0.6,0.3,1.1,0.9,1.2c0.1,0,0.2,0,0.3,0
	c0.6,0.1,1.1-0.2,1.4-0.7v-6.7h3v9.5h-2.8L762.1,524.3z M769.4,515.8l0.1,1.1c0.6-0.8,1.7-1.3,2.7-1.3c1-0.1,2,0.5,2.4,1.4
	c0.6-0.9,1.7-1.5,2.8-1.4c1.9,0,2.9,1.2,3,3.5v6.2h-3v-6c0-0.4-0.1-0.7-0.2-1.1c-0.2-0.3-0.6-0.4-0.9-0.3c-0.6,0-1.1,0.3-1.3,0.8
	l0,0.1v6.5h-3v-6c0-0.4-0.1-0.8-0.2-1.1c-0.2-0.3-0.6-0.4-0.9-0.3c-0.5,0-1.1,0.3-1.3,0.8v6.6h-3v-9.5H769.4z M786.7,525.5
	c-1.3,0.1-2.6-0.4-3.5-1.3c-0.9-0.9-1.4-2.1-1.4-3.4v-0.2c0-0.9,0.2-1.8,0.5-2.6c0.3-0.7,0.9-1.3,1.6-1.7c0.8-0.4,1.6-0.6,2.5-0.6
	c1.2-0.1,2.3,0.4,3.2,1.2c0.8,1,1.2,2.2,1.2,3.5v1.2h-5.9c0.1,0.5,0.3,0.9,0.7,1.3c0.4,0.3,0.9,0.5,1.4,0.5c0.8,0,1.7-0.3,2.2-1
	l1.4,1.6c-0.4,0.5-0.9,1-1.6,1.2C788.2,525.3,787.5,525.5,786.7,525.5L786.7,525.5z M786.4,517.9c-0.9,0-1.4,0.6-1.5,1.7h3v-0.2
	c0-0.4-0.1-0.8-0.4-1.1C787.2,518,786.8,517.9,786.4,517.9z M794.6,515.8l0.1,1.1c0.6-0.9,1.7-1.3,2.7-1.3c0.8-0.1,1.7,0.3,2.2,0.9
	c0.5,0.8,0.8,1.7,0.8,2.7v6.1h-3v-6c0-0.4-0.1-0.8-0.3-1.1c-0.3-0.3-0.7-0.4-1.1-0.3c-0.5,0-1,0.2-1.3,0.7v6.7h-3v-9.5H794.6z
	 M805.5,513.4v2.4h1.6v2.1h-1.6v4.4c0,0.3,0,0.5,0.2,0.7c0.2,0.2,0.5,0.2,0.8,0.2c0.2,0,0.5,0,0.7-0.1v2.1c-0.5,0.2-1.1,0.3-1.7,0.3
	c-0.8,0.1-1.6-0.2-2.3-0.7c-0.5-0.6-0.8-1.4-0.7-2.2v-4.7h-1.2v-2.1h1.2v-2.4H805.5z M813.6,525.3c-0.1-0.3-0.2-0.6-0.3-0.9
	c-0.6,0.7-1.4,1.1-2.3,1c-0.8,0-1.7-0.3-2.3-0.8c-0.6-0.5-1-1.3-0.9-2c-0.1-0.9,0.4-1.8,1.1-2.3c1-0.6,2.2-0.9,3.3-0.8h0.9V519
	c0-0.9-0.4-1.3-1.1-1.3c-0.5-0.1-1,0.3-1.1,0.8c0,0.1,0,0.2,0,0.3h-3c0-0.9,0.4-1.7,1.2-2.2c0.9-0.6,1.9-0.9,3-0.9
	c1-0.1,2.1,0.3,2.9,0.9c0.7,0.6,1.1,1.5,1.1,2.4v4.2c0,0.7,0.1,1.4,0.4,2v0.2H813.6z M811.7,523.4c0.3,0,0.6-0.1,0.9-0.2
	c0.2-0.1,0.4-0.3,0.5-0.5v-1.5h-0.9c-1,0-1.5,0.5-1.5,1.4c0,0.2,0.1,0.5,0.3,0.7C811.2,523.3,811.5,523.4,811.7,523.4z M821.8,523.2
	c0.4,0,0.7-0.1,1-0.3c0.2-0.3,0.4-0.6,0.3-0.9h2.8c0,1-0.4,1.9-1.1,2.6c-0.8,0.7-1.8,1-2.9,1c-1.2,0.1-2.4-0.4-3.3-1.3
	c-0.8-1-1.3-2.3-1.2-3.6v-0.1c0-0.9,0.2-1.7,0.5-2.5c0.3-0.7,0.9-1.3,1.5-1.7c0.7-0.4,1.5-0.6,2.4-0.6c1.1-0.1,2.1,0.3,2.9,1
	c0.7,0.7,1.1,1.7,1.1,2.8h-2.8c0-0.4-0.1-0.8-0.4-1.1c-0.2-0.3-0.6-0.4-1-0.4c-0.8,0-1.2,0.5-1.3,1.5c0,0.4-0.1,0.9-0.1,1.3
	c-0.1,0.7,0.1,1.4,0.3,2C820.9,523,821.4,523.2,821.8,523.2L821.8,523.2z M830.3,525.3h-3v-9.5h3V525.3z M827.1,513.3
	c0-0.4,0.2-0.8,0.5-1c0.7-0.5,1.7-0.5,2.4,0c0.3,0.3,0.5,0.6,0.5,1c0,0.4-0.2,0.8-0.5,1c-0.7,0.5-1.7,0.5-2.4,0
	C827.3,514.1,827.1,513.7,827.1,513.3z M831.7,520.4c0-0.9,0.2-1.7,0.6-2.5c0.3-0.7,0.9-1.3,1.6-1.7c0.7-0.4,1.6-0.6,2.4-0.6
	c1.3-0.1,2.5,0.4,3.4,1.3c0.9,1,1.3,2.3,1.2,3.6v0.1c0.1,1.3-0.4,2.6-1.2,3.5c-0.9,0.9-2.1,1.4-3.3,1.3c-1.2,0.1-2.4-0.4-3.3-1.2
	c-0.9-0.9-1.3-2.1-1.3-3.3L831.7,520.4z M834.7,520.6c0,0.7,0.1,1.3,0.4,1.9c0.3,0.4,0.7,0.6,1.2,0.6c1.1,0,1.6-0.8,1.6-2.4v-0.3
	c0-1.7-0.5-2.6-1.6-2.6c-1,0-1.5,0.7-1.6,2.2L834.7,520.6z M836.7,511.8h3.1l-2.4,2.8H835L836.7,511.8z M844.9,515.8l0.1,1.1
	c0.6-0.9,1.7-1.3,2.7-1.3c0.8-0.1,1.7,0.3,2.2,0.9c0.5,0.8,0.8,1.7,0.8,2.7v6.1h-3v-6c0-0.4-0.1-0.8-0.3-1.1
	c-0.3-0.3-0.7-0.4-1.1-0.3c-0.5,0-1,0.2-1.3,0.7v6.7h-3v-9.5H844.9z"/>
<path id="Trazado_183816" class="st15" d="M596,522.9h-4.2l-0.7,2.4h-3.3l4.7-12.8h2.9l4.7,12.8h-3.3L596,522.9z M592.5,520.5h2.8
	l-1.4-4.4L592.5,520.5z M604.1,513.4v2.4h1.6v2.1h-1.6v4.4c0,0.3,0,0.5,0.2,0.7c0.2,0.2,0.5,0.2,0.8,0.2c0.2,0,0.5,0,0.7-0.1v2.1
	c-0.5,0.2-1.1,0.3-1.7,0.3c-0.8,0.1-1.6-0.2-2.3-0.7c-0.5-0.6-0.8-1.4-0.7-2.2v-4.7h-1.2v-2.1h1.2v-2.4L604.1,513.4z M606.2,520.4
	c0-0.9,0.2-1.7,0.6-2.5c0.3-0.7,0.9-1.3,1.6-1.7c0.7-0.4,1.6-0.6,2.4-0.6c1.3-0.1,2.5,0.4,3.4,1.3c0.9,1,1.3,2.3,1.2,3.6v0.1
	c0.1,1.3-0.4,2.6-1.2,3.5c-0.9,0.9-2.1,1.4-3.3,1.3c-1.2,0.1-2.4-0.4-3.3-1.2c-0.9-0.9-1.3-2.1-1.3-3.3L606.2,520.4z M609.2,520.6
	c0,0.7,0.1,1.3,0.4,1.9c0.3,0.4,0.7,0.6,1.2,0.6c1.1,0,1.6-0.8,1.6-2.4v-0.3c0-1.7-0.5-2.6-1.6-2.6c-1,0-1.5,0.7-1.6,2.2
	L609.2,520.6z M619.5,515.8l0.1,1.1c0.6-0.8,1.7-1.3,2.7-1.3c1-0.1,2,0.5,2.4,1.4c0.6-0.9,1.7-1.5,2.8-1.4c1.9,0,2.9,1.2,3,3.5v6.2
	h-3v-6c0-0.4-0.1-0.7-0.2-1.1c-0.2-0.3-0.6-0.4-0.9-0.3c-0.6,0-1.1,0.3-1.3,0.8l0,0.1v6.5h-3v-6c0-0.4-0.1-0.8-0.2-1.1
	c-0.2-0.3-0.6-0.4-0.9-0.3c-0.5,0-1.1,0.3-1.3,0.8v6.6h-3v-9.5H619.5z M635.3,525.3h-3v-9.5h3L635.3,525.3z M632.2,513.3
	c0-0.4,0.2-0.8,0.5-1c0.7-0.5,1.7-0.5,2.4,0c0.3,0.3,0.5,0.6,0.5,1c0,0.4-0.2,0.8-0.5,1c-0.7,0.5-1.7,0.5-2.4,0
	C632.3,514.1,632.2,513.7,632.2,513.3z M641.2,523.2c0.4,0,0.7-0.1,1-0.3c0.2-0.3,0.4-0.6,0.3-0.9h2.8c0,1-0.4,1.9-1.1,2.6
	c-0.8,0.7-1.8,1-2.9,1c-1.2,0.1-2.4-0.4-3.3-1.3c-0.8-1-1.3-2.3-1.2-3.6v-0.1c0-0.9,0.2-1.8,0.5-2.6c0.3-0.7,0.9-1.3,1.5-1.7
	c0.7-0.4,1.5-0.6,2.4-0.6c1.1-0.1,2.1,0.3,2.9,1c0.7,0.7,1.1,1.7,1.1,2.8h-2.8c0-0.4-0.1-0.8-0.4-1.1c-0.2-0.3-0.6-0.4-1-0.4
	c-0.8,0-1.2,0.5-1.3,1.5c0,0.4-0.1,0.9-0.1,1.3c-0.1,0.7,0.1,1.4,0.3,2C640.3,523,640.7,523.2,641.2,523.2L641.2,523.2z
	 M649.6,525.3h-3v-9.5h3L649.6,525.3z M646.5,513.3c0-0.4,0.2-0.8,0.5-1c0.7-0.5,1.7-0.5,2.4,0c0.3,0.3,0.5,0.6,0.5,1
	c0,0.4-0.2,0.8-0.5,1c-0.7,0.5-1.7,0.5-2.4,0C646.6,514.1,646.5,513.7,646.5,513.3z M651.1,520.5c-0.1-1.3,0.3-2.5,1-3.6
	c0.6-0.9,1.7-1.3,2.7-1.3c0.8,0,1.6,0.4,2.1,1v-4.8h3v13.5h-2.7l-0.1-1c-0.5,0.8-1.4,1.2-2.3,1.2c-1.1,0-2.1-0.4-2.7-1.3
	C651.3,523.1,651,521.8,651.1,520.5L651.1,520.5z M654,520.7c0,1.7,0.5,2.5,1.5,2.5c0.6,0,1.1-0.3,1.4-0.8v-3.6
	c-0.2-0.5-0.8-0.9-1.4-0.8c-0.9,0-1.4,0.7-1.5,2.2L654,520.7z M666.9,525.3c-0.1-0.3-0.2-0.6-0.3-0.9c-0.6,0.7-1.4,1.1-2.3,1
	c-0.8,0-1.7-0.3-2.3-0.8c-0.6-0.5-1-1.3-0.9-2c-0.1-0.9,0.4-1.8,1.1-2.3c1-0.6,2.2-0.9,3.3-0.8h0.9V519c0-0.9-0.4-1.3-1.1-1.3
	c-0.5-0.1-1,0.3-1.1,0.8c0,0.1,0,0.2,0,0.3h-3c0-0.9,0.4-1.7,1.2-2.2c0.9-0.6,1.9-0.9,3-0.9c1-0.1,2.1,0.3,2.9,0.9
	c0.7,0.6,1.1,1.5,1.1,2.4v4.2c0,0.7,0.1,1.4,0.4,2v0.2H666.9z M665.1,523.4c0.3,0,0.6-0.1,0.9-0.2c0.2-0.1,0.4-0.3,0.5-0.5v-1.5
	h-0.9c-1,0-1.5,0.5-1.5,1.4c0,0.2,0.1,0.5,0.3,0.7C664.6,523.3,664.8,523.4,665.1,523.4L665.1,523.4z M670.8,520.5
	c-0.1-1.3,0.3-2.5,1-3.6c0.6-0.9,1.7-1.3,2.7-1.3c0.8,0,1.6,0.4,2.1,1v-4.8h3v13.5h-2.7l-0.2-1c-0.5,0.8-1.4,1.2-2.3,1.2
	c-1.1,0-2.1-0.4-2.7-1.3C671,523.1,670.7,521.8,670.8,520.5z M673.7,520.7c0,1.7,0.5,2.5,1.5,2.5c0.6,0,1.1-0.3,1.4-0.8v-3.6
	c-0.2-0.5-0.8-0.9-1.4-0.8c-0.9,0-1.4,0.7-1.5,2.2L673.7,520.7z"/>
<path id="Trazado_183817" class="st15" d="M273.6,518.2c0,1.1-0.2,2.3-0.7,3.3c-0.4,0.9-1.1,1.7-2,2.2c-0.9,0.5-1.9,0.8-2.9,0.8
	c-1,0-2-0.2-2.9-0.8c-0.9-0.5-1.5-1.3-2-2.1c-0.5-1-0.7-2.1-0.7-3.2v-0.7c0-1.1,0.2-2.3,0.7-3.3c0.4-0.9,1.1-1.7,2-2.2
	c0.9-0.5,1.9-0.8,2.9-0.8c1,0,2,0.3,2.9,0.8c0.9,0.5,1.6,1.3,2,2.2c0.5,1,0.7,2.1,0.7,3.3L273.6,518.2z M270.5,517.6
	c0.1-1-0.2-2-0.6-2.9c-0.4-0.6-1.1-1-1.8-1c-1.5,0-2.4,1.2-2.5,3.5l0,0.9c-0.1,1,0.2,2,0.6,2.9c0.4,0.7,1.1,1,1.9,1
	c0.7,0,1.4-0.4,1.8-1c0.5-0.9,0.7-1.9,0.6-2.9L270.5,517.6z M283.9,519.6c0.1,1.3-0.3,2.5-1,3.5c-0.6,0.9-1.6,1.4-2.7,1.3
	c-0.8,0-1.6-0.3-2.2-1v4.4h-3v-13.2h2.8l0.1,0.9c0.5-0.7,1.4-1.1,2.2-1.1c1.1,0,2.1,0.4,2.7,1.3c0.7,1,1,2.3,1,3.6L283.9,519.6z
	 M280.9,519.4c0-1.7-0.5-2.5-1.5-2.5c-0.6-0.1-1.1,0.2-1.4,0.8v3.7c0.3,0.5,0.8,0.8,1.4,0.8c0.9,0,1.4-0.8,1.5-2.4V519.4z
	 M288.7,512.4v2.4h1.6v2.1h-1.6v4.4c0,0.3,0,0.5,0.2,0.7c0.2,0.2,0.5,0.2,0.8,0.2c0.2,0,0.5,0,0.7-0.1v2.1c-0.5,0.2-1.1,0.3-1.7,0.3
	c-0.8,0.1-1.6-0.2-2.3-0.7c-0.5-0.6-0.8-1.4-0.7-2.2v-4.7h-1.2v-2.1h1.2v-2.4L288.7,512.4z M294.5,524.3h-3v-9.5h3V524.3z
	 M291.4,512.3c0-0.4,0.2-0.8,0.5-1c0.7-0.5,1.7-0.5,2.4,0c0.3,0.3,0.5,0.6,0.5,1c0,0.4-0.2,0.8-0.5,1c-0.7,0.5-1.7,0.5-2.4,0
	C291.5,513.1,291.3,512.7,291.4,512.3z M299.1,514.8l0.1,1.1c0.6-0.8,1.7-1.3,2.7-1.3c1-0.1,2,0.5,2.4,1.4c0.6-0.9,1.7-1.5,2.8-1.4
	c1.9,0,2.9,1.2,3,3.5v6.2h-3v-6c0-0.4-0.1-0.7-0.2-1.1c-0.2-0.3-0.6-0.4-0.9-0.3c-0.6,0-1.1,0.3-1.3,0.8l0,0.1v6.5h-3v-6
	c0-0.4-0.1-0.8-0.2-1.1c-0.2-0.3-0.6-0.4-0.9-0.3c-0.5,0-1.1,0.3-1.3,0.8v6.6h-3v-9.5H299.1z M315,524.3h-3v-9.5h3V524.3z
	 M311.8,512.3c0-0.4,0.2-0.8,0.5-1c0.7-0.5,1.7-0.5,2.4,0c0.3,0.3,0.5,0.6,0.5,1c0,0.4-0.2,0.8-0.5,1c-0.7,0.5-1.7,0.5-2.4,0
	C312,513.1,311.8,512.7,311.8,512.3z M320.3,522h4.3v2.3h-8.1v-1.7l4.2-5.6h-4v-2.3h7.8v1.6L320.3,522z M331.4,524.3
	c-0.1-0.3-0.2-0.6-0.3-0.9c-0.6,0.7-1.4,1.1-2.3,1c-0.8,0-1.7-0.3-2.3-0.8c-0.6-0.5-1-1.3-0.9-2c-0.1-0.9,0.4-1.8,1.1-2.3
	c1-0.6,2.2-0.9,3.3-0.8h0.9V518c0-0.9-0.4-1.3-1.1-1.3c-0.5-0.1-1,0.3-1.1,0.8c0,0.1,0,0.2,0,0.3h-3c0-0.9,0.4-1.7,1.2-2.2
	c0.9-0.6,1.9-0.9,3-0.9c1-0.1,2.1,0.3,2.9,0.9c0.7,0.6,1.1,1.5,1.1,2.4v4.2c0,0.7,0.1,1.4,0.4,2v0.2H331.4z M329.5,522.4
	c0.3,0,0.6-0.1,0.9-0.2c0.2-0.1,0.4-0.3,0.5-0.5v-1.5h-0.9c-1,0-1.5,0.5-1.5,1.4c0,0.2,0.1,0.5,0.3,0.7
	C329,522.3,329.3,522.4,329.5,522.4z M339.6,522.2c0.4,0,0.7-0.1,1-0.3c0.2-0.3,0.4-0.6,0.3-0.9h2.8c0,1-0.4,1.9-1.1,2.6
	c-0.8,0.7-1.8,1-2.9,1c-1.2,0.1-2.4-0.4-3.3-1.3c-0.8-1-1.3-2.3-1.2-3.6v-0.1c0-0.9,0.2-1.8,0.5-2.6c0.3-0.7,0.9-1.3,1.5-1.7
	c0.7-0.4,1.5-0.6,2.4-0.6c1.1-0.1,2.1,0.3,2.9,1c0.7,0.7,1.1,1.7,1.1,2.8h-2.8c0-0.4-0.1-0.8-0.4-1.1c-0.2-0.3-0.6-0.4-1-0.4
	c-0.8,0-1.2,0.5-1.3,1.5c0,0.4-0.1,0.9-0.1,1.3c-0.1,0.7,0.1,1.4,0.3,2C338.8,522,339.2,522.2,339.6,522.2L339.6,522.2z
	 M348.1,524.3h-3v-9.5h3L348.1,524.3z M344.9,512.3c0-0.4,0.2-0.8,0.5-1c0.7-0.5,1.7-0.5,2.4,0c0.3,0.3,0.5,0.6,0.5,1
	c0,0.4-0.2,0.8-0.5,1c-0.7,0.5-1.7,0.5-2.4,0C345.1,513.1,344.9,512.7,344.9,512.3z M349.5,519.4c0-0.9,0.2-1.7,0.6-2.5
	c0.3-0.7,0.9-1.3,1.6-1.7c0.7-0.4,1.6-0.6,2.4-0.6c1.3-0.1,2.5,0.4,3.4,1.3c0.9,1,1.3,2.3,1.2,3.6v0.1c0.1,1.3-0.4,2.6-1.2,3.5
	c-0.9,0.9-2.1,1.4-3.3,1.3c-1.2,0.1-2.4-0.4-3.3-1.2c-0.9-0.9-1.3-2.1-1.3-3.3L349.5,519.4z M352.5,519.6c0,0.7,0.1,1.3,0.4,1.9
	c0.3,0.4,0.7,0.6,1.2,0.6c1.1,0,1.6-0.8,1.6-2.4v-0.3c0-1.7-0.5-2.6-1.6-2.6c-1,0-1.5,0.7-1.6,2.2L352.5,519.6z M354.5,510.8h3.1
	l-2.4,2.8h-2.4L354.5,510.8z M362.7,514.8l0.1,1.1c0.6-0.9,1.7-1.3,2.7-1.3c0.8-0.1,1.7,0.3,2.2,0.9c0.5,0.8,0.8,1.7,0.8,2.7v6.1h-3
	v-6c0-0.4-0.1-0.8-0.3-1.1c-0.3-0.3-0.7-0.4-1.1-0.3c-0.5,0-1,0.2-1.3,0.7v6.7h-3v-9.5H362.7z"/>
<path id="Trazado_183828" class="st15" d="M1053.8,507.9v4.3h-3.1v-12.8h5.1c0.9,0,1.8,0.2,2.6,0.5c0.7,0.3,1.3,0.9,1.7,1.5
	c0.4,0.7,0.6,1.5,0.6,2.3c0,1.2-0.5,2.3-1.3,3c-1.1,0.8-2.4,1.2-3.7,1.1L1053.8,507.9z M1053.8,505.6h2c0.5,0,1-0.1,1.4-0.4
	c0.3-0.3,0.5-0.8,0.5-1.3c0-0.5-0.1-1-0.5-1.4c-0.3-0.4-0.8-0.6-1.3-0.5h-2.1V505.6z M1061.8,507.4c0-0.9,0.2-1.7,0.6-2.5
	c0.3-0.7,0.9-1.3,1.6-1.7c0.7-0.4,1.6-0.6,2.4-0.6c1.3-0.1,2.5,0.4,3.4,1.3c0.9,1,1.3,2.3,1.2,3.6v0.1c0.1,1.3-0.4,2.6-1.2,3.5
	c-0.9,0.9-2.1,1.4-3.3,1.3c-1.2,0.1-2.4-0.4-3.3-1.2c-0.9-0.9-1.3-2.1-1.3-3.3L1061.8,507.4z M1064.8,507.6c0,0.7,0.1,1.3,0.4,1.9
	c0.3,0.4,0.7,0.6,1.2,0.6c1.1,0,1.6-0.8,1.6-2.4v-0.3c0-1.7-0.5-2.6-1.6-2.6c-1,0-1.5,0.7-1.6,2.2L1064.8,507.6z M1076.3,510.2
	c0.4,0,0.7-0.1,1-0.3c0.2-0.3,0.4-0.6,0.3-0.9h2.8c0,1-0.4,1.9-1.1,2.6c-0.8,0.7-1.8,1-2.9,1c-1.2,0.1-2.4-0.4-3.3-1.3
	c-0.8-1-1.3-2.3-1.2-3.6v-0.1c0-0.9,0.2-1.8,0.5-2.6c0.3-0.7,0.9-1.3,1.5-1.7c0.7-0.4,1.5-0.6,2.4-0.6c1.1-0.1,2.1,0.3,2.9,1
	c0.7,0.7,1.1,1.7,1.1,2.8h-2.8c0-0.4-0.1-0.8-0.4-1.1c-0.2-0.3-0.6-0.4-1-0.4c-0.8,0-1.2,0.5-1.3,1.5c0,0.4-0.1,0.9-0.1,1.3
	c-0.1,0.7,0.1,1.4,0.3,2C1075.5,510,1075.9,510.2,1076.3,510.2z M1087,512.3c-0.1-0.3-0.2-0.6-0.3-0.9c-0.6,0.7-1.4,1.1-2.3,1
	c-0.8,0-1.7-0.3-2.3-0.8c-0.6-0.5-1-1.3-0.9-2c-0.1-0.9,0.4-1.8,1.1-2.3c1-0.6,2.2-0.9,3.3-0.8h0.9V506c0-0.9-0.4-1.3-1.1-1.3
	c-0.5-0.1-1,0.3-1.1,0.8c0,0.1,0,0.2,0,0.3h-3c0-0.9,0.4-1.7,1.2-2.2c0.9-0.6,1.9-0.9,3-0.9c1-0.1,2.1,0.3,2.9,0.9
	c0.7,0.6,1.1,1.5,1.1,2.4v4.2c0,0.7,0.1,1.4,0.4,2v0.2H1087z M1085.2,510.4c0.3,0,0.6-0.1,0.9-0.2c0.2-0.1,0.4-0.3,0.5-0.5v-1.5
	h-0.9c-1,0-1.5,0.5-1.5,1.4c0,0.2,0.1,0.5,0.3,0.7C1084.7,510.3,1084.9,510.4,1085.2,510.4L1085.2,510.4z M1010.7,537.5
	c-1.3,0.1-2.6-0.4-3.5-1.3c-0.9-0.9-1.4-2.1-1.4-3.4v-0.2c0-0.9,0.2-1.8,0.5-2.6c0.3-0.7,0.9-1.3,1.6-1.7c0.8-0.4,1.6-0.6,2.5-0.6
	c1.2-0.1,2.3,0.4,3.2,1.2c0.8,1,1.2,2.2,1.2,3.5v1.2h-5.9c0.1,0.5,0.3,0.9,0.7,1.3c0.4,0.3,0.9,0.5,1.4,0.5c0.8,0,1.7-0.3,2.2-1
	l1.4,1.6c-0.4,0.5-0.9,1-1.6,1.2C1012.2,537.3,1011.4,537.5,1010.7,537.5z M1010.3,529.9c-0.9,0-1.4,0.6-1.5,1.7h3v-0.2
	c0-0.4-0.1-0.8-0.4-1.1C1011.1,530,1010.7,529.9,1010.3,529.9z M1020.8,534.6c0-0.3-0.2-0.5-0.4-0.6c-0.5-0.2-1-0.4-1.5-0.5
	c-0.6-0.1-1.3-0.3-1.8-0.6c-0.4-0.2-0.8-0.6-1.1-1c-0.3-0.4-0.4-0.8-0.4-1.3c0-0.9,0.4-1.7,1.1-2.2c0.8-0.6,1.8-0.9,2.8-0.8
	c1.1-0.1,2.1,0.2,3,0.9c0.7,0.5,1.2,1.3,1.1,2.2h-3c0-0.8-0.4-1.1-1.2-1.1c-0.3,0-0.6,0.1-0.8,0.3c-0.2,0.2-0.3,0.4-0.3,0.6
	c0,0.3,0.2,0.5,0.4,0.6c0.4,0.2,0.8,0.3,1.2,0.4c0.5,0.1,1,0.2,1.5,0.4c1.3,0.3,2.1,1.4,2.1,2.6c0,0.9-0.4,1.7-1.2,2.1
	c-0.9,0.6-1.9,0.9-3,0.8c-0.7,0-1.5-0.1-2.2-0.4c-0.6-0.3-1.1-0.7-1.5-1.2c-0.3-0.5-0.5-1-0.5-1.6h2.8c0,0.4,0.1,0.7,0.4,1
	c0.3,0.2,0.7,0.3,1.1,0.3c0.3,0,0.6-0.1,0.9-0.2C1020.7,535.1,1020.8,534.9,1020.8,534.6L1020.8,534.6z M1028.5,525.4v2.4h1.6v2.1
	h-1.6v4.4c0,0.3,0,0.5,0.2,0.7c0.2,0.2,0.5,0.2,0.8,0.2c0.2,0,0.5,0,0.7-0.1v2.1c-0.5,0.2-1.1,0.3-1.7,0.3c-0.8,0.1-1.6-0.2-2.3-0.7
	c-0.5-0.6-0.8-1.4-0.7-2.2v-4.7h-1.2v-2.1h1.2v-2.4L1028.5,525.4z M1036.6,537.3c-0.1-0.3-0.2-0.6-0.3-0.9c-0.6,0.7-1.4,1.1-2.3,1
	c-0.8,0-1.7-0.3-2.3-0.8c-0.6-0.5-1-1.3-0.9-2c-0.1-0.9,0.4-1.8,1.1-2.3c1-0.6,2.2-0.9,3.3-0.8h0.9V531c0-0.9-0.4-1.3-1.1-1.3
	c-0.5-0.1-1,0.3-1.1,0.8c0,0.1,0,0.2,0,0.3h-3c0-0.9,0.4-1.7,1.2-2.2c0.9-0.6,1.9-0.9,3-0.9c1-0.1,2.1,0.3,2.9,0.9
	c0.7,0.6,1.1,1.5,1.1,2.4v4.2c0,0.7,0.1,1.4,0.4,2v0.1H1036.6z M1034.8,535.4c0.3,0,0.6-0.1,0.9-0.2c0.2-0.1,0.4-0.3,0.5-0.5v-1.5
	h-0.9c-1,0-1.5,0.5-1.5,1.4c0,0.2,0.1,0.5,0.3,0.7C1034.3,535.3,1034.5,535.4,1034.8,535.4z M1043.5,527.8l0.1,1.1
	c0.6-0.9,1.7-1.3,2.7-1.3c0.8-0.1,1.7,0.3,2.2,0.9c0.5,0.8,0.8,1.7,0.8,2.7v6.1h-3v-6c0-0.4-0.1-0.8-0.3-1.1
	c-0.3-0.3-0.7-0.4-1.1-0.3c-0.5,0-1,0.2-1.3,0.7v6.7h-3v-9.5H1043.5z M1050.6,532.5c-0.1-1.3,0.3-2.5,1-3.6c0.6-0.9,1.7-1.3,2.7-1.3
	c0.8,0,1.6,0.4,2.1,1v-4.8h3v13.5h-2.7l-0.1-1c-0.5,0.8-1.4,1.2-2.3,1.2c-1.1,0-2.1-0.4-2.7-1.3
	C1050.9,535.1,1050.5,533.8,1050.6,532.5z M1053.6,532.7c0,1.7,0.5,2.5,1.5,2.5c0.6,0,1.1-0.3,1.4-0.8v-3.6
	c-0.2-0.5-0.8-0.9-1.4-0.8c-0.9,0-1.4,0.7-1.5,2.2L1053.6,532.7z M1066.4,537.3c-0.1-0.3-0.2-0.6-0.3-0.9c-0.6,0.7-1.4,1.1-2.3,1
	c-0.8,0-1.7-0.3-2.3-0.8c-0.6-0.5-1-1.3-0.9-2c-0.1-0.9,0.4-1.8,1.1-2.3c1-0.6,2.2-0.9,3.3-0.8h0.9V531c0-0.9-0.4-1.3-1.1-1.3
	c-0.5-0.1-1,0.3-1.1,0.8c0,0.1,0,0.2,0,0.3h-3c0-0.9,0.4-1.7,1.2-2.2c0.9-0.6,1.9-0.9,3-0.9c1-0.1,2.1,0.3,2.9,0.9
	c0.7,0.6,1.1,1.5,1.1,2.4v4.2c0,0.7,0.1,1.4,0.4,2v0.2H1066.4z M1064.6,535.4c0.3,0,0.6-0.1,0.9-0.2c0.2-0.1,0.4-0.3,0.5-0.5v-1.5
	h-0.9c-1,0-1.5,0.5-1.5,1.4c0,0.2,0.1,0.5,0.3,0.7C1064.1,535.3,1064.3,535.4,1064.6,535.4z M1076.4,530.5l-1-0.1
	c-0.7-0.1-1.4,0.2-1.8,0.9v6h-3v-9.5h2.8l0.1,1.2c0.4-0.8,1.2-1.4,2.1-1.4c0.3,0,0.6,0,0.8,0.1L1076.4,530.5z M1080.6,537.3h-3v-9.5
	h3V537.3z M1077.4,525.3c0-0.4,0.2-0.8,0.5-1c0.7-0.5,1.7-0.5,2.4,0c0.6,0.5,0.6,1.4,0.1,2c0,0-0.1,0.1-0.1,0.1
	c-0.7,0.5-1.7,0.5-2.4,0C1077.6,526.1,1077.4,525.7,1077.4,525.3z M1085.9,535h4.3v2.3h-8.1v-1.7l4.2-5.6h-4v-2.3h7.8v1.6
	L1085.9,535z M1097,537.3c-0.1-0.3-0.2-0.6-0.3-0.9c-0.6,0.7-1.4,1.1-2.3,1c-0.8,0-1.7-0.3-2.3-0.8c-0.6-0.5-1-1.3-0.9-2
	c-0.1-0.9,0.4-1.8,1.1-2.3c1-0.6,2.2-0.9,3.3-0.8h0.9V531c0-0.9-0.4-1.3-1.1-1.3c-0.5-0.1-1,0.3-1.1,0.8c0,0.1,0,0.2,0,0.3h-3
	c0-0.9,0.4-1.7,1.2-2.2c0.9-0.6,1.9-0.9,3-0.9c1-0.1,2.1,0.3,2.9,0.9c0.7,0.6,1.1,1.5,1.1,2.4v4.2c0,0.7,0.1,1.4,0.4,2v0.2H1097z
	 M1095.2,535.4c0.3,0,0.6-0.1,0.9-0.2c0.2-0.1,0.4-0.3,0.5-0.5v-1.5h-0.9c-1,0-1.5,0.5-1.5,1.4c0,0.2,0.1,0.5,0.3,0.7
	C1094.7,535.3,1094.9,535.4,1095.2,535.4z M1105.3,535.2c0.4,0,0.7-0.1,1-0.3c0.2-0.3,0.4-0.6,0.3-0.9h2.8c0,1-0.4,1.9-1.1,2.6
	c-0.8,0.7-1.8,1-2.9,1c-1.2,0.1-2.4-0.4-3.3-1.3c-0.8-1-1.3-2.3-1.2-3.6v-0.1c0-0.9,0.2-1.7,0.5-2.5c0.3-0.7,0.9-1.3,1.5-1.7
	c0.7-0.4,1.5-0.6,2.4-0.6c1.1-0.1,2.1,0.3,2.9,1c0.7,0.7,1.1,1.7,1.1,2.8h-2.8c0-0.4-0.1-0.8-0.4-1.1c-0.2-0.3-0.6-0.4-1-0.4
	c-0.8,0-1.2,0.5-1.3,1.5c0,0.4-0.1,0.9-0.1,1.3c-0.1,0.7,0.1,1.4,0.3,2C1104.4,535,1104.8,535.2,1105.3,535.2L1105.3,535.2z
	 M1113.7,537.3h-3v-9.5h3V537.3z M1110.6,525.3c0-0.4,0.2-0.8,0.5-1c0.7-0.5,1.7-0.5,2.4,0c0.6,0.5,0.6,1.4,0.1,2
	c0,0-0.1,0.1-0.1,0.1c-0.7,0.5-1.7,0.5-2.4,0C1110.7,526.1,1110.5,525.7,1110.6,525.3z M1115.2,532.4c0-0.9,0.2-1.7,0.6-2.5
	c0.3-0.7,0.9-1.3,1.6-1.7c0.7-0.4,1.6-0.6,2.4-0.6c1.3-0.1,2.5,0.4,3.4,1.3c0.9,1,1.3,2.3,1.2,3.6v0.1c0.1,1.3-0.4,2.6-1.2,3.5
	c-0.9,0.9-2.1,1.4-3.3,1.3c-1.2,0.1-2.4-0.4-3.3-1.2c-0.9-0.9-1.3-2.1-1.3-3.3L1115.2,532.4z M1118.1,532.6c0,0.7,0.1,1.3,0.4,1.9
	c0.3,0.4,0.7,0.6,1.2,0.6c1.1,0,1.6-0.8,1.6-2.4v-0.3c0-1.7-0.5-2.6-1.6-2.6c-1,0-1.5,0.7-1.6,2.2L1118.1,532.6z M1120.1,523.8h3.1
	l-2.4,2.8h-2.4L1120.1,523.8z M1128.4,527.8l0.1,1.1c0.6-0.9,1.7-1.3,2.7-1.3c0.8-0.1,1.7,0.3,2.2,0.9c0.5,0.8,0.8,1.7,0.8,2.7v6.1
	h-3v-6c0-0.4-0.1-0.8-0.3-1.1c-0.3-0.3-0.7-0.4-1.1-0.3c-0.5,0-1,0.2-1.3,0.7v6.7h-3v-9.5H1128.4z"/>
<path id="Trazado_183811" class="st15" d="M408.4,506c0,0.8-0.3,1.7-0.7,2.4c-0.5,0.7-1.1,1.2-1.8,1.6c-0.9,0.4-1.8,0.6-2.7,0.6
	c-1.5,0.1-3-0.5-4-1.6c-1-1.3-1.6-3-1.5-4.6v-0.6c0-1.1,0.2-2.3,0.7-3.3c0.4-0.9,1.1-1.7,1.9-2.2c0.9-0.5,1.8-0.8,2.8-0.8
	c1.4-0.1,2.7,0.4,3.7,1.2c1,0.9,1.5,2.1,1.6,3.4h-3.1c0-0.6-0.2-1.2-0.6-1.7c-0.5-0.4-1.1-0.6-1.7-0.5c-0.7,0-1.3,0.3-1.7,0.9
	c-0.4,0.9-0.6,1.8-0.6,2.8v0.9c-0.1,1,0.1,2,0.5,2.9c0.4,0.6,1.1,0.9,1.8,0.9c0.6,0,1.2-0.1,1.6-0.5c0.4-0.4,0.6-1,0.6-1.6
	L408.4,506z M415.5,503.5l-1-0.1c-0.7-0.1-1.4,0.2-1.8,0.9v6h-3v-9.5h2.8l0.1,1.2c0.4-0.8,1.2-1.4,2.1-1.4c0.3,0,0.6,0,0.8,0.1
	L415.5,503.5z M421,510.5c-1.3,0.1-2.6-0.4-3.5-1.3c-0.9-0.9-1.4-2.1-1.4-3.4v-0.2c0-0.9,0.2-1.8,0.5-2.6c0.3-0.7,0.9-1.3,1.6-1.7
	c0.8-0.4,1.6-0.6,2.5-0.6c1.2-0.1,2.3,0.4,3.2,1.2c0.8,1,1.2,2.2,1.2,3.5v1.2h-5.9c0.1,0.5,0.3,0.9,0.7,1.3c0.4,0.3,0.9,0.5,1.4,0.5
	c0.8,0,1.7-0.3,2.2-1l1.4,1.6c-0.4,0.5-0.9,1-1.6,1.2C422.5,510.3,421.7,510.5,421,510.5L421,510.5z M420.6,502.9
	c-0.9,0-1.4,0.6-1.5,1.7h3v-0.2c0-0.4-0.1-0.8-0.4-1.1C421.4,503,421,502.9,420.6,502.9z M430.2,508.2c0.4,0,0.7-0.1,1-0.3
	c0.2-0.3,0.4-0.6,0.3-0.9h2.8c0,1-0.4,1.9-1.1,2.6c-0.8,0.7-1.8,1-2.9,1c-1.2,0.1-2.4-0.4-3.3-1.3c-0.8-1-1.3-2.3-1.2-3.6v-0.1
	c0-0.9,0.2-1.8,0.5-2.6c0.3-0.7,0.9-1.3,1.5-1.7c0.7-0.4,1.5-0.6,2.4-0.6c1.1-0.1,2.1,0.3,2.9,1c0.7,0.7,1.1,1.7,1.1,2.8h-2.8
	c0-0.4-0.1-0.8-0.4-1.1c-0.2-0.3-0.6-0.4-1-0.4c-0.8,0-1.2,0.5-1.3,1.5c0,0.4-0.1,0.9-0.1,1.3c-0.1,0.7,0.1,1.4,0.3,2
	C429.3,508,429.8,508.2,430.2,508.2L430.2,508.2z M438.6,510.3h-3v-9.5h3L438.6,510.3z M435.5,498.3c0-0.4,0.2-0.8,0.5-1
	c0.7-0.5,1.7-0.5,2.4,0c0.3,0.3,0.5,0.6,0.5,1c0,0.4-0.2,0.8-0.5,1c-0.7,0.5-1.7,0.5-2.4,0C435.7,499.1,435.5,498.7,435.5,498.3z
	 M443.3,500.8l0.1,1.1c0.6-0.8,1.7-1.3,2.7-1.3c1-0.1,2,0.5,2.4,1.4c0.6-0.9,1.7-1.5,2.8-1.4c1.9,0,2.9,1.2,3,3.5v6.2h-3v-6
	c0-0.4-0.1-0.7-0.2-1.1c-0.2-0.3-0.6-0.4-0.9-0.3c-0.6,0-1.1,0.3-1.3,0.8l0,0.1v6.5h-3v-6c0-0.4-0.1-0.8-0.2-1.1
	c-0.2-0.3-0.6-0.4-0.9-0.3c-0.5,0-1.1,0.3-1.3,0.8v6.6h-3v-9.5H443.3z M459.1,510.3h-3v-9.5h3V510.3z M455.9,498.3
	c0-0.4,0.2-0.8,0.5-1c0.7-0.5,1.7-0.5,2.4,0c0.3,0.3,0.5,0.6,0.5,1c0,0.4-0.2,0.8-0.5,1c-0.7,0.5-1.7,0.5-2.4,0
	C456.1,499.1,455.9,498.7,455.9,498.3z M465.5,510.5c-1.3,0.1-2.6-0.4-3.5-1.3c-0.9-0.9-1.4-2.1-1.4-3.4v-0.2c0-0.9,0.2-1.8,0.5-2.6
	c0.3-0.7,0.9-1.3,1.6-1.7c0.7-0.4,1.6-0.6,2.5-0.6c1.2-0.1,2.3,0.4,3.2,1.2c0.8,1,1.2,2.2,1.2,3.5v1.2h-5.9c0.1,0.5,0.3,0.9,0.7,1.3
	c0.4,0.3,0.9,0.5,1.4,0.5c0.8,0,1.7-0.3,2.2-1l1.4,1.6c-0.4,0.5-1,1-1.6,1.2C467,510.3,466.3,510.5,465.5,510.5z M465.2,502.9
	c-0.9,0-1.4,0.6-1.5,1.7h3v-0.2c0-0.4-0.1-0.8-0.4-1.1C466,503,465.6,502.9,465.2,502.9z M473.4,500.8l0.1,1.1
	c0.6-0.9,1.7-1.3,2.7-1.3c0.8-0.1,1.7,0.3,2.2,0.9c0.5,0.8,0.8,1.7,0.8,2.7v6.1h-3v-6c0-0.4-0.1-0.8-0.3-1.1
	c-0.3-0.3-0.7-0.4-1.1-0.3c-0.5,0-1,0.2-1.3,0.7v6.7h-3v-9.5H473.4z M484.3,498.4v2.4h1.6v2.1h-1.6v4.4c0,0.3,0,0.5,0.2,0.7
	c0.2,0.2,0.5,0.2,0.8,0.2c0.2,0,0.5,0,0.7-0.1v2.1c-0.5,0.2-1.1,0.3-1.7,0.3c-0.8,0.1-1.6-0.2-2.3-0.7c-0.5-0.6-0.8-1.4-0.7-2.2
	v-4.7h-1.2v-2.1h1.2v-2.4H484.3z M486.4,505.4c0-0.9,0.2-1.7,0.6-2.5c0.3-0.7,0.9-1.3,1.6-1.7c0.7-0.4,1.6-0.6,2.4-0.6
	c1.3-0.1,2.5,0.4,3.4,1.3c0.9,1,1.3,2.3,1.2,3.6v0.1c0.1,1.3-0.4,2.6-1.2,3.5c-0.9,0.9-2.1,1.4-3.3,1.3c-1.2,0.1-2.4-0.4-3.3-1.2
	c-0.9-0.9-1.3-2.1-1.3-3.3L486.4,505.4z M489.4,505.6c0,0.7,0.1,1.3,0.4,1.9c0.3,0.4,0.7,0.6,1.2,0.6c1.1,0,1.6-0.8,1.6-2.4v-0.3
	c0-1.7-0.5-2.6-1.6-2.6c-1,0-1.5,0.7-1.6,2.2L489.4,505.6z M415.9,535.3h-3.1v-5.3h-4.5v5.3h-3.1v-12.8h3.1v5.1h4.5v-5.1h3.1V535.3z
	 M417.4,530.4c0-0.9,0.2-1.7,0.6-2.5c0.3-0.7,0.9-1.3,1.6-1.7c0.7-0.4,1.6-0.6,2.4-0.6c1.3-0.1,2.5,0.4,3.4,1.3
	c0.9,1,1.3,2.3,1.2,3.6v0.1c0.1,1.3-0.4,2.6-1.2,3.5c-0.9,0.9-2.1,1.4-3.3,1.3c-1.2,0.1-2.4-0.4-3.3-1.2c-0.9-0.9-1.3-2.1-1.3-3.3
	L417.4,530.4z M420.3,530.6c0,0.7,0.1,1.3,0.4,1.9c0.3,0.4,0.7,0.6,1.2,0.6c1.1,0,1.6-0.8,1.6-2.4v-0.3c0-1.7-0.5-2.6-1.6-2.6
	c-1,0-1.5,0.7-1.6,2.2L420.3,530.6z M433.6,528.5l-1-0.1c-0.7-0.1-1.4,0.2-1.8,0.9v6h-3v-9.5h2.8l0.1,1.2c0.4-0.8,1.2-1.4,2.1-1.4
	c0.3,0,0.6,0,0.8,0.1L433.6,528.5z M437.8,535.3h-3v-9.5h3V535.3z M434.7,523.3c0-0.4,0.2-0.8,0.5-1c0.7-0.5,1.7-0.5,2.4,0
	c0.6,0.5,0.6,1.4,0.1,2c0,0-0.1,0.1-0.1,0.1c-0.7,0.5-1.7,0.5-2.4,0C434.8,524.1,434.6,523.7,434.7,523.3z M443.1,533h4.3v2.3h-8.1
	v-1.7l4.2-5.6h-4v-2.3h7.8v1.6L443.1,533z M448.4,530.4c0-0.9,0.2-1.7,0.6-2.5c0.3-0.7,0.9-1.3,1.6-1.7c0.7-0.4,1.6-0.6,2.4-0.6
	c1.3-0.1,2.5,0.4,3.4,1.3c0.9,1,1.3,2.3,1.2,3.6v0.1c0.1,1.3-0.4,2.6-1.2,3.5c-0.9,0.9-2.1,1.4-3.3,1.3c-1.2,0.1-2.4-0.4-3.3-1.2
	c-0.9-0.9-1.3-2.1-1.3-3.3L448.4,530.4z M451.3,530.6c0,0.7,0.1,1.3,0.4,1.9c0.3,0.4,0.7,0.6,1.2,0.6c1.1,0,1.6-0.8,1.6-2.4v-0.3
	c0-1.7-0.5-2.6-1.6-2.6c-1,0-1.5,0.7-1.6,2.2L451.3,530.6z M461.6,525.8l0.1,1.1c0.6-0.9,1.7-1.3,2.7-1.3c0.8-0.1,1.7,0.3,2.2,0.9
	c0.5,0.8,0.8,1.7,0.8,2.7v6.1h-3v-6c0-0.4-0.1-0.8-0.3-1.1c-0.3-0.3-0.7-0.4-1.1-0.3c-0.5,0-1,0.2-1.3,0.7v6.7h-3v-9.5H461.6z
	 M472.5,523.4v2.4h1.6v2.1h-1.6v4.4c0,0.3,0,0.5,0.2,0.7c0.2,0.2,0.5,0.2,0.8,0.2c0.2,0,0.5,0,0.7-0.1v2.1c-0.5,0.2-1.1,0.3-1.7,0.3
	c-0.8,0.1-1.6-0.2-2.3-0.7c-0.5-0.6-0.8-1.4-0.7-2.2v-4.7h-1.2v-2.1h1.2v-2.4H472.5z M480.5,535.3c-0.1-0.3-0.2-0.6-0.3-0.9
	c-0.6,0.7-1.4,1.1-2.3,1c-0.8,0-1.7-0.3-2.3-0.8c-0.6-0.5-1-1.3-0.9-2c-0.1-0.9,0.4-1.8,1.1-2.3c1-0.6,2.2-0.9,3.3-0.8h0.9V529
	c0-0.9-0.4-1.3-1.1-1.3c-0.5-0.1-1,0.3-1.1,0.8c0,0.1,0,0.2,0,0.3h-3c0-0.9,0.4-1.7,1.2-2.2c0.9-0.6,1.9-0.9,3-0.9
	c1-0.1,2.1,0.3,2.9,0.9c0.7,0.6,1.1,1.5,1.1,2.4v4.2c0,0.7,0.1,1.4,0.4,2v0.2H480.5z M478.7,533.4c0.3,0,0.6-0.1,0.9-0.2
	c0.2-0.1,0.4-0.3,0.5-0.5v-1.5h-0.9c-1,0-1.5,0.5-1.5,1.4c0,0.2,0.1,0.5,0.3,0.7C478.2,533.3,478.4,533.4,478.7,533.4z M487.9,535.3
	h-3v-13.5h3L487.9,535.3z"/>
<path id="Trazado_183831" class="st15" d="M1180.9,525.3h-3.1l-4.5-8v8h-3.1v-12.8h3.1l4.5,8v-8h3.1V525.3z M1182.3,520.4
	c0-0.9,0.2-1.7,0.6-2.5c0.3-0.7,0.9-1.3,1.6-1.7c0.7-0.4,1.6-0.6,2.4-0.6c1.3-0.1,2.5,0.4,3.4,1.3c0.9,1,1.3,2.3,1.2,3.6v0.1
	c0.1,1.3-0.4,2.6-1.2,3.5c-0.9,0.9-2.1,1.4-3.3,1.3c-1.2,0.1-2.4-0.4-3.3-1.2c-0.9-0.9-1.3-2.1-1.3-3.3L1182.3,520.4z M1185.3,520.6
	c0,0.7,0.1,1.3,0.4,1.9c0.3,0.4,0.7,0.6,1.2,0.6c1.1,0,1.6-0.8,1.6-2.4v-0.3c0-1.7-0.5-2.6-1.6-2.6c-1,0-1.5,0.7-1.6,2.2
	L1185.3,520.6z M1200.4,525.3h-3v-9.5h3V525.3z M1197.3,513.3c0-0.4,0.2-0.8,0.5-1c0.7-0.5,1.7-0.5,2.4,0c0.3,0.3,0.5,0.6,0.5,1
	c0,0.4-0.2,0.8-0.5,1c-0.7,0.5-1.7,0.5-2.4,0C1197.4,514.1,1197.3,513.7,1197.3,513.3z M1205,515.8l0.1,1.1c0.6-0.9,1.7-1.3,2.7-1.3
	c0.8-0.1,1.7,0.3,2.2,0.9c0.5,0.8,0.8,1.7,0.8,2.7v6.1h-3v-6c0-0.4-0.1-0.8-0.3-1.1c-0.3-0.3-0.7-0.4-1.1-0.3c-0.5,0-1,0.2-1.3,0.7
	v6.7h-3v-9.5H1205z M1215.8,513.4v2.4h1.6v2.1h-1.6v4.4c0,0.3,0,0.5,0.2,0.7c0.2,0.2,0.5,0.2,0.8,0.2c0.2,0,0.5,0,0.7-0.1v2.1
	c-0.5,0.2-1.1,0.3-1.7,0.3c-0.8,0.1-1.6-0.2-2.3-0.7c-0.5-0.6-0.8-1.4-0.7-2.2v-4.7h-1.2v-2.1h1.2v-2.4H1215.8z M1223.2,525.5
	c-1.3,0.1-2.6-0.4-3.5-1.3c-0.9-0.9-1.4-2.1-1.4-3.4v-0.2c0-0.9,0.2-1.8,0.5-2.6c0.3-0.7,0.9-1.3,1.6-1.7c0.7-0.4,1.6-0.6,2.5-0.6
	c1.2-0.1,2.3,0.4,3.2,1.2c0.8,1,1.2,2.2,1.2,3.5v1.2h-5.9c0.1,0.5,0.3,0.9,0.7,1.3c0.4,0.3,0.9,0.5,1.4,0.5c0.8,0,1.7-0.3,2.2-1
	l1.4,1.6c-0.4,0.5-1,1-1.6,1.2C1224.7,525.3,1223.9,525.5,1223.2,525.5z M1222.8,517.9c-0.9,0-1.4,0.6-1.5,1.7h3v-0.2
	c0-0.4-0.1-0.8-0.4-1.1C1223.6,518,1223.2,517.9,1222.8,517.9z M1234.1,518.5l-1-0.1c-0.7-0.1-1.4,0.2-1.8,0.9v6h-3v-9.5h2.8
	l0.1,1.2c0.4-0.8,1.2-1.4,2.1-1.4c0.3,0,0.6,0,0.8,0.1L1234.1,518.5z M1236,525.3v-7.5h-1.4v-2.1h1.4V515c-0.1-0.9,0.3-1.9,1-2.5
	c0.7-0.6,1.7-1,2.7-0.9c0.5,0,0.9,0.1,1.4,0.2l0,2.2c-0.2-0.1-0.5-0.1-0.7-0.1c-0.9,0-1.3,0.4-1.3,1.2v0.7h1.9v2.1h-1.9v7.5H1236z
	 M1247.2,525.3c-0.1-0.3-0.2-0.6-0.3-0.9c-0.6,0.7-1.4,1.1-2.3,1c-0.8,0-1.7-0.3-2.3-0.8c-0.6-0.5-1-1.3-0.9-2
	c-0.1-0.9,0.4-1.8,1.1-2.3c1-0.6,2.2-0.9,3.3-0.8h0.9V519c0-0.9-0.4-1.3-1.1-1.3c-0.5-0.1-1,0.3-1.1,0.8c0,0.1,0,0.2,0,0.3h-3
	c0-0.9,0.4-1.7,1.2-2.2c0.9-0.6,1.9-0.9,3-0.9c1-0.1,2.1,0.3,2.9,0.9c0.7,0.6,1.1,1.5,1.1,2.4v4.2c0,0.7,0.1,1.4,0.4,2v0.2H1247.2z
	 M1245.4,523.4c0.3,0,0.6-0.1,0.9-0.2c0.2-0.1,0.4-0.3,0.5-0.5v-1.5h-0.9c-1,0-1.5,0.5-1.5,1.4c0,0.2,0.1,0.5,0.3,0.7
	C1244.9,523.3,1245.1,523.4,1245.4,523.4L1245.4,523.4z M1254.9,523h4.3v2.3h-8.1v-1.7l4.2-5.6h-4v-2.3h7.8v1.6L1254.9,523z"/>
<path id="Trazado_183794" class="st17" d="M490.3,211.3h-1.9v-14.2h1.9V211.3z M495.1,200.7l0.1,1.3c0.7-1,1.9-1.6,3.2-1.5
	c2.2,0,3.4,1.3,3.4,3.8v7h-1.8v-7c0-0.6-0.1-1.2-0.5-1.7c-0.4-0.4-1-0.6-1.6-0.5c-0.6,0-1.1,0.2-1.5,0.5c-0.4,0.3-0.8,0.7-1,1.2v7.5
	h-1.8v-10.6H495.1z M505.3,211.3v-9.2h-1.7v-1.4h1.7v-1.1c-0.1-1,0.3-1.9,0.9-2.6c0.7-0.7,1.6-1,2.6-0.9c0.4,0,0.8,0.1,1.2,0.2
	l-0.1,1.5c-0.3-0.1-0.6-0.1-1-0.1c-0.5,0-1,0.2-1.4,0.5c-0.3,0.4-0.5,0.9-0.5,1.5v1.1h2.3v1.4h-2.3v9.2H505.3z M510.9,205.9
	c0-1,0.2-1.9,0.6-2.8c0.4-0.8,1-1.5,1.7-1.9c0.7-0.5,1.6-0.7,2.5-0.7c1.3,0,2.6,0.5,3.5,1.5c0.9,1.1,1.4,2.5,1.3,4v0.1
	c0,1-0.2,1.9-0.6,2.8c-0.4,0.8-1,1.4-1.7,1.9c-0.8,0.5-1.6,0.7-2.5,0.7c-1.3,0-2.6-0.5-3.5-1.5c-0.9-1.1-1.4-2.5-1.3-4V205.9z
	 M512.7,206.1c-0.1,1,0.2,2,0.8,2.8c0.9,1.2,2.7,1.4,3.9,0.5c0.2-0.1,0.3-0.3,0.5-0.5c0.6-0.9,0.9-2,0.8-3c0-1-0.2-2-0.8-2.8
	c-0.5-0.7-1.3-1.1-2.2-1.1c-0.9,0-1.7,0.4-2.2,1.1C512.9,204,512.6,205,512.7,206.1L512.7,206.1z M527.9,202.3
	c-0.3,0-0.6-0.1-0.9-0.1c-1-0.1-2,0.5-2.4,1.5v7.5h-1.8v-10.6h1.8l0,1.2c0.5-0.9,1.5-1.4,2.5-1.4c0.3,0,0.5,0,0.8,0.1L527.9,202.3z
	 M531.3,200.7l0,1.2c0.8-0.9,1.9-1.4,3.1-1.4c1.3-0.1,2.5,0.6,3,1.7c0.4-0.5,0.8-0.9,1.4-1.2c0.6-0.3,1.3-0.5,2-0.5
	c2.3,0,3.5,1.2,3.5,3.7v7.1h-1.8v-7c0-0.6-0.1-1.2-0.5-1.7c-0.5-0.4-1.1-0.6-1.7-0.6c-0.6,0-1.2,0.2-1.7,0.6c-0.5,0.4-0.7,1-0.8,1.6
	v7H536v-6.9c0.2-1.1-0.6-2.1-1.7-2.3c-0.2,0-0.4,0-0.6,0c-1.1-0.1-2,0.5-2.4,1.5v7.7h-1.8v-10.6H531.3z M553.6,211.3
	c-0.1-0.4-0.2-0.7-0.3-1.1c-0.8,0.8-1.9,1.3-3,1.3c-0.9,0-1.8-0.3-2.6-0.9c-0.7-0.6-1-1.4-1-2.2c0-1,0.4-2,1.3-2.6
	c1.1-0.7,2.3-1,3.5-0.9h1.8v-0.8c0-0.6-0.2-1.1-0.6-1.5c-0.5-0.4-1.1-0.6-1.7-0.6c-0.6,0-1.1,0.2-1.6,0.5c-0.4,0.3-0.6,0.7-0.7,1.2
	H547c0-0.6,0.2-1.1,0.6-1.5c0.4-0.5,0.9-0.9,1.5-1.2c0.7-0.3,1.4-0.4,2.1-0.4c1-0.1,2.1,0.3,2.9,0.9c0.7,0.6,1.1,1.6,1.1,2.5v4.9
	c0,0.8,0.1,1.6,0.4,2.3v0.2H553.6z M550.6,209.9c0.6,0,1.1-0.2,1.6-0.4c0.5-0.3,0.9-0.7,1.1-1.1v-2.2h-1.4c-2.2,0-3.3,0.6-3.3,1.9
	c0,0.5,0.2,1,0.6,1.3C549.6,209.8,550.1,209.9,550.6,209.9L550.6,209.9z M562.2,210c0.6,0,1.2-0.2,1.7-0.6c0.5-0.4,0.8-0.9,0.8-1.5
	h1.7c0,0.6-0.3,1.2-0.6,1.7c-0.4,0.6-0.9,1-1.5,1.3c-0.6,0.3-1.3,0.5-2,0.5c-1.3,0.1-2.6-0.5-3.4-1.4c-0.9-1.1-1.4-2.5-1.3-3.9v-0.3
	c0-0.9,0.2-1.9,0.6-2.7c0.3-0.8,0.9-1.4,1.6-1.9c0.8-0.5,1.6-0.7,2.5-0.7c1.1,0,2.1,0.3,3,1.1c0.8,0.7,1.2,1.7,1.3,2.8h-1.7
	c0-0.6-0.3-1.2-0.8-1.7c-0.5-0.4-1.1-0.7-1.7-0.7c-0.8,0-1.6,0.3-2.1,1c-0.6,0.8-0.8,1.9-0.8,2.9v0.3c-0.1,1,0.2,2,0.8,2.8
	C560.6,209.7,561.4,210.1,562.2,210L562.2,210z M570.4,211.3h-1.8v-10.6h1.8V211.3z M568.4,197.9c0-0.3,0.1-0.5,0.3-0.7
	c0.2-0.2,0.5-0.3,0.8-0.3c0.3,0,0.6,0.1,0.8,0.3c0.2,0.2,0.3,0.5,0.3,0.7c0,0.3-0.1,0.5-0.3,0.7c-0.2,0.2-0.5,0.3-0.8,0.3
	c-0.3,0-0.6-0.1-0.8-0.3C568.5,198.5,568.4,198.2,568.4,197.9z M572.8,205.9c0-1,0.2-1.9,0.6-2.8c0.4-0.8,1-1.5,1.7-1.9
	c0.7-0.5,1.6-0.7,2.5-0.7c1.3,0,2.6,0.5,3.5,1.5c0.9,1.1,1.4,2.5,1.3,4v0.1c0,1-0.2,1.9-0.6,2.8c-0.4,0.8-1,1.4-1.7,1.9
	c-0.8,0.5-1.6,0.7-2.5,0.7c-1.3,0-2.6-0.5-3.5-1.5c-0.9-1.1-1.4-2.5-1.3-4V205.9z M574.6,206.1c-0.1,1,0.2,2,0.8,2.8
	c0.9,1.2,2.7,1.4,3.9,0.5c0.2-0.1,0.3-0.3,0.5-0.5c0.6-0.9,0.9-2,0.8-3c0-1-0.2-2-0.8-2.8c-0.5-0.7-1.3-1.1-2.2-1.1
	c-0.9,0-1.7,0.4-2.2,1.1C574.8,204,574.6,205,574.6,206.1z M578.4,196.3h2.2l-2.6,2.9h-1.5L578.4,196.3z M586.4,200.7l0.1,1.3
	c0.7-1,1.9-1.6,3.2-1.5c2.2,0,3.4,1.3,3.4,3.8v7h-1.8v-7c0-0.6-0.1-1.2-0.5-1.7c-0.4-0.4-1-0.6-1.6-0.5c-0.6,0-1.1,0.2-1.5,0.5
	c-0.4,0.3-0.8,0.7-1,1.2v7.5h-1.8v-10.6H586.4z M602.4,200.7l0.1,1.3c0.7-1,1.9-1.6,3.2-1.5c2.2,0,3.4,1.3,3.4,3.8v7h-1.8v-7
	c0-0.6-0.1-1.2-0.5-1.7c-0.4-0.4-1-0.6-1.6-0.5c-0.6,0-1.1,0.2-1.5,0.5c-0.4,0.3-0.8,0.7-1,1.2v7.5h-1.8v-10.6H602.4z M611.2,205.9
	c0-1,0.2-1.9,0.6-2.8c0.4-0.8,1-1.5,1.7-1.9c0.7-0.5,1.6-0.7,2.5-0.7c1.3,0,2.6,0.5,3.5,1.5c0.9,1.1,1.4,2.5,1.3,4v0.1
	c0,1-0.2,1.9-0.6,2.8c-0.4,0.8-1,1.4-1.7,1.9c-0.8,0.5-1.6,0.7-2.5,0.7c-1.3,0-2.6-0.5-3.5-1.5c-0.9-1.1-1.4-2.5-1.3-4L611.2,205.9z
	 M613,206.1c-0.1,1,0.2,2,0.8,2.8c0.9,1.2,2.7,1.4,3.9,0.5c0.2-0.1,0.3-0.3,0.5-0.5c0.6-0.9,0.9-2,0.8-3c0-1-0.2-2-0.8-2.8
	c-0.5-0.7-1.3-1.1-2.2-1.1c-0.9,0-1.7,0.4-2.2,1.1C613.3,204,613,205,613,206.1L613,206.1z M503.6,238.5c-1.3,0-2.6-0.5-3.5-1.4
	c-0.9-1-1.4-2.4-1.3-3.8V233c0-1,0.2-1.9,0.6-2.8c0.4-0.8,1-1.5,1.7-1.9c0.7-0.5,1.5-0.7,2.3-0.7c1.2-0.1,2.4,0.4,3.2,1.4
	c0.8,1.1,1.2,2.5,1.1,3.9v0.8h-7.2c0,0.9,0.3,1.8,0.9,2.5c0.6,0.6,1.4,1,2.2,1c0.6,0,1.1-0.1,1.6-0.4c0.5-0.3,0.8-0.6,1.2-1l1.1,0.9
	C506.7,237.8,505.2,238.6,503.6,238.5z M503.4,229c-0.7,0-1.4,0.3-1.8,0.8c-0.5,0.6-0.9,1.4-0.9,2.2h5.3v-0.1c0-0.8-0.3-1.5-0.7-2.1
	C504.7,229.3,504,229,503.4,229L503.4,229z M515.9,235.5c0-0.4-0.2-0.9-0.6-1.1c-0.6-0.4-1.2-0.6-1.9-0.7c-0.8-0.1-1.5-0.4-2.2-0.7
	c-0.5-0.2-0.9-0.6-1.2-1c-0.3-0.4-0.4-0.9-0.4-1.3c0-0.9,0.4-1.7,1.1-2.2c0.8-0.6,1.8-0.9,2.8-0.9c1.1,0,2.1,0.3,2.9,0.9
	c0.7,0.6,1.1,1.5,1.1,2.4h-1.8c0-0.5-0.2-1-0.6-1.3c-0.4-0.4-1-0.6-1.6-0.5c-0.5,0-1.1,0.1-1.5,0.4c-0.4,0.3-0.6,0.7-0.6,1.1
	c0,0.4,0.2,0.8,0.5,1c0.6,0.3,1.2,0.5,1.9,0.6c0.8,0.2,1.5,0.4,2.2,0.7c0.5,0.2,0.9,0.6,1.2,1c0.3,0.4,0.4,0.9,0.4,1.4
	c0,0.9-0.4,1.7-1.1,2.3c-0.9,0.6-1.9,0.9-2.9,0.9c-0.8,0-1.5-0.1-2.2-0.4c-0.6-0.3-1.1-0.7-1.5-1.3c-0.4-0.5-0.6-1.1-0.6-1.7h1.8
	c0,0.6,0.3,1.1,0.7,1.4c0.5,0.4,1.2,0.6,1.8,0.5c0.6,0,1.2-0.1,1.6-0.4C515.7,236.4,516,235.9,515.9,235.5z M522.6,225.2v2.6h2v1.4
	h-2v6.6c0,0.3,0.1,0.7,0.3,1c0.2,0.2,0.6,0.4,0.9,0.3c0.3,0,0.6,0,0.9-0.1v1.4c-0.5,0.1-0.9,0.2-1.4,0.2c-0.7,0-1.4-0.2-1.8-0.7
	c-0.4-0.6-0.7-1.3-0.6-2.1v-6.6h-1.9v-1.4h1.9v-2.6L522.6,225.2z M531.8,229.3c-0.3,0-0.6-0.1-0.9-0.1c-1-0.1-2,0.5-2.4,1.5v7.5
	h-1.8v-10.6h1.8l0,1.2c0.5-0.9,1.5-1.4,2.5-1.4c0.3,0,0.5,0,0.8,0.1L531.8,229.3z M539.9,237.3c-0.8,0.9-1.9,1.3-3.1,1.2
	c-1,0.1-1.9-0.3-2.6-1c-0.6-0.8-1-1.9-0.9-2.9v-6.9h1.8v6.8c0,1.6,0.7,2.4,2,2.4c1.2,0.1,2.3-0.5,2.8-1.5v-7.7h1.8v10.6H540
	L539.9,237.3z M548.7,237c0.6,0,1.2-0.2,1.7-0.6c0.5-0.4,0.8-0.9,0.8-1.5h1.7c0,0.6-0.3,1.2-0.6,1.7c-0.4,0.6-0.9,1-1.5,1.3
	c-0.6,0.3-1.3,0.5-2,0.5c-1.3,0.1-2.6-0.5-3.4-1.4c-0.9-1.1-1.4-2.5-1.3-3.9v-0.3c0-0.9,0.2-1.9,0.6-2.7c0.3-0.8,0.9-1.4,1.6-1.9
	c0.8-0.5,1.6-0.7,2.5-0.7c1.1,0,2.1,0.3,3,1.1c0.8,0.7,1.2,1.7,1.3,2.8h-1.7c0-0.6-0.3-1.2-0.8-1.7c-0.5-0.4-1.1-0.7-1.7-0.7
	c-0.8,0-1.6,0.3-2.1,1c-0.6,0.8-0.8,1.9-0.8,2.9v0.3c-0.1,1,0.2,2,0.8,2.8C547,236.7,547.8,237.1,548.7,237L548.7,237z M557.4,225.2
	v2.6h2v1.4h-2v6.6c0,0.3,0.1,0.7,0.3,1c0.2,0.2,0.6,0.4,0.9,0.3c0.3,0,0.6,0,0.9-0.1v1.4c-0.5,0.1-0.9,0.2-1.4,0.2
	c-0.7,0-1.4-0.2-1.8-0.7c-0.4-0.6-0.7-1.3-0.6-2.1v-6.6h-1.9v-1.4h1.9v-2.6L557.4,225.2z M568,237.3c-0.8,0.9-1.9,1.3-3.1,1.2
	c-1,0.1-1.9-0.3-2.6-1c-0.6-0.8-1-1.9-0.9-2.9v-6.9h1.8v6.8c0,1.6,0.7,2.4,2,2.4c1.2,0.1,2.3-0.5,2.8-1.5v-7.7h1.8v10.6H568
	L568,237.3z M577.6,229.3c-0.3,0-0.6-0.1-0.9-0.1c-1.1-0.1-2,0.5-2.4,1.5v7.5h-1.8v-10.6h1.8l0,1.2c0.5-0.9,1.5-1.4,2.5-1.4
	c0.3,0,0.5,0,0.8,0.1L577.6,229.3z M585.4,238.3c-0.1-0.4-0.2-0.7-0.3-1.1c-0.8,0.8-1.9,1.3-3,1.3c-0.9,0-1.8-0.3-2.6-0.9
	c-0.7-0.6-1-1.4-1-2.2c0-1,0.4-2,1.3-2.6c1.1-0.7,2.3-1,3.5-0.9h1.8v-0.8c0-0.6-0.2-1.1-0.6-1.5c-0.5-0.4-1.1-0.6-1.7-0.6
	c-0.6,0-1.1,0.2-1.6,0.5c-0.4,0.3-0.6,0.7-0.7,1.2h-1.8c0-0.6,0.2-1.1,0.6-1.5c0.4-0.5,0.9-0.9,1.5-1.2c0.7-0.3,1.4-0.4,2.1-0.4
	c1-0.1,2.1,0.3,2.9,0.9c0.7,0.6,1.1,1.6,1.1,2.5v4.9c0,0.8,0.1,1.6,0.4,2.3v0.2H585.4z M582.4,236.9c0.6,0,1.1-0.2,1.6-0.4
	c0.5-0.3,0.9-0.7,1.1-1.1v-2.2h-1.4c-2.2,0-3.3,0.6-3.3,1.9c0,0.5,0.2,1,0.6,1.3C581.3,236.8,581.8,236.9,582.4,236.9L582.4,236.9z
	 M589.3,232.9c-0.1-1.4,0.3-2.8,1.2-3.9c1.3-1.7,3.8-2,5.5-0.6c0.2,0.1,0.3,0.3,0.4,0.4v-5.5h1.8v15h-1.7l-0.1-1.1
	c-0.7,0.9-1.9,1.4-3,1.3c-1.2,0-2.3-0.5-3-1.5c-0.8-1.1-1.2-2.5-1.2-3.9L589.3,232.9z M591.1,233.1c-0.1,1,0.2,2,0.7,2.8
	c0.5,0.7,1.2,1,2.1,1c1.1,0,2.1-0.6,2.5-1.5v-4.9c-0.5-0.9-1.4-1.5-2.5-1.5c-0.8,0-1.6,0.4-2.1,1C591.3,231,591,232.1,591.1,233.1
	L591.1,233.1z M607.5,238.3c-0.1-0.4-0.2-0.7-0.3-1.1c-0.8,0.8-1.9,1.3-3,1.3c-0.9,0-1.8-0.3-2.6-0.9c-0.7-0.6-1-1.4-1-2.2
	c0-1,0.4-2,1.3-2.6c1.1-0.7,2.3-1,3.5-0.9h1.8v-0.8c0-0.6-0.2-1.1-0.6-1.5c-0.5-0.4-1.1-0.6-1.7-0.6c-0.6,0-1.1,0.2-1.6,0.5
	c-0.4,0.3-0.6,0.7-0.7,1.2h-1.8c0-0.6,0.2-1.1,0.6-1.5c0.4-0.5,0.9-0.9,1.5-1.2c0.7-0.3,1.4-0.4,2.1-0.4c1-0.1,2.1,0.3,2.9,0.9
	c0.7,0.6,1.1,1.6,1.1,2.5v4.9c0,0.8,0.1,1.6,0.4,2.3v0.2H607.5z M604.5,236.9c0.6,0,1.1-0.2,1.6-0.4c0.5-0.3,0.9-0.7,1.1-1.1v-2.2
	h-1.4c-2.2,0-3.3,0.6-3.3,1.9c0,0.5,0.2,1,0.6,1.3C603.5,236.8,604,236.9,604.5,236.9L604.5,236.9z"/>
<path id="Trazado_183818" class="st1" d="M832.6,183.3h166.3c6,0,10.8,4.8,10.8,10.8c0,0,0,0,0,0v34.4c0,6-4.8,10.8-10.8,10.8l0,0
	H832.6c-6,0-10.8-4.8-10.8-10.8v-34.4C821.8,188.1,826.6,183.3,832.6,183.3z"/>
<path id="Trazado_183809" class="st1" d="M715.1,245.3h166.3c6,0,10.8,4.8,10.8,10.8c0,0,0,0,0,0v34.4c0,6-4.8,10.8-10.8,10.8l0,0
	H715.1c-6,0-10.8-4.8-10.8-10.8v-34.4C704.3,250.1,709.2,245.3,715.1,245.3z"/>
<path id="Trazado_183825" class="st1" d="M950.1,245.3h166.3c6,0,10.8,4.8,10.8,10.8c0,0,0,0,0,0v34.4c0,6-4.8,10.8-10.8,10.8l0,0
	H950.1c-6,0-10.8-4.8-10.8-10.8v-34.4C939.3,250.1,944.1,245.3,950.1,245.3z"/>
<path id="Trazado_183819" class="st17" d="M884.4,210.7h-6.2v5h7.2v1.5h-9v-14.2h8.9v1.5h-7.1v4.6h6.2V210.7z M889.3,206.7v11.8
	c0,2-0.9,3-2.8,3c-0.4,0-0.7-0.1-1.1-0.2v-1.4c0.3,0.1,0.5,0.1,0.8,0.1c0.3,0,0.7-0.1,0.9-0.3c0.2-0.3,0.4-0.7,0.3-1.1v-11.8H889.3z
	 M887.3,203.9c0-0.3,0.1-0.5,0.3-0.7c0.2-0.2,0.5-0.3,0.8-0.3c0.3,0,0.6,0.1,0.8,0.3c0.2,0.2,0.3,0.5,0.3,0.7c0,0.3-0.1,0.5-0.3,0.7
	c-0.2,0.2-0.5,0.3-0.8,0.3c-0.3,0-0.6-0.1-0.8-0.3C887.4,204.5,887.3,204.2,887.3,203.9L887.3,203.9z M896.6,217.5
	c-1.3,0-2.6-0.5-3.5-1.4c-0.9-1-1.4-2.4-1.3-3.8V212c0-1,0.2-1.9,0.6-2.8c0.4-0.8,1-1.5,1.7-1.9c0.7-0.5,1.5-0.7,2.3-0.7
	c1.2-0.1,2.4,0.4,3.2,1.4c0.8,1.1,1.2,2.5,1.1,3.9v0.8h-7.2c0,0.9,0.3,1.8,0.9,2.5c0.6,0.6,1.4,1,2.2,1c0.6,0,1.1-0.1,1.6-0.4
	c0.5-0.3,0.8-0.6,1.2-1l1.1,0.9C899.7,216.8,898.2,217.6,896.6,217.5z M896.4,208c-0.7,0-1.4,0.3-1.8,0.8c-0.5,0.6-0.9,1.4-0.9,2.2
	h5.3v-0.1c0-0.8-0.3-1.5-0.7-2.1C897.7,208.3,897.1,208,896.4,208L896.4,208z M904.5,206.7l0.1,1.2c0.8-0.9,1.9-1.4,3.1-1.4
	c1.3-0.1,2.5,0.6,3,1.7c0.4-0.5,0.8-0.9,1.4-1.2c0.6-0.3,1.3-0.5,2-0.5c2.3,0,3.5,1.2,3.5,3.7v7.1h-1.8v-7c0-0.6-0.1-1.2-0.5-1.7
	c-0.5-0.4-1.1-0.6-1.7-0.6c-0.6,0-1.2,0.2-1.7,0.6c-0.5,0.4-0.7,1-0.8,1.6v7h-1.8v-6.9c0.2-1.1-0.6-2.1-1.7-2.3c-0.2,0-0.4,0-0.6,0
	c-1.1-0.1-2,0.5-2.4,1.5v7.7h-1.8v-10.6L904.5,206.7z M929.3,212.1c0.1,1.4-0.3,2.7-1.1,3.9c-0.7,1-1.8,1.5-3,1.5
	c-1.1,0.1-2.2-0.4-3-1.2v5.1h-1.8v-14.6h1.7l0.1,1.2c0.7-0.9,1.9-1.4,3.1-1.4c1.2,0,2.3,0.5,3,1.4c0.8,1.2,1.2,2.6,1.1,4
	L929.3,212.1z M927.5,211.9c0.1-1-0.2-2-0.8-2.8c-0.5-0.7-1.3-1.1-2.1-1c-1,0-2,0.5-2.5,1.5v5c0.5,0.9,1.4,1.5,2.5,1.4
	c0.8,0,1.6-0.4,2.1-1C927.3,214.1,927.6,213,927.5,211.9z M933.5,217.3h-1.8v-15h1.8V217.3z M936,211.9c0-1,0.2-1.9,0.6-2.8
	c0.4-0.8,1-1.5,1.7-1.9c0.7-0.5,1.6-0.7,2.5-0.7c1.3,0,2.6,0.5,3.5,1.5c0.9,1.1,1.4,2.5,1.3,4v0.1c0,1-0.2,1.9-0.6,2.8
	c-0.4,0.8-1,1.4-1.7,1.9c-0.8,0.5-1.6,0.7-2.5,0.7c-1.3,0-2.6-0.5-3.5-1.5c-0.9-1.1-1.4-2.5-1.3-4L936,211.9z M937.8,212.1
	c-0.1,1,0.2,2,0.8,2.8c0.9,1.2,2.7,1.4,3.9,0.5c0.2-0.1,0.3-0.3,0.5-0.5c0.6-0.9,0.9-2,0.8-3c0-1-0.2-2-0.8-2.8
	c-0.5-0.7-1.3-1.1-2.2-1.1c-0.9,0-1.7,0.4-2.2,1.1C938,210,937.7,211,937.8,212.1L937.8,212.1z M954,214.5c0-0.4-0.2-0.9-0.6-1.1
	c-0.6-0.4-1.2-0.6-1.9-0.7c-0.8-0.1-1.5-0.4-2.2-0.7c-0.5-0.2-0.9-0.6-1.2-1c-0.3-0.4-0.4-0.9-0.4-1.3c0-0.9,0.4-1.7,1.1-2.2
	c0.8-0.6,1.8-0.9,2.8-0.9c1.1,0,2.1,0.3,2.9,0.9c0.7,0.6,1.1,1.5,1.1,2.4h-1.8c0-0.5-0.2-1-0.6-1.3c-0.4-0.4-1-0.6-1.6-0.5
	c-0.5,0-1.1,0.1-1.5,0.4c-0.4,0.3-0.6,0.7-0.6,1.1c0,0.4,0.2,0.8,0.5,1c0.6,0.3,1.2,0.5,1.9,0.6c0.8,0.2,1.5,0.4,2.2,0.7
	c0.5,0.2,0.9,0.6,1.2,1c0.3,0.4,0.4,0.9,0.4,1.4c0,0.9-0.4,1.7-1.1,2.3c-0.9,0.6-1.9,0.9-2.9,0.9c-0.8,0-1.5-0.1-2.2-0.4
	c-0.6-0.3-1.1-0.7-1.5-1.3c-0.4-0.5-0.6-1.1-0.6-1.7h1.8c0,0.6,0.3,1.1,0.7,1.4c0.5,0.4,1.2,0.6,1.8,0.5c0.6,0,1.2-0.1,1.6-0.4
	C953.8,215.4,954,214.9,954,214.5z"/>
<path id="Trazado_183826" class="st17" d="M1004.7,273h-6v6.3h-1.9v-14.2h8.8v1.5h-6.9v4.9h6L1004.7,273z M1009.6,279.3h-1.8v-10.6
	h1.8V279.3z M1007.6,265.9c0-0.3,0.1-0.5,0.3-0.7c0.2-0.2,0.5-0.3,0.8-0.3c0.3,0,0.6,0.1,0.8,0.3c0.2,0.2,0.3,0.5,0.3,0.7
	c0,0.3-0.1,0.5-0.3,0.7c-0.2,0.2-0.5,0.3-0.8,0.3c-0.3,0-0.6-0.1-0.8-0.3C1007.7,266.5,1007.6,266.2,1007.6,265.9z M1017.6,270.3
	c-0.3,0-0.6-0.1-0.9-0.1c-1.1-0.1-2,0.5-2.4,1.5v7.5h-1.8v-10.6h1.8l0,1.2c0.5-0.9,1.5-1.4,2.5-1.4c0.3,0,0.5,0,0.8,0.1
	L1017.6,270.3z M1023.5,279.5c-1.3,0-2.6-0.5-3.5-1.4c-0.9-1-1.4-2.4-1.3-3.8V274c0-1,0.2-1.9,0.6-2.8c0.4-0.8,1-1.5,1.7-1.9
	c0.7-0.5,1.5-0.7,2.3-0.7c1.2-0.1,2.4,0.4,3.2,1.4c0.8,1.1,1.2,2.5,1.1,3.9v0.8h-7.2c0,0.9,0.3,1.8,0.9,2.5c0.6,0.6,1.4,1,2.2,1
	c0.6,0,1.1-0.1,1.6-0.4c0.5-0.3,0.8-0.6,1.2-1l1.1,0.9C1026.6,278.8,1025.1,279.6,1023.5,279.5z M1023.2,270c-0.7,0-1.4,0.3-1.8,0.8
	c-0.5,0.6-0.9,1.4-0.9,2.2h5.3v-0.1c0-0.8-0.3-1.5-0.7-2.1C1024.6,270.3,1023.9,270,1023.2,270L1023.2,270z M1038.6,274.1
	c0.1,1.4-0.3,2.8-1.1,3.9c-0.7,1-1.8,1.5-3,1.5c-1.2,0.1-2.4-0.5-3.1-1.4l-0.1,1.2h-1.7v-15h1.8v5.6c0.7-0.9,1.8-1.4,3-1.4
	c1.2,0,2.3,0.5,3,1.5c0.8,1.2,1.2,2.6,1.1,4L1038.6,274.1z M1036.8,273.9c0.1-1-0.2-2-0.7-2.9c-0.5-0.7-1.2-1-2.1-1
	c-1.1,0-2.1,0.6-2.6,1.7v4.6c0.4,1,1.5,1.7,2.6,1.7c0.8,0,1.6-0.3,2-1C1036.6,276,1036.9,275,1036.8,273.9L1036.8,273.9z
	 M1047.4,279.3c-0.1-0.4-0.2-0.7-0.3-1.1c-0.8,0.8-1.9,1.3-3,1.3c-0.9,0-1.8-0.3-2.6-0.9c-0.7-0.6-1-1.4-1-2.2c0-1,0.4-2,1.3-2.6
	c1.1-0.7,2.3-1,3.5-0.9h1.8v-0.8c0-0.6-0.2-1.1-0.6-1.5c-0.5-0.4-1.1-0.6-1.7-0.6c-0.6,0-1.1,0.2-1.6,0.5c-0.4,0.3-0.6,0.7-0.7,1.2
	h-1.8c0-0.6,0.2-1.1,0.6-1.5c0.4-0.5,0.9-0.9,1.5-1.2c0.7-0.3,1.4-0.4,2.1-0.4c1-0.1,2.1,0.3,2.9,0.9c0.7,0.6,1.1,1.6,1.1,2.5v4.9
	c0,0.8,0.1,1.6,0.4,2.3v0.2H1047.4z M1044.4,277.9c0.6,0,1.1-0.2,1.6-0.4c0.5-0.3,0.9-0.7,1.1-1.1v-2.2h-1.4c-2.2,0-3.3,0.6-3.3,1.9
	c0,0.5,0.2,1,0.6,1.3C1043.4,277.8,1043.9,277.9,1044.4,277.9L1044.4,277.9z M1057.9,276.5c0-0.4-0.2-0.9-0.6-1.1
	c-0.6-0.4-1.2-0.6-1.9-0.7c-0.8-0.1-1.5-0.4-2.2-0.7c-0.5-0.2-0.9-0.6-1.2-1c-0.3-0.4-0.4-0.9-0.4-1.3c0-0.9,0.4-1.7,1.1-2.2
	c0.8-0.6,1.8-0.9,2.8-0.9c1.1,0,2.1,0.3,2.9,0.9c0.7,0.6,1.1,1.5,1.1,2.4h-1.8c0-0.5-0.2-1-0.6-1.3c-0.4-0.4-1-0.6-1.6-0.5
	c-0.5,0-1.1,0.1-1.5,0.4c-0.4,0.3-0.6,0.7-0.6,1.1c0,0.4,0.2,0.8,0.5,1c0.6,0.3,1.2,0.5,1.9,0.6c0.8,0.2,1.5,0.4,2.2,0.7
	c0.5,0.2,0.9,0.6,1.2,1c0.3,0.4,0.4,0.9,0.4,1.4c0,0.9-0.4,1.7-1.1,2.3c-0.9,0.6-1.9,0.9-2.9,0.9c-0.8,0-1.5-0.1-2.2-0.4
	c-0.6-0.3-1.1-0.7-1.5-1.3c-0.4-0.5-0.6-1.1-0.6-1.7h1.8c0,0.6,0.3,1.1,0.7,1.4c0.5,0.4,1.2,0.6,1.8,0.5c0.6,0,1.2-0.1,1.6-0.4
	C1057.7,277.4,1057.9,276.9,1057.9,276.5z M1066.5,279.5c-1.3,0-2.6-0.5-3.5-1.4c-0.9-1-1.4-2.4-1.3-3.8V274c0-1,0.2-1.9,0.6-2.8
	c0.4-0.8,1-1.5,1.7-1.9c0.7-0.5,1.5-0.7,2.3-0.7c1.2-0.1,2.4,0.4,3.2,1.4c0.8,1.1,1.2,2.5,1.1,3.9v0.8h-7.2c0,0.9,0.3,1.8,0.9,2.5
	c0.6,0.6,1.4,1,2.2,1c0.6,0,1.1-0.1,1.6-0.4c0.5-0.3,0.8-0.6,1.2-1l1.1,0.9C1069.6,278.8,1068.1,279.6,1066.5,279.5z M1066.2,270
	c-0.7,0-1.4,0.3-1.8,0.8c-0.5,0.6-0.9,1.4-0.9,2.2h5.3v-0.1c0-0.8-0.3-1.5-0.7-2.1C1067.6,270.3,1066.9,270,1066.2,270L1066.2,270z"
	/>
<path id="Trazado_183820" class="st18" d="M857.2,360.3h160.2c7.9,0,14.3,6.4,14.3,14.3c0,0,0,0,0,0v28.3c0,7.9-6.4,14.3-14.3,14.3
	l0,0H857.2c-7.9,0-14.3-6.4-14.3-14.3v-28.3C842.8,366.7,849.3,360.3,857.2,360.3C857.2,360.3,857.2,360.3,857.2,360.3z"/>
<path id="Trazado_183795" class="st18" d="M175.9,360.3h160.2c7.9,0,14.3,6.4,14.3,14.3c0,0,0,0,0,0v28.3c0,7.9-6.4,14.3-14.3,14.3
	l0,0H175.9c-7.9,0-14.3-6.4-14.3-14.3v-28.3C161.6,366.7,168,360.3,175.9,360.3C175.9,360.3,175.9,360.3,175.9,360.3z"/>
<g>
	<path class="st17" d="M744.9,266.8v12.7h-2v-11.1l-3.4,11.1h-1.9l-3.4-11.1v11.1h-2v-12.7h3.4l3,9.9l3.1-9.9H744.9z"/>
	<path class="st17" d="M748.7,271.5c0.8-0.9,1.9-1.3,3.3-1.3c1.3,0,2.4,0.4,3.3,1.3c0.8,0.9,1.2,2,1.2,3.5s-0.4,2.6-1.3,3.5
		c-0.8,0.9-1.9,1.3-3.2,1.3c-1.4,0-2.4-0.4-3.3-1.3c-0.8-0.8-1.2-2-1.2-3.4C747.5,273.5,747.9,272.3,748.7,271.5z M752,278.1
		c0.7,0,1.3-0.3,1.8-0.9c0.5-0.6,0.7-1.3,0.7-2.3c0-2.2-0.8-3.2-2.5-3.2s-2.5,1.1-2.5,3.2S750.3,278.1,752,278.1z"/>
	<path class="st17" d="M757.8,270.3h1.8v1.3c0.7-1,1.7-1.5,3-1.5c1.3,0,2.1,0.4,2.6,1.3c0.2,0.4,0.3,0.7,0.4,0.9
		c0,0.3,0.1,0.9,0.1,1.8v5.3h-2v-5.1c0-1.8-0.6-2.6-1.7-2.6c-0.9,0-1.5,0.3-1.8,1c-0.3,0.5-0.4,1.2-0.4,2.2v4.6h-2V270.3z"/>
	<path class="st17" d="M770.6,280.4c0.1,0.8,0.7,1.2,1.7,1.2c0.9,0,1.5-0.2,1.9-0.6s0.5-1.1,0.5-2v-0.9c-0.7,0.9-1.6,1.3-2.7,1.3
		c-1.1,0-2-0.4-2.8-1.3c-0.7-0.9-1.1-2-1.1-3.3c0-1.4,0.4-2.6,1.1-3.4c0.7-0.9,1.7-1.3,2.8-1.3c1.1,0,2,0.5,2.8,1.4v-1.2h1.8v8.1
		c0,1.9-0.4,3.2-1.1,3.8c-0.7,0.7-1.7,1-3,1c-1.9,0-3.1-0.5-3.7-1.5c-0.2-0.4-0.4-0.9-0.4-1.3l0-0.2L770.6,280.4z M770.1,274.8
		c0,2.1,0.8,3.1,2.3,3.1c1.6,0,2.3-1,2.3-2.9c0-2.2-0.8-3.3-2.3-3.3C770.9,271.7,770.1,272.7,770.1,274.8z"/>
	<path class="st17" d="M779.7,271.5c0.8-0.9,1.9-1.3,3.3-1.3c1.3,0,2.4,0.4,3.3,1.3c0.8,0.9,1.2,2,1.2,3.5s-0.4,2.6-1.3,3.5
		c-0.8,0.9-1.9,1.3-3.2,1.3c-1.4,0-2.4-0.4-3.3-1.3c-0.8-0.8-1.2-2-1.2-3.4C778.4,273.5,778.9,272.3,779.7,271.5z M782.9,278.1
		c0.7,0,1.3-0.3,1.8-0.9c0.5-0.6,0.7-1.3,0.7-2.3c0-2.2-0.8-3.2-2.5-3.2s-2.5,1.1-2.5,3.2S781.3,278.1,782.9,278.1z"/>
	<path class="st17" d="M788.8,266.8h4.5c1.4,0,2.5,0.2,3.2,0.5c0.6,0.3,1.1,0.7,1.5,1.3c0.9,1.2,1.3,2.7,1.3,4.5
		c0,2.8-0.9,4.7-2.6,5.7c-0.8,0.5-1.9,0.7-3.3,0.7h-4.7V266.8z M793.2,277.7c1.1,0,1.9-0.2,2.4-0.5c0.4-0.3,0.8-0.7,1-1.2
		c0.3-0.7,0.5-1.7,0.5-2.9c0-2.2-0.6-3.5-1.8-4.1c-0.5-0.2-1.4-0.4-2.5-0.4h-2v9.1H793.2z"/>
	<path class="st17" d="M801.5,266.8h4.9c1.4,0,2.4,0.2,3,0.5c1,0.6,1.6,1.5,1.6,2.7c0,1.2-0.6,2.1-1.8,2.7c1.6,0.5,2.4,1.5,2.4,3.1
		c0,1.8-0.8,2.9-2.4,3.4c-0.6,0.2-1.7,0.3-3.1,0.3h-4.6V266.8z M805.8,272c1.2,0,2-0.1,2.4-0.4c0.4-0.2,0.7-0.7,0.7-1.3
		c0-0.7-0.2-1.1-0.6-1.4c-0.4-0.2-1.3-0.3-2.6-0.3h-2v3.4H805.8z M806.3,277.7c2,0,3-0.6,3-1.9c0-1-0.5-1.6-1.5-1.8
		c-0.4-0.1-1-0.1-1.8-0.1h-2.5v3.9H806.3z"/>
	<path class="st17" d="M818.2,279.5l4.9-12.7h2.2l5.1,12.7h-2.3l-1.3-3.4h-5.2l-1.3,3.4H818.2z M826.2,274.4l-1.2-3.1
		c-0.4-1.1-0.7-1.9-0.8-2.3c-0.2,0.8-0.4,1.5-0.7,2.1l-1.2,3.3H826.2z"/>
	<path class="st17" d="M833.7,270.3h1.6v1.5h-1.6v4.6c0,0.7,0,1.1,0.1,1.3c0.1,0.2,0.3,0.3,0.6,0.3c0.3,0,0.5-0.1,0.9-0.2l0.2,1.6
		c-0.5,0.2-1,0.2-1.4,0.2c-1.1,0-1.8-0.3-2-0.8c-0.2-0.4-0.3-1.2-0.3-2.3v-4.7h-1.1v-1.5h1.1v-2.1l2-1.2V270.3z"/>
	<path class="st17" d="M835.9,266.8h2v12.7h-2V266.8z"/>
	<path class="st17" d="M840.6,272.8c0.6-1.8,2-2.7,4.1-2.7c1.7,0,2.8,0.5,3.3,1.3c0.2,0.4,0.3,1.1,0.3,2.1l0,3.3
		c0,1.1,0.2,2,0.5,2.6h-2c-0.2-0.4-0.3-0.7-0.3-1.1c-0.9,0.8-1.9,1.3-3.1,1.3c-2.1,0-3.1-0.9-3.1-2.6c0-1.2,0.6-2,1.8-2.5
		c0.4-0.2,1-0.3,1.7-0.4c1.2-0.2,2.1-0.4,2.6-0.6v-0.2c0-1.2-0.6-1.7-1.8-1.7c-1.2,0-1.9,0.5-2.2,1.5L840.6,272.8z M846.4,275
		c-0.3,0.1-0.6,0.2-0.8,0.3c-0.3,0.1-0.7,0.1-1.3,0.2c-1.2,0.2-1.9,0.7-1.9,1.4c0,0.9,0.5,1.3,1.6,1.3c1,0,1.7-0.4,2.1-1.1
		c0.2-0.3,0.3-0.9,0.3-1.6V275z"/>
	<path class="st17" d="M856,272.9c-0.2-0.9-0.8-1.3-1.9-1.3c-1.2,0-1.8,0.3-1.8,1c0,0.3,0.1,0.5,0.4,0.7c0.3,0.2,0.8,0.3,1.7,0.6
		c1.5,0.3,2.5,0.7,2.9,1.1c0.5,0.4,0.8,1,0.8,1.8c0,0.9-0.4,1.6-1.1,2.2c-0.7,0.5-1.7,0.8-2.9,0.8c-2.4,0-3.8-1-4.1-2.9l2-0.3
		c0.2,1.1,0.9,1.7,2.1,1.7c1.3,0,2-0.4,2-1.3c0-0.5-0.4-0.8-1.3-1c-1.9-0.4-3.1-0.9-3.7-1.3c-0.6-0.4-0.8-1.1-0.8-1.8
		c0-0.8,0.3-1.5,1-2c0.6-0.5,1.5-0.8,2.5-0.8c2.3,0,3.7,0.8,4,2.5L856,272.9z"/>
</g>
<g>
	<path class="st17" d="M890.8,380.9h5c1.1,0,2,0.1,2.6,0.3c0.8,0.2,1.5,0.7,2.1,1.3c0.6,0.6,1,1.3,1.3,2.2s0.4,1.9,0.4,3.2
		c0,1.1-0.1,2.1-0.4,2.9c-0.3,1-0.8,1.8-1.5,2.4c-0.5,0.5-1.1,0.8-1.9,1.1c-0.6,0.2-1.4,0.3-2.4,0.3h-5.2V380.9z M893.6,383.2v9h2.1
		c0.8,0,1.3,0,1.7-0.1c0.4-0.1,0.8-0.3,1.1-0.6s0.5-0.7,0.7-1.3s0.3-1.4,0.3-2.5c0-1.1-0.1-1.9-0.3-2.4s-0.4-1-0.8-1.3
		c-0.3-0.3-0.8-0.5-1.3-0.6c-0.4-0.1-1.1-0.1-2.3-0.1H893.6z"/>
	<path class="st17" d="M910.3,391.4l2.6,0.4c-0.3,1-0.9,1.7-1.6,2.2c-0.7,0.5-1.6,0.7-2.7,0.7c-1.7,0-3-0.6-3.8-1.7
		c-0.6-0.9-1-2-1-3.4c0-1.6,0.4-2.9,1.3-3.8c0.9-0.9,1.9-1.4,3.2-1.4c1.5,0,2.6,0.5,3.5,1.5c0.8,1,1.3,2.4,1.2,4.4h-6.5
		c0,0.8,0.2,1.4,0.6,1.8c0.4,0.4,0.9,0.6,1.5,0.6c0.4,0,0.8-0.1,1-0.3S910.1,391.9,910.3,391.4z M910.4,388.8c0-0.8-0.2-1.3-0.6-1.7
		s-0.8-0.6-1.4-0.6c-0.6,0-1,0.2-1.4,0.6s-0.6,1-0.5,1.7H910.4z"/>
	<path class="st17" d="M914.2,391.7l2.6-0.4c0.1,0.5,0.3,0.9,0.7,1.2c0.3,0.3,0.8,0.4,1.4,0.4c0.7,0,1.2-0.1,1.5-0.4
		c0.2-0.2,0.3-0.4,0.3-0.7c0-0.2-0.1-0.4-0.2-0.5c-0.1-0.1-0.4-0.2-0.9-0.3c-2.1-0.5-3.4-0.9-4-1.3c-0.8-0.5-1.2-1.3-1.2-2.2
		c0-0.9,0.3-1.6,1-2.2c0.7-0.6,1.7-0.9,3.1-0.9c1.3,0,2.4,0.2,3,0.7c0.7,0.4,1.1,1.1,1.4,1.9l-2.5,0.5c-0.1-0.4-0.3-0.7-0.6-0.9
		c-0.3-0.2-0.7-0.3-1.3-0.3c-0.7,0-1.2,0.1-1.5,0.3c-0.2,0.1-0.3,0.3-0.3,0.5c0,0.2,0.1,0.3,0.3,0.5c0.2,0.2,1,0.4,2.4,0.7
		c1.4,0.3,2.4,0.7,2.9,1.2c0.5,0.5,0.8,1.1,0.8,1.9c0,0.9-0.4,1.7-1.1,2.3c-0.8,0.7-1.9,1-3.3,1c-1.3,0-2.4-0.3-3.2-0.8
		C915,393.4,914.4,392.7,914.2,391.7z"/>
	<path class="st17" d="M928.4,394.5l-4-9.9h2.7l1.9,5l0.5,1.7c0.1-0.4,0.2-0.7,0.3-0.8c0.1-0.3,0.2-0.6,0.3-0.8l1.9-5h2.7l-3.9,9.9
		H928.4z"/>
	<path class="st17" d="M942,391.4l2.6,0.4c-0.3,1-0.9,1.7-1.6,2.2c-0.7,0.5-1.6,0.7-2.7,0.7c-1.7,0-3-0.6-3.8-1.7
		c-0.6-0.9-1-2-1-3.4c0-1.6,0.4-2.9,1.3-3.8c0.9-0.9,1.9-1.4,3.2-1.4c1.5,0,2.6,0.5,3.5,1.5c0.8,1,1.3,2.4,1.2,4.4h-6.5
		c0,0.8,0.2,1.4,0.6,1.8c0.4,0.4,0.9,0.6,1.5,0.6c0.4,0,0.8-0.1,1-0.3S941.8,391.9,942,391.4z M942.1,388.8c0-0.8-0.2-1.3-0.6-1.7
		s-0.8-0.6-1.4-0.6c-0.6,0-1,0.2-1.4,0.6s-0.6,1-0.5,1.7H942.1z"/>
	<path class="st17" d="M955.8,394.5h-2.6v-5c0-1.1-0.1-1.8-0.2-2.1c-0.1-0.3-0.3-0.6-0.5-0.7c-0.3-0.2-0.6-0.3-0.9-0.3
		c-0.5,0-0.9,0.1-1.2,0.4c-0.4,0.2-0.6,0.6-0.7,1s-0.2,1.2-0.2,2.3v4.5h-2.6v-9.9h2.4v1.4c0.9-1.1,1.9-1.7,3.2-1.7
		c0.6,0,1.1,0.1,1.6,0.3c0.5,0.2,0.8,0.5,1.1,0.8c0.2,0.3,0.4,0.7,0.5,1.1s0.1,1,0.1,1.8V394.5z"/>
	<path class="st17" d="M962.9,384.7v2.1h-1.8v4c0,0.8,0,1.3,0.1,1.4s0.1,0.2,0.2,0.3c0.1,0.1,0.3,0.1,0.4,0.1c0.2,0,0.6-0.1,1-0.3
		l0.2,2c-0.6,0.3-1.3,0.4-2.1,0.4c-0.5,0-0.9-0.1-1.3-0.2c-0.4-0.2-0.7-0.4-0.8-0.6c-0.2-0.3-0.3-0.6-0.4-1
		c-0.1-0.3-0.1-0.9-0.1-1.8v-4.3h-1.2v-2.1h1.2v-2l2.6-1.5v3.5H962.9z"/>
	<path class="st17" d="M966.7,387.7l-2.4-0.4c0.3-1,0.7-1.7,1.4-2.1c0.6-0.5,1.6-0.7,2.9-0.7c1.2,0,2,0.1,2.6,0.4s1,0.6,1.2,1
		c0.2,0.4,0.3,1.2,0.3,2.3l0,3c0,0.9,0,1.5,0.1,1.9c0.1,0.4,0.2,0.9,0.5,1.3h-2.6c-0.1-0.2-0.2-0.4-0.3-0.8c0-0.2-0.1-0.3-0.1-0.3
		c-0.4,0.4-0.9,0.8-1.4,1c-0.5,0.2-1,0.3-1.6,0.3c-1,0-1.8-0.3-2.4-0.8c-0.6-0.6-0.9-1.2-0.9-2.1c0-0.6,0.1-1.1,0.4-1.5
		s0.6-0.8,1.1-1c0.5-0.2,1.2-0.4,2.1-0.6c1.2-0.2,2.1-0.4,2.5-0.6v-0.3c0-0.5-0.1-0.9-0.4-1.1c-0.2-0.2-0.7-0.3-1.4-0.3
		c-0.5,0-0.8,0.1-1.1,0.3C967.1,386.9,966.9,387.2,966.7,387.7z M970.2,389.8c-0.3,0.1-0.9,0.2-1.6,0.4c-0.7,0.2-1.2,0.3-1.4,0.5
		c-0.3,0.2-0.5,0.5-0.5,0.9c0,0.4,0.1,0.7,0.4,0.9s0.6,0.4,1,0.4c0.5,0,0.9-0.2,1.3-0.5c0.3-0.2,0.5-0.5,0.6-0.9
		c0.1-0.2,0.1-0.6,0.1-1.3V389.8z"/>
	<path class="st17" d="M977.9,384.7v9.5c0,1.3-0.1,2.1-0.2,2.7c-0.2,0.5-0.5,0.9-0.9,1.2s-1.1,0.4-1.8,0.4c-0.3,0-0.5,0-0.8-0.1
		c-0.3,0-0.6-0.1-1-0.2l0.5-2.2c0.1,0,0.2,0,0.3,0.1c0.1,0,0.2,0,0.3,0c0.3,0,0.5-0.1,0.7-0.2c0.2-0.1,0.3-0.3,0.3-0.4
		s0.1-0.6,0.1-1.4v-9.4H977.9z M975.3,383.3v-2.4h2.6v2.4H975.3z"/>
	<path class="st17" d="M982.5,387.7l-2.4-0.4c0.3-1,0.7-1.7,1.4-2.1c0.6-0.5,1.6-0.7,2.9-0.7c1.2,0,2,0.1,2.6,0.4s1,0.6,1.2,1
		c0.2,0.4,0.3,1.2,0.3,2.3l0,3c0,0.9,0,1.5,0.1,1.9c0.1,0.4,0.2,0.9,0.5,1.3h-2.6c-0.1-0.2-0.2-0.4-0.3-0.8c0-0.2-0.1-0.3-0.1-0.3
		c-0.4,0.4-0.9,0.8-1.4,1c-0.5,0.2-1,0.3-1.6,0.3c-1,0-1.8-0.3-2.4-0.8c-0.6-0.6-0.9-1.2-0.9-2.1c0-0.6,0.1-1.1,0.4-1.5
		s0.6-0.8,1.1-1c0.5-0.2,1.2-0.4,2.1-0.6c1.2-0.2,2.1-0.4,2.5-0.6v-0.3c0-0.5-0.1-0.9-0.4-1.1c-0.2-0.2-0.7-0.3-1.4-0.3
		c-0.5,0-0.8,0.1-1.1,0.3C982.9,386.9,982.7,387.2,982.5,387.7z M986,389.8c-0.3,0.1-0.9,0.2-1.6,0.4c-0.7,0.2-1.2,0.3-1.4,0.5
		c-0.3,0.2-0.5,0.5-0.5,0.9c0,0.4,0.1,0.7,0.4,0.9s0.6,0.4,1,0.4c0.5,0,0.9-0.2,1.3-0.5c0.3-0.2,0.5-0.5,0.6-0.9
		c0.1-0.2,0.1-0.6,0.1-1.3V389.8z"/>
	<path class="st17" d="M990.2,391.7l2.6-0.4c0.1,0.5,0.3,0.9,0.7,1.2c0.3,0.3,0.8,0.4,1.4,0.4c0.7,0,1.2-0.1,1.5-0.4
		c0.2-0.2,0.3-0.4,0.3-0.7c0-0.2-0.1-0.4-0.2-0.5c-0.1-0.1-0.4-0.2-0.9-0.3c-2.1-0.5-3.4-0.9-4-1.3c-0.8-0.5-1.2-1.3-1.2-2.2
		c0-0.9,0.3-1.6,1-2.2c0.7-0.6,1.7-0.9,3.1-0.9c1.3,0,2.4,0.2,3,0.7c0.7,0.4,1.1,1.1,1.4,1.9l-2.5,0.5c-0.1-0.4-0.3-0.7-0.6-0.9
		c-0.3-0.2-0.7-0.3-1.3-0.3c-0.7,0-1.2,0.1-1.5,0.3c-0.2,0.1-0.3,0.3-0.3,0.5c0,0.2,0.1,0.3,0.3,0.5c0.2,0.2,1,0.4,2.4,0.7
		c1.4,0.3,2.4,0.7,2.9,1.2c0.5,0.5,0.8,1.1,0.8,1.9c0,0.9-0.4,1.7-1.1,2.3c-0.8,0.7-1.9,1-3.3,1c-1.3,0-2.4-0.3-3.2-0.8
		C991,393.4,990.5,392.7,990.2,391.7z"/>
</g>
<g>
	<path class="st16" d="M225.5,394.5l-4.9-13.6h3l3.4,10.1l3.3-10.1h2.9l-4.9,13.6H225.5z"/>
	<path class="st16" d="M239.4,391.4l2.6,0.4c-0.3,1-0.9,1.7-1.6,2.2c-0.7,0.5-1.6,0.7-2.7,0.7c-1.7,0-3-0.6-3.8-1.7
		c-0.6-0.9-1-2-1-3.4c0-1.6,0.4-2.9,1.3-3.8c0.9-0.9,1.9-1.4,3.2-1.4c1.5,0,2.6,0.5,3.5,1.5s1.3,2.5,1.2,4.4h-6.5
		c0,0.8,0.2,1.4,0.6,1.8c0.4,0.4,0.9,0.6,1.5,0.6c0.4,0,0.8-0.1,1-0.3S239.2,391.9,239.4,391.4z M239.5,388.8c0-0.8-0.2-1.3-0.6-1.7
		s-0.8-0.6-1.4-0.6c-0.6,0-1,0.2-1.4,0.6s-0.6,1-0.5,1.7H239.5z"/>
	<path class="st16" d="M253.2,394.5h-2.6v-5c0-1.1-0.1-1.8-0.2-2.1c-0.1-0.3-0.3-0.6-0.5-0.7c-0.3-0.2-0.6-0.3-0.9-0.3
		c-0.5,0-0.9,0.1-1.2,0.4c-0.4,0.2-0.6,0.6-0.7,1s-0.2,1.2-0.2,2.3v4.5h-2.6v-9.9h2.4v1.4c0.9-1.1,1.9-1.7,3.2-1.7
		c0.6,0,1.1,0.1,1.6,0.3c0.5,0.2,0.8,0.5,1.1,0.8c0.2,0.3,0.4,0.7,0.5,1.1s0.1,1,0.1,1.8V394.5z"/>
	<path class="st16" d="M260.4,384.7v2.1h-1.8v4c0,0.8,0,1.3,0.1,1.4c0,0.1,0.1,0.2,0.2,0.3c0.1,0.1,0.3,0.1,0.4,0.1
		c0.2,0,0.6-0.1,1-0.3l0.2,2c-0.6,0.3-1.3,0.4-2.1,0.4c-0.5,0-0.9-0.1-1.3-0.2c-0.4-0.2-0.7-0.4-0.8-0.6c-0.2-0.3-0.3-0.6-0.4-1
		c-0.1-0.3-0.1-0.9-0.1-1.8v-4.3h-1.2v-2.1h1.2v-2l2.6-1.5v3.5H260.4z"/>
	<path class="st16" d="M264.1,387.7l-2.4-0.4c0.3-1,0.7-1.7,1.4-2.1s1.6-0.7,2.9-0.7c1.2,0,2,0.1,2.6,0.4s1,0.6,1.2,1
		c0.2,0.4,0.3,1.2,0.3,2.3l0,3c0,0.9,0,1.5,0.1,1.9c0.1,0.4,0.2,0.9,0.5,1.3h-2.6c-0.1-0.2-0.2-0.4-0.3-0.8c0-0.2-0.1-0.3-0.1-0.3
		c-0.4,0.4-0.9,0.8-1.4,1c-0.5,0.2-1,0.3-1.6,0.3c-1,0-1.8-0.3-2.4-0.8c-0.6-0.5-0.9-1.2-0.9-2.1c0-0.6,0.1-1.1,0.4-1.5
		c0.3-0.4,0.6-0.8,1.1-1c0.5-0.2,1.2-0.4,2.1-0.6c1.2-0.2,2.1-0.4,2.5-0.6v-0.3c0-0.5-0.1-0.9-0.4-1.1c-0.2-0.2-0.7-0.3-1.4-0.3
		c-0.5,0-0.8,0.1-1.1,0.3S264.3,387.2,264.1,387.7z M267.6,389.8c-0.3,0.1-0.9,0.2-1.6,0.4c-0.7,0.2-1.2,0.3-1.4,0.5
		c-0.3,0.2-0.5,0.5-0.5,0.9c0,0.4,0.1,0.7,0.4,0.9c0.3,0.3,0.6,0.4,1,0.4c0.5,0,0.9-0.2,1.3-0.5c0.3-0.2,0.5-0.5,0.6-0.9
		c0.1-0.2,0.1-0.6,0.1-1.3V389.8z"/>
	<path class="st16" d="M275.3,384.7v9.5c0,1.3-0.1,2.1-0.2,2.7s-0.5,0.9-0.9,1.2s-1.1,0.4-1.8,0.4c-0.3,0-0.5,0-0.8-0.1
		c-0.3,0-0.6-0.1-1-0.2l0.5-2.2c0.1,0,0.2,0,0.3,0.1c0.1,0,0.2,0,0.3,0c0.3,0,0.5-0.1,0.7-0.2s0.3-0.3,0.3-0.4
		c0.1-0.2,0.1-0.6,0.1-1.4v-9.4H275.3z M272.7,383.3v-2.4h2.6v2.4H272.7z"/>
	<path class="st16" d="M280,387.7l-2.4-0.4c0.3-1,0.7-1.7,1.4-2.1s1.6-0.7,2.9-0.7c1.2,0,2,0.1,2.6,0.4s1,0.6,1.2,1
		c0.2,0.4,0.3,1.2,0.3,2.3l0,3c0,0.9,0,1.5,0.1,1.9c0.1,0.4,0.2,0.9,0.5,1.3H284c-0.1-0.2-0.2-0.4-0.3-0.8c0-0.2-0.1-0.3-0.1-0.3
		c-0.4,0.4-0.9,0.8-1.4,1c-0.5,0.2-1,0.3-1.6,0.3c-1,0-1.8-0.3-2.4-0.8c-0.6-0.5-0.9-1.2-0.9-2.1c0-0.6,0.1-1.1,0.4-1.5
		c0.3-0.4,0.6-0.8,1.1-1c0.5-0.2,1.2-0.4,2.1-0.6c1.2-0.2,2.1-0.4,2.5-0.6v-0.3c0-0.5-0.1-0.9-0.4-1.1c-0.2-0.2-0.7-0.3-1.4-0.3
		c-0.5,0-0.8,0.1-1.1,0.3S280.1,387.2,280,387.7z M283.5,389.8c-0.3,0.1-0.9,0.2-1.6,0.4c-0.7,0.2-1.2,0.3-1.4,0.5
		c-0.3,0.2-0.5,0.5-0.5,0.9c0,0.4,0.1,0.7,0.4,0.9c0.3,0.3,0.6,0.4,1,0.4c0.5,0,0.9-0.2,1.3-0.5c0.3-0.2,0.5-0.5,0.6-0.9
		c0.1-0.2,0.1-0.6,0.1-1.3V389.8z"/>
	<path class="st16" d="M287.7,391.7l2.6-0.4c0.1,0.5,0.3,0.9,0.7,1.2c0.3,0.3,0.8,0.4,1.4,0.4c0.7,0,1.2-0.1,1.5-0.4
		c0.2-0.2,0.3-0.4,0.3-0.7c0-0.2-0.1-0.4-0.2-0.5c-0.1-0.1-0.4-0.2-0.9-0.3c-2.1-0.5-3.4-0.9-4-1.3c-0.8-0.5-1.2-1.3-1.2-2.2
		c0-0.9,0.3-1.6,1-2.2s1.7-0.9,3.1-0.9c1.3,0,2.4,0.2,3,0.7c0.7,0.4,1.1,1.1,1.4,1.9l-2.5,0.5c-0.1-0.4-0.3-0.7-0.6-0.9
		c-0.3-0.2-0.7-0.3-1.3-0.3c-0.7,0-1.2,0.1-1.5,0.3c-0.2,0.1-0.3,0.3-0.3,0.5c0,0.2,0.1,0.3,0.3,0.5c0.2,0.2,1,0.4,2.4,0.7
		c1.4,0.3,2.4,0.7,2.9,1.2c0.5,0.5,0.8,1.1,0.8,1.9c0,0.9-0.4,1.7-1.1,2.3c-0.8,0.7-1.9,1-3.3,1c-1.3,0-2.4-0.3-3.2-0.8
		S287.9,392.6,287.7,391.7z"/>
</g>
</svg>
