<svg xmlns="http://www.w3.org/2000/svg" width="104" height="92" viewBox="0 0 104 92"><g transform="translate(-323 -6275.419)"><g transform="translate(323 6275.419)" fill="#039be5" stroke="#1565c0" stroke-width="2"><rect width="104" height="92" rx="5" stroke="none"/><rect x="1" y="1" width="102" height="90" rx="4" fill="none"/></g><g transform="translate(345.012 6296.34)"><path d="M96.285,30.521A23.643,23.643,0,1,1,72.643,6.879,23.642,23.642,0,0,1,96.285,30.521Zm0,0" transform="translate(-43.403 -6.093)" fill="#f0c48a"/><path d="M207.824,302.211h11.005v8.7H207.824Zm0,0" transform="translate(-184.088 -267.694)" fill="#fd919e"/><path d="M268.094,303.844H272.2v7.838h-4.108Zm0,0" transform="translate(-237.473 -269.14)" fill="#e8677d"/><path d="M165.727,378.363h20.621v4.972H165.727Zm0,0" transform="translate(-146.798 -335.148)" fill="#e8677d"/><path d="M59.734,39.711H9.131a3.268,3.268,0,0,1-3.268-3.269V9.131A3.268,3.268,0,0,1,9.131,5.863h50.6A3.268,3.268,0,0,1,63,9.131V36.442A3.268,3.268,0,0,1,59.734,39.711Zm0,0" transform="translate(-5.194 -5.194)" fill="#d3e6f8"/><path d="M467.657,42.4h-.583V8.9h.583a3.525,3.525,0,0,1,3.525,3.525v26.45A3.525,3.525,0,0,1,467.657,42.4Zm0,0" transform="translate(-413.727 -7.886)" fill="#a4cff2"/><path d="M39.23,43.727H88.747v25.2H39.23Zm0,0" transform="translate(-34.75 -38.732)" fill="#fff"/><path d="M433.965,45.148h4.108V70.184h-4.108Zm0,0" transform="translate(-384.4 -39.992)" fill="#d3e6f8"/><path d="M54.54,35.187H3.938A3.943,3.943,0,0,1,0,31.249V3.938A3.943,3.943,0,0,1,3.938,0h50.6a3.942,3.942,0,0,1,3.938,3.938V31.249A3.943,3.943,0,0,1,54.54,35.187ZM3.938,1.339a2.6,2.6,0,0,0-2.6,2.6V31.249a2.6,2.6,0,0,0,2.6,2.6h50.6a2.6,2.6,0,0,0,2.6-2.6V3.938a2.6,2.6,0,0,0-2.6-2.6Zm0,0" fill="#4c4372"/><path d="M83.554,64.4H34.037a.67.67,0,0,1-.67-.67v-25.2a.67.67,0,0,1,.67-.67H83.554a.67.67,0,0,1,.67.67v25.2A.67.67,0,0,1,83.554,64.4ZM34.707,63.062H82.884V39.2H34.707Zm0,0" transform="translate(-29.556 -33.539)" fill="#4c4372"/><path d="M213.635,306.385H202.63a.67.67,0,0,1-.669-.67v-8.7a.67.67,0,0,1,.669-.67h11.005a.67.67,0,0,1,.67.67v8.7A.67.67,0,0,1,213.635,306.385ZM203.3,305.045h9.666v-7.358H203.3Zm0,0" transform="translate(-178.894 -262.5)" fill="#4c4372"/><path d="M181.154,378.811H160.533a.67.67,0,0,1-.67-.67V373.17a.67.67,0,0,1,.67-.67h20.621a.67.67,0,0,1,.67.67v4.972A.67.67,0,0,1,181.154,378.811ZM161.2,377.472h19.282v-3.633H161.2Zm0,0" transform="translate(-141.604 -329.955)" fill="#4c4372"/><path d="M230.008,74.178a5.024,5.024,0,0,1,.8-2.8,2.47,2.47,0,0,1,4.354,0,5.4,5.4,0,0,1,0,5.609,2.47,2.47,0,0,1-4.354,0A5.052,5.052,0,0,1,230.008,74.178Zm4.635,0a3.892,3.892,0,0,0-.563-2.089,1.363,1.363,0,0,0-1.091-.716,1.412,1.412,0,0,0-1.115.716,3.892,3.892,0,0,0-.563,2.089,3.846,3.846,0,0,0,.563,2.077,1.43,1.43,0,0,0,1.115.728,1.381,1.381,0,0,0,1.091-.728A3.847,3.847,0,0,0,234.643,74.178Zm0,0" transform="translate(-203.737 -62.067)" fill="#4c4372"/><path d="M246.7,160.294v6.923a.654.654,0,0,1-.657.646.636.636,0,0,1-.646-.646v-5.773l-.469.269a.587.587,0,0,1-.329.094.657.657,0,0,1-.34-1.209l1.443-.857c.012-.012.035-.012.047-.024s.035-.023.059-.035.047-.012.07-.012a.071.071,0,0,1,.047-.012.2.2,0,0,1,.082-.012h.129a.07.07,0,0,0,.047.012.127.127,0,0,1,.07.023.069.069,0,0,1,.047.012c.035.023.047.035.07.035a.157.157,0,0,0,.047.035c.012.012.035.024.047.035s.035.035.047.047a.158.158,0,0,1,.035.047l.047.047.012.023c0,.012.012.024.012.035s.024.035.024.059.012.047.023.058a.5.5,0,0,0,.012.059.1.1,0,0,0,.024.082C246.7,160.27,246.7,160.282,246.7,160.294Zm0,0" transform="translate(-216.083 -141.414)" fill="#4c4372"/><path d="M148.58,70.719v6.923a.654.654,0,0,1-.657.646.636.636,0,0,1-.646-.646V71.87l-.469.27a.586.586,0,0,1-.328.094.658.658,0,0,1-.34-1.209l1.443-.857c.012-.012.035-.012.047-.024s.035-.023.059-.035.047-.012.07-.012a.071.071,0,0,1,.047-.012.2.2,0,0,1,.083-.012h.129a.071.071,0,0,0,.047.012.127.127,0,0,1,.07.023.069.069,0,0,1,.047.012c.035.023.047.035.071.035a.163.163,0,0,0,.047.035c.012.012.035.024.047.035s.035.035.047.047a.165.165,0,0,1,.035.047l.047.047.012.023c0,.012.012.024.012.035s.024.035.024.059.012.047.024.058a.506.506,0,0,0,.012.059.1.1,0,0,0,.023.082Zm0,0" transform="translate(-129.171 -62.071)" fill="#4c4372"/><path d="M344.819,70.719v6.923a.654.654,0,0,1-.657.646.636.636,0,0,1-.646-.646V71.87l-.469.27a.584.584,0,0,1-.328.094.658.658,0,0,1-.34-1.209l1.443-.857c.012-.012.035-.012.047-.024s.035-.023.058-.035.047-.012.07-.012a.071.071,0,0,1,.047-.012.2.2,0,0,1,.083-.012h.129a.071.071,0,0,0,.047.012.126.126,0,0,1,.07.023.07.07,0,0,1,.047.012c.035.023.047.035.071.035a.156.156,0,0,0,.047.035c.012.012.035.024.047.035s.035.035.047.047a.149.149,0,0,1,.035.047l.047.047.012.023c0,.012.012.024.012.035s.024.035.024.059.012.047.023.058a.489.489,0,0,0,.012.059.1.1,0,0,0,.024.082C344.819,70.7,344.819,70.708,344.819,70.719Zm0,0" transform="translate(-302.997 -62.071)" fill="#4c4372"/><path d="M131.887,163.755a5.025,5.025,0,0,1,.8-2.8,2.47,2.47,0,0,1,4.354,0,5.4,5.4,0,0,1,0,5.609,2.47,2.47,0,0,1-4.354,0A5.052,5.052,0,0,1,131.887,163.755Zm4.635,0a3.894,3.894,0,0,0-.563-2.088,1.363,1.363,0,0,0-1.091-.716,1.413,1.413,0,0,0-1.115.716,3.894,3.894,0,0,0-.563,2.088,3.85,3.85,0,0,0,.563,2.077,1.431,1.431,0,0,0,1.115.728,1.381,1.381,0,0,0,1.091-.728A3.851,3.851,0,0,0,136.522,163.755Zm0,0" transform="translate(-116.823 -141.414)" fill="#4c4372"/><path d="M328.125,163.755a5.025,5.025,0,0,1,.8-2.8,2.47,2.47,0,0,1,4.354,0,5.4,5.4,0,0,1,0,5.609,2.47,2.47,0,0,1-4.354,0A5.052,5.052,0,0,1,328.125,163.755Zm4.635,0a3.9,3.9,0,0,0-.563-2.088,1.363,1.363,0,0,0-1.091-.716,1.412,1.412,0,0,0-1.115.716,3.89,3.89,0,0,0-.564,2.088,3.847,3.847,0,0,0,.564,2.077,1.43,1.43,0,0,0,1.115.728,1.381,1.381,0,0,0,1.091-.728A3.852,3.852,0,0,0,332.761,163.755Zm0,0" transform="translate(-290.648 -141.414)" fill="#4c4372"/></g></g></svg>