<svg xmlns="http://www.w3.org/2000/svg" width="821.394" height="415.566" viewBox="0 0 821.394 415.566"><g transform="translate(-234.873 -310.248)"><path d="M799.716,1257.74s30.777,6.455,29.223,12.107-33.777-9.665-33.777-9.665S771.4,1281.43,768.1,1292.26c0,0,34.7-4.908,31.8.187s-38.767,11.881-38.767,11.881-16.311,25.12-2,36.167,25.3,7.332,27.975,3.719,13.057-29.616,16.138-27.553,1.219,21.757-5.84,30.245c0,0,30.989.245,35.49-14.419s-2.423-22.649.523-31.661,7.942-14.42,8.484-9.079-7.162,19.465-4.088,29,4.4,16.78,12.518,4.793,16.176-36.2,8.047-45.073l-1.017-1.11a5.76,5.76,0,0,1,1.017,1.11c2.411-1.833,10.635-2.672,16.835-3.049,1.026.005,2.476-.059,4.474-.218h0c.887-.033,1.61-.053,2.114-.065,13.467.169,32.405,10.881,32.405,10.881l1.911-2.487c-17.539-14.532-38.564-10.5-38.564-10.5-16.022,1.626-27.3-3.441-27.3-3.441s-3.67-31.037-27.687-27.213C822.567,1244.381,806.914,1248.916,799.716,1257.74Z" transform="translate(-351.194 -632.641)" fill="#d2e3fc"/><path d="M1731.179,428.98c-8.2-30.274-59.286-20.813-59.286-20.813s-34.688,52.979-44.78,54.24,20.813-51.087,20.813-51.087c-19.551-1.892-69.377,22.074-69.377,22.074s3.153,61.809-6.938,60.547,0-54.871,0-54.871c-18.921,5.676-36.581,27.751-36.581,27.751-22.074,35.95,25.228,62.439,25.228,62.439s.631,21.443-12.613,46.041h0a72.981,72.981,0,0,0-6.028,12.261h5.159q.632-2.076,1.4-4a.031.031,0,0,1,.01-.023l.023-.055c.354-.8.861-1.931,1.494-3.313l0-.005s0,0,0-.006c1.576-3.085,2.641-5.364,3.314-7.01a.093.093,0,0,0,0-.016c4.722-9.684,11.525-22.3,16.062-24.949a9.992,9.992,0,0,1-1.1-2.366l1.1,2.366c8.83,18.921,52.979,22.074,77.576,17.029s13.875-11.983.63-23.243-41-8.292-49.195-12.706,3.784-8.83,20.183-7.568,24.6,17.66,51.087,20.182,46.672-47.3,46.672-47.3c-18.291,5.676-51.087-4.415-52.348-10.722s47.3-5.676,54.871-7.568S1739.379,459.254,1731.179,428.98Z" transform="translate(-876.863 -65.391)" fill="#dfebfd"/><path d="M622.99,464.588c11.293-18.076,42.658-1.865,42.658-1.865s12.131,41.288,18.446,44.095-3.479-37.325-3.479-37.325c13.089,2.619,40.777,28.017,40.777,28.017s-14.22,39.58-7.409,40.746,10.8-35.688,10.8-35.688c11.189,7.417,18.328,25.252,18.328,25.252,7.279,27.728-28.7,35.644-28.7,35.644s-4.632,13.823-.861,32.429h0a49.6,49.6,0,0,1,1.506,9.161l-3.355-1.016c0-.983-.041-1.944-.122-2.88a.021.021,0,0,0,0-.017c0-.014,0-.027,0-.041-.073-.588-.18-1.426-.319-2.449v0s0,0,0,0c-.417-2.317-.661-4.009-.775-5.211a.042.042,0,0,1,0-.011c-1.165-7.229-3.1-16.775-5.535-19.39a6.8,6.8,0,0,0,1.184-1.321l-1.184,1.321c-9.468,10.568-38.8,3.926-53.809-4.2s-6.665-10.526,4.166-15.242,28.3,2.679,34.5,1.422-.723-6.488-11.637-8.9-19.475,6.643-37.2,3.068-21.042-39.955-21.042-39.955c10.779,7.293,34.1,7.187,36.159,3.333s-29.648-13.005-34.2-15.726S611.7,482.664,622.99,464.588Z" transform="translate(-258.465 -98.772)" fill="#d2e3fc"/><path d="M1274.127,462.425c-7.9-13.165-30.7-1.888-30.7-1.888s-9.265,29.585-13.85,31.527,2.982-26.842,2.982-26.842c-9.462,1.719-29.73,19.66-29.73,19.66s9.738,28.692,4.816,29.445-7.326-25.845-7.326-25.845c-8.154,5.2-13.525,17.955-13.525,17.955-5.6,19.88,20.22,26.041,20.22,26.041s3.16,10.016.206,23.37h0a35.738,35.738,0,0,0-1.2,6.58l2.43-.689c.014-.708.054-1.4.125-2.073a.015.015,0,0,1,0-.012l0-.029c.06-.423.148-1.025.261-1.76v0s0,0,0,0c.33-1.664.527-2.879.625-3.744a.018.018,0,0,0,0-.008c.931-5.192,2.451-12.044,4.234-13.9a4.9,4.9,0,0,1-.836-.967l.836.967c6.685,7.733,27.9,3.323,38.814-2.337s4.935-7.5-2.807-11.032-20.417,1.568-24.868.583.6-4.664,8.5-6.26,13.944,5.034,26.758,2.685,15.667-28.512,15.667-28.512c-7.857,5.116-24.652,4.742-26.089,1.939s21.522-8.989,24.835-10.891S1282.032,475.589,1274.127,462.425Z" transform="translate(-644.373 -98.772)" fill="#dfebfd"/><path d="M263.73,1554.776c-.252.071-.576.142-.981.213C263.076,1554.911,263.4,1554.84,263.73,1554.776Z" transform="translate(-18.886 -843.15)" fill="#95c38b"/><g transform="translate(398.666 428.734)"><g transform="translate(0)"><path d="M1232.161,985.165l-15.512,184.444s-1.625,11.181,6.691,11.2c13.674.033,68.06,0,68.06,0s-10.292-2.328-10.167-7.564c.147-6.173,18.131-189.825,18.131-189.825Z" transform="translate(-1063.719 -884.798)" fill="#d86713"/><path d="M1305.2,1170.433c-2.689.008-54.635.171-67.951,0-5.8-.072-6.821-5.16-6.869-8.453a16.492,16.492,0,0,1,.177-2.746l.4-4.794,1.028-12.219.908-10.795,1.167-13.872.983-11.708,11.022-131.06,67.2-1.744s-7.574,76.858-12.931,132.8c-.6,6.233-1.167,12.211-1.693,17.79q-.256,2.672-.494,5.219c-.5,5.293-.951,10.154-1.346,14.446-.208,2.262-.4,4.364-.574,6.29-.684,7.545-1.084,12.363-1.09,13.279a7.746,7.746,0,0,0,.131,1.493C1296.379,1170.24,1304.193,1170.433,1305.2,1170.433Z" transform="translate(-1073.109 -877.768)" fill="#f99746"/><path d="M758.975,677.629,796.759,829.4l5.173,20.786,17.6,70.692h326.95l-64.865-243.252Z" transform="translate(-753.737 -677.629)" fill="#f99746"/><path d="M747.973,677.629l-5.237,1.745,58.832,246.787,6.962-5.28Z" transform="translate(-742.736 -677.629)" fill="#f99746"/><path d="M925.153,1437.149H1250.09l8.973-5.28H932.115Z" transform="translate(-866.321 -1188.616)" fill="#d86713"/><rect width="70.354" height="3.343" transform="translate(243.294 296.082) rotate(180)" fill="#f1a34f"/><path d="M1130.642,876.058,1077.59,680.845H759.775l-.8-3.216h322.641l52.875,198Z" transform="translate(-753.737 -677.629)" fill="#f1a34f"/><path d="M1301.9,1448.235l-.363,2.556-66.164,13.367.908-10.795.433-5.128Z" transform="translate(-1076.49 -1199.704)" fill="#d86713"/><path d="M1305.207,1541.3c-2.689.008-54.635.171-67.951,0-5.8-.072-6.821-5.16-6.869-8.453l65.852-12.389c-.684,7.545-1.084,12.363-1.09,13.279a7.756,7.756,0,0,0,.131,1.493C1296.383,1541.1,1304.2,1541.3,1305.207,1541.3Z" transform="translate(-1073.113 -1248.63)" fill="#d86713" opacity="0.4"/><path d="M1053.4,1234.125l-143.623,49.244-17.6-70.693Z" transform="translate(-843.977 -1040.116)" fill="#ed7d2b"/><path d="M758.973,677.629h322.642l52.349,195.5H807.642Z" transform="translate(-753.736 -677.629)" fill="#699dee"/></g><ellipse cx="7.878" cy="9.566" rx="7.878" ry="9.566" transform="translate(216.877 219.618) rotate(-47.777)" fill="#d86713"/><path d="M1146.822,886.653H844.732L810.52,750.367,807.9,739.916,805.66,731l-5.247-20.9H1098.15l5.762,20.9,2.458,8.914,2.881,10.451Z" transform="translate(-781.812 -699.627)" fill="#e4edf9"/><path d="M1103.911,731H805.66l-5.247-20.9H1098.15Z" transform="translate(-781.812 -699.627)" fill="#afcdfb"/><g transform="translate(30.838 17.305)"><path d="M838.434,733.9a1.974,1.974,0,0,1,1.961-2.613,3.57,3.57,0,0,1,3.265,2.613,1.974,1.974,0,0,1-1.962,2.613A3.569,3.569,0,0,1,838.434,733.9Z" transform="translate(-838.353 -731.287)" fill="#e9f3fe"/><path d="M865.354,733.9a1.974,1.974,0,0,1,1.961-2.613,3.57,3.57,0,0,1,3.265,2.613,1.974,1.974,0,0,1-1.961,2.613A3.569,3.569,0,0,1,865.354,733.9Z" transform="translate(-856.592 -731.287)" fill="#e9f3fe"/><path d="M894.343,733.9a1.974,1.974,0,0,1,1.962-2.613,3.57,3.57,0,0,1,3.264,2.613,1.974,1.974,0,0,1-1.961,2.613A3.569,3.569,0,0,1,894.343,733.9Z" transform="translate(-876.231 -731.287)" fill="#e9f3fe"/></g><path d="M1126.576,939.323H902.809L868.755,805.687h220.611Z" transform="translate(-828.112 -764.387)" fill="#cae0ff"/><path d="M1631.876,836.782h-50.717l-9.273-31.094h51.332Z" transform="translate(-1304.474 -764.387)" fill="#d2e3fc"/><path d="M1270.183,836.643h-29.017l-1.194-4.474h29.018Z" transform="translate(-1079.606 -782.328)" fill="#1c468a"/><path d="M1390.941,836.643h-47.472l-1.194-4.474h47.472Z" transform="translate(-1148.915 -782.328)" fill="#78acea"/><path d="M1238.157,874.019H1186.7l-1.194-4.474h51.462Z" transform="translate(-1042.703 -807.65)" fill="#78acea"/><path d="M1387.29,874.019h-26.674l-1.194-4.474H1386.1Z" transform="translate(-1160.532 -807.65)" fill="#f1a34f"/><path d="M1297.334,938.368h-29.018l-1.194-4.474h29.018Z" transform="translate(-1098 -851.245)" fill="#699dee"/><path d="M1418.092,938.368H1370.62l-1.194-4.474H1416.9Z" transform="translate(-1167.31 -851.245)" fill="#78acea"/><path d="M1265.309,975.745h-51.462l-1.194-4.474h51.462Z" transform="translate(-1061.098 -876.567)" fill="#fff"/><path d="M1414.441,975.745h-26.674l-1.194-4.474h26.674Z" transform="translate(-1178.927 -876.567)" fill="#fff"/><path d="M1070.565,1033.6H972.389l-1.194-4.474h98.175Z" transform="translate(-897.514 -915.762)" fill="#1c468a"/><path d="M1325.272,1033.6h-29.018l-1.194-4.474h29.018Z" transform="translate(-1116.928 -915.762)" fill="#699dee"/><path d="M1446.03,1033.6h-47.472l-1.194-4.474h47.472Z" transform="translate(-1186.237 -915.762)" fill="#78acea"/><path d="M1011.383,1070.974H982.365l-1.194-4.474h29.018Z" transform="translate(-904.272 -941.084)" fill="#fff"/><path d="M1293.247,1070.974h-51.462l-1.194-4.474h51.462Z" transform="translate(-1080.026 -941.084)" fill="#f1a34f"/><path d="M1132.141,1070.974h-47.472l-1.194-4.474h47.472Z" transform="translate(-973.582 -941.084)" fill="#78acea"/><path d="M1442.379,1070.974h-26.674l-1.194-4.474h26.674Z" transform="translate(-1197.854 -941.084)" fill="#78acea"/><path d="M1105.123,1136.782h-98.175l-1.194-4.474h98.176Z" transform="translate(-920.926 -985.668)" fill="#1c468a"/><path d="M1359.83,1136.782h-29.018l-1.194-4.474h29.018Z" transform="translate(-1140.341 -985.668)" fill="#699dee"/><path d="M1045.941,1174.159h-29.018l-1.194-4.474h29.018Z" transform="translate(-927.685 -1010.99)" fill="#fff"/><path d="M1327.805,1174.159h-51.462l-1.194-4.474h51.462Z" transform="translate(-1103.439 -1010.99)" fill="#f1a34f"/><path d="M1166.7,1174.159h-47.472l-1.194-4.474h47.472Z" transform="translate(-996.995 -1010.99)" fill="#78acea"/><path d="M1476.938,1174.159h-26.674l-1.194-4.474h26.674Z" transform="translate(-1221.267 -1010.99)" fill="#78acea"/><g transform="translate(279.34 79.899)"><path d="M1631.681,927.669l-22.319.069-.494-2.027,22.319-.069Z" transform="translate(-1608.868 -925.553)" fill="#78acea"/><path d="M1697.433,927.556l-8.392.026-.494-2.027,8.392-.026Z" transform="translate(-1662.849 -925.477)" fill="#78acea"/><path d="M1736.649,927.394l-14.833.046-.494-2.027,14.833-.046Z" transform="translate(-1685.054 -925.367)" fill="#78acea"/><path d="M1625.472,943.657l-12.236.038-.494-2.027,12.236-.038Z" transform="translate(-1611.493 -936.385)" fill="#78acea"/><path d="M1673.3,943.487l-15.8.049-.494-2.027,15.8-.049Z" transform="translate(-1641.481 -936.269)" fill="#78acea"/><path d="M1733.639,943.286l-18.109.056-.494-2.027,18.11-.056Z" transform="translate(-1680.795 -936.133)" fill="#78acea"/></g><g transform="translate(282.009 90.85)"><path d="M1639.958,961.623l-22.319.069-.494-2.027,22.319-.069Z" transform="translate(-1617.144 -959.508)" fill="#78acea"/><path d="M1705.71,961.51l-8.393.026-.494-2.027,8.392-.026Z" transform="translate(-1671.126 -959.431)" fill="#78acea"/><path d="M1744.926,961.348l-14.832.046-.494-2.027,14.833-.046Z" transform="translate(-1693.331 -959.321)" fill="#78acea"/><path d="M1633.749,977.611l-12.236.038-.494-2.027,12.236-.038Z" transform="translate(-1619.769 -970.339)" fill="#78acea"/><path d="M1681.577,977.441l-15.8.049-.494-2.027,15.8-.049Z" transform="translate(-1649.756 -970.224)" fill="#78acea"/><path d="M1741.916,977.24l-18.109.056-.494-2.027,18.109-.056Z" transform="translate(-1689.072 -970.088)" fill="#78acea"/></g><g transform="translate(273.581 44.343)"><path d="M1604.751,816.507l-13.44.041-.3-1.221,13.44-.041Z" transform="translate(-1591.014 -815.233)" fill="#fff"/><path d="M1644.346,816.439l-5.054.016-.3-1.221,5.054-.016Z" transform="translate(-1623.52 -815.187)" fill="#fff"/><path d="M1667.962,816.341l-8.932.028-.3-1.221,8.932-.028Z" transform="translate(-1636.892 -815.121)" fill="#fff"/><path d="M1601.012,826.135l-7.368.023-.3-1.221,7.369-.023Z" transform="translate(-1592.594 -821.756)" fill="#fff"/><path d="M1629.814,826.032l-9.516.029-.3-1.221,9.516-.029Z" transform="translate(-1610.652 -821.686)" fill="#fff"/><path d="M1666.15,825.911l-10.906.034-.3-1.221,10.906-.034Z" transform="translate(-1634.327 -821.604)" fill="#fff"/></g><g transform="translate(275.189 50.938)"><path d="M1609.735,836.954l-13.441.042-.3-1.221,13.44-.042Z" transform="translate(-1595.997 -835.68)" fill="#fff"/><path d="M1649.33,836.886l-5.054.016-.3-1.221,5.054-.016Z" transform="translate(-1628.504 -835.634)" fill="#fff"/><path d="M1672.946,836.788l-8.932.028-.3-1.221,8.932-.028Z" transform="translate(-1641.876 -835.568)" fill="#fff"/><path d="M1606,846.582l-7.369.023-.3-1.221,7.369-.023Z" transform="translate(-1597.578 -842.203)" fill="#fff"/><path d="M1634.8,846.479l-9.516.029-.3-1.221,9.516-.029Z" transform="translate(-1615.636 -842.133)" fill="#fff"/><path d="M1671.133,846.358l-10.905.034-.3-1.221,10.905-.034Z" transform="translate(-1639.311 -842.051)" fill="#fff"/></g><g transform="translate(286.57 109.56)"><path d="M1654.1,1019.638l-22.319.069-.494-2.027,22.319-.069Z" transform="translate(-1631.285 -1017.522)" fill="#78acea"/><path d="M1719.85,1019.526l-8.392.026-.494-2.027,8.393-.026Z" transform="translate(-1685.266 -1017.446)" fill="#78acea"/><path d="M1759.067,1019.363l-14.833.046-.494-2.027,14.832-.046Z" transform="translate(-1707.472 -1017.336)" fill="#78acea"/><path d="M1647.889,1035.627l-12.236.038-.494-2.027,12.236-.038Z" transform="translate(-1633.91 -1028.354)" fill="#78acea"/><path d="M1695.719,1035.456l-15.8.049-.494-2.027,15.8-.049Z" transform="translate(-1663.898 -1028.239)" fill="#78acea"/><path d="M1756.057,1035.255l-18.11.056-.494-2.027,18.11-.056Z" transform="translate(-1703.212 -1028.103)" fill="#78acea"/></g><g transform="translate(291.04 127.899)"><path d="M1667.958,1076.5l-22.319.069-.494-2.027,22.319-.069Z" transform="translate(-1645.145 -1074.384)" fill="#78acea"/><path d="M1733.71,1076.386l-8.393.026-.494-2.027,8.392-.026Z" transform="translate(-1699.127 -1074.307)" fill="#78acea"/><path d="M1772.927,1076.224l-14.833.046-.494-2.027,14.833-.046Z" transform="translate(-1721.331 -1074.197)" fill="#78acea"/><path d="M1661.749,1092.488l-12.236.037-.494-2.027,12.236-.037Z" transform="translate(-1647.77 -1085.216)" fill="#78acea"/><path d="M1709.579,1092.317l-15.8.049-.494-2.027,15.8-.049Z" transform="translate(-1677.758 -1085.1)" fill="#78acea"/><path d="M1769.916,1092.116l-18.109.056-.494-2.027,18.11-.056Z" transform="translate(-1717.072 -1084.964)" fill="#78acea"/></g><g transform="translate(295.067 144.421)"><path d="M1680.446,1127.728l-22.319.069-.494-2.027,22.319-.069Z" transform="translate(-1657.633 -1125.612)" fill="#78acea"/><path d="M1746.2,1127.616l-8.393.026-.494-2.027,8.393-.026Z" transform="translate(-1711.613 -1125.536)" fill="#78acea"/><path d="M1785.414,1127.453l-14.833.046-.494-2.027,14.833-.046Z" transform="translate(-1733.819 -1125.426)" fill="#78acea"/><path d="M1674.236,1143.716l-12.236.038-.494-2.027,12.236-.038Z" transform="translate(-1660.257 -1136.444)" fill="#78acea"/><path d="M1722.066,1143.546l-15.8.049-.494-2.027,15.8-.049Z" transform="translate(-1690.245 -1136.328)" fill="#78acea"/><path d="M1782.4,1143.344l-18.109.056-.494-2.027,18.11-.056Z" transform="translate(-1729.559 -1136.192)" fill="#78acea"/></g><g transform="translate(319.719 158.101)"><path d="M1742.746,1180.854a9.4,9.4,0,0,1-8.4-6.5c-1.047-3.587,1.019-6.5,4.606-6.5a9.4,9.4,0,0,1,8.4,6.5C1748.4,1177.935,1746.333,1180.854,1742.746,1180.854Zm-3.451-11.822c-2.932,0-4.621,2.385-3.765,5.317a7.679,7.679,0,0,0,6.869,5.317c2.931,0,4.62-2.385,3.764-5.317A7.679,7.679,0,0,0,1739.3,1169.031Z" transform="translate(-1734.07 -1167.844)" fill="#a8d29f"/><g transform="translate(2.717 3.819)"><path d="M1747.389,1185.68a1.354,1.354,0,0,1-.73-.3l-3.65-2.923a1.069,1.069,0,0,1-.378-1.4,1,1,0,0,1,1.409.031l2.578,2.065,1.323-3.057c.191-.443.781-.541,1.318-.221a1.2,1.2,0,0,1,.624,1.383l-1.738,4.017a.694.694,0,0,1-.616.407A1.093,1.093,0,0,1,1747.389,1185.68Z" transform="translate(-1742.493 -1179.686)" fill="#a8d29f"/></g><g transform="translate(17.957)"><path d="M1798.424,1180.854a9.4,9.4,0,0,1-8.4-6.5c-1.047-3.587,1.019-6.5,4.606-6.5a9.4,9.4,0,0,1,8.4,6.5C1804.077,1177.935,1802.011,1180.854,1798.424,1180.854Zm-3.451-11.822c-2.932,0-4.621,2.385-3.765,5.317a7.68,7.68,0,0,0,6.869,5.317c2.932,0,4.621-2.385,3.765-5.317A7.68,7.68,0,0,0,1794.973,1169.031Z" transform="translate(-1789.748 -1167.844)" fill="#f1a34f"/><g transform="translate(5.054 2.966)"><path d="M1807.453,1181.642h0a1.333,1.333,0,0,1-1.189-.92l-.807-2.763a.668.668,0,0,1,.651-.92h0a1.332,1.332,0,0,1,1.188.92l.807,2.763A.668.668,0,0,1,1807.453,1181.642Z" transform="translate(-1805.419 -1177.039)" fill="#f1a34f"/><path d="M1811.28,1194.59h-.2a1.187,1.187,0,0,1-1.06-.82h0a.6.6,0,0,1,.581-.821h.2a1.187,1.187,0,0,1,1.06.821h0A.6.6,0,0,1,1811.28,1194.59Z" transform="translate(-1808.514 -1187.818)" fill="#f1a34f"/></g></g></g><g transform="translate(282.854 62.267)"><g transform="translate(20.775)"><path d="M1688.937,877.83a5.151,5.151,0,0,1-4.607-3.567,2.584,2.584,0,0,1,2.525-3.566,5.151,5.151,0,0,1,4.607,3.566A2.585,2.585,0,0,1,1688.937,877.83Zm-1.892-6.482a2.112,2.112,0,0,0-2.064,2.915,4.21,4.21,0,0,0,3.766,2.915,2.112,2.112,0,0,0,2.064-2.915A4.21,4.21,0,0,0,1687.045,871.348Z" transform="translate(-1684.18 -870.697)" fill="#a8d29f"/><g transform="translate(1.489 2.094)"><path d="M1691.481,880.477a.74.74,0,0,1-.4-.166l-2-1.6a.586.586,0,0,1-.207-.767.547.547,0,0,1,.772.017l1.414,1.132.725-1.676c.1-.243.429-.3.722-.121a.659.659,0,0,1,.342.758l-.953,2.2a.38.38,0,0,1-.337.223A.569.569,0,0,1,1691.481,880.477Z" transform="translate(-1688.798 -877.19)" fill="#a8d29f"/></g></g><g transform="translate(10.57)"><path d="M1657.3,877.83a5.151,5.151,0,0,1-4.607-3.567,2.584,2.584,0,0,1,2.525-3.566,5.151,5.151,0,0,1,4.608,3.566A2.585,2.585,0,0,1,1657.3,877.83Zm-1.892-6.482a2.112,2.112,0,0,0-2.064,2.915,4.21,4.21,0,0,0,3.766,2.915,2.112,2.112,0,0,0,2.064-2.915A4.211,4.211,0,0,0,1655.4,871.348Z" transform="translate(-1652.539 -870.697)" fill="#a8d29f"/><g transform="translate(1.489 2.094)"><path d="M1659.841,880.477a.741.741,0,0,1-.4-.166l-2-1.6a.585.585,0,0,1-.207-.767.546.546,0,0,1,.772.017l1.414,1.132.724-1.676c.105-.243.429-.3.723-.121a.66.66,0,0,1,.343.758l-.953,2.2a.381.381,0,0,1-.338.223A.565.565,0,0,1,1659.841,880.477Z" transform="translate(-1657.157 -877.19)" fill="#a8d29f"/></g></g><path d="M1624.522,877.83a5.151,5.151,0,0,1-4.608-3.567,2.584,2.584,0,0,1,2.525-3.566,5.152,5.152,0,0,1,4.607,3.566A2.585,2.585,0,0,1,1624.522,877.83Zm-1.892-6.482a2.112,2.112,0,0,0-2.064,2.915,4.21,4.21,0,0,0,3.766,2.915,2.112,2.112,0,0,0,2.064-2.915A4.21,4.21,0,0,0,1622.629,871.348Z" transform="translate(-1619.765 -870.697)" fill="#a8d29f"/><g transform="translate(1.489 2.094)"><path d="M1627.067,880.477a.741.741,0,0,1-.4-.166l-2-1.6a.586.586,0,0,1-.207-.767.547.547,0,0,1,.772.017l1.414,1.132.725-1.676c.1-.243.428-.3.722-.121a.659.659,0,0,1,.342.758l-.953,2.2a.38.38,0,0,1-.337.223A.565.565,0,0,1,1627.067,880.477Z" transform="translate(-1624.383 -877.19)" fill="#a8d29f"/></g><g transform="translate(30.62)"><path d="M1719.463,877.83a5.152,5.152,0,0,1-4.607-3.567,2.584,2.584,0,0,1,2.525-3.566,5.151,5.151,0,0,1,4.607,3.566A2.585,2.585,0,0,1,1719.463,877.83Zm-1.892-6.482a2.112,2.112,0,0,0-2.064,2.915,4.21,4.21,0,0,0,3.766,2.915,2.112,2.112,0,0,0,2.064-2.915A4.21,4.21,0,0,0,1717.571,871.348Z" transform="translate(-1714.706 -870.697)" fill="#f1a34f"/><g transform="translate(2.771 1.626)"><path d="M1724.414,878.263h0a.731.731,0,0,1-.652-.5l-.442-1.515a.366.366,0,0,1,.357-.5h0a.729.729,0,0,1,.651.5l.443,1.515A.366.366,0,0,1,1724.414,878.263Z" transform="translate(-1723.298 -875.739)" fill="#f1a34f"/><path d="M1726.511,885.362h-.109a.652.652,0,0,1-.581-.45h0a.327.327,0,0,1,.319-.45h.109a.651.651,0,0,1,.581.45h0A.326.326,0,0,1,1726.511,885.362Z" transform="translate(-1724.995 -881.649)" fill="#f1a34f"/></g></g></g></g><g transform="translate(294.904 507.071)"><g transform="translate(32.043 37.163)"><path d="M658.686,1199.137s5.376,1.381,8.794.351,9.3.661,10.247,1.907.6,1.741-1.091,2.171-7.678,2.985-11.614,1.506a31.358,31.358,0,0,0-9.069-1.532Z" transform="translate(-612.222 -1146.443)" fill="#e49963"/><path d="M520.36,1041.745s6.039,42.924,16.04,46.769c4.934,1.9,26.743,6.2,33.193,6.629,0,0,1.58-1.282,1.2-6.5,0,0-22.848-8.388-26.094-12.95-4.831-6.789,3-27.736-3.063-34.112S525.361,1032.464,520.36,1041.745Z" transform="translate(-520.36 -1035.752)" fill="#4a75cb"/></g><rect width="8.352" height="73.095" rx="4.176" transform="translate(41.167 213.345) rotate(180)" fill="#2b478b"/><path d="M455.785,1576.42c2.7-5.592,13.215-9.762,25.774-9.762s23.072,4.17,25.774,9.762Z" transform="translate(-444.568 -1358.271)" fill="#2b478b"/><path d="M1.472,0H37.794a1.473,1.473,0,0,1,1.473,1.473v0a1.473,1.473,0,0,1-1.473,1.473H1.473A1.473,1.473,0,0,1,0,1.473v0A1.472,1.472,0,0,1,1.472,0Z" transform="translate(56.624 199.188) rotate(180)" fill="#2b478b"/><path d="M510.473,1281.79a75.278,75.278,0,0,0,5.9,8.441c6.491,8.194,13.557,14.951,14.788,21.337a28.976,28.976,0,0,0,1.141,4.088c.514,1.463,1.149,3,1.883,4.592a141.44,141.44,0,0,0,10.986,18.782c7.11,10.535,13.8,19.326,13.8,19.326l12.26-.522c-.491-1.229-5.838-15.775-12.992-33.552-2.9-7.216-5.994-14.892-8.974-22.295q-.6-1.483-1.187-2.949c-.911-2.265-1.808-4.5-2.683-6.667-6.717-16.692-12.067-29.983-12.067-29.983s-26.846-10.17-29.634-3.58C501.391,1264.242,503.263,1269.565,510.473,1281.79Z" transform="translate(-476.395 -1148.202)" fill="#163560"/><path d="M678.219,1558.386s.627,10.117,2.584,10.262c.261.02,9.928.02,9.928.02l12.341-.072s-.081-2.974-3.688-3.6-9.645-3.164-11.831-7.931C685.255,1552.046,678.219,1558.386,678.219,1558.386Z" transform="translate(-595.264 -1350.461)" fill="#163560"/><path d="M573.9,1475.6s-8.528,5.48-7.7,7.259c.11.237,4.823,8.678,4.823,8.678l6.078,10.74s2.557-1.52,1.347-4.976-1.939-9.964,1.158-14.2C582.861,1478.658,573.9,1475.6,573.9,1475.6Z" transform="translate(-519.332 -1296.583)" fill="#163560"/><path d="M542.86,1260.543s33.227,20.689,36.988,34.794-44.825,44.2-44.825,44.2-5.329-4.7-6.269-8.15c0,0,21.962-26.312,26.726-32.21,2.926-3.622-43.26-12.54-48.9-21.316s-3.622-16.162-3.622-16.162Z" transform="translate(-476.287 -1150.882)" fill="#1c468a"/><rect width="73.981" height="18.809" rx="7.776" transform="translate(73.981 155.122) rotate(180)" fill="#ee9849"/><path d="M543.366,995.188a19.021,19.021,0,0,1,5.133,4.652c-8.073,2.088-21.456-5.392-21.456-5.392a19.8,19.8,0,0,0,7.121-11.163q.147-.58.264-1.19a24.235,24.235,0,0,0,.437-4.2l3.708,3.322,6.166,5.525a53,53,0,0,1-.911,6.236Q543.629,994.008,543.366,995.188Z" transform="translate(-492.845 -959.391)" fill="#e49963"/><path d="M500.085,1061.366c1.156,15.553-.365,39.206.947,43.3,1.132,3.534,14.031,1.433,19.18.253,1.906-.436,4.214-1.06,6.6-1.8,6.65-2.059,13.9-5,14.673-7.182a1.838,1.838,0,0,0,.072-.251,2,2,0,0,0-.014-.915c-.259-1.112-1.258-2.316-1.376-5.071-.132-3.076-.112-6.7-.227-10.593-.006-.438-.012-.917-.06-1.354l0-.16c0-.083,0-.165-.006-.249-.112-4.344-.339-8.91-.6-13.439-.168-2.844-.361-5.661-.584-8.36a111.768,111.768,0,0,0-2.4-17.079,27.425,27.425,0,0,0-8.811-13.6l-2.454-2.1a14.19,14.19,0,0,1-8.9-1.186c-3.169-1.505-4.264-2.584-4.816-2.177C503.984,1025.049,498.719,1042.354,500.085,1061.366Z" transform="translate(-474.434 -987.454)" fill="#739af0"/><path d="M557.98,1201.1c6.65-2.059,13.9-5,14.673-7.182a1.851,1.851,0,0,0,.072-.251c0-.3-.008-.61-.014-.915-.259-1.112-1.258-2.316-1.375-5.071-.132-3.076-.112-6.7-.227-10.593-.006-.439-.012-.917-.06-1.354l0-.16c0-.083,0-.165-.006-.249l-25.118-11.392S544.475,1184.18,557.98,1201.1Z" transform="translate(-505.604 -1085.431)" fill="#4a75cb"/><path d="M558.92,993.719a53.031,53.031,0,0,1-.911,6.235c-6.022-1.946-8.753-7.384-9.665-9.691-.259-.652-.372-1.055-.372-1.055l.636-.135,4.146-.879Z" transform="translate(-507.024 -966.369)" fill="#d68d5d"/><path d="M558.149,958.934s-13.229,1.492-14.031-6.761-3.05-13.618,5.362-14.92,10.362,1.687,11.3,4.377S561.57,958.333,558.149,958.934Z" transform="translate(-503.815 -931.645)" fill="#e49963"/><path d="M536.882,941.622s.839-10.954,12.881-12.089c8.248-.777,3.65-7.876,2.77-9.008,0,0-6.319.866-12.8,1.937C526.141,924.707,535.547,939.916,536.882,941.622Z" transform="translate(-496.523 -920.524)" fill="#2b478b"/><g transform="translate(72.104 70.291)"><rect width="1.218" height="31.882" transform="translate(33.451 30.699) rotate(-162.008)" fill="#4a75cb"/><rect width="33.457" height="2.001" transform="translate(33.449 30.699) rotate(-178.777)" fill="#4a75cb"/></g><g transform="translate(34.708 39.918)"><path d="M649.123,1219.6s5.191,1.965,8.7,1.319,9.17,1.682,9.974,3.025.4,1.8-1.324,2.038-7.961,2.12-11.709.217a31.354,31.354,0,0,0-8.845-2.523Z" transform="translate(-608.09 -1163.061)" fill="#e49963"/><path d="M528.624,1049.295s1.27,43.329,10.786,48.252c4.7,2.429,25.9,9.108,32.26,10.248,0,0,1.712-1.1,1.9-6.329,0,0-21.784-10.856-24.507-15.748-4.053-7.281,6.038-27.236.717-34.242S534.617,1040.622,528.624,1049.295Z" transform="translate(-528.624 -1044.297)" fill="#739af0"/></g></g><g transform="translate(643.95 516.376)"><path d="M1649.545,1577.437a23.529,23.529,0,0,1,1.611-6.034c1.125-2.25,8.285-.818,8.285-.818s1.432,1.227,1.739,6.955Z" transform="translate(-1602.37 -1369.931)" fill="#233862"/><path d="M1526.056,1567.479c1.683-1.027.725-8.687.725-8.687s-7.839-6.271-8.917-1.47-7.447,6.957-11.072,7.545c-2.5.406-3.278,1.792-3.518,2.612Z" transform="translate(-1503.274 -1360.025)" fill="#233862"/><path d="M1568.158,1297.049a36.139,36.139,0,0,0-.575,4.235c-.729,14.214-11.965,46.714-13.975,47.471-3.11,1.174-8.007-1.321-10.569-2.137a2.2,2.2,0,0,1-1.542-2.5c5.564-25.58,7.609-62.416,8.353-84.224a98.944,98.944,0,0,1,2.261-18.573s27.4-7.312,27.567,1.938C1579.823,1251.448,1570.6,1283.547,1568.158,1297.049Z" transform="translate(-1529.139 -1145.308)" fill="#213f7a"/><path d="M1585.8,1297.049l-18.307-37.151a98.944,98.944,0,0,1,2.261-18.573s27.4-7.312,27.567,1.938C1597.466,1251.448,1588.244,1283.547,1585.8,1297.049Z" transform="translate(-1546.781 -1145.308)" fill="#233862"/><path d="M1605.352,1246.18l14.487,105s6.362,1.534,11.31.307c0,0,4.241-55.844,3.888-69.344s3.044-36.125-.776-38.62S1605.352,1246.18,1605.352,1246.18Z" transform="translate(-1572.43 -1148.193)" fill="#213f7a"/><path d="M1612.4,1087.569l1.806,25.209a2.011,2.011,0,0,1-1.451,2.077c-2.021.586-4.351.995-8.844,1.926a85.788,85.788,0,0,1-16.876,1.7c-11.1.071-15.3-3.754-15.3-3.754-.478.009.253-2.314.911-13.357.223-3.741.438-8.482.594-14.475.14-5.392.234-11.8.243-19.4.012-9.142,14.162-18.977,14.423-18.977l0,0c0,1.317,2.075,3.746,5.27,3.955,3.793.248,8.445-1.639,8.445-3.824,0-.022,6.856,10.967,9.291,22.677.31,1.485.549,3.05.74,4.7,0,.025.006.05.009.076.036.3.068.6.1.909.006.053.01.108.016.161.028.277.056.558.081.84.008.08.013.162.021.242.024.258.046.515.067.776,0,.024,0,.047.006.071.016.193.03.388.044.583.011.137.021.278.031.416.017.229.031.456.047.688q.011.172.022.347.02.327.04.661c.006.1.012.2.018.3.017.319.036.641.052.965,0,.027,0,.052,0,.078.017.311.031.626.046.941,0,.078.008.155.01.233.015.3.028.595.04.9,0,.044,0,.089.006.133q.046,1.1.087,2.233c0,.019,0,.039,0,.058Z" transform="translate(-1549.553 -1016.541)" fill="#2b478b"/><path d="M1572.138,1048.517s-13.159-.112-16.325,4.329-10.11,28.333-6.487,36.283,10.4-3.289,14.166-8.158S1572.138,1048.517,1572.138,1048.517Z" transform="translate(-1533.782 -1016.542)" fill="#2b478b"/><path d="M1621.7,1025.807l.008,1.361s-.371,4.254,4.867,4.875,9.207-1.659,9.065-4.941a38.539,38.539,0,0,1-1.025-6.391,14.832,14.832,0,0,1,.186-2.547l-10.15-.2-2.99.489Z" transform="translate(-1583.482 -995.841)" fill="#ffb27d"/><path d="M1621.665,1018.45l.039,7.358a8.583,8.583,0,0,0,3.659.807c4.665,0,7.68-3.421,9.256-5.9a14.832,14.832,0,0,1,.186-2.547l-10.15-.2Z" transform="translate(-1583.482 -995.841)" fill="#e2915a"/><path d="M1629.62,979.993c-1.177,6.338-9.355,6.13-12.89,5.732-.995-.111-1.621-.238-1.621-.238-1.121-.3-1.747-2.066-2.037-4.38-.577-4.579.152-11.3.925-13.02,1.164-2.587,3.357-5.385,11.593-3.366S1631.131,971.873,1629.62,979.993Z" transform="translate(-1577.52 -959.304)" fill="#ffb27d"/><path d="M1570.094,1103.726s-5.089,11.239-4.941,14.608a17.55,17.55,0,0,1,4.941.635C1574.073,1120.155,1570.094,1103.726,1570.094,1103.726Z" transform="translate(-1545.194 -1053.945)" fill="#233862"/><path d="M1608.368,952.125a27.25,27.25,0,0,0,7.9-2.138c3.47-1.509,7.849.153,9.27.9a2.112,2.112,0,0,0-.347-.855,1.909,1.909,0,0,1,.732,1.085c.066.049.095.082.078.093a2.447,2.447,0,0,1,1.188.077s-.325-.047-.441.163a.194.194,0,0,1-.052.057c5.413,2.616,5.913,11.171,4.171,13.151-2.1,2.382-4.609,7.745-4.609,7.745a4.6,4.6,0,0,1-.536-3.363c.381-2.1-1.429-2.1-3.715-3.048s-.381-3.62-2.382-5.24-9.336-.667-9.241-1.905C1607.663,957.857,1608.368,952.4,1608.368,952.125Z" transform="translate(-1574.418 -949.375)" fill="#233862"/><path d="M1605.549,1167.988c-2.149,8.627-25.382,13.085-30.664,13.991.223-3.741.438-8.482.594-14.475Z" transform="translate(-1551.789 -1097.154)" fill="#233862"/><path d="M1651.128,1158.6a40.932,40.932,0,0,0,6.05-1.181c.885-.443,4.935-6.2,2.283-7.674s-9.771,4.428-9.771,4.428Z" transform="translate(-1602.469 -1084.964)" fill="#ffb27d"/><path d="M1560.542,1161.3s19.12,1.038,31.951-1.71a5.514,5.514,0,0,0-3.709-5.353s-20-4.239-24.8-3.058S1560.542,1161.3,1560.542,1161.3Z" transform="translate(-1541.951 -1085.955)" fill="#2b478b"/><path d="M1662.76,1077.169c-3.969,4.784-9.156,8.69-14.874,9.605h0a10.665,10.665,0,0,1-1.415-6.385,12.775,12.775,0,0,1,2.082-5.862,12.949,12.949,0,0,0,1.125-2.266c3.123-7.967,2.657-23.324,2.657-23.324s13.261,1.389,17.393,7.292C1672.258,1059.842,1669.031,1069.6,1662.76,1077.169Z" transform="translate(-1600.26 -1016.826)" fill="#2b478b"/><path d="M1617.166,1021.6c-.995-.111-1.62-.238-1.62-.238-1.121-.3-1.747-2.066-2.038-4.38a5.541,5.541,0,0,1,3.468,2.835A4.074,4.074,0,0,1,1617.166,1021.6Z" transform="translate(-1577.956 -995.176)" fill="#e2915a"/><path d="M1603.3,1025.782s-4.58-7.557-1.018-7.886a5.386,5.386,0,0,1,5.506,2.967c.514.886-.134,4.879-.134,4.879Z" transform="translate(-1569.43 -995.777)" fill="#ffb27d"/><path d="M1623.6,1072.887a9.839,9.839,0,0,1-.781,2.624,12.559,12.559,0,0,1-2.916,4.017h0c-11.894-5.369-14.3-23.8-14.7-33.934-.163-4.072,0-6.8,0-6.8,5.365-1.777,6.873,1.311,6.873,1.311s6.335,15.065,9.622,24.911C1622.951,1068.781,1623.761,1071.785,1623.6,1072.887Z" transform="translate(-1572.277 -1009.58)" fill="#2b478b"/><path d="M1634.929,1085.368c-3.969,4.784-9.156,8.69-14.874,9.605h0c-11.894-5.369-14.3-23.8-14.7-33.934,0,0,5.628,20.414,13.289,27.549a8.362,8.362,0,0,0,4.332,2.37s9.66-2.73,11.686-5.3A1.081,1.081,0,0,1,1634.929,1085.368Z" transform="translate(-1572.429 -1025.025)" fill="#233862"/></g><rect width="821.394" height="2.179" rx="1.089" transform="translate(234.873 723.636)" fill="#2e3552"/><g transform="translate(888.4 562.685)"><path d="M2303.861,1312.75c2.319,8.669,19.457,13.772,38.2,16.765h69.956c16.862-8.257,16.838-18.1,18.192-45.292,2.794-56.157-26.747-83.267-39.92-78.792-.547.186-1.105.388-1.672.619-3.828,1.54-8.116,4.26-12.288,10.733,0,0-13.094,21.823-23.868,34.839-3.469,4.19-6.7,7.472-9.169,8.814a.584.584,0,0,1-.088.045c-.132.07-.26.132-.387.19-5.709,2.613-13.757,8.092-21.106,15h0C2310.312,1286.387,2300.592,1300.53,2303.861,1312.75Z" transform="translate(-2289.675 -1168.836)" fill="#f99746"/><path d="M2360.563,1291.658c9.808,3.014,60.291,17.587,72.171,2.135,8.6-11.191,3.246-39.859-1.505-58.408a8.773,8.773,0,0,0-15.922-2.81l-.125.193s-13.094,21.822-23.868,34.839c-3.118,4.112-6.192,7.282-9.169,8.814a.611.611,0,0,1-.088.045c-.128.07-.26.132-.387.19C2375.96,1279.269,2367.912,1284.748,2360.563,1291.658Z" transform="translate(-2328.525 -1184.82)" fill="#ed7d2b"/><g transform="translate(0)"><path d="M2418.428,1204.574s-3.5,5.177-5.493,16.059c-1.748,9.531-3.279,13.05-5.8,15s-16.583,7.725-16.583,7.725l1.051,2.463s20.608-2.807,22.923-6.251,11.14-23.794,10.455-28.48S2418.428,1204.574,2418.428,1204.574Z" transform="translate(-2348.839 -1168.578)" fill="#f4a269"/><g transform="translate(0 135.438)"><path d="M2280.349,1527.149c.186,2.01-2.613,2.5-5.854,2.66s-2.261.825-6.7,1.629-6.221-.41-6.542-1.011c-.286-.532,1.779-1.365,3.979-2.306.276-.117.554-.238.831-.359,2.476-1.089,3.866-3.31,5.8-5.37,1.829-1.95,3.566-8.2,3.566-8.2l6.035-1.289s-1.695,5.621-2.283,8.021a7.435,7.435,0,0,0,.618,4.19A7.9,7.9,0,0,1,2280.349,1527.149Z" transform="translate(-2261.224 -1512.908)" fill="#ffb27d"/><path d="M2274.5,1555.461c-3.24.161-2.261.825-6.7,1.629s-6.221-.411-6.542-1.011c-.286-.532,1.779-1.365,3.979-2.306l.034.038a12.647,12.647,0,0,0,6.727.08c2.939-.8,5.779-2.553,7.8-3.12a7.9,7.9,0,0,1,.555,2.03C2280.535,1554.81,2277.736,1555.3,2274.5,1555.461Z" transform="translate(-2261.224 -1538.559)" fill="#c65447"/></g><path d="M2365.468,1325.664s-40.1-3.018-47.655,1.746-19.658,60.267-19.658,60.267a4.922,4.922,0,0,0,2.416.78,20.247,20.247,0,0,0,4.971-.744s17.4-24.833,18.627-31.09.927-11.839,3.718-11.988,37.585,4.23,42.848-5.042.912-18.45.912-18.45Z" transform="translate(-2286.244 -1247.552)" fill="#163560"/><g transform="translate(15.346 141.88)"><path d="M2327.93,1547.122c.186,2.01-2.612,2.5-5.853,2.66s-2.261.825-6.7,1.63-6.221-.411-6.542-1.011c-.287-.532,1.778-1.365,3.979-2.306.277-.118.554-.238.832-.36,2.476-1.089,3.866-3.31,5.8-5.37,1.829-1.951,3.566-8.2,3.566-8.2l6.035-1.289s-1.695,5.621-2.283,8.02a7.437,7.437,0,0,0,.618,4.19A7.874,7.874,0,0,1,2327.93,1547.122Z" transform="translate(-2308.805 -1532.881)" fill="#ffb27d"/><path d="M2322.076,1575.432c-3.241.162-2.261.825-6.7,1.63s-6.221-.411-6.542-1.011c-.287-.532,1.778-1.365,3.979-2.306l.034.037a12.644,12.644,0,0,0,6.727.08c2.938-.8,5.779-2.553,7.8-3.121a7.875,7.875,0,0,1,.555,2.031C2328.115,1574.782,2325.317,1575.271,2322.076,1575.432Z" transform="translate(-2308.805 -1558.531)" fill="#c65447"/></g><path d="M2404.59,1342.867s-35.626,1.687-42.985,6.742-17.3,60.986-17.3,60.986a4.922,4.922,0,0,0,2.445.685,20.254,20.254,0,0,0,4.938-.937s16.422-25.492,17.4-31.791.465-11.865,3.248-12.124,37.721,2.764,42.62-6.706S2404.59,1342.867,2404.59,1342.867Z" transform="translate(-2317.512 -1262.269)" fill="#1c468a"/><path d="M2483.92,1126.108a21.654,21.654,0,0,1-2.114-7.34c.078.39,1.1,5.35,3.208,8.055,8.252,4.664,24.56,20.985,24.479,24.289,0,0,4.734-9.409,4.822-9.469,0,0,9.011-13.176-3.136-19.57-6.173-3.249-6.455-7.93-6.479-12.01s-3.055-21.449-14.63-16.079a7.758,7.758,0,0,0-2.809-.536,2.34,2.34,0,0,1,1.086.429,9.24,9.24,0,0,0-4.926,1.287C2479.232,1097.929,2476.815,1120.393,2483.92,1126.108Z" transform="translate(-2409.039 -1092.963)" fill="#b5453c"/><path d="M2505.788,1185.792a40.108,40.108,0,0,0-6.635,0,21.326,21.326,0,0,0-5.758,1.445c-3.14,1.313-2.811,6.872,3.778,5.842S2506.25,1187.44,2505.788,1185.792Z" transform="translate(-2417.212 -1155.758)" fill="#ffb27d"/><path d="M2497.806,1172.706c-.038.021-.94,4.782,3.374,4.592,2.832-.125,8.939-3.552,8.4-5.976-.256-1.153-2.4-4.143-2.827-10.969l-.516.137-8.668,2.325s.385,2.751.563,5.355C2498.285,1170.357,2498.291,1172.439,2497.806,1172.706Z" transform="translate(-2421.345 -1138.619)" fill="#ffb27d"/><path d="M2497.57,1163.1s.385,2.751.563,5.355c4.906-.466,7.206-5.124,8.1-7.68Z" transform="translate(-2421.345 -1138.907)" fill="#f4a269"/><path d="M2493.645,1120.384a25.891,25.891,0,0,0,2.69-7.763c.276-2.514-1.6-11.64-10.771-9.7a12.6,12.6,0,0,0-5.083,2.319c-1.919,1.491-4.624,4.614-.845,12.435l1.023,2.659Z" transform="translate(-2407.908 -1099.529)" fill="#b5453c"/><path d="M2482.952,1134.04s11.643-.584,11.167-7.828.708-12.2-6.746-12.133-8.715,2.925-9.144,5.382S2479.912,1134.005,2482.952,1134.04Z" transform="translate(-2408.205 -1107.268)" fill="#ffb27d"/><path d="M2490.24,1111.1s3.751,8.286,8.722,9.217,7-.52,7-.52a13.868,13.868,0,0,1-5.071-7.874S2492.372,1106.9,2490.24,1111.1Z" transform="translate(-2416.379 -1104.116)" fill="#b5453c"/><path d="M2481.021,1113.97s-2.251,2.056-2.708,3.939-.465,5.7-1.58,5.643c0,0-2.784-5.617-.306-9.064C2479.055,1110.832,2481.021,1113.97,2481.021,1113.97Z" transform="translate(-2406.325 -1106.346)" fill="#b5453c"/><path d="M2456.4,1234.772c.942,1.127,3.884,1.472,7.029,1.99a21.111,21.111,0,0,1,6.921,2.006c4.2,2.464,17.909,10.792,21.928,10.413,1.558-.147,1.267-3.121.323-7.068-1.486-6.233-4.6-14.888-4.6-18.652a109.285,109.285,0,0,0-1.6-12.472q-.112-.672-.226-1.355c-1.805-10.8-4.306-23.546-4.306-23.546s-2.788,6.085-8.222,6.085-4.17-4.64-4.17-4.64-4.958.583-6.129,1.845a48.459,48.459,0,0,0-4.732,8.2s-.12,1.892,4.566,2.793a61.462,61.462,0,0,0-1.277,8.562c-.1,2.53,1.726,10.448,2.251,15.373a9.086,9.086,0,0,1-.072,3.734,7.251,7.251,0,0,1-2.869,2.365C2458.573,1231.948,2455.28,1233.433,2456.4,1234.772Z" transform="translate(-2393.3 -1156.054)" fill="#1c468a"/><path d="M2470.749,1272.958c-3.008,5.127,8.156,6.669,10,7.755,4.2,2.464,17.031,11.4,21.05,11.019,1.558-.147,1.267-3.121.323-7.068-1.486-6.233-4.6-14.888-4.6-18.652a109.284,109.284,0,0,0-1.6-12.472l-4.838-4.645s-5.184,13.4-10.125,15.593a41.6,41.6,0,0,1-7.282,2.37,9.076,9.076,0,0,1-.072,3.734A7.247,7.247,0,0,1,2470.749,1272.958Z" transform="translate(-2402.828 -1198.605)" fill="#163560"/><path d="M2485.378,1197.132s4.136-2.512,8.135,2.253-2.842,38.827-8.768,40.576c-6.582,1.944-25.6-.311-25.6-.311l.366-2.971s20.242-3.881,21.083-4.962S2483.275,1197.682,2485.378,1197.132Z" transform="translate(-2395.315 -1163.088)" fill="#ffb27d"/><path d="M2530.942,1186.086s8.494.766,10.962,3.56,3.188,10.365,3.188,10.365-7.48,6.038-16.493,3.7Z" transform="translate(-2442.366 -1156.052)" fill="#1c468a"/><g transform="translate(19.992 62.837)"><rect width="11.22" height="1.326" transform="translate(41.856 16.644) rotate(180)" fill="#9e332e"/><path d="M2356.232,1304.259c-.11-.439-10.314-16.462-10.314-16.462h-22.7l11.388,16.032Z" transform="translate(-2323.213 -1287.797)" fill="#9e332e"/><path d="M2355.277,1304.441c-.11-.439-10.347-16.644-10.347-16.644h-21.717l10.834,16.644Z" transform="translate(-2323.213 -1287.797)" fill="#b5453c"/><path d="M2363.128,1311.3a1.814,1.814,0,0,0,1.58,1.175.809.809,0,0,0,.771-1.175,1.812,1.812,0,0,0-1.58-1.176A.81.81,0,0,0,2363.128,1311.3Z" transform="translate(-2350.208 -1302.922)" fill="#9e332e"/></g><path d="M2440.555,1318.479s-6.591-1.276-7.335-.957-4.89,4.039-4.465,4.784,2.126,1.276,4.04.638,6.059-.957,6.8-1.914A6.249,6.249,0,0,0,2440.555,1318.479Z" transform="translate(-2374.704 -1245.064)" fill="#ffb27d"/></g></g><g transform="translate(590.448 399.331)"><path d="M1560.663,638.509H1353.276l-15.894-52.047H1544.77Z" transform="translate(-1337.382 -586.462)" fill="#fafdff"/><g transform="translate(17.491 12.619)"><path d="M1573.619,630.568l1.9,6.225c.837,2.739-.72,4.98-3.459,4.98H1400.243a7.334,7.334,0,0,1-6.5-4.98l-1.9-6.225c-.836-2.739.72-4.98,3.46-4.98h171.818A7.333,7.333,0,0,1,1573.619,630.568Z" transform="translate(-1391.615 -625.588)" fill="#b7d5f9"/><g transform="translate(144.714 5.382)"><path d="M1843.2,643.362h-2.636l-.248-.809h3.685l.213.7-.978,4.546h-1.033Z" transform="translate(-1840.32 -642.463)" fill="#699dee"/><path d="M1855.9,644.986c-.457-1.5.086-2.711,1.464-2.711a3.577,3.577,0,0,1,3.1,2.711c.458,1.5-.086,2.711-1.464,2.711A3.57,3.57,0,0,1,1855.9,644.986Zm3.618,0c-.315-1.033-1.105-1.88-1.914-1.88s-1.074.824-.751,1.88c.315,1.034,1.1,1.88,1.914,1.88S1859.837,646.035,1859.517,644.986Z" transform="translate(-1850.767 -642.275)" fill="#699dee"/><path d="M1871.43,643.708c-.222-.726.092-1.34.833-1.34a1.841,1.841,0,0,1,1.637,1.34c.222.727-.092,1.341-.833,1.341A1.842,1.842,0,0,1,1871.43,643.708Zm3.974-1.28h.742l-2.234,5.243h-.741Zm-2.17,1.28a1,1,0,0,0-.809-.764c-.353,0-.457.345-.328.764a.991.991,0,0,0,.809.764C1873.258,644.472,1873.362,644.128,1873.234,643.708Zm2.181,2.682c-.221-.727.093-1.341.834-1.341a1.843,1.843,0,0,1,1.638,1.341c.221.726-.093,1.34-.833,1.34A1.844,1.844,0,0,1,1875.416,646.39Zm1.805,0a1,1,0,0,0-.81-.764c-.352,0-.457.344-.328.764a.991.991,0,0,0,.81.764C1877.245,647.153,1877.349,646.809,1877.221,646.39Z" transform="translate(-1861.349 -642.338)" fill="#699dee"/></g><path d="M1511.481,625.588l4.943,16.186H1400.243a7.313,7.313,0,0,1-5.914-3.656,6.144,6.144,0,0,1-.587-1.324l-1.9-6.225c-.836-2.739.72-4.98,3.46-4.98Z" transform="translate(-1391.615 -625.588)" fill="#f99746"/><path d="M1421.566,625.588l-4.9,16.186h-10.724a7.313,7.313,0,0,1-5.914-3.656l3.79-12.53Z" transform="translate(-1397.316 -625.588)" fill="#ed7d2b"/><path d="M1513.52,625.588l-4.9,16.186H1490.88l4.9-16.186Z" transform="translate(-1458.866 -625.588)" fill="#ed7d2b"/><path d="M1607.8,625.588l-4.9,16.186h-17.746l4.9-16.186Z" transform="translate(-1522.734 -625.588)" fill="#ed7d2b"/><path d="M1702.082,625.588l-4.9,16.186h-17.746l4.9-16.186Z" transform="translate(-1586.611 -625.588)" fill="#ed7d2b"/></g><g transform="translate(25.947 36.252)"><path d="M1449.518,701.006h-31.03l-.654-2.14h31.031Z" transform="translate(-1417.834 -698.866)" fill="#afcdfb"/><path d="M1446.7,719.566h-22.547l-.654-2.14h22.547Z" transform="translate(-1421.674 -711.44)" fill="#afcdfb"/><path d="M1511.853,719.566h-13.477l-.654-2.14H1511.2Z" transform="translate(-1471.957 -711.44)" fill="#afcdfb"/><path d="M1567.979,719.566h-20.588l-.654-2.14h20.588Z" transform="translate(-1505.164 -711.44)" fill="#afcdfb"/><path d="M1531.332,701.006h-9.4l-.654-2.14h9.4Z" transform="translate(-1487.92 -698.866)" fill="#afcdfb"/><path d="M1595.2,701.006h-34.165l-.654-2.14h34.165Z" transform="translate(-1514.41 -698.866)" fill="#afcdfb"/></g></g><g transform="translate(365.231 455.672)"><path d="M807.637,835.417H661.742l-22.677-74.262H784.959Z" transform="translate(-639.065 -761.155)" fill="#fafdff"/><path d="M810.055,809.986H682.667l-9.638-31.561H800.418Z" transform="translate(-662.075 -772.855)" fill="#4a75cb"/><g transform="translate(19.445 10.301)"><path d="M721.449,794.778H699.871l-.514-1.683h21.579Z" transform="translate(-699.356 -793.095)" fill="#cae0ff"/><path d="M800.644,794.778H782.7l-.514-1.683H800.13Z" transform="translate(-755.471 -793.095)" fill="#cae0ff"/><path d="M889.936,794.778H852.842l-.514-1.683h37.093Z" transform="translate(-802.992 -793.095)" fill="#cae0ff"/><path d="M727.161,813.483H705.582l-.514-1.684h21.579Z" transform="translate(-703.226 -805.767)" fill="#cae0ff"/><path d="M806.356,813.483H788.41L787.9,811.8h17.947Z" transform="translate(-759.34 -805.767)" fill="#cae0ff"/><path d="M872.075,813.483H854.128l-.514-1.684h17.947Z" transform="translate(-803.864 -805.767)" fill="#cae0ff"/><path d="M963.725,815.658H926.631l-.514-1.684h37.094Z" transform="translate(-852.984 -807.241)" fill="#cae0ff"/></g><g transform="translate(23.623 23.982)"><path d="M734.4,837.2H712.824l-.514-1.684h21.579Z" transform="translate(-712.31 -835.515)" fill="#cae0ff"/><path d="M813.6,837.2H795.651l-.514-1.684h17.947Z" transform="translate(-768.424 -835.515)" fill="#cae0ff"/><path d="M902.889,837.2H865.8l-.514-1.684h37.093Z" transform="translate(-815.946 -835.515)" fill="#cae0ff"/><path d="M740.115,855.9H718.536l-.514-1.684H739.6Z" transform="translate(-716.18 -848.187)" fill="#cae0ff"/><path d="M819.31,855.9H801.364l-.514-1.684H818.8Z" transform="translate(-772.294 -848.187)" fill="#cae0ff"/><path d="M885.029,855.9H867.082l-.514-1.684h17.947Z" transform="translate(-816.818 -848.187)" fill="#cae0ff"/><path d="M976.679,858.079H939.585l-.514-1.684h37.093Z" transform="translate(-865.938 -849.661)" fill="#cae0ff"/></g><g transform="translate(41.659 45.342)"><g transform="translate(52.236)"><path d="M942.315,919.679c-4.944,0-10.2-4.023-11.706-8.968s1.285-8.967,6.229-8.967,10.2,4.023,11.706,8.967S947.26,919.679,942.315,919.679Zm-4.977-16.3c-4.042,0-6.326,3.288-5.092,7.33s5.526,7.33,9.568,7.33,6.326-3.288,5.091-7.33S941.38,903.382,937.339,903.382Z" transform="translate(-930.2 -901.744)" fill="#a8d29f"/><g transform="translate(3.763 5.266)"><path d="M948.694,926.333a1.886,1.886,0,0,1-1.012-.417l-5.085-4.03a1.485,1.485,0,0,1-.546-1.929,1.374,1.374,0,0,1,1.942.042l3.593,2.847,1.766-4.213c.256-.61,1.068-.745,1.813-.3a1.678,1.678,0,0,1,.886,1.906l-2.321,5.538a.94.94,0,0,1-.841.561A1.349,1.349,0,0,1,948.694,926.333Z" transform="translate(-941.868 -918.07)" fill="#a8d29f"/></g></g><g transform="translate(26.578)"><path d="M862.758,919.679c-4.944,0-10.2-4.023-11.706-8.968s1.284-8.967,6.229-8.967,10.2,4.023,11.706,8.967S867.7,919.679,862.758,919.679Zm-4.977-16.3c-4.042,0-6.326,3.288-5.091,7.33s5.526,7.33,9.568,7.33,6.326-3.288,5.092-7.33S861.823,903.382,857.781,903.382Z" transform="translate(-850.642 -901.744)" fill="#a8d29f"/><g transform="translate(3.763 5.266)"><path d="M869.136,926.333a1.886,1.886,0,0,1-1.012-.417l-5.085-4.03a1.485,1.485,0,0,1-.546-1.929,1.374,1.374,0,0,1,1.942.042l3.593,2.847,1.766-4.213c.256-.61,1.068-.745,1.813-.3a1.678,1.678,0,0,1,.886,1.906l-2.322,5.538a.939.939,0,0,1-.841.561A1.353,1.353,0,0,1,869.136,926.333Z" transform="translate(-862.31 -918.07)" fill="#a8d29f"/></g></g><path d="M780.35,919.679c-4.945,0-10.2-4.023-11.706-8.968s1.285-8.967,6.229-8.967,10.2,4.023,11.706,8.967S785.295,919.679,780.35,919.679Zm-4.976-16.3c-4.042,0-6.326,3.288-5.092,7.33s5.526,7.33,9.568,7.33,6.326-3.288,5.091-7.33S779.415,903.382,775.374,903.382Z" transform="translate(-768.235 -901.744)" fill="#a8d29f"/><g transform="translate(3.763 5.266)"><path d="M786.728,926.333a1.886,1.886,0,0,1-1.011-.417l-5.085-4.03a1.485,1.485,0,0,1-.546-1.929,1.374,1.374,0,0,1,1.943.042l3.593,2.847,1.766-4.213c.256-.61,1.068-.745,1.813-.3a1.678,1.678,0,0,1,.886,1.906l-2.322,5.538a.94.94,0,0,1-.841.561A1.352,1.352,0,0,1,786.728,926.333Z" transform="translate(-779.902 -918.07)" fill="#a8d29f"/></g><g transform="translate(76.991)"><path d="M1019.071,919.679c-4.944,0-10.2-4.023-11.706-8.968s1.284-8.967,6.229-8.967,10.2,4.023,11.706,8.967S1024.016,919.679,1019.071,919.679Zm-4.977-16.3c-4.041,0-6.325,3.288-5.091,7.33s5.526,7.33,9.568,7.33,6.326-3.288,5.092-7.33S1018.136,903.382,1014.094,903.382Z" transform="translate(-1006.955 -901.744)" fill="#f1a34f"/><g transform="translate(6.949 4.089)"><path d="M1031.377,920.768h0a1.868,1.868,0,0,1-1.655-1.268l-1.163-3.81a.908.908,0,0,1,.881-1.268h0a1.867,1.867,0,0,1,1.655,1.268l1.163,3.81A.908.908,0,0,1,1031.377,920.768Z" transform="translate(-1028.501 -914.422)" fill="#f1a34f"/><path d="M1036.89,938.617h-.274a1.666,1.666,0,0,1-1.476-1.131h0a.81.81,0,0,1,.786-1.131h.274a1.666,1.666,0,0,1,1.477,1.131h0A.81.81,0,0,1,1036.89,938.617Z" transform="translate(-1032.964 -929.281)" fill="#f1a34f"/></g></g></g></g><g transform="translate(802.284 476.787)"><path d="M2125.531,945.563s18.453,19.132,19.325,26.333-8.839,18.442-8.839,18.442Z" transform="translate(-2083.178 -907.204)" fill="#ed7d2b"/><path d="M2047.258,1553.47s-.652,10.148-2.615,10.29c-.261.019-9.959,0-9.959,0l-12.381-.1s.088-2.983,3.708-3.605,9.683-3.153,11.885-7.931C2040.213,1547.1,2047.258,1553.47,2047.258,1553.47Z" transform="translate(-2013.243 -1316.831)" fill="#163560"/><path d="M2132.758,1553.656s-.651,10.148-2.615,10.29c-.261.019-9.959,0-9.959,0l-12.38-.1s.087-2.983,3.708-3.606,9.683-3.153,11.885-7.931C2125.713,1547.281,2132.758,1553.656,2132.758,1553.656Z" transform="translate(-2071.168 -1316.957)" fill="#163560"/><path d="M2057.9,1189.608s3.193,20.716,15.193,57.5,13.61,52.71,13.61,52.71l12.958-.335s.2-40.176-5.328-58.674-1.057-66.647-1.057-66.647Z" transform="translate(-2037.359 -1062.079)" fill="#163560"/><path d="M2038.416,1177.4a502.646,502.646,0,0,0,4.79,69.534c5.316,38.328,3.45,54.589,3.45,54.589l12.931.458s7.811-38.314,5.637-57.5,10.726-65.786,10.726-65.786Z" transform="translate(-2024.149 -1064.272)" fill="#1c468a"/><path d="M2081.156,918.721l-6.9,4.5-9.954-1.878c.139-.8.8-4.134,1.409-7.15.036-.178.073-.356.107-.53.518-2.567.966-4.771.966-4.771l9.309-4.083,3.471-1.522c-.009.054-.275,2.849-.312,3.257A23.71,23.71,0,0,0,2081.156,918.721Z" transform="translate(-2041.697 -878.564)" fill="#ffb27d"/><path d="M2063.856,937.362c.194-.081,12-3.537,13.28-3.111s2.034,2.907,2.034,2.907l-19.307,4.321S2061.389,938.395,2063.856,937.362Z" transform="translate(-2038.689 -899.516)" fill="#ed7d2b"/><path d="M2076.273,1022.556c-2.019,9.119-35.3,10.128-43.865,1.828-.973-.946-1.012-5.338-.632-11.258.745-11.567,3.095-28.964,3.2-37.855a70.411,70.411,0,0,1,1.447-12.669,102.876,102.876,0,0,1,4.255-15.159s16.268-5.22,19.307-4.32C2074.635,947.461,2078.293,1013.437,2076.273,1022.556Z" transform="translate(-2019.509 -905.481)" fill="#f99746"/><path d="M2032.248,1050.683c.745-11.567,3.095-28.964,3.2-37.855a70.41,70.41,0,0,1,1.447-12.669l9.783-1.7S2056.158,1037.526,2032.248,1050.683Z" transform="translate(-2019.98 -943.037)" fill="#ed7d2b"/><path d="M2042.9,1107.25a2.3,2.3,0,0,1-.739,2.661c-1.4,1.067-2.314,2.8-2,4.065s3.384,3.34,4.449,3.009,3.235-1.994,3-2.663,1.47-5.86-1.12-7.865S2042.9,1107.25,2042.9,1107.25Z" transform="translate(-2025.3 -1015.717)" fill="#ffb27d"/><path d="M2022.856,949.53s-9.541,1.764-17.164,12.946-12.641,19.5-11.25,23.536,14.121,18.065,16.32,18.07,5.753-1.587,5.961-5.186c0,0-8.955-13.484-7.18-15.5.758-.86,11.684-9.691,13.233-5.688C2025.338,984.334,2022.856,949.53,2022.856,949.53Z" transform="translate(-1994.21 -909.892)" fill="#f99746"/><path d="M2081.516,909.868c-2.049,3.455-9.666,6.43-12.843,7.523.036-.178.073-.356.107-.53.518-2.567.966-4.771.966-4.771l9.309-4.083C2081.111,907.984,2082.362,908.446,2081.516,909.868Z" transform="translate(-2044.658 -881.76)" fill="#fca56b"/><path d="M2057.228,867.132s14.971,4.705,17.758-4.663,6.6-15.07-2.844-18.471-12.37-.381-14.061,2.52S2053.406,865.667,2057.228,867.132Z" transform="translate(-2035.644 -837.375)" fill="#ffb27d"/><path d="M2062.667,834.868s.932,10.911,3.189,10.442,4.3-.815,3.966,2.472-3.474,7.078,3.477,7.675,16.985-17.312,15.083-20.711C2082.893,824.939,2054.728,822.9,2062.667,834.868Z" transform="translate(-2039.64 -826.626)" fill="#163560"/></g><g transform="translate(480.58 310.248)"><g transform="translate(33.554)" opacity="0.5"><path d="M1100.761,596.264v-2.658h2.738v2.658Z" transform="translate(-1100.761 -502.219)" fill="#afcdfb"/><path d="M1100.761,579.6v-2.658h2.738V579.6Z" transform="translate(-1100.761 -490.927)" fill="#afcdfb"/><path d="M1100.761,562.928V560.27h2.738v2.658Z" transform="translate(-1100.761 -479.634)" fill="#afcdfb"/><path d="M1100.761,546.26V543.6h2.738v2.658Z" transform="translate(-1100.761 -468.342)" fill="#afcdfb"/><path d="M1100.761,529.592v-2.658h2.738v2.658Z" transform="translate(-1100.761 -457.05)" fill="#afcdfb"/><path d="M1100.761,512.924v-2.658h2.738v2.658Z" transform="translate(-1100.761 -445.757)" fill="#afcdfb"/><path d="M1100.761,496.255V493.6h2.738v2.658Z" transform="translate(-1100.761 -434.464)" fill="#afcdfb"/><path d="M1100.761,479.587v-2.658h2.738v2.658Z" transform="translate(-1100.761 -423.172)" fill="#afcdfb"/><path d="M1100.761,462.919v-2.658h2.738v2.658Z" transform="translate(-1100.761 -411.88)" fill="#afcdfb"/><path d="M1100.761,446.251v-2.658h2.738v2.658Z" transform="translate(-1100.761 -400.587)" fill="#afcdfb"/><path d="M1100.761,429.583v-2.658h2.738v2.658Z" transform="translate(-1100.761 -389.295)" fill="#afcdfb"/><path d="M1100.761,412.915v-2.658h2.738v2.658Z" transform="translate(-1100.761 -378.003)" fill="#afcdfb"/><path d="M1100.761,396.246v-2.659h2.738v2.659Z" transform="translate(-1100.761 -366.71)" fill="#afcdfb"/><path d="M1100.761,379.578V376.92h2.738v2.658Z" transform="translate(-1100.761 -355.417)" fill="#afcdfb"/><path d="M1100.761,362.911v-2.659h2.738v2.659Z" transform="translate(-1100.761 -344.125)" fill="#afcdfb"/><path d="M1100.761,346.242v-2.658h2.738v2.658Z" transform="translate(-1100.761 -332.833)" fill="#afcdfb"/><path d="M1100.761,329.574v-2.658h2.738v2.658Z" transform="translate(-1100.761 -321.54)" fill="#afcdfb"/><path d="M1100.761,312.906v-2.658h2.738v2.658Z" transform="translate(-1100.761 -310.248)" fill="#afcdfb"/></g><g transform="translate(25.184)" opacity="0.5"><path d="M1074.807,496.255V493.6h2.738v2.658Z" transform="translate(-1074.807 -434.464)" fill="#afcdfb"/><path d="M1074.807,479.587v-2.658h2.738v2.658Z" transform="translate(-1074.807 -423.172)" fill="#afcdfb"/><path d="M1074.807,462.919v-2.658h2.738v2.658Z" transform="translate(-1074.807 -411.88)" fill="#afcdfb"/><path d="M1074.807,446.251v-2.658h2.738v2.658Z" transform="translate(-1074.807 -400.587)" fill="#afcdfb"/><path d="M1074.807,429.583v-2.658h2.738v2.658Z" transform="translate(-1074.807 -389.295)" fill="#afcdfb"/><path d="M1074.807,412.915v-2.658h2.738v2.658Z" transform="translate(-1074.807 -378.003)" fill="#afcdfb"/><path d="M1074.807,396.246v-2.659h2.738v2.659Z" transform="translate(-1074.807 -366.71)" fill="#afcdfb"/><path d="M1074.807,379.578V376.92h2.738v2.658Z" transform="translate(-1074.807 -355.417)" fill="#afcdfb"/><path d="M1074.807,362.911v-2.659h2.738v2.659Z" transform="translate(-1074.807 -344.125)" fill="#afcdfb"/><path d="M1074.807,346.242v-2.658h2.738v2.658Z" transform="translate(-1074.807 -332.833)" fill="#afcdfb"/><path d="M1074.807,329.574v-2.658h2.738v2.658Z" transform="translate(-1074.807 -321.54)" fill="#afcdfb"/><path d="M1074.807,312.906v-2.658h2.738v2.658Z" transform="translate(-1074.807 -310.248)" fill="#afcdfb"/></g><g transform="translate(16.656)" opacity="0.5"><path d="M1048.366,596.264v-2.658h2.738v2.658Z" transform="translate(-1048.366 -502.219)" fill="#afcdfb"/><path d="M1048.366,579.6v-2.658h2.738V579.6Z" transform="translate(-1048.366 -490.927)" fill="#afcdfb"/><path d="M1048.366,562.928V560.27h2.738v2.658Z" transform="translate(-1048.366 -479.634)" fill="#afcdfb"/><path d="M1048.366,546.26V543.6h2.738v2.658Z" transform="translate(-1048.366 -468.342)" fill="#afcdfb"/><path d="M1048.366,529.592v-2.658h2.738v2.658Z" transform="translate(-1048.366 -457.05)" fill="#afcdfb"/><path d="M1048.366,512.924v-2.658h2.738v2.658Z" transform="translate(-1048.366 -445.757)" fill="#afcdfb"/><path d="M1048.366,496.255V493.6h2.738v2.658Z" transform="translate(-1048.366 -434.464)" fill="#afcdfb"/><path d="M1048.366,479.587v-2.658h2.738v2.658Z" transform="translate(-1048.366 -423.172)" fill="#afcdfb"/><path d="M1048.366,462.919v-2.658h2.738v2.658Z" transform="translate(-1048.366 -411.88)" fill="#afcdfb"/><path d="M1048.366,446.251v-2.658h2.738v2.658Z" transform="translate(-1048.366 -400.587)" fill="#afcdfb"/><path d="M1048.366,429.583v-2.658h2.738v2.658Z" transform="translate(-1048.366 -389.295)" fill="#afcdfb"/><path d="M1048.366,412.915v-2.658h2.738v2.658Z" transform="translate(-1048.366 -378.003)" fill="#afcdfb"/><path d="M1048.366,396.246v-2.659h2.738v2.659Z" transform="translate(-1048.366 -366.71)" fill="#afcdfb"/><path d="M1048.366,379.578V376.92h2.738v2.658Z" transform="translate(-1048.366 -355.417)" fill="#afcdfb"/><path d="M1048.366,362.911v-2.659h2.738v2.659Z" transform="translate(-1048.366 -344.125)" fill="#afcdfb"/><path d="M1048.366,346.242v-2.658h2.738v2.658Z" transform="translate(-1048.366 -332.833)" fill="#afcdfb"/><path d="M1048.366,329.574v-2.658h2.738v2.658Z" transform="translate(-1048.366 -321.54)" fill="#afcdfb"/><path d="M1048.366,312.906v-2.658h2.738v2.658Z" transform="translate(-1048.366 -310.248)" fill="#afcdfb"/></g><g transform="translate(9.475)" opacity="0.5"><path d="M1026.1,629.6v-2.659h2.738V629.6Z" transform="translate(-1026.101 -524.804)" fill="#afcdfb"/><path d="M1026.1,612.932v-2.658h2.738v2.658Z" transform="translate(-1026.101 -513.511)" fill="#afcdfb"/><path d="M1026.1,596.264v-2.658h2.738v2.658Z" transform="translate(-1026.101 -502.219)" fill="#afcdfb"/><path d="M1026.1,579.6v-2.658h2.738V579.6Z" transform="translate(-1026.101 -490.927)" fill="#afcdfb"/><path d="M1026.1,562.928V560.27h2.738v2.658Z" transform="translate(-1026.101 -479.634)" fill="#afcdfb"/><path d="M1026.1,546.26V543.6h2.738v2.658Z" transform="translate(-1026.101 -468.342)" fill="#afcdfb"/><path d="M1026.1,529.592v-2.658h2.738v2.658Z" transform="translate(-1026.101 -457.05)" fill="#afcdfb"/><path d="M1026.1,512.924v-2.658h2.738v2.658Z" transform="translate(-1026.101 -445.757)" fill="#afcdfb"/><path d="M1026.1,496.255V493.6h2.738v2.658Z" transform="translate(-1026.101 -434.464)" fill="#afcdfb"/><path d="M1026.1,479.587v-2.658h2.738v2.658Z" transform="translate(-1026.101 -423.172)" fill="#afcdfb"/><path d="M1026.1,462.919v-2.658h2.738v2.658Z" transform="translate(-1026.101 -411.88)" fill="#afcdfb"/><path d="M1026.1,446.251v-2.658h2.738v2.658Z" transform="translate(-1026.101 -400.587)" fill="#afcdfb"/><path d="M1026.1,429.583v-2.658h2.738v2.658Z" transform="translate(-1026.101 -389.295)" fill="#afcdfb"/><path d="M1026.1,412.915v-2.658h2.738v2.658Z" transform="translate(-1026.101 -378.003)" fill="#afcdfb"/><path d="M1026.1,396.246v-2.659h2.738v2.659Z" transform="translate(-1026.101 -366.71)" fill="#afcdfb"/><path d="M1026.1,379.578V376.92h2.738v2.658Z" transform="translate(-1026.101 -355.417)" fill="#afcdfb"/><path d="M1026.1,362.911v-2.659h2.738v2.659Z" transform="translate(-1026.101 -344.125)" fill="#afcdfb"/><path d="M1026.1,346.242v-2.658h2.738v2.658Z" transform="translate(-1026.101 -332.833)" fill="#afcdfb"/><path d="M1026.1,329.574v-2.658h2.738v2.658Z" transform="translate(-1026.101 -321.54)" fill="#afcdfb"/><path d="M1026.1,312.906v-2.658h2.738v2.658Z" transform="translate(-1026.101 -310.248)" fill="#afcdfb"/></g><g opacity="0.5"><path d="M996.722,479.587v-2.658h2.738v2.658Z" transform="translate(-996.722 -423.172)" fill="#afcdfb"/><path d="M996.722,462.919v-2.658h2.738v2.658Z" transform="translate(-996.722 -411.88)" fill="#afcdfb"/><path d="M996.722,446.251v-2.658h2.738v2.658Z" transform="translate(-996.722 -400.587)" fill="#afcdfb"/><path d="M996.722,429.583v-2.658h2.738v2.658Z" transform="translate(-996.722 -389.295)" fill="#afcdfb"/><path d="M996.722,412.915v-2.658h2.738v2.658Z" transform="translate(-996.722 -378.003)" fill="#afcdfb"/><path d="M996.722,396.246v-2.659h2.738v2.659Z" transform="translate(-996.722 -366.71)" fill="#afcdfb"/><path d="M996.722,379.578V376.92h2.738v2.658Z" transform="translate(-996.722 -355.417)" fill="#afcdfb"/><path d="M996.722,362.911v-2.659h2.738v2.659Z" transform="translate(-996.722 -344.125)" fill="#afcdfb"/><path d="M996.722,346.242v-2.658h2.738v2.658Z" transform="translate(-996.722 -332.833)" fill="#afcdfb"/><path d="M996.722,329.574v-2.658h2.738v2.658Z" transform="translate(-996.722 -321.54)" fill="#afcdfb"/><path d="M996.722,312.906v-2.658h2.738v2.658Z" transform="translate(-996.722 -310.248)" fill="#afcdfb"/></g></g><g transform="translate(891.06 493.104)"><g transform="translate(0 10.751)" opacity="0.5"><path d="M2272.211,910.554v2.658h-2.738v-2.658Z" transform="translate(-2269.473 -910.554)" fill="#afcdfb"/><path d="M2272.211,927.222v2.658h-2.738v-2.658Z" transform="translate(-2269.473 -921.846)" fill="#afcdfb"/><path d="M2272.211,943.891v2.658h-2.738v-2.658Z" transform="translate(-2269.473 -933.139)" fill="#afcdfb"/><path d="M2272.211,960.559v2.658h-2.738v-2.658Z" transform="translate(-2269.473 -944.432)" fill="#afcdfb"/><path d="M2272.211,977.227v2.658h-2.738v-2.658Z" transform="translate(-2269.473 -955.724)" fill="#afcdfb"/><path d="M2272.211,993.895v2.658h-2.738v-2.658Z" transform="translate(-2269.473 -967.016)" fill="#afcdfb"/><path d="M2272.211,1010.563v2.658h-2.738v-2.658Z" transform="translate(-2269.473 -978.309)" fill="#afcdfb"/><path d="M2272.211,1027.231v2.659h-2.738v-2.659Z" transform="translate(-2269.473 -989.601)" fill="#afcdfb"/><path d="M2272.211,1043.9v2.659h-2.738V1043.9Z" transform="translate(-2269.473 -1000.893)" fill="#afcdfb"/><path d="M2272.211,1060.567v2.658h-2.738v-2.658Z" transform="translate(-2269.473 -1012.186)" fill="#afcdfb"/><path d="M2272.211,1077.235v2.659h-2.738v-2.659Z" transform="translate(-2269.473 -1023.478)" fill="#afcdfb"/><path d="M2272.211,1093.9v2.659h-2.738V1093.9Z" transform="translate(-2269.473 -1034.77)" fill="#afcdfb"/><path d="M2272.211,1110.571v2.658h-2.738v-2.658Z" transform="translate(-2269.473 -1046.063)" fill="#afcdfb"/><path d="M2272.211,1127.24v2.658h-2.738v-2.658Z" transform="translate(-2269.473 -1057.355)" fill="#afcdfb"/><path d="M2272.211,1143.908v2.658h-2.738v-2.658Z" transform="translate(-2269.473 -1068.648)" fill="#afcdfb"/><path d="M2272.211,1160.576v2.658h-2.738v-2.658Z" transform="translate(-2269.473 -1079.94)" fill="#afcdfb"/><path d="M2272.211,1177.244v2.658h-2.738v-2.658Z" transform="translate(-2269.473 -1091.233)" fill="#afcdfb"/><path d="M2272.211,1193.912v2.658h-2.738v-2.658Z" transform="translate(-2269.473 -1102.525)" fill="#afcdfb"/></g><g transform="translate(8.37 43.006)" opacity="0.5"><path d="M2298.164,1010.563v2.658h-2.738v-2.658Z" transform="translate(-2295.426 -1010.563)" fill="#afcdfb"/><path d="M2298.164,1027.231v2.659h-2.738v-2.659Z" transform="translate(-2295.426 -1021.855)" fill="#afcdfb"/><path d="M2298.164,1043.9v2.659h-2.738V1043.9Z" transform="translate(-2295.426 -1033.148)" fill="#afcdfb"/><path d="M2298.164,1060.567v2.658h-2.738v-2.658Z" transform="translate(-2295.426 -1044.44)" fill="#afcdfb"/><path d="M2298.164,1077.235v2.659h-2.738v-2.659Z" transform="translate(-2295.426 -1055.732)" fill="#afcdfb"/><path d="M2298.164,1093.9v2.659h-2.738V1093.9Z" transform="translate(-2295.426 -1067.025)" fill="#afcdfb"/><path d="M2298.164,1110.571v2.658h-2.738v-2.658Z" transform="translate(-2295.426 -1078.317)" fill="#afcdfb"/><path d="M2298.164,1127.24v2.658h-2.738v-2.658Z" transform="translate(-2295.426 -1089.61)" fill="#afcdfb"/><path d="M2298.164,1143.908v2.658h-2.738v-2.658Z" transform="translate(-2295.426 -1100.902)" fill="#afcdfb"/><path d="M2298.164,1160.576v2.658h-2.738v-2.658Z" transform="translate(-2295.426 -1112.195)" fill="#afcdfb"/><path d="M2298.164,1177.244v2.658h-2.738v-2.658Z" transform="translate(-2295.426 -1123.487)" fill="#afcdfb"/><path d="M2298.164,1193.912v2.658h-2.738v-2.658Z" transform="translate(-2295.426 -1134.779)" fill="#afcdfb"/></g><g transform="translate(16.898 10.751)" opacity="0.5"><path d="M2324.6,910.554v2.658h-2.738v-2.658Z" transform="translate(-2321.867 -910.554)" fill="#afcdfb"/><path d="M2324.6,927.222v2.658h-2.738v-2.658Z" transform="translate(-2321.867 -921.846)" fill="#afcdfb"/><path d="M2324.6,943.891v2.658h-2.738v-2.658Z" transform="translate(-2321.867 -933.139)" fill="#afcdfb"/><path d="M2324.6,960.559v2.658h-2.738v-2.658Z" transform="translate(-2321.867 -944.432)" fill="#afcdfb"/><path d="M2324.6,977.227v2.658h-2.738v-2.658Z" transform="translate(-2321.867 -955.724)" fill="#afcdfb"/><path d="M2324.6,993.895v2.658h-2.738v-2.658Z" transform="translate(-2321.867 -967.016)" fill="#afcdfb"/><path d="M2324.6,1010.563v2.658h-2.738v-2.658Z" transform="translate(-2321.867 -978.309)" fill="#afcdfb"/><path d="M2324.6,1027.231v2.659h-2.738v-2.659Z" transform="translate(-2321.867 -989.601)" fill="#afcdfb"/><path d="M2324.6,1043.9v2.659h-2.738V1043.9Z" transform="translate(-2321.867 -1000.893)" fill="#afcdfb"/><path d="M2324.6,1060.567v2.658h-2.738v-2.658Z" transform="translate(-2321.867 -1012.186)" fill="#afcdfb"/><path d="M2324.6,1077.235v2.659h-2.738v-2.659Z" transform="translate(-2321.867 -1023.478)" fill="#afcdfb"/><path d="M2324.6,1093.9v2.659h-2.738V1093.9Z" transform="translate(-2321.867 -1034.77)" fill="#afcdfb"/><path d="M2324.6,1110.571v2.658h-2.738v-2.658Z" transform="translate(-2321.867 -1046.063)" fill="#afcdfb"/><path d="M2324.6,1127.24v2.658h-2.738v-2.658Z" transform="translate(-2321.867 -1057.355)" fill="#afcdfb"/><path d="M2324.6,1143.908v2.658h-2.738v-2.658Z" transform="translate(-2321.867 -1068.648)" fill="#afcdfb"/><path d="M2324.6,1160.576v2.658h-2.738v-2.658Z" transform="translate(-2321.867 -1079.94)" fill="#afcdfb"/><path d="M2324.6,1177.244v2.658h-2.738v-2.658Z" transform="translate(-2321.867 -1091.233)" fill="#afcdfb"/><path d="M2324.6,1193.912v2.658h-2.738v-2.658Z" transform="translate(-2321.867 -1102.525)" fill="#afcdfb"/></g><g transform="translate(24.079)" opacity="0.5"><path d="M2346.871,877.218v2.658h-2.738v-2.658Z" transform="translate(-2344.133 -877.218)" fill="#afcdfb"/><path d="M2346.871,893.886v2.658h-2.738v-2.658Z" transform="translate(-2344.133 -888.51)" fill="#afcdfb"/><path d="M2346.871,910.554v2.658h-2.738v-2.658Z" transform="translate(-2344.133 -899.803)" fill="#afcdfb"/><path d="M2346.871,927.222v2.658h-2.738v-2.658Z" transform="translate(-2344.133 -911.095)" fill="#afcdfb"/><path d="M2346.871,943.891v2.658h-2.738v-2.658Z" transform="translate(-2344.133 -922.388)" fill="#afcdfb"/><path d="M2346.871,960.559v2.658h-2.738v-2.658Z" transform="translate(-2344.133 -933.68)" fill="#afcdfb"/><path d="M2346.871,977.227v2.658h-2.738v-2.658Z" transform="translate(-2344.133 -944.973)" fill="#afcdfb"/><path d="M2346.871,993.895v2.658h-2.738v-2.658Z" transform="translate(-2344.133 -956.265)" fill="#afcdfb"/><path d="M2346.871,1010.563v2.658h-2.738v-2.658Z" transform="translate(-2344.133 -967.557)" fill="#afcdfb"/><path d="M2346.871,1027.231v2.659h-2.738v-2.659Z" transform="translate(-2344.133 -978.85)" fill="#afcdfb"/><path d="M2346.871,1043.9v2.659h-2.738V1043.9Z" transform="translate(-2344.133 -990.142)" fill="#afcdfb"/><path d="M2346.871,1060.567v2.658h-2.738v-2.658Z" transform="translate(-2344.133 -1001.434)" fill="#afcdfb"/><path d="M2346.871,1077.235v2.659h-2.738v-2.659Z" transform="translate(-2344.133 -1012.727)" fill="#afcdfb"/><path d="M2346.871,1093.9v2.659h-2.738V1093.9Z" transform="translate(-2344.133 -1024.019)" fill="#afcdfb"/><path d="M2346.871,1110.571v2.658h-2.738v-2.658Z" transform="translate(-2344.133 -1035.311)" fill="#afcdfb"/><path d="M2346.871,1127.24v2.658h-2.738v-2.658Z" transform="translate(-2344.133 -1046.604)" fill="#afcdfb"/><path d="M2346.871,1143.908v2.658h-2.738v-2.658Z" transform="translate(-2344.133 -1057.897)" fill="#afcdfb"/><path d="M2346.871,1160.576v2.658h-2.738v-2.658Z" transform="translate(-2344.133 -1069.189)" fill="#afcdfb"/><path d="M2346.871,1177.244v2.658h-2.738v-2.658Z" transform="translate(-2344.133 -1080.481)" fill="#afcdfb"/><path d="M2346.871,1193.912v2.658h-2.738v-2.658Z" transform="translate(-2344.133 -1091.774)" fill="#afcdfb"/></g><g transform="translate(33.554 48.381)" opacity="0.5"><path d="M2376.25,1027.231v2.659h-2.738v-2.659Z" transform="translate(-2373.512 -1027.231)" fill="#afcdfb"/><path d="M2376.25,1043.9v2.659h-2.738V1043.9Z" transform="translate(-2373.512 -1038.523)" fill="#afcdfb"/><path d="M2376.25,1060.567v2.658h-2.738v-2.658Z" transform="translate(-2373.512 -1049.816)" fill="#afcdfb"/><path d="M2376.25,1077.235v2.659h-2.738v-2.659Z" transform="translate(-2373.512 -1061.108)" fill="#afcdfb"/><path d="M2376.25,1093.9v2.659h-2.738V1093.9Z" transform="translate(-2373.512 -1072.4)" fill="#afcdfb"/><path d="M2376.25,1110.571v2.658h-2.738v-2.658Z" transform="translate(-2373.512 -1083.693)" fill="#afcdfb"/><path d="M2376.25,1127.24v2.658h-2.738v-2.658Z" transform="translate(-2373.512 -1094.985)" fill="#afcdfb"/><path d="M2376.25,1143.908v2.658h-2.738v-2.658Z" transform="translate(-2373.512 -1106.278)" fill="#afcdfb"/><path d="M2376.25,1160.576v2.658h-2.738v-2.658Z" transform="translate(-2373.512 -1117.57)" fill="#afcdfb"/><path d="M2376.25,1177.244v2.658h-2.738v-2.658Z" transform="translate(-2373.512 -1128.863)" fill="#afcdfb"/><path d="M2376.25,1193.912v2.658h-2.738v-2.658Z" transform="translate(-2373.512 -1140.155)" fill="#afcdfb"/></g></g></g></svg>