<svg xmlns="http://www.w3.org/2000/svg" width="102" height="90" viewBox="0 0 102 90"><g transform="translate(-534 -6275.429)"><g transform="translate(534 6275.429)" fill="#039be5" stroke="#1565c0" stroke-width="2"><rect width="102" height="90" rx="5" stroke="none"/><rect x="1" y="1" width="100" height="88" rx="4" fill="none"/></g><g transform="translate(558.205 6295.684)"><g transform="translate(1.043 4.994)"><path d="M21.879,101.748H37.4a11.6,11.6,0,0,1,10.921-15.5,12.248,12.248,0,0,1,1.791.138V68.521a2.7,2.7,0,0,0-2.7-2.7H43v1.739a2.2,2.2,0,1,1-4.4.053V65.82h-6.4v1.74a2.2,2.2,0,1,1-4.4.052V65.82h-6.4v1.793a2.2,2.2,0,0,1-4.4,0V65.82H12.7a2.7,2.7,0,0,0-2.7,2.7V99.047a2.7,2.7,0,0,0,2.7,2.7Z" transform="translate(-10 -65.82)" fill="#f9f6f4"/></g><g transform="translate(7.447 14.194)"><path d="M71.4,154.033h5.506v5.506H71.4Z" transform="translate(-71.4 -154.033)" fill="#a0c8ff"/></g><g transform="translate(18.282 14.194)"><path d="M175.291,154.033H180.8v5.506h-5.506Z" transform="translate(-175.291 -154.033)" fill="#a0c8ff"/></g><g transform="translate(7.447 24.534)"><path d="M71.4,253.168h5.506v5.506H71.4Z" transform="translate(-71.4 -253.168)" fill="#a0c8ff"/></g><g transform="translate(18.282 24.534)"><path d="M175.291,253.168H180.8v5.506h-5.506Z" transform="translate(-175.291 -253.168)" fill="#a0c8ff"/></g><g transform="translate(29.118 14.194)"><path d="M279.182,154.033h5.506v5.506h-5.506Z" transform="translate(-279.182 -154.033)" fill="#a0c8ff"/></g><g transform="translate(27.773 25.427)"><circle cx="11.594" cy="11.594" r="11.594" fill="#eaaacb"/></g><g transform="translate(34.114 31.768)"><circle cx="5.253" cy="5.253" r="5.253" fill="#f9f6f4"/></g><g transform="translate(8.027 1.043)"><path d="M79.165,35.883a2.2,2.2,0,0,1-2.2-2.2V30.141a2.2,2.2,0,1,1,4.4,0v3.541A2.2,2.2,0,0,1,79.165,35.883Z" transform="translate(-76.963 -27.939)" fill="#e2e7ef"/></g><g transform="translate(18.834 1.043)"><path d="M182.777,35.883a2.206,2.206,0,0,1-2.2-2.2V30.141a2.2,2.2,0,1,1,4.4,0v3.541A2.2,2.2,0,0,1,182.777,35.883Z" transform="translate(-180.575 -27.939)" fill="#e2e7ef"/></g><g transform="translate(29.64 1.043)"><path d="M286.389,35.883a2.2,2.2,0,0,1-2.2-2.2V30.141a2.2,2.2,0,0,1,4.4,0v3.541A2.2,2.2,0,0,1,286.389,35.883Z" transform="translate(-284.187 -27.939)" fill="#e2e7ef"/></g><g transform="translate(1.043 35.618)"><path d="M21.879,364.745H37.4a11.661,11.661,0,0,1-.588-5.3H10v2.6a2.7,2.7,0,0,0,2.7,2.7Z" transform="translate(-10 -359.44)" fill="#ff7b7b"/></g><g transform="translate(0 0)"><path d="M67.949,144.033H62.443a1.043,1.043,0,0,0-1.043,1.043v5.506a1.043,1.043,0,0,0,1.043,1.043h5.506a1.043,1.043,0,0,0,1.043-1.043v-5.506A1.043,1.043,0,0,0,67.949,144.033Zm-1.043,5.506h-3.42v-3.42h3.42v3.42Z" transform="translate(-54.996 -130.882)"/><path d="M171.84,144.033h-5.506a1.043,1.043,0,0,0-1.043,1.043v5.506a1.043,1.043,0,0,0,1.043,1.043h5.506a1.043,1.043,0,0,0,1.043-1.043v-5.506A1.043,1.043,0,0,0,171.84,144.033Zm-1.043,5.506h-3.42v-3.42h3.42Z" transform="translate(-148.052 -130.882)"/><path d="M67.949,243.168H62.443a1.043,1.043,0,0,0-1.043,1.043v5.506a1.043,1.043,0,0,0,1.043,1.043h5.506a1.043,1.043,0,0,0,1.043-1.043v-5.506A1.043,1.043,0,0,0,67.949,243.168Zm-1.043,5.506h-3.42v-3.42h3.42v3.42Z" transform="translate(-54.996 -219.677)"/><path d="M171.84,243.168h-5.506a1.043,1.043,0,0,0-1.043,1.043v5.506a1.043,1.043,0,0,0,1.043,1.043h5.506a1.043,1.043,0,0,0,1.043-1.043v-5.506A1.043,1.043,0,0,0,171.84,243.168Zm-1.043,5.506h-3.42v-3.42h3.42Z" transform="translate(-148.052 -219.677)"/><path d="M270.226,151.625h5.506a1.043,1.043,0,0,0,1.043-1.043v-5.506a1.043,1.043,0,0,0-1.043-1.043h-5.506a1.043,1.043,0,0,0-1.043,1.043v5.506A1.043,1.043,0,0,0,270.226,151.625Zm1.043-5.506h3.42v3.42h-3.42Z" transform="translate(-241.108 -130.882)"/><path d="M52.357,43.412H50.916V41.958a1.043,1.043,0,0,0-2.086,0v2.064l-1.3,1.3A12.609,12.609,0,0,0,42.2,42.644V25.634a3.748,3.748,0,0,0-3.744-3.744h-3.37v-.706a3.245,3.245,0,1,0-6.489,0v.706H24.28v-.706a3.245,3.245,0,0,0-6.489,0v.706H13.474v-.706a3.245,3.245,0,0,0-6.489,0v.706H3.744A3.748,3.748,0,0,0,0,25.634V56.16A3.748,3.748,0,0,0,3.744,59.9a1.043,1.043,0,0,0,0-2.086A1.66,1.66,0,0,1,2.086,56.16V54.6h24.65a13.007,13.007,0,0,0,.32,3.219H12.922a1.043,1.043,0,0,0,0,2.086H27.738A12.635,12.635,0,1,0,49.005,46.8l1.3-1.3h2.053a1.043,1.043,0,1,0,0-2.086ZM31.842,20.025A1.16,1.16,0,0,1,33,21.184v3.5a1.207,1.207,0,0,1-1.071,1.2,1.167,1.167,0,0,1-1.246-1.154V21.184A1.16,1.16,0,0,1,31.842,20.025Zm-10.807,0a1.16,1.16,0,0,1,1.159,1.159v3.489a1.2,1.2,0,0,1-1.141,1.209,1.168,1.168,0,0,1-1.175-1.158V21.184a1.16,1.16,0,0,1,1.159-1.159ZM9.07,21.184a1.159,1.159,0,1,1,2.317,0v3.542a1.159,1.159,0,0,1-2.317,0ZM2.086,52.514V25.634a1.66,1.66,0,0,1,1.658-1.658h3.24v.749a3.245,3.245,0,0,0,6.49,0v-.749h4.317v.749a3.245,3.245,0,1,0,6.489,0v-.749H28.6v.749a3.245,3.245,0,1,0,6.49-.053v-.7h3.37a1.66,1.66,0,0,1,1.658,1.658V42.346A12.756,12.756,0,0,0,26.968,52.514ZM49.918,54.96A10.562,10.562,0,1,1,46.05,46.8l-3.033,3.033a6.307,6.307,0,1,0,1.475,1.475l3.033-3.033a10.5,10.5,0,0,1,2.393,6.683Zm-6.341,0a4.215,4.215,0,1,1-2.065-3.62l-2.883,2.883A1.043,1.043,0,1,0,40.1,55.7l2.883-2.883a4.182,4.182,0,0,1,.59,2.145Z" transform="translate(0 -17.939)"/><path d="M71.928,400.969a1.042,1.042,0,1,0-.563,1.361A1.05,1.05,0,0,0,71.928,400.969Z" transform="translate(-62.632 -360.445)"/></g></g></g></svg>