<svg xmlns="http://www.w3.org/2000/svg" width="168" height="150" viewBox="0 0 168 150"><g transform="translate(-783 -6275)"><g transform="translate(783 6275)" fill="#e6f7ff" stroke="#1565c0" stroke-width="2"><rect width="168" height="150" rx="5" stroke="none"/><rect x="1" y="1" width="166" height="148" rx="4" fill="none"/></g><g transform="translate(821.597 6303.53)"><path d="M256.531,271.446,280.4,295.314a4.22,4.22,0,0,0,5.967,0l8.951-8.951a4.218,4.218,0,0,0,0-5.967l-23.868-23.868a4.218,4.218,0,0,0-5.967,0L261.006,261l-2.985,2.985-1.49,1.49A4.22,4.22,0,0,0,256.531,271.446Z" transform="translate(-212.957 -212.969)" fill="#00d7df"/><path d="M297.214,304.672l17.9,17.9c1.236,1.236,2.906,1.569,3.729.746l2.238-2.238,1.493-1.493.744-.744c.824-.824.49-2.493-.746-3.73l-17.9-17.9c-1.236-1.236-2.905-1.57-3.729-.746l-4.475,4.475C295.645,301.766,295.978,303.436,297.214,304.672Z" transform="translate(-246.928 -246.941)" fill="#fff"/><path d="M47.859,32.941,23.991,9.073a4.22,4.22,0,0,0-5.967,0L9.073,18.024a4.218,4.218,0,0,0,0,5.967L32.941,47.859a4.218,4.218,0,0,0,5.967,0l4.475-4.475L46.368,40.4l1.49-1.49A4.22,4.22,0,0,0,47.859,32.941Z" transform="translate(-6.523 -6.538)" fill="#00d7df"/><path d="M75.118,67.658l-17.9-17.9c-1.236-1.236-2.906-1.569-3.729-.746L51.25,51.248l-1.493,1.493-.744.744c-.824.824-.49,2.493.746,3.729l17.9,17.9c1.236,1.236,2.905,1.57,3.729.746l4.475-4.475C76.687,70.564,76.354,68.894,75.118,67.658Z" transform="translate(-40.495 -40.509)" fill="#fff"/><path d="M289.7,318.618l-2.2-2.2-1.837,1.837,2.2,2.2a2.923,2.923,0,0,1,0,4.13l-8.951,8.951a2.9,2.9,0,0,1-2.064.855h0a2.9,2.9,0,0,1-2.065-.855l-23.868-23.868a2.92,2.92,0,0,1,0-4.13l1.49-1.49-1.837-1.837-1.49,1.49a5.519,5.519,0,0,0,0,7.8l23.868,23.868a5.482,5.482,0,0,0,3.9,1.616h0a5.482,5.482,0,0,0,3.9-1.616l8.951-8.951A5.525,5.525,0,0,0,289.7,318.618Z" transform="translate(-206.419 -252.109)"/><rect width="3.164" height="2.598" transform="translate(76.555 63.465) rotate(-135)"/><path d="M3.469,12.4l8.951-8.951A2.9,2.9,0,0,1,14.484,2.6h0a2.9,2.9,0,0,1,2.065.855L40.417,27.322a2.92,2.92,0,0,1,0,4.13l-1.49,1.49,1.837,1.837,1.49-1.49a5.519,5.519,0,0,0,0-7.8L18.386,1.616A5.482,5.482,0,0,0,14.484,0h0a5.482,5.482,0,0,0-3.9,1.616L1.632,10.567a5.525,5.525,0,0,0,0,7.8l2.2,2.2,1.837-1.837-2.2-2.2A2.923,2.923,0,0,1,3.469,12.4Z" transform="translate(0 0)"/><path d="M83.9,85.74l-1.318,1.318c-1.352,1.352-1.024,3.8.746,5.567l17.9,17.9a5.378,5.378,0,0,0,2.684,1.5,3.885,3.885,0,0,0,.759.077,2.952,2.952,0,0,0,2.125-.832l4.475-4.475c1.352-1.351,1.024-3.8-.746-5.567l-17.9-17.9-1.837,1.837,17.9,17.9c.821.821.921,1.717.746,1.892l-4.475,4.475a.684.684,0,0,1-.536.044,2.805,2.805,0,0,1-1.355-.79l-17.9-17.9c-.821-.821-.921-1.717-.746-1.892l1.318-1.318,3.184,3.184,1.837-1.837L83.847,82.01,87.4,78.453a2.919,2.919,0,0,1,4.13,0l14.138,14.138,1.837-1.837L93.372,76.616a5.517,5.517,0,0,0-7.8,0l-3.558,3.557-13.08-13.08,1.319-1.319c1.352-1.352,1.024-3.8-.746-5.567L51.6,42.3a5.377,5.377,0,0,0-2.684-1.5,3.125,3.125,0,0,0-2.883.755L41.56,46.034c-1.352,1.351-1.024,3.8.746,5.567l17.9,17.9,1.837-1.837-17.9-17.9c-.821-.821-.921-1.717-.746-1.892L47.872,43.4a.683.683,0,0,1,.536-.044,2.805,2.805,0,0,1,1.355.79l17.9,17.9c.821.821.921,1.717.746,1.893l-1.319,1.319-3.184-3.184-1.837,1.837,6.913,6.913-3.556,3.556a2.919,2.919,0,0,1-4.13,0L47.16,60.24l-1.837,1.837L59.461,76.215a5.517,5.517,0,0,0,7.8,0l3.556-3.556Z" transform="translate(-33.961 -33.976)"/><rect width="3.164" height="2.598" transform="translate(8.351 21.418) rotate(45)"/></g></g></svg>