<svg xmlns="http://www.w3.org/2000/svg" width="843" height="329" viewBox="0 0 843 329"><g transform="translate(-262 -1990)"><rect width="843" height="329" rx="10" transform="translate(262 1990)" fill="#eff9fd"/><rect width="172" height="72" rx="5" transform="translate(302 2035)" fill="#1565c0"/><ellipse cx="104.5" cy="36" rx="104.5" ry="36" transform="translate(528 2035)" fill="#1565c0"/><path d="M514.5,469.08,649.311,424.5l130.3,44.58-130.3,43.42Z" transform="translate(276.5 1606.5)" fill="#1565c0"/><path d="M7.8-5.078H3.133v3.484H8.594V0H1.156V-11.375H8.539v1.594H3.133v3.141H7.8Zm3.977-3.375.055.977A3.039,3.039,0,0,1,14.3-8.609q2.641,0,2.688,3.023V0h-1.9V-5.477a1.741,1.741,0,0,0-.348-1.191A1.462,1.462,0,0,0,13.6-7.055a1.829,1.829,0,0,0-1.711,1.039V0h-1.9V-8.453ZM21.3-10.508v2.055h1.492v1.406H21.3v4.719a1.039,1.039,0,0,0,.191.7.888.888,0,0,0,.684.215,2.924,2.924,0,0,0,.664-.078V-.023a4.676,4.676,0,0,1-1.25.18Q19.4.156,19.4-2.258V-7.047H18.008V-8.453H19.4v-2.055ZM26.258,0h-1.9V-8.453h1.9ZM24.242-10.656a1.02,1.02,0,0,1,.277-.732,1.043,1.043,0,0,1,.793-.291,1.056,1.056,0,0,1,.8.291,1.012,1.012,0,0,1,.281.732.988.988,0,0,1-.281.72,1.064,1.064,0,0,1-.8.287,1.051,1.051,0,0,1-.793-.287A1,1,0,0,1,24.242-10.656Zm3.727,6.367a5.026,5.026,0,0,1,.906-3.137A2.9,2.9,0,0,1,31.3-8.609a2.759,2.759,0,0,1,2.172.938V-12h1.9V0H33.656l-.094-.875A2.8,2.8,0,0,1,31.289.156a2.887,2.887,0,0,1-2.4-1.2A5.21,5.21,0,0,1,27.969-4.289Zm1.9.164a3.519,3.519,0,0,0,.5,2.012,1.61,1.61,0,0,0,1.41.723,1.793,1.793,0,0,0,1.7-1.039V-6.039a1.766,1.766,0,0,0-1.687-1.016,1.622,1.622,0,0,0-1.422.73A3.918,3.918,0,0,0,29.867-4.125ZM42.406,0a2.93,2.93,0,0,1-.219-.789,2.955,2.955,0,0,1-2.219.945A2.982,2.982,0,0,1,37.891-.57a2.325,2.325,0,0,1-.8-1.8,2.4,2.4,0,0,1,1-2.074,4.865,4.865,0,0,1,2.871-.723h1.164v-.555a1.481,1.481,0,0,0-.367-1.051,1.456,1.456,0,0,0-1.117-.395,1.672,1.672,0,0,0-1.062.324,1,1,0,0,0-.414.824h-1.9a2.107,2.107,0,0,1,.461-1.3,3.071,3.071,0,0,1,1.254-.949,4.4,4.4,0,0,1,1.77-.344,3.547,3.547,0,0,1,2.367.746,2.661,2.661,0,0,1,.906,2.1v3.813a4.321,4.321,0,0,0,.32,1.82V0ZM40.32-1.367a2.16,2.16,0,0,0,1.059-.273,1.827,1.827,0,0,0,.746-.734V-3.969H41.1a2.8,2.8,0,0,0-1.586.367,1.189,1.189,0,0,0-.531,1.039,1.109,1.109,0,0,0,.363.871A1.407,1.407,0,0,0,40.32-1.367Zm5.336-2.922a5.026,5.026,0,0,1,.906-3.137,2.9,2.9,0,0,1,2.43-1.184,2.759,2.759,0,0,1,2.172.938V-12h1.9V0H51.344L51.25-.875A2.8,2.8,0,0,1,48.977.156a2.887,2.887,0,0,1-2.4-1.2A5.21,5.21,0,0,1,45.656-4.289Zm1.9.164a3.519,3.519,0,0,0,.5,2.012,1.61,1.61,0,0,0,1.41.723,1.793,1.793,0,0,0,1.7-1.039V-6.039a1.766,1.766,0,0,0-1.687-1.016,1.622,1.622,0,0,0-1.422.73A3.919,3.919,0,0,0,47.555-4.125Z" transform="translate(361 2077)" fill="#fff"/><path d="M7.523-2.648H3.117L2.2,0H.141l4.3-11.375H6.211L10.516,0H8.453ZM3.672-4.242h3.3L5.32-8.961Zm10.2-6.266v2.055h1.492v1.406H13.867v4.719a1.039,1.039,0,0,0,.191.7.888.888,0,0,0,.684.215,2.924,2.924,0,0,0,.664-.078V-.023a4.676,4.676,0,0,1-1.25.18q-2.187,0-2.187-2.414V-7.047H10.578V-8.453h1.391v-2.055Zm7.367,3.789a4.7,4.7,0,0,0-.773-.062,1.741,1.741,0,0,0-1.758,1V0H16.8V-8.453h1.813l.047.945a2.139,2.139,0,0,1,1.906-1.1,1.777,1.777,0,0,1,.672.109ZM24.453,0h-1.9V-8.453h1.9ZM22.438-10.656a1.02,1.02,0,0,1,.277-.732,1.043,1.043,0,0,1,.793-.291,1.056,1.056,0,0,1,.8.291,1.012,1.012,0,0,1,.281.732.988.988,0,0,1-.281.72,1.064,1.064,0,0,1-.8.287,1.051,1.051,0,0,1-.793-.287A1,1,0,0,1,22.438-10.656Zm11.5,6.516a5.078,5.078,0,0,1-.879,3.133A2.863,2.863,0,0,1,30.641.156a2.758,2.758,0,0,1-2.312-1.07L28.234,0H26.516V-12h1.9v4.359a2.748,2.748,0,0,1,2.211-.969,2.9,2.9,0,0,1,2.43,1.148,5.162,5.162,0,0,1,.883,3.211Zm-1.9-.164a3.589,3.589,0,0,0-.484-2.062,1.613,1.613,0,0,0-1.406-.687,1.763,1.763,0,0,0-1.734,1.078v3.484a1.781,1.781,0,0,0,1.75,1.1,1.6,1.6,0,0,0,1.375-.664,3.478,3.478,0,0,0,.5-2.008ZM40.648-.828a2.944,2.944,0,0,1-2.375.984,2.624,2.624,0,0,1-2.082-.8,3.423,3.423,0,0,1-.707-2.328V-8.453h1.9V-3q0,1.609,1.336,1.609a1.876,1.876,0,0,0,1.867-.992v-6.07h1.9V0H40.7Zm6.148-9.68v2.055h1.492v1.406H46.8v4.719a1.039,1.039,0,0,0,.191.7.888.888,0,0,0,.684.215,2.924,2.924,0,0,0,.664-.078V-.023a4.676,4.676,0,0,1-1.25.18Q44.9.156,44.9-2.258V-7.047H43.508V-8.453H44.9v-2.055Zm2.352,6.2a4.984,4.984,0,0,1,.492-2.238,3.6,3.6,0,0,1,1.383-1.531,3.9,3.9,0,0,1,2.047-.535,3.692,3.692,0,0,1,2.777,1.1A4.333,4.333,0,0,1,57-4.586l.008.445a5.029,5.029,0,0,1-.48,2.234A3.551,3.551,0,0,1,55.152-.383a3.925,3.925,0,0,1-2.066.539,3.667,3.667,0,0,1-2.863-1.191,4.563,4.563,0,0,1-1.074-3.176Zm1.9.164A3.406,3.406,0,0,0,51.586-2.1a1.752,1.752,0,0,0,1.5.738,1.733,1.733,0,0,0,1.5-.75,3.762,3.762,0,0,0,.535-2.2,3.362,3.362,0,0,0-.551-2.031,1.759,1.759,0,0,0-1.5-.75,1.743,1.743,0,0,0-1.477.738A3.691,3.691,0,0,0,51.047-4.141Z" transform="translate(604 2077)" fill="#fff"/><path d="M5.336-4.375h-2.2V0H1.156V-11.375h4a4.653,4.653,0,0,1,3.039.884,3.126,3.126,0,0,1,1.07,2.557,3.2,3.2,0,0,1-.551,1.912A3.5,3.5,0,0,1,7.18-4.838L9.734-.1V0H7.617Zm-2.2-1.594H5.164a2.259,2.259,0,0,0,1.563-.5,1.757,1.757,0,0,0,.563-1.379,1.871,1.871,0,0,0-.52-1.414,2.207,2.207,0,0,0-1.551-.516H3.133ZM14.68.156A3.928,3.928,0,0,1,11.754-.98a4.124,4.124,0,0,1-1.121-3.027v-.234A5.072,5.072,0,0,1,11.121-6.5a3.716,3.716,0,0,1,1.371-1.551,3.625,3.625,0,0,1,1.969-.555,3.318,3.318,0,0,1,2.668,1.1,4.658,4.658,0,0,1,.941,3.117v.766H12.547a2.539,2.539,0,0,0,.7,1.656,2.1,2.1,0,0,0,1.543.609,2.571,2.571,0,0,0,2.125-1.055l1.023.977A3.418,3.418,0,0,1,16.582-.262,4.244,4.244,0,0,1,14.68.156Zm-.227-7.242a1.6,1.6,0,0,0-1.262.547,2.835,2.835,0,0,0-.613,1.523H16.2v-.141A2.307,2.307,0,0,0,15.688-6.6,1.586,1.586,0,0,0,14.453-7.086ZM21.563,0h-1.9V-12h1.9ZM28.68,0a2.93,2.93,0,0,1-.219-.789,2.955,2.955,0,0,1-2.219.945A2.982,2.982,0,0,1,24.164-.57a2.325,2.325,0,0,1-.8-1.8,2.4,2.4,0,0,1,1-2.074,4.865,4.865,0,0,1,2.871-.723H28.4v-.555a1.481,1.481,0,0,0-.367-1.051,1.456,1.456,0,0,0-1.117-.395,1.672,1.672,0,0,0-1.062.324,1,1,0,0,0-.414.824h-1.9A2.107,2.107,0,0,1,24-7.316a3.071,3.071,0,0,1,1.254-.949,4.4,4.4,0,0,1,1.77-.344,3.547,3.547,0,0,1,2.367.746,2.661,2.661,0,0,1,.906,2.1v3.813a4.321,4.321,0,0,0,.32,1.82V0ZM26.594-1.367a2.159,2.159,0,0,0,1.059-.273,1.827,1.827,0,0,0,.746-.734V-3.969H27.375a2.8,2.8,0,0,0-1.586.367,1.189,1.189,0,0,0-.531,1.039,1.109,1.109,0,0,0,.363.871A1.407,1.407,0,0,0,26.594-1.367Zm9.164.008a1.716,1.716,0,0,0,1.18-.414,1.415,1.415,0,0,0,.5-1.023h1.789a2.789,2.789,0,0,1-.492,1.473,3.228,3.228,0,0,1-1.25,1.082,3.725,3.725,0,0,1-1.7.4A3.6,3.6,0,0,1,32.969-.992,4.555,4.555,0,0,1,31.93-4.164v-.2a4.479,4.479,0,0,1,1.031-3.09,3.571,3.571,0,0,1,2.813-1.16,3.473,3.473,0,0,1,2.457.879,3.148,3.148,0,0,1,1,2.309H37.438a1.738,1.738,0,0,0-.5-1.2,1.6,1.6,0,0,0-1.184-.469,1.671,1.671,0,0,0-1.422.668,3.408,3.408,0,0,0-.508,2.027v.3a3.465,3.465,0,0,0,.5,2.051A1.669,1.669,0,0,0,35.758-1.359ZM42.68,0h-1.9V-8.453h1.9ZM40.664-10.656a1.02,1.02,0,0,1,.277-.732,1.043,1.043,0,0,1,.793-.291,1.056,1.056,0,0,1,.8.291,1.012,1.012,0,0,1,.281.732.988.988,0,0,1-.281.72,1.064,1.064,0,0,1-.8.287,1.051,1.051,0,0,1-.793-.287A1,1,0,0,1,40.664-10.656ZM44.391-4.3a4.984,4.984,0,0,1,.492-2.238,3.6,3.6,0,0,1,1.383-1.531,3.9,3.9,0,0,1,2.047-.535,3.692,3.692,0,0,1,2.777,1.1,4.333,4.333,0,0,1,1.152,2.922l.008.445a5.029,5.029,0,0,1-.48,2.234A3.551,3.551,0,0,1,50.395-.383a3.925,3.925,0,0,1-2.066.539,3.667,3.667,0,0,1-2.863-1.191,4.563,4.563,0,0,1-1.074-3.176Zm1.9.164A3.406,3.406,0,0,0,46.828-2.1a1.752,1.752,0,0,0,1.5.738,1.733,1.733,0,0,0,1.5-.75,3.762,3.762,0,0,0,.535-2.2,3.362,3.362,0,0,0-.551-2.031,1.759,1.759,0,0,0-1.5-.75,1.743,1.743,0,0,0-1.477.738A3.691,3.691,0,0,0,46.289-4.141ZM48.836-12H51L48.836-9.633l-1.523,0Zm6.781,3.547.055.977a3.039,3.039,0,0,1,2.461-1.133q2.641,0,2.688,3.023V0h-1.9V-5.477a1.741,1.741,0,0,0-.348-1.191,1.462,1.462,0,0,0-1.137-.387,1.829,1.829,0,0,0-1.711,1.039V0h-1.9V-8.453Z" transform="translate(893 2077)" fill="#fff"/><path d="M3174,2205.086h214.371" transform="translate(-2872 -51.086)" fill="none" stroke="#1565c0" stroke-width="1"/><path d="M3174,2205.086h214.371" transform="translate(-2872 -7.086)" fill="none" stroke="#1565c0" stroke-width="1" stroke-dasharray="6"/><path d="M3174,2205.086h214.371" transform="translate(-2872 36.914)" fill="none" stroke="#1565c0" stroke-width="1"/><path d="M3174,2205.086h214.371" transform="translate(-2872 80.914)" fill="none" stroke="#1565c0" stroke-width="1"/><path d="M10.18,0H8.2L3.133-8.07V0H1.156V-11.375H3.133l5.086,8.1v-8.1H10.18Z" transform="translate(493 2139)" fill="#1565c0"/><path d="M5.992,0H4.1V-9.138l-2.789.951V-9.781L5.75-11.414h.242Z" transform="translate(493 2184)" fill="#1565c0"/><path d="M3.719-11.375,7-2.656l3.273-8.719h2.555V0H10.859V-3.75l.2-5.016L7.7,0H6.281L2.93-8.758l.2,5.008V0H1.156V-11.375Z" transform="translate(317 2231)" fill="#1565c0"/><path d="M5.992,0H4.1V-9.138l-2.789.951V-9.781L5.75-11.414h.242Z" transform="translate(317 2275)" fill="#1565c0"/><path d="M5.992,0H4.1V-9.138l-2.789.951V-9.781L5.75-11.414h.242Z" transform="translate(494 2275)" fill="#1565c0"/><path d="M10.18,0H8.2L3.133-8.07V0H1.156V-11.375H3.133l5.086,8.1v-8.1H10.18Z" transform="translate(493 2228)" fill="#1565c0"/><path d="M9.836-3.7A4.107,4.107,0,0,1,8.492-.863,4.581,4.581,0,0,1,5.375.156,4.436,4.436,0,0,1,2.98-.488a4.231,4.231,0,0,1-1.6-1.832A6.611,6.611,0,0,1,.8-5.078V-6.141a6.659,6.659,0,0,1,.57-2.836A4.3,4.3,0,0,1,3-10.867a4.566,4.566,0,0,1,2.465-.664A4.4,4.4,0,0,1,8.5-10.512,4.26,4.26,0,0,1,9.836-7.625H7.867a2.81,2.81,0,0,0-.715-1.77,2.363,2.363,0,0,0-1.684-.543A2.308,2.308,0,0,0,3.488-9a4.709,4.709,0,0,0-.707,2.764v1.009a5,5,0,0,0,.66,2.815,2.191,2.191,0,0,0,1.934.97,2.555,2.555,0,0,0,1.75-.523A2.729,2.729,0,0,0,7.867-3.7Zm8.133,1.055H13.563L12.641,0H10.586l4.3-11.375h1.773L20.961,0H18.9ZM14.117-4.242h3.3L15.766-8.961ZM26.43-4.375h-2.2V0H22.25V-11.375h4a4.653,4.653,0,0,1,3.039.884,3.126,3.126,0,0,1,1.07,2.557,3.2,3.2,0,0,1-.551,1.912,3.5,3.5,0,0,1-1.535,1.185L30.828-.1V0H28.711Zm-2.2-1.594h2.031a2.259,2.259,0,0,0,1.563-.5,1.757,1.757,0,0,0,.563-1.379,1.871,1.871,0,0,0-.52-1.414,2.207,2.207,0,0,0-1.551-.516H24.227ZM32.234,0V-11.375h3.359a5.269,5.269,0,0,1,2.676.672A4.581,4.581,0,0,1,40.078-8.8a6.051,6.051,0,0,1,.641,2.828v.57a6.026,6.026,0,0,1-.645,2.844A4.526,4.526,0,0,1,38.238-.664,5.513,5.513,0,0,1,35.508,0Zm1.977-9.781v8.188H35.5a2.971,2.971,0,0,0,2.387-.971,4.223,4.223,0,0,0,.848-2.788v-.632a4.333,4.333,0,0,0-.8-2.823,2.855,2.855,0,0,0-2.336-.975ZM44.773,0H42.8V-11.375h1.969ZM56.227,0H54.25L49.18-8.07V0H47.2V-11.375H49.18l5.086,8.1v-8.1h1.961ZM65.07-2.648H60.664L59.742,0H57.688l4.3-11.375h1.773L68.063,0H66ZM61.219-4.242h3.3L62.867-8.961ZM71.328-1.594h5.164V0H69.352V-11.375h1.977ZM80.094,0H78.125V-11.375h1.969Zm2.43,0V-11.375h3.359a5.269,5.269,0,0,1,2.676.672A4.581,4.581,0,0,1,90.367-8.8a6.051,6.051,0,0,1,.641,2.828v.57a6.026,6.026,0,0,1-.645,2.844A4.526,4.526,0,0,1,88.527-.664,5.513,5.513,0,0,1,85.8,0ZM84.5-9.781v8.188h1.289a2.971,2.971,0,0,0,2.387-.971,4.223,4.223,0,0,0,.848-2.788v-.632a4.333,4.333,0,0,0-.8-2.823,2.855,2.855,0,0,0-2.336-.975ZM99.18-2.648H94.773L93.852,0H91.8l4.3-11.375h1.773L102.172,0h-2.062ZM95.328-4.242h3.3L96.977-8.961ZM103.461,0V-11.375h3.359a5.269,5.269,0,0,1,2.676.672A4.581,4.581,0,0,1,111.3-8.8a6.051,6.051,0,0,1,.641,2.828v.57a6.026,6.026,0,0,1-.645,2.844,4.526,4.526,0,0,1-1.836,1.891,5.513,5.513,0,0,1-2.73.664Zm1.977-9.781v8.188h1.289a2.971,2.971,0,0,0,2.387-.971,4.223,4.223,0,0,0,.848-2.788v-.632a4.333,4.333,0,0,0-.8-2.823,2.855,2.855,0,0,0-2.336-.975Z" transform="translate(528 2219)" fill="#1565c0"/></g></svg>