<svg xmlns="http://www.w3.org/2000/svg" width="165" height="165" viewBox="0 0 165 165">
  <g id="Grupo_24926" data-name="Grupo 24926" transform="translate(-7448 -2459)">
    <g id="Rectángulo_5776" data-name="Rectángulo 5776" transform="translate(7448 2459)" fill="#fff" stroke="#039be5" stroke-width="2">
      <rect width="165" height="165" rx="10" stroke="none"/>
      <rect x="1" y="1" width="163" height="163" rx="9" fill="none"/>
    </g>
    <g id="base-de-datos-de-objetos" transform="translate(7468.141 2456.884)">
      <g id="Grupo_24914" data-name="Grupo 24914" transform="translate(3.859 41.453)">
        <g id="Grupo_24900" data-name="Grupo 24900" transform="translate(6.294 1.727)">
          <g id="Grupo_24898" data-name="Grupo 24898">
            <path id="Trazado_9050" data-name="Trazado 9050" d="M17.288,46.467H39.47V68.649H17.288Z" transform="translate(-17.288 -46.467)" fill="#72c1e8"/>
          </g>
          <g id="Grupo_24899" data-name="Grupo 24899" transform="translate(2.578 2.578)">
            <path id="Trazado_9051" data-name="Trazado 9051" d="M38.643,68.993H30.362a1.172,1.172,0,0,1,0-2.343h7.11V53.139a1.172,1.172,0,1,1,2.343,0V67.822A1.171,1.171,0,0,1,38.643,68.993Zm-12.968,0H23.96a1.172,1.172,0,0,1,0-2.343h1.715a1.172,1.172,0,0,1,0,2.343Z" transform="translate(-22.788 -51.967)" fill="#c5e5ff"/>
          </g>
        </g>
        <g id="Grupo_24903" data-name="Grupo 24903" transform="translate(45.373 1.727)">
          <g id="Grupo_24901" data-name="Grupo 24901">
            <path id="Trazado_9052" data-name="Trazado 9052" d="M113.481,46.467l12.807,22.182H100.674Z" transform="translate(-100.674 -46.467)" fill="#fcd770"/>
          </g>
          <g id="Grupo_24902" data-name="Grupo 24902" transform="translate(5.323 6.326)">
            <path id="Trazado_9053" data-name="Trazado 9053" d="M125.828,73.244h-6.59a1.172,1.172,0,1,1,0-2.343h4.56l-5.3-9.176a1.172,1.172,0,1,1,2.029-1.172l6.313,10.934A1.172,1.172,0,0,1,125.828,73.244Zm-11.276,0H113.2a1.172,1.172,0,0,1,0-2.343h1.349a1.172,1.172,0,0,1,0,2.343Z" transform="translate(-112.031 -59.966)" fill="#ffcbc3"/>
          </g>
        </g>
        <g id="Grupo_24906" data-name="Grupo 24906" transform="translate(87.022)">
          <g id="Grupo_24904" data-name="Grupo 24904">
            <circle id="Elipse_1358" data-name="Elipse 1358" cx="11.954" cy="11.954" r="11.954" fill="#5cd6b3"/>
          </g>
          <g id="Grupo_24905" data-name="Grupo 24905" transform="translate(4.981 4.981)">
            <path id="Trazado_9054" data-name="Trazado 9054" d="M206.738,69.748a1.172,1.172,0,0,1,.1-2.341,7.034,7.034,0,0,0,5.276-12,1.171,1.171,0,1,1,1.657-1.657,9.377,9.377,0,0,1-7.033,15.994Zm-5-1.7a9.475,9.475,0,0,1-1.226-1.033,1.172,1.172,0,1,1,1.657-1.658,7.081,7.081,0,0,0,.92.776,1.172,1.172,0,1,1-1.351,1.915Z" transform="translate(-200.167 -53.41)" fill="#76ffba"/>
          </g>
        </g>
        <g id="Grupo_24907" data-name="Grupo 24907" transform="translate(1.172 35.478)">
          <path id="Trazado_9055" data-name="Trazado 9055" d="M22.572,118.482c-8.954,0-16.213,1.963-16.213,4.382V158.5c0,5.773,32.426,5.772,32.426,0V122.864c0-2.419-7.26-4.382-16.213-4.382Z" transform="translate(-6.359 -118.482)" fill="#72c1e8"/>
        </g>
        <g id="Grupo_24908" data-name="Grupo 24908" transform="translate(3.881 46.872)">
          <path id="Trazado_9056" data-name="Trazado 9056" d="M26.072,172.408c-6.953,0-12.085-1.4-13.562-2.781a1.172,1.172,0,0,1-.371-.855v-24.8a1.172,1.172,0,0,1,2.343,0v24.2c1.255.684,5.109,1.9,11.59,1.9a1.172,1.172,0,1,1,0,2.343Zm3.514-1.28a1.171,1.171,0,0,1,1.047-1.284,21.333,21.333,0,0,0,6.815-1.574,1.172,1.172,0,0,1,1.017,2.112,24.7,24.7,0,0,1-7.594,1.794,1.172,1.172,0,0,1-1.285-1.047Z" transform="translate(-12.139 -142.795)" fill="#c5e5ff"/>
        </g>
        <g id="Grupo_24909" data-name="Grupo 24909" transform="translate(41.967 35.478)">
          <path id="Trazado_9057" data-name="Trazado 9057" d="M109.619,118.482c-8.954,0-16.213,1.963-16.213,4.382V158.5c0,5.773,32.426,5.772,32.426,0V122.864C125.832,120.445,118.573,118.482,109.619,118.482Z" transform="translate(-93.406 -118.482)" fill="#fcd770"/>
        </g>
        <g id="Grupo_24910" data-name="Grupo 24910" transform="translate(44.676 46.872)">
          <path id="Trazado_9058" data-name="Trazado 9058" d="M113.119,172.408c-6.953,0-12.085-1.4-13.562-2.781a1.172,1.172,0,0,1-.371-.855v-24.8a1.172,1.172,0,0,1,2.343,0v24.2c1.255.684,5.109,1.9,11.59,1.9a1.172,1.172,0,1,1,0,2.343Zm4.678-.227a1.172,1.172,0,0,1-.117-2.337,21.333,21.333,0,0,0,6.815-1.574,1.172,1.172,0,0,1,1.017,2.112,26.477,26.477,0,0,1-7.715,1.8Z" transform="translate(-99.186 -142.795)" fill="#ffcbc3"/>
        </g>
        <g id="Grupo_24911" data-name="Grupo 24911" transform="translate(82.763 35.478)">
          <path id="Trazado_9059" data-name="Trazado 9059" d="M196.666,118.482c-8.954,0-16.213,1.963-16.213,4.382V158.5c0,5.773,32.426,5.772,32.426,0V122.864C212.879,120.445,205.619,118.482,196.666,118.482Z" transform="translate(-180.453 -118.482)" fill="#5cd6b3"/>
        </g>
        <g id="Grupo_24912" data-name="Grupo 24912" transform="translate(85.471 46.872)">
          <path id="Trazado_9060" data-name="Trazado 9060" d="M200.165,172.408c-6.953,0-12.085-1.4-13.562-2.781a1.172,1.172,0,0,1-.371-.855v-24.8a1.172,1.172,0,0,1,2.343,0v24.2c1.255.684,5.109,1.9,11.59,1.9a1.172,1.172,0,1,1,0,2.343Zm4.678-.227a1.172,1.172,0,0,1-.117-2.337,21.333,21.333,0,0,0,6.815-1.574,1.172,1.172,0,0,1,1.017,2.112,24.7,24.7,0,0,1-7.594,1.794c-.04,0-.081.006-.12.006Z" transform="translate(-186.232 -142.795)" fill="#76ffba"/>
        </g>
        <g id="Grupo_24913" data-name="Grupo 24913" transform="translate(0 0.557)">
          <circle id="Elipse_1359" data-name="Elipse 1359" cx="1.172" cy="1.172" r="1.172" transform="translate(5.123 9.214)"/>
          <path id="Trazado_9061" data-name="Trazado 9061" d="M22.406,77.731V68.5h9.93a1.175,1.175,0,0,0,1.172-1.172V45.142a1.169,1.169,0,0,0-1.172-1.172H10.154a1.17,1.17,0,0,0-1.172,1.172v4.527a1.172,1.172,0,1,0,2.343,0V46.313H31.164V66.152H11.325v-7.11a1.172,1.172,0,0,0-2.343,0v8.281A1.171,1.171,0,0,0,10.154,68.5h9.909v9.237c-4.526.086-16.2,1.042-16.2,5.541v35.635c0,3.816,9.012,5.554,17.385,5.554s17.385-1.738,17.385-5.554V83.272c0-5.059-14.328-5.364-16.224-5.541Zm-2.343,2.344V82.86a1.172,1.172,0,1,0,2.343,0V80.074c8.659.166,13.879,2.224,13.879,3.2,0,2.284-11.846,3.209-15.067,3.209-9.071,0-14.906-2.088-15.016-3.21C6.34,82.148,12,80.191,20.062,80.075ZM6.2,86.272c3.676,2,10.71,2.554,15.041,2.554,4.808,0,11.5-.652,15.042-2.556v8.964c0,.25-.329.533-.526.679C33.627,97.5,27.48,98.387,21.244,98.4c-9.7.017-15.041-1.961-15.041-3.163Zm0,12.074c3.646,1.956,10.838,2.384,14.985,2.383,6,0,12.035-.788,15.1-2.4v8.748c0,1.717-7.333,3.139-15.042,3.193C11.8,110.336,6.2,108.335,6.2,107.075Zm15.041,23.772c-9.771,0-15.041-2.278-15.041-3.21v-8.7c3.641,1.968,10.788,2.393,14.953,2.393,6.008,0,12.061-.794,15.13-2.421v8.731c0,.932-5.271,3.21-15.042,3.21Z" transform="translate(-3.859 -43.97)"/>
          <path id="Trazado_9062" data-name="Trazado 9062" d="M124.231,162.4a1.172,1.172,0,1,0-1.172-1.19A1.177,1.177,0,0,0,124.231,162.4Z" transform="translate(-67.195 -105.653)"/>
        </g>
      </g>
      <path id="Trazado_9063" data-name="Trazado 9063" d="M109.455,77.733V68.5H121.1a1.171,1.171,0,0,0,1.012-1.757l-12.8-22.182a1.176,1.176,0,0,0-2.034,0l-12.8,22.182A1.172,1.172,0,0,0,95.484,68.5h11.627v9.237c-4.509.084-16.2,1.045-16.2,5.54V118.91c0,3.815,9.008,5.554,17.383,5.554s17.383-1.739,17.383-5.554V83.273c0-4.443-11.787-5.54-16.22-5.54ZM97.513,66.152l10.779-18.667,10.779,18.667Zm25.819,52.757c0,.933-5.268,3.21-15.039,3.21s-15.039-2.278-15.039-3.21v-8.7c5.919,3.2,24,3.192,30.079-.028Zm0-23.667c-.061,1.8-7.77,2.84-11.557,3.051a1.171,1.171,0,0,0,.127,2.339c3.3-.183,8.516-.736,11.431-2.292v8.736c0,4.1-30.079,4.143-30.079,0V98.349c2.428,1.3,6.378,1.87,9.111,2.118a1.169,1.169,0,1,0,.211-2.329c-2.2-.206-9.261-1.214-9.322-2.892V86.272c3.674,2,10.817,2.554,15.039,2.554,4.33,0,11.295-.544,15.039-2.554Zm-15.063-8.759c-8.689,0-15.016-2.039-15.016-3.21,0-.764,4.434-3.009,13.83-3.2h.028V82.86a1.172,1.172,0,0,0,2.343,0V80.076c7.349.141,13.877,1.931,13.877,3.192C123.332,85.691,110.866,86.483,108.269,86.483Z" transform="translate(-46.254 -1.961)"/>
      <path id="Trazado_9064" data-name="Trazado 9064" d="M196.5,75.772l0-9.289a13.144,13.144,0,1,0-2.343,0l0,9.294c-4.509.084-16.2,1.045-16.2,5.54v35.637c0,3.815,9.008,5.554,17.383,5.554s17.383-1.739,17.383-5.554V81.311C212.72,76.868,200.934,75.772,196.5,75.772ZM184.556,53.407A10.782,10.782,0,1,1,195.34,64.191h-.019A10.824,10.824,0,0,1,184.556,53.407Zm25.821,63.541c0,.933-5.268,3.21-15.039,3.21s-15.039-2.278-15.039-3.21v-8.7c5.919,3.2,24,3.192,30.079-.028Zm0-23.667c-.061,1.8-7.77,2.84-11.557,3.051a1.171,1.171,0,0,0,.127,2.339c3.3-.183,8.516-.736,11.431-2.292v8.736c0,4.1-30.079,4.143-30.079,0V96.388c2.428,1.3,6.378,1.87,9.111,2.118a1.169,1.169,0,1,0,.211-2.329c-2.2-.206-9.261-1.214-9.322-2.892V84.311c3.674,2,10.817,2.554,15.039,2.554,4.33,0,11.295-.544,15.039-2.554Zm-15.063-8.759c-8.689,0-15.016-2.039-15.016-3.21,0-.764,4.434-3.009,13.83-3.2h.028V80.9a1.172,1.172,0,1,0,2.343,0V78.115c7.349.141,13.877,1.931,13.877,3.192C210.377,83.73,197.911,84.522,195.314,84.522Z" transform="translate(-92.504 0)"/>
    </g>
  </g>
</svg>
