<svg xmlns="http://www.w3.org/2000/svg" width="165" height="165" viewBox="0 0 165 165">
  <g id="Grupo_24923" data-name="Grupo 24923" transform="translate(-6834 -2459)">
    <g id="Rectángulo_5773" data-name="Rectángulo 5773" transform="translate(6834 2459)" fill="#fff" stroke="#039be5" stroke-width="2">
      <rect width="165" height="165" rx="10" stroke="none"/>
      <rect x="1" y="1" width="163" height="163" rx="9" fill="none"/>
    </g>
    <g id="vinculo-de-retroceso" transform="translate(6866 2491)">
      <g id="Grupo_24867" data-name="Grupo 24867" transform="translate(2.606 2.606)">
        <g id="Grupo_24855" data-name="Grupo 24855" transform="translate(41.756 35.332)">
          <path id="Trazado_8970" data-name="Trazado 8970" d="M74.574,30.424V43.272l-4.015,1.253A36.537,36.537,0,0,1,65.4,56.955L67.363,60.7l-9.09,9.09-3.742-1.959A36.537,36.537,0,0,1,42.1,72.983L40.848,77H28V66.671A30.477,30.477,0,0,0,62.079,24h6.938a36.959,36.959,0,0,1,1.542,5.171Z" transform="translate(-28 -24)" fill="#fcd770"/>
        </g>
        <g id="Grupo_24856" data-name="Grupo 24856" transform="translate(8.03 8.03)">
          <path id="Trazado_8971" data-name="Trazado 8971" d="M53.574,11.818v5.509A30.477,30.477,0,0,0,19.495,60H12.557a36.958,36.958,0,0,1-1.542-5.171L7,53.574V40.726l4.015-1.253a36.537,36.537,0,0,1,5.155-12.43L14.211,23.3l9.09-9.09,3.742,1.959a36.537,36.537,0,0,1,12.43-5.155L40.726,7H53.574Z" transform="translate(-7 -7)" fill="#fcd770"/>
        </g>
        <g id="Grupo_24857" data-name="Grupo 24857" transform="translate(54.604 12.848)">
          <path id="Trazado_8972" data-name="Trazado 8972" d="M77.756,10V29.272a3.221,3.221,0,0,1-3.212,3.212H55.256A13.667,13.667,0,0,0,42.424,19.636v6.44A7.209,7.209,0,0,1,48.8,32.484H39.212A3.221,3.221,0,0,1,36,29.272V10Z" transform="translate(-36 -10)" fill="#e6e9ed"/>
        </g>
        <g id="Grupo_24858" data-name="Grupo 24858" transform="translate(0 73.876)">
          <path id="Trazado_8973" data-name="Trazado 8973" d="M43.756,52.127V67.272a3.221,3.221,0,0,1-3.212,3.212H5.212A3.221,3.221,0,0,1,2,67.272V48H30.089a13.508,13.508,0,0,0,6.424,1.606h.835V48h6.408Z" transform="translate(-2 -48)" fill="#e6e9ed"/>
        </g>
        <g id="Grupo_24859" data-name="Grupo 24859" transform="translate(6.424 80.3)">
          <path id="Trazado_8974" data-name="Trazado 8974" d="M6,52h9.636v9.636H6Z" transform="translate(-6 -52)" fill="#b4dd7f"/>
        </g>
        <g id="Grupo_24860" data-name="Grupo 24860" transform="translate(54.604)">
          <path id="Trazado_8975" data-name="Trazado 8975" d="M36,10.03V5.212A3.221,3.221,0,0,1,39.212,2H74.544a3.221,3.221,0,0,1,3.212,3.212v9.636H36Z" transform="translate(-36 -2)" fill="#5cd6b3"/>
        </g>
        <g id="Grupo_24861" data-name="Grupo 24861" transform="translate(0 61.028)">
          <path id="Trazado_8976" data-name="Trazado 8976" d="M22.91,40c-.016.273-.032.546-.032.819a13.527,13.527,0,0,0,4,9.636,13.834,13.834,0,0,0,3.212,2.393H2V43.212A3.221,3.221,0,0,1,5.212,40h17.7Z" transform="translate(-2 -40)" fill="#5cd6b3"/>
        </g>
        <g id="Grupo_24862" data-name="Grupo 24862" transform="translate(27.302 61.028)">
          <path id="Trazado_8977" data-name="Trazado 8977" d="M33.454,52.366v.482H27.046L27.03,48.03h-.819A7.238,7.238,0,0,1,19,40.819,7,7,0,0,1,19.048,40H30.242a3.221,3.221,0,0,1,3.212,3.212v9.154Z" transform="translate(-19 -40)" fill="#5cd6b3"/>
        </g>
        <g id="Grupo_24863" data-name="Grupo 24863" transform="translate(55.744 22.484)">
          <path id="Trazado_8978" data-name="Trazado 8978" d="M54.826,28.848l.016.771a13.574,13.574,0,0,1-4,9.636l-8.062,8.078A13.519,13.519,0,0,1,36.71,50.85a13.7,13.7,0,0,0,.466-3.549,13.033,13.033,0,0,0-.434-3.373h.016a7.132,7.132,0,0,0,1.478-1.14l8.078-8.078a7.2,7.2,0,0,0,2.1-5.091,6.208,6.208,0,0,0-.048-.771,7.209,7.209,0,0,0-6.376-6.408V16A13.667,13.667,0,0,1,54.826,28.848Z" transform="translate(-36.71 -16)" fill="#aab2bd"/>
        </g>
        <g id="Grupo_24864" data-name="Grupo 24864" transform="translate(38.544 23.704)">
          <path id="Trazado_8979" data-name="Trazado 8979" d="M26.466,33.687a11.8,11.8,0,0,1,.562-1.654A13.879,13.879,0,0,1,30,27.6l8.062-8.062a13.666,13.666,0,0,1,4-2.778v7.869l-7.532,7.516A7.051,7.051,0,0,0,33.4,33.623a6.791,6.791,0,0,0,1.076,8.383,10.956,10.956,0,0,0,2.072,1.751,7.059,7.059,0,0,1,.691,3.084,7.138,7.138,0,0,1-.98,3.613,13.607,13.607,0,0,1-9.829-9.845A13.033,13.033,0,0,1,26,37.236a13.7,13.7,0,0,1,.466-3.549Z" transform="translate(-26 -16.76)" fill="#aab2bd"/>
        </g>
        <g id="Grupo_24865" data-name="Grupo 24865" transform="translate(41.756 40.567)">
          <path id="Trazado_8980" data-name="Trazado 8980" d="M41.988,44.027a11.8,11.8,0,0,1-.562,1.654,13.879,13.879,0,0,1-2.971,4.433l-8.062,8.062A14.2,14.2,0,0,1,28,60.086V51.478l5.926-5.91a7.051,7.051,0,0,0,1.124-1.478,7.138,7.138,0,0,0,.98-3.613,7.059,7.059,0,0,0-.691-3.084,10.956,10.956,0,0,1-2.072-1.751,6.791,6.791,0,0,1-1.076-8.383A13.607,13.607,0,0,1,42.02,37.1a13.033,13.033,0,0,1,.434,3.373,13.7,13.7,0,0,1-.466,3.549Z" transform="translate(-28 -27.26)" fill="#aab2bd"/>
        </g>
        <g id="Grupo_24866" data-name="Grupo 24866" transform="translate(20.878 40.632)">
          <path id="Trazado_8981" data-name="Trazado 8981" d="M32.666,30.849a13.033,13.033,0,0,0,.434,3.373h-.016a7.643,7.643,0,0,0-1.478,1.124l-8.078,8.078A7.153,7.153,0,0,0,21.472,47.7a7,7,0,0,0-.048.819,7.238,7.238,0,0,0,7.211,7.211h.819l.016,4.818V62.15h-.835a13.508,13.508,0,0,1-6.424-1.606A13.834,13.834,0,0,1,19,58.151a13.527,13.527,0,0,1-4-9.636c0-.273.016-.546.032-.819A13.569,13.569,0,0,1,19,38.879l8.062-8.062A13.519,13.519,0,0,1,33.132,27.3a13.7,13.7,0,0,0-.466,3.549Z" transform="translate(-15 -27.3)" fill="#aab2bd"/>
        </g>
      </g>
      <g id="Grupo_24868" data-name="Grupo 24868" transform="translate(1 1)">
        <path id="Trazado_8982" data-name="Trazado 8982" d="M43,5h3.212V8.212H43Z" transform="translate(24.452 1.424)"/>
        <path id="Trazado_8983" data-name="Trazado 8983" d="M39,5h3.212V8.212H39Z" transform="translate(22.028 1.424)"/>
        <path id="Trazado_8984" data-name="Trazado 8984" d="M5,43H8.212v3.212H5Z" transform="translate(1.424 24.452)"/>
        <path id="Trazado_8985" data-name="Trazado 8985" d="M9,43h3.212v3.212H9Z" transform="translate(3.848 24.452)"/>
        <path id="Trazado_8986" data-name="Trazado 8986" d="M95.754,1H60.422A4.824,4.824,0,0,0,55.6,5.818V9.03H43.183l-1.336,4.261A38.155,38.155,0,0,0,30.6,17.954l-3.965-2.07L15.884,26.636,17.956,30.6a38.132,38.132,0,0,0-4.665,11.244L9.03,43.183V58.39l4.262,1.338q.275,1.115.652,2.3H5.818A4.824,4.824,0,0,0,1,66.846V95.754a4.824,4.824,0,0,0,4.818,4.818H41.15a4.824,4.824,0,0,0,4.818-4.818V92.542H58.389l1.336-4.261A38.155,38.155,0,0,0,70.97,83.617l3.965,2.07L85.687,74.935,83.615,70.97a38.131,38.131,0,0,0,4.665-11.244l4.261-1.338V43.181l-4.262-1.338c-.181-.744-.4-1.511-.65-2.3h8.125a4.824,4.824,0,0,0,4.818-4.818V5.818A4.824,4.824,0,0,0,95.754,1ZM60.422,4.212H95.754A1.608,1.608,0,0,1,97.36,5.818v8.03H58.816V5.818A1.608,1.608,0,0,1,60.422,4.212ZM77.909,40.928a28.5,28.5,0,0,1,1.784,9.858A28.655,28.655,0,0,1,45.968,79.242V76.824a15.237,15.237,0,0,0,1.914-1.593l8.077-8.077A15.15,15.15,0,0,0,59.633,61.2a15.217,15.217,0,0,0,5.915-3.634l8.077-8.081A15.107,15.107,0,0,0,77.909,40.928ZM39.542,70.058H37.111a5.586,5.586,0,0,1-5.518-4.818H41.15a1.608,1.608,0,0,1,1.606,1.606v8.03h-3.2Zm-14.452-5.6a11.94,11.94,0,0,1,3.52-8.5l8.077-8.077a11.991,11.991,0,0,1,2.905-2.113c-.021.339-.048.679-.048,1.025a15.294,15.294,0,0,0,.233,2.643,9.051,9.051,0,0,0-.816.715l-8.078,8.078a8.809,8.809,0,0,0,5.454,15l.008,3.222a12.038,12.038,0,0,1-11.255-12Zm-2.065-5.817a28.426,28.426,0,0,1-1.147-7.858A28.655,28.655,0,0,1,55.6,22.329v3a15.166,15.166,0,0,0-3.52,2.613l-8.077,8.077a15.15,15.15,0,0,0-3.675,5.957,15.233,15.233,0,0,0-5.915,3.633l-8.077,8.077a15.192,15.192,0,0,0-3.316,4.956ZM48.716,60.77l-3.5,3.506a4.812,4.812,0,0,0-4.062-2.248H32.1A5.54,5.54,0,0,1,33.152,60.5L40.8,52.854a15.212,15.212,0,0,0,7.916,7.916Zm-2.748,7.291,5.451-5.451a8.82,8.82,0,0,0,1.739-9.989l-.206-.435-.413-.251c-.034-.021-3.36-2.126-3.36-5.141a5.522,5.522,0,0,1,.27-1.617,11.99,11.99,0,0,1,4.24,19.706L45.968,72.6Zm2.579-27.495a8.746,8.746,0,0,0-2.579,6.228c0,4.015,3.226,6.705,4.449,7.58a5.327,5.327,0,0,1,.1,3.625,11.99,11.99,0,0,1-4.24-19.706l8.077-8.077A11.886,11.886,0,0,1,55.6,29.174v4.338Zm22.808,6.644-8.077,8.083a12.04,12.04,0,0,1-2.905,2.115c.021-.34.048-.681.048-1.026a15.364,15.364,0,0,0-.233-2.648A8.871,8.871,0,0,0,61,53.016l8.078-8.083A8.816,8.816,0,0,0,65.24,30.216V26.911a12.036,12.036,0,0,1,6.116,20.3Zm-4.543-4.547-7.649,7.654a15.2,15.2,0,0,0-7.914-7.911L56.36,37.3a4.812,4.812,0,0,0,4.062,2.248H68.37a5.543,5.543,0,0,1-1.558,3.12ZM16.225,58.138l-.194-.919-3.789-1.188V45.542l3.789-1.188.194-.919a34.979,34.979,0,0,1,4.927-11.878l.512-.787-1.842-3.527,7.415-7.418,3.528,1.842.785-.512a34.95,34.95,0,0,1,11.88-4.927l.919-.194,1.192-3.792H55.6v6.8A32.041,32.041,0,0,0,20.733,62.028H17.344A34.162,34.162,0,0,1,16.225,58.138ZM5.818,65.24h16.1a15.159,15.159,0,0,0,4.108,9.636H4.212v-8.03A1.608,1.608,0,0,1,5.818,65.24ZM41.15,97.36H5.818a1.608,1.608,0,0,1-1.606-1.606V78.088H30.343a15.115,15.115,0,0,0,6.768,1.606h2.451l0-1.606h3.2V95.754A1.608,1.608,0,0,1,41.15,97.36Zm44.2-53.926.194.919,3.789,1.188V56.029l-3.789,1.188-.194.919A34.979,34.979,0,0,1,80.42,70.014l-.512.787,1.842,3.527-7.415,7.418L70.806,79.9l-.785.512a34.949,34.949,0,0,1-11.88,4.927l-.919.194L56.031,89.33H45.968v-6.8A32.041,32.041,0,0,0,80.839,39.544h3.389a34.161,34.161,0,0,1,1.119,3.89Zm10.407-7.1H77.887A15.23,15.23,0,0,0,63.725,23.486l-1.7-.095V32.98l1.434.154a5.561,5.561,0,0,1,4.445,3.2H60.422a1.608,1.608,0,0,1-1.606-1.606V17.06H97.36V34.726a1.608,1.608,0,0,1-1.606,1.606Z" transform="translate(-1 -1)"/>
        <path id="Trazado_8987" data-name="Trazado 8987" d="M5,63.848H17.848V51H5Zm3.212-9.636h6.424v6.424H8.212Z" transform="translate(1.424 29.3)"/>
        <path id="Trazado_8988" data-name="Trazado 8988" d="M15,51H31.06v3.212H15Z" transform="translate(7.484 29.3)"/>
        <path id="Trazado_8989" data-name="Trazado 8989" d="M15,55H31.06v3.212H15Z" transform="translate(7.484 31.724)"/>
        <path id="Trazado_8990" data-name="Trazado 8990" d="M49,13H65.06v3.212H49Z" transform="translate(28.088 6.272)"/>
        <path id="Trazado_8991" data-name="Trazado 8991" d="M49,17H65.06v3.212H49Z" transform="translate(28.088 8.696)"/>
      </g>
    </g>
  </g>
</svg>
