<svg xmlns="http://www.w3.org/2000/svg" width="165" height="165" viewBox="0 0 165 165">
  <g id="Grupo_24927" data-name="Grupo 24927" transform="translate(-7665 -2459)">
    <g id="Rectángulo_5777" data-name="Rectángulo 5777" transform="translate(7665 2459)" fill="#fff" stroke="#039be5" stroke-width="2">
      <rect width="165" height="165" rx="10" stroke="none"/>
      <rect x="1" y="1" width="163" height="163" rx="9" fill="none"/>
    </g>
    <g id="candado-abierto" transform="translate(7601.5 2484.532)">
      <path id="Trazado_9065" data-name="Trazado 9065" d="M234,307.038h9.814v23.389H234Z" transform="translate(-92.845 -238.551)" fill="#a8d3d8"/>
      <path id="Trazado_9066" data-name="Trazado 9066" d="M208.42,382.02a13.66,13.66,0,1,0,13.66,13.66,13.661,13.661,0,0,0-13.66-13.66Zm0,20.648a4.326,4.326,0,1,1,4.325-4.327A4.327,4.327,0,0,1,208.42,402.668Z" transform="translate(-62.357 -296.808)" fill="#cbe5e8"/>
      <g id="Grupo_24915" data-name="Grupo 24915" transform="translate(142.717 85.212)">
        <path id="Trazado_9067" data-name="Trazado 9067" d="M244.346,382.02a13.683,13.683,0,0,0-3.346.414,13.662,13.662,0,0,1,0,26.491,13.661,13.661,0,1,0,3.346-26.906Z" transform="translate(-241 -382.02)" fill="#a8d3d8"/>
      </g>
      <path id="Trazado_9068" data-name="Trazado 9068" d="M177.318,185.613H126.461A4.461,4.461,0,0,1,122,181.152v-33.9a4.461,4.461,0,0,1,4.461-4.461h50.857a4.461,4.461,0,0,1,4.461,4.461v33.9A4.461,4.461,0,0,1,177.318,185.613Z" transform="translate(-5.827 -110.937)" fill="#ffd15b"/>
      <path id="Trazado_9069" data-name="Trazado 9069" d="M346.692,142.786H340a4.461,4.461,0,0,1,4.461,4.461v33.9A4.461,4.461,0,0,1,340,185.613h6.692a4.461,4.461,0,0,0,4.461-4.461v-33.9A4.461,4.461,0,0,0,346.692,142.786Z" transform="translate(-175.201 -110.937)" fill="#ffc344"/>
      <path id="Trazado_9070" data-name="Trazado 9070" d="M195.981,20.783V32.217h-8.856V20.783a4.428,4.428,0,0,0-4.428-4.428h-9.36a4.428,4.428,0,0,0-4.428,4.428V37.677h-8.856V20.783A13.283,13.283,0,0,1,173.337,7.5h9.36A13.284,13.284,0,0,1,195.981,20.783Z" transform="translate(-35.393 -5.827)" fill="#cbe5e8"/>
      <g id="Grupo_24916" data-name="Grupo 24916" transform="translate(128.444 1.673)">
        <path id="Trazado_9071" data-name="Trazado 9071" d="M177.012,51.629V68.523h5.073V51.629a4.428,4.428,0,0,1,4.428-4.428H181.44A4.428,4.428,0,0,0,177.012,51.629Z" transform="translate(-177.012 -38.345)" fill="#a8d3d8"/>
        <path id="Trazado_9072" data-name="Trazado 9072" d="M243.9,7.5h-5.073a13.283,13.283,0,0,1,13.283,13.283V32.217h5.073V20.783A13.284,13.284,0,0,0,243.9,7.5Z" transform="translate(-225.038 -7.5)" fill="#a8d3d8"/>
      </g>
      <ellipse id="Elipse_1360" data-name="Elipse 1360" cx="13.606" cy="8.699" rx="13.606" ry="8.699" transform="translate(132.456 44.564)" fill="#918291"/>
      <g id="Grupo_24917" data-name="Grupo 24917" transform="translate(114.5 0)">
        <path id="Trazado_9073" data-name="Trazado 9073" d="M241.1,434.3a6,6,0,1,0-6,6A6.005,6.005,0,0,0,241.1,434.3Zm-8.651,0a2.653,2.653,0,1,1,2.653,2.653A2.656,2.656,0,0,1,232.453,434.3Z" transform="translate(-203.543 -332.765)"/>
        <path id="Trazado_9074" data-name="Trazado 9074" d="M175.952,42.075a1.673,1.673,0,0,0,1.673-1.673V36.31a6.141,6.141,0,0,0-6.134-6.134h-36.3V14.956a2.758,2.758,0,0,1,2.755-2.755h9.36a2.758,2.758,0,0,1,2.755,2.755V26.39a1.673,1.673,0,0,0,1.673,1.673h8.856a1.673,1.673,0,0,0,1.673-1.673V14.956A14.974,14.974,0,0,0,147.3,0h-9.36a14.974,14.974,0,0,0-14.957,14.956v15.22h-2.354A6.141,6.141,0,0,0,114.5,36.31v33.9a6.141,6.141,0,0,0,6.134,6.134h18.848v8.674a15.3,15.3,0,0,0-3.508,2.3,1.673,1.673,0,0,0,2.2,2.519,11.948,11.948,0,1,1-3.644,5.738,1.673,1.673,0,1,0-3.218-.917,15.335,15.335,0,1,0,21.328-9.64V76.349h18.848a6.141,6.141,0,0,0,6.134-6.134v-21.9a1.673,1.673,0,1,0-3.346,0v21.9A2.791,2.791,0,0,1,171.491,73H120.634a2.791,2.791,0,0,1-2.788-2.788v-33.9a2.791,2.791,0,0,1,2.788-2.788h50.857a2.791,2.791,0,0,1,2.788,2.788V40.4a1.673,1.673,0,0,0,1.673,1.673ZM149.3,83.886a15.243,15.243,0,0,0-6.469,0V76.349H149.3ZM126.334,14.956A11.624,11.624,0,0,1,137.945,3.346h9.36a11.624,11.624,0,0,1,11.611,11.611v9.761h-5.51V14.956a6.108,6.108,0,0,0-6.1-6.1h-9.36a6.108,6.108,0,0,0-6.1,6.1v15.22h-5.51V14.956Z" transform="translate(-114.5 0)"/>
        <path id="Trazado_9075" data-name="Trazado 9075" d="M187.5,202.659c0,5.816,6.712,10.372,15.279,10.372s15.279-4.556,15.279-10.372-6.712-10.372-15.279-10.372S187.5,196.843,187.5,202.659Zm27.213,0c0,3.809-5.465,7.026-11.934,7.026s-11.934-3.218-11.934-7.026,5.465-7.026,11.934-7.026S214.713,198.85,214.713,202.659Z" transform="translate(-171.217 -149.396)"/>
      </g>
    </g>
  </g>
</svg>
