<svg xmlns="http://www.w3.org/2000/svg" width="165" height="165" viewBox="0 0 165 165">
  <g id="Grupo_24919" data-name="Grupo 24919" transform="translate(-6025 -2459)">
    <g id="Rectángulo_5768" data-name="Rectángulo 5768" transform="translate(6025 2459)" fill="#fff" stroke="#039be5" stroke-width="2">
      <rect width="165" height="165" rx="10" stroke="none"/>
      <rect x="1" y="1" width="163" height="163" rx="9" fill="none"/>
    </g>
    <g id="base-de-datos" transform="translate(6054.518 2488.514)">
      <g id="Grupo_24853" data-name="Grupo 24853" transform="translate(2.557 1.658)">
        <g id="Grupo_24851" data-name="Grupo 24851" transform="translate(0 17.221)">
          <path id="Trazado_8908" data-name="Trazado 8908" d="M58.285,98.629c0-4.1-10.28-7.423-22.961-7.423S12.362,94.53,12.362,98.63v53.7c0,9.725,45.923,9.725,45.923,0Z" transform="translate(-12.362 -91.206)" fill="#ffe177" fill-rule="evenodd"/>
          <path id="Trazado_8909" data-name="Trazado 8909" d="M146.266,98.629c0-4.1-10.28-7.423-22.961-7.423v68.422c11.481,0,22.961-2.431,22.961-7.294Z" transform="translate(-100.343 -91.206)" fill="#ffd064" fill-rule="evenodd"/>
          <path id="Trazado_8910" data-name="Trazado 8910" d="M58.285,127.074V140.5c0,9.725-45.923,9.725-45.923,0V127.074C12.362,136.8,58.285,136.8,58.285,127.074Z" transform="translate(-12.362 -119.65)" fill="#ffd064" fill-rule="evenodd"/>
          <path id="Trazado_8911" data-name="Trazado 8911" d="M146.266,127.074V140.5c0,4.863-11.481,7.294-22.961,7.294V134.368C134.786,134.368,146.266,131.937,146.266,127.074Z" transform="translate(-100.343 -119.65)" fill="#ffc344" fill-rule="evenodd"/>
          <path id="Trazado_8912" data-name="Trazado 8912" d="M58.285,256.814V270.24c0,9.725-45.923,9.725-45.923,0V256.814C12.362,266.539,58.285,266.539,58.285,256.814Z" transform="translate(-12.362 -222.538)" fill="#ffd064" fill-rule="evenodd"/>
          <path id="Trazado_8913" data-name="Trazado 8913" d="M146.266,256.814V270.24c0,4.863-11.481,7.294-22.961,7.294V264.108C134.786,264.108,146.266,261.677,146.266,256.814Z" transform="translate(-100.343 -222.538)" fill="#ffc344" fill-rule="evenodd"/>
        </g>
        <g id="Grupo_24852" data-name="Grupo 24852" transform="translate(73.358)">
          <path id="Trazado_8914" data-name="Trazado 8914" d="M369.888,8h18.407a3.089,3.089,0,0,1,3.083,3.083V27.637a3.089,3.089,0,0,1-3.083,3.083H369.888a3.089,3.089,0,0,1-3.083-3.083V11.085A3.089,3.089,0,0,1,369.888,8Z" transform="translate(-366.805 -8.002)" fill="#5cd6b3" fill-rule="evenodd"/>
          <path id="Trazado_8915" data-name="Trazado 8915" d="M426.169,8h9.2a3.089,3.089,0,0,1,3.083,3.083V27.636a3.089,3.089,0,0,1-3.083,3.083h-9.2Z" transform="translate(-413.883 -8.001)" fill="#8de5cc" fill-rule="evenodd"/>
          <path id="Trazado_8916" data-name="Trazado 8916" d="M369.888,201.117h18.407a3.089,3.089,0,0,1,3.083,3.083v16.552a3.089,3.089,0,0,1-3.083,3.083H369.888a3.089,3.089,0,0,1-3.083-3.083V204.2A3.089,3.089,0,0,1,369.888,201.117Z" transform="translate(-366.805 -161.148)" fill="#5cd6b3" fill-rule="evenodd"/>
          <path id="Trazado_8917" data-name="Trazado 8917" d="M426.169,201.117h9.2a3.089,3.089,0,0,1,3.083,3.083v16.552a3.089,3.089,0,0,1-3.083,3.083h-9.2Z" transform="translate(-413.883 -161.148)" fill="#8de5cc" fill-rule="evenodd"/>
          <path id="Trazado_8918" data-name="Trazado 8918" d="M369.888,394.233h18.407a3.089,3.089,0,0,1,3.083,3.083v16.552a3.089,3.089,0,0,1-3.083,3.083H369.888a3.089,3.089,0,0,1-3.083-3.083V397.316A3.089,3.089,0,0,1,369.888,394.233Z" transform="translate(-366.805 -314.295)" fill="#5cd6b3" fill-rule="evenodd"/>
          <path id="Trazado_8919" data-name="Trazado 8919" d="M426.169,394.233h9.2a3.089,3.089,0,0,1,3.083,3.083v16.552a3.089,3.089,0,0,1-3.083,3.083h-9.2Z" transform="translate(-413.883 -314.295)" fill="#8de5cc" fill-rule="evenodd"/>
        </g>
      </g>
      <path id="Trazado_8920" data-name="Trazado 8920" d="M46.893,80.473V71.78a20.443,20.443,0,0,1-5.222,2.161A63.744,63.744,0,0,1,25.1,75.866a63.759,63.759,0,0,1-16.57-1.925A20.435,20.435,0,0,1,3.31,71.78v8.692c0,2.8,8.757,5.791,21.791,5.791s21.792-3,21.792-5.791ZM3.31,66.761V58.071a20.427,20.427,0,0,0,5.221,2.161A63.839,63.839,0,0,0,25.1,62.156a63.833,63.833,0,0,0,16.57-1.925,20.436,20.436,0,0,0,5.222-2.161v8.693c0,2.8-8.759,5.791-21.792,5.791a61.339,61.339,0,0,1-15.67-1.8C5.6,69.673,3.31,68.179,3.31,66.761Zm0-13.71c0,2.8,8.757,5.793,21.791,5.793a61.3,61.3,0,0,0,15.67-1.8c3.832-1.082,6.12-2.573,6.122-3.99V44.359a20.362,20.362,0,0,1-5.222,2.161A63.734,63.734,0,0,1,25.1,48.445,63.749,63.749,0,0,1,8.531,46.52,20.354,20.354,0,0,1,3.31,44.359v8.693Zm0-13.71V30.65A20.442,20.442,0,0,0,8.531,32.81c1.122.317,2.34.6,3.637.838A65.658,65.658,0,0,0,25.1,34.867a65.686,65.686,0,0,0,12.934-1.219c1.3-.242,2.514-.521,3.636-.838a20.459,20.459,0,0,0,5.222-2.161v8.692c0,2.8-8.759,5.791-21.792,5.791a61.42,61.42,0,0,1-15.67-1.8C5.6,42.252,3.31,40.76,3.31,39.342Zm0-13.712v0c0,1.281,2.877,3.247,8.467,4.56A67.345,67.345,0,0,0,25.1,31.423a64.713,64.713,0,0,0,13.647-1.308c5.375-1.313,8.143-3.227,8.144-4.483v0c0-2.068-7.484-5.923-21.792-5.923S3.31,23.563,3.31,25.63Zm46.894,0V80.472c0,3.165-2.871,5.58-8.533,7.18A63.849,63.849,0,0,1,25.1,89.575a63.856,63.856,0,0,1-16.57-1.923C2.869,86.053,0,83.637,0,80.472V25.63C0,19.569,12.627,16.4,25.1,16.4s25.1,3.173,25.1,9.235ZM69.83,54.641a1.656,1.656,0,0,0,0-3.311H62.979V14.394H69.83a1.656,1.656,0,0,0,0-3.311H61.323a1.657,1.657,0,0,0-1.656,1.656V51.33H55.644a1.656,1.656,0,1,0,0,3.311h4.023V93.232a1.656,1.656,0,0,0,1.656,1.656H69.83a1.656,1.656,0,0,0,0-3.311H62.979V54.641ZM103.2,86.351l-10.24,9.295-3.583-3.583A1.656,1.656,0,0,0,87.03,94.4l4.7,4.7a1.654,1.654,0,0,0,2.283.054l4.521-4.1v7.6H77.871V83.807h22.315a1.656,1.656,0,1,0,0-3.311H76.216a1.656,1.656,0,0,0-1.656,1.656v22.162a1.656,1.656,0,0,0,1.656,1.656h23.97a1.656,1.656,0,0,0,1.656-1.656V92.051l3.581-3.249a1.656,1.656,0,1,0-2.227-2.451ZM76.216,65.722h23.97a1.655,1.655,0,0,0,1.656-1.656V51.833c0-.008,0-.019,0-.029l3.583-3.25A1.656,1.656,0,1,0,103.2,46.1L92.956,55.4l-3.583-3.583a1.657,1.657,0,0,0-2.342,2.343l4.7,4.7a1.654,1.654,0,0,0,2.283.054l4.521-4.1v7.6H77.872V43.56h22.315a1.656,1.656,0,1,0,0-3.311H76.216A1.655,1.655,0,0,0,74.56,41.9V64.066a1.655,1.655,0,0,0,1.656,1.656Zm-1.656-41.9V1.657A1.655,1.655,0,0,1,76.216,0h23.97a1.656,1.656,0,1,1,0,3.311H77.872v18.85h20.66v-7.6l-4.521,4.1a1.644,1.644,0,0,1-1.111.43,1.662,1.662,0,0,1-1.172-.484l-4.7-4.7a1.656,1.656,0,0,1,2.342-2.343l3.583,3.582L103.2,5.855a1.657,1.657,0,0,1,2.227,2.453l-3.581,3.249V23.819a1.655,1.655,0,0,1-1.656,1.656H76.216a1.655,1.655,0,0,1-1.656-1.656Z" fill-rule="evenodd"/>
    </g>
  </g>
</svg>
