<svg xmlns="http://www.w3.org/2000/svg" width="165" height="165" viewBox="0 0 165 165">
  <g id="Grupo_24920" data-name="Grupo 24920" transform="translate(-6229 -2459)">
    <g id="Rectángulo_5769" data-name="Rectángulo 5769" transform="translate(6229 2459)" fill="#fff" stroke="#039be5" stroke-width="2">
      <rect width="165" height="165" rx="10" stroke="none"/>
      <rect x="1" y="1" width="163" height="163" rx="9" fill="none"/>
    </g>
    <g id="Database-Server-Storage-Network-Sharing" transform="translate(6259.59 2486.516)">
      <path id="Trazado_8921" data-name="Trazado 8921" d="M72.946,51v9.982c0,3.677-6.7,6.655-14.973,6.655S43,64.659,43,60.982V51c0,3.677,6.7,6.655,14.973,6.655S72.946,54.677,72.946,51Z" transform="translate(27.211 32.521)" fill="#5aaae7"/>
      <ellipse id="Elipse_1350" data-name="Elipse 1350" cx="14.919" cy="6.394" rx="14.919" ry="6.394" transform="translate(70.2 67.003)" fill="#5aaae7"/>
      <path id="Trazado_8922" data-name="Trazado 8922" d="M72.946,45v9.982c0,3.677-6.7,6.655-14.973,6.655S43,58.659,43,54.982V45c0,3.677,6.7,6.655,14.973,6.655S72.946,48.677,72.946,45Z" transform="translate(27.211 28.538)" fill="#3d9ae2"/>
      <path id="Trazado_8923" data-name="Trazado 8923" d="M32.946,51v9.982c0,3.677-6.7,6.655-14.973,6.655S3,64.659,3,60.982V51c0,3.677,6.7,6.655,14.973,6.655S32.946,54.677,32.946,51Z" transform="translate(0.664 32.521)" fill="#5aaae7"/>
      <ellipse id="Elipse_1351" data-name="Elipse 1351" cx="14.919" cy="6.394" rx="14.919" ry="6.394" transform="translate(4.131 67.003)" fill="#5aaae7"/>
      <path id="Trazado_8924" data-name="Trazado 8924" d="M32.946,45v9.982c0,3.677-6.7,6.655-14.973,6.655S3,58.659,3,54.982V45c0,3.677,6.7,6.655,14.973,6.655S32.946,48.677,32.946,45Z" transform="translate(0.664 28.538)" fill="#3d9ae2"/>
      <circle id="Elipse_1352" data-name="Elipse 1352" cx="3.73" cy="3.73" r="3.73" transform="translate(11.591 53.15)" fill="#ff9811"/>
      <path id="Trazado_8925" data-name="Trazado 8925" d="M55.446,33.972h5.474a8.318,8.318,0,0,1,0,16.637h-36.6a8.318,8.318,0,1,1,0-16.637h1.963a4.968,4.968,0,0,1,6.738-6.206,11.634,11.634,0,0,1,22.909,2.878,11.493,11.493,0,0,1-.482,3.327Z" transform="translate(9.292 11.283)" fill="#8de5cc"/>
      <circle id="Elipse_1353" data-name="Elipse 1353" cx="3.197" cy="3.197" r="3.197" transform="translate(85.118 43.559)" fill="#ff9811"/>
      <ellipse id="Elipse_1354" data-name="Elipse 1354" cx="14.919" cy="6.394" rx="14.919" ry="6.394" transform="translate(70.2 4.131)" fill="#5aaae7"/>
      <path id="Trazado_8926" data-name="Trazado 8926" d="M72.946,13v9.982c0,3.677-6.7,6.655-14.973,6.655S43,26.659,43,22.982V13c0,3.677,6.7,6.655,14.973,6.655S72.946,16.677,72.946,13Z" transform="translate(27.211 7.301)" fill="#5aaae7"/>
      <path id="Trazado_8927" data-name="Trazado 8927" d="M72.946,7v9.982c0,3.677-6.7,6.655-14.973,6.655S43,20.659,43,16.982V7c0,3.677,6.7,6.655,14.973,6.655S72.946,10.677,72.946,7Z" transform="translate(27.211 3.318)" fill="#3d9ae2"/>
      <path id="Trazado_8928" data-name="Trazado 8928" d="M17.973,13.655c8.269,0,14.973-2.978,14.973-6.655v9.982c0,3.677-6.7,6.655-14.973,6.655S3,20.659,3,16.982V7C3,10.677,9.7,13.655,17.973,13.655Z" transform="translate(0.664 3.318)" fill="#3d9ae2"/>
      <path id="Trazado_8929" data-name="Trazado 8929" d="M32.946,13v9.982c0,3.677-6.7,6.655-14.973,6.655S3,26.659,3,22.982V13c0,3.677,6.7,6.655,14.973,6.655S32.946,16.677,32.946,13Z" transform="translate(0.664 7.301)" fill="#5aaae7"/>
      <ellipse id="Elipse_1355" data-name="Elipse 1355" cx="14.919" cy="6.394" rx="14.919" ry="6.394" transform="translate(4.131 4.131)" fill="#5aaae7"/>
      <path id="Trazado_8930" data-name="Trazado 8930" d="M15,42.941a9.992,9.992,0,0,0,9.982,9.982h36.6a9.982,9.982,0,1,0,0-19.964H58.151A13.309,13.309,0,0,0,32.59,26.374a6.513,6.513,0,0,0-.953-.07,6.655,6.655,0,0,0-6.655,6.655A9.992,9.992,0,0,0,15,42.941Zm11.952-6.655a1.664,1.664,0,0,0,1.567-2.218,3.3,3.3,0,0,1,4.47-4.139,1.664,1.664,0,0,0,2.3-1.106,9.982,9.982,0,1,1,19.224,5.324A1.664,1.664,0,0,0,56.1,36.286h5.48a6.655,6.655,0,1,1,0,13.309h-36.6a6.655,6.655,0,0,1,0-13.309Z" transform="translate(8.628 10.633)"/>
      <path id="Trazado_8931" data-name="Trazado 8931" d="M35,27h3.327v3.327H35Z" transform="translate(21.902 16.592)"/>
      <path id="Trazado_8932" data-name="Trazado 8932" d="M31,27h3.327v3.327H31Z" transform="translate(19.247 16.592)"/>
      <path id="Trazado_8933" data-name="Trazado 8933" d="M67.645,25H64.318v4.991H60.684a4.991,4.991,0,1,0,0,3.327h5.3a1.664,1.664,0,0,0,1.664-1.664ZM56,33.318a1.664,1.664,0,1,1,1.664-1.664A1.664,1.664,0,0,1,56,33.318Z" transform="translate(32.512 15.265)"/>
      <path id="Trazado_8934" data-name="Trazado 8934" d="M52,34h3.327v3.327H52Z" transform="translate(33.184 21.238)"/>
      <path id="Trazado_8935" data-name="Trazado 8935" d="M3,41.982H6.327V38.655H9.961a4.991,4.991,0,1,0,0-3.327h-5.3A1.664,1.664,0,0,0,3,36.991Zm11.646-6.655a1.664,1.664,0,1,1-1.664,1.664A1.664,1.664,0,0,1,14.646,35.328Z" transform="translate(0.664 19.91)"/>
      <path id="Trazado_8936" data-name="Trazado 8936" d="M3,25v6.655a1.664,1.664,0,0,0,1.664,1.664H9.655V29.991H6.327V25Z" transform="translate(0.664 15.265)"/>
      <path id="Trazado_8937" data-name="Trazado 8937" d="M9,28h3.327v3.327H9Z" transform="translate(4.646 17.256)"/>
      <path id="Trazado_8938" data-name="Trazado 8938" d="M58.637,40C49.154,40,42,43.577,42,48.318V68.283c0,4.742,7.154,8.318,16.637,8.318s16.637-3.577,16.637-8.318V48.318C75.274,43.577,68.12,40,58.637,40ZM71.946,68.283c0,2.03-5.191,4.991-13.309,4.991s-13.309-2.961-13.309-4.991V63.391a24.831,24.831,0,0,0,13.309,3.228,24.831,24.831,0,0,0,13.309-3.228Zm0-9.982c0,2.03-5.191,4.991-13.309,4.991S45.327,60.33,45.327,58.3V53.409a24.831,24.831,0,0,0,13.309,3.228,24.831,24.831,0,0,0,13.309-3.228ZM58.637,53.309c-8.119,0-13.309-2.961-13.309-4.991s5.191-4.991,13.309-4.991,13.309,2.961,13.309,4.991S66.756,53.309,58.637,53.309Z" transform="translate(26.547 25.22)"/>
      <path id="Trazado_8939" data-name="Trazado 8939" d="M48,44H61.309v3.327H48Z" transform="translate(30.529 27.875)"/>
      <path id="Trazado_8940" data-name="Trazado 8940" d="M18.637,40C9.154,40,2,43.577,2,48.318V68.283C2,73.024,9.154,76.6,18.637,76.6s16.637-3.577,16.637-8.318V48.318C35.274,43.577,28.12,40,18.637,40ZM31.946,68.283c0,2.03-5.191,4.991-13.309,4.991S5.327,70.312,5.327,68.283V63.391a24.831,24.831,0,0,0,13.309,3.228,24.83,24.83,0,0,0,13.309-3.228Zm0-9.982c0,2.03-5.191,4.991-13.309,4.991S5.327,60.33,5.327,58.3V53.409a24.831,24.831,0,0,0,13.309,3.228,24.83,24.83,0,0,0,13.309-3.228ZM18.637,53.309c-8.119,0-13.309-2.961-13.309-4.991s5.191-4.991,13.309-4.991,13.309,2.961,13.309,4.991S26.756,53.309,18.637,53.309Z" transform="translate(0 25.22)"/>
      <path id="Trazado_8941" data-name="Trazado 8941" d="M8,44H21.309v3.327H8Z" transform="translate(3.982 27.875)"/>
      <path id="Trazado_8942" data-name="Trazado 8942" d="M18.637,2C9.154,2,2,5.577,2,10.318V30.283C2,35.024,9.154,38.6,18.637,38.6s16.637-3.577,16.637-8.318V10.318C35.274,5.577,28.12,2,18.637,2ZM31.946,30.283c0,2.03-5.191,4.991-13.309,4.991S5.327,32.312,5.327,30.283V25.391a24.83,24.83,0,0,0,13.309,3.228,24.83,24.83,0,0,0,13.309-3.228Zm0-9.982c0,2.03-5.191,4.991-13.309,4.991S5.327,22.33,5.327,20.3V15.409a24.83,24.83,0,0,0,13.309,3.228,24.83,24.83,0,0,0,13.309-3.228ZM18.637,15.309c-8.119,0-13.309-2.961-13.309-4.991s5.191-4.991,13.309-4.991,13.309,2.961,13.309,4.991S26.756,15.309,18.637,15.309Z" transform="translate(0 0)"/>
      <path id="Trazado_8943" data-name="Trazado 8943" d="M8,6H21.309V9.327H8Z" transform="translate(3.982 2.655)"/>
      <path id="Trazado_8944" data-name="Trazado 8944" d="M58.637,2C49.154,2,42,5.577,42,10.318V30.283c0,4.741,7.154,8.318,16.637,8.318s16.637-3.577,16.637-8.318V10.318C75.274,5.577,68.12,2,58.637,2ZM71.946,30.283c0,2.03-5.191,4.991-13.309,4.991s-13.309-2.961-13.309-4.991V25.391a24.83,24.83,0,0,0,13.309,3.228,24.831,24.831,0,0,0,13.309-3.228Zm0-9.982c0,2.03-5.191,4.991-13.309,4.991S45.327,22.33,45.327,20.3V15.409a24.83,24.83,0,0,0,13.309,3.228,24.831,24.831,0,0,0,13.309-3.228ZM58.637,15.309c-8.119,0-13.309-2.961-13.309-4.991s5.191-4.991,13.309-4.991,13.309,2.961,13.309,4.991S66.756,15.309,58.637,15.309Z" transform="translate(26.547 0)"/>
      <path id="Trazado_8945" data-name="Trazado 8945" d="M48,6H61.309V9.327H48Z" transform="translate(30.529 2.655)"/>
      <path id="Trazado_8946" data-name="Trazado 8946" d="M64.318,42.318V35.664A1.664,1.664,0,0,0,62.655,34H56v3.327h4.991v4.991Z" transform="translate(35.839 21.238)"/>
    </g>
  </g>
</svg>
