<svg xmlns="http://www.w3.org/2000/svg" width="165" height="165" viewBox="0 0 165 165">
  <g id="Grupo_24940" data-name="Grupo 24940" transform="translate(-7874 -2459)">
    <g id="Rectángulo_5777" data-name="Rectángulo 5777" transform="translate(7874 2459)" fill="#fff" stroke="#039be5" stroke-width="2">
      <rect width="165" height="165" rx="10" stroke="none"/>
      <rect x="1" y="1" width="163" height="163" rx="9" fill="none"/>
    </g>
    <g id="problema" transform="translate(7908.225 2493.225)">
      <g id="Grupo_24938" data-name="Grupo 24938" transform="translate(2.159 2.159)">
        <g id="Grupo_24928" data-name="Grupo 24928" transform="translate(71.481 77.411)">
          <path id="Trazado_9076" data-name="Trazado 9076" d="M67.789,55.482v8.895a1.487,1.487,0,0,1-1.482,1.482H51.482A1.487,1.487,0,0,1,50,64.377V55.482A1.487,1.487,0,0,1,51.482,54H66.307A1.487,1.487,0,0,1,67.789,55.482Z" transform="translate(-50 -54)" fill="#4dd0e1"/>
        </g>
        <g id="Grupo_24929" data-name="Grupo 24929" transform="translate(71.481 21.078)">
          <path id="Trazado_9077" data-name="Trazado 9077" d="M67.789,17.482v8.895a1.487,1.487,0,0,1-1.482,1.482H51.482A1.487,1.487,0,0,1,50,26.377V17.482A1.487,1.487,0,0,1,51.482,16H66.307A1.487,1.487,0,0,1,67.789,17.482Z" transform="translate(-50 -16)" fill="#4dd0e1"/>
        </g>
        <g id="Grupo_24930" data-name="Grupo 24930" transform="translate(71.481 0.323)">
          <path id="Trazado_9078" data-name="Trazado 9078" d="M67.789,3.482v8.895a1.487,1.487,0,0,1-1.482,1.482H51.482A1.487,1.487,0,0,1,50,12.377V3.482A1.487,1.487,0,0,1,51.482,2H66.307A1.487,1.487,0,0,1,67.789,3.482Z" transform="translate(-50 -2)" fill="#44cadd"/>
        </g>
        <g id="Grupo_24931" data-name="Grupo 24931" transform="translate(53.691 59.622)">
          <path id="Trazado_9079" data-name="Trazado 9079" d="M55.789,43.482v8.895a1.487,1.487,0,0,1-1.482,1.482H39.482A1.487,1.487,0,0,1,38,52.377V43.482A1.487,1.487,0,0,1,39.482,42H54.307A1.487,1.487,0,0,1,55.789,43.482Z" transform="translate(-38 -42)" fill="#4dd0e1"/>
        </g>
        <g id="Grupo_24932" data-name="Grupo 24932" transform="translate(71.481 41.832)">
          <path id="Trazado_9080" data-name="Trazado 9080" d="M67.789,31.482v8.895a1.487,1.487,0,0,1-1.482,1.482H51.482A1.487,1.487,0,0,1,50,40.377V31.482A1.487,1.487,0,0,1,51.482,30H66.307A1.487,1.487,0,0,1,67.789,31.482Z" transform="translate(-50 -30)" fill="#4dd0e1"/>
        </g>
        <g id="Grupo_24933" data-name="Grupo 24933" transform="translate(21.077 65.551)">
          <path id="Trazado_9081" data-name="Trazado 9081" d="M30.825,48.965V66.754a2.974,2.974,0,0,1-2.965,2.965H18.965A2.974,2.974,0,0,1,16,66.754V46H30.825Z" transform="translate(-16 -46)" fill="#969faa"/>
        </g>
        <g id="Grupo_24934" data-name="Grupo 24934" transform="translate(21.077 55.663)">
          <path id="Trazado_9082" data-name="Trazado 9082" d="M30.825,39.33v9.888H16V39.33a28.154,28.154,0,0,0,14.825,0Z" transform="translate(-16 -39.33)" fill="#ccd1d9"/>
        </g>
        <g id="Grupo_24935" data-name="Grupo 24935" transform="translate(0 0)">
          <circle id="Elipse_1361" data-name="Elipse 1361" cx="28.552" cy="28.552" r="28.552" fill="#e6e9ed"/>
        </g>
        <g id="Grupo_24936" data-name="Grupo 24936" transform="translate(6.253 6.253)">
          <path id="Trazado_9083" data-name="Trazado 9083" d="M50.474,28.237a21.969,21.969,0,0,1-.445,4.447,22.252,22.252,0,1,1-.83-11.86,21.854,21.854,0,0,1,1.216,5.93C50.459,27.244,50.474,27.733,50.474,28.237Z" transform="translate(-6 -6)" fill="#ffca28"/>
        </g>
        <g id="Grupo_24937" data-name="Grupo 24937" transform="translate(15.148 15.148)">
          <path id="Trazado_9084" data-name="Trazado 9084" d="M38.684,22.377v5.93H36.075a1.483,1.483,0,0,0-1.038,2.535l1.838,1.838-4.2,4.2-1.838-1.838a1.483,1.483,0,0,0-2.535,1.038v2.609h-5.93V36.075a1.483,1.483,0,0,0-2.535-1.038L18,36.876l-4.2-4.2,1.838-1.838a1.483,1.483,0,0,0-1.038-2.535H12v-5.93h2.609a1.483,1.483,0,0,0,1.038-2.535L13.809,18l4.2-4.2,1.838,1.838a1.483,1.483,0,0,0,2.535-1.038V12h5.93v2.609a1.483,1.483,0,0,0,2.535,1.038l1.838-1.838,4.2,4.2-1.838,1.838a1.483,1.483,0,0,0,1.038,2.535Zm-8.895,2.965a4.447,4.447,0,1,0-4.447,4.447A4.441,4.441,0,0,0,29.789,25.342Z" transform="translate(-12 -12)" fill="#fcd770"/>
        </g>
      </g>
      <g id="Grupo_24939" data-name="Grupo 24939" transform="translate(1 1)">
        <path id="Trazado_9085" data-name="Trazado 9085" d="M40.649,21.377H36.562l2.891-2.891L33.163,12.2l-2.891,2.891V11H21.377v4.089L18.486,12.2,12.2,18.486l2.891,2.891H11v8.895h4.087L12.2,33.161l6.29,6.29,2.891-2.891v4.089h8.895V36.56l2.891,2.891,6.29-6.29-2.891-2.889h4.087Zm-2.965,5.93H36.562a2.964,2.964,0,0,0-2.1,5.061l.795.793-2.1,2.1-.795-.795a2.964,2.964,0,0,0-5.061,2.1v1.124H24.342V36.56a2.964,2.964,0,0,0-5.061-2.1l-.795.795-2.1-2.1.795-.793a2.964,2.964,0,0,0-2.1-5.061H13.965V24.342h1.122a2.964,2.964,0,0,0,2.1-5.061l-.795-.795,2.1-2.1.795.795a2.964,2.964,0,0,0,5.061-2.1V13.965h2.965v1.124a2.964,2.964,0,0,0,5.061,2.1l.795-.795,2.1,2.1-.795.795a2.964,2.964,0,0,0,2.1,5.061h1.122Z" transform="translate(3.825 3.825)"/>
        <path id="Trazado_9086" data-name="Trazado 9086" d="M22.93,17a5.93,5.93,0,1,0,5.93,5.93A5.936,5.936,0,0,0,22.93,17Zm0,8.895a2.965,2.965,0,1,1,2.965-2.965A2.968,2.968,0,0,1,22.93,25.895Z" transform="translate(6.719 6.719)"/>
        <path id="Trazado_9087" data-name="Trazado 9087" d="M89.947,1H75.123a2.968,2.968,0,0,0-2.965,2.965V6.93H63.263V21.754h-4.35A29.641,29.641,0,1,0,21.754,58.931V88.465A4.453,4.453,0,0,0,26.2,92.912H35.1a4.453,4.453,0,0,0,4.447-4.447V81.052H63.263v5.93h8.895v2.965a2.968,2.968,0,0,0,2.965,2.965H89.947a2.968,2.968,0,0,0,2.965-2.965V81.052a2.968,2.968,0,0,0-2.965-2.965H75.123a2.968,2.968,0,0,0-2.965,2.965v2.965h-5.93v-5.93H39.544v-5.93H51.4v-5.93h2.965v5.93a2.968,2.968,0,0,0,2.965,2.965H72.158a2.968,2.968,0,0,0,2.965-2.965V63.263A2.968,2.968,0,0,0,72.158,60.3H57.333a2.968,2.968,0,0,0-2.965,2.965h-5.93v5.93H39.544V58.93A29.413,29.413,0,0,0,59.676,36.579h3.588V51.4h8.895v2.965a2.968,2.968,0,0,0,2.965,2.965H89.947a2.968,2.968,0,0,0,2.965-2.965V45.474a2.968,2.968,0,0,0-2.965-2.965H75.123a2.968,2.968,0,0,0-2.965,2.965v2.965h-5.93V33.614H48.439v2.965h2.105a20.775,20.775,0,1,1-1.152-14.825h-.953v2.965H66.228V9.895h5.93V12.86a2.968,2.968,0,0,0,2.965,2.965H89.947a2.968,2.968,0,0,0,2.965-2.965V3.965A2.968,2.968,0,0,0,89.947,1ZM75.123,81.052H89.947v8.895H75.123ZM57.333,63.263H72.158v8.895H57.333ZM75.123,45.474H89.947v8.895H75.123ZM35.1,89.947H26.2a1.484,1.484,0,0,1-1.482-1.482V69.193h11.86V88.465A1.484,1.484,0,0,1,35.1,89.947Zm1.482-23.719H24.719V59.7a29.719,29.719,0,0,0,5.93.6,30.074,30.074,0,0,0,5.93-.6Zm-5.93-59.3A23.719,23.719,0,1,0,53.6,36.579h3.054A26.661,26.661,0,1,1,55.8,21.754H52.623A23.75,23.75,0,0,0,30.649,6.93Zm44.474,5.93V3.965H89.947V12.86Z" transform="translate(-1 -1)"/>
        <path id="Trazado_9088" data-name="Trazado 9088" d="M53,5h2.965V7.965H53Z" transform="translate(24.088 0.93)"/>
        <path id="Trazado_9089" data-name="Trazado 9089" d="M57,5h2.965V7.965H57Z" transform="translate(26.017 0.93)"/>
        <path id="Trazado_9090" data-name="Trazado 9090" d="M74.509,15H59.684a2.968,2.968,0,0,0-2.965,2.965V20.93H33v2.965H56.719V26.86a2.968,2.968,0,0,0,2.965,2.965H74.509a2.968,2.968,0,0,0,2.965-2.965V17.965A2.968,2.968,0,0,0,74.509,15ZM59.684,26.86V17.965H74.509V26.86Z" transform="translate(14.439 5.754)"/>
        <path id="Trazado_9091" data-name="Trazado 9091" d="M53,19h2.965v2.965H53Z" transform="translate(24.088 7.684)"/>
        <path id="Trazado_9092" data-name="Trazado 9092" d="M57,19h2.965v2.965H57Z" transform="translate(26.017 7.684)"/>
        <path id="Trazado_9093" data-name="Trazado 9093" d="M53,33h2.965v2.965H53Z" transform="translate(24.088 14.439)"/>
        <path id="Trazado_9094" data-name="Trazado 9094" d="M57,33h2.965v2.965H57Z" transform="translate(26.017 14.439)"/>
        <path id="Trazado_9095" data-name="Trazado 9095" d="M41,45h2.965v2.965H41Z" transform="translate(18.298 20.228)"/>
        <path id="Trazado_9096" data-name="Trazado 9096" d="M45,45h2.965v2.965H45Z" transform="translate(20.228 20.228)"/>
        <path id="Trazado_9097" data-name="Trazado 9097" d="M53,57h2.965v2.965H53Z" transform="translate(24.088 26.017)"/>
        <path id="Trazado_9098" data-name="Trazado 9098" d="M57,57h2.965v2.965H57Z" transform="translate(26.017 26.017)"/>
      </g>
    </g>
  </g>
</svg>
