<svg xmlns="http://www.w3.org/2000/svg" width="165" height="165" viewBox="0 0 165 165">
  <g id="Grupo_24918" data-name="Grupo 24918" transform="translate(-5825 -2459)">
    <g id="Rectángulo_5767" data-name="Rectángulo 5767" transform="translate(5825 2459)" fill="#fff" stroke="#039be5" stroke-width="2">
      <rect width="165" height="165" rx="10" stroke="none"/>
      <rect x="1" y="1" width="163" height="163" rx="9" fill="none"/>
    </g>
    <g id="vinculos-de-retroceso" transform="translate(5858 2491.674)">
      <g id="Grupo_24846" data-name="Grupo 24846" transform="translate(56.126 16.75)">
        <path id="Trazado_8849" data-name="Trazado 8849" d="M76.95,23.6V45.65a12.557,12.557,0,0,0-6.3-10.915v-9.56A1.58,1.58,0,0,0,69.075,23.6H48.6v6.3L36,20.45,48.6,11v6.3H70.65A6.3,6.3,0,0,1,76.95,23.6Z" transform="translate(-36 -11)" fill="#fcd770"/>
        <path id="Trazado_8850" data-name="Trazado 8850" d="M64.35,52.75a12.5,12.5,0,0,0,6.284-1.685v.016a13.371,13.371,0,0,1-3.906,8.741l-7.907,7.907a13.611,13.611,0,0,1-4.347,2.914A13.369,13.369,0,0,1,39.922,48.828l7.907-7.907a13.06,13.06,0,0,1,3.922-2.709c.142-.079.284-.142.425-.2A13.283,13.283,0,0,1,57.279,37a6.325,6.325,0,0,1,.772.031,13.364,13.364,0,0,1,11.1,7.182,6.282,6.282,0,0,1-8.93.693L58.05,43.3h-.772A7.025,7.025,0,0,0,52.7,45a4.486,4.486,0,0,0-.41.362l-7.922,7.922A7.084,7.084,0,0,0,42.3,58.278a7.1,7.1,0,0,0,7.072,7.072,7.084,7.084,0,0,0,4.993-2.063l7.922-7.922a7.3,7.3,0,0,0,1.654-2.615v-.016a3.56,3.56,0,0,0,.41.016Z" transform="translate(-36 3.95)" fill="#fcd770"/>
        <path id="Trazado_8851" data-name="Trazado 8851" d="M52.3,37.6v6.332a6.324,6.324,0,0,0-.772-.032,13.283,13.283,0,0,0-5.1,1.008c-.142.063-.284.126-.425.2V37.6a12.6,12.6,0,1,1,25.2,0v9.45a12.615,12.615,0,0,1-12.6,12.6,3.561,3.561,0,0,1-.41-.016,13.3,13.3,0,0,1-6.631-2.126,12.718,12.718,0,0,1-4.568-5.56l-.047-.047a7.025,7.025,0,0,1,4.583-1.7H52.3l2.174,1.607A6.3,6.3,0,0,0,64.9,47.05V37.6a6.3,6.3,0,1,0-12.6,0Z" transform="translate(-30.25 -2.95)" fill="#fcd770"/>
      </g>
      <path id="Trazado_8852" data-name="Trazado 8852" d="M49.251,44V69.2a3.159,3.159,0,0,1-3.15,3.15H5.15A3.159,3.159,0,0,1,2,69.2V44Z" transform="translate(0.575 24.726)" fill="#e6e9ed"/>
      <path id="Trazado_8853" data-name="Trazado 8853" d="M49.251,10V35.2a3.159,3.159,0,0,1-3.15,3.15H5.15A3.159,3.159,0,0,1,2,35.2V10Z" transform="translate(0.575 5.175)" fill="#e6e9ed"/>
      <path id="Trazado_8854" data-name="Trazado 8854" d="M34.9,18v9.45H16V18H34.9Z" transform="translate(8.625 9.775)" fill="#fcd770"/>
      <path id="Trazado_8855" data-name="Trazado 8855" d="M24.9,14v6.3H21.75v3.15H6V14Z" transform="translate(2.875 7.475)" fill="#ff826e"/>
      <path id="Trazado_8856" data-name="Trazado 8856" d="M16,55.15h3.15V52H34.9v9.45H16Z" transform="translate(8.625 29.326)" fill="#ff826e"/>
      <path id="Trazado_8857" data-name="Trazado 8857" d="M24.9,54.3v3.15H6V48H24.9Z" transform="translate(2.875 27.026)" fill="#fcd770"/>
      <path id="Trazado_8858" data-name="Trazado 8858" d="M2,48.6V39.15A3.159,3.159,0,0,1,5.15,36H46.1a3.159,3.159,0,0,1,3.15,3.15V48.6Z" transform="translate(0.575 20.126)" fill="#5cd6b3"/>
      <path id="Trazado_8859" data-name="Trazado 8859" d="M2,14.6V5.15A3.159,3.159,0,0,1,5.15,2H46.1a3.159,3.159,0,0,1,3.15,3.15V14.6Z" transform="translate(0.575 0.575)" fill="#5cd6b3"/>
      <path id="Trazado_8860" data-name="Trazado 8860" d="M46.676,1H5.725A4.731,4.731,0,0,0,1,5.725v34.65A4.731,4.731,0,0,0,5.725,45.1h40.95A4.731,4.731,0,0,0,51.4,40.375V5.725A4.731,4.731,0,0,0,46.676,1ZM5.725,4.15h40.95a1.577,1.577,0,0,1,1.575,1.575V13.6H4.15V5.725A1.577,1.577,0,0,1,5.725,4.15Zm40.95,37.8H5.725A1.577,1.577,0,0,1,4.15,40.375V16.75h44.1V40.375A1.577,1.577,0,0,1,46.676,41.95Z"/>
      <path id="Trazado_8861" data-name="Trazado 8861" d="M9,5h3.15V8.15H9Z" transform="translate(4.6 2.3)"/>
      <path id="Trazado_8862" data-name="Trazado 8862" d="M13,5h3.15V8.15H13Z" transform="translate(6.9 2.3)"/>
      <path id="Trazado_8863" data-name="Trazado 8863" d="M5,5H8.15V8.15H5Z" transform="translate(2.3 2.3)"/>
      <path id="Trazado_8864" data-name="Trazado 8864" d="M27.05,13H5V25.6H20.75v6.3H42.8V19.3H27.05ZM8.15,22.45v-6.3H23.9V19.3H20.75v3.15Zm31.5,6.3H23.9v-6.3H39.65Z" transform="translate(2.3 6.9)"/>
      <path id="Trazado_8865" data-name="Trazado 8865" d="M46.676,35H5.725A4.731,4.731,0,0,0,1,39.725v34.65A4.731,4.731,0,0,0,5.725,79.1h40.95A4.731,4.731,0,0,0,51.4,74.375V39.725A4.731,4.731,0,0,0,46.676,35ZM5.725,38.15h40.95a1.577,1.577,0,0,1,1.575,1.575V47.6H4.15V39.725A1.577,1.577,0,0,1,5.725,38.15Zm40.95,37.8H5.725A1.577,1.577,0,0,1,4.15,74.375V50.75h44.1V74.375A1.577,1.577,0,0,1,46.676,75.95Z" transform="translate(0 19.551)"/>
      <path id="Trazado_8866" data-name="Trazado 8866" d="M5,39H8.15v3.15H5Z" transform="translate(2.3 21.851)"/>
      <path id="Trazado_8867" data-name="Trazado 8867" d="M9,39h3.15v3.15H9Z" transform="translate(4.6 21.851)"/>
      <path id="Trazado_8868" data-name="Trazado 8868" d="M13,39h3.15v3.15H13Z" transform="translate(6.9 21.851)"/>
      <path id="Trazado_8869" data-name="Trazado 8869" d="M27.05,47H5V59.6H20.75v6.3H42.8V53.3H27.05ZM8.15,50.15H23.9v6.3H8.15Zm31.5,6.3v6.3H23.9V59.6h3.15V56.45Z" transform="translate(2.3 26.451)"/>
      <path id="Trazado_8870" data-name="Trazado 8870" d="M71.609,16.875H51.134V9l-16.8,12.6,16.8,12.6V26.325h18.9v7.127A14.136,14.136,0,0,0,51.134,46.8v6.524A15.015,15.015,0,0,0,47.681,55.9l-7.921,7.921A14.939,14.939,0,1,0,60.886,84.951l7.921-7.921a14.9,14.9,0,0,0,4.273-8.937,14.172,14.172,0,0,0,6.4-11.843V24.75A7.884,7.884,0,0,0,71.609,16.875ZM66.581,74.8l-7.921,7.921A11.79,11.79,0,1,1,41.986,66.05l7.921-7.921a11.764,11.764,0,0,1,18.2,1.91,4.693,4.693,0,0,1-2.8.936,4.83,4.83,0,0,1-3.2-1.241l-2.585-1.909H58.245a8.58,8.58,0,0,0-6.108,2.529l-7.922,7.922A8.639,8.639,0,0,0,56.431,80.5l7.922-7.922A8.683,8.683,0,0,0,65.928,70.4a14.135,14.135,0,0,0,3.618-.617A11.744,11.744,0,0,1,66.582,74.8Zm3.452-18.551a4.7,4.7,0,0,1-.1.959,14.832,14.832,0,0,0-9.351-5.486V46.8a4.725,4.725,0,1,1,9.45,0ZM53.249,63.7a14.117,14.117,0,0,0,9.094,6.379c-.077.087-.134.187-.216.269l-7.922,7.922a5.491,5.491,0,0,1-9.371-3.882,5.524,5.524,0,0,1,1.608-3.881Zm23.085-7.448A11.011,11.011,0,0,1,55.7,61.625a5.454,5.454,0,0,1,2.541-.649h.247l1.647,1.213a7.872,7.872,0,0,0,13.044-5.938V46.8a7.875,7.875,0,1,0-15.75,0v4.764a14.82,14.82,0,0,0-3.15.5V46.8a11.025,11.025,0,1,1,22.05,0v9.45Zm-3.15-21.228v-8.7a3.153,3.153,0,0,0-3.15-3.15H47.984V27.9l-8.4-6.3,8.4-6.3v4.725H71.609a4.731,4.731,0,0,1,4.725,4.725V37.911A14.27,14.27,0,0,0,73.184,35.022Z" transform="translate(19.167 4.6)"/>
    </g>
  </g>
</svg>
