<svg xmlns="http://www.w3.org/2000/svg" width="165" height="165" viewBox="0 0 165 165">
  <g id="Grupo_24925" data-name="Grupo 24925" transform="translate(-7231 -2459)">
    <g id="Rectángulo_5775" data-name="Rectángulo 5775" transform="translate(7231 2459)" fill="#fff" stroke="#039be5" stroke-width="2">
      <rect width="165" height="165" rx="10" stroke="none"/>
      <rect x="1" y="1" width="163" height="163" rx="9" fill="none"/>
    </g>
    <g id="compartir-datos" transform="translate(7263 2491)">
      <g id="Grupo_24896" data-name="Grupo 24896" transform="translate(1.632 1.632)">
        <g id="Grupo_24887" data-name="Grupo 24887" transform="translate(65.273 88.119)">
          <path id="Trazado_9027" data-name="Trazado 9027" d="M73.637,55v6.527a3.273,3.273,0,0,1-3.264,3.264H44.264A3.273,3.273,0,0,1,41,61.527V55Z" transform="translate(-41 -55)" fill="#e6e9ed"/>
        </g>
        <g id="Grupo_24888" data-name="Grupo 24888" transform="translate(65.273 55.482)">
          <path id="Trazado_9028" data-name="Trazado 9028" d="M73.637,35v6.527a3.273,3.273,0,0,1-3.264,3.264H44.264A3.273,3.273,0,0,1,41,41.527V35Z" transform="translate(-41 -35)" fill="#e6e9ed"/>
        </g>
        <g id="Grupo_24889" data-name="Grupo 24889" transform="translate(65.273 75.064)">
          <path id="Trazado_9029" data-name="Trazado 9029" d="M73.637,50.264v9.791H41V56.791a3.273,3.273,0,0,1,3.264-3.264H57.318l2.366-4.716A3.264,3.264,0,0,1,62.606,47h7.768A3.273,3.273,0,0,1,73.637,50.264Z" transform="translate(-41 -47)" fill="#5cd6b3"/>
        </g>
        <g id="Grupo_24890" data-name="Grupo 24890" transform="translate(65.273 42.428)">
          <path id="Trazado_9030" data-name="Trazado 9030" d="M73.637,30.264v9.791H41V36.791a3.273,3.273,0,0,1,3.264-3.264H57.318l2.366-4.716A3.264,3.264,0,0,1,62.606,27h7.768A3.273,3.273,0,0,1,73.637,30.264Z" transform="translate(-41 -27)" fill="#5cd6b3"/>
        </g>
        <g id="Grupo_24891" data-name="Grupo 24891" transform="translate(4.896 68.537)">
          <path id="Trazado_9031" data-name="Trazado 9031" d="M33.373,54.423V60.95L31.1,61.7a12.383,12.383,0,0,1-.8,1.909l1.077,2.154-4.618,4.618L24.61,69.305a12.385,12.385,0,0,1-1.909.8l-.751,2.268H15.423L14.672,70.1a12.384,12.384,0,0,1-1.909-.8l-2.154,1.077L5.991,65.764,7.068,63.61a12.383,12.383,0,0,1-.8-1.909L4,60.95V54.423l2.268-.751a12.383,12.383,0,0,1,.8-1.909L5.991,49.609l4.618-4.618,2.154,1.077a12.384,12.384,0,0,1,1.909-.8L15.423,43H21.95l.751,2.268a12.384,12.384,0,0,1,1.909.8l2.154-1.077,4.618,4.618-1.077,2.154a12.383,12.383,0,0,1,.8,1.909Zm-8.159,3.264a6.527,6.527,0,1,0-6.527,6.527A6.526,6.526,0,0,0,25.214,57.687Z" transform="translate(-4 -43)" fill="#b4dd7f"/>
        </g>
        <g id="Grupo_24892" data-name="Grupo 24892" transform="translate(63.642 3.264)">
          <path id="Trazado_9032" data-name="Trazado 9032" d="M69.373,14.423V20.95L67.1,21.7a12.383,12.383,0,0,1-.8,1.909l1.077,2.154-4.618,4.618L60.61,29.305a12.383,12.383,0,0,1-1.909.8l-.751,2.268H51.423L50.672,30.1a12.383,12.383,0,0,1-1.909-.8l-2.154,1.077-4.618-4.618,1.077-2.154a12.384,12.384,0,0,1-.8-1.909L40,20.95V14.423l2.268-.751a12.383,12.383,0,0,1,.8-1.909L41.991,9.609l4.618-4.618,2.154,1.077a12.384,12.384,0,0,1,1.909-.8L51.423,3H57.95L58.7,5.268a12.384,12.384,0,0,1,1.909.8l2.154-1.077,4.618,4.618-1.077,2.154a12.383,12.383,0,0,1,.8,1.909Zm-8.159,3.264a6.527,6.527,0,1,0-6.527,6.527A6.526,6.526,0,0,0,61.214,17.687Z" transform="translate(-40 -3)" fill="#b4dd7f"/>
        </g>
        <g id="Grupo_24893" data-name="Grupo 24893" transform="translate(0 26.109)">
          <path id="Trazado_9033" data-name="Trazado 9033" d="M1,26.791V20.264A3.273,3.273,0,0,1,4.264,17H36.9a3.273,3.273,0,0,1,3.264,3.264v6.527A3.273,3.273,0,0,1,36.9,30.055H4.264A3.273,3.273,0,0,1,1,26.791Z" transform="translate(-1 -17)" fill="#fcd770"/>
        </g>
        <g id="Grupo_24894" data-name="Grupo 24894" transform="translate(0 13.055)">
          <path id="Trazado_9034" data-name="Trazado 9034" d="M40.164,13.9v4.9A3.273,3.273,0,0,1,36.9,22.055H4.264A3.273,3.273,0,0,1,1,18.791V12.264A3.273,3.273,0,0,1,4.264,9H36.9a3.273,3.273,0,0,1,3.264,3.264Z" transform="translate(-1 -9)" fill="#fcd770"/>
        </g>
        <g id="Grupo_24895" data-name="Grupo 24895">
          <path id="Trazado_9035" data-name="Trazado 9035" d="M1,10.791V4.264A3.273,3.273,0,0,1,4.264,1H36.9a3.273,3.273,0,0,1,3.264,3.264v6.527A3.273,3.273,0,0,1,36.9,14.055H4.264A3.273,3.273,0,0,1,1,10.791Z" transform="translate(-1 -1)" fill="#fcd770"/>
        </g>
      </g>
      <g id="Grupo_24897" data-name="Grupo 24897" transform="translate(0 0)">
        <path id="Trazado_9036" data-name="Trazado 9036" d="M8,55.159A8.159,8.159,0,1,0,16.159,47,8.168,8.168,0,0,0,8,55.159Zm8.159-4.9a4.9,4.9,0,1,1-4.9,4.9A4.9,4.9,0,0,1,16.159,50.264Z" transform="translate(5.055 29.696)"/>
        <path id="Trazado_9037" data-name="Trazado 9037" d="M60.318,15.159a8.159,8.159,0,1,0-8.159,8.159A8.168,8.168,0,0,0,60.318,15.159Zm-8.159,4.9a4.9,4.9,0,1,1,4.9-4.9A4.9,4.9,0,0,1,52.159,20.055Z" transform="translate(27.801 4.423)"/>
        <path id="Trazado_9038" data-name="Trazado 9038" d="M12,4h3.264V7.264H12Z" transform="translate(7.582 2.527)"/>
        <path id="Trazado_9039" data-name="Trazado 9039" d="M8,4h3.264V7.264H8Z" transform="translate(5.055 2.527)"/>
        <path id="Trazado_9040" data-name="Trazado 9040" d="M4,4H7.264V7.264H4Z" transform="translate(2.527 2.527)"/>
        <path id="Trazado_9041" data-name="Trazado 9041" d="M16,12h3.264v3.264H16Z" transform="translate(10.109 7.582)"/>
        <path id="Trazado_9042" data-name="Trazado 9042" d="M20,12h3.264v3.264H20Z" transform="translate(12.637 7.582)"/>
        <path id="Trazado_9043" data-name="Trazado 9043" d="M12,12h3.264v3.264H12Z" transform="translate(7.582 7.582)"/>
        <path id="Trazado_9044" data-name="Trazado 9044" d="M12,20h3.264v3.264H12Z" transform="translate(7.582 12.637)"/>
        <path id="Trazado_9045" data-name="Trazado 9045" d="M4,20H7.264v3.264H4Z" transform="translate(2.527 12.637)"/>
        <path id="Trazado_9046" data-name="Trazado 9046" d="M8,20h3.264v3.264H8Z" transform="translate(5.055 12.637)"/>
        <path id="Trazado_9047" data-name="Trazado 9047" d="M96.278,68.537a4.9,4.9,0,0,0,4.9-4.9V47.323a4.9,4.9,0,0,0-4.9-4.9H88.5a4.87,4.87,0,0,0-4.378,2.706l-1.911,3.822h-.623V35.9H84.4l.878-2.634q.3-.117.6-.25l2.485,1.243,6.279-6.279L93.4,25.5q.132-.3.25-.6l2.632-.876v-8.88l-2.634-.878q-.117-.3-.25-.6l1.243-2.485L88.359,4.9,85.874,6.145q-.3-.132-.6-.25L84.4,3.264H75.521L74.643,5.9q-.3.117-.6.25L71.561,4.9l-6.279,6.279,1.243,2.485q-.132.3-.25.6l-2.634.876V17.95H42.428a4.864,4.864,0,0,0-1.273-3.264,4.864,4.864,0,0,0,1.273-3.264V4.9a4.9,4.9,0,0,0-4.9-4.9H4.9A4.9,4.9,0,0,0,0,4.9v6.527a4.864,4.864,0,0,0,1.273,3.264A4.864,4.864,0,0,0,0,17.95v6.527a4.864,4.864,0,0,0,1.273,3.264A4.864,4.864,0,0,0,0,31v6.527a4.9,4.9,0,0,0,4.9,4.9H19.582V68.537H16.774L15.9,71.171c-.2.078-.4.162-.6.248l-2.484-1.243L6.536,76.455,7.779,78.94c-.088.2-.171.4-.25.6l-2.634.88v8.879l2.634.878c.078.2.162.4.25.6L6.536,93.251l6.279,6.281L15.3,98.289c.2.088.4.17.6.248l.878,2.637h8.879l.878-2.634c.2-.078.4-.162.6-.248l2.484,1.243,6.279-6.281-1.243-2.484c.088-.2.171-.4.25-.6l2.635-.88V80.417L34.9,79.539c-.078-.2-.162-.4-.25-.6l1.243-2.485-6.279-6.279-2.484,1.243c-.2-.088-.4-.17-.6-.248l-.878-2.637H22.846V42.428H37.532a4.9,4.9,0,0,0,4.9-4.9V31a4.864,4.864,0,0,0-1.273-3.264,4.856,4.856,0,0,0,1.273-3.264V21.214H63.642v2.808l2.634.878q.117.3.25.6l-1.243,2.485,6.279,6.279,2.485-1.243q.3.132.6.25L75.52,35.9h2.808V48.955H70.169a4.9,4.9,0,0,0-4.9,4.9v9.791a4.9,4.9,0,0,0,4.9,4.9h8.159V81.592H70.169a4.9,4.9,0,0,0-4.9,4.9v9.791a4.9,4.9,0,0,0,4.9,4.9H96.278a4.9,4.9,0,0,0,4.9-4.9V79.96a4.9,4.9,0,0,0-4.9-4.9H88.5a4.871,4.871,0,0,0-4.378,2.706l-1.911,3.822h-.623V68.537Zm-72.333,5.2.783.255a11.258,11.258,0,0,1,1.669.7l.736.377,1.833-.919L31.919,77.1,31,78.932l.375.734a11.45,11.45,0,0,1,.7,1.669l.255.785,1.937.648v4.176l-1.937.646-.255.785a11.3,11.3,0,0,1-.7,1.669L31,90.779l.917,1.831L28.97,95.564l-1.833-.919-.736.377a11.432,11.432,0,0,1-1.669.7l-.783.255L23.3,97.91H19.125l-.645-1.935L17.7,95.72a11.255,11.255,0,0,1-1.669-.7l-.736-.377-1.833.919L10.507,92.61l.915-1.831-.375-.734a11.451,11.451,0,0,1-.7-1.669L10.1,87.59l-1.937-.648V82.767l1.937-.646.255-.785a11.3,11.3,0,0,1,.7-1.669l.375-.734L10.506,77.1l2.952-2.952,1.833.919.736-.377a11.432,11.432,0,0,1,1.669-.7l.783-.255.648-1.935H23.3ZM39.164,17.95v6.527a1.635,1.635,0,0,1-1.632,1.632H4.9a1.635,1.635,0,0,1-1.632-1.632V17.95A1.635,1.635,0,0,1,4.9,16.318H37.532A1.635,1.635,0,0,1,39.164,17.95ZM3.264,4.9A1.635,1.635,0,0,1,4.9,3.264H37.532A1.635,1.635,0,0,1,39.164,4.9v6.527a1.635,1.635,0,0,1-1.632,1.632H4.9a1.635,1.635,0,0,1-1.632-1.632Zm35.9,32.637a1.635,1.635,0,0,1-1.632,1.632H4.9a1.635,1.635,0,0,1-1.632-1.632V31A1.635,1.635,0,0,1,4.9,29.373H37.532A1.635,1.635,0,0,1,39.164,31ZM77.228,30.7l-.785-.255a11.23,11.23,0,0,1-1.669-.7l-.736-.375-1.833.917-2.952-2.952.915-1.834-.375-.734a11.3,11.3,0,0,1-.7-1.669l-.255-.785-1.937-.646V17.493l1.937-.645.255-.785a11.231,11.231,0,0,1,.7-1.669l.375-.734-.917-1.833L72.2,8.876l1.834.915.734-.375a11.3,11.3,0,0,1,1.669-.7l.785-.255.646-1.937h4.176l.645,1.937.785.255a11.23,11.23,0,0,1,1.669.7l.734.375,1.833-.917,2.952,2.952-.915,1.834.375.734a11.3,11.3,0,0,1,.7,1.669l.255.785,1.937.646v4.176l-1.937.645-.255.785a11.229,11.229,0,0,1-.7,1.669l-.375.734.917,1.833-2.952,2.952-1.834-.915-.734.375a11.3,11.3,0,0,1-1.669.7l-.785.255-.646,1.937H77.871Zm19.05,67.21H70.169a1.633,1.633,0,0,1-1.632-1.632v-4.9H97.91v4.9A1.633,1.633,0,0,1,96.278,97.91ZM84.232,84.855l2.813-5.625a1.622,1.622,0,0,1,1.459-.9h7.774A1.633,1.633,0,0,1,97.91,79.96v8.159H68.537V86.487a1.633,1.633,0,0,1,1.632-1.632ZM70.169,52.219H84.232l2.813-5.625a1.622,1.622,0,0,1,1.459-.9h7.774a1.635,1.635,0,0,1,1.632,1.632v8.159H68.537V53.851A1.633,1.633,0,0,1,70.169,52.219ZM68.537,63.642v-4.9H97.91v4.9a1.633,1.633,0,0,1-1.632,1.632H70.169A1.633,1.633,0,0,1,68.537,63.642Z" transform="translate(0 0)"/>
        <path id="Trazado_9048" data-name="Trazado 9048" d="M54,30h6.527v3.264H54Z" transform="translate(34.119 18.955)"/>
        <path id="Trazado_9049" data-name="Trazado 9049" d="M54,50h6.527v3.264H54Z" transform="translate(34.119 31.592)"/>
      </g>
    </g>
  </g>
</svg>
