<svg xmlns="http://www.w3.org/2000/svg" width="312" height="291" viewBox="0 0 312 291"><g transform="translate(-179 -5018)"><rect width="312" height="291" rx="10" transform="translate(179 5018)" fill="#e6f7ff"/><g transform="translate(233 5057.546)"><path d="M162.868,73.181a9.868,9.868,0,0,1-9.873,9.873H149a34.231,34.231,0,0,1-14.115,22.127H95.542a34.247,34.247,0,0,1-14.1-22.126h-3.99a9.873,9.873,0,1,1,0-19.745h3.47l-.008-.008c0-6.387,0-11.143.008-14.849h68.6V63.309h3.47a9.872,9.872,0,0,1,9.873,9.873Z" transform="translate(-13.444 -9.938)" fill="#ffb69f"/><path d="M157.4,34.69l-4.29,4.345V58.458L139.325,39.043H98.274L84.49,58.458V53.892c0-6.387,0-11.143.008-14.849V29.107a15.575,15.575,0,0,1,15.567-15.575h37.013a11.777,11.777,0,0,0,11.567-9.577l6.206,4.255A17.336,17.336,0,0,1,157.4,34.69Z" transform="translate(-17.02 -0.529)" fill="#f0c020"/><path d="M180.215,120.388H28.886a7.84,7.84,0,0,0-7.846,7.838v88.137a7.841,7.841,0,0,0,7.846,7.846H180.215a7.846,7.846,0,0,0,7.846-7.846V128.226a7.844,7.844,0,0,0-7.846-7.838Z" transform="translate(-3.603 -25.149)" fill="#afafaf"/><path d="M180.608,218.726H45.5a1.971,1.971,0,0,1,0-3.943H178.636V131.86a1.971,1.971,0,0,1,3.943,0v84.895a1.971,1.971,0,0,1-1.971,1.971Zm-142.994,0h-5.1a1.971,1.971,0,1,1,0-3.943h5.1a1.971,1.971,0,0,1,0,3.943Z" transform="translate(-5.612 -27.158)" fill="#efefef"/><path d="M122.72,202.342a19.686,19.686,0,1,1,12.443-34.94,8.035,8.035,0,0,0,7.168,13.65,19.683,19.683,0,0,1-19.611,21.291Z" transform="translate(-20.941 -34.154)" fill="#efefef"/><circle cx="1.971" cy="1.971" r="1.971" transform="translate(86.702 11.033)"/><path d="M116.655,97.511a2.017,2.017,0,0,0-2.539-1.159,1.967,1.967,0,0,0-1.159,2.531,12.65,12.65,0,0,0,23.68.008,1.98,1.98,0,0,0-1.159-2.539,2.008,2.008,0,0,0-2.531,1.159,8.7,8.7,0,0,1-16.291,0Z" transform="translate(-23.013 -20.043)"/><path d="M105.255,70.171v2.974a1.971,1.971,0,0,0,3.943,0V70.171a1.971,1.971,0,1,0-3.943,0Z" transform="translate(-21.411 -14.114)"/><path d="M145.745,70.171v2.974a1.971,1.971,0,0,0,3.943,0V70.171a1.971,1.971,0,1,0-3.943,0Z" transform="translate(-29.973 -14.114)"/><path d="M129.443,85.446V72.728a1.971,1.971,0,0,0-3.943,0V85.446a1.971,1.971,0,1,0,3.943,0Z" transform="translate(-25.692 -14.655)"/><path d="M165.707,105.085a1.958,1.958,0,1,0,.9,1.214A1.971,1.971,0,0,0,165.707,105.085Z" transform="translate(-33.561 -21.853)"/><path d="M179.687,93.27H129.995c.264-.253.531-.5.789-.765a1.986,1.986,0,0,0-.032-2.791,2.031,2.031,0,0,0-2.791.032,33.287,33.287,0,0,1-4.069,3.525H85.805A32.285,32.285,0,0,1,72.524,67.139V58.552L85.341,40.485h39.025l12.818,18.066v8.587a33.694,33.694,0,0,1-.492,5.629v.01a33.064,33.064,0,0,1-1.085,4.374,1.971,1.971,0,0,0,1.262,2.484,2,2,0,0,0,2.484-1.262c.349-1.079.631-2.181.876-3.288h2.4a11.844,11.844,0,1,0,0-23.687h-1.494V39.316l3.724-3.767a19.319,19.319,0,0,0-2.839-29.5L135.811,1.8a1.971,1.971,0,0,0-3.052,1.262,9.8,9.8,0,0,1-9.627,7.971h-23.5a1.971,1.971,0,0,0,0,3.943h23.5A13.691,13.691,0,0,0,135.8,6.569l4,2.736a15.377,15.377,0,0,1,2.255,23.467l-3.714,3.761H72.516V28.578a13.677,13.677,0,0,1,11.639-13.46,1.971,1.971,0,0,0,1.672-2.232,2,2,0,0,0-2.239-1.664A17.558,17.558,0,0,0,68.573,28.578c0,4.393,0,10.78,0,22.822H67.083a11.844,11.844,0,1,0,0,23.687h2.38A36.055,36.055,0,0,0,79.694,93.27H28.357a9.827,9.827,0,0,0-9.817,9.809v57.139a1.971,1.971,0,1,0,3.943,0V103.08a5.9,5.9,0,0,1,5.875-5.875H179.687a5.9,5.9,0,0,1,5.875,5.875v88.134a5.9,5.9,0,0,1-5.875,5.875H28.357a5.9,5.9,0,0,1-5.875-5.875V175.989a1.971,1.971,0,1,0-3.943,0v15.224a9.828,9.828,0,0,0,9.817,9.81H179.687a9.828,9.828,0,0,0,9.817-9.81V103.08a9.827,9.827,0,0,0-9.817-9.809ZM72.524,51.739V40.485h7.983ZM129.2,40.485h7.983V51.738Zm13.424,14.858a7.9,7.9,0,1,1,0,15.8h-1.716c.1-.928.222-2.717.222-4.005v-11.8Zm-75.542,15.8a7.9,7.9,0,1,1,0-15.8h1.5v11.8c0,1.119.106,2.981.219,4.005Z" transform="translate(-3.075)"/><path d="M20.511,214.233a1.976,1.976,0,1,0-1.971-1.971A1.976,1.976,0,0,0,20.511,214.233Z" transform="translate(-3.075 -44.158)"/><path d="M122.19,148.722a1.971,1.971,0,0,0-1.971,1.971v7.385a21.656,21.656,0,1,0,23.545,19.788,1.971,1.971,0,0,0-2.349-1.766,6.062,6.062,0,0,1-5.409-10.3,1.966,1.966,0,0,0-.127-2.941,21.606,21.606,0,0,0-11.717-4.779v-7.389A1.971,1.971,0,0,0,122.19,148.722ZM139.9,180.161a17.7,17.7,0,1,1-8.1-15.408,10.01,10.01,0,0,0,8.1,15.408Z" transform="translate(-20.411 -31.141)"/><path d="M5.971,52.382h8.485a1.971,1.971,0,1,0,0-3.943H12.185V37.684a1.971,1.971,0,0,0-2.855-1.767l-3.99,2a1.98,1.98,0,0,0-.883,2.649,2.008,2.008,0,0,0,2.65.876l1.135-.568v7.561H5.971a1.971,1.971,0,0,0,0,3.943Z" transform="translate(0 -7.243)"/><path d="M16.427,104.421a1.971,1.971,0,0,0-1.971-1.971H12.185V91.686a1.971,1.971,0,0,0-2.855-1.758l-3.99,2a1.971,1.971,0,0,0-.883,2.65,2.009,2.009,0,0,0,2.65.875l1.136-.576v7.57H5.971a1.971,1.971,0,0,0,0,3.943h8.485A1.971,1.971,0,0,0,16.427,104.421Z" transform="translate(0 -18.664)"/><path d="M10.214,25.383a6.221,6.221,0,0,0,6.214-6.214V14.928A6.214,6.214,0,1,0,4,14.928v4.242A6.229,6.229,0,0,0,10.214,25.383ZM7.943,14.928a2.275,2.275,0,0,1,4.55,0v4.242a2.275,2.275,0,0,1-4.55,0Z" transform="translate(0 -1.535)"/><path d="M10.214,79.392a6.222,6.222,0,0,0,6.214-6.222V68.928A6.214,6.214,0,0,0,4,68.928v4.242a6.229,6.229,0,0,0,6.214,6.222ZM7.943,68.928a2.275,2.275,0,1,1,4.55,0v4.242a2.275,2.275,0,0,1-4.55,0Z" transform="translate(0 -12.954)"/><path d="M33.641,79.391h8.485a1.971,1.971,0,1,0,0-3.943H39.855V64.685A1.976,1.976,0,0,0,37,62.918l-4,2.012a1.962,1.962,0,0,0-.875,2.641,2.016,2.016,0,0,0,2.65.884l1.136-.576v7.57H33.641a1.971,1.971,0,0,0,0,3.943Z" transform="translate(-5.851 -12.953)"/><path d="M33.641,21.438a1.971,1.971,0,1,0,0,3.943h8.485a1.971,1.971,0,1,0,0-3.943H39.855V10.672A1.971,1.971,0,0,0,37,8.914l-4,2a1.971,1.971,0,0,0-.875,2.649,2.013,2.013,0,0,0,2.65.876l1.136-.576v7.57Z" transform="translate(-5.851 -1.533)"/><path d="M37.884,52.383A6.215,6.215,0,0,0,44.1,46.169V41.928a6.214,6.214,0,1,0-12.427,0v4.242A6.22,6.22,0,0,0,37.884,52.383ZM35.613,41.928a2.271,2.271,0,0,1,4.542,0v4.242a2.271,2.271,0,0,1-4.542,0Z" transform="translate(-5.851 -7.244)"/><path d="M37.884,106.393a6.221,6.221,0,0,0,6.214-6.214V95.934a6.214,6.214,0,0,0-12.427,0v4.243a6.229,6.229,0,0,0,6.214,6.216ZM35.613,95.934a2.271,2.271,0,1,1,4.542,0v4.243a2.271,2.271,0,1,1-4.542,0Z" transform="translate(-5.851 -18.664)"/><path d="M211.571,79.393h8.485a1.971,1.971,0,1,0,0-3.943h-2.271V64.686a1.971,1.971,0,0,0-2.855-1.758l-4,2a1.963,1.963,0,0,0-.875,2.641,2.018,2.018,0,0,0,2.65.884l1.136-.576v7.57h-2.271a1.971,1.971,0,1,0,0,3.943Z" transform="translate(-43.476 -12.955)"/><path d="M211.571,21.438a1.971,1.971,0,1,0,0,3.943h8.485a1.971,1.971,0,1,0,0-3.943h-2.271V10.672a1.971,1.971,0,0,0-2.855-1.758l-4,2a1.971,1.971,0,0,0-.875,2.649,2.016,2.016,0,0,0,2.65.876l1.135-.568v7.561Z" transform="translate(-43.476 -1.533)"/><path d="M215.814,52.383a6.215,6.215,0,0,0,6.214-6.214V41.928a6.214,6.214,0,0,0-12.427,0v4.242A6.22,6.22,0,0,0,215.814,52.383Zm-2.271-10.455a2.271,2.271,0,1,1,4.542,0v4.242a2.271,2.271,0,1,1-4.542,0Z" transform="translate(-43.476 -7.244)"/><path d="M215.814,106.393a6.221,6.221,0,0,0,6.214-6.214V95.934a6.214,6.214,0,0,0-12.427,0v4.243A6.23,6.23,0,0,0,215.814,106.393Zm-2.271-10.459a2.271,2.271,0,1,1,4.542,0v4.243a2.271,2.271,0,1,1-4.542,0Z" transform="translate(-43.476 -18.664)"/><path d="M246.694,48.44h-2.271V37.685a1.977,1.977,0,0,0-2.855-1.767l-4,2a1.971,1.971,0,0,0-.875,2.649,2,2,0,0,0,2.642.876l1.143-.568V48.44H238.2a1.971,1.971,0,0,0,0,3.943h8.493a1.971,1.971,0,0,0,0-3.943Z" transform="translate(-49.107 -7.244)"/><path d="M246.694,102.45h-2.271V91.686a1.971,1.971,0,0,0-2.855-1.758l-4,2a1.971,1.971,0,0,0-.875,2.65,2,2,0,0,0,2.642.875l1.143-.568v7.562H238.2a1.971,1.971,0,0,0,0,3.943h8.493a1.971,1.971,0,0,0,0-3.943Z" transform="translate(-49.107 -18.664)"/><path d="M242.452,8.7a6.229,6.229,0,0,0-6.222,6.214v4.25a6.218,6.218,0,1,0,12.435,0v-4.25A6.229,6.229,0,0,0,242.452,8.7Zm2.271,10.466a2.275,2.275,0,0,1-4.55,0v-4.25a2.275,2.275,0,0,1,4.55,0Z" transform="translate(-49.107 -1.532)"/><path d="M242.452,62.714a6.229,6.229,0,0,0-6.222,6.214v4.25a6.218,6.218,0,1,0,12.435,0v-4.25A6.229,6.229,0,0,0,242.452,62.714Zm2.271,10.464a2.275,2.275,0,0,1-4.55,0v-4.25a2.275,2.275,0,0,1,4.55,0Z" transform="translate(-49.107 -12.954)"/></g></g></svg>