<svg xmlns="http://www.w3.org/2000/svg" width="312" height="291" viewBox="0 0 312 291"><g transform="translate(-878 -5732)"><rect width="312" height="291" rx="10" transform="translate(878 5732)" fill="#fff5d5"/><g transform="translate(939.348 5782.578)"><path d="M5.5,87.758H184.737V205.519H5.5Z" transform="translate(-0.671 -22.276)" fill="#efefef"/><path d="M155.015,7.273H60.661a7.774,7.774,0,0,0-7.774,7.774V28.939a7.774,7.774,0,0,0,7.774,7.774h94.355a7.774,7.774,0,0,0,7.774-7.774V15.047A7.774,7.774,0,0,0,155.015,7.273Z" transform="translate(-13.391 -0.672)" fill="#f0c020"/><circle cx="6.142" cy="6.142" r="6.142" transform="translate(52.05 15.18)" fill="#f2e1d6"/><path d="M155.015,47.516H60.661a7.774,7.774,0,0,0-7.774,7.774V69.182a7.774,7.774,0,0,0,7.774,7.774h94.355a7.774,7.774,0,0,0,7.774-7.774V55.29A7.774,7.774,0,0,0,155.015,47.516Z" transform="translate(-13.391 -11.474)" fill="#f0c020"/><circle cx="6.142" cy="6.142" r="6.142" transform="translate(52.05 44.62)" fill="#f2e1d6"/><path d="M155.015,87.758H60.661a7.774,7.774,0,0,0-7.774,7.774v13.893a7.774,7.774,0,0,0,7.774,7.774h94.355a7.774,7.774,0,0,0,7.774-7.774V95.532A7.774,7.774,0,0,0,155.015,87.758Z" transform="translate(-13.391 -22.276)" fill="#7c7b7a"/><circle cx="6.142" cy="6.142" r="6.142" transform="translate(52.05 74.06)" fill="#f2e1d6"/><path d="M155.015,128H60.661a7.774,7.774,0,0,0-7.774,7.774v13.893a7.774,7.774,0,0,0,7.774,7.774h94.355a7.774,7.774,0,0,0,7.774-7.774V135.774A7.774,7.774,0,0,0,155.015,128Z" transform="translate(-13.391 -33.078)" fill="#7c7b7a"/><circle cx="6.142" cy="6.142" r="6.142" transform="translate(52.05 103.5)" fill="#f2e1d6"/><path d="M155.015,168.242H60.661a7.774,7.774,0,0,0-7.774,7.774v13.893a7.774,7.774,0,0,0,7.774,7.774h94.355a7.774,7.774,0,0,0,7.774-7.774V176.016A7.774,7.774,0,0,0,155.015,168.242Z" transform="translate(-13.391 -43.879)" fill="#7c7b7a"/><circle cx="6.142" cy="6.142" r="6.142" transform="translate(52.05 132.94)" fill="#f2e1d6"/><path d="M155.015,208.484H60.661a7.774,7.774,0,0,0-7.774,7.774V230.15a7.774,7.774,0,0,0,7.774,7.774h94.355a7.774,7.774,0,0,0,7.774-7.774V216.258A7.774,7.774,0,0,0,155.015,208.484Z" transform="translate(-13.391 -54.681)" fill="#7c7b7a"/><circle cx="6.142" cy="6.142" r="6.142" transform="translate(52.05 162.38)" fill="#f2e1d6"/><path d="M100.742,26.724a1.829,1.829,0,0,0,1.829,1.829H138.8a1.829,1.829,0,1,0,0-3.658H102.571A1.829,1.829,0,0,0,100.742,26.724Z" transform="translate(-26.236 -5.402)"/><path d="M166.374,23.518a1.829,1.829,0,1,0,0-3.658h-.743a1.829,1.829,0,1,0,0,3.658Z" transform="translate(-43.163 -4.05)"/><path d="M172.586,33.58a1.829,1.829,0,1,0,0-3.658h-.743a1.829,1.829,0,0,0,0,3.658Z" transform="translate(-44.83 -6.751)"/><path d="M178.8,23.518a1.829,1.829,0,0,0,0-3.658h-.743a1.829,1.829,0,1,0,0,3.658Z" transform="translate(-46.498 -4.05)"/><path d="M185.01,33.58a1.829,1.829,0,1,0,0-3.658h-.743a1.829,1.829,0,0,0,0,3.658Z" transform="translate(-48.165 -6.751)"/><path d="M67.546,24.47A7.971,7.971,0,1,0,75.517,16.5a7.98,7.98,0,0,0-7.971,7.971Zm12.285,0a4.313,4.313,0,1,1-4.313-4.313,4.319,4.319,0,0,1,4.313,4.313Z" transform="translate(-17.326 -3.148)"/><circle cx="1.829" cy="1.829" r="1.829" transform="translate(81.272 4.77)"/><path d="M138.8,65.137H102.571a1.829,1.829,0,0,0,0,3.658H138.8a1.829,1.829,0,1,0,0-3.658Z" transform="translate(-26.236 -16.204)"/><path d="M166.374,60.1h-.743a1.829,1.829,0,1,0,0,3.658h.743a1.829,1.829,0,1,0,0-3.658Z" transform="translate(-43.163 -14.852)"/><path d="M172.586,70.164h-.743a1.829,1.829,0,0,0,0,3.658h.743a1.829,1.829,0,1,0,0-3.658Z" transform="translate(-44.83 -17.553)"/><path d="M178.8,60.1h-.743a1.829,1.829,0,1,0,0,3.658h.743a1.829,1.829,0,0,0,0-3.658Z" transform="translate(-46.498 -14.852)"/><path d="M185.01,70.164h-.743a1.829,1.829,0,0,0,0,3.658h.743a1.829,1.829,0,1,0,0-3.658Z" transform="translate(-48.165 -17.553)"/><path d="M75.517,56.74a7.971,7.971,0,1,0,7.971,7.971A7.98,7.98,0,0,0,75.517,56.74Zm0,12.285a4.313,4.313,0,1,1,4.313-4.313A4.318,4.318,0,0,1,75.517,69.025Z" transform="translate(-17.326 -13.95)"/><path d="M129.569,109.038h16.475a1.829,1.829,0,0,0,0-3.658H129.569a1.829,1.829,0,0,0,0,3.658Z" transform="translate(-33.483 -27.006)"/><circle cx="1.829" cy="1.829" r="1.829" transform="translate(86.941 78.374)"/><path d="M102.569,109.038h5.121a1.829,1.829,0,0,0,0-3.658h-5.121a1.829,1.829,0,0,0,0,3.658Z" transform="translate(-26.236 -27.006)"/><path d="M165.633,104h.743a1.829,1.829,0,1,0,0-3.658h-.743a1.829,1.829,0,0,0,0,3.658Z" transform="translate(-43.163 -25.654)"/><path d="M171.845,114.064h.743a1.829,1.829,0,0,0,0-3.658h-.743a1.829,1.829,0,1,0,0,3.658Z" transform="translate(-44.831 -28.355)"/><path d="M178.057,104h.743a1.829,1.829,0,1,0,0-3.658h-.743a1.829,1.829,0,0,0,0,3.658Z" transform="translate(-46.498 -25.654)"/><path d="M184.268,114.064h.743a1.829,1.829,0,1,0,0-3.658h-.743a1.829,1.829,0,0,0,0,3.658Z" transform="translate(-48.165 -28.355)"/><path d="M75.517,112.926a7.971,7.971,0,1,0-7.971-7.971A7.98,7.98,0,0,0,75.517,112.926Zm0-12.285a4.313,4.313,0,1,1-4.313,4.313,4.318,4.318,0,0,1,4.313-4.313Z" transform="translate(-17.326 -24.752)"/><path d="M102.571,149.279H138.8a1.829,1.829,0,1,0,0-3.658H102.571a1.829,1.829,0,0,0,0,3.658Z" transform="translate(-26.236 -37.808)"/><path d="M165.633,144.244h.743a1.829,1.829,0,1,0,0-3.658h-.743a1.829,1.829,0,0,0,0,3.658Z" transform="translate(-43.163 -36.456)"/><path d="M171.845,154.306h.743a1.829,1.829,0,0,0,0-3.658h-.743a1.829,1.829,0,0,0,0,3.658Z" transform="translate(-44.831 -39.157)"/><path d="M178.057,144.244h.743a1.829,1.829,0,1,0,0-3.658h-.743a1.829,1.829,0,0,0,0,3.658Z" transform="translate(-46.498 -36.456)"/><path d="M184.268,154.306h.743a1.829,1.829,0,1,0,0-3.658h-.743a1.829,1.829,0,0,0,0,3.658Z" transform="translate(-48.165 -39.157)"/><path d="M75.517,153.169a7.971,7.971,0,1,0-7.971-7.971A7.98,7.98,0,0,0,75.517,153.169Zm0-12.285A4.313,4.313,0,1,1,71.2,145.2,4.318,4.318,0,0,1,75.517,140.883Z" transform="translate(-17.326 -35.554)"/><path d="M102.571,189.521H138.8a1.829,1.829,0,0,0,0-3.658H102.571a1.829,1.829,0,0,0,0,3.658Z" transform="translate(-26.236 -48.609)"/><path d="M165.633,184.487h.743a1.829,1.829,0,1,0,0-3.658h-.743a1.829,1.829,0,0,0,0,3.658Z" transform="translate(-43.163 -47.258)"/><path d="M171.845,194.549h.743a1.829,1.829,0,0,0,0-3.658h-.743a1.829,1.829,0,0,0,0,3.658Z" transform="translate(-44.831 -49.959)"/><path d="M178.057,184.487h.743a1.829,1.829,0,1,0,0-3.658h-.743a1.829,1.829,0,0,0,0,3.658Z" transform="translate(-46.498 -47.258)"/><path d="M184.268,194.549h.743a1.829,1.829,0,0,0,0-3.658h-.743a1.829,1.829,0,0,0,0,3.658Z" transform="translate(-48.165 -49.959)"/><path d="M75.517,193.411a7.971,7.971,0,1,0-7.971-7.971A7.98,7.98,0,0,0,75.517,193.411Zm0-12.285a4.313,4.313,0,1,1-4.313,4.313A4.318,4.318,0,0,1,75.517,181.125Z" transform="translate(-17.326 -46.356)"/><path d="M102.571,229.763H138.8a1.829,1.829,0,1,0,0-3.658H102.571a1.829,1.829,0,0,0,0,3.658Z" transform="translate(-26.236 -59.411)"/><path d="M166.374,224.729a1.829,1.829,0,1,0,0-3.658h-.743a1.829,1.829,0,1,0,0,3.658Z" transform="translate(-43.163 -58.06)"/><path d="M172.586,234.791a1.829,1.829,0,1,0,0-3.658h-.743a1.829,1.829,0,0,0,0,3.658Z" transform="translate(-44.83 -60.761)"/><path d="M178.8,224.729a1.829,1.829,0,0,0,0-3.658h-.743a1.829,1.829,0,1,0,0,3.658Z" transform="translate(-46.498 -58.06)"/><path d="M185.01,234.791a1.829,1.829,0,1,0,0-3.658h-.743a1.829,1.829,0,0,0,0,3.658Z" transform="translate(-48.165 -60.761)"/><path d="M67.546,225.68a7.971,7.971,0,1,0,7.971-7.971,7.98,7.98,0,0,0-7.971,7.971Zm12.285,0a4.313,4.313,0,1,1-4.313-4.313,4.319,4.319,0,0,1,4.313,4.313Z" transform="translate(-17.326 -57.157)"/><circle cx="1.829" cy="1.829" r="1.829" transform="translate(72.975 181.417)"/><path d="M4.829,67.311H39.743a9.548,9.548,0,0,0-2.076,5.945V87.149a9.588,9.588,0,0,0,3.988,7.774,9.588,9.588,0,0,0-3.988,7.774v13.893a9.588,9.588,0,0,0,3.988,7.774,9.588,9.588,0,0,0-3.988,7.774v13.893a9.586,9.586,0,0,0,3.988,7.773,9.586,9.586,0,0,0-3.986,7.774v13.893a9.615,9.615,0,0,0,9.6,9.606H67.488a1.829,1.829,0,1,0,0-3.658H47.268a5.965,5.965,0,0,1-5.94-5.948V161.576a5.964,5.964,0,0,1,5.91-5.946h94.42a5.968,5.968,0,0,1,5.91,5.946v13.893a5.969,5.969,0,0,1-5.94,5.948H82.12a1.829,1.829,0,1,0,0,3.658h59.507a9.619,9.619,0,0,0,9.6-9.606V161.576a9.587,9.587,0,0,0-3.986-7.772,9.589,9.589,0,0,0,3.989-7.774V132.136a9.588,9.588,0,0,0-3.988-7.774,9.588,9.588,0,0,0,3.988-7.774V102.7a9.588,9.588,0,0,0-3.988-7.774,9.588,9.588,0,0,0,3.988-7.774V73.256a9.548,9.548,0,0,0-2.076-5.945h34.914a1.829,1.829,0,1,0,0-3.658H149.152a9.548,9.548,0,0,0,2.076-5.945V43.816a9.588,9.588,0,0,0-3.991-7.776,9.583,9.583,0,0,0,3.988-7.772V14.376a9.615,9.615,0,0,0-9.6-9.606H90.417a1.829,1.829,0,1,0,0,3.658h51.21a5.969,5.969,0,0,1,5.94,5.948V28.268a5.968,5.968,0,0,1-5.91,5.946H47.238a5.965,5.965,0,0,1-5.91-5.946V14.376a5.965,5.965,0,0,1,5.94-5.948H75.785a1.829,1.829,0,1,0,0-3.658H47.268a9.61,9.61,0,0,0-9.6,9.606V28.268a9.579,9.579,0,0,0,3.986,7.773,9.587,9.587,0,0,0-3.989,7.774V57.708a9.548,9.548,0,0,0,2.076,5.945H4.829a1.829,1.829,0,1,0,0,3.658Zm142.74,64.825v13.893a5.951,5.951,0,0,1-5.913,5.943H47.238a5.951,5.951,0,0,1-5.913-5.943V132.136a5.952,5.952,0,0,1,5.945-5.945h94.355A5.952,5.952,0,0,1,147.569,132.136Zm0-29.44v13.893a5.952,5.952,0,0,1-5.945,5.945H47.27a5.952,5.952,0,0,1-5.945-5.945V102.7a5.952,5.952,0,0,1,5.945-5.945h94.355A5.952,5.952,0,0,1,147.569,102.7Zm0-29.44V87.149a5.952,5.952,0,0,1-5.945,5.945H47.27a5.952,5.952,0,0,1-5.945-5.945V73.256a5.952,5.952,0,0,1,5.945-5.945h94.355A5.951,5.951,0,0,1,147.569,73.256ZM41.325,57.708V43.816a5.952,5.952,0,0,1,5.945-5.945h94.355a5.952,5.952,0,0,1,5.945,5.945V57.708a5.952,5.952,0,0,1-5.945,5.945H47.27a5.952,5.952,0,0,1-5.945-5.945Z" transform="translate(0 0)"/><path d="M24.908,111.79v-1.211a1.829,1.829,0,1,0-3.658,0v1.211a1.829,1.829,0,1,0,3.658,0Z" transform="translate(-4.899 -27.911)"/><path d="M32.5,194.816a1.829,1.829,0,1,0,3.658,0V193.6a1.829,1.829,0,0,0-3.658,0Z" transform="translate(-7.918 -50.197)"/><path d="M34.329,141.266a1.829,1.829,0,0,0,1.829-1.829v-1.211a1.829,1.829,0,1,0-3.658,0v1.211A1.829,1.829,0,0,0,34.329,141.266Z" transform="translate(-7.918 -35.332)"/><path d="M17.5,227.106v1.212a1.829,1.829,0,1,0,3.658,0v-1.212a1.829,1.829,0,1,0-3.658,0Z" transform="translate(-3.892 -59.189)"/><path d="M19.5,170.006v1.211a1.829,1.829,0,1,0,3.658,0v-1.211a1.829,1.829,0,1,0-3.658,0Z" transform="translate(-4.429 -43.862)"/><path d="M221.658,128.1v-1.211a1.829,1.829,0,1,0-3.658,0V128.1a1.829,1.829,0,1,0,3.658,0Z" transform="translate(-57.711 -32.29)"/><path d="M214.5,173.1v1.212a1.829,1.829,0,0,0,3.658,0V173.1a1.829,1.829,0,1,0-3.658,0Z" transform="translate(-56.771 -44.693)"/><path d="M234,154.085a1.829,1.829,0,1,0,3.658,0v-1.212a1.829,1.829,0,0,0-3.658,0Z" transform="translate(-62.005 -39.263)"/><path d="M214.5,229.146a1.829,1.829,0,1,0,3.658,0v-1.211a1.829,1.829,0,1,0-3.658,0Z" transform="translate(-56.771 -59.411)"/><path d="M234,200.884a1.829,1.829,0,0,0,3.658,0v-1.212a1.829,1.829,0,1,0-3.658,0Z" transform="translate(-62.005 -51.825)"/><path d="M235.829,110.273a1.829,1.829,0,0,0,1.829-1.829v-1.211a1.829,1.829,0,0,0-3.658,0v1.211A1.829,1.829,0,0,0,235.829,110.273Z" transform="translate(-62.005 -27.012)"/></g></g></svg>