<svg xmlns="http://www.w3.org/2000/svg" width="168" height="150" viewBox="0 0 168 150"><g transform="translate(-323 -6275)"><g transform="translate(323 6275)" fill="#e6f7ff" stroke="#1565c0" stroke-width="2"><rect width="168" height="150" rx="5" stroke="none"/><rect x="1" y="1" width="166" height="148" rx="4" fill="none"/></g><g transform="translate(358.557 6309.488)"><path d="M125.384,45.071A38.192,38.192,0,1,1,87.192,6.879,38.191,38.191,0,0,1,125.384,45.071Zm0,0" transform="translate(-39.959 -5.61)" fill="#f0c48a"/><path d="M207.824,302.211H225.6v14.05H207.824Zm0,0" transform="translate(-169.48 -246.453)" fill="#fd919e"/><path d="M268.094,303.844h6.636V316.5h-6.636Zm0,0" transform="translate(-218.63 -247.784)" fill="#e8677d"/><path d="M165.727,378.363h33.311v8.032H165.727Zm0,0" transform="translate(-135.15 -308.555)" fill="#e8677d"/><path d="M92.885,60.54H11.142a5.279,5.279,0,0,1-5.279-5.28V11.142a5.279,5.279,0,0,1,5.279-5.279H92.885a5.279,5.279,0,0,1,5.279,5.279V55.26A5.28,5.28,0,0,1,92.885,60.54Zm0,0" transform="translate(-4.781 -4.781)" fill="#d3e6f8"/><path d="M468.016,63.018h-.942V8.9h.942A5.694,5.694,0,0,1,473.71,14.6V57.324A5.694,5.694,0,0,1,468.016,63.018Zm0,0" transform="translate(-380.898 -7.26)" fill="#a4cff2"/><path d="M39.23,43.727h79.989v40.7H39.23Zm0,0" transform="translate(-31.992 -35.659)" fill="#fff"/><path d="M433.965,45.148H440.6V85.591h-6.636Zm0,0" transform="translate(-353.898 -36.818)" fill="#d3e6f8"/><path d="M88.1,56.84H6.361A6.369,6.369,0,0,1,0,50.478V6.361A6.369,6.369,0,0,1,6.361,0H88.1a6.368,6.368,0,0,1,6.361,6.361V50.478A6.369,6.369,0,0,1,88.1,56.84ZM6.361,2.164a4.2,4.2,0,0,0-4.2,4.2V50.478a4.2,4.2,0,0,0,4.2,4.2H88.1a4.2,4.2,0,0,0,4.2-4.2V6.361a4.2,4.2,0,0,0-4.2-4.2Zm0,0" fill="#4c4372"/><path d="M114.437,80.732H34.449a1.082,1.082,0,0,1-1.082-1.082v-40.7a1.082,1.082,0,0,1,1.082-1.082h79.989a1.082,1.082,0,0,1,1.082,1.082v40.7A1.082,1.082,0,0,1,114.437,80.732ZM35.531,78.568h77.825V40.027H35.531Zm0,0" transform="translate(-27.211 -30.877)" fill="#4c4372"/><path d="M220.82,312.561H203.042a1.082,1.082,0,0,1-1.081-1.082v-14.05a1.082,1.082,0,0,1,1.081-1.082H220.82a1.082,1.082,0,0,1,1.082,1.082v14.05A1.082,1.082,0,0,1,220.82,312.561Zm-16.7-2.164h15.615V298.511H204.124Zm0,0" transform="translate(-164.699 -241.671)" fill="#4c4372"/><path d="M194.256,382.7H160.945a1.082,1.082,0,0,1-1.082-1.082v-8.032a1.082,1.082,0,0,1,1.082-1.082h33.311a1.082,1.082,0,0,1,1.082,1.082v8.032A1.082,1.082,0,0,1,194.256,382.7Zm-32.229-2.163h31.148v-5.869H162.027Zm0,0" transform="translate(-130.368 -303.773)" fill="#4c4372"/><path d="M230.008,76.705a8.116,8.116,0,0,1,1.289-4.53,3.99,3.99,0,0,1,7.033,0,8.716,8.716,0,0,1,0,9.061,3.99,3.99,0,0,1-7.033,0A8.161,8.161,0,0,1,230.008,76.705Zm7.487,0a6.287,6.287,0,0,0-.91-3.374,2.2,2.2,0,0,0-1.763-1.156,2.282,2.282,0,0,0-1.8,1.156,6.287,6.287,0,0,0-.91,3.374,6.214,6.214,0,0,0,.91,3.355,2.31,2.31,0,0,0,1.8,1.175,2.23,2.23,0,0,0,1.763-1.175A6.214,6.214,0,0,0,237.5,76.705Zm0,0" transform="translate(-187.571 -57.142)" fill="#4c4372"/><path d="M248.393,160.691v11.184a1.056,1.056,0,0,1-1.061,1.043,1.028,1.028,0,0,1-1.043-1.043v-9.326l-.758.435a.948.948,0,0,1-.531.152,1.062,1.062,0,0,1-.549-1.952l2.331-1.384c.019-.019.057-.019.076-.038.038,0,.057-.037.1-.057.037,0,.076-.019.114-.019a.115.115,0,0,1,.076-.019.326.326,0,0,1,.133-.019h.209a.114.114,0,0,0,.076.019.206.206,0,0,1,.114.037.111.111,0,0,1,.076.019c.057.037.076.057.114.057a.254.254,0,0,0,.076.056c.019.019.057.038.076.057.038.019.057.057.076.076a.256.256,0,0,1,.057.076l.076.076.019.037c0,.019.019.038.019.057.019.038.038.057.038.1.019.038.019.076.037.094a.815.815,0,0,0,.019.1.158.158,0,0,0,.038.133C248.393,160.652,248.393,160.672,248.393,160.691Zm0,0" transform="translate(-198.937 -130.193)" fill="#4c4372"/><path d="M150.275,71.116V82.3a1.056,1.056,0,0,1-1.062,1.043,1.028,1.028,0,0,1-1.043-1.043V72.974l-.758.436a.947.947,0,0,1-.53.151,1.062,1.062,0,0,1-.55-1.952l2.331-1.384c.019-.019.057-.019.076-.038.038,0,.057-.037.1-.057.038,0,.076-.019.114-.019a.115.115,0,0,1,.076-.019.329.329,0,0,1,.133-.019h.208a.115.115,0,0,0,.076.019.206.206,0,0,1,.114.037.111.111,0,0,1,.076.019c.057.037.076.057.114.057a.263.263,0,0,0,.076.056c.019.019.057.038.076.057.037.019.056.057.076.076a.266.266,0,0,1,.057.076l.076.076.019.037c0,.019.019.038.019.057.019.038.038.057.038.1.019.038.019.076.038.094a.817.817,0,0,0,.019.1.16.16,0,0,0,.037.133Zm0,0" transform="translate(-118.921 -57.145)" fill="#4c4372"/><path d="M346.514,71.116V82.3a1.056,1.056,0,0,1-1.062,1.043A1.028,1.028,0,0,1,344.41,82.3V72.974l-.758.436a.944.944,0,0,1-.53.151,1.062,1.062,0,0,1-.55-1.952l2.331-1.384c.019-.019.057-.019.076-.038.037,0,.056-.037.094-.057.038,0,.076-.019.114-.019a.116.116,0,0,1,.076-.019.329.329,0,0,1,.133-.019h.208a.115.115,0,0,0,.076.019.2.2,0,0,1,.114.037.113.113,0,0,1,.076.019c.057.037.076.057.114.057a.253.253,0,0,0,.076.056c.019.019.057.038.076.057.038.019.057.057.076.076a.243.243,0,0,1,.057.076l.076.076.019.037c0,.019.019.038.019.057.019.038.038.057.038.1.019.038.019.076.037.094a.789.789,0,0,0,.019.1.158.158,0,0,0,.038.133C346.514,71.079,346.514,71.1,346.514,71.116Zm0,0" transform="translate(-278.954 -57.145)" fill="#4c4372"/><path d="M131.887,166.283a8.117,8.117,0,0,1,1.289-4.53,3.991,3.991,0,0,1,7.033,0,8.716,8.716,0,0,1,0,9.061,3.99,3.99,0,0,1-7.033,0A8.161,8.161,0,0,1,131.887,166.283Zm7.487,0a6.291,6.291,0,0,0-.91-3.374,2.2,2.2,0,0,0-1.763-1.157,2.282,2.282,0,0,0-1.8,1.157,6.291,6.291,0,0,0-.91,3.374,6.22,6.22,0,0,0,.91,3.355,2.311,2.311,0,0,0,1.8,1.175,2.23,2.23,0,0,0,1.763-1.175A6.222,6.222,0,0,0,139.374,166.283Zm0,0" transform="translate(-107.553 -130.193)" fill="#4c4372"/><path d="M328.125,166.283a8.117,8.117,0,0,1,1.289-4.53,3.991,3.991,0,0,1,7.033,0,8.716,8.716,0,0,1,0,9.061,3.99,3.99,0,0,1-7.033,0A8.161,8.161,0,0,1,328.125,166.283Zm7.488,0a6.291,6.291,0,0,0-.91-3.374,2.2,2.2,0,0,0-1.763-1.157,2.281,2.281,0,0,0-1.8,1.157,6.284,6.284,0,0,0-.91,3.374,6.214,6.214,0,0,0,.91,3.355,2.31,2.31,0,0,0,1.8,1.175,2.23,2.23,0,0,0,1.763-1.175A6.222,6.222,0,0,0,335.613,166.283Zm0,0" transform="translate(-267.586 -130.193)" fill="#4c4372"/></g></g></svg>