<svg xmlns="http://www.w3.org/2000/svg" width="168" height="150" viewBox="0 0 168 150"><g transform="translate(-534 -6275)"><g transform="translate(534 6275)" fill="#e6f7ff" stroke="#1565c0" stroke-width="2"><rect width="168" height="150" rx="5" stroke="none"/><rect x="1" y="1" width="166" height="148" rx="4" fill="none"/></g><g transform="translate(574 6291.2)"><g transform="translate(1.724 26.191)"><path d="M29.63,125.193H55.284A19.168,19.168,0,0,1,73.332,99.586a20.24,20.24,0,0,1,2.959.228V70.284a4.464,4.464,0,0,0-4.464-4.464H64.535v2.874a3.639,3.639,0,1,1-7.277.087V65.82H46.675V68.7a3.638,3.638,0,1,1-7.275.085V65.82H28.818v2.963a3.638,3.638,0,0,1-7.277,0V65.82H14.464A4.464,4.464,0,0,0,10,70.284v50.445a4.464,4.464,0,0,0,4.464,4.464Z" transform="translate(-10 -65.82)" fill="#f9f6f4"/></g><g transform="translate(12.306 41.395)"><path d="M71.4,154.033h9.1v9.1H71.4Z" transform="translate(-71.4 -154.033)" fill="#a0c8ff"/></g><g transform="translate(30.212 41.395)"><path d="M175.291,154.033h9.1v9.1h-9.1Z" transform="translate(-175.291 -154.033)" fill="#a0c8ff"/></g><g transform="translate(12.306 58.482)"><path d="M71.4,253.168h9.1v9.1H71.4Z" transform="translate(-71.4 -253.168)" fill="#a0c8ff"/></g><g transform="translate(30.212 58.482)"><path d="M175.291,253.168h9.1v9.1h-9.1Z" transform="translate(-175.291 -253.168)" fill="#a0c8ff"/></g><g transform="translate(48.118 41.395)"><path d="M279.182,154.033h9.1v9.1h-9.1Z" transform="translate(-279.182 -154.033)" fill="#a0c8ff"/></g><g transform="translate(45.895 59.958)"><circle cx="19.159" cy="19.159" r="19.159" fill="#eaaacb"/></g><g transform="translate(56.374 70.437)"><circle cx="8.681" cy="8.681" r="8.681" fill="#f9f6f4"/></g><g transform="translate(13.265 19.663)"><path d="M80.6,41.067a3.638,3.638,0,0,1-3.638-3.638V31.577a3.638,3.638,0,1,1,7.277,0v5.851A3.638,3.638,0,0,1,80.6,41.067Z" transform="translate(-76.963 -27.939)" fill="#e2e7ef"/></g><g transform="translate(31.123 19.663)"><path d="M184.213,41.067a3.646,3.646,0,0,1-3.638-3.638V31.577a3.638,3.638,0,0,1,7.277,0v5.851A3.638,3.638,0,0,1,184.213,41.067Z" transform="translate(-180.575 -27.939)" fill="#e2e7ef"/></g><g transform="translate(48.981 19.663)"><path d="M287.825,41.067a3.638,3.638,0,0,1-3.638-3.638V31.577a3.638,3.638,0,0,1,7.277,0v5.851A3.638,3.638,0,0,1,287.825,41.067Z" transform="translate(-284.187 -27.939)" fill="#e2e7ef"/></g><g transform="translate(1.724 76.798)"><path d="M29.63,368.206H55.284a19.271,19.271,0,0,1-.972-8.766H10v4.3a4.464,4.464,0,0,0,4.464,4.464Z" transform="translate(-10 -359.44)" fill="#ff7b7b"/></g><g transform="translate(0 17.939)"><path d="M72.222,144.033h-9.1a1.723,1.723,0,0,0-1.724,1.724v9.1a1.723,1.723,0,0,0,1.724,1.724h9.1a1.724,1.724,0,0,0,1.724-1.724v-9.1A1.724,1.724,0,0,0,72.222,144.033Zm-1.724,9.1H64.847V147.48H70.5v5.651Z" transform="translate(-50.817 -122.3)"/><path d="M176.113,144.033h-9.1a1.723,1.723,0,0,0-1.724,1.724v9.1a1.723,1.723,0,0,0,1.724,1.724h9.1a1.723,1.723,0,0,0,1.724-1.724v-9.1A1.723,1.723,0,0,0,176.113,144.033Zm-1.724,9.1h-5.651V147.48h5.651Z" transform="translate(-136.802 -122.3)"/><path d="M72.222,243.168h-9.1a1.724,1.724,0,0,0-1.724,1.724v9.1a1.724,1.724,0,0,0,1.724,1.724h9.1a1.724,1.724,0,0,0,1.724-1.724v-9.1A1.724,1.724,0,0,0,72.222,243.168Zm-1.724,9.1H64.847v-5.651H70.5v5.651Z" transform="translate(-50.817 -204.349)"/><path d="M176.113,243.168h-9.1a1.724,1.724,0,0,0-1.724,1.724v9.1a1.724,1.724,0,0,0,1.724,1.724h9.1a1.724,1.724,0,0,0,1.724-1.724v-9.1A1.724,1.724,0,0,0,176.113,243.168Zm-1.724,9.1h-5.651v-5.651h5.651Z" transform="translate(-136.802 -204.349)"/><path d="M270.907,156.578H280a1.724,1.724,0,0,0,1.724-1.724v-9.1A1.724,1.724,0,0,0,280,144.033h-9.1a1.724,1.724,0,0,0-1.724,1.724v9.1A1.723,1.723,0,0,0,270.907,156.578Zm1.724-9.1h5.651v5.651H272.63Z" transform="translate(-222.788 -122.3)"/><path d="M86.522,60.033H84.14v-2.4a1.724,1.724,0,0,0-3.447,0v3.411L78.545,63.19a20.836,20.836,0,0,0-8.807-4.426V30.655a6.194,6.194,0,0,0-6.187-6.187H57.981V23.3a5.362,5.362,0,1,0-10.724,0v1.167H40.123V23.3a5.362,5.362,0,1,0-10.724,0v1.167H22.265V23.3a5.362,5.362,0,1,0-10.724,0v1.167H6.187A6.194,6.194,0,0,0,0,30.655V81.1a6.194,6.194,0,0,0,6.187,6.187,1.724,1.724,0,0,0,0-3.447,2.743,2.743,0,0,1-2.74-2.74V78.522H44.181a21.5,21.5,0,0,0,.529,5.319H21.354a1.724,1.724,0,0,0,0,3.447H45.837a20.879,20.879,0,1,0,35.145-21.66L83.13,63.48h3.392a1.723,1.723,0,1,0,0-3.447Zm-33.9-38.647A1.917,1.917,0,0,1,54.534,23.3v5.778a2,2,0,0,1-1.769,1.98,1.929,1.929,0,0,1-2.06-1.907V23.3A1.917,1.917,0,0,1,52.619,21.386Zm-17.858,0A1.917,1.917,0,0,1,36.676,23.3v5.766a1.988,1.988,0,0,1-1.886,2,1.93,1.93,0,0,1-1.942-1.913V23.3a1.917,1.917,0,0,1,1.915-1.915ZM14.988,23.3a1.915,1.915,0,1,1,3.83,0v5.853a1.915,1.915,0,0,1-3.829,0ZM3.447,75.075V30.655a2.743,2.743,0,0,1,2.74-2.74h5.353v1.238a5.362,5.362,0,0,0,10.724,0V27.915H29.4v1.237a5.362,5.362,0,1,0,10.724,0V27.915h7.134v1.237a5.363,5.363,0,1,0,10.725-.087v-1.15h5.569a2.743,2.743,0,0,1,2.74,2.74V58.271a21.079,21.079,0,0,0-21.726,16.8Zm79.044,4.043A17.453,17.453,0,1,1,76.1,65.636l-5.013,5.013a10.422,10.422,0,1,0,2.437,2.438l5.013-5.013a17.353,17.353,0,0,1,3.954,11.044Zm-10.479,0A6.965,6.965,0,1,1,68.6,73.135L63.836,77.9a1.724,1.724,0,1,0,2.437,2.438l4.764-4.764a6.911,6.911,0,0,1,.974,3.545Z" transform="translate(0 -17.939)"/><path d="M73.235,401.387a1.722,1.722,0,1,0-.931,2.249A1.736,1.736,0,0,0,73.235,401.387Z" transform="translate(-57.874 -334.421)"/></g></g></g></svg>