<svg xmlns="http://www.w3.org/2000/svg" width="187.788" height="203.864" viewBox="0 0 187.788 203.864">
  <g id="Grupo_20930" data-name="Grupo 20930" transform="translate(-1563.23 -262)">
    <g id="Grupo_20889" data-name="Grupo 20889" transform="translate(1594.265 319.946)">
      <path id="Trazado_2761" data-name="Trazado 2761" d="M1819.2,613.161c-.112.08-.228.152-.351.223l-45.437,26.235-8.146,4.7-43.252,24.971a4.641,4.641,0,0,1-3.357.506,4.559,4.559,0,0,1-1.3-.51l-43.54-25.274-.422-.247q-.174-.1-.335-.215a4.652,4.652,0,0,1,.367-7.851l.411-.235,18.8-10.73a3.69,3.69,0,0,0,.371-.239,4.648,4.648,0,0,0-.3-7.8l-25.043-14.928-.957-.57c-.1-.06-.2-.124-.291-.187a4.571,4.571,0,0,1-1.966-3.453,4.442,4.442,0,0,1,0-.73c0-.06.008-.12.016-.175a4.607,4.607,0,0,1,2.321-3.5l63.67-36.255a4.656,4.656,0,0,1,4.629.016l83.762,48.408A4.655,4.655,0,0,1,1819.2,613.161Z" transform="translate(-1664.44 -523.999)" fill="#15325c" opacity="0.22" style="mix-blend-mode: multiply;isolation: isolate"/>
      <path id="Trazado_2762" data-name="Trazado 2762" d="M1821.109,527.312l.084-6.278-86.1-44.607a4.646,4.646,0,0,0-4.629-.016l-62.813,35.768-3.195-3.651-.015,7.768.02-.016v0a4.623,4.623,0,0,0,2.253,4.426l26,15.494c.1.06.2.123.3.187a4.659,4.659,0,0,1-.371,7.855l-11.79,6.726-5.3,3.026.179-.2-4.649-2.161.012,7.269a4.624,4.624,0,0,0,2.3,4.366l41.554,24.118,2.408,1.4a4.648,4.648,0,0,0,4.661.008l43.252-24.972,8.146-4.7,44.331-25.027a7.453,7.453,0,0,0,2.566-2.42A7.236,7.236,0,0,0,1821.109,527.312Z" transform="translate(-1664.439 -468.189)" fill="#d6edff"/>
      <path id="Trazado_2763" data-name="Trazado 2763" d="M1993.251,727.409v7.614l8.146-4.7v-7.614Z" transform="translate(-1892.424 -639.382)" fill="#fff"/>
      <path id="Trazado_2764" data-name="Trazado 2764" d="M2025.3,715.589V723.2l3.028-1.748v-7.614Z" transform="translate(-1914.643 -633.235)" fill="#fff"/>
      <path id="Trazado_2765" data-name="Trazado 2765" d="M1733.787,743.614v7.524l-3.843-1.942-41.554-24.118a4.624,4.624,0,0,1-2.3-4.366l-.012-7.269a4.609,4.609,0,0,1,2.348-4.047l.411-.235c2.217,1.172,4.78,2.508,7.013,3.613a35.035,35.035,0,0,0,5.3,2.328c2.145.383,30.346,26.4,32.511,28.393Z" transform="translate(-1679.439 -629.99)" fill="#bbe0fd"/>
      <path id="Trazado_2766" data-name="Trazado 2766" d="M1819.2,507.839c-.112.08-.228.151-.351.223L1773.412,534.3l-8.146,4.7-43.252,24.971a4.642,4.642,0,0,1-3.357.507,4.559,4.559,0,0,1-1.3-.51l-43.54-25.275-.422-.247q-.174-.1-.335-.215a4.652,4.652,0,0,1,.367-7.851l.411-.235,18.8-10.729a3.7,3.7,0,0,0,.371-.239,4.648,4.648,0,0,0-.3-7.8l-25.043-14.928-.957-.57c-.1-.06-.2-.124-.291-.187a4.571,4.571,0,0,1-1.966-3.453,4.439,4.439,0,0,1,0-.73c0-.06.008-.12.016-.175a4.607,4.607,0,0,1,2.321-3.5l63.67-36.255a4.657,4.657,0,0,1,4.629.016L1818.854,500A4.654,4.654,0,0,1,1819.2,507.839Z" transform="translate(-1664.44 -450.972)" fill="#fff"/>
    </g>
    <g id="Grupo_20890" data-name="Grupo 20890" transform="translate(1563.23 369.254)">
      <path id="Trazado_2767" data-name="Trazado 2767" d="M1610.1,640.326v6.365l-.033-.025a2,2,0,0,1-.983,1.414L1587.7,660.428a2.018,2.018,0,0,1-1.026.272,2.047,2.047,0,0,1-1.008-.272l-21.412-12.4a2.01,2.01,0,0,1-1.011-1.762v-5.943l4.49,2.184,17.9-10.307a2.034,2.034,0,0,1,2.031,0l13.829,7.974,3.589,2.068Z" transform="translate(-1563.237 -625.751)" fill="#bbe0fd"/>
      <path id="Trazado_2768" data-name="Trazado 2768" d="M1663.081,658.974v6.365l-.033-.024a2,2,0,0,1-.983,1.414l-21.387,12.347a2.019,2.019,0,0,1-1.026.272v-7.663l14.818-12.857,3.589,2.068Z" transform="translate(-1616.218 -644.399)" fill="#d6edff"/>
      <path id="Trazado_2769" data-name="Trazado 2769" d="M1585.621,612.669l-21.372,12.3a2.034,2.034,0,0,0,0,3.523l21.41,12.4a2.035,2.035,0,0,0,2.036,0l21.387-12.348a2.034,2.034,0,0,0,0-3.524l-21.425-12.352A2.033,2.033,0,0,0,1585.621,612.669Z" transform="translate(-1563.23 -612.207)" fill="#fff"/>
      <path id="Trazado_2770" data-name="Trazado 2770" d="M1585.621,612.045l-21.372,12.3a2.034,2.034,0,0,0,0,3.523l21.41,12.4a2.035,2.035,0,0,0,2.036,0l21.387-12.348a2.034,2.034,0,0,0,0-3.524l-21.425-12.352A2.035,2.035,0,0,0,1585.621,612.045Z" transform="translate(-1563.23 -611.774)" fill="#fff"/>
    </g>
    <g id="Grupo_20893" data-name="Grupo 20893" transform="translate(1569.744 340.148)">
      <g id="Grupo_20891" data-name="Grupo 20891" transform="translate(0.174 17.208)">
        <path id="Trazado_2771" data-name="Trazado 2771" d="M1585.042,633.237l16.409-9.608,16.874,9.608-16.641,9.608Z" transform="translate(-1585.042 -608.095)" fill="#15325c" opacity="0.33" style="mix-blend-mode: multiply;isolation: isolate"/>
        <path id="Trazado_2772" data-name="Trazado 2772" d="M1585.042,582.58l16.409-9.608,16.874,9.608-16.641,9.608Z" transform="translate(-1585.042 -572.972)" fill="#d6effb"/>
        <path id="Trazado_2773" data-name="Trazado 2773" d="M1585.042,614.161V604.3l16.642,9.608-.175,9.709Z" transform="translate(-1585.042 -594.697)" fill="#77b8e0"/>
        <path id="Trazado_2774" data-name="Trazado 2774" d="M1655.56,604.3l-16.641,9.608-.174,9.709,16.641-9.46Z" transform="translate(-1622.276 -594.697)" fill="#a9d1ea"/>
      </g>
      <g id="Grupo_20892" data-name="Grupo 20892" transform="translate(0 0)">
        <path id="Trazado_2775" data-name="Trazado 2775" d="M1584.473,526.462l16.409-9.608,16.874,9.608-16.641,9.608Z" transform="translate(-1584.473 -516.854)" fill="#bbe0fd"/>
        <path id="Trazado_2776" data-name="Trazado 2776" d="M1584.473,558.043v-9.856l16.642,9.608-.175,9.709Z" transform="translate(-1584.473 -538.579)" fill="#77b8e0"/>
        <path id="Trazado_2777" data-name="Trazado 2777" d="M1654.991,548.187l-16.641,9.608-.175,9.709,16.642-9.46Z" transform="translate(-1621.707 -538.579)" fill="#a9d1ea"/>
      </g>
    </g>
    <g id="Grupo_20894" data-name="Grupo 20894" transform="translate(1609.798 262)">
      <path id="Trazado_2778" data-name="Trazado 2778" d="M1818.775,543.778V541.8l-1.4.874-14.086-8.12a1.063,1.063,0,0,0-1.058,0l-17.94,10.227-1.4-.826v2.188l.046-.034a.637.637,0,0,0,.3.4l15.146,8.772a1.063,1.063,0,0,0,1.065,0l19.054-11A.543.543,0,0,0,1818.775,543.778Z" transform="translate(-1762.101 -450.879)" fill="#183561"/>
      <path id="Trazado_2779" data-name="Trazado 2779" d="M1802.246,527.557l-18.991,10.826a.648.648,0,0,0,0,1.123l15.146,8.772a1.064,1.064,0,0,0,1.065,0l19.054-11a.548.548,0,0,0,0-.95L1803.3,527.56A1.063,1.063,0,0,0,1802.246,527.557Z" transform="translate(-1762.127 -446.03)" fill="#d6effb"/>
      <path id="Trazado_2780" data-name="Trazado 2780" d="M1831.719,514.7l-1.492,11.176-10.143,8.269-1.516-.854a1.132,1.132,0,0,1-.647-1.024l.021-10.293a1.368,1.368,0,0,1,.187-.692,1.386,1.386,0,0,1,.5-.5l11.065-6.438a1.27,1.27,0,0,1,1.178-.053Z" transform="translate(-1786.39 -436.847)" fill="#183561"/>
      <path id="Trazado_2781" data-name="Trazado 2781" d="M1837.707,514.357l-.035,12.454-12.917,7.46.012-12.385Z" transform="translate(-1791.129 -436.974)" fill="#3c6a9e"/>
      <path id="Trazado_2782" data-name="Trazado 2782" d="M1783.076,262.359l2.995,1.613-4.479,59.951-62.018,40.312-2.46-1.325a3.84,3.84,0,0,1-2.019-3.38V302.2a2.972,2.972,0,0,1,1.47-2.565l63.573-37.221a3,3,0,0,1,2.939-.052Z" transform="translate(-1715.094 -262)" fill="#a9d1ea"/>
      <path id="Trazado_2783" data-name="Trazado 2783" d="M1796.2,268.429v62.363l-66.5,37.9v-61.33Z" transform="translate(-1725.223 -266.457)" fill="#d6effb"/>
      <path id="Trazado_2784" data-name="Trazado 2784" d="M1799.5,293.081v49.994l-7.871,4.485-2.364,1.349-16.16,9.21-8.951,5.1-14.055,8.012-13.653,7.781V330l13.364-7.824,7.234-4.236,11.414-6.682,13.733-8.042,8.552-5.007,6.243-3.653Z" transform="translate(-1729.897 -283.55)" fill="#183561"/>
    </g>
    <g id="Grupo_20899" data-name="Grupo 20899" transform="translate(1709.655 344.135)">
      <g id="Grupo_20897" data-name="Grupo 20897" transform="translate(0)">
        <g id="Grupo_20895" data-name="Grupo 20895" transform="translate(0 12.03)">
          <path id="Trazado_2785" data-name="Trazado 2785" d="M2041.43,590.3l15.335-8.98a1.386,1.386,0,0,1,1.386-.008l15.8,9a1.385,1.385,0,0,1,.007,2.4l-15.553,8.979a1.385,1.385,0,0,1-1.386,0l-15.582-9A1.385,1.385,0,0,1,2041.43,590.3Z" transform="translate(-2040.744 -577.44)" fill="#15325c" opacity="0.33" style="mix-blend-mode: multiply;isolation: isolate"/>
          <path id="Trazado_2786" data-name="Trazado 2786" d="M2108.388,592.025l-12.183,7.034-.128,7.107,12.183-6.925Z" transform="translate(-2079.11 -584.991)" fill="#a9d1ea"/>
          <path id="Trazado_2787" data-name="Trazado 2787" d="M2056.764,576.12l12.013-7.034,12.354,7.034-12.183,7.034Z" transform="translate(-2051.852 -569.086)" fill="#bbe0fd"/>
          <path id="Trazado_2788" data-name="Trazado 2788" d="M2073.963,583.172l6.686-3.915,6.876,3.915-6.781,3.915Z" transform="translate(-2063.777 -576.138)" fill="#15325c"/>
          <path id="Trazado_2789" data-name="Trazado 2789" d="M2056.764,599.24v-7.216l12.183,7.034-.128,7.107Z" transform="translate(-2051.852 -584.991)" fill="#77b8e0"/>
        </g>
        <g id="Grupo_20896" data-name="Grupo 20896" transform="translate(9.254)">
          <path id="Trazado_2790" data-name="Trazado 2790" d="M2084.449,545.85a8.535,8.535,0,0,1-2.607,2.558c-2.713,2.181-7.6,1.648-8.968-.975a6.127,6.127,0,0,1-1.91-5.156,6.064,6.064,0,0,0,2.156,2.705c-2.238-1.91-.812-7.5-.812-7.5a8.823,8.823,0,0,0,2.812,4.427,19.687,19.687,0,0,1,.188-7.321,8.507,8.507,0,0,1,2.771-4.73,13.372,13.372,0,0,0,2.287,9.321,8.05,8.05,0,0,0,1.435-5.615s2.73,5.239,1.476,9.231a6.134,6.134,0,0,0,2.705-2.181A9.428,9.428,0,0,1,2084.449,545.85Z" transform="translate(-2070.924 -529.856)" fill="#77b8e0"/>
          <path id="Trazado_2791" data-name="Trazado 2791" d="M2084.449,556.546a8.536,8.536,0,0,1-2.607,2.558,6.157,6.157,0,0,1-2.279,1.115c-2.6.689-5.648-.106-6.689-2.09a6.127,6.127,0,0,1-1.91-5.156,6.063,6.063,0,0,0,2.156,2.705c-2.238-1.91-.812-7.5-.812-7.5a8.905,8.905,0,0,0,2.812,4.427,19.687,19.687,0,0,1,.188-7.321C2075.3,553.3,2079.415,556.661,2084.449,556.546Z" transform="translate(-2070.924 -540.552)" fill="#77b8e0" opacity="0.33" style="mix-blend-mode: multiply;isolation: isolate"/>
          <path id="Trazado_2792" data-name="Trazado 2792" d="M2079.563,566.762c-2.6.689-5.648-.106-6.689-2.09a6.127,6.127,0,0,1-1.91-5.156,6.064,6.064,0,0,0,2.156,2.705c-2.238-1.91-.812-7.5-.812-7.5a8.307,8.307,0,0,0,.992,2.3C2074.062,562.753,2077.284,565.507,2079.563,566.762Z" transform="translate(-2070.924 -547.095)" fill="#77b8e0" opacity="0.33" style="mix-blend-mode: multiply;isolation: isolate"/>
        </g>
      </g>
      <g id="Grupo_20898" data-name="Grupo 20898" transform="translate(14.195 5.217)">
        <path id="Trazado_2793" data-name="Trazado 2793" d="M2087.833,555.17a4.431,4.431,0,0,0,1.353,1.327c1.408,1.131,3.943.855,4.654-.506a3.18,3.18,0,0,0,.991-2.676,3.148,3.148,0,0,1-1.119,1.4c1.161-.991.421-3.892.421-3.892a4.577,4.577,0,0,1-1.459,2.3,10.212,10.212,0,0,0-.1-3.8,4.415,4.415,0,0,0-1.438-2.454,6.937,6.937,0,0,1-1.187,4.836,4.178,4.178,0,0,1-.744-2.914s-1.417,2.718-.766,4.789a3.187,3.187,0,0,1-1.4-1.131A4.891,4.891,0,0,0,2087.833,555.17Z" transform="translate(-2087.036 -546.871)" fill="#77b8e0"/>
        <path id="Trazado_2794" data-name="Trazado 2794" d="M2089.636,560.719a4.432,4.432,0,0,0,1.353,1.327,3.2,3.2,0,0,0,1.183.579c1.348.357,2.93-.056,3.471-1.085a3.18,3.18,0,0,0,.991-2.676,3.15,3.15,0,0,1-1.119,1.4c1.161-.991.421-3.892.421-3.892a4.624,4.624,0,0,1-1.459,2.3,10.212,10.212,0,0,0-.1-3.8C2094.383,559.035,2092.248,560.779,2089.636,560.719Z" transform="translate(-2088.839 -552.421)" fill="#77b8e0" opacity="0.33" style="mix-blend-mode: multiply;isolation: isolate"/>
        <path id="Trazado_2795" data-name="Trazado 2795" d="M2097.9,566.02c1.348.357,2.931-.055,3.471-1.085a3.181,3.181,0,0,0,.991-2.676,3.144,3.144,0,0,1-1.119,1.4c1.161-.991.421-3.892.421-3.892a4.306,4.306,0,0,1-.515,1.191A6.432,6.432,0,0,1,2097.9,566.02Z" transform="translate(-2094.572 -555.815)" fill="#77b8e0" opacity="0.33" style="mix-blend-mode: multiply;isolation: isolate"/>
      </g>
    </g>
    <g id="Grupo_20909" data-name="Grupo 20909" transform="translate(1689.205 275.157)">
      <g id="Grupo_20903" data-name="Grupo 20903" transform="translate(34.116 29.505)">
        <path id="Trazado_2796" data-name="Trazado 2796" d="M2103.282,411.064v19.758l-.558.446-16.855-10.381-.558-19.311.558-.447Z" transform="translate(-2085.311 -401.129)" fill="#183561"/>
        <path id="Trazado_2797" data-name="Trazado 2797" d="M2085.311,402.585v19.758l17.414,9.935V412.52Z" transform="translate(-2085.311 -402.139)" fill="#183561"/>
        <path id="Trazado_2798" data-name="Trazado 2798" d="M2085.311,402.585v4.13l17.414,9.935v-4.13Z" transform="translate(-2085.311 -402.139)" fill="#3c6a9e"/>
        <g id="Grupo_20902" data-name="Grupo 20902" transform="translate(1.207 8.26)">
          <path id="Trazado_2799" data-name="Trazado 2799" d="M2089.249,428.067l.008,1.374,9.461,5.481-.058-1.412Z" transform="translate(-2089.249 -428.067)" fill="#fec400"/>
          <path id="Trazado_2800" data-name="Trazado 2800" d="M2104.69,465.411l.008,1.374,9.461,5.482-.058-1.412Z" transform="translate(-2099.955 -453.96)" fill="#fec400"/>
          <g id="Grupo_20900" data-name="Grupo 20900" transform="translate(10.557 6.124)">
            <path id="Trazado_2801" data-name="Trazado 2801" d="M2123.677,448.038v1.332l3.556,2.062V450.1Z" transform="translate(-2123.677 -448.038)" fill="#77b8e0"/>
          </g>
          <g id="Grupo_20901" data-name="Grupo 20901" transform="translate(1.53 6.816)">
            <path id="Trazado_2802" data-name="Trazado 2802" d="M2094.237,450.3v1.332l3.556,2.062V452.36Z" transform="translate(-2094.237 -450.297)" fill="#77b8e0"/>
          </g>
          <path id="Trazado_2803" data-name="Trazado 2803" d="M2090.482,458.06v1.332l3.556,2.062v-1.331Z" transform="translate(-2090.104 -448.863)" fill="#fff"/>
          <path id="Trazado_2804" data-name="Trazado 2804" d="M2108.282,448.038l8.258,4.768v1.379l-8.273-4.815Z" transform="translate(-2102.435 -441.914)" fill="#fff"/>
          <path id="Trazado_2805" data-name="Trazado 2805" d="M2108.282,457.494l8.258,4.768v1.379l-8.273-4.815Z" transform="translate(-2102.435 -448.471)" fill="#fff"/>
        </g>
      </g>
      <g id="Grupo_20908" data-name="Grupo 20908" transform="translate(0 0)">
        <path id="Trazado_2806" data-name="Trazado 2806" d="M2002.045,320.382v46.665l-.869.7-26.252-16.168-.869-45.97.869-.7Z" transform="translate(-1974.054 -304.909)" fill="#183561"/>
        <path id="Trazado_2807" data-name="Trazado 2807" d="M1974.054,307.177v46.665l27.121,15.473V322.65Z" transform="translate(-1974.054 -306.482)" fill="#a9d1ea"/>
        <path id="Trazado_2808" data-name="Trazado 2808" d="M1974.054,307.177v6.433l27.121,15.473V322.65Z" transform="translate(-1974.054 -306.482)" fill="#3c6a9e"/>
        <g id="Grupo_20907" data-name="Grupo 20907" transform="translate(2.815 13.8)">
          <g id="Grupo_20906" data-name="Grupo 20906">
            <path id="Trazado_2809" data-name="Trazado 2809" d="M1983.236,349.913l.013,2.14,14.736,8.537-.09-2.2Z" transform="translate(-1983.236 -349.913)" fill="#fec400"/>
            <path id="Trazado_2810" data-name="Trazado 2810" d="M2007.285,408.075l.013,2.14,14.736,8.537-.09-2.2Z" transform="translate(-1999.911 -390.24)" fill="#fec400"/>
            <g id="Grupo_20904" data-name="Grupo 20904" transform="translate(16.442 9.538)">
              <path id="Trazado_2811" data-name="Trazado 2811" d="M2036.857,381.016v2.074l5.539,3.212v-2.073Z" transform="translate(-2036.857 -381.016)" fill="#77b8e0"/>
            </g>
            <g id="Grupo_20905" data-name="Grupo 20905" transform="translate(2.382 10.617)">
              <path id="Trazado_2812" data-name="Trazado 2812" d="M1991.005,384.535v2.074l5.539,3.212v-2.073Z" transform="translate(-1991.005 -384.535)" fill="#77b8e0"/>
            </g>
            <path id="Trazado_2813" data-name="Trazado 2813" d="M1985.158,396.626V398.7l5.539,3.212v-2.073Z" transform="translate(-1984.569 -382.302)" fill="#fff"/>
            <path id="Trazado_2814" data-name="Trazado 2814" d="M2012.881,381.016l12.862,7.426v2.147l-12.886-7.5Z" transform="translate(-2003.774 -371.479)" fill="#fff"/>
            <path id="Trazado_2815" data-name="Trazado 2815" d="M2012.881,395.745l12.862,7.426v2.147l-12.886-7.5Z" transform="translate(-2003.774 -381.691)" fill="#fff"/>
          </g>
          <path id="Trazado_2816" data-name="Trazado 2816" d="M1983.236,410.889l.013,2.14,14.736,8.537-.09-2.2Z" transform="translate(-1983.236 -392.191)" fill="#fec400"/>
          <path id="Trazado_2817" data-name="Trazado 2817" d="M2007.285,456.856l.013,2.14,14.736,8.537-.09-2.2Z" transform="translate(-1999.911 -424.063)" fill="#fec400"/>
          <path id="Trazado_2818" data-name="Trazado 2818" d="M2036.857,441.992v2.074l5.539,3.212V445.2Z" transform="translate(-2020.415 -413.757)" fill="#77b8e0"/>
          <path id="Trazado_2819" data-name="Trazado 2819" d="M1991.005,433.316v2.074l5.539,3.212v-2.073Z" transform="translate(-1988.623 -407.741)" fill="#77b8e0"/>
          <path id="Trazado_2820" data-name="Trazado 2820" d="M1985.158,445.406v2.074l5.539,3.212v-2.073Z" transform="translate(-1984.569 -416.124)" fill="#fff"/>
          <path id="Trazado_2821" data-name="Trazado 2821" d="M2012.881,444.526l12.862,7.426V454.1l-12.886-7.5Z" transform="translate(-2003.774 -415.514)" fill="#fff"/>
        </g>
      </g>
    </g>
    <g id="Grupo_20913" data-name="Grupo 20913" transform="translate(1620.328 294.648)">
      <path id="Trazado_2822" data-name="Trazado 2822" d="M1759.243,477.159l-1.348.789-2.9,1.7-5.355,3.135v2.373l5.355-3.135,2.9-1.7,1.348-.789Z" transform="translate(-1749.578 -443.831)" fill="#fff"/>
      <g id="Grupo_20910" data-name="Grupo 20910" transform="translate(0.064 29.996)">
        <path id="Trazado_2823" data-name="Trazado 2823" d="M1793.549,466.885l-2.5,1.464-3.427,2.006-5.5,3.223L1777.979,476v2.373l4.139-2.423,5.5-3.223,3.427-2.006,2.5-1.464,1.008-.59V466.3Z" transform="translate(-1769.289 -466.295)" fill="#f02098"/>
        <path id="Trazado_2824" data-name="Trazado 2824" d="M1757.6,499.344l-2.6,1.525L1749.641,504v2.373l5.355-3.135,2.6-1.525Z" transform="translate(-1749.641 -489.21)" fill="#fff"/>
      </g>
      <g id="Grupo_20911" data-name="Grupo 20911" transform="translate(0.064 39.488)">
        <path id="Trazado_2825" data-name="Trazado 2825" d="M1761.981,521.934l-4.085,2.392-2.9,1.7-5.355,3.135v2.373L1755,528.4l2.9-1.7,4.085-2.392Z" transform="translate(-1749.641 -514.364)" fill="#fec400"/>
        <path id="Trazado_2826" data-name="Trazado 2826" d="M1803.455,497.839l-2.5,1.464-3.427,2.006-5.261,3.081v2.373l5.261-3.081,3.427-2.006,2.5-1.464,1.008-.59v-2.373Z" transform="translate(-1779.195 -497.249)" fill="#fff"/>
      </g>
      <g id="Grupo_20912" data-name="Grupo 20912" transform="translate(0.064 34.742)">
        <path id="Trazado_2827" data-name="Trazado 2827" d="M1778.446,499.137,1775.1,501.1l-4.574,2.678-2.668,1.562v2.373l2.668-1.562,4.574-2.678,3.345-1.959Z" transform="translate(-1762.273 -493.812)" fill="#fff"/>
        <path id="Trazado_2828" data-name="Trazado 2828" d="M1754.5,520.746l-4.856,2.843v2.373l4.856-2.843Z" transform="translate(-1749.641 -508.795)" fill="#fff"/>
        <path id="Trazado_2829" data-name="Trazado 2829" d="M1812.122,482.362l-2.5,1.464-3.427,2.006-1.428.836v2.373l1.428-.836,3.427-2.006,2.5-1.464,1.008-.59v-2.373Z" transform="translate(-1787.862 -481.772)" fill="#fff"/>
      </g>
      <path id="Trazado_2830" data-name="Trazado 2830" d="M1797.989,368.472l-.016,2.678-18.442,10.685.113-2.753Z" transform="translate(-1770.302 -368.472)" fill="#fec400"/>
      <path id="Trazado_2831" data-name="Trazado 2831" d="M1767.892,441.261l-.016,2.678-18.442,10.684.113-2.752Z" transform="translate(-1749.434 -418.941)" fill="#fff"/>
      <path id="Trazado_2832" data-name="Trazado 2832" d="M1756.945,407.4v2.6l-6.932,4.019v-2.595Z" transform="translate(-1749.835 -395.461)" fill="#f02098"/>
      <path id="Trazado_2833" data-name="Trazado 2833" d="M1814.329,411.8v2.6l-6.932,4.019v-2.595Z" transform="translate(-1789.623 -398.515)" fill="#f02098"/>
      <path id="Trazado_2834" data-name="Trazado 2834" d="M1821.646,426.932v2.6l-6.932,4.019v-2.595Z" transform="translate(-1794.697 -409.006)" fill="#fff"/>
      <path id="Trazado_2835" data-name="Trazado 2835" d="M1847.835,411.8v2.6l-6.932,4.019v-2.595Z" transform="translate(-1812.855 -398.515)" fill="#fff"/>
      <path id="Trazado_2836" data-name="Trazado 2836" d="M1766.162,407.4l-16.1,9.293v2.687l16.126-9.385Z" transform="translate(-1749.872 -395.461)" fill="#fff"/>
      <path id="Trazado_2837" data-name="Trazado 2837" d="M1766.162,425.83l-16.1,9.293v2.687l16.126-9.384Z" transform="translate(-1749.872 -408.242)" fill="#fff"/>
    </g>
    <path id="Trazado_2838" data-name="Trazado 2838" d="M1874.709,394.378V382.81l-10.166,5.913v11.672Z" transform="translate(-208.918 -83.765)" fill="#3c6a9e"/>
    <path id="Trazado_2839" data-name="Trazado 2839" d="M1913.717,372.274V360.706l-10.166,5.913V378.29Z" transform="translate(-235.965 -68.439)" fill="#3c6a9e"/>
    <path id="Trazado_2840" data-name="Trazado 2840" d="M1874.709,441.188V429.62l-10.166,5.913V447.2Z" transform="translate(-208.918 -116.221)" fill="#3c6a9e"/>
    <path id="Trazado_2841" data-name="Trazado 2841" d="M1913.717,419.083V407.515l-10.166,5.913V425.1Z" transform="translate(-235.965 -100.895)" fill="#3c6a9e"/>
    <g id="Grupo_20914" data-name="Grupo 20914" transform="translate(1633.072 396.766)">
      <path id="Trazado_2842" data-name="Trazado 2842" d="M1824.658,749.247l-.105.061-16.727,9.658-.105-.061L1791,749.247l5.1-2.985,11.5-6.732,11.9,6.774,5.065,2.883Z" transform="translate(-1790.996 -727.866)" fill="#15325c" opacity="0.33" style="mix-blend-mode: multiply;isolation: isolate"/>
      <path id="Trazado_2843" data-name="Trazado 2843" d="M1807.826,730.224l-.105,5.866-.071,3.952L1791,730.475v-4.042l5.1-2.985Z" transform="translate(-1790.996 -716.716)" fill="#183561"/>
      <path id="Trazado_2844" data-name="Trazado 2844" d="M1862.212,726.469l0,.12-.071,3.981-16.832,9.568.071-3.952.1-5.866,11.664-6.734Z" transform="translate(-1828.653 -716.811)" fill="#23477c"/>
      <path id="Trazado_2845" data-name="Trazado 2845" d="M1824.658,711.21l-.105.061-16.727,9.658-.105-.061L1791,711.21l5.1-2.985,11.5-6.732,11.9,6.774,5.065,2.883Z" transform="translate(-1790.996 -701.493)" fill="#3c6a9e"/>
      <path id="Trazado_2846" data-name="Trazado 2846" d="M1808.358,718.182l11.29-6.61,11.667,6.643-11.45,6.611Z" transform="translate(-1803.034 -708.482)" fill="#ffd561"/>
      <path id="Trazado_2847" data-name="Trazado 2847" d="M1813.321,720.175l9.773-5.722,10.124,5.764-9.913,5.724Z" transform="translate(-1806.475 -710.479)" fill="#5b95d3"/>
      <path id="Trazado_2848" data-name="Trazado 2848" d="M1838.395,730.229l2.22-1.3,2.3,1.309-2.252,1.3Z" transform="translate(-1823.86 -720.516)" fill="#bbe0fd"/>
      <path id="Trazado_2849" data-name="Trazado 2849" d="M1823.094,715.218l9.457,5.384.667-.385-10.124-5.764-9.773,5.722.658.38Z" transform="translate(-1806.475 -710.479)" fill="#183561"/>
    </g>
    <g id="Grupo_20917" data-name="Grupo 20917" transform="translate(1612.913 374.836)">
      <g id="Grupo_20915" data-name="Grupo 20915" transform="translate(0.128 12.586)">
        <path id="Trazado_2850" data-name="Trazado 2850" d="M1725.668,715.1l12-7.027,12.342,7.027-12.172,7.027Z" transform="translate(-1725.668 -696.713)" fill="#15325c" opacity="0.33" style="mix-blend-mode: multiply;isolation: isolate"/>
        <path id="Trazado_2851" data-name="Trazado 2851" d="M1725.668,678.05l12-7.027,12.342,7.027-12.172,7.027Z" transform="translate(-1725.668 -671.023)" fill="#d6effb"/>
        <path id="Trazado_2852" data-name="Trazado 2852" d="M1725.668,701.15V693.94l12.172,7.027-.128,7.1Z" transform="translate(-1725.668 -686.913)" fill="#77b8e0"/>
        <path id="Trazado_2853" data-name="Trazado 2853" d="M1777.246,693.94l-12.172,7.027-.128,7.1,12.172-6.919Z" transform="translate(-1752.902 -686.913)" fill="#a9d1ea"/>
      </g>
      <g id="Grupo_20916" data-name="Grupo 20916" transform="translate(0 0)">
        <path id="Trazado_2854" data-name="Trazado 2854" d="M1725.252,637.005l12-7.027,12.342,7.027-12.172,7.027Z" transform="translate(-1725.252 -629.978)" fill="#bbe0fd"/>
        <path id="Trazado_2855" data-name="Trazado 2855" d="M1725.252,660.1V652.9l12.172,7.027-.128,7.1Z" transform="translate(-1725.252 -645.868)" fill="#77b8e0"/>
        <path id="Trazado_2856" data-name="Trazado 2856" d="M1776.83,652.9l-12.172,7.027-.128,7.1L1776.7,660.1Z" transform="translate(-1752.486 -645.868)" fill="#a9d1ea"/>
      </g>
    </g>
    <g id="Grupo_20923" data-name="Grupo 20923" transform="translate(1660.901 348.122)">
      <path id="Trazado_2857" data-name="Trazado 2857" d="M1912.987,611.143l18.253,10.635-30.793,17.936-18.094-10.793Z" transform="translate(-1882.168 -590.204)" fill="#15325c" opacity="0.33" style="mix-blend-mode: multiply;isolation: isolate"/>
      <g id="Grupo_20918" data-name="Grupo 20918" transform="translate(31.017 13.964)">
        <rect id="Rect치ngulo_4949" data-name="Rect치ngulo 4949" width="1.111" height="19.983" transform="translate(0 0.962) rotate(-59.98)" fill="#77b8e0"/>
      </g>
      <g id="Grupo_20919" data-name="Grupo 20919" transform="translate(47.803 10.793)">
        <path id="Trazado_2858" data-name="Trazado 2858" d="M2038.276,599.486a.635.635,0,0,0,.635-.635V578.693a.635.635,0,0,0-1.27,0v20.158A.635.635,0,0,0,2038.276,599.486Z" transform="translate(-2037.641 -578.058)" fill="#77b8e0"/>
      </g>
      <path id="Trazado_2859" data-name="Trazado 2859" d="M2038.677,632.408v4.1a.82.82,0,1,1-1.64,0v-4.1Z" transform="translate(-1989.42 -604.949)" fill="#1c427e"/>
      <g id="Grupo_20920" data-name="Grupo 20920" transform="translate(0.185 17.936)">
        <path id="Trazado_2860" data-name="Trazado 2860" d="M1882.988,622.779a.635.635,0,0,0,.635-.635V601.986a.635.635,0,0,0-1.27,0v20.158A.635.635,0,0,0,1882.988,622.779Z" transform="translate(-1882.353 -601.351)" fill="#77b8e0"/>
      </g>
      <path id="Trazado_2861" data-name="Trazado 2861" d="M1883.389,655.7v4.1a.82.82,0,1,1-1.64,0v-4.1Z" transform="translate(-1881.749 -621.099)" fill="#1c427e"/>
      <g id="Grupo_20921" data-name="Grupo 20921" transform="translate(17.645 28.253)">
        <path id="Trazado_2862" data-name="Trazado 2862" d="M1939.927,656.424a.635.635,0,0,0,.635-.635V635.631a.635.635,0,1,0-1.27,0v20.158A.635.635,0,0,0,1939.927,656.424Z" transform="translate(-1939.292 -634.996)" fill="#77b8e0"/>
      </g>
      <path id="Trazado_2863" data-name="Trazado 2863" d="M1912.987,548.553l18.253,8.889v1.746l-30.793,17.936-18.094-10.793v-1.746Z" transform="translate(-1882.168 -546.807)" fill="#a9d1ea"/>
      <path id="Trazado_2864" data-name="Trazado 2864" d="M1912.987,542.859l18.253,10.635-30.793,17.936-18.094-10.793Z" transform="translate(-1882.168 -542.859)" fill="#bbe0fd"/>
      <path id="Trazado_2865" data-name="Trazado 2865" d="M1940.328,689.347v4.1a.82.82,0,0,1-1.64,0v-4.1Z" transform="translate(-1921.228 -644.428)" fill="#1c427e"/>
      <g id="Grupo_20922" data-name="Grupo 20922" transform="translate(0.542 32.058)">
        <rect id="Rect치ngulo_4950" data-name="Rect치ngulo 4950" width="1.111" height="19.983" transform="matrix(0.5, -0.866, 0.866, 0.5, 0, 0.962)" fill="#77b8e0"/>
      </g>
    </g>
    <g id="Grupo_20925" data-name="Grupo 20925" transform="translate(1674.77 358.888)">
      <circle id="Elipse_1222" data-name="Elipse 1222" cx="0.669" cy="0.669" r="0.669" transform="translate(12.757 8.638)" fill="#052754"/>
      <path id="Trazado_2866" data-name="Trazado 2866" d="M1937.677,584.33l-5.247,3.086-5.453,2.366v.823l8.025,4.527,5.35-3.086,5.35-3.086v-.823Z" transform="translate(-1926.977 -582.379)" fill="#052754"/>
      <path id="Trazado_2867" data-name="Trazado 2867" d="M1971.7,596.23l4.153-5.043.3,1.78Z" transform="translate(-1957.983 -587.133)" fill="#3c6a9e"/>
      <path id="Trazado_2868" data-name="Trazado 2868" d="M1958.591,582.021l-.767.932-3.357,4.077-.028.034-7.632-4.429.008-.008.072-.068,4.783-4.592Z" transform="translate(-1940.726 -577.967)" fill="#fff"/>
      <path id="Trazado_2869" data-name="Trazado 2869" d="M1941.29,597.571l-.216.028-5.222.664-6.039-3.355-1.97-1.095,5.689-.663.133-.016h.008l.1-.012Z" transform="translate(-1927.578 -588.475)" fill="#fff"/>
      <g id="Grupo_20924" data-name="Grupo 20924" transform="translate(5.955 4.592)">
        <path id="Trazado_2870" data-name="Trazado 2870" d="M1954.182,597.412l-.028.034-.217.028-7.485-4.415-.056-.034.134-.016.072-.068.025.015Z" transform="translate(-1946.397 -592.941)" fill="#183561"/>
      </g>
      <path id="Trazado_2871" data-name="Trazado 2871" d="M1927.843,595.379v1.949l8.009,4.478v-1.977Z" transform="translate(-1927.578 -590.04)" fill="#77b8e0"/>
      <path id="Trazado_2872" data-name="Trazado 2872" d="M1953.961,608.324V610.3l5.438-2.67Z" transform="translate(-1945.687 -598.535)" fill="#3c6a9e"/>
    </g>
    <g id="Grupo_20929" data-name="Grupo 20929" transform="translate(1684.592 347.325)">
      <path id="Trazado_2873" data-name="Trazado 2873" d="M1990.089,676.139l-9.747,5.7-9.994-6.224,9.844-5.369Z" transform="translate(-1966.871 -630.388)" fill="#15325c" opacity="0.33" style="mix-blend-mode: multiply;isolation: isolate"/>
      <path id="Trazado_2874" data-name="Trazado 2874" d="M1959.1,674.662c.194-.679,3.2-.872,3.2-.872l2.811,1.26c-.1,1.551-.387,1.939-1.066,1.939-4.459-.485-4.944-1.357-4.944-1.357A1.233,1.233,0,0,1,1959.1,674.662Z" transform="translate(-1959.009 -632.844)" fill="#052754"/>
      <path id="Trazado_2875" data-name="Trazado 2875" d="M1974.969,669.078c.194-.679,3.2-.872,3.2-.872l2.811,1.26c-.1,1.551-.388,1.939-1.066,1.939-4.459-.485-4.944-1.357-4.944-1.357A1.234,1.234,0,0,1,1974.969,669.078Z" transform="translate(-1970.016 -628.972)" fill="#052754"/>
      <path id="Trazado_2876" data-name="Trazado 2876" d="M1975.446,622.075l-4.543,2.482-.084,1.1-.338,13.558c-1.86,1.081-2.539-.522-2.539-.522l-1-13.632h0a2.108,2.108,0,0,1,1.8-2Z" transform="translate(-1964.51 -596.987)" fill="#f9beae"/>
      <path id="Trazado_2877" data-name="Trazado 2877" d="M1984.039,640.5c-1.754,1.245-2.573-.29-2.573-.29l-1.93-12.847-.114-.648-.027-.591h3.93l.01.834Z" transform="translate(-1973.143 -599.796)" fill="#f9beae"/>
      <g id="Grupo_20926" data-name="Grupo 20926" transform="translate(12.836 39.857)">
        <path id="Trazado_2878" data-name="Trazado 2878" d="M2001.187,682.152a.318.318,0,0,1-.318-.318V670.555a.318.318,0,0,1,.635,0v11.279A.317.317,0,0,1,2001.187,682.152Z" transform="translate(-2000.869 -670.238)" fill="#77b8e0"/>
      </g>
      <path id="Trazado_2879" data-name="Trazado 2879" d="M2000.567,702.107v2.05a.41.41,0,0,0,.821,0v-2.05Z" transform="translate(-1987.824 -652.478)" fill="#1c427e"/>
      <g id="Grupo_20927" data-name="Grupo 20927" transform="translate(23.218 34.154)">
        <path id="Trazado_2880" data-name="Trazado 2880" d="M2035.045,663.555a.318.318,0,0,1-.317-.318V651.958a.318.318,0,0,1,.635,0v11.279A.318.318,0,0,1,2035.045,663.555Z" transform="translate(-2034.728 -651.641)" fill="#77b8e0"/>
      </g>
      <path id="Trazado_2881" data-name="Trazado 2881" d="M2034.426,683.51v2.05a.41.41,0,1,0,.82,0v-2.05Z" transform="translate(-2011.3 -639.583)" fill="#1c427e"/>
      <g id="Grupo_20928" data-name="Grupo 20928" transform="translate(3.141 34.274)">
        <path id="Trazado_2882" data-name="Trazado 2882" d="M1969.569,663.946a.318.318,0,0,1-.317-.318V652.349a.318.318,0,0,1,.635,0v11.279A.318.318,0,0,1,1969.569,663.946Z" transform="translate(-1969.252 -652.032)" fill="#77b8e0"/>
      </g>
      <path id="Trazado_2883" data-name="Trazado 2883" d="M1979.75,658.014h0a.687.687,0,0,1-1.025.469l-9.635-5.667v-.969Z" transform="translate(-1965.999 -617.63)" fill="#a9d1ea"/>
      <path id="Trazado_2884" data-name="Trazado 2884" d="M1981.881,634.726l-2.78-1.41-9.867,5.726,9.867,5.814Z" transform="translate(-1966.099 -604.781)" fill="#bbe0fd"/>
      <path id="Trazado_2885" data-name="Trazado 2885" d="M1968.95,683.9v2.051a.41.41,0,0,0,.82,0V683.9Z" transform="translate(-1965.902 -639.855)" fill="#1c427e"/>
      <path id="Trazado_2886" data-name="Trazado 2886" d="M1965.419,599.414a1.69,1.69,0,0,0-.112-1.346c-.387-.481-.768.235-.768.235-1.5-1.162-1.8-.589-1.8-.589-.962.775-.575,1.256-.575,1.256.273.7,2.208,1.723,2.208,1.723Z" transform="translate(-1961.143 -579.999)" fill="#f4caab"/>
      <path id="Trazado_2887" data-name="Trazado 2887" d="M2020.652,570.5c1.061-.106,1.991.43,2.277,3.282s.2,7.81.2,7.81l-1.932,8.922-2.131-.286.906-9.041-1-7.1S2018.53,570.716,2020.652,570.5Z" transform="translate(-2000.555 -561.22)" fill="#ffd561"/>
      <path id="Trazado_2888" data-name="Trazado 2888" d="M1982,628.376c-6.95,3.923-14.238-5.562-14.86-6.4-.028-.04-.044-.06-.044-.06l1.017-1.256a9.71,9.71,0,0,1,8.289-3.568l9.438-1.695c.08.211.156.419.223.626C1989.121,625.051,1982,628.376,1982,628.376Z" transform="translate(-1964.614 -592.36)" fill="#f1249a"/>
      <path id="Trazado_2889" data-name="Trazado 2889" d="M1982.094,629.791c-6.95,3.924-14.238-5.562-14.86-6.4,9.087,5.582,16.18,5.419,18.923-5.953C1989.219,626.466,1982.094,629.791,1982.094,629.791Z" transform="translate(-1964.712 -593.775)" fill="#f1249a" opacity="0.44" style="mix-blend-mode: multiply;isolation: isolate"/>
      <path id="Trazado_2890" data-name="Trazado 2890" d="M1995.24,573.969l.814,3.2a14.041,14.041,0,0,1-.814,9.254h0s7.949,1.266,11.025-3.057l-.169-1.015a15.174,15.174,0,0,1-.721-7.089l.721-5.285a2.911,2.911,0,0,0-.806-1.484,2.172,2.172,0,0,0-1.246-.607,2.242,2.242,0,0,0-1.367.256l-5.889,3.218a2.976,2.976,0,0,0-1.548,2.611Z" transform="translate(-1984.13 -559.4)" fill="#fec400"/>
      <path id="Trazado_2891" data-name="Trazado 2891" d="M1978.067,581.052c1.064.057,1.9.73,1.748,3.591-.09,1.669-.639,5.125-1.082,7.714a2.287,2.287,0,0,1-3.417,1.584l-6.6-4.535,1.49-1.987,5.465,2.981.179-6.06S1975.937,580.937,1978.067,581.052Z" transform="translate(-1965.74 -568.541)" fill="#ffd561"/>
      <path id="Trazado_2892" data-name="Trazado 2892" d="M1998.922,548.2s-.678,7.464,2.229,6.785,3.683-4.168,3.683-4.168L2002.8,548.2Z" transform="translate(-1986.635 -545.766)" fill="#f9beae"/>
      <path id="Trazado_2893" data-name="Trazado 2893" d="M2008.061,564.789l-.291,3.1s2.229.678,3.2-.388v-2.714Z" transform="translate(-1992.818 -557.267)" fill="#f4caab"/>
      <path id="Trazado_2894" data-name="Trazado 2894" d="M2002.608,556.365a1.1,1.1,0,1,0,1.1-1.1A1.1,1.1,0,0,0,2002.608,556.365Z" transform="translate(-1989.239 -550.667)" fill="#f4caab"/>
      <path id="Trazado_2895" data-name="Trazado 2895" d="M2002.6,543.337a3.73,3.73,0,0,0-.358-1.127c-1.163-2.229-4.943-1.938-4.943-1.938s-1.938.388-1.938,1.745a2.286,2.286,0,0,0,1.25,1.827c1.12,4.528-1.917,6.268-1.917,6.268s4.9,2.706,7.948-.169C2004.958,547.75,2003.446,544.675,2002.6,543.337Z" transform="translate(-1983.748 -540.258)" fill="#052754"/>
      <path id="Trazado_2896" data-name="Trazado 2896" d="M2001.124,624.849l3.348-13.743,10.307-6.519.837.573-4.273,13.787-9.382,6.387Z" transform="translate(-1988.21 -584.861)" fill="#a9d1ea"/>
      <path id="Trazado_2897" data-name="Trazado 2897" d="M2004,626.573l3.348-13.743,10.307-6.519-3.436,14.36Z" transform="translate(-1990.202 -586.057)" fill="#bbe0fd"/>
    </g>
    <path id="Trazado_2898" data-name="Trazado 2898" d="M1874.709,347.568V336l-10.166,5.913v11.672Z" transform="translate(-208.918 -51.309)" fill="#3c6a9e"/>
    <path id="Trazado_2899" data-name="Trazado 2899" d="M1913.717,325.464V313.9l-10.166,5.913V331.48Z" transform="translate(-235.965 -35.983)" fill="#3c6a9e"/>
  </g>
</svg>
