<svg xmlns="http://www.w3.org/2000/svg" width="604" height="316" viewBox="0 0 604 316">
  <g id="Grupo_21475" data-name="Grupo 21475" transform="translate(-637 -4536.695)">
    <rect id="Rectángulo_5189" data-name="Rectángulo 5189" width="604" height="316" rx="10" transform="translate(637 4536.694)" fill="#fef3d1"/>
    <g id="Grupo_20852" data-name="Grupo 20852" transform="translate(658.571 4560.803)">
      <path id="Trazado_101109" data-name="Trazado 101109" d="M11.625-10.994H7.57V0H4.314V-10.994H.334v-2.514H11.625ZM16.152,0H13.016V-10.038h3.136ZM12.831-12.636a1.408,1.408,0,0,1,.482-1.1,1.813,1.813,0,0,1,1.252-.429,1.813,1.813,0,0,1,1.252.429,1.408,1.408,0,0,1,.482,1.1,1.408,1.408,0,0,1-.482,1.1,1.813,1.813,0,0,1-1.252.429,1.813,1.813,0,0,1-1.252-.429A1.408,1.408,0,0,1,12.831-12.636ZM22.934.186a5.16,5.16,0,0,1-3.739-1.378,4.757,4.757,0,0,1-1.429-3.586v-.26a6.165,6.165,0,0,1,.571-2.718A4.175,4.175,0,0,1,20-9.579a5.027,5.027,0,0,1,2.6-.645,4.345,4.345,0,0,1,3.34,1.313,5.159,5.159,0,0,1,1.225,3.66v1.215H20.948a2.253,2.253,0,0,0,.733,1.327,2.181,2.181,0,0,0,1.466.482,2.81,2.81,0,0,0,2.319-1.039L26.9-1.577A3.994,3.994,0,0,1,25.239-.292,5.6,5.6,0,0,1,22.934.186Zm-.353-8q-1.373,0-1.633,1.818H24.1v-.241a1.549,1.549,0,0,0-.38-1.164A1.514,1.514,0,0,0,22.581-7.812Zm8.711-2.227.1,1.178a3.4,3.4,0,0,1,2.867-1.364,2.864,2.864,0,0,1,2.343.937,4.461,4.461,0,0,1,.8,2.82V0H34.271V-6.336a1.694,1.694,0,0,0-.306-1.118,1.416,1.416,0,0,0-1.113-.357,1.491,1.491,0,0,0-1.364.724V0H28.361V-10.038ZM43.993.186a5.16,5.16,0,0,1-3.739-1.378,4.757,4.757,0,0,1-1.429-3.586v-.26A6.165,6.165,0,0,1,39.4-7.756a4.175,4.175,0,0,1,1.665-1.823,5.027,5.027,0,0,1,2.6-.645A4.345,4.345,0,0,1,47-8.911a5.159,5.159,0,0,1,1.225,3.66v1.215H42.008a2.253,2.253,0,0,0,.733,1.327,2.181,2.181,0,0,0,1.466.482,2.81,2.81,0,0,0,2.319-1.039l1.429,1.688A3.994,3.994,0,0,1,46.3-.292,5.6,5.6,0,0,1,43.993.186Zm-.353-8q-1.373,0-1.633,1.818h3.154v-.241a1.549,1.549,0,0,0-.38-1.164A1.514,1.514,0,0,0,43.641-7.812Z" transform="translate(257.429 164.892)" fill="#111e61"/>
      <rect id="Rectángulo_4896" data-name="Rectángulo 4896" width="201" height="224" rx="10" transform="translate(0.429 42.891)" fill="#039be5"/>
      <rect id="Rectángulo_4898" data-name="Rectángulo 4898" width="201" height="224" rx="10" transform="translate(359.429 42.891)" fill="#039be5"/>
      <g id="Grupo_20850" data-name="Grupo 20850" transform="translate(68.434 0)">
        <circle id="Elipse_1215" data-name="Elipse 1215" cx="32.5" cy="32.5" r="32.5" transform="translate(-0.005 -0.109)" fill="#4dd0e1"/>
        <g id="coche" transform="translate(9.615 16.285)">
          <g id="Grupo_20838" data-name="Grupo 20838" transform="translate(0.666 0.691)">
            <g id="Grupo_20827" data-name="Grupo 20827" transform="translate(39.245 9.368)">
              <path id="Trazado_2619" data-name="Trazado 2619" d="M452.64,186.2h-3.075a1.288,1.288,0,0,0-.554.126q.032.51.032,1.029V189.9a6.45,6.45,0,0,1,1.083,1.2h2.513a1.307,1.307,0,0,0,1.3-1.3V187.5A1.307,1.307,0,0,0,452.64,186.2Z" transform="translate(-449.011 -186.195)" fill="#dfebfa"/>
            </g>
            <g id="Grupo_20828" data-name="Grupo 20828" transform="translate(39.245 9.368)">
              <path id="Trazado_2620" data-name="Trazado 2620" d="M451.132,189.79V187.5a1.307,1.307,0,0,1,1.3-1.3h-2.869a1.289,1.289,0,0,0-.554.126q.032.51.032,1.029V189.9a6.45,6.45,0,0,1,1.083,1.2h2.308A1.307,1.307,0,0,1,451.132,189.79Z" transform="translate(-449.012 -186.194)" fill="#b1dbfc"/>
              <path id="Trazado_2621" data-name="Trazado 2621" d="M449.373,227.839h0Z" transform="translate(-449.341 -224.137)" fill="#b1dbfc"/>
            </g>
            <g id="Grupo_20829" data-name="Grupo 20829" transform="translate(0 9.368)">
              <path id="Trazado_2622" data-name="Trazado 2622" d="M11.692,189.9v-2.547c0-.389.015-.774.042-1.155H8.8a1.307,1.307,0,0,0-1.3,1.3v2.293a1.307,1.307,0,0,0,1.3,1.3h1.812a6.455,6.455,0,0,1,1.083-1.2Z" transform="translate(-7.494 -186.194)" fill="#dfebfa"/>
            </g>
            <path id="Trazado_2623" data-name="Trazado 2623" d="M9.614,189.79V187.5a1.307,1.307,0,0,1,1.3-1.3H8.8a1.307,1.307,0,0,0-1.3,1.3v2.293a1.307,1.307,0,0,0,1.3,1.3h1.812l.023-.032A1.308,1.308,0,0,1,9.614,189.79Z" transform="translate(-7.494 -176.826)" fill="#b1dbfc"/>
            <g id="Grupo_20830" data-name="Grupo 20830" transform="translate(4.02)">
              <path id="Trazado_2624" data-name="Trazado 2624" d="M56.869,92.43H84.017a6.306,6.306,0,0,1,4.143,1.557V91.418a14.284,14.284,0,0,0-1.846-7.287c-1.3-2.147-3.073-3.329-5-3.329H59.575c-1.93,0-3.706,1.182-5,3.329a14.284,14.284,0,0,0-1.846,7.287v2.569A6.307,6.307,0,0,1,56.869,92.43Z" transform="translate(-52.726 -80.803)" fill="#ff4756"/>
            </g>
            <g id="Grupo_20831" data-name="Grupo 20831" transform="translate(4.021)">
              <path id="Trazado_2625" data-name="Trazado 2625" d="M55.585,91.418a14.284,14.284,0,0,1,1.846-7.287c1.3-2.147,3.073-3.329,5-3.329H59.576c-1.93,0-3.706,1.182-5,3.329a14.284,14.284,0,0,0-1.846,7.287v2.569a6.346,6.346,0,0,1,2.858-1.423Z" transform="translate(-52.727 -80.803)" fill="#fc2d39"/>
            </g>
            <g id="Grupo_20832" data-name="Grupo 20832" transform="translate(6.264 2.263)">
              <path id="Trazado_2626" data-name="Trazado 2626" d="M79.864,115.626h27.147a6.269,6.269,0,0,1,1.9.294v-1.306a11.992,11.992,0,0,0-1.519-6.109c-.873-1.446-1.97-2.243-3.087-2.243H82.569c-1.117,0-2.213.8-3.087,2.243a11.992,11.992,0,0,0-1.519,6.109v1.306A6.268,6.268,0,0,1,79.864,115.626Z" transform="translate(-77.964 -106.261)" fill="#60b8fe"/>
            </g>
            <g id="Grupo_20833" data-name="Grupo 20833" transform="translate(6.264 2.263)">
              <path id="Trazado_2627" data-name="Trazado 2627" d="M80.821,114.614A11.991,11.991,0,0,1,82.34,108.5c.873-1.446,1.97-2.243,3.087-2.243H82.568c-1.117,0-2.213.8-3.087,2.243a11.992,11.992,0,0,0-1.519,6.109v1.306a6.269,6.269,0,0,1,1.9-.294h.958v-1.012Z" transform="translate(-77.963 -106.261)" fill="#23a8fe"/>
            </g>
            <path id="Trazado_2628" data-name="Trazado 2628" d="M291.649,148.059a4.962,4.962,0,0,0-4.94,4.984,5.072,5.072,0,0,0,.045.666H289a2.778,2.778,0,0,1-.081-.666,2.727,2.727,0,1,1,5.453,0,2.779,2.779,0,0,1-.081.666h2.249a5.063,5.063,0,0,0,.045-.666A4.962,4.962,0,0,0,291.649,148.059Z" transform="translate(-261.891 -142.081)" fill="#23a8fe"/>
            <path id="Trazado_2629" data-name="Trazado 2629" d="M291.649,148.059a4.962,4.962,0,0,0-4.94,4.984,5.072,5.072,0,0,0,.045.666H289a2.778,2.778,0,0,1-.081-.666,2.727,2.727,0,1,1,5.453,0,2.779,2.779,0,0,1-.081.666h2.249a5.063,5.063,0,0,0,.045-.666A4.962,4.962,0,0,0,291.649,148.059Z" transform="translate(-261.891 -142.081)" fill="#23a8fe"/>
            <g id="Grupo_20834" data-name="Grupo 20834" transform="translate(24.818 5.978)">
              <path id="Trazado_2630" data-name="Trazado 2630" d="M289.191,151.851a4.968,4.968,0,0,1,3.628-3.65,4.907,4.907,0,0,0-1.169-.142,4.962,4.962,0,0,0-4.94,4.984,5.073,5.073,0,0,0,.045.666H289a2.778,2.778,0,0,1,.188-1.857Z" transform="translate(-286.709 -148.059)" fill="#0193fa"/>
            </g>
            <path id="Trazado_2631" data-name="Trazado 2631" d="M61.182,210.476H34.034a6.39,6.39,0,0,0-6.371,6.371v6.516a1.065,1.065,0,0,1,.3-.043H42.8a1.076,1.076,0,0,1,.862-.435h7.9a1.076,1.076,0,0,1,.862.435H67.257a1.065,1.065,0,0,1,.3.043v-6.516a6.39,6.39,0,0,0-6.371-6.371Z" transform="translate(-25.87 -198.95)" fill="#ff656f"/>
            <g id="Grupo_20835" data-name="Grupo 20835" transform="translate(1.793 11.526)">
              <path id="Trazado_2632" data-name="Trazado 2632" d="M31.847,216.846a6.39,6.39,0,0,1,6.371-6.371H34.035a6.39,6.39,0,0,0-6.371,6.371v6.516a1.066,1.066,0,0,1,.3-.043h3.887v-6.474Z" transform="translate(-27.664 -210.475)" fill="#ff4756"/>
            </g>
            <path id="Trazado_2633" data-name="Trazado 2633" d="M150.5,216.7a3.4,3.4,0,0,0,2.9-1.621l2.82-4.6H135.5l2.82,4.6a3.4,3.4,0,0,0,2.9,1.621Z" transform="translate(-124.123 -198.949)" fill="#ff4756"/>
            <path id="Trazado_2634" data-name="Trazado 2634" d="M142.166,215.075l-2.82-4.6H135.5l2.82,4.6a3.4,3.4,0,0,0,2.9,1.621h3.844A3.4,3.4,0,0,1,142.166,215.075Z" transform="translate(-124.124 -198.949)" fill="#fc2d39"/>
            <circle id="Elipse_1216" data-name="Elipse 1216" cx="2.599" cy="2.599" r="2.599" transform="translate(33.343 15.32)" fill="#ffd301"/>
            <circle id="Elipse_1217" data-name="Elipse 1217" cx="2.599" cy="2.599" r="2.599" transform="translate(4.935 15.32)" fill="#ffd301"/>
            <path id="Trazado_2635" data-name="Trazado 2635" d="M385.193,255.754a2.6,2.6,0,0,1,1.31-2.256,2.6,2.6,0,1,0,0,4.512A2.6,2.6,0,0,1,385.193,255.754Z" transform="translate(-349.272 -237.835)" fill="#ffc20c"/>
            <path id="Trazado_2636" data-name="Trazado 2636" d="M65.593,255.754A2.6,2.6,0,0,1,66.9,253.5a2.6,2.6,0,1,0,0,4.512A2.6,2.6,0,0,1,65.593,255.754Z" transform="translate(-58.08 -237.835)" fill="#ffc20c"/>
            <g id="Grupo_20836" data-name="Grupo 20836" transform="translate(32.371 27.024)">
              <path id="Trazado_2637" data-name="Trazado 2637" d="M371.685,384.836v2.85a1.323,1.323,0,0,0,1.32,1.32h5.839a1.323,1.323,0,0,0,1.32-1.32v-2.85Z" transform="translate(-371.685 -384.836)" fill="#665e68"/>
            </g>
            <path id="Trazado_2638" data-name="Trazado 2638" d="M375.572,387.686v-2.85h-3.887v2.85a1.323,1.323,0,0,0,1.32,1.32h3.887A1.323,1.323,0,0,1,375.572,387.686Z" transform="translate(-339.314 -357.812)" fill="#544e55"/>
            <g id="Grupo_20837" data-name="Grupo 20837" transform="translate(2.625 27.024)">
              <path id="Trazado_2639" data-name="Trazado 2639" d="M37.028,384.836v2.85a1.323,1.323,0,0,0,1.32,1.32h5.839a1.323,1.323,0,0,0,1.32-1.32v-2.85Z" transform="translate(-37.028 -384.836)" fill="#665e68"/>
            </g>
            <path id="Trazado_2640" data-name="Trazado 2640" d="M40.915,387.686v-2.85H37.028v2.85a1.323,1.323,0,0,0,1.32,1.32h3.887A1.323,1.323,0,0,1,40.915,387.686Z" transform="translate(-34.403 -357.812)" fill="#544e55"/>
            <path id="Trazado_2641" data-name="Trazado 2641" d="M34.667,352.708v-2.081a1.068,1.068,0,0,1,.215-.642H19.957a1.08,1.08,0,0,0-1.077,1.077v1.211a1.08,1.08,0,0,0,1.077,1.077H34.882a1.069,1.069,0,0,1-.215-.642Z" transform="translate(-17.868 -326.059)" fill="#dfebfa"/>
            <path id="Trazado_2642" data-name="Trazado 2642" d="M22.767,352.273v-1.211a1.08,1.08,0,0,1,1.077-1.077H19.957a1.08,1.08,0,0,0-1.077,1.077v1.211a1.08,1.08,0,0,0,1.077,1.077h3.887A1.08,1.08,0,0,1,22.767,352.273Z" transform="translate(-17.868 -326.059)" fill="#b1dbfc"/>
            <path id="Trazado_2643" data-name="Trazado 2643" d="M320.114,349.984H305.188a1.068,1.068,0,0,1,.215.642v2.081a1.068,1.068,0,0,1-.215.642h14.926a1.08,1.08,0,0,0,1.077-1.077v-1.211A1.08,1.08,0,0,0,320.114,349.984Z" transform="translate(-278.727 -326.058)" fill="#dfebfa"/>
            <path id="Trazado_2644" data-name="Trazado 2644" d="M202,349.325H193.57a1.08,1.08,0,0,1-1.077-1.077v-2.081a1.08,1.08,0,0,1,1.077-1.077H202a1.08,1.08,0,0,1,1.077,1.077v2.081A1.08,1.08,0,0,1,202,349.325Z" transform="translate(-176.049 -321.6)" fill="#b1dbfc"/>
            <path id="Trazado_2645" data-name="Trazado 2645" d="M196.381,348.249v-2.081a1.08,1.08,0,0,1,1.077-1.077h-3.887a1.08,1.08,0,0,0-1.077,1.077v2.081a1.08,1.08,0,0,0,1.077,1.077h3.887A1.08,1.08,0,0,1,196.381,348.249Z" transform="translate(-176.05 -321.6)" fill="#8bcaff"/>
          </g>
          <g id="Grupo_20839" data-name="Grupo 20839" transform="translate(0 0)">
            <path id="Trazado_2646" data-name="Trazado 2646" d="M43.54,82.4H40.689c-.48-4.464-3.033-9.368-7.416-9.368H11.536c-2.171,0-4.15,1.285-5.572,3.62A14,14,0,0,0,4.119,82.4H1.97A1.972,1.972,0,0,0,0,84.366v2.293a1.972,1.972,0,0,0,1.97,1.97h.479a6.994,6.994,0,0,0-.657,2.963v5.654A1.742,1.742,0,0,0,1.012,98.7v1.211a1.744,1.744,0,0,0,1.613,1.737v1.923a1.989,1.989,0,0,0,1.986,1.986h5.839a1.989,1.989,0,0,0,1.986-1.986v-1.917h4.6a1.734,1.734,0,0,0,1.148.435h8.434a1.734,1.734,0,0,0,1.148-.435h4.6v1.917a1.989,1.989,0,0,0,1.986,1.986H40.2a1.989,1.989,0,0,0,1.986-1.986v-1.923A1.744,1.744,0,0,0,43.8,99.909V98.7a1.743,1.743,0,0,0-.781-1.452v-2.23a.667.667,0,1,0-1.333,0v1.939H27.77a1.751,1.751,0,0,0-1.148-.435H18.187a1.753,1.753,0,0,0-1.148.435H3.126V91.592a5.726,5.726,0,0,1,5.7-5.7h2.841L14.3,90.169a4.089,4.089,0,0,0,3.464,1.94h9.289a4.089,4.089,0,0,0,3.464-1.94l2.625-4.282h2.841a5.725,5.725,0,0,1,5.7,5.7V91.9a.667.667,0,0,0,1.333,0,7.222,7.222,0,0,0-.657-3.276H43.54a1.972,1.972,0,0,0,1.97-1.97V84.366A1.972,1.972,0,0,0,43.54,82.4ZM1.97,87.3a.637.637,0,0,1-.637-.637V84.366a.637.637,0,0,1,.637-.636H4.028c0,.162-.007.325-.007.488v2.244a7.094,7.094,0,0,0-.758.834ZM11.1,103.569a.654.654,0,0,1-.653.653H4.611a.654.654,0,0,1-.653-.653v-1.917H11.1Zm29.746,0a.654.654,0,0,1-.653.653H34.358a.654.654,0,0,1-.653-.653v-1.917H40.85Zm1.2-5.281a.389.389,0,0,1,.069.007l.028.006a.416.416,0,0,1,.314.4v1.211a.415.415,0,0,1-.41.41H28.365V98.288Zm-15.432-.435a.417.417,0,0,1,.41.41v2.081a.418.418,0,0,1-.41.41H18.187a.418.418,0,0,1-.41-.41V98.263a.417.417,0,0,1,.41-.41h8.434Zm-10.178.435v2.031H2.755a.415.415,0,0,1-.41-.41V98.7a.416.416,0,0,1,.313-.4l.028-.006a.388.388,0,0,1,.068-.007H16.444ZM7.6,84.663v-.446a11.136,11.136,0,0,1,1.421-5.709,3.278,3.278,0,0,1,2.518-1.9H21.2a.667.667,0,1,0,0-1.333H11.536c-1.359,0-2.657.9-3.656,2.543a12.477,12.477,0,0,0-1.616,6.4v.823a7,7,0,0,0-.91.436V84.218A13.478,13.478,0,0,1,7.1,77.341c1.171-1.922,2.745-2.98,4.433-2.98H33.273c1.688,0,3.263,1.058,4.433,2.98a13.449,13.449,0,0,1,1.749,6.876v1.259a7,7,0,0,0-.91-.436v-.823a12.476,12.476,0,0,0-1.616-6.4c-1-1.64-2.3-2.543-3.656-2.543H24.31a.667.667,0,1,0,0,1.333h8.963a3.278,3.278,0,0,1,2.517,1.9,11.136,11.136,0,0,1,1.421,5.709v.446a7.263,7.263,0,0,0-1.18-.108,5.607,5.607,0,0,0-11.213,0H8.831a7.332,7.332,0,0,0-1.233.109Zm21.779,4.809a2.747,2.747,0,0,1-2.327,1.3H17.76a2.747,2.747,0,0,1-2.327-1.3l-2.2-3.585H31.573Zm-1.01-4.918a2.06,2.06,0,0,1,4.12,0Zm5.453,0a3.393,3.393,0,0,0-6.787,0h-.88a4.274,4.274,0,0,1,8.547,0Zm10.358,2.1a.637.637,0,0,1-.636.637H41.546a7.1,7.1,0,0,0-.758-.834V84.218c0-.162,0-.325-.007-.488H43.54a.637.637,0,0,1,.636.636v2.293Z" transform="translate(0 -73.028)" fill="#050402"/>
            <path id="Trazado_2647" data-name="Trazado 2647" d="M185.918,300.85a.667.667,0,1,0,0,1.333H196.46a.667.667,0,0,0,0-1.333Z" transform="translate(-168.785 -280.6)" fill="#050402"/>
            <path id="Trazado_2648" data-name="Trazado 2648" d="M378.386,245.381a3.265,3.265,0,1,0,3.265,3.265A3.269,3.269,0,0,0,378.386,245.381Zm0,5.2a1.932,1.932,0,1,1,1.932-1.932A1.934,1.934,0,0,1,378.386,250.578Z" transform="translate(-341.778 -230.061)" fill="#050402"/>
            <path id="Trazado_2649" data-name="Trazado 2649" d="M55.521,248.646a3.265,3.265,0,1,0,3.265-3.265A3.269,3.269,0,0,0,55.521,248.646Zm5.2,0a1.932,1.932,0,1,1-1.932-1.932A1.934,1.934,0,0,1,60.718,248.646Z" transform="translate(-50.586 -230.061)" fill="#050402"/>
          </g>
        </g>
      </g>
      <g id="Grupo_20849" data-name="Grupo 20849" transform="translate(428.453 0)">
        <circle id="Elipse_1212" data-name="Elipse 1212" cx="32.5" cy="32.5" r="32.5" transform="translate(-0.025 -0.109)" fill="#4dd0e1"/>
        <g id="boy" transform="translate(13.389 11.027)">
          <g id="Grupo_20845" data-name="Grupo 20845" transform="translate(0.631 0.631)">
            <path id="Trazado_2650" data-name="Trazado 2650" d="M147.355,382.508h0l-.473-.619.192-.619a13.894,13.894,0,0,0-.948-2.5l-.808-.5.171-.647a11.317,11.317,0,0,0-2.843-3.186H130.661a11.32,11.32,0,0,0-2.843,3.186l0,.747-.63.4a13.881,13.881,0,0,0-.95,2.5l.294.861-.575.378a15.954,15.954,0,0,0-.253,2.865h4.847l.529-.417.732.417h4.216l.631-.417.631.417H141.5l.732-.417.529.417h4.847A15.939,15.939,0,0,0,147.355,382.508Z" transform="translate(-117.978 -343.59)" fill="#ff889e"/>
            <path id="Trazado_2651" data-name="Trazado 2651" d="M128.37,381.96a9.367,9.367,0,0,1,3.637-7.521H130.66a11.32,11.32,0,0,0-2.843,3.186l0,.747-.63.4a13.88,13.88,0,0,0-.95,2.5l.294.861-.575.378a15.952,15.952,0,0,0-.253,2.865h2.943A16.654,16.654,0,0,1,128.37,381.96Z" transform="translate(-117.978 -343.59)" fill="#ff748f"/>
            <path id="Trazado_2652" data-name="Trazado 2652" d="M46.986,25.072a17.572,17.572,0,1,1,35.144,0Z" transform="translate(-45.883 -7.5)" fill="#5c586f"/>
            <g id="Grupo_20840" data-name="Grupo 20840" transform="translate(29.126 14.319)">
              <circle id="Elipse_1218" data-name="Elipse 1218" cx="4.112" cy="4.112" r="4.112" fill="#ffbd86"/>
            </g>
            <path id="Trazado_2653" data-name="Trazado 2653" d="M52.455,32.552a20.318,20.318,0,0,1,6.807-15.347A17.6,17.6,0,0,0,46.986,33.961H52.5C52.472,33.5,52.455,33.026,52.455,32.552Z" transform="translate(-45.883 -16.389)" fill="#4f4c5f"/>
            <path id="Trazado_2654" data-name="Trazado 2654" d="M111.543,99.844a3.462,3.462,0,0,0-2.118-2.462,14.265,14.265,0,0,1-5.749-4.727c-3.038,5.146-9.858,5.27-9.858,5.27,2.046-2.046.806-5.27.806-5.27-2.363,2.721-5.947,3.767-8.554,4.166a3.431,3.431,0,0,0-2.807,2.5,14.563,14.563,0,1,0,28.281.52Z" transform="translate(-78.664 -85.497)" fill="#fed2a4"/>
            <path id="Trazado_2655" data-name="Trazado 2655" d="M46.482,162.322a20.4,20.4,0,0,1-6.045-14.645,21.186,21.186,0,0,1,.544-4.78,3.426,3.426,0,0,0-2.517,2.444c-.045.169-.086.34-.125.511a3.413,3.413,0,0,0-.361-.019,4.112,4.112,0,0,0,0,8.224,2.5,2.5,0,0,0,.835-.121A14.692,14.692,0,0,0,46.482,162.322Z" transform="translate(-33.865 -131.514)" fill="#ffbd86"/>
            <g id="Grupo_20844" data-name="Grupo 20844" transform="translate(6.572 17.828)">
              <g id="Grupo_20843" data-name="Grupo 20843">
                <g id="Grupo_20841" data-name="Grupo 20841">
                  <ellipse id="Elipse_1219" data-name="Elipse 1219" cx="3.262" cy="2.598" rx="3.262" ry="2.598" fill="#ff9db0"/>
                </g>
                <g id="Grupo_20842" data-name="Grupo 20842" transform="translate(17.681)">
                  <ellipse id="Elipse_1220" data-name="Elipse 1220" cx="3.262" cy="2.598" rx="3.262" ry="2.598" fill="#ff9db0"/>
                </g>
              </g>
            </g>
          </g>
          <g id="Grupo_20846" data-name="Grupo 20846" transform="translate(0)">
            <path id="Trazado_2656" data-name="Trazado 2656" d="M165.949,197.98v1.333a.631.631,0,0,0,1.261,0V197.98a.631.631,0,0,0-1.261,0Z" transform="translate(-154.213 -180.758)"/>
            <path id="Trazado_2657" data-name="Trazado 2657" d="M331.667,197.349a.631.631,0,0,0-.631.631v1.333a.631.631,0,1,0,1.261,0V197.98A.631.631,0,0,0,331.667,197.349Z" transform="translate(-305.422 -180.758)"/>
            <path id="Trazado_2658" data-name="Trazado 2658" d="M230.544,212.955a1.794,1.794,0,0,1-2.708,0,.631.631,0,1,0-.951.828,3.055,3.055,0,0,0,4.61,0,.631.631,0,0,0-.951-.829Z" transform="translate(-209.884 -194.854)"/>
            <path id="Trazado_2659" data-name="Trazado 2659" d="M57.794,4.644a18.167,18.167,0,0,0-22.105-1.66.631.631,0,1,0,.693,1.054A16.949,16.949,0,0,1,62.254,14.773a4.794,4.794,0,0,0-1.926-.452,4.108,4.108,0,0,0-2.349-2.392,13.271,13.271,0,0,1-5.457-4.493.631.631,0,0,0-1.065.033c-1.656,2.805-4.8,4.317-8,4.82a6.54,6.54,0,0,0,.08-4.726.631.631,0,0,0-1.065-.187c-2.024,2.331-5.145,3.493-8.174,3.956a4.063,4.063,0,0,0-3.328,2.989,4.794,4.794,0,0,0-1.9.452,16.938,16.938,0,0,1,5.363-9.244.631.631,0,1,0-.837-.943A18.178,18.178,0,0,0,27.614,15.85a4.739,4.739,0,0,0,3.926,7.933A15.369,15.369,0,0,0,38.532,31.6a14.572,14.572,0,0,0-4.454,10.811.631.631,0,0,0,.631.631H56.617a.63.63,0,0,0,.631-.631,14.592,14.592,0,0,0-4.441-10.8,15.226,15.226,0,0,0,3.208-2.293.631.631,0,0,0-.86-.923A13.934,13.934,0,0,1,32.2,14.619a2.8,2.8,0,0,1,2.293-2.041A15.37,15.37,0,0,0,42.611,9.04a4.068,4.068,0,0,1-.915,3.574.631.631,0,0,0,.457,1.076,15.442,15.442,0,0,0,3.972-.736A11.567,11.567,0,0,0,52.037,8.88,14.036,14.036,0,0,0,57.519,13.1a2.8,2.8,0,0,1,1.731,2.006,13.921,13.921,0,0,1-2.474,11.5.631.631,0,0,0,1.005.761,15.172,15.172,0,0,0,2.02-3.583,4.747,4.747,0,0,0,3.911-7.934A18.185,18.185,0,0,0,57.794,4.644ZM50.509,32.606v2.059H46.293V33.383A15.159,15.159,0,0,0,50.509,32.606Zm4.923,5.7H51.77V35.926h2.718A13.047,13.047,0,0,1,55.432,38.31Zm-4.923,0H46.293V35.926h4.216ZM36.837,35.926h2.718V38.31H35.893A13.042,13.042,0,0,1,36.837,35.926Zm3.979,0h4.216V38.31H40.816Zm0-3.327a14.964,14.964,0,0,0,4.216.782v1.283H40.816Zm4.216,6.972v2.212H40.816V39.571Zm1.261,0h4.216v2.212H46.293ZM39.555,32.38v2.285H37.579A11.6,11.6,0,0,1,39.555,32.38ZM35.6,39.571h3.958v2.212h-4.2A15.111,15.111,0,0,1,35.6,39.571ZM51.77,41.783V39.571h3.958a15.109,15.109,0,0,1,.246,2.212Zm1.976-7.118H51.77V32.38A11.6,11.6,0,0,1,53.746,34.665ZM31.105,22.544a3.481,3.481,0,0,1-.414-6.938A15.2,15.2,0,0,0,31.105,22.544Zm29.124,0a15.351,15.351,0,0,0,.4-6.938,3.481,3.481,0,0,1-.4,6.938Z" transform="translate(-26.357 0)"/>
          </g>
        </g>
      </g>
      <path id="Trazado_101107" data-name="Trazado 101107" d="M6.262-3.674l2.69-9.834h3.637L8.043,0H4.481L-.028-13.508H3.581ZM17.877.186a5.16,5.16,0,0,1-3.739-1.378A4.757,4.757,0,0,1,12.71-4.778v-.26a6.165,6.165,0,0,1,.571-2.718,4.175,4.175,0,0,1,1.665-1.823,5.027,5.027,0,0,1,2.6-.645,4.345,4.345,0,0,1,3.34,1.313,5.159,5.159,0,0,1,1.225,3.66v1.215H15.892a2.253,2.253,0,0,0,.733,1.327,2.181,2.181,0,0,0,1.466.482A2.81,2.81,0,0,0,20.41-3.266l1.429,1.688A3.994,3.994,0,0,1,20.183-.292,5.6,5.6,0,0,1,17.877.186Zm-.353-8q-1.373,0-1.633,1.818h3.154v-.241a1.549,1.549,0,0,0-.38-1.164A1.514,1.514,0,0,0,17.525-7.812Zm8.9-1.15a3.129,3.129,0,0,1,2.561-1.262,3.12,3.12,0,0,1,2.5.983,4.419,4.419,0,0,1,.863,2.9V0H29.214V-6.262a1.767,1.767,0,0,0-.325-1.174,1.4,1.4,0,0,0-1.1-.376,1.5,1.5,0,0,0-1.364.612V0H23.3V-14.25h3.126ZM37.5,0H34.354V-10.038H37.5ZM36.33-14.064h3.3l-2.579,2.913-2.551,0ZM43.752-2.227a1.391,1.391,0,0,0,1.021-.357,1.31,1.31,0,0,0,.353-1h2.932A3.47,3.47,0,0,1,46.874-.872,4.4,4.4,0,0,1,43.826.186a4.455,4.455,0,0,1-3.451-1.373,5.41,5.41,0,0,1-1.262-3.8v-.13a6.114,6.114,0,0,1,.561-2.686A4.087,4.087,0,0,1,41.293-9.6a4.827,4.827,0,0,1,2.5-.626,4.344,4.344,0,0,1,3.108,1.085A3.85,3.85,0,0,1,48.057-6.2H45.125a1.716,1.716,0,0,0-.38-1.2,1.313,1.313,0,0,0-1.021-.417q-1.215,0-1.419,1.549a10.933,10.933,0,0,0-.065,1.354,4.294,4.294,0,0,0,.362,2.1A1.253,1.253,0,0,0,43.752-2.227ZM55.358-1.085A3.223,3.223,0,0,1,52.677.186a3.161,3.161,0,0,1-2.5-.96,4.038,4.038,0,0,1-.849-2.76v-6.5h3.126v6.522a1.124,1.124,0,0,0,1.252,1.29A1.634,1.634,0,0,0,55.237-3v-7.042h3.145V0H55.451ZM63.392,0H60.256V-14.25h3.136Zm1.531-5.112a5.925,5.925,0,0,1,.584-2.677,4.18,4.18,0,0,1,1.679-1.8,5.057,5.057,0,0,1,2.57-.631,4.616,4.616,0,0,1,3.553,1.4,5.358,5.358,0,0,1,1.3,3.8v.111a5.2,5.2,0,0,1-1.3,3.725A4.628,4.628,0,0,1,69.775.186,4.681,4.681,0,0,1,66.333-1.1a5.026,5.026,0,0,1-1.4-3.484Zm3.126.195a3.735,3.735,0,0,0,.436,2.041,1.453,1.453,0,0,0,1.29.649q1.67,0,1.707-2.57v-.315q0-2.7-1.726-2.7-1.568,0-1.7,2.329Z" transform="translate(62.429 93.892)" fill="#fff"/>
      <path id="Trazado_101108" data-name="Trazado 101108" d="M1.021,0V-13.508H5.372a6.4,6.4,0,0,1,3.219.812A5.706,5.706,0,0,1,10.822-10.4a6.919,6.919,0,0,1,.812,3.317v.622A6.959,6.959,0,0,1,10.85-3.14,5.731,5.731,0,0,1,8.642-.84,6.26,6.26,0,0,1,5.464,0ZM4.277-10.994V-2.5H5.409a2.533,2.533,0,0,0,2.152-1,4.887,4.887,0,0,0,.751-2.964v-.584A4.847,4.847,0,0,0,7.561-10a2.577,2.577,0,0,0-2.189-.993ZM19.139-1.085A3.223,3.223,0,0,1,16.458.186a3.161,3.161,0,0,1-2.5-.96,4.038,4.038,0,0,1-.849-2.76v-6.5h3.126v6.522a1.124,1.124,0,0,0,1.252,1.29A1.634,1.634,0,0,0,19.019-3v-7.042h3.145V0H19.232ZM28.732.186a5.16,5.16,0,0,1-3.739-1.378,4.757,4.757,0,0,1-1.429-3.586v-.26a6.165,6.165,0,0,1,.571-2.718A4.175,4.175,0,0,1,25.8-9.579a5.027,5.027,0,0,1,2.6-.645,4.345,4.345,0,0,1,3.34,1.313,5.159,5.159,0,0,1,1.225,3.66v1.215H26.747a2.253,2.253,0,0,0,.733,1.327,2.181,2.181,0,0,0,1.466.482,2.81,2.81,0,0,0,2.319-1.039l1.429,1.688A3.994,3.994,0,0,1,31.037-.292,5.6,5.6,0,0,1,28.732.186Zm-.353-8q-1.373,0-1.633,1.818H29.9v-.241a1.549,1.549,0,0,0-.38-1.164A1.514,1.514,0,0,0,28.379-7.812Zm8.711-2.227.1,1.178a3.4,3.4,0,0,1,2.867-1.364,2.864,2.864,0,0,1,2.343.937,4.461,4.461,0,0,1,.8,2.82V0H40.069V-6.336a1.694,1.694,0,0,0-.306-1.118,1.416,1.416,0,0,0-1.113-.357,1.491,1.491,0,0,0-1.364.724V0H34.159V-10.038Zm5.186-4.138a2.7,2.7,0,0,1-.617,1.8,1.914,1.914,0,0,1-1.526.738,3.011,3.011,0,0,1-1.364-.39,2.844,2.844,0,0,0-1.215-.39.7.7,0,0,0-.506.2.848.848,0,0,0-.209.631l-1.735-.093a2.719,2.719,0,0,1,.617-1.781,1.892,1.892,0,0,1,1.517-.751,3.131,3.131,0,0,1,1.215.343,7.463,7.463,0,0,0,.951.39,1.837,1.837,0,0,0,.422.047.708.708,0,0,0,.51-.206.852.852,0,0,0,.213-.638Zm2.264,9.064a5.925,5.925,0,0,1,.584-2.677,4.18,4.18,0,0,1,1.679-1.8,5.057,5.057,0,0,1,2.57-.631,4.616,4.616,0,0,1,3.553,1.4,5.358,5.358,0,0,1,1.3,3.8v.111a5.2,5.2,0,0,1-1.3,3.725A4.628,4.628,0,0,1,49.393.186,4.681,4.681,0,0,1,45.951-1.1a5.026,5.026,0,0,1-1.4-3.484Zm3.126.195A3.735,3.735,0,0,0,48.1-2.876a1.453,1.453,0,0,0,1.29.649q1.67,0,1.707-2.57v-.315q0-2.7-1.726-2.7-1.568,0-1.7,2.329Z" transform="translate(434.429 93.892)" fill="#fff"/>
      <g id="Grupo_20851" data-name="Grupo 20851" transform="translate(395.32 113.808)">
        <text id="idDueño_Nombres_Apellidos_Identificación" data-name="idDueño
Nombres
Apellidos
Identificación" transform="translate(17.109 20.083)" fill="#fff" font-size="19" font-family="Roboto-Regular, Roboto"><tspan x="0" y="0">idDueño</tspan><tspan x="0" y="27">Nombres</tspan><tspan x="0" y="54">Apellidos</tspan><tspan x="0" y="81">Identificación</tspan></text>
        <path id="Icon_ionic-ios-arrow-forward" data-name="Icon ionic-ios-arrow-forward" d="M17.871,14.486,11.595,8.215a1.18,1.18,0,0,1,0-1.674,1.2,1.2,0,0,1,1.679,0l7.111,7.106a1.183,1.183,0,0,1,.035,1.634l-7.14,7.155A1.185,1.185,0,1,1,11.6,20.762Z" transform="translate(-11.246 0.628)" fill="#fff"/>
        <path id="Icon_ionic-ios-arrow-forward-2" data-name="Icon ionic-ios-arrow-forward" d="M17.871,14.486,11.595,8.215a1.18,1.18,0,0,1,0-1.674,1.2,1.2,0,0,1,1.679,0l7.111,7.106a1.183,1.183,0,0,1,.035,1.634l-7.14,7.155A1.185,1.185,0,1,1,11.6,20.762Z" transform="translate(-11.246 27.983)" fill="#fff"/>
        <path id="Icon_ionic-ios-arrow-forward-3" data-name="Icon ionic-ios-arrow-forward" d="M17.871,14.486,11.595,8.215a1.18,1.18,0,0,1,0-1.674,1.2,1.2,0,0,1,1.679,0l7.111,7.106a1.183,1.183,0,0,1,.035,1.634l-7.14,7.155A1.185,1.185,0,1,1,11.6,20.762Z" transform="translate(-11.246 55.338)" fill="#fff"/>
        <path id="Icon_ionic-ios-arrow-forward-4" data-name="Icon ionic-ios-arrow-forward" d="M17.871,14.486,11.595,8.215a1.18,1.18,0,0,1,0-1.674,1.2,1.2,0,0,1,1.679,0l7.111,7.106a1.183,1.183,0,0,1,.035,1.634l-7.14,7.155A1.185,1.185,0,1,1,11.6,20.762Z" transform="translate(-11.246 81.599)" fill="#fff"/>
      </g>
      <g id="Grupo_21473" data-name="Grupo 21473" transform="translate(13.443 113.808)">
        <text id="idVehículo_idDueño_Marca_Número_de_placa_Número_de_chasis" data-name="idVehículo
idDueño
Marca
Número de placa
Número de chasis" transform="translate(15.986 20.083)" fill="#fff" font-size="19" font-family="Roboto-Regular, Roboto"><tspan x="0" y="0">idVehículo</tspan><tspan x="0" y="27">idDueño</tspan><tspan x="0" y="54">Marca</tspan><tspan x="0" y="81">Número de placa</tspan><tspan x="0" y="108">Número de chasis</tspan></text>
        <g id="Grupo_21472" data-name="Grupo 21472" transform="translate(0 5.73)">
          <path id="Icon_ionic-ios-arrow-forward-5" data-name="Icon ionic-ios-arrow-forward" d="M17.871,14.486,11.595,8.215a1.18,1.18,0,0,1,0-1.674,1.2,1.2,0,0,1,1.679,0l7.111,7.106a1.183,1.183,0,0,1,.035,1.634l-7.14,7.155A1.185,1.185,0,1,1,11.6,20.762Z" transform="translate(-11.246 -6.196)" fill="#fff"/>
          <path id="Icon_ionic-ios-arrow-forward-6" data-name="Icon ionic-ios-arrow-forward" d="M17.871,14.486,11.595,8.215a1.18,1.18,0,0,1,0-1.674,1.2,1.2,0,0,1,1.679,0l7.111,7.106a1.183,1.183,0,0,1,.035,1.634l-7.14,7.155A1.185,1.185,0,1,1,11.6,20.762Z" transform="translate(-11.246 48.514)" fill="#fff"/>
          <path id="Icon_ionic-ios-arrow-forward-7" data-name="Icon ionic-ios-arrow-forward" d="M17.871,14.486,11.595,8.215a1.18,1.18,0,0,1,0-1.674,1.2,1.2,0,0,1,1.679,0l7.111,7.106a1.183,1.183,0,0,1,.035,1.634l-7.14,7.155A1.185,1.185,0,1,1,11.6,20.762Z" transform="translate(-11.246 74.775)" fill="#fff"/>
          <path id="Icon_ionic-ios-arrow-forward-8" data-name="Icon ionic-ios-arrow-forward" d="M17.871,14.486,11.595,8.215a1.18,1.18,0,0,1,0-1.674,1.2,1.2,0,0,1,1.679,0l7.111,7.106a1.183,1.183,0,0,1,.035,1.634l-7.14,7.155A1.185,1.185,0,1,1,11.6,20.762Z" transform="translate(-11.246 102.13)" fill="#fff"/>
          <path id="Icon_ionic-ios-arrow-forward-9" data-name="Icon ionic-ios-arrow-forward" d="M17.871,14.486,11.595,8.215a1.18,1.18,0,0,1,0-1.674,1.2,1.2,0,0,1,1.679,0l7.111,7.106a1.183,1.183,0,0,1,.035,1.634l-7.14,7.155A1.185,1.185,0,1,1,11.6,20.762Z" transform="translate(-11.246 21.159)" fill="#fff"/>
        </g>
      </g>
      <line id="Línea_134" data-name="Línea 134" x2="35.014" transform="translate(210.947 159.476)" fill="none" stroke="#111e61" stroke-linecap="round" stroke-width="3"/>
      <line id="Línea_135" data-name="Línea 135" x2="35.014" transform="translate(317.084 159.476)" fill="none" stroke="#111e61" stroke-linecap="round" stroke-width="3"/>
    </g>
  </g>
</svg>
