<svg xmlns="http://www.w3.org/2000/svg" width="1031" height="226" viewBox="0 0 1031 226">
  <g id="Grupo_21465" data-name="Grupo 21465" transform="translate(0 -0.237)">
    <rect id="Rectángulo_5186" data-name="Rectángulo 5186" width="1031" height="226" transform="translate(0 0.237)" fill="#f3f9ff"/>
    <g id="Grupo_21462" data-name="Grupo 21462" transform="translate(44 47.237)">
      <rect id="Rectángulo_4884" data-name="Rectángulo 4884" width="272" height="72" transform="translate(45 30)" fill="#b7fff8"/>
      <rect id="Rectángulo_4885" data-name="Rectángulo 4885" width="264" height="72" transform="translate(629 30)" fill="#b7fff8"/>
      <circle id="Elipse_1207" data-name="Elipse 1207" cx="66" cy="66" r="66" transform="translate(408)" fill="#a6e1fe"/>
      <path id="Trazado_2614" data-name="Trazado 2614" d="M6162,2285.5h65.579" transform="translate(-5833.639 -2219.236)" fill="none" stroke="#111e61" stroke-linecap="round" stroke-width="3"/>
      <path id="Trazado_2615" data-name="Trazado 2615" d="M6162,2285.5h65.579" transform="translate(-5609.888 -2219.236)" fill="none" stroke="#111e61" stroke-linecap="round" stroke-width="3"/>
      <path id="Trazado_101126" data-name="Trazado 101126" d="M5.933-3.48,8.481-12.8h3.445L7.62,0H4.245L-.026-12.8H3.393Zm11,3.656a4.889,4.889,0,0,1-3.542-1.305,4.507,4.507,0,0,1-1.354-3.4v-.246a5.84,5.84,0,0,1,.541-2.575,3.955,3.955,0,0,1,1.578-1.727,4.763,4.763,0,0,1,2.461-.611,4.117,4.117,0,0,1,3.164,1.244,4.887,4.887,0,0,1,1.16,3.467v1.151H15.056a2.135,2.135,0,0,0,.694,1.257,2.066,2.066,0,0,0,1.389.457,2.662,2.662,0,0,0,2.2-.984l1.354,1.6A3.784,3.784,0,0,1,19.121-.277,5.3,5.3,0,0,1,16.937.176ZM16.6-7.4q-1.3,0-1.547,1.723h2.988v-.229a1.467,1.467,0,0,0-.36-1.1A1.434,1.434,0,0,0,16.6-7.4Zm8.429-1.09a2.964,2.964,0,0,1,2.426-1.2,2.956,2.956,0,0,1,2.373.932A4.186,4.186,0,0,1,30.647-6V0H27.677V-5.933a1.674,1.674,0,0,0-.308-1.112A1.322,1.322,0,0,0,26.323-7.4a1.424,1.424,0,0,0-1.292.58V0H22.069V-13.5h2.962ZM35.525,0H32.546V-9.51h2.979ZM34.418-13.324h3.129L35.1-10.564l-2.417,0ZM41.449-2.109a1.317,1.317,0,0,0,.967-.338,1.241,1.241,0,0,0,.334-.945h2.777A3.288,3.288,0,0,1,44.407-.826a4.168,4.168,0,0,1-2.887,1,4.22,4.22,0,0,1-3.27-1.3,5.125,5.125,0,0,1-1.2-3.6v-.123A5.792,5.792,0,0,1,37.586-7.4a3.872,3.872,0,0,1,1.534-1.7,4.573,4.573,0,0,1,2.373-.593,4.116,4.116,0,0,1,2.944,1.028,3.647,3.647,0,0,1,1.09,2.786H42.75A1.626,1.626,0,0,0,42.39-7a1.244,1.244,0,0,0-.967-.4q-1.151,0-1.345,1.468a10.357,10.357,0,0,0-.062,1.283,4.068,4.068,0,0,0,.343,1.986A1.187,1.187,0,0,0,41.449-2.109Zm11,1.081A3.054,3.054,0,0,1,49.9.176a3,3,0,0,1-2.369-.91,3.826,3.826,0,0,1-.8-2.615V-9.51h2.962v6.179A1.065,1.065,0,0,0,50.88-2.109a1.548,1.548,0,0,0,1.45-.729V-9.51H55.31V0H52.532ZM60.056,0H57.085V-13.5h2.971Zm1.45-4.843a5.613,5.613,0,0,1,.554-2.536A3.96,3.96,0,0,1,63.65-9.088a4.791,4.791,0,0,1,2.435-.6,4.373,4.373,0,0,1,3.366,1.323,5.076,5.076,0,0,1,1.23,3.6v.105a4.925,4.925,0,0,1-1.235,3.529A4.384,4.384,0,0,1,66.1.176a4.434,4.434,0,0,1-3.261-1.217,4.761,4.761,0,0,1-1.327-3.3Zm2.962.185a3.538,3.538,0,0,0,.413,1.934,1.376,1.376,0,0,0,1.222.615q1.582,0,1.617-2.435v-.3q0-2.558-1.635-2.558-1.485,0-1.608,2.206Z" transform="translate(161 73)" fill="#111e61"/>
      <path id="Trazado_101127" data-name="Trazado 101127" d="M11.013-10.415H7.172V0H4.087V-10.415H.316V-12.8h10.7ZM15.3,0H12.331V-9.51H15.3ZM12.155-11.971a1.334,1.334,0,0,1,.457-1.043,1.718,1.718,0,0,1,1.187-.407,1.718,1.718,0,0,1,1.187.407,1.334,1.334,0,0,1,.457,1.043,1.334,1.334,0,0,1-.457,1.043,1.718,1.718,0,0,1-1.187.407,1.718,1.718,0,0,1-1.187-.407A1.334,1.334,0,0,1,12.155-11.971ZM21.727.176a4.889,4.889,0,0,1-3.542-1.305,4.507,4.507,0,0,1-1.354-3.4v-.246a5.84,5.84,0,0,1,.541-2.575,3.955,3.955,0,0,1,1.578-1.727,4.763,4.763,0,0,1,2.461-.611,4.117,4.117,0,0,1,3.164,1.244,4.887,4.887,0,0,1,1.16,3.467v1.151H19.846a2.135,2.135,0,0,0,.694,1.257,2.066,2.066,0,0,0,1.389.457,2.662,2.662,0,0,0,2.2-.984l1.354,1.6A3.784,3.784,0,0,1,23.911-.277,5.3,5.3,0,0,1,21.727.176ZM21.393-7.4q-1.3,0-1.547,1.723h2.988v-.229a1.467,1.467,0,0,0-.36-1.1A1.434,1.434,0,0,0,21.393-7.4ZM29.646-9.51l.1,1.116a3.225,3.225,0,0,1,2.716-1.292,2.713,2.713,0,0,1,2.219.888,4.226,4.226,0,0,1,.76,2.672V0H32.467V-6a1.6,1.6,0,0,0-.29-1.059A1.342,1.342,0,0,0,31.122-7.4a1.413,1.413,0,0,0-1.292.686V0H26.868V-9.51ZM41.678.176a4.889,4.889,0,0,1-3.542-1.305,4.507,4.507,0,0,1-1.354-3.4v-.246a5.84,5.84,0,0,1,.541-2.575A3.955,3.955,0,0,1,38.9-9.075a4.763,4.763,0,0,1,2.461-.611,4.117,4.117,0,0,1,3.164,1.244,4.887,4.887,0,0,1,1.16,3.467v1.151H39.8a2.135,2.135,0,0,0,.694,1.257,2.066,2.066,0,0,0,1.389.457,2.662,2.662,0,0,0,2.2-.984l1.354,1.6A3.784,3.784,0,0,1,43.862-.277,5.3,5.3,0,0,1,41.678.176ZM41.344-7.4q-1.3,0-1.547,1.723h2.988v-.229a1.467,1.467,0,0,0-.36-1.1A1.434,1.434,0,0,0,41.344-7.4Z" transform="translate(452 73)" fill="#111e61"/>
      <path id="Trazado_101128" data-name="Trazado 101128" d="M.967,0V-12.8H5.089a6.064,6.064,0,0,1,3.05.769,5.406,5.406,0,0,1,2.114,2.171,6.554,6.554,0,0,1,.769,3.142v.589a6.592,6.592,0,0,1-.743,3.151A5.429,5.429,0,0,1,8.187-.8a5.93,5.93,0,0,1-3.01.8ZM4.052-10.415v8.042H5.124a2.4,2.4,0,0,0,2.039-.945,4.63,4.63,0,0,0,.712-2.808V-6.68a4.592,4.592,0,0,0-.712-2.795,2.442,2.442,0,0,0-2.074-.94Zm14.08,9.387a3.054,3.054,0,0,1-2.54,1.2,3,3,0,0,1-2.369-.91,3.826,3.826,0,0,1-.8-2.615V-9.51h2.962v6.179a1.065,1.065,0,0,0,1.187,1.222,1.548,1.548,0,0,0,1.45-.729V-9.51H21V0H18.22ZM27.22.176a4.889,4.889,0,0,1-3.542-1.305,4.507,4.507,0,0,1-1.354-3.4v-.246a5.84,5.84,0,0,1,.541-2.575,3.955,3.955,0,0,1,1.578-1.727A4.763,4.763,0,0,1,26.9-9.686a4.117,4.117,0,0,1,3.164,1.244,4.887,4.887,0,0,1,1.16,3.467v1.151H25.339a2.135,2.135,0,0,0,.694,1.257,2.066,2.066,0,0,0,1.389.457,2.662,2.662,0,0,0,2.2-.984l1.354,1.6A3.784,3.784,0,0,1,29.4-.277,5.3,5.3,0,0,1,27.22.176ZM26.886-7.4q-1.3,0-1.547,1.723h2.988v-.229a1.467,1.467,0,0,0-.36-1.1A1.434,1.434,0,0,0,26.886-7.4ZM35.139-9.51l.1,1.116a3.225,3.225,0,0,1,2.716-1.292A2.713,2.713,0,0,1,40.17-8.8a4.226,4.226,0,0,1,.76,2.672V0H37.96V-6a1.6,1.6,0,0,0-.29-1.059A1.342,1.342,0,0,0,36.615-7.4a1.413,1.413,0,0,0-1.292.686V0H32.361V-9.51Zm4.913-3.92a2.562,2.562,0,0,1-.584,1.7,1.813,1.813,0,0,1-1.446.7,2.852,2.852,0,0,1-1.292-.369,2.7,2.7,0,0,0-1.151-.369.66.66,0,0,0-.479.193.8.8,0,0,0-.2.6l-1.644-.088a2.576,2.576,0,0,1,.584-1.687,1.793,1.793,0,0,1,1.437-.712,2.967,2.967,0,0,1,1.151.325,7.07,7.07,0,0,0,.9.369,1.74,1.74,0,0,0,.4.044.671.671,0,0,0,.483-.2.807.807,0,0,0,.2-.6ZM42.2-4.843a5.613,5.613,0,0,1,.554-2.536,3.96,3.96,0,0,1,1.591-1.709,4.791,4.791,0,0,1,2.435-.6,4.373,4.373,0,0,1,3.366,1.323,5.076,5.076,0,0,1,1.23,3.6v.105a4.925,4.925,0,0,1-1.235,3.529A4.384,4.384,0,0,1,46.793.176a4.434,4.434,0,0,1-3.261-1.217,4.761,4.761,0,0,1-1.327-3.3Zm2.962.185a3.538,3.538,0,0,0,.413,1.934,1.376,1.376,0,0,0,1.222.615q1.582,0,1.617-2.435v-.3q0-2.558-1.635-2.558-1.485,0-1.608,2.206Z" transform="translate(760 73)" fill="#111e61"/>
      <g id="Grupo_20853" data-name="Grupo 20853" transform="translate(0 22)">
        <circle id="Elipse_1215" data-name="Elipse 1215" cx="45" cy="45" r="45" fill="#4dd0e1"/>
        <g id="coche" transform="translate(13.998 22.909)">
          <g id="Grupo_20838" data-name="Grupo 20838" transform="translate(0.916 0.95)">
            <g id="Grupo_20827" data-name="Grupo 20827" transform="translate(53.965 12.882)">
              <path id="Trazado_2619" data-name="Trazado 2619" d="M454,186.2h-4.228a1.772,1.772,0,0,0-.762.173q.044.7.044,1.415v3.5a8.866,8.866,0,0,1,1.489,1.647H454a1.8,1.8,0,0,0,1.792-1.792v-3.153A1.8,1.8,0,0,0,454,186.2Z" transform="translate(-449.011 -186.195)" fill="#dfebfa"/>
            </g>
            <g id="Grupo_20828" data-name="Grupo 20828" transform="translate(53.965 12.882)">
              <path id="Trazado_2620" data-name="Trazado 2620" d="M451.927,191.139v-3.153a1.8,1.8,0,0,1,1.792-1.792h-3.946a1.772,1.772,0,0,0-.762.173q.044.7.044,1.415v3.5a8.875,8.875,0,0,1,1.489,1.647h3.174A1.8,1.8,0,0,1,451.927,191.139Z" transform="translate(-449.012 -186.194)" fill="#b1dbfc"/>
              <path id="Trazado_2621" data-name="Trazado 2621" d="M449.373,227.839h0Z" transform="translate(-449.329 -222.749)" fill="#b1dbfc"/>
            </g>
            <g id="Grupo_20829" data-name="Grupo 20829" transform="translate(0 12.882)">
              <path id="Trazado_2622" data-name="Trazado 2622" d="M13.267,191.284v-3.5c0-.534.021-1.064.057-1.588H9.286a1.8,1.8,0,0,0-1.792,1.792v3.153a1.8,1.8,0,0,0,1.792,1.792h2.492a8.876,8.876,0,0,1,1.489-1.647Z" transform="translate(-7.494 -186.194)" fill="#dfebfa"/>
            </g>
            <path id="Trazado_2623" data-name="Trazado 2623" d="M10.409,191.139v-3.153a1.8,1.8,0,0,1,1.792-1.792H9.286a1.8,1.8,0,0,0-1.792,1.792v3.153a1.8,1.8,0,0,0,1.792,1.792h2.492l.032-.045A1.8,1.8,0,0,1,10.409,191.139Z" transform="translate(-7.494 -173.313)" fill="#b1dbfc"/>
            <g id="Grupo_20830" data-name="Grupo 20830" transform="translate(5.529)">
              <path id="Trazado_2624" data-name="Trazado 2624" d="M58.424,96.792h37.33a8.671,8.671,0,0,1,5.7,2.141V95.4a19.642,19.642,0,0,0-2.538-10.02C97.13,82.429,94.687,80.8,92.034,80.8H62.143c-2.654,0-5.1,1.626-6.879,4.577A19.642,19.642,0,0,0,52.726,95.4v3.533A8.672,8.672,0,0,1,58.424,96.792Z" transform="translate(-52.726 -80.803)" fill="#ff4756"/>
            </g>
            <g id="Grupo_20831" data-name="Grupo 20831" transform="translate(5.529)">
              <path id="Trazado_2625" data-name="Trazado 2625" d="M56.657,95.4A19.642,19.642,0,0,1,59.2,85.38c1.783-2.952,4.225-4.577,6.879-4.577h-3.93c-2.654,0-5.1,1.626-6.879,4.577A19.642,19.642,0,0,0,52.727,95.4v3.533a8.726,8.726,0,0,1,3.93-1.956Z" transform="translate(-52.727 -80.803)" fill="#fc2d39"/>
            </g>
            <g id="Grupo_20832" data-name="Grupo 20832" transform="translate(8.613 3.112)">
              <path id="Trazado_2626" data-name="Trazado 2626" d="M80.577,119.138h37.33a8.62,8.62,0,0,1,2.613.4v-1.8a16.491,16.491,0,0,0-2.088-8.4c-1.2-1.989-2.709-3.084-4.245-3.084H84.3c-1.536,0-3.044,1.1-4.245,3.084a16.491,16.491,0,0,0-2.088,8.4v1.8a8.618,8.618,0,0,1,2.613-.4Z" transform="translate(-77.964 -106.261)" fill="#60b8fe"/>
            </g>
            <g id="Grupo_20833" data-name="Grupo 20833" transform="translate(8.613 3.112)">
              <path id="Trazado_2627" data-name="Trazado 2627" d="M81.893,117.746a16.489,16.489,0,0,1,2.088-8.4c1.2-1.989,2.709-3.084,4.245-3.084H84.3c-1.536,0-3.044,1.1-4.245,3.084a16.491,16.491,0,0,0-2.088,8.4v1.8a8.619,8.619,0,0,1,2.613-.4h1.317v-1.392Z" transform="translate(-77.963 -106.261)" fill="#23a8fe"/>
            </g>
            <path id="Trazado_2628" data-name="Trazado 2628" d="M293.5,148.059a6.823,6.823,0,0,0-6.793,6.853,6.975,6.975,0,0,0,.062.915h3.093a3.82,3.82,0,0,1-.111-.915,3.75,3.75,0,1,1,7.5,0,3.821,3.821,0,0,1-.111.915h3.093a6.956,6.956,0,0,0,.062-.915A6.823,6.823,0,0,0,293.5,148.059Z" transform="translate(-252.582 -139.839)" fill="#23a8fe"/>
            <path id="Trazado_2629" data-name="Trazado 2629" d="M293.5,148.059a6.823,6.823,0,0,0-6.793,6.853,6.975,6.975,0,0,0,.062.915h3.093a3.82,3.82,0,0,1-.111-.915,3.75,3.75,0,1,1,7.5,0,3.821,3.821,0,0,1-.111.915h3.093a6.956,6.956,0,0,0,.062-.915A6.823,6.823,0,0,0,293.5,148.059Z" transform="translate(-252.582 -139.839)" fill="#23a8fe"/>
            <g id="Grupo_20834" data-name="Grupo 20834" transform="translate(34.127 8.22)">
              <path id="Trazado_2630" data-name="Trazado 2630" d="M290.122,153.273a6.832,6.832,0,0,1,4.988-5.02,6.746,6.746,0,0,0-1.608-.195,6.823,6.823,0,0,0-6.793,6.853,6.975,6.975,0,0,0,.062.915h3.093a3.821,3.821,0,0,1,.258-2.554Z" transform="translate(-286.709 -148.059)" fill="#0193fa"/>
            </g>
            <path id="Trazado_2631" data-name="Trazado 2631" d="M73.754,210.476H36.424a8.787,8.787,0,0,0-8.761,8.761v8.96a1.464,1.464,0,0,1,.407-.059h20.4a1.479,1.479,0,0,1,1.185-.6H60.521a1.479,1.479,0,0,1,1.185.6h20.4a1.464,1.464,0,0,1,.407.059v-8.96a8.786,8.786,0,0,0-8.761-8.761Z" transform="translate(-25.198 -194.627)" fill="#ff656f"/>
            <g id="Grupo_20835" data-name="Grupo 20835" transform="translate(2.465 15.849)">
              <path id="Trazado_2632" data-name="Trazado 2632" d="M33.416,219.236a8.787,8.787,0,0,1,8.761-8.761H36.425a8.787,8.787,0,0,0-8.761,8.761v8.96a1.465,1.465,0,0,1,.407-.059h5.345v-8.9Z" transform="translate(-27.664 -210.475)" fill="#ff4756"/>
            </g>
            <path id="Trazado_2633" data-name="Trazado 2633" d="M156.133,219.03a4.67,4.67,0,0,0,3.981-2.229l3.878-6.326H135.5l3.877,6.326a4.67,4.67,0,0,0,3.982,2.229Z" transform="translate(-119.855 -194.626)" fill="#ff4756"/>
            <path id="Trazado_2634" data-name="Trazado 2634" d="M144.666,216.8l-3.877-6.326H135.5l3.877,6.326a4.67,4.67,0,0,0,3.982,2.229h5.286A4.67,4.67,0,0,1,144.666,216.8Z" transform="translate(-119.856 -194.626)" fill="#fc2d39"/>
            <circle id="Elipse_1216" data-name="Elipse 1216" cx="3.573" cy="3.573" r="3.573" transform="translate(45.849 21.066)" fill="#ffd301"/>
            <circle id="Elipse_1217" data-name="Elipse 1217" cx="3.573" cy="3.573" r="3.573" transform="translate(6.786 21.066)" fill="#ffd301"/>
            <path id="Trazado_2635" data-name="Trazado 2635" d="M386.16,256.728a3.571,3.571,0,0,1,1.8-3.1,3.573,3.573,0,1,0,0,6.2A3.571,3.571,0,0,1,386.16,256.728Z" transform="translate(-336.766 -232.089)" fill="#ffc20c"/>
            <path id="Trazado_2636" data-name="Trazado 2636" d="M66.56,256.728a3.571,3.571,0,0,1,1.8-3.1,3.573,3.573,0,1,0,0,6.2A3.571,3.571,0,0,1,66.56,256.728Z" transform="translate(-56.229 -232.089)" fill="#ffc20c"/>
            <g id="Grupo_20836" data-name="Grupo 20836" transform="translate(44.514 37.161)">
              <path id="Trazado_2637" data-name="Trazado 2637" d="M371.685,384.836v3.919a1.82,1.82,0,0,0,1.815,1.815h8.03a1.82,1.82,0,0,0,1.815-1.815v-3.919Z" transform="translate(-371.685 -384.836)" fill="#665e68"/>
            </g>
            <path id="Trazado_2638" data-name="Trazado 2638" d="M377.03,388.755v-3.919h-5.345v3.919a1.82,1.82,0,0,0,1.815,1.815h5.345A1.82,1.82,0,0,1,377.03,388.755Z" transform="translate(-327.171 -347.675)" fill="#544e55"/>
            <g id="Grupo_20837" data-name="Grupo 20837" transform="translate(3.61 37.161)">
              <path id="Trazado_2639" data-name="Trazado 2639" d="M37.028,384.836v3.919a1.82,1.82,0,0,0,1.815,1.815h8.03a1.82,1.82,0,0,0,1.815-1.815v-3.919Z" transform="translate(-37.028 -384.836)" fill="#665e68"/>
            </g>
            <path id="Trazado_2640" data-name="Trazado 2640" d="M42.373,388.755v-3.919H37.028v3.919a1.82,1.82,0,0,0,1.815,1.815h5.345A1.82,1.82,0,0,1,42.373,388.755Z" transform="translate(-33.418 -347.675)" fill="#544e55"/>
            <path id="Trazado_2641" data-name="Trazado 2641" d="M40.589,353.729v-2.862a1.469,1.469,0,0,1,.3-.882H20.361a1.485,1.485,0,0,0-1.481,1.481v1.665a1.485,1.485,0,0,0,1.481,1.481H40.885a1.47,1.47,0,0,1-.3-.882Z" transform="translate(-17.488 -317.084)" fill="#dfebfa"/>
            <path id="Trazado_2642" data-name="Trazado 2642" d="M24.225,353.131v-1.665a1.485,1.485,0,0,1,1.481-1.48H20.361a1.485,1.485,0,0,0-1.481,1.48v1.665a1.485,1.485,0,0,0,1.481,1.481h5.345A1.485,1.485,0,0,1,24.225,353.131Z" transform="translate(-17.488 -317.084)" fill="#b1dbfc"/>
            <path id="Trazado_2643" data-name="Trazado 2643" d="M325.712,349.984H305.188a1.469,1.469,0,0,1,.3.883v2.862a1.468,1.468,0,0,1-.3.882h20.524a1.485,1.485,0,0,0,1.481-1.48v-1.665A1.485,1.485,0,0,0,325.712,349.984Z" transform="translate(-268.802 -317.083)" fill="#dfebfa"/>
            <path id="Trazado_2644" data-name="Trazado 2644" d="M205.571,350.914h-11.6a1.485,1.485,0,0,1-1.481-1.481v-2.862a1.485,1.485,0,0,1,1.481-1.481h11.6a1.485,1.485,0,0,1,1.481,1.481v2.862A1.485,1.485,0,0,1,205.571,350.914Z" transform="translate(-169.881 -312.788)" fill="#b1dbfc"/>
            <path id="Trazado_2645" data-name="Trazado 2645" d="M197.839,349.433v-2.862a1.485,1.485,0,0,1,1.481-1.481h-5.345a1.485,1.485,0,0,0-1.481,1.481v2.862a1.485,1.485,0,0,0,1.481,1.481h5.345A1.485,1.485,0,0,1,197.839,349.433Z" transform="translate(-169.882 -312.788)" fill="#8bcaff"/>
          </g>
          <g id="Grupo_20839" data-name="Grupo 20839" transform="translate(0)">
            <path id="Trazado_2646" data-name="Trazado 2646" d="M59.871,85.91h-3.92c-.66-6.138-4.171-12.882-10.2-12.882H15.863c-2.985,0-5.706,1.768-7.662,4.977a19.25,19.25,0,0,0-2.536,7.9H2.709A2.712,2.712,0,0,0,0,88.618v3.153A2.712,2.712,0,0,0,2.709,94.48h.659a9.617,9.617,0,0,0-.9,4.075v7.774a2.4,2.4,0,0,0-1.074,2v1.665A2.4,2.4,0,0,0,3.61,112.38v2.645a2.734,2.734,0,0,0,2.731,2.731h8.03a2.734,2.734,0,0,0,2.731-2.731v-2.636H23.43a2.385,2.385,0,0,0,1.579.6h11.6a2.384,2.384,0,0,0,1.579-.6h6.328v2.636a2.734,2.734,0,0,0,2.731,2.731h8.03a2.734,2.734,0,0,0,2.731-2.731V112.38a2.4,2.4,0,0,0,2.218-2.388v-1.665a2.4,2.4,0,0,0-1.074-2v-3.067a.917.917,0,1,0-1.833,0v2.666H38.186a2.408,2.408,0,0,0-1.579-.6h-11.6a2.41,2.41,0,0,0-1.579.6H4.3V98.555a7.873,7.873,0,0,1,7.844-7.844h3.906L19.658,96.6a5.622,5.622,0,0,0,4.763,2.667H37.194A5.623,5.623,0,0,0,41.957,96.6l3.609-5.888h3.906a7.873,7.873,0,0,1,7.844,7.844v.43a.917.917,0,0,0,1.833,0,9.931,9.931,0,0,0-.9-4.5h1.623a2.712,2.712,0,0,0,2.709-2.709V88.618a2.712,2.712,0,0,0-2.709-2.709ZM2.709,92.647a.876.876,0,0,1-.875-.875V88.618a.876.876,0,0,1,.875-.875h2.83c-.006.223-.01.447-.01.672V91.5a9.754,9.754,0,0,0-1.043,1.147Zm12.56,22.378a.9.9,0,0,1-.9.9H6.341a.9.9,0,0,1-.9-.9v-2.636h9.825Zm40.9,0a.9.9,0,0,1-.9.9h-8.03a.9.9,0,0,1-.9-.9v-2.636h9.826Zm1.654-7.262a.535.535,0,0,1,.094.01l.038.008a.572.572,0,0,1,.431.546v1.665a.571.571,0,0,1-.564.564H39v-2.793Zm-21.22-.6a.574.574,0,0,1,.564.564v2.862a.574.574,0,0,1-.564.564h-11.6a.574.574,0,0,1-.564-.564v-2.862a.573.573,0,0,1,.564-.564h11.6Zm-13.995.6v2.793H3.789a.571.571,0,0,1-.564-.564v-1.665a.572.572,0,0,1,.431-.545l.039-.009a.534.534,0,0,1,.094-.01H22.612ZM10.447,89.028v-.613A15.313,15.313,0,0,1,12.4,80.564c1.028-1.688,2.258-2.618,3.462-2.618H29.151a.917.917,0,0,0,0-1.833H15.863c-1.868,0-3.654,1.242-5.028,3.5a17.157,17.157,0,0,0-2.222,8.8v1.132a9.625,9.625,0,0,0-1.251.6V88.415a18.534,18.534,0,0,1,2.4-9.456c1.61-2.642,3.775-4.1,6.1-4.1h29.89c2.321,0,4.486,1.455,6.1,4.1a18.494,18.494,0,0,1,2.4,9.456v1.731a9.632,9.632,0,0,0-1.251-.6V88.415a17.155,17.155,0,0,0-2.222-8.8c-1.374-2.255-3.159-3.5-5.028-3.5H33.429a.917.917,0,0,0,0,1.833H45.753c1.2,0,2.433.93,3.462,2.618a15.313,15.313,0,0,1,1.954,7.851v.613a9.986,9.986,0,0,0-1.622-.149,7.71,7.71,0,0,0-15.419,0H12.143a10.081,10.081,0,0,0-1.7.15Zm29.948,6.613a3.777,3.777,0,0,1-3.2,1.792H24.421a3.777,3.777,0,0,1-3.2-1.792L18.2,90.711H43.416ZM39,88.877a2.832,2.832,0,0,1,5.665,0Zm7.5,0a4.666,4.666,0,0,0-9.332,0h-1.21a5.877,5.877,0,0,1,11.753,0Zm14.243,2.894a.876.876,0,0,1-.875.875H57.13A9.762,9.762,0,0,0,56.087,91.5V88.415c0-.222,0-.447-.01-.672h3.794a.876.876,0,0,1,.875.875v3.153Z" transform="translate(0 -73.028)" fill="#050402"/>
            <path id="Trazado_2647" data-name="Trazado 2647" d="M186.168,300.85a.917.917,0,1,0,0,1.833h14.5a.917.917,0,1,0,0-1.833Z" transform="translate(-162.609 -273.004)" fill="#050402"/>
            <path id="Trazado_2648" data-name="Trazado 2648" d="M379.611,245.381a4.49,4.49,0,1,0,4.49,4.49A4.5,4.5,0,0,0,379.611,245.381Zm0,7.147a2.657,2.657,0,1,1,2.657-2.657A2.66,2.66,0,0,1,379.611,252.528Z" transform="translate(-329.271 -224.315)" fill="#050402"/>
            <path id="Trazado_2649" data-name="Trazado 2649" d="M55.521,249.871a4.49,4.49,0,1,0,4.49-4.49A4.5,4.5,0,0,0,55.521,249.871Zm7.147,0a2.657,2.657,0,1,1-2.656-2.656A2.66,2.66,0,0,1,62.668,249.871Z" transform="translate(-48.735 -224.315)" fill="#050402"/>
          </g>
        </g>
      </g>
      <g id="Grupo_20854" data-name="Grupo 20854" transform="translate(854 22)">
        <circle id="Elipse_1212" data-name="Elipse 1212" cx="45" cy="45" r="45" fill="#4dd0e1"/>
        <g id="boy" transform="translate(18.173 15.679)">
          <g id="Grupo_20845" data-name="Grupo 20845" transform="translate(0.868 0.867)">
            <path id="Trazado_2650" data-name="Trazado 2650" d="M155.478,385.535h0l-.65-.852.264-.851a19.105,19.105,0,0,0-1.3-3.438l-1.111-.685.235-.889a15.562,15.562,0,0,0-3.91-4.381h-16.48a15.566,15.566,0,0,0-3.91,4.382l-.007,1.027-.867.545a19.088,19.088,0,0,0-1.306,3.439l.4,1.184-.79.52a21.938,21.938,0,0,0-.348,3.939h6.665l.728-.574,1.006.574h5.8l.867-.574.867.574h5.8l1.006-.574.728.574h6.665A21.917,21.917,0,0,0,155.478,385.535Z" transform="translate(-115.083 -332.019)" fill="#ff889e"/>
            <path id="Trazado_2651" data-name="Trazado 2651" d="M129.372,384.781c0-4.153,2.045-8.341,5-10.342h-1.851a15.566,15.566,0,0,0-3.91,4.382l-.007,1.027-.867.545a19.088,19.088,0,0,0-1.306,3.439l.4,1.184-.79.52a21.936,21.936,0,0,0-.348,3.939h4.047A22.9,22.9,0,0,1,129.372,384.781Z" transform="translate(-115.082 -332.019)" fill="#ff748f"/>
            <path id="Trazado_2652" data-name="Trazado 2652" d="M46.986,31.663a24.163,24.163,0,1,1,48.326,0Z" transform="translate(-45.469 -7.5)" fill="#5c586f"/>
            <g id="Grupo_20840" data-name="Grupo 20840" transform="translate(40.05 19.69)">
              <circle id="Elipse_1218" data-name="Elipse 1218" cx="5.655" cy="5.655" r="5.655" fill="#ffbd86"/>
            </g>
            <path id="Trazado_2653" data-name="Trazado 2653" d="M54.507,38.309a27.94,27.94,0,0,1,9.361-21.1A24.206,24.206,0,0,0,46.986,40.246h7.586C54.53,39.606,54.507,38.96,54.507,38.309Z" transform="translate(-45.469 -16.083)" fill="#4f4c5f"/>
            <path id="Trazado_2654" data-name="Trazado 2654" d="M122.334,102.54a4.761,4.761,0,0,0-2.913-3.385c-4.763-1.865-7.9-6.5-7.9-6.5C107.338,99.732,97.96,99.9,97.96,99.9c2.813-2.813,1.108-7.247,1.108-7.247-3.249,3.741-8.178,5.18-11.763,5.728a4.718,4.718,0,0,0-3.86,3.441,20.025,20.025,0,1,0,38.888.716Z" transform="translate(-77.122 -82.812)" fill="#fed2a4"/>
            <path id="Trazado_2655" data-name="Trazado 2655" d="M51.215,169.608A28.048,28.048,0,0,1,42.9,149.47a29.133,29.133,0,0,1,.747-6.573,4.711,4.711,0,0,0-3.462,3.361c-.062.233-.118.467-.172.7a4.688,4.688,0,0,0-.5-.026,5.655,5.655,0,0,0,0,11.309,3.432,3.432,0,0,0,1.149-.166A20.2,20.2,0,0,0,51.215,169.608Z" transform="translate(-33.865 -127.245)" fill="#ffbd86"/>
            <g id="Grupo_20844" data-name="Grupo 20844" transform="translate(9.038 24.515)">
              <g id="Grupo_20843" data-name="Grupo 20843">
                <g id="Grupo_20841" data-name="Grupo 20841">
                  <ellipse id="Elipse_1219" data-name="Elipse 1219" cx="4.486" cy="3.572" rx="4.486" ry="3.572" fill="#ff9db0"/>
                </g>
                <g id="Grupo_20842" data-name="Grupo 20842" transform="translate(24.313)">
                  <ellipse id="Elipse_1220" data-name="Elipse 1220" cx="4.486" cy="3.572" rx="4.486" ry="3.572" fill="#ff9db0"/>
                </g>
              </g>
            </g>
          </g>
          <g id="Grupo_20846" data-name="Grupo 20846">
            <path id="Trazado_2656" data-name="Trazado 2656" d="M165.949,198.216v1.834a.867.867,0,1,0,1.734,0v-1.834a.867.867,0,1,0-1.734,0Z" transform="translate(-149.812 -174.535)"/>
            <path id="Trazado_2657" data-name="Trazado 2657" d="M331.9,197.349a.867.867,0,0,0-.867.867v1.834a.867.867,0,0,0,1.734,0v-1.834A.867.867,0,0,0,331.9,197.349Z" transform="translate(-295.814 -174.535)"/>
            <path id="Trazado_2658" data-name="Trazado 2658" d="M231.974,213.037a2.467,2.467,0,0,1-3.724,0,.867.867,0,1,0-1.307,1.139,4.2,4.2,0,0,0,6.339,0,.867.867,0,0,0-1.307-1.14Z" transform="translate(-203.565 -188.146)"/>
            <path id="Trazado_2659" data-name="Trazado 2659" d="M69.586,6.385A24.981,24.981,0,0,0,39.189,4.1a.867.867,0,0,0,.953,1.449A23.306,23.306,0,0,1,75.718,20.314a6.593,6.593,0,0,0-2.648-.622A5.648,5.648,0,0,0,69.839,16.4a18.249,18.249,0,0,1-7.5-6.178.868.868,0,0,0-1.464.046c-2.277,3.858-6.595,5.937-11,6.628a8.993,8.993,0,0,0,.11-6.5.868.868,0,0,0-1.464-.257c-2.784,3.206-7.075,4.8-11.239,5.439A5.587,5.587,0,0,0,32.7,19.693a6.592,6.592,0,0,0-2.611.621A23.292,23.292,0,0,1,37.464,7.6a.867.867,0,1,0-1.151-1.3A25,25,0,0,0,28.086,21.8a6.517,6.517,0,0,0,5.4,10.908A21.133,21.133,0,0,0,43.1,43.456a20.038,20.038,0,0,0-6.125,14.867.867.867,0,0,0,.867.867H67.967a.867.867,0,0,0,.867-.867,20.065,20.065,0,0,0-6.106-14.849,20.936,20.936,0,0,0,4.411-3.152.867.867,0,0,0-1.182-1.269A19.16,19.16,0,0,1,34.385,20.1,3.851,3.851,0,0,1,37.539,17.3,21.135,21.135,0,0,0,48.707,12.43a5.594,5.594,0,0,1-1.258,4.915.868.868,0,0,0,.629,1.48,21.234,21.234,0,0,0,5.462-1.012,15.905,15.905,0,0,0,8.128-5.6,19.3,19.3,0,0,0,7.538,5.807,3.852,3.852,0,0,1,2.381,2.758,19.143,19.143,0,0,1-3.4,15.81.867.867,0,1,0,1.382,1.047,20.863,20.863,0,0,0,2.777-4.927A6.527,6.527,0,0,0,77.722,21.8a25.006,25.006,0,0,0-8.137-15.41ZM59.568,44.836v2.832h-5.8V45.9A20.845,20.845,0,0,0,59.568,44.836Zm6.769,7.843H61.3V49.4H65.04A17.94,17.94,0,0,1,66.337,52.68Zm-6.769,0h-5.8V49.4h5.8ZM40.768,49.4h3.738V52.68H39.47A17.934,17.934,0,0,1,40.768,49.4Zm5.472,0h5.8V52.68h-5.8Zm0-4.575a20.576,20.576,0,0,0,5.8,1.076v1.765h-5.8Zm5.8,9.586v3.041h-5.8V54.414Zm1.734,0h5.8v3.041h-5.8Zm-9.266-9.889v3.143H41.788A15.947,15.947,0,0,1,44.505,44.525Zm-5.442,9.889h5.442v3.041H38.724A20.778,20.778,0,0,1,39.063,54.414ZM61.3,57.455V54.414h5.442a20.776,20.776,0,0,1,.339,3.041Zm2.717-9.787H61.3V44.525A15.944,15.944,0,0,1,64.019,47.668ZM32.886,31a4.787,4.787,0,0,1-.569-9.541A20.9,20.9,0,0,0,32.886,31Zm40.048,0a21.108,21.108,0,0,0,.557-9.541A4.787,4.787,0,0,1,72.935,31Z" transform="translate(-26.357)"/>
          </g>
        </g>
      </g>
    </g>
  </g>
</svg>
