<?xml version="1.0" encoding="utf-8"?>
<!-- Generator: Adobe Illustrator 25.2.3, SVG Export Plug-In . SVG Version: 6.00 Build 0)  -->
<svg version="1.1" id="Layer_1" xmlns="http://www.w3.org/2000/svg" xmlns:xlink="http://www.w3.org/1999/xlink" x="0px" y="0px"
	 viewBox="0 0 1020 302" style="enable-background:new 0 0 1020 302;" xml:space="preserve">
<style type="text/css">
	.st0{fill:#1565C0;}
	.st1{fill:#FFFFFF;}
	.st2{fill:none;stroke:#111E61;}
	.st3{fill:#FFCA28;}
	.st4{fill:none;stroke:#111E61;stroke-width:3;}
	.st5{fill:#111E61;}
</style>
<g id="Grupo_55172" transform="translate(-284 -3521)">
	<g id="Grupo_55173">
		<path id="marek-piwnicki-LGgKrtjNsoI-unsplash" class="st0" d="M294,3521h1000c5.5,0,10,4.5,10,10v282c0,5.5-4.5,10-10,10H294
			c-5.5,0-10-4.5-10-10v-282C284,3525.5,288.5,3521,294,3521z"/>
		<g id="Grupo_20817" transform="translate(366.641 3642.561)">
			<g transform="matrix(1, 0, 0, 1, -82.64, -121.56)">
				<g id="Rectángulo_4886-2" transform="translate(83 122)">
					<path class="st1" d="M10,0h182l0,0v58l0,0H10C4.5,58,0,53.5,0,48V10C0,4.5,4.5,0,10,0z"/>
					<path class="st2" d="M10,0.5h181c0.3,0,0.5,0.2,0.5,0.5v56c0,0.3-0.2,0.5-0.5,0.5H10c-5.2,0-9.5-4.3-9.5-9.5V10
						C0.5,4.8,4.8,0.5,10,0.5z"/>
				</g>
			</g>
			<g id="Rectángulo_4887" transform="translate(457.36 0.439)">
				<path class="st1" d="M0,0h183c5.5,0,10,4.5,10,10v38c0,5.5-4.5,10-10,10H0l0,0V0L0,0z"/>
				<path class="st2" d="M1,0.5h182c5.2,0,9.5,4.3,9.5,9.5v38c0,5.2-4.3,9.5-9.5,9.5H1c-0.3,0-0.5-0.2-0.5-0.5V1
					C0.5,0.7,0.7,0.5,1,0.5z"/>
			</g>
			<g id="Rectángulo_4891" transform="translate(680.36 0.439)">
				<rect x="-0.1" y="0.8" class="st3" width="174" height="58"/>
				<rect x="0.4" y="1.3" class="st2" width="173" height="57"/>
			</g>
			<path id="Trazado_2616" class="st4" d="M192.5,29.2h265.1"/>
			<g id="Rectángulo_4888" transform="translate(245.36 11.439)">
				<rect x="0" y="0" class="st3" width="37" height="36"/>
				<rect x="0.5" y="0.5" class="st2" width="36" height="35"/>
			</g>
			<g id="Rectángulo_4889" transform="translate(367.36 11.439)">
				<rect x="0" y="0" class="st3" width="37" height="36"/>
				<rect x="0.5" y="0.5" class="st2" width="36" height="35"/>
			</g>
			<circle id="Elipse_1208" class="st5" cx="191.4" cy="29.4" r="4"/>
			<circle id="Elipse_1209" class="st5" cx="458.4" cy="29.4" r="4"/>
			<path id="Trazado_101098" class="st5" d="M267.3,38.4h-4V25.8l-3.9,1.1v-3l7.5-2.6h0.4V38.4z"/>
			<path id="Trazado_101097" class="st5" d="M70.5,24.6h-5.1v13.9h-4.1V24.6h-5v-3.2h14.3L70.5,24.6z M77.2,38.4
				c-0.2-0.4-0.3-0.7-0.4-1.1c-0.7,0.9-1.9,1.4-3,1.4c-1.1,0-2.2-0.4-3-1.1c-0.8-0.7-1.3-1.7-1.3-2.7c-0.1-1.2,0.5-2.4,1.5-3.1
				c1.3-0.8,2.9-1.2,4.4-1.1h1.2V30c0-1.2-0.5-1.8-1.5-1.8c-0.7-0.1-1.3,0.4-1.4,1c0,0.1,0,0.2,0,0.3h-3.9c0-1.2,0.6-2.3,1.6-3
				c1.2-0.8,2.6-1.2,4-1.1c1.4-0.1,2.7,0.3,3.8,1.2c0.9,0.8,1.5,2,1.4,3.2v5.6c0,0.9,0.1,1.8,0.5,2.7v0.2H77.2z M74.8,35.9
				c0.4,0,0.9-0.1,1.2-0.3c0.3-0.2,0.5-0.4,0.7-0.7v-2h-1.1c-1.4,0-2.1,0.6-2.1,1.9c0,0.3,0.1,0.6,0.4,0.9
				C74.1,35.8,74.4,35.9,74.8,35.9z M94.6,32.2c0.1,1.7-0.3,3.4-1.3,4.8c-0.9,1.1-2.2,1.7-3.6,1.7c-1.2,0-2.4-0.5-3.1-1.5l-0.2,1.3
				h-3.5v-18h3.9v6.3c0.7-0.8,1.8-1.3,2.9-1.3c1.4-0.1,2.8,0.6,3.7,1.7c0.9,1.4,1.4,3.1,1.3,4.8L94.6,32.2z M90.6,32
				c0.1-0.9-0.1-1.8-0.5-2.6c-0.3-0.5-0.9-0.8-1.5-0.8c-0.8-0.1-1.5,0.3-1.9,1v5c0.4,0.7,1.1,1.1,1.9,1c0.8,0.1,1.6-0.5,1.8-1.4
				C90.6,33.5,90.7,32.7,90.6,32L90.6,32z M100.5,38.4h-4v-18h4V38.4z M110.1,38.4c-0.2-0.4-0.3-0.7-0.4-1.1c-0.7,0.9-1.9,1.4-3,1.4
				c-1.1,0-2.2-0.4-3-1.1c-0.8-0.7-1.3-1.7-1.3-2.7c-0.1-1.2,0.5-2.4,1.5-3.1c1.3-0.8,2.9-1.2,4.4-1.1h1.2V30c0-1.2-0.5-1.8-1.5-1.8
				c-0.7-0.1-1.3,0.4-1.4,1c0,0.1,0,0.2,0,0.3h-4c0-1.2,0.6-2.3,1.6-3c1.2-0.8,2.6-1.2,4-1.1c1.4-0.1,2.7,0.3,3.8,1.2
				c0.9,0.8,1.5,2,1.4,3.2v5.6c0,0.9,0.2,1.8,0.5,2.7v0.2H110.1z M107.6,35.9c0.4,0,0.9-0.1,1.2-0.3c0.3-0.2,0.5-0.4,0.7-0.7v-2
				h-1.2c-1.4,0-2.1,0.6-2.1,1.9c0,0.3,0.1,0.6,0.4,0.9C106.9,35.8,107.3,35.9,107.6,35.9z M131.5,35.3h-5.6l-1,3.2h-4.4l6.3-17.1
				h3.9l6.3,17.1h-4.4L131.5,35.3z M126.9,32.1h3.7l-1.8-5.9L126.9,32.1z"/>
			<path id="Trazado_101100" class="st5" d="M528.9,24.6h-5.1v13.9h-4.1V24.6h-5v-3.2h14.3V24.6z M535.7,38.4
				c-0.2-0.4-0.3-0.7-0.4-1.1c-0.7,0.9-1.9,1.4-3,1.4c-1.1,0-2.2-0.4-3-1.1c-0.8-0.7-1.3-1.7-1.3-2.7c-0.1-1.2,0.5-2.4,1.5-3.1
				c1.3-0.8,2.9-1.2,4.4-1.1h1.2V30c0-1.2-0.5-1.8-1.5-1.8c-0.7-0.1-1.3,0.4-1.4,1c0,0.1,0,0.2,0,0.3h-3.9c0-1.2,0.6-2.3,1.6-3
				c1.2-0.8,2.6-1.2,4-1.1c1.4-0.1,2.7,0.3,3.8,1.2c0.9,0.8,1.5,2,1.4,3.2v5.6c0,0.9,0.1,1.8,0.5,2.7v0.2H535.7z M533.2,35.9
				c0.4,0,0.9-0.1,1.2-0.3c0.3-0.2,0.5-0.4,0.7-0.7v-2H534c-1.4,0-2.1,0.6-2.1,1.9c0,0.3,0.1,0.6,0.4,0.9
				C532.5,35.8,532.9,35.9,533.2,35.9z M553,32.2c0.1,1.7-0.3,3.4-1.3,4.8c-0.9,1.1-2.2,1.7-3.6,1.7c-1.2,0-2.4-0.5-3.1-1.5
				l-0.2,1.3h-3.5v-18h3.9v6.3c0.7-0.8,1.8-1.3,2.8-1.3c1.4-0.1,2.8,0.6,3.7,1.7c0.9,1.4,1.4,3.1,1.3,4.8V32.2z M549.1,32
				c0.1-0.9-0.1-1.8-0.5-2.6c-0.3-0.5-0.9-0.8-1.5-0.8c-0.8-0.1-1.5,0.3-1.9,1v5c0.4,0.7,1.1,1.1,1.9,1c0.8,0.1,1.6-0.5,1.8-1.4
				C549,33.5,549.1,32.7,549.1,32z M558.9,38.4h-4v-18h4V38.4z M568.5,38.4c-0.2-0.4-0.3-0.7-0.4-1.1c-0.7,0.9-1.9,1.4-3,1.4
				c-1.1,0-2.2-0.4-3-1.1c-0.8-0.7-1.3-1.7-1.3-2.7c-0.1-1.2,0.5-2.4,1.5-3.1c1.3-0.8,2.9-1.2,4.4-1.1h1.2V30c0-1.2-0.5-1.8-1.5-1.8
				c-0.7-0.1-1.3,0.4-1.4,1c0,0.1,0,0.2,0,0.3h-4c0-1.2,0.6-2.3,1.6-3c1.2-0.8,2.6-1.2,4-1.1c1.4-0.1,2.7,0.3,3.8,1.2
				c0.9,0.8,1.5,2,1.4,3.2v5.6c0,0.9,0.1,1.8,0.5,2.7v0.2H568.5z M566,35.9c0.4,0,0.9-0.1,1.2-0.3c0.3-0.2,0.5-0.4,0.7-0.7v-2h-1.2
				c-1.4,0-2.1,0.6-2.1,1.9c0,0.3,0.1,0.6,0.4,0.9C565.4,35.8,565.7,35.9,566,35.9z M580.3,38.4V21.4h6.1c1.8-0.1,3.5,0.3,5,1.2
				c1.1,0.8,1.8,2.1,1.7,3.5c0,0.8-0.2,1.6-0.6,2.3c-0.4,0.6-1.1,1.1-1.8,1.4c0.8,0.2,1.5,0.7,2.1,1.3c0.5,0.7,0.7,1.5,0.7,2.3
				c0.1,1.4-0.5,2.8-1.6,3.8c-1.4,0.9-3,1.4-4.7,1.3H580.3z M584.4,31.2v4.1h2.7c0.6,0,1.2-0.1,1.7-0.5c0.4-0.4,0.6-0.9,0.6-1.4
				c0.1-1-0.6-2-1.6-2.1c-0.2,0-0.3,0-0.5,0L584.4,31.2z M584.4,28.5h2.1c0.7,0.1,1.4-0.1,1.9-0.5c0.4-0.4,0.6-0.9,0.6-1.4
				c0.1-0.6-0.2-1.2-0.6-1.6c-0.6-0.4-1.3-0.5-2-0.5h-2V28.5z"/>
			<path id="Trazado_101101" class="st5" d="M711.2,32.6h-1.9v5h-3.4V23.4h5.6c1.4-0.1,2.8,0.3,4,1.1c1,0.8,1.5,1.9,1.4,3.2
				c0,0.9-0.2,1.7-0.6,2.5c-0.5,0.7-1.1,1.2-1.9,1.6l3,5.7v0.2h-3.7L711.2,32.6z M709.4,30h2.2c0.5,0,1.1-0.1,1.5-0.5
				c0.3-0.4,0.5-0.9,0.5-1.4c0-0.5-0.1-1-0.5-1.4c-0.4-0.4-0.9-0.6-1.5-0.5h-2.2L709.4,30z M723.9,37.8c-1.5,0.1-2.9-0.5-3.9-1.5
				c-1-1-1.6-2.4-1.5-3.8v-0.3c0-1,0.2-2,0.6-2.9c0.4-0.8,1-1.5,1.8-1.9c0.8-0.5,1.8-0.7,2.7-0.7c1.3-0.1,2.6,0.4,3.5,1.4
				c0.9,1.1,1.4,2.5,1.3,3.9v1.3h-6.5c0.1,0.5,0.4,1,0.8,1.4c0.4,0.4,1,0.5,1.5,0.5c0.9,0,1.8-0.4,2.4-1.1l1.5,1.8
				c-0.4,0.6-1,1.1-1.7,1.3C725.6,37.7,724.8,37.8,723.9,37.8z M723.6,29.4c-1,0-1.5,0.6-1.7,1.9h3.3v-0.3c0-0.4-0.1-0.9-0.4-1.2
				C724.5,29.5,724,29.4,723.6,29.4L723.6,29.4z M733.2,37.6h-3.3v-15h3.3V37.6z M741.2,37.6c-0.1-0.3-0.3-0.6-0.3-0.9
				c-0.6,0.8-1.6,1.2-2.5,1.1c-0.9,0-1.8-0.3-2.5-0.9c-0.7-0.6-1.1-1.4-1-2.3c-0.1-1,0.4-2,1.3-2.6c1.1-0.7,2.4-1,3.7-0.9h1v-0.6
				c0-1-0.4-1.5-1.3-1.5c-0.6-0.1-1.1,0.3-1.2,0.9c0,0.1,0,0.2,0,0.3H735c0-1,0.5-1.9,1.3-2.5c1-0.7,2.1-1,3.3-1
				c1.1-0.1,2.3,0.3,3.2,1c0.8,0.7,1.2,1.7,1.2,2.7v4.7c0,0.8,0.1,1.5,0.4,2.2v0.2H741.2z M739.1,35.5c0.4,0,0.7-0.1,1-0.3
				c0.2-0.1,0.4-0.4,0.6-0.6v-1.7h-1c-1.1,0-1.7,0.5-1.7,1.5c0,0.3,0.1,0.5,0.3,0.7C738.5,35.4,738.8,35.5,739.1,35.5z M750.3,35.3
				c0.4,0,0.8-0.1,1.1-0.4c0.3-0.3,0.4-0.7,0.4-1h3.1c0,1.1-0.4,2.1-1.2,2.9c-0.9,0.8-2,1.2-3.2,1.1c-1.4,0.1-2.7-0.5-3.6-1.5
				c-0.9-1.1-1.4-2.5-1.3-4v-0.1c0-1,0.2-1.9,0.6-2.8c0.4-0.8,1-1.4,1.7-1.9c0.8-0.5,1.7-0.7,2.6-0.7c1.2-0.1,2.4,0.3,3.3,1.1
				c0.8,0.8,1.3,1.9,1.2,3.1h-3.1c0-0.5-0.1-0.9-0.4-1.3c-0.3-0.3-0.7-0.5-1.1-0.4c-0.9,0-1.4,0.5-1.5,1.6c-0.1,0.5-0.1,0.9-0.1,1.4
				c-0.1,0.8,0.1,1.5,0.4,2.2C749.4,35.1,749.8,35.3,750.3,35.3L750.3,35.3z M759.7,37.6h-3.3V27.1h3.3V37.6z M756.2,24.3
				c0-0.4,0.2-0.9,0.5-1.2c0.4-0.3,0.8-0.5,1.3-0.5c0.5,0,1,0.1,1.3,0.5c0.3,0.3,0.5,0.7,0.5,1.2c0,0.4-0.2,0.9-0.5,1.2
				c-0.4,0.3-0.8,0.5-1.3,0.5c-0.5,0-1-0.1-1.3-0.5C756.4,25.2,756.2,24.8,756.2,24.3L756.2,24.3z M761.3,32.3c0-1,0.2-1.9,0.6-2.8
				c0.4-0.8,1-1.5,1.8-1.9c0.8-0.5,1.8-0.7,2.7-0.7c1.4-0.1,2.8,0.5,3.7,1.5c1,1.1,1.4,2.5,1.4,4v0.1c0.1,1.4-0.4,2.8-1.4,3.9
				c-1,1-2.3,1.5-3.7,1.5c-1.3,0.1-2.7-0.4-3.6-1.4c-0.9-1-1.5-2.3-1.5-3.7L761.3,32.3z M764.6,32.5c-0.1,0.7,0.1,1.5,0.5,2.1
				c0.3,0.5,0.8,0.7,1.4,0.7c1.2,0,1.8-0.9,1.8-2.7v-0.3c0-1.9-0.6-2.8-1.8-2.8c-1.1,0-1.7,0.8-1.8,2.5L764.6,32.5z M766.8,22.6h3.5
				l-2.7,3.1h-2.7L766.8,22.6z M776,27.1l0.1,1.2c0.7-0.9,1.8-1.5,3-1.4c0.9-0.1,1.8,0.3,2.5,1c0.6,0.9,0.9,1.9,0.8,3v6.8h-3.3V31
				c0-0.4-0.1-0.8-0.3-1.2c-0.3-0.3-0.7-0.4-1.2-0.4c-0.6,0-1.1,0.3-1.4,0.8v7.5h-3.3V27.1H776z M796.5,37.6h-3.3V27.1l-3.2,0.9
				v-2.5l6.2-2.2h0.3L796.5,37.6z M811.7,37.6c-0.1-0.3-0.3-0.6-0.3-0.9c-0.6,0.8-1.6,1.2-2.5,1.1c-0.9,0-1.8-0.3-2.5-0.9
				c-0.7-0.6-1.1-1.4-1-2.3c-0.1-1,0.4-2,1.3-2.6c1.1-0.7,2.4-1,3.7-0.9h1v-0.6c0-1-0.4-1.5-1.3-1.5c-0.6-0.1-1.1,0.3-1.2,0.9
				c0,0.1,0,0.2,0,0.3h-3.3c0-1,0.5-1.9,1.3-2.5c1-0.7,2.1-1,3.3-1c1.1-0.1,2.3,0.3,3.2,1c0.8,0.7,1.2,1.7,1.2,2.7v4.7
				c0,0.8,0.1,1.5,0.4,2.2v0.2H811.7z M809.7,35.5c0.4,0,0.7-0.1,1-0.3c0.2-0.1,0.4-0.4,0.6-0.6v-1.7h-1c-1.1,0-1.7,0.5-1.7,1.5
				c0,0.3,0.1,0.5,0.3,0.7C809.1,35.4,809.4,35.5,809.7,35.5z M828.6,37.6h-3.3V27.1l-3.2,0.9v-2.5l6.2-2.2h0.3L828.6,37.6z"/>
			<path id="Trazado_101099" class="st5" d="M389.3,38.4h-4V25.8l-3.9,1.1v-3l7.5-2.6h0.4V38.4z"/>
		</g>
	</g>
</g>
</svg>
