<svg xmlns="http://www.w3.org/2000/svg" width="175.072" height="194.896" viewBox="0 0 175.072 194.896">
  <g id="Grupo_21141" data-name="Grupo 21141" transform="translate(-123.534 -169.969)">
    <g id="Grupo_21101" data-name="Grupo 21101" transform="translate(236.635 247.659)">
      <path id="Trazado_3550" data-name="Trazado 3550" d="M1001.791,816.951v4.933l.026-.019a1.549,1.549,0,0,0,.762,1.1l16.576,9.57a1.562,1.562,0,0,0,.8.211,1.583,1.583,0,0,0,.781-.211l16.595-9.607a1.559,1.559,0,0,0,.783-1.366v-4.606l-3.479,1.692-13.873-7.989a1.578,1.578,0,0,0-1.574,0l-10.718,6.18-2.781,1.6Z" transform="translate(-1001.79 -805.655)" fill="#bbe0fd"/>
      <path id="Trazado_3551" data-name="Trazado 3551" d="M1001.791,860.192v4.933l.026-.019a1.549,1.549,0,0,0,.762,1.1l16.576,9.57a1.564,1.564,0,0,0,.8.211v-5.939l-11.485-9.965-2.781,1.6Z" transform="translate(-1001.79 -848.895)" fill="#d6edff"/>
      <path id="Trazado_3552" data-name="Trazado 3552" d="M1020.754,774.606l16.564,9.537a1.576,1.576,0,0,1,0,2.73l-16.593,9.607a1.576,1.576,0,0,1-1.578,0l-16.576-9.57a1.577,1.577,0,0,1,0-2.731l16.6-9.573A1.577,1.577,0,0,1,1020.754,774.606Z" transform="translate(-1001.786 -774.247)" fill="#fff"/>
      <path id="Trazado_3553" data-name="Trazado 3553" d="M1020.754,773.454l16.564,9.537a1.576,1.576,0,0,1,0,2.731l-16.593,9.607a1.576,1.576,0,0,1-1.578,0l-16.576-9.57a1.577,1.577,0,0,1,0-2.731l16.6-9.573A1.577,1.577,0,0,1,1020.754,773.454Z" transform="translate(-1001.786 -773.243)" fill="#fff"/>
    </g>
    <g id="Grupo_21106" data-name="Grupo 21106" transform="translate(243.671 228.809)">
      <g id="Grupo_21102" data-name="Grupo 21102" transform="translate(0 16.852)">
        <path id="Trazado_3554" data-name="Trazado 3554" d="M1078.651,823.962l-.069.04-11.047,6.378-.069-.04-11.045-6.378,3.365-1.971,7.594-4.446,7.858,4.474,3.345,1.9Z" transform="translate(-1056.42 -809.842)" fill="#15325c" opacity="0.33" style="mix-blend-mode: multiply;isolation: isolate"/>
        <path id="Trazado_3555" data-name="Trazado 3555" d="M1067.535,796.732l-.069,3.874-.047,2.61-11-6.319v-2.669l3.365-1.971Z" transform="translate(-1056.42 -787.81)" fill="#183561"/>
        <path id="Trazado_3556" data-name="Trazado 3556" d="M1152.991,794.376v.079l-.047,2.629-11.116,6.319.047-2.61.069-3.874,7.7-4.448Z" transform="translate(-1130.828 -787.998)" fill="#23477c"/>
        <path id="Trazado_3557" data-name="Trazado 3557" d="M1078.651,764.148l-.069.04-11.047,6.378-.069-.04-11.045-6.378,3.365-1.971,7.594-4.446,7.858,4.474,3.345,1.9Z" transform="translate(-1056.42 -757.731)" fill="#3c6a9e"/>
        <path id="Trazado_3558" data-name="Trazado 3558" d="M1083.724,777.947l7.456-4.365,7.705,4.387-7.562,4.366Z" transform="translate(-1080.208 -771.54)" fill="#ffd561"/>
        <path id="Trazado_3559" data-name="Trazado 3559" d="M1091.527,781.89l6.454-3.779,6.686,3.807-6.547,3.78Z" transform="translate(-1087.006 -775.486)" fill="#5b95d3"/>
        <path id="Trazado_3560" data-name="Trazado 3560" d="M1130.957,801.734l1.466-.858,1.519.865-1.487.859Z" transform="translate(-1121.358 -795.319)" fill="#bbe0fd"/>
        <path id="Trazado_3561" data-name="Trazado 3561" d="M1097.981,778.616l6.246,3.556.44-.254-6.686-3.807-6.454,3.779.434.251Z" transform="translate(-1087.006 -775.486)" fill="#183561"/>
      </g>
      <g id="Grupo_21103" data-name="Grupo 21103" transform="translate(0 11.059)">
        <path id="Trazado_3562" data-name="Trazado 3562" d="M1067.535,751.747l-.069,3.874-.047,2.61-11-6.319v-2.669l3.365-1.971Z" transform="translate(-1056.42 -742.826)" fill="#183561"/>
        <path id="Trazado_3563" data-name="Trazado 3563" d="M1152.991,749.392v.08l-.047,2.629-11.116,6.319.047-2.61.069-3.874,7.7-4.448Z" transform="translate(-1130.828 -743.014)" fill="#23477c"/>
        <path id="Trazado_3564" data-name="Trazado 3564" d="M1078.651,719.164l-.069.04-11.047,6.378-.069-.04-11.045-6.378,3.365-1.971,7.594-4.446,7.858,4.474,3.345,1.9Z" transform="translate(-1056.42 -712.747)" fill="#3c6a9e"/>
        <path id="Trazado_3565" data-name="Trazado 3565" d="M1083.724,732.962l7.456-4.365,7.705,4.387-7.562,4.366Z" transform="translate(-1080.208 -726.556)" fill="#ffd561"/>
        <path id="Trazado_3566" data-name="Trazado 3566" d="M1091.527,736.906l6.454-3.779,6.686,3.807-6.547,3.78Z" transform="translate(-1087.006 -730.502)" fill="#5b95d3"/>
        <path id="Trazado_3567" data-name="Trazado 3567" d="M1130.957,756.75l1.466-.858,1.519.865-1.487.859Z" transform="translate(-1121.358 -750.335)" fill="#bbe0fd"/>
        <path id="Trazado_3568" data-name="Trazado 3568" d="M1097.981,733.632l6.246,3.556.44-.254-6.686-3.807-6.454,3.779.434.251Z" transform="translate(-1087.006 -730.502)" fill="#183561"/>
      </g>
      <g id="Grupo_21104" data-name="Grupo 21104" transform="translate(0 5.53)">
        <path id="Trazado_3569" data-name="Trazado 3569" d="M1067.535,708.808l-.069,3.874-.047,2.61-11-6.319V706.3l3.365-1.971Z" transform="translate(-1056.42 -699.887)" fill="#183561"/>
        <path id="Trazado_3570" data-name="Trazado 3570" d="M1152.991,706.453v.08l-.047,2.629-11.116,6.319.047-2.61.069-3.874,7.7-4.448Z" transform="translate(-1130.828 -700.075)" fill="#23477c"/>
        <path id="Trazado_3571" data-name="Trazado 3571" d="M1078.651,676.225l-.069.04-11.047,6.378-.069-.04-11.045-6.378,3.365-1.971,7.594-4.446,7.858,4.474,3.345,1.9Z" transform="translate(-1056.42 -669.807)" fill="#3c6a9e"/>
        <path id="Trazado_3572" data-name="Trazado 3572" d="M1083.724,690.023l7.456-4.365,7.705,4.387-7.562,4.366Z" transform="translate(-1080.208 -683.617)" fill="#ffd561"/>
        <path id="Trazado_3573" data-name="Trazado 3573" d="M1091.527,693.966l6.454-3.779,6.686,3.807-6.547,3.78Z" transform="translate(-1087.006 -687.563)" fill="#5b95d3"/>
        <path id="Trazado_3574" data-name="Trazado 3574" d="M1130.957,713.811l1.466-.858,1.519.865-1.487.859Z" transform="translate(-1121.358 -707.396)" fill="#bbe0fd"/>
        <path id="Trazado_3575" data-name="Trazado 3575" d="M1097.981,690.693l6.246,3.556.44-.254-6.686-3.807-6.454,3.779.434.251Z" transform="translate(-1087.006 -687.563)" fill="#183561"/>
      </g>
      <g id="Grupo_21105" data-name="Grupo 21105" transform="translate(0 0)">
        <path id="Trazado_3576" data-name="Trazado 3576" d="M1067.535,665.869l-.069,3.874-.047,2.61-11-6.319v-2.669l3.365-1.971Z" transform="translate(-1056.42 -656.948)" fill="#183561"/>
        <path id="Trazado_3577" data-name="Trazado 3577" d="M1152.991,663.514v.08l-.047,2.629-11.116,6.319.047-2.61.069-3.874,7.7-4.447Z" transform="translate(-1130.828 -657.135)" fill="#23477c"/>
        <path id="Trazado_3578" data-name="Trazado 3578" d="M1078.651,633.285l-.069.04-11.047,6.378-.069-.04-11.045-6.378,3.365-1.971,7.594-4.446,7.858,4.474,3.345,1.9Z" transform="translate(-1056.42 -626.868)" fill="#3c6a9e"/>
        <path id="Trazado_3579" data-name="Trazado 3579" d="M1083.724,647.084l7.456-4.365,7.705,4.387-7.562,4.366Z" transform="translate(-1080.208 -640.678)" fill="#ffd561"/>
        <path id="Trazado_3580" data-name="Trazado 3580" d="M1091.527,651.027l6.454-3.779,6.686,3.807-6.547,3.78Z" transform="translate(-1087.006 -644.624)" fill="#5b95d3"/>
        <path id="Trazado_3581" data-name="Trazado 3581" d="M1130.957,670.871l1.466-.858,1.519.865-1.487.859Z" transform="translate(-1121.358 -664.457)" fill="#bbe0fd"/>
        <path id="Trazado_3582" data-name="Trazado 3582" d="M1097.981,647.753l6.246,3.556.44-.254-6.686-3.807-6.454,3.779.434.251Z" transform="translate(-1087.006 -644.624)" fill="#183561"/>
      </g>
    </g>
    <g id="Grupo_21107" data-name="Grupo 21107" transform="translate(262.284 261.565)">
      <path id="Trazado_3583" data-name="Trazado 3583" d="M1200.957,924.933v4.933l.026-.019a1.549,1.549,0,0,0,.762,1.1l16.576,9.57a1.564,1.564,0,0,0,.8.211,1.584,1.584,0,0,0,.781-.211l16.595-9.608a1.558,1.558,0,0,0,.783-1.366v-4.606l-3.479,1.692-13.873-7.988a1.578,1.578,0,0,0-1.574,0l-10.718,6.18-2.781,1.6Z" transform="translate(-1200.957 -913.637)" fill="#bbe0fd"/>
      <path id="Trazado_3584" data-name="Trazado 3584" d="M1200.957,968.174v4.933l.026-.019a1.55,1.55,0,0,0,.762,1.1l16.576,9.57a1.565,1.565,0,0,0,.8.211v-5.939l-11.484-9.965-2.781,1.6Z" transform="translate(-1200.957 -956.878)" fill="#d6edff"/>
      <path id="Trazado_3585" data-name="Trazado 3585" d="M1219.921,882.587l16.564,9.537a1.576,1.576,0,0,1,0,2.731l-16.593,9.607a1.576,1.576,0,0,1-1.578,0l-16.576-9.57a1.577,1.577,0,0,1,0-2.731l16.6-9.573A1.576,1.576,0,0,1,1219.921,882.587Z" transform="translate(-1200.953 -882.229)" fill="#fff"/>
      <path id="Trazado_3586" data-name="Trazado 3586" d="M1219.921,881.436l16.564,9.537a1.576,1.576,0,0,1,0,2.731l-16.593,9.607a1.577,1.577,0,0,1-1.578,0l-16.576-9.57a1.577,1.577,0,0,1,0-2.731l16.6-9.573A1.576,1.576,0,0,1,1219.921,881.436Z" transform="translate(-1200.953 -881.225)" fill="#fff"/>
    </g>
    <g id="Grupo_21108" data-name="Grupo 21108" transform="translate(123.534 284.741)">
      <path id="Trazado_3587" data-name="Trazado 3587" d="M123.538,1104.9v4.933l.026-.019a1.549,1.549,0,0,0,.762,1.1l16.576,9.57a1.563,1.563,0,0,0,.8.211,1.588,1.588,0,0,0,.781-.211l16.595-9.608a1.558,1.558,0,0,0,.783-1.365V1104.9l-3.479,1.692-13.873-7.989a1.577,1.577,0,0,0-1.574,0l-10.718,6.18-2.781,1.6Z" transform="translate(-123.537 -1093.606)" fill="#bbe0fd"/>
      <path id="Trazado_3588" data-name="Trazado 3588" d="M123.538,1148.144v4.933l.026-.019a1.549,1.549,0,0,0,.762,1.1l16.576,9.57a1.563,1.563,0,0,0,.8.211V1158l-11.485-9.965-2.781,1.6Z" transform="translate(-123.537 -1136.847)" fill="#d6edff"/>
      <path id="Trazado_3589" data-name="Trazado 3589" d="M142.5,1062.557l16.564,9.536a1.577,1.577,0,0,1,0,2.731l-16.593,9.607a1.576,1.576,0,0,1-1.578,0l-16.576-9.57a1.577,1.577,0,0,1,0-2.731l16.6-9.574A1.576,1.576,0,0,1,142.5,1062.557Z" transform="translate(-123.534 -1062.198)" fill="#fff"/>
      <path id="Trazado_3590" data-name="Trazado 3590" d="M142.5,1061.405l16.564,9.536a1.576,1.576,0,0,1,0,2.731l-16.593,9.607a1.576,1.576,0,0,1-1.578,0l-16.576-9.57a1.576,1.576,0,0,1,0-2.731l16.6-9.574A1.577,1.577,0,0,1,142.5,1061.405Z" transform="translate(-123.534 -1061.195)" fill="#fff"/>
    </g>
    <g id="Grupo_21113" data-name="Grupo 21113" transform="translate(269.319 242.714)">
      <g id="Grupo_21109" data-name="Grupo 21109" transform="translate(0 16.852)">
        <path id="Trazado_3591" data-name="Trazado 3591" d="M1277.818,931.944l-.07.04-11.047,6.378-.07-.04-11.045-6.378,3.365-1.971,7.594-4.446L1274.4,930l3.345,1.9Z" transform="translate(-1255.587 -917.824)" fill="#15325c" opacity="0.33" style="mix-blend-mode: multiply;isolation: isolate"/>
        <path id="Trazado_3592" data-name="Trazado 3592" d="M1266.7,904.713l-.07,3.874-.047,2.61-11-6.319v-2.669l3.365-1.971Z" transform="translate(-1255.587 -895.792)" fill="#183561"/>
        <path id="Trazado_3593" data-name="Trazado 3593" d="M1352.157,902.358v.08l-.047,2.629-11.116,6.319.047-2.61.07-3.874,7.7-4.448Z" transform="translate(-1329.995 -895.98)" fill="#23477c"/>
        <path id="Trazado_3594" data-name="Trazado 3594" d="M1277.818,872.13l-.07.04-11.047,6.378-.07-.04-11.045-6.378,3.365-1.971,7.594-4.446,7.858,4.474,3.345,1.9Z" transform="translate(-1255.587 -865.712)" fill="#3c6a9e"/>
        <path id="Trazado_3595" data-name="Trazado 3595" d="M1282.89,885.928l7.456-4.365,7.705,4.387-7.562,4.366Z" transform="translate(-1279.374 -879.522)" fill="#ffd561"/>
        <path id="Trazado_3596" data-name="Trazado 3596" d="M1290.693,889.872l6.454-3.779,6.686,3.807-6.547,3.78Z" transform="translate(-1286.172 -883.468)" fill="#5b95d3"/>
        <path id="Trazado_3597" data-name="Trazado 3597" d="M1330.123,909.716l1.466-.858,1.519.865-1.487.859Z" transform="translate(-1320.524 -903.301)" fill="#bbe0fd"/>
        <path id="Trazado_3598" data-name="Trazado 3598" d="M1297.148,886.6l6.246,3.556.441-.254-6.686-3.807-6.454,3.779.434.251Z" transform="translate(-1286.172 -883.468)" fill="#183561"/>
      </g>
      <g id="Grupo_21110" data-name="Grupo 21110" transform="translate(0 11.059)">
        <path id="Trazado_3599" data-name="Trazado 3599" d="M1266.7,859.729l-.07,3.874-.047,2.61-11-6.319v-2.669l3.365-1.971Z" transform="translate(-1255.587 -850.808)" fill="#183561"/>
        <path id="Trazado_3600" data-name="Trazado 3600" d="M1352.157,857.374v.08l-.047,2.629-11.116,6.319.047-2.61.07-3.874,7.7-4.447Z" transform="translate(-1329.995 -850.996)" fill="#23477c"/>
        <path id="Trazado_3601" data-name="Trazado 3601" d="M1277.818,827.146l-.07.04-11.047,6.378-.07-.04-11.045-6.378,3.365-1.971,7.594-4.446,7.858,4.474,3.345,1.9Z" transform="translate(-1255.587 -820.728)" fill="#3c6a9e"/>
        <path id="Trazado_3602" data-name="Trazado 3602" d="M1282.89,840.944l7.456-4.365,7.705,4.387-7.562,4.366Z" transform="translate(-1279.374 -834.538)" fill="#ffd561"/>
        <path id="Trazado_3603" data-name="Trazado 3603" d="M1290.693,844.888l6.454-3.779,6.686,3.807-6.547,3.78Z" transform="translate(-1286.172 -838.484)" fill="#5b95d3"/>
        <path id="Trazado_3604" data-name="Trazado 3604" d="M1330.123,864.732l1.466-.858,1.519.865-1.487.859Z" transform="translate(-1320.524 -858.317)" fill="#bbe0fd"/>
        <path id="Trazado_3605" data-name="Trazado 3605" d="M1297.148,841.614l6.246,3.556.441-.254-6.686-3.807-6.454,3.779.434.251Z" transform="translate(-1286.172 -838.484)" fill="#183561"/>
      </g>
      <g id="Grupo_21111" data-name="Grupo 21111" transform="translate(0 5.53)">
        <path id="Trazado_3606" data-name="Trazado 3606" d="M1266.7,816.79l-.07,3.874-.047,2.61-11-6.319v-2.669l3.365-1.971Z" transform="translate(-1255.587 -807.869)" fill="#183561"/>
        <path id="Trazado_3607" data-name="Trazado 3607" d="M1352.157,814.435v.08l-.047,2.629-11.116,6.319.047-2.61.07-3.874,7.7-4.447Z" transform="translate(-1329.995 -808.057)" fill="#23477c"/>
        <path id="Trazado_3608" data-name="Trazado 3608" d="M1277.818,784.207l-.07.04-11.047,6.378-.07-.04-11.045-6.378,3.365-1.971,7.594-4.446,7.858,4.474,3.345,1.9Z" transform="translate(-1255.587 -777.789)" fill="#3c6a9e"/>
        <path id="Trazado_3609" data-name="Trazado 3609" d="M1282.89,798.005l7.456-4.365,7.705,4.387-7.562,4.366Z" transform="translate(-1279.374 -791.599)" fill="#ffd561"/>
        <path id="Trazado_3610" data-name="Trazado 3610" d="M1290.693,801.948l6.454-3.779,6.686,3.807-6.547,3.78Z" transform="translate(-1286.172 -795.545)" fill="#5b95d3"/>
        <path id="Trazado_3611" data-name="Trazado 3611" d="M1330.123,821.792l1.466-.858,1.519.865-1.487.859Z" transform="translate(-1320.524 -815.378)" fill="#bbe0fd"/>
        <path id="Trazado_3612" data-name="Trazado 3612" d="M1297.148,798.674l6.246,3.556.441-.254-6.686-3.807-6.454,3.779.434.251Z" transform="translate(-1286.172 -795.545)" fill="#183561"/>
      </g>
      <g id="Grupo_21112" data-name="Grupo 21112" transform="translate(0)">
        <path id="Trazado_3613" data-name="Trazado 3613" d="M1266.7,773.851l-.07,3.874-.047,2.61-11-6.319v-2.669l3.365-1.971Z" transform="translate(-1255.587 -764.929)" fill="#183561"/>
        <path id="Trazado_3614" data-name="Trazado 3614" d="M1352.157,771.5v.08l-.047,2.629-11.116,6.319.047-2.61.07-3.874,7.7-4.448Z" transform="translate(-1329.995 -765.117)" fill="#23477c"/>
        <path id="Trazado_3615" data-name="Trazado 3615" d="M1277.818,741.267l-.07.04-11.047,6.378-.07-.04-11.045-6.378,3.365-1.971,7.594-4.446,7.858,4.474,3.345,1.9Z" transform="translate(-1255.587 -734.85)" fill="#3c6a9e"/>
        <path id="Trazado_3616" data-name="Trazado 3616" d="M1282.89,755.066l7.456-4.365,7.705,4.387-7.562,4.366Z" transform="translate(-1279.374 -748.66)" fill="#ffd561"/>
        <path id="Trazado_3617" data-name="Trazado 3617" d="M1290.693,759.009l6.454-3.779,6.686,3.807-6.547,3.78Z" transform="translate(-1286.172 -752.605)" fill="#5b95d3"/>
        <path id="Trazado_3618" data-name="Trazado 3618" d="M1330.123,778.853l1.466-.858,1.519.865-1.487.859Z" transform="translate(-1320.524 -772.439)" fill="#bbe0fd"/>
        <path id="Trazado_3619" data-name="Trazado 3619" d="M1297.148,755.735l6.246,3.556.441-.254-6.686-3.807-6.454,3.779.434.251Z" transform="translate(-1286.172 -752.605)" fill="#183561"/>
      </g>
    </g>
    <g id="Grupo_21114" data-name="Grupo 21114" transform="translate(153.466 250.24)">
      <path id="Trazado_3620" data-name="Trazado 3620" d="M481.431,1066.352l-77.007-44.46a2.834,2.834,0,0,0-2.827,0l-44.21,25.347a2.834,2.834,0,0,0-.017,4.907l16.364,9.536a2.834,2.834,0,0,1,0,4.895l-9.338,5.461a2.834,2.834,0,0,0,.064,4.93l53.484,29.432a2.834,2.834,0,0,0,2.785-.03l60.7-35.107A2.834,2.834,0,0,0,481.431,1066.352Z" transform="translate(-355.963 -992.121)" fill="#15325c" opacity="0.22" style="mix-blend-mode: multiply;isolation: isolate"/>
      <path id="Trazado_3621" data-name="Trazado 3621" d="M355.965,879.018v9.447l.009-.006a2.793,2.793,0,0,0,1.4,2.219l16.363,9.536a2.836,2.836,0,0,1,.006,4.9l-5.151,3.013-1.866-4.076-3.705.677v7.957a2.877,2.877,0,0,0,0,.63v.019l0,0a2.772,2.772,0,0,0,1.446,2.169l4.237,2.333.816.445.983.544,1.149.637,46.3,25.479a2.839,2.839,0,0,0,2.256.207,2.889,2.889,0,0,0,.528-.238l31.545-18.245,1.147-.664.986-.569.81-.473L481.433,909.8a2.793,2.793,0,0,0,1.353-1.882v0a2.918,2.918,0,0,0,.009-1.134v-.009a.011.011,0,0,1,0-.006l.056-8.489-4.824,4.648-34.737-20.059-38.859-22.438a2.855,2.855,0,0,0-2.831,0l-39.329,22.549-2.778-3.563Z" transform="translate(-355.965 -851.452)" fill="#d6edff"/>
      <path id="Trazado_3622" data-name="Trazado 3622" d="M854.793,1037.2v62.28a2.889,2.889,0,0,0,.528-.238L886.866,1081l1.147-.664.986-.569.81-.473,26.214-15.157a2.794,2.794,0,0,0,1.354-1.882v0a2.917,2.917,0,0,0,.009-1.134v-.009a.01.01,0,0,1,0-.006l.056-8.489-4.824,4.648L877.877,1037.2Z" transform="translate(-790.554 -1005.788)" fill="#bbe0fd"/>
      <path id="Trazado_3623" data-name="Trazado 3623" d="M481.431,838.127l-77.007-44.46a2.834,2.834,0,0,0-2.827,0l-44.21,25.347a2.834,2.834,0,0,0-.017,4.907l16.364,9.536a2.834,2.834,0,0,1,0,4.9l-9.338,5.461a2.834,2.834,0,0,0,.064,4.93l53.484,29.432a2.834,2.834,0,0,0,2.785-.03l60.7-35.107A2.834,2.834,0,0,0,481.431,838.127Z" transform="translate(-355.963 -793.287)" fill="#fff"/>
      <path id="Trazado_3624" data-name="Trazado 3624" d="M510.429,1272.191l-.116,8.533-8.284-4.559.116-8.533Z" transform="translate(-483.219 -1206.546)" fill="#fff"/>
      <path id="Trazado_3625" data-name="Trazado 3625" d="M596.343,1319.832v8.6l-2.5-1.374v-8.6Z" transform="translate(-563.212 -1250.827)" fill="#fff"/>
    </g>
    <g id="Grupo_21120" data-name="Grupo 21120" transform="translate(183.319 251.722)">
      <path id="Trazado_3626" data-name="Trazado 3626" d="M630.861,1023.2l24.519,14.285-41.363,24.093-24.306-14.5Z" transform="translate(-589.462 -995.072)" fill="#15325c" opacity="0.33" style="mix-blend-mode: multiply;isolation: isolate"/>
      <g id="Grupo_21115" data-name="Grupo 21115" transform="translate(41.664 18.757)">
        <rect id="Rect치ngulo_4960" data-name="Rect치ngulo 4960" width="1.492" height="26.843" transform="matrix(0.5, -0.866, 0.866, 0.5, 0, 1.292)" fill="#77b8e0"/>
      </g>
      <g id="Grupo_21116" data-name="Grupo 21116" transform="translate(64.212 14.498)">
        <path id="Trazado_3627" data-name="Trazado 3627" d="M1087.251,946.158a.853.853,0,0,0,.853-.853V918.228a.853.853,0,0,0-1.706,0v27.078A.853.853,0,0,0,1087.251,946.158Z" transform="translate(-1086.398 -917.375)" fill="#77b8e0"/>
      </g>
      <path id="Trazado_3628" data-name="Trazado 3628" d="M1086.669,1091.216v5.508a1.1,1.1,0,0,1-2.2,0v-5.508Z" transform="translate(-1020.503 -1054.331)" fill="#1c427e"/>
      <g id="Grupo_21117" data-name="Grupo 21117" transform="translate(0.249 24.093)">
        <path id="Trazado_3629" data-name="Trazado 3629" d="M590.564,1020.661a.853.853,0,0,0,.853-.853V992.731a.853.853,0,1,0-1.706,0v27.078A.853.853,0,0,0,590.564,1020.661Z" transform="translate(-589.711 -991.878)" fill="#77b8e0"/>
      </g>
      <path id="Trazado_3630" data-name="Trazado 3630" d="M589.982,1165.719v5.508a1.1,1.1,0,0,1-2.2,0v-5.508Z" transform="translate(-587.779 -1119.239)" fill="#1c427e"/>
      <g id="Grupo_21118" data-name="Grupo 21118" transform="translate(23.702 37.952)">
        <path id="Trazado_3631" data-name="Trazado 3631" d="M772.682,1128.278a.853.853,0,0,0,.853-.853v-27.078a.853.853,0,0,0-1.706,0v27.078A.853.853,0,0,0,772.682,1128.278Z" transform="translate(-771.829 -1099.494)" fill="#77b8e0"/>
      </g>
      <path id="Trazado_3632" data-name="Trazado 3632" d="M630.861,823l24.519,11.94v2.345l-41.363,24.093-24.306-14.5v-2.345Z" transform="translate(-589.462 -820.659)" fill="#a9d1ea"/>
      <path id="Trazado_3633" data-name="Trazado 3633" d="M630.861,804.793l24.519,14.285-41.363,24.093-24.306-14.5Z" transform="translate(-589.462 -804.793)" fill="#bbe0fd"/>
      <path id="Trazado_3634" data-name="Trazado 3634" d="M772.1,1273.334v5.508a1.1,1.1,0,0,1-2.2,0v-5.508Z" transform="translate(-746.445 -1212.995)" fill="#1c427e"/>
      <g id="Grupo_21119" data-name="Grupo 21119" transform="translate(0.728 43.064)">
        <rect id="Rect치ngulo_4961" data-name="Rect치ngulo 4961" width="1.492" height="26.843" transform="matrix(0.5, -0.866, 0.866, 0.5, 0, 1.292)" fill="#77b8e0"/>
      </g>
    </g>
    <g id="Grupo_21127" data-name="Grupo 21127" transform="translate(143.492 169.969)">
      <g id="Grupo_21121" data-name="Grupo 21121" transform="translate(0 0)">
        <path id="Trazado_3635" data-name="Trazado 3635" d="M346.779,170.329l3.007,1.619-4.5,60.2L283.01,272.633l-2.471-1.33a3.855,3.855,0,0,1-2.027-3.394V210.335a2.984,2.984,0,0,1,1.476-2.575l63.84-37.378a3.014,3.014,0,0,1,2.951-.053Z" transform="translate(-278.512 -169.969)" fill="#a9d1ea"/>
        <path id="Trazado_3636" data-name="Trazado 3636" d="M380.216,185.341v62.625l-66.777,38.059V224.438Z" transform="translate(-308.941 -183.361)" fill="#d6effb"/>
        <path id="Trazado_3637" data-name="Trazado 3637" d="M392.876,244.286v50.2l-7.9,4.5-2.374,1.354L366.372,309.6l-8.989,5.122-14.113,8.045-13.71,7.814v-49.22l13.42-7.857,7.264-4.254,11.462-6.71,13.79-8.076,8.588-5.028,6.269-3.669Z" transform="translate(-322.985 -234.716)" fill="#183561"/>
      </g>
      <g id="Grupo_21122" data-name="Grupo 21122" transform="translate(26.99 41.594)">
        <path id="Trazado_3638" data-name="Trazado 3638" d="M578.595,492.954l-.016,2.689L560.06,506.372l.113-2.764Z" transform="translate(-550.792 -492.954)" fill="#fec400"/>
        <path id="Trazado_3639" data-name="Trazado 3639" d="M506.629,667l-.016,2.689-18.519,10.729.113-2.764Z" transform="translate(-488.094 -644.587)" fill="#fff"/>
        <path id="Trazado_3640" data-name="Trazado 3640" d="M496.439,586.029v2.607l-6.961,4.036v-2.606Z" transform="translate(-489.3 -574.042)" fill="#f02098"/>
        <path id="Trazado_3641" data-name="Trazado 3641" d="M633.65,596.559v2.607l-6.961,4.036V600.6Z" transform="translate(-608.841 -583.216)" fill="#f02098"/>
        <path id="Trazado_3642" data-name="Trazado 3642" d="M651.147,632.739v2.607l-6.961,4.036v-2.606Z" transform="translate(-624.084 -614.737)" fill="#fff"/>
        <path id="Trazado_3643" data-name="Trazado 3643" d="M713.767,596.559v2.607l-6.961,4.036V600.6Z" transform="translate(-678.64 -583.216)" fill="#fff"/>
        <path id="Trazado_3644" data-name="Trazado 3644" d="M505.767,586.029,489.6,595.361v2.7l16.194-9.424Z" transform="translate(-489.409 -574.042)" fill="#fff"/>
        <path id="Trazado_3645" data-name="Trazado 3645" d="M505.767,630.1,489.6,639.435v2.7L505.8,632.71Z" transform="translate(-489.409 -612.441)" fill="#fff"/>
      </g>
      <g id="Grupo_21126" data-name="Grupo 21126" transform="translate(10.889 44.106)">
        <path id="Trazado_3646" data-name="Trazado 3646" d="M371.927,515.856l1.446-.847v-2.546l-1.446.846-3.111,1.822L363.07,518.5v2.546l5.747-3.364Z" transform="translate(-363.07 -512.463)" fill="#fec400"/>
        <g id="Grupo_21123" data-name="Grupo 21123" transform="translate(0 7.3)">
          <path id="Trazado_3647" data-name="Trazado 3647" d="M371.611,571.695v-2.546l-2.794,1.636-5.747,3.364v2.546l5.747-3.364Z" transform="translate(-363.07 -569.148)" fill="#fff"/>
        </g>
        <path id="Trazado_3648" data-name="Trazado 3648" d="M368.817,631.256l-5.747,3.364v2.546l5.747-3.364,3.111-1.822,4.384-2.567v-2.546l-4.384,2.567Z" transform="translate(-363.07 -612.135)" fill="#fec400"/>
        <g id="Grupo_21124" data-name="Grupo 21124" transform="translate(5.994 7.232)">
          <path id="Trazado_3649" data-name="Trazado 3649" d="M420.978,568.619l-3.589,2.1-4.908,2.873-2.863,1.677v2.546l2.863-1.677,4.908-2.873,3.589-2.1Z" transform="translate(-409.617 -568.619)" fill="#fff"/>
        </g>
        <g id="Grupo_21125" data-name="Grupo 21125" transform="translate(0 14.342)">
          <path id="Trazado_3650" data-name="Trazado 3650" d="M368.281,623.833l-5.211,3.051v2.546l5.211-3.051Z" transform="translate(-363.07 -623.833)" fill="#fff"/>
        </g>
      </g>
    </g>
    <g id="Grupo_21130" data-name="Grupo 21130" transform="translate(134.035 267.436)">
      <g id="Grupo_21128" data-name="Grupo 21128" transform="translate(2.003 25.911)" opacity="0.4" style="mix-blend-mode: multiply;isolation: isolate">
        <ellipse id="Elipse_1249" data-name="Elipse 1249" cx="5.645" cy="3.287" rx="5.645" ry="3.287" fill="#7d88c4"/>
      </g>
      <path id="Trazado_3651" data-name="Trazado 3651" d="M232.508,1067.806v7.024c0,.066,0,.133,0,.2a5.543,5.543,0,0,1-2.79,4.613,5.542,5.542,0,0,1-8.294-4.812v-7.024Z" transform="translate(-219.316 -1049.65)" fill="#77b8e0"/>
      <path id="Trazado_3652" data-name="Trazado 3652" d="M232.5,1081.868a5.543,5.543,0,0,1-2.79,4.613,5.542,5.542,0,0,1-8.294-4.812v-6.013C224.175,1081.56,228.555,1082.545,232.5,1081.868Z" transform="translate(-219.316 -1056.489)" fill="#262e54" opacity="0.3" style="mix-blend-mode: multiply;isolation: isolate"/>
      <ellipse id="Elipse_1250" data-name="Elipse 1250" cx="5.645" cy="3.287" rx="5.645" ry="3.287" transform="translate(2.003 14.825)" fill="#bbe0fd"/>
      <ellipse id="Elipse_1251" data-name="Elipse 1251" cx="4.13" cy="2.405" rx="4.13" ry="2.405" transform="translate(3.518 15.707)" fill="#15325c"/>
      <path id="Trazado_3653" data-name="Trazado 3653" d="M236.531,1050.29c1.83,0,3.381.693,3.923,1.653a1.518,1.518,0,0,0,.207-.751c0-1.328-1.849-2.405-4.13-2.405s-4.13,1.077-4.13,2.405a1.518,1.518,0,0,0,.207.751C233.15,1050.984,234.7,1050.29,236.531,1050.29Z" transform="translate(-228.883 -1033.08)" fill="#262e54" opacity="0.3" style="mix-blend-mode: multiply;isolation: isolate"/>
      <g id="Grupo_21129" data-name="Grupo 21129" transform="translate(0)">
        <path id="Trazado_3654" data-name="Trazado 3654" d="M273.733,997.376a17.868,17.868,0,0,1-1.622,5.391c-1.312,2.673-3.3,4.762-5.755,4.973l-.083,0-.33.015a27.936,27.936,0,0,1,1.258-2.57,30.8,30.8,0,0,1,2.555-3.961c.059-.069.113-.138.167-.211A17.175,17.175,0,0,1,273.733,997.376Z" transform="translate(-258.106 -988.29)" fill="#77b8e0"/>
        <path id="Trazado_3655" data-name="Trazado 3655" d="M270.462,936.9s-5.516,8.437-4.867,18.171l.413-.019C271.613,949.839,270.462,936.9,270.462,936.9Z" transform="translate(-257.756 -935.598)" fill="#5b95d3"/>
        <path id="Trazado_3656" data-name="Trazado 3656" d="M212.864,1007.76l-.413-.02c-4-.344-6.742-5.661-7.371-10.364a17,17,0,0,1,3.809,3.651A31.5,31.5,0,0,1,212.864,1007.76Z" transform="translate(-205.08 -988.29)" fill="#77b8e0"/>
        <path id="Trazado_3657" data-name="Trazado 3657" d="M231.984,954.51c0,.123-.01.246-.02.374,0,.059,0,.123-.01.182l-.413-.02a13.773,13.773,0,0,1-3.563-6.713,38.631,38.631,0,0,1-.889-11.44,34.183,34.183,0,0,1,3.4,7.46v.005a30.412,30.412,0,0,1,1.5,7.912C232.014,953,232.019,953.748,231.984,954.51Z" transform="translate(-224.171 -935.595)" fill="#5b95d3"/>
        <path id="Trazado_3658" data-name="Trazado 3658" d="M257.647,937.958a21.208,21.208,0,0,1-.786,5.76,18.465,18.465,0,0,1-.929,2.555c0,.005-.005.01-.005.015H255.6c-.015-.059-.029-.123-.044-.182a45.615,45.615,0,0,1-1.479-10.526v-.005a31.774,31.774,0,0,1,.211-4.374,17.578,17.578,0,0,1,.988-4.383,27.776,27.776,0,0,1,2.148,7.72A25.349,25.349,0,0,1,257.647,937.958Z" transform="translate(-247.764 -926.818)" fill="#77b8e0"/>
        <path id="Trazado_3659" data-name="Trazado 3659" d="M219.086,950.072a11.975,11.975,0,0,1-2.108,3.081,5.844,5.844,0,0,1-3.646,1.892l-.083,0s-.005.01-.005.015h-.325c-.015-.059-.029-.123-.044-.182,0,.059,0,.123-.01.182l-.413-.02c-4-.344-6.742-5.661-7.371-10.364a17,17,0,0,1,3.809,3.651c-.039-.157-.079-.315-.113-.472l0-.005A39.058,39.058,0,0,1,208,936.892a34.182,34.182,0,0,1,3.4,7.46,31.768,31.768,0,0,1,.211-4.374,19.39,19.39,0,0,0,2.437,5.5,12.954,12.954,0,0,0,.919,1.253,13.1,13.1,0,0,0,1.769,1.8l.093.079A11.672,11.672,0,0,0,219.086,950.072Z" transform="translate(-205.08 -935.595)" fill="#77b8e0" opacity="0.33" style="mix-blend-mode: multiply;isolation: isolate"/>
        <path id="Trazado_3660" data-name="Trazado 3660" d="M216.977,1005.848a5.845,5.845,0,0,1-3.646,1.892l-.083,0s-.005.01-.005.015h-.325c-.015-.059-.029-.123-.044-.182,0,.059,0,.123-.01.182l-.413-.02c-4-.344-6.742-5.661-7.371-10.364a17,17,0,0,1,3.809,3.651c-.039-.157-.079-.315-.113-.472A13,13,0,0,0,216.977,1005.848Z" transform="translate(-205.08 -988.29)" fill="#77b8e0" opacity="0.33" style="mix-blend-mode: multiply;isolation: isolate"/>
      </g>
    </g>
    <g id="Grupo_21134" data-name="Grupo 21134" transform="translate(153.216 234.371)">
      <path id="Trazado_3661" data-name="Trazado 3661" d="M354.024,684.98v29.671l.838.67,25.313-15.59.838-29-.838-.67Z" transform="translate(-354.024 -670.061)" fill="#183561"/>
      <path id="Trazado_3662" data-name="Trazado 3662" d="M386.683,675.268v29.671l-26.151,14.919V690.187Z" transform="translate(-359.694 -674.597)" fill="#a9d1ea"/>
      <path id="Trazado_3663" data-name="Trazado 3663" d="M386.683,675.268v6.2l-26.151,14.92v-6.2Z" transform="translate(-359.694 -674.597)" fill="#3c6a9e"/>
      <g id="Grupo_21133" data-name="Grupo 21133" transform="translate(3.844 12.405)">
        <path id="Trazado_3664" data-name="Trazado 3664" d="M453.311,766.388l-.012,2.063-14.209,8.232.087-2.121Z" transform="translate(-431.979 -766.388)" fill="#fec400"/>
        <path id="Trazado_3665" data-name="Trazado 3665" d="M398.1,899.925l-.012,2.063-14.209,8.232.087-2.121Z" transform="translate(-383.874 -882.728)" fill="#fec400"/>
        <g id="Grupo_21131" data-name="Grupo 21131" transform="translate(0.137 9.196)">
          <path id="Trazado_3666" data-name="Trazado 3666" d="M390.277,837.8v2l-5.341,3.1v-2Z" transform="translate(-384.936 -837.799)" fill="#77b8e0"/>
        </g>
        <g id="Grupo_21132" data-name="Grupo 21132" transform="translate(13.694 10.237)">
          <path id="Trazado_3667" data-name="Trazado 3667" d="M495.551,845.878v2l-5.341,3.1v-2Z" transform="translate(-490.211 -845.878)" fill="#77b8e0"/>
        </g>
        <path id="Trazado_3668" data-name="Trazado 3668" d="M508.976,873.637v2l-5.341,3.1v-2Z" transform="translate(-488.212 -859.826)" fill="#fff"/>
        <path id="Trazado_3669" data-name="Trazado 3669" d="M397.434,837.8l-12.4,7.16v2.07l12.425-7.23Z" transform="translate(-384.883 -828.603)" fill="#fff"/>
        <path id="Trazado_3670" data-name="Trazado 3670" d="M397.434,871.615l-12.4,7.16v2.07l12.425-7.23Z" transform="translate(-384.883 -858.064)" fill="#fff"/>
      </g>
    </g>
    <g id="Grupo_21136" data-name="Grupo 21136" transform="translate(197.602 267.436)">
      <circle id="Elipse_1252" data-name="Elipse 1252" cx="0.859" cy="0.859" r="0.859" transform="translate(16.378 11.091)" fill="#052754"/>
      <path id="Trazado_3671" data-name="Trazado 3671" d="M712.427,946.27l-6.736,3.962-7,3.038v1.057l10.3,5.812,6.868-3.963,6.868-3.962v-1.057Z" transform="translate(-698.69 -943.765)" fill="#052754"/>
      <path id="Trazado_3672" data-name="Trazado 3672" d="M835.4,973.707l5.332-6.474.381,2.285Z" transform="translate(-817.792 -962.028)" fill="#3c6a9e"/>
      <path id="Trazado_3673" data-name="Trazado 3673" d="M774.439,932.022l-.985,1.2-4.311,5.234-.036.043-9.8-5.686.01-.01.093-.088,6.141-5.9Z" transform="translate(-751.502 -926.818)" fill="#fff"/>
      <path id="Trazado_3674" data-name="Trazado 3674" d="M718.6,978.86l-.278.036-6.7.853-7.754-4.307-2.529-1.405,7.3-.852.171-.02h.01l.131-.015Z" transform="translate(-700.997 -967.181)" fill="#fff"/>
      <g id="Grupo_21135" data-name="Grupo 21135" transform="translate(7.645 5.895)">
        <path id="Trazado_3675" data-name="Trazado 3675" d="M768.052,978.336l-.036.043-.278.036-9.61-5.668-.072-.043.171-.02.093-.088.032.019Z" transform="translate(-758.057 -972.595)" fill="#183561"/>
      </g>
      <path id="Trazado_3676" data-name="Trazado 3676" d="M701.337,980.047v2.5L711.62,988.3V985.76Z" transform="translate(-700.997 -973.193)" fill="#77b8e0"/>
      <path id="Trazado_3677" data-name="Trazado 3677" d="M781.182,1018.394v2.539l6.982-3.428Z" transform="translate(-770.559 -1005.827)" fill="#3c6a9e"/>
    </g>
    <g id="Grupo_21140" data-name="Grupo 21140" transform="translate(214.677 246.732)">
      <path id="Trazado_3678" data-name="Trazado 3678" d="M915.484,1193.844c.276-.967,4.557-1.243,4.557-1.243l4,1.8c-.138,2.21-.552,2.762-1.519,2.762-6.352-.69-7.042-1.933-7.042-1.933A1.756,1.756,0,0,1,915.484,1193.844Z" transform="translate(-904.534 -1137.669)" fill="#052754"/>
      <path id="Trazado_3679" data-name="Trazado 3679" d="M863.365,1220.911c.276-.967,4.557-1.243,4.557-1.243l4,1.795c-.138,2.21-.552,2.762-1.519,2.762-6.352-.69-7.043-1.933-7.043-1.933A1.758,1.758,0,0,1,863.365,1220.911Z" transform="translate(-859.126 -1161.25)" fill="#052754"/>
      <path id="Trazado_3680" data-name="Trazado 3680" d="M888.335,1083.322l-.016.781.76,14.778s.967,1.1,4.833.552l.832-16.294.692-3.856h-2.98a4.122,4.122,0,0,0-4.121,4.04Z" transform="translate(-880.974 -1038.943)" fill="#fec400"/>
      <path id="Trazado_3681" data-name="Trazado 3681" d="M936.867,1050.17H933.3a2.67,2.67,0,0,0-2.646,3.028l.2,1.505,2.071,14.913s.967,1.1,4.833.552l-.965-16.708Z" transform="translate(-917.832 -1013.581)" fill="#fec400"/>
      <path id="Trazado_3682" data-name="Trazado 3682" d="M918.473,1211.841l-13.093,7.66-13.425-8.36,13.222-7.212Z" transform="translate(-884.141 -1147.538)" fill="#15325c" opacity="0.33" style="mix-blend-mode: multiply;isolation: isolate"/>
      <g id="Grupo_21137" data-name="Grupo 21137" transform="translate(20.386 56.386)">
        <path id="Trazado_3683" data-name="Trazado 3683" d="M990.006,1219.9a.427.427,0,0,1-.427-.427v-15.15a.426.426,0,1,1,.853,0v15.15A.427.427,0,0,1,990.006,1219.9Z" transform="translate(-989.579 -1203.896)" fill="#77b8e0"/>
      </g>
      <path id="Trazado_3684" data-name="Trazado 3684" d="M988.613,1305.829v2.754a.551.551,0,0,0,1.1,0v-2.754Z" transform="translate(-968.352 -1236.316)" fill="#1c427e"/>
      <g id="Grupo_21138" data-name="Grupo 21138" transform="translate(34.332 48.726)">
        <path id="Trazado_3685" data-name="Trazado 3685" d="M1098.3,1160.417a.426.426,0,0,1-.426-.426V1144.84a.426.426,0,1,1,.853,0v15.151A.426.426,0,0,1,1098.3,1160.417Z" transform="translate(-1097.875 -1144.414)" fill="#77b8e0"/>
      </g>
      <path id="Trazado_3686" data-name="Trazado 3686" d="M1096.909,1246.347v2.754a.551.551,0,1,0,1.1,0v-2.754Z" transform="translate(-1062.701 -1184.494)" fill="#1c427e"/>
      <g id="Grupo_21139" data-name="Grupo 21139" transform="translate(7.362 48.887)">
        <path id="Trazado_3687" data-name="Trazado 3687" d="M888.877,1161.667a.426.426,0,0,1-.426-.427v-15.15a.426.426,0,1,1,.853,0v15.15A.427.427,0,0,1,888.877,1161.667Z" transform="translate(-888.451 -1145.664)" fill="#77b8e0"/>
      </g>
      <path id="Trazado_3688" data-name="Trazado 3688" d="M902.253,1153.357h0a.924.924,0,0,1-1.377.631l-12.942-7.613v-1.3Z" transform="translate(-880.638 -1096.262)" fill="#a9d1ea"/>
      <path id="Trazado_3689" data-name="Trazado 3689" d="M905.382,1087.7l-3.735-1.894-13.254,7.692,13.254,7.811Z" transform="translate(-881.039 -1044.625)" fill="#bbe0fd"/>
      <path id="Trazado_3690" data-name="Trazado 3690" d="M887.485,1247.6v2.754a.551.551,0,0,0,1.1,0V1247.6Z" transform="translate(-880.247 -1185.583)" fill="#1c427e"/>
      <path id="Trazado_3691" data-name="Trazado 3691" d="M917.256,1057.1l-10.533,3.928s-11.783-2.678-13.39,0,1.265,6.11,1.265,6.11,9.982,5.673,14.8,4.066C909.4,1071.2,918.505,1070.133,917.256,1057.1Z" transform="translate(-884.916 -1019.618)" fill="#fec400"/>
      <path id="Trazado_3692" data-name="Trazado 3692" d="M932.693,1054.97c-4.285-6.427,1.607-6.427,10.176-3.749S932.693,1054.97,932.693,1054.97Z" transform="translate(-918.385 -1013.024)" fill="#fec400"/>
      <path id="Trazado_3693" data-name="Trazado 3693" d="M1038.445,866.673c1.494-.275,2.878.379,3.615,4.394s1.191,11.065,1.191,11.065l-1.7,12.893-3.059-.156.231-12.942-2.252-9.962S1035.457,867.222,1038.445,866.673Z" transform="translate(-1009.901 -853.666)" fill="#ec69b9"/>
      <path id="Trazado_3694" data-name="Trazado 3694" d="M957.184,867.418l1.88,22.877s11.8,1.96,14.977-6.581l-1.153-7.294-.718-15.482a3.705,3.705,0,0,0-1.3-1.843,3.206,3.206,0,0,0-1.834-.647,3.433,3.433,0,0,0-1.914.494l-8.016,4.888a4.149,4.149,0,0,0-1.282,1.214A3.691,3.691,0,0,0,957.184,867.418Z" transform="translate(-940.96 -846.546)" fill="#f1249a"/>
      <path id="Trazado_3695" data-name="Trazado 3695" d="M960.611,795.571s-.093,10.676,3.957,9.373,4.743-6.347,4.743-6.347l-3.2-3.478Z" transform="translate(-943.956 -791.375)" fill="#f9beae"/>
      <path id="Trazado_3696" data-name="Trazado 3696" d="M997.469,849.734l-.051,4.438s3.245.7,4.5-.924l-.317-3.854Z" transform="translate(-976.023 -838.661)" fill="#f9beae"/>
      <path id="Trazado_3697" data-name="Trazado 3697" d="M956.293,774.029a1.458,1.458,0,0,1-1.271-1.974s-2.419-.771-2.577-2.7a4.33,4.33,0,0,1,1.529-3.312l1.02.609s5.333-.854,7.245,2.176.173,8.853.173,8.853l-2.334.192-2.341-3.133Z" transform="translate(-936.832 -766.045)" fill="#052754"/>
      <circle id="Elipse_1253" data-name="Elipse 1253" cx="1.56" cy="1.56" r="1.56" transform="translate(18.205 9.657) rotate(-74.379)" fill="#f9beae"/>
      <path id="Trazado_3698" data-name="Trazado 3698" d="M990.393,1021.129l4.5-18.461,13.846-8.757,1.124.769-5.739,18.52-12.6,8.58Z" transform="translate(-969.903 -964.567)" fill="#a9d1ea"/>
      <path id="Trazado_3699" data-name="Trazado 3699" d="M999.582,1026.643l4.5-18.461,13.846-8.757-4.615,19.289Z" transform="translate(-977.908 -969.37)" fill="#bbe0fd"/>
      <path id="Trazado_3700" data-name="Trazado 3700" d="M836.364,973.134a2.578,2.578,0,0,0-.171-2.052c-.591-.734-1.171.359-1.171.359-2.281-1.772-2.746-.9-2.746-.9-1.468,1.182-.877,1.916-.877,1.916.417,1.062,3.367,2.629,3.367,2.629Z" transform="translate(-831.281 -944.02)" fill="#f9beae"/>
      <path id="Trazado_3701" data-name="Trazado 3701" d="M869.625,910.312c1.624.088,2.9,1.114,2.667,5.478-.137,2.546-.975,7.817-1.649,11.768a3.489,3.489,0,0,1-5.212,2.416l-10.067-6.918,2.273-3.031,8.336,4.547.273-9.244S866.376,910.137,869.625,910.312Z" transform="translate(-852.262 -891.729)" fill="#ec69b9"/>
    </g>
  </g>
</svg>
