<?xml version="1.0" encoding="utf-8"?>
<!-- Generator: Adobe Illustrator 25.2.3, SVG Export Plug-In . SVG Version: 6.00 Build 0)  -->
<svg version="1.1" id="Grupo_21471" xmlns="http://www.w3.org/2000/svg" xmlns:xlink="http://www.w3.org/1999/xlink" x="0px"
	 y="0px" viewBox="0 0 1031 400" style="enable-background:new 0 0 1031 400;" xml:space="preserve">
<style type="text/css">
	.st0{fill:#F3F9FF;}
	.st1{fill:#B7FFF8;}
	.st2{fill:#A6E1FE;}
	.st3{fill:none;stroke:#111E61;stroke-width:3;stroke-linecap:round;}
	.st4{fill:#111E61;}
	.st5{fill:#4DD0E1;}
	.st6{fill:#DFEBFA;}
	.st7{fill:#B1DBFC;}
	.st8{fill:#FF4756;}
	.st9{fill:#FC2D39;}
	.st10{fill:#60B8FE;}
	.st11{fill:#23A8FE;}
	.st12{fill:#0193FA;}
	.st13{fill:#FF656F;}
	.st14{fill:#FFD301;}
	.st15{fill:#FFC20C;}
	.st16{fill:#665E68;}
	.st17{fill:#544E55;}
	.st18{fill:#8BCAFF;}
	.st19{fill:#050402;}
	.st20{fill:#FF889E;}
	.st21{fill:#FF748F;}
	.st22{fill:#5C586F;}
	.st23{fill:#FFBD86;}
	.st24{fill:#4F4C5F;}
	.st25{fill:#FED2A4;}
	.st26{fill:#FF9DB0;}
</style>
<rect id="Rectángulo_5188" class="st0" width="1031" height="400"/>
<g id="Grupo_21469" transform="translate(55 52)">
	<path id="Rectángulo_4894" class="st1" d="M191,112h142c5.5,0,10,4.5,10,10v52c0,5.5-4.5,10-10,10H191c-5.5,0-10-4.5-10-10v-52
		C181,116.5,185.5,112,191,112z"/>
	<path id="Rectángulo_4906" class="st1" d="M666,112h143c5.5,0,10,4.5,10,10v52c0,5.5-4.5,10-10,10H666c-5.5,0-10-4.5-10-10v-52
		C656,116.5,660.5,112,666,112z"/>
	<path id="Rectángulo_4895" class="st1" d="M251,0h82c5.5,0,10,4.5,10,10v52c0,5.5-4.5,10-10,10h-82c-5.5,0-10-4.5-10-10V10
		C241,4.5,245.5,0,251,0z"/>
	<path id="Rectángulo_4907" class="st1" d="M829,0h82c5.5,0,10,4.5,10,10v52c0,5.5-4.5,10-10,10h-82c-5.5,0-10-4.5-10-10V10
		C819,4.5,823.5,0,829,0z"/>
	<path id="Rectángulo_4905" class="st1" d="M251,224h82c5.5,0,10,4.5,10,10v52c0,5.5-4.5,10-10,10h-82c-5.5,0-10-4.5-10-10v-52
		C241,228.5,245.5,224,251,224z"/>
	<path id="Rectángulo_4910" class="st1" d="M829,224h82c5.5,0,10,4.5,10,10v52c0,5.5-4.5,10-10,10h-82c-5.5,0-10-4.5-10-10v-52
		C819,228.5,823.5,224,829,224z"/>
	<path id="Rectángulo_4902" class="st1" d="M86,0h82c5.5,0,10,4.5,10,10v52c0,5.5-4.5,10-10,10H86c-5.5,0-10-4.5-10-10V10
		C76,4.5,80.5,0,86,0z"/>
	<path id="Rectángulo_4908" class="st1" d="M664,0h82c5.5,0,10,4.5,10,10v52c0,5.5-4.5,10-10,10h-82c-5.5,0-10-4.5-10-10V10
		C654,4.5,658.5,0,664,0z"/>
	<path id="Rectángulo_4904" class="st1" d="M86,224h82c5.5,0,10,4.5,10,10v52c0,5.5-4.5,10-10,10H86c-5.5,0-10-4.5-10-10v-52
		C76,228.5,80.5,224,86,224z"/>
	<path id="Rectángulo_4909" class="st1" d="M633,224h113c5.5,0,10,4.5,10,10v52c0,5.5-4.5,10-10,10H633c-5.5,0-10-4.5-10-10v-52
		C623,228.5,627.5,224,633,224z"/>
	<path id="Rectángulo_4903" class="st1" d="M10,113h82c5.5,0,10,4.5,10,10v52c0,5.5-4.5,10-10,10H10c-5.5,0-10-4.5-10-10v-52
		C0,117.5,4.5,113,10,113z"/>
	<circle id="Elipse_1210" class="st2" cx="497" cy="148" r="66"/>
	<path id="Trazado_2618" class="st3" d="M351.7,148.1h65.5"/>
	<path id="Trazado_2617" class="st3" d="M575.3,148.1h65.5"/>
	<path id="Trazado_101120" class="st4" d="M239.9,150.5l2.5-9.3h3.4l-4.3,12.8h-3.4l-4.3-12.8h3.4L239.9,150.5z M250.9,154.2
		c-1.3,0.1-2.6-0.4-3.5-1.3c-0.9-0.9-1.4-2.1-1.4-3.4v-0.2c0-0.9,0.2-1.8,0.5-2.6c0.3-0.7,0.9-1.3,1.6-1.7c0.8-0.4,1.6-0.6,2.5-0.6
		c1.2-0.1,2.3,0.4,3.2,1.2c0.8,1,1.2,2.2,1.2,3.5v1.2h-5.9c0.1,0.5,0.3,0.9,0.7,1.3c0.4,0.3,0.9,0.5,1.4,0.5c0.8,0,1.7-0.3,2.2-1
		l1.4,1.6c-0.4,0.5-0.9,1-1.6,1.2C252.4,154,251.7,154.2,250.9,154.2L250.9,154.2z M250.6,146.6c-0.9,0-1.4,0.6-1.5,1.7h3v-0.2
		c0-0.4-0.1-0.8-0.4-1.1C251.4,146.7,251,146.6,250.6,146.6z M259,145.5c0.6-0.8,1.5-1.2,2.4-1.2c0.9-0.1,1.8,0.3,2.4,0.9
		c0.6,0.8,0.9,1.8,0.8,2.8v6h-3v-5.9c0-0.4-0.1-0.8-0.3-1.1c-0.3-0.3-0.7-0.4-1-0.4c-0.5,0-1,0.2-1.3,0.6v6.8h-3v-13.5h3L259,145.5z
		 M269.5,154h-3v-9.5h3V154z M268.4,140.7h3.1l-2.4,2.8h-2.4L268.4,140.7z M275.4,151.9c0.4,0,0.7-0.1,1-0.3
		c0.2-0.3,0.4-0.6,0.3-0.9h2.8c0,1-0.4,1.9-1.1,2.6c-0.8,0.7-1.8,1-2.9,1c-1.2,0.1-2.4-0.4-3.3-1.3c-0.8-1-1.3-2.3-1.2-3.6v-0.1
		c0-0.9,0.2-1.8,0.5-2.6c0.3-0.7,0.9-1.3,1.5-1.7c0.7-0.4,1.5-0.6,2.4-0.6c1.1-0.1,2.1,0.3,2.9,1c0.7,0.7,1.1,1.7,1.1,2.8h-2.8
		c0-0.4-0.1-0.8-0.4-1.1c-0.2-0.3-0.6-0.4-1-0.4c-0.8,0-1.2,0.5-1.3,1.5c0,0.4-0.1,0.9-0.1,1.3c-0.1,0.7,0.1,1.4,0.3,2
		C274.6,151.7,275,151.9,275.4,151.9z M286.4,153c-0.6,0.8-1.6,1.2-2.5,1.2c-0.9,0.1-1.8-0.3-2.4-0.9c-0.6-0.7-0.9-1.7-0.8-2.6v-6.2
		h3v6.2c-0.1,0.6,0.3,1.1,0.9,1.2c0.1,0,0.2,0,0.3,0c0.6,0.1,1.1-0.2,1.5-0.7v-6.7h3v9.5h-2.8L286.4,153z M294.1,154h-3v-13.5h3V154
		z M295.5,149.2c0-0.9,0.2-1.7,0.6-2.5c0.3-0.7,0.9-1.3,1.6-1.7c0.7-0.4,1.6-0.6,2.4-0.6c1.3-0.1,2.5,0.4,3.4,1.3
		c0.9,1,1.3,2.3,1.2,3.6v0.1c0.1,1.3-0.4,2.6-1.2,3.5c-0.9,0.9-2.1,1.4-3.3,1.3c-1.2,0.1-2.4-0.4-3.3-1.2c-0.9-0.9-1.3-2.1-1.3-3.3
		L295.5,149.2z M298.5,149.3c0,0.7,0.1,1.3,0.4,1.9c0.3,0.4,0.7,0.6,1.2,0.6c1.1,0,1.6-0.8,1.6-2.4v-0.3c0-1.7-0.5-2.6-1.6-2.6
		c-1,0-1.5,0.7-1.6,2.2L298.5,149.3z"/>
	<path id="Trazado_101119" class="st4" d="M486,143.6h-3.8V154h-3.1v-10.4h-3.8v-2.4H486L486,143.6z M490.3,154h-3v-9.5h3V154z
		 M487.2,142c0-0.4,0.2-0.8,0.5-1c0.3-0.3,0.8-0.4,1.2-0.4c0.4,0,0.9,0.1,1.2,0.4c0.3,0.3,0.5,0.6,0.5,1c0,0.4-0.2,0.8-0.5,1
		c-0.3,0.3-0.8,0.4-1.2,0.4c-0.4,0-0.9-0.1-1.2-0.4C487.3,142.8,487.1,142.4,487.2,142z M496.7,154.2c-1.3,0.1-2.6-0.4-3.5-1.3
		c-0.9-0.9-1.4-2.1-1.4-3.4v-0.2c0-0.9,0.2-1.8,0.5-2.6c0.3-0.7,0.9-1.3,1.6-1.7c0.8-0.4,1.6-0.6,2.5-0.6c1.2-0.1,2.3,0.4,3.2,1.2
		c0.8,1,1.2,2.2,1.2,3.5v1.2h-5.9c0.1,0.5,0.3,0.9,0.7,1.3c0.4,0.3,0.9,0.5,1.4,0.5c0.8,0,1.7-0.3,2.2-1l1.4,1.6
		c-0.4,0.5-0.9,1-1.6,1.2C498.2,154,497.5,154.2,496.7,154.2z M496.4,146.6c-0.9,0-1.4,0.6-1.5,1.7h3v-0.2c0-0.4-0.1-0.8-0.4-1.1
		C497.2,146.7,496.8,146.6,496.4,146.6z M504.6,144.5l0.1,1.1c0.6-0.9,1.7-1.3,2.7-1.3c0.8-0.1,1.7,0.3,2.2,0.9
		c0.5,0.8,0.8,1.7,0.8,2.7v6.1h-3v-6c0-0.4-0.1-0.8-0.3-1.1c-0.3-0.3-0.7-0.4-1.1-0.3c-0.5,0-1,0.2-1.3,0.7v6.7h-3v-9.5H504.6z
		 M516.7,154.2c-1.3,0.1-2.6-0.4-3.5-1.3c-0.9-0.9-1.4-2.1-1.4-3.4v-0.2c0-0.9,0.2-1.8,0.5-2.6c0.3-0.7,0.9-1.3,1.6-1.7
		c0.8-0.4,1.6-0.6,2.5-0.6c1.2-0.1,2.3,0.4,3.2,1.2c0.8,1,1.2,2.2,1.2,3.5v1.2h-5.9c0.1,0.5,0.3,0.9,0.7,1.3
		c0.4,0.3,0.9,0.5,1.4,0.5c0.8,0,1.7-0.3,2.2-1l1.4,1.6c-0.4,0.5-1,1-1.6,1.2C518.2,154,517.4,154.2,516.7,154.2z M516.3,146.6
		c-0.9,0-1.4,0.6-1.5,1.7h3v-0.2c0-0.4-0.1-0.8-0.4-1.1C517.1,146.7,516.7,146.6,516.3,146.6z"/>
	<path id="Trazado_101116" class="st4" d="M698,154v-12.8h4.1c1.1,0,2.1,0.2,3,0.8c0.9,0.5,1.6,1.3,2.1,2.2c0.5,1,0.8,2,0.8,3.1v0.6
		c0,1.1-0.2,2.2-0.7,3.2c-0.5,0.9-1.2,1.7-2.1,2.2c-0.9,0.5-2,0.8-3,0.8H698z M701.1,143.6v8h1.1c0.8,0,1.6-0.3,2-0.9
		c0.5-0.8,0.8-1.8,0.7-2.8v-0.6c0.1-1-0.2-2-0.7-2.8c-0.5-0.6-1.3-1-2.1-0.9H701.1z M715.1,153c-0.6,0.8-1.5,1.2-2.5,1.2
		c-0.9,0.1-1.8-0.3-2.4-0.9c-0.6-0.7-0.9-1.7-0.8-2.6v-6.2h3v6.2c-0.1,0.6,0.3,1.1,0.9,1.2c0.1,0,0.2,0,0.3,0
		c0.6,0.1,1.1-0.2,1.4-0.7v-6.7h3v9.5h-2.8L715.1,153z M724.2,154.2c-1.3,0.1-2.6-0.4-3.5-1.3c-0.9-0.9-1.4-2.1-1.4-3.4v-0.2
		c0-0.9,0.2-1.8,0.5-2.6c0.3-0.7,0.9-1.3,1.6-1.7c0.7-0.4,1.6-0.6,2.5-0.6c1.2-0.1,2.3,0.4,3.2,1.2c0.8,1,1.2,2.2,1.2,3.5v1.2h-5.9
		c0.1,0.5,0.3,0.9,0.7,1.3c0.4,0.3,0.9,0.5,1.4,0.5c0.8,0,1.7-0.3,2.2-1l1.4,1.6c-0.4,0.5-1,1-1.6,1.2
		C725.7,154,725,154.2,724.2,154.2z M723.9,146.6c-0.9,0-1.4,0.6-1.5,1.7h3v-0.2c0-0.4-0.1-0.8-0.4-1.1
		C724.7,146.7,724.3,146.6,723.9,146.6z M732.1,144.5l0.1,1.1c0.6-0.9,1.7-1.3,2.7-1.3c0.8-0.1,1.7,0.3,2.2,0.9
		c0.5,0.8,0.8,1.7,0.8,2.7v6.1h-3v-6c0-0.4-0.1-0.8-0.3-1.1c-0.3-0.3-0.7-0.4-1.1-0.3c-0.5,0-1,0.2-1.3,0.7v6.7h-3v-9.5H732.1z
		 M737.1,140.6c0,0.6-0.2,1.2-0.6,1.7c-0.3,0.4-0.9,0.7-1.4,0.7c-0.5,0-0.9-0.1-1.3-0.4c-0.4-0.2-0.7-0.3-1.2-0.4
		c-0.2,0-0.4,0.1-0.5,0.2c-0.1,0.2-0.2,0.4-0.2,0.6l-1.6-0.1c0-0.6,0.2-1.2,0.6-1.7c0.3-0.5,0.9-0.7,1.4-0.7c0.4,0,0.8,0.1,1.2,0.3
		c0.3,0.1,0.6,0.3,0.9,0.4c0.1,0,0.3,0,0.4,0c0.2,0,0.4-0.1,0.5-0.2c0.1-0.2,0.2-0.4,0.2-0.6L737.1,140.6z M739.2,149.2
		c0-0.9,0.2-1.7,0.6-2.5c0.3-0.7,0.9-1.3,1.6-1.7c0.7-0.4,1.6-0.6,2.4-0.6c1.3-0.1,2.5,0.4,3.4,1.3c0.9,1,1.3,2.3,1.2,3.6v0.1
		c0.1,1.3-0.4,2.6-1.2,3.5c-0.9,0.9-2.1,1.4-3.3,1.3c-1.2,0.1-2.4-0.4-3.3-1.2c-0.9-0.9-1.3-2.1-1.3-3.3L739.2,149.2z M742.2,149.3
		c0,0.7,0.1,1.3,0.4,1.9c0.3,0.4,0.7,0.6,1.2,0.6c1.1,0,1.6-0.8,1.6-2.4v-0.3c0-1.7-0.5-2.6-1.6-2.6c-1,0-1.5,0.7-1.6,2.2
		L742.2,149.3z"/>
	<path id="Trazado_101121" class="st4" d="M273.6,33h-2.3l-4.6-7.5V33h-2.3V21.6h2.3l4.6,7.5v-7.5h2.3V33z M280.6,32.1
		c-0.6,0.7-1.4,1.1-2.3,1c-0.8,0.1-1.5-0.2-2.1-0.8c-0.5-0.6-0.8-1.5-0.7-2.3v-5.5h2.3V30c0,0.9,0.4,1.3,1.2,1.3
		c0.6,0.1,1.3-0.2,1.6-0.8v-6h2.3V33h-2.1L280.6,32.1z M279.5,21h2.5l-2.2,2.4H278L279.5,21z M286.6,24.5l0.1,0.9
		c0.6-0.7,1.5-1.1,2.4-1.1c0.9-0.1,1.8,0.4,2.2,1.3c0.6-0.8,1.5-1.3,2.5-1.3c0.8-0.1,1.5,0.2,2,0.8c0.5,0.7,0.7,1.6,0.7,2.4V33h-2.3
		v-5.4c0-0.4-0.1-0.7-0.3-1.1c-0.3-0.3-0.6-0.4-1-0.3c-0.6,0-1.2,0.4-1.4,1l0,5.8h-2.3v-5.4c0-0.4-0.1-0.8-0.3-1.1
		c-0.3-0.2-0.6-0.4-1-0.3c-0.6,0-1.1,0.3-1.4,0.8v6h-2.3v-8.5H286.6z M302.2,33.2c-1.1,0-2.2-0.4-3-1.1c-0.8-0.8-1.2-1.9-1.2-3v-0.2
		c0-0.8,0.2-1.6,0.5-2.3c0.3-0.6,0.8-1.2,1.4-1.5c0.6-0.4,1.3-0.6,2.1-0.5c1-0.1,2,0.3,2.7,1.1c0.7,0.9,1.1,2,1,3.1v0.9h-5.4
		c0.1,0.5,0.3,1,0.7,1.3c0.4,0.3,0.9,0.5,1.4,0.5c0.8,0,1.6-0.3,2-0.9l1.1,1.2c-0.4,0.5-0.8,0.9-1.4,1.1
		C303.5,33,302.8,33.2,302.2,33.2z M301.9,26.2c-0.4,0-0.8,0.2-1.1,0.5c-0.3,0.4-0.5,0.8-0.5,1.3h3.1v-0.2c0-0.4-0.1-0.8-0.4-1.2
		C302.7,26.3,302.3,26.2,301.9,26.2z M311.7,26.7c-0.3,0-0.5-0.1-0.8-0.1c-0.7-0.1-1.4,0.3-1.7,0.9V33h-2.3v-8.5h2.1l0.1,1
		c0.4-0.7,1.1-1.2,1.9-1.2c0.2,0,0.5,0,0.7,0.1L311.7,26.7z M312.1,28.7c0-0.8,0.2-1.5,0.5-2.2c0.3-0.6,0.8-1.2,1.4-1.5
		c0.6-0.4,1.4-0.6,2.1-0.5c1,0,2,0.3,2.8,1c0.7,0.8,1.2,1.8,1.2,2.8l0,0.6c0.1,1.1-0.3,2.3-1.1,3.1c-0.8,0.8-1.8,1.2-2.9,1.2
		c-1.1,0-2.2-0.4-2.9-1.2C312.5,31.1,312.1,30,312.1,28.7L312.1,28.7z M314.4,28.9c0,0.6,0.1,1.3,0.5,1.8c0.3,0.4,0.8,0.7,1.3,0.6
		c0.5,0,1-0.2,1.3-0.6c0.4-0.6,0.5-1.3,0.5-2c0-0.6-0.1-1.3-0.5-1.8c-0.3-0.4-0.8-0.7-1.3-0.6c-0.5,0-1,0.2-1.3,0.6
		C314.5,27.5,314.4,28.2,314.4,28.9L314.4,28.9z M259.3,46.7c-0.1-1.1,0.3-2.2,0.9-3.1c0.6-0.8,1.5-1.2,2.4-1.2c0.8,0,1.5,0.3,2,0.9
		V39h2.3v12h-2l-0.1-0.9c-0.5,0.7-1.3,1.1-2.2,1.1c-0.9,0-1.8-0.4-2.4-1.2C259.6,49,259.3,47.9,259.3,46.7z M261.6,46.9
		c0,0.6,0.1,1.3,0.4,1.8c0.3,0.4,0.7,0.7,1.2,0.6c0.6,0,1.2-0.3,1.5-0.9v-3.4c-0.3-0.6-0.8-0.9-1.5-0.9
		C262.1,44.2,261.6,45.1,261.6,46.9z M272.6,51.2c-1.1,0-2.2-0.4-3-1.1c-0.8-0.8-1.2-1.9-1.2-3v-0.2c0-0.8,0.2-1.6,0.5-2.3
		c0.3-0.6,0.8-1.2,1.4-1.5c0.6-0.4,1.3-0.6,2.1-0.5c1-0.1,2,0.3,2.7,1.1c0.7,0.9,1.1,2,1,3.1v0.9h-5.4c0.1,0.5,0.3,1,0.7,1.3
		c0.4,0.3,0.9,0.5,1.4,0.5c0.8,0,1.6-0.3,2-0.9l1.1,1.2c-0.4,0.5-0.8,0.9-1.4,1.1C273.9,51,273.3,51.2,272.6,51.2L272.6,51.2z
		 M272.3,44.2c-0.4,0-0.8,0.2-1.1,0.5c-0.3,0.4-0.5,0.8-0.5,1.3h3.1v-0.2c0-0.4-0.1-0.8-0.4-1.2C273.2,44.3,272.7,44.2,272.3,44.2
		L272.3,44.2z M283.8,47v4h-2.3V39.6h4.4c0.8,0,1.5,0.1,2.3,0.5c0.6,0.3,1.1,0.7,1.5,1.3c0.4,0.6,0.5,1.3,0.5,2c0,1-0.4,2-1.1,2.6
		c-0.9,0.7-2,1-3.2,1L283.8,47z M283.8,45.1h2.1c0.5,0,1-0.1,1.4-0.4c0.3-0.3,0.5-0.8,0.5-1.2c0-0.5-0.2-1-0.5-1.4
		c-0.4-0.4-0.9-0.5-1.4-0.5h-2.1V45.1z M294,51h-2.3V39h2.3V51z M300.8,51c-0.1-0.2-0.2-0.5-0.2-0.8c-0.5,0.6-1.3,0.9-2.1,0.9
		c-0.8,0-1.5-0.2-2.1-0.7c-0.5-0.5-0.8-1.1-0.8-1.8c0-0.8,0.3-1.6,1-2.1c0.9-0.5,1.9-0.8,2.9-0.7h1v-0.5c0-0.3-0.1-0.7-0.3-0.9
		c-0.2-0.3-0.6-0.4-0.9-0.4c-0.3,0-0.6,0.1-0.9,0.3c-0.2,0.2-0.3,0.5-0.3,0.8h-2.3c0-0.5,0.2-1,0.5-1.4c0.3-0.4,0.8-0.8,1.3-1
		c0.6-0.2,1.2-0.4,1.9-0.4c0.9,0,1.8,0.2,2.5,0.8c0.6,0.6,1,1.4,0.9,2.2V49c0,0.6,0.1,1.2,0.3,1.8V51H300.8z M298.9,49.4
		c0.3,0,0.6-0.1,0.9-0.2c0.3-0.1,0.5-0.3,0.6-0.6v-1.5h-0.8c-1.1,0-1.7,0.4-1.8,1.2l0,0.1c0,0.3,0.1,0.5,0.3,0.7
		C298.3,49.3,298.6,49.4,298.9,49.4z M308,49.3c0.4,0,0.7-0.1,1-0.3c0.3-0.2,0.4-0.6,0.4-0.9h2.1c0,0.6-0.2,1.1-0.5,1.6
		c-0.3,0.5-0.7,0.9-1.3,1.1c-0.6,0.3-1.2,0.4-1.8,0.4c-1.1,0.1-2.1-0.4-2.9-1.2c-0.7-0.9-1.1-2-1-3.2v-0.1c-0.1-1.1,0.3-2.2,1-3.1
		c0.7-0.8,1.8-1.2,2.9-1.2c0.9,0,1.8,0.3,2.5,0.9c0.6,0.6,1,1.5,1,2.4h-2.1c0-0.4-0.1-0.8-0.4-1.1c-0.6-0.6-1.6-0.5-2.1,0.1
		c0,0-0.1,0.1-0.1,0.1c-0.3,0.6-0.5,1.2-0.4,1.9v0.2c-0.1,0.7,0.1,1.3,0.4,1.9C307.1,49.1,307.5,49.4,308,49.3L308,49.3z M317.7,51
		c-0.1-0.2-0.2-0.5-0.2-0.8c-0.5,0.6-1.3,0.9-2.1,0.9c-0.8,0-1.5-0.2-2.1-0.7c-0.5-0.5-0.8-1.1-0.8-1.8c0-0.8,0.3-1.6,1-2.1
		c0.9-0.5,1.9-0.8,2.9-0.7h1v-0.5c0-0.3-0.1-0.7-0.3-0.9c-0.2-0.3-0.6-0.4-0.9-0.4c-0.3,0-0.6,0.1-0.9,0.3c-0.2,0.2-0.3,0.5-0.3,0.8
		h-2.3c0-0.5,0.2-1,0.5-1.4c0.3-0.4,0.8-0.8,1.3-1c0.6-0.2,1.2-0.4,1.9-0.4c0.9,0,1.8,0.2,2.5,0.8c0.6,0.6,1,1.4,0.9,2.2V49
		c0,0.6,0.1,1.2,0.3,1.8V51H317.7z M315.9,49.4c0.3,0,0.6-0.1,0.9-0.2c0.3-0.1,0.5-0.3,0.6-0.6v-1.5h-0.8c-1.1,0-1.7,0.4-1.8,1.2
		l0,0.1c0,0.3,0.1,0.5,0.3,0.7C315.3,49.3,315.6,49.4,315.9,49.4z M321.5,49.9c0-0.3,0.1-0.7,0.4-0.9c0.5-0.4,1.3-0.4,1.8,0
		c0.2,0.2,0.4,0.5,0.4,0.9c0,0.3-0.1,0.6-0.4,0.9c-0.5,0.4-1.3,0.4-1.8,0C321.6,50.5,321.5,50.2,321.5,49.9z"/>
	<path id="Trazado_101122" class="st4" d="M108.5,30.6l2.9,8.2l2.9-8.2h3.1V42H115v-3.1l0.2-5.4l-3.1,8.5h-1.6l-3.1-8.5l0.2,5.4V42
		h-2.3V30.6H108.5z M124.2,42c-0.1-0.2-0.2-0.5-0.2-0.8c-0.5,0.6-1.3,0.9-2.1,0.9c-0.8,0-1.5-0.2-2.1-0.7c-0.5-0.5-0.8-1.1-0.8-1.8
		c0-0.8,0.3-1.6,1-2.1c0.9-0.5,1.9-0.8,2.9-0.7h1v-0.5c0-0.3-0.1-0.7-0.3-0.9c-0.2-0.3-0.6-0.4-0.9-0.4c-0.3,0-0.6,0.1-0.9,0.3
		c-0.2,0.2-0.3,0.5-0.3,0.8h-2.3c0-0.5,0.2-1,0.5-1.4c0.3-0.4,0.8-0.8,1.3-1c0.6-0.2,1.2-0.4,1.9-0.4c0.9,0,1.8,0.2,2.5,0.8
		c0.6,0.6,1,1.4,0.9,2.2V40c0,0.6,0.1,1.2,0.3,1.8V42H124.2z M122.3,40.4c0.3,0,0.6-0.1,0.9-0.2c0.3-0.1,0.5-0.3,0.6-0.6v-1.5H123
		c-1.1,0-1.7,0.4-1.8,1.2l0,0.1c0,0.3,0.1,0.5,0.3,0.7C121.7,40.3,122,40.4,122.3,40.4z M132.6,35.7c-0.3,0-0.5-0.1-0.8-0.1
		c-0.7-0.1-1.4,0.3-1.7,0.9V42h-2.3v-8.5h2.1l0.1,1c0.4-0.7,1.1-1.2,1.9-1.2c0.2,0,0.5,0,0.7,0.1L132.6,35.7z M137.1,40.3
		c0.4,0,0.7-0.1,1-0.3c0.3-0.2,0.4-0.6,0.4-0.9h2.1c0,0.6-0.2,1.1-0.5,1.6c-0.3,0.5-0.7,0.9-1.3,1.1c-0.6,0.3-1.2,0.4-1.8,0.4
		c-1.1,0.1-2.1-0.4-2.9-1.2c-0.7-0.9-1.1-2-1-3.2v-0.1c-0.1-1.1,0.3-2.2,1-3.1c0.7-0.8,1.8-1.2,2.9-1.2c0.9,0,1.8,0.3,2.5,0.9
		c0.6,0.6,1,1.5,1,2.4h-2.1c0-0.4-0.1-0.8-0.4-1.1c-0.3-0.3-0.6-0.4-1-0.4c-0.5,0-0.9,0.2-1.2,0.6c-0.3,0.6-0.5,1.2-0.4,1.9v0.2
		c-0.1,0.7,0.1,1.3,0.4,1.9C136.1,40.2,136.6,40.4,137.1,40.3L137.1,40.3z M146.8,42c-0.1-0.2-0.2-0.5-0.2-0.8
		c-0.5,0.6-1.3,0.9-2.1,0.9c-0.8,0-1.5-0.2-2.1-0.7c-0.5-0.5-0.8-1.1-0.8-1.8c0-0.8,0.3-1.6,1-2.1c0.9-0.5,1.9-0.8,2.9-0.7h1v-0.5
		c0-0.3-0.1-0.7-0.3-0.9c-0.2-0.3-0.6-0.4-0.9-0.4c-0.3,0-0.6,0.1-0.9,0.3c-0.2,0.2-0.3,0.5-0.3,0.8h-2.3c0-0.5,0.2-1,0.5-1.4
		c0.3-0.4,0.8-0.8,1.3-1c0.6-0.2,1.2-0.4,1.9-0.4c0.9,0,1.8,0.2,2.5,0.8c0.6,0.6,1,1.4,0.9,2.2V40c0,0.6,0.1,1.2,0.3,1.8V42H146.8z
		 M144.9,40.4c0.3,0,0.6-0.1,0.9-0.2c0.3-0.1,0.5-0.3,0.6-0.6v-1.5h-0.8c-1.1,0-1.7,0.4-1.8,1.2l0,0.1c0,0.3,0.1,0.5,0.3,0.7
		C144.3,40.3,144.6,40.4,144.9,40.4z"/>
	<path id="Trazado_101123" class="st4" d="M23.6,155h-2.3v-8.5h2.3V155z M21.2,144.4c0-0.3,0.1-0.6,0.3-0.8c0.3-0.2,0.6-0.3,0.9-0.3
		c0.3,0,0.7,0.1,0.9,0.3c0.2,0.2,0.4,0.5,0.3,0.8c0,0.3-0.1,0.6-0.3,0.8c-0.3,0.2-0.6,0.3-0.9,0.3c-0.3,0-0.7-0.1-0.9-0.3
		C21.3,145,21.2,144.7,21.2,144.4L21.2,144.4z M25.1,150.7c-0.1-1.1,0.3-2.2,0.9-3.1c0.6-0.8,1.5-1.2,2.4-1.2c0.8,0,1.5,0.3,2,0.9
		V143h2.3v12h-2l-0.1-0.9c-0.5,0.7-1.3,1.1-2.2,1.1c-0.9,0-1.8-0.4-2.4-1.2C25.4,153,25.1,151.9,25.1,150.7L25.1,150.7z M27.4,150.9
		c0,0.6,0.1,1.3,0.4,1.8c0.3,0.4,0.7,0.7,1.2,0.6c0.6,0,1.2-0.3,1.5-0.9v-3.3c-0.3-0.6-0.8-0.9-1.5-0.9
		C27.9,148.2,27.4,149.1,27.4,150.9L27.4,150.9z M38.6,155v-11.4h3.5c0.9,0,1.9,0.2,2.7,0.7c0.8,0.4,1.4,1.1,1.8,1.9
		c0.5,0.9,0.7,1.8,0.7,2.8v0.5c0,1-0.2,1.9-0.7,2.8c-0.4,0.8-1.1,1.5-1.8,1.9c-0.8,0.5-1.7,0.7-2.7,0.7H38.6z M41,145.5v7.6h1.1
		c0.8,0,1.6-0.3,2.1-0.9c0.5-0.7,0.8-1.7,0.7-2.6V149c0.1-0.9-0.2-1.9-0.7-2.6c-0.5-0.6-1.3-0.9-2.1-0.9H41z M53.9,154.1
		c-0.6,0.7-1.4,1.1-2.3,1c-0.8,0.1-1.5-0.2-2.1-0.8c-0.5-0.6-0.8-1.5-0.7-2.3v-5.5h2.3v5.5c0,0.9,0.4,1.3,1.2,1.3
		c0.6,0.1,1.3-0.2,1.6-0.8v-6h2.3v8.5H54L53.9,154.1z M61.7,155.2c-1.1,0-2.2-0.4-3-1.1c-0.8-0.8-1.2-1.9-1.2-3v-0.2
		c0-0.8,0.2-1.6,0.5-2.3c0.3-0.6,0.8-1.2,1.4-1.5c0.6-0.4,1.3-0.6,2.1-0.5c1-0.1,2,0.3,2.7,1.1c0.7,0.9,1.1,2,1,3.1v0.9h-5.4
		c0.1,0.5,0.3,1,0.7,1.3c0.4,0.3,0.9,0.5,1.4,0.5c0.8,0,1.6-0.3,2-0.9l1.1,1.2c-0.4,0.5-0.8,0.9-1.4,1.1
		C63,155,62.4,155.2,61.7,155.2z M61.5,148.2c-0.4,0-0.8,0.2-1.1,0.5c-0.3,0.4-0.5,0.8-0.5,1.3H63v-0.2c0-0.4-0.1-0.8-0.4-1.2
		C62.3,148.3,61.9,148.2,61.5,148.2z M68.6,146.5l0.1,1c0.6-0.7,1.5-1.2,2.4-1.1c0.8-0.1,1.5,0.2,2,0.8c0.5,0.7,0.7,1.5,0.7,2.4v5.5
		h-2.3v-5.4c0-0.4-0.1-0.7-0.3-1c-0.3-0.2-0.7-0.4-1-0.3c-0.6,0-1.1,0.3-1.4,0.8v6h-2.3v-8.5H68.6z M73,143.1c0,0.5-0.2,1.1-0.5,1.5
		c-0.3,0.4-0.8,0.6-1.3,0.6c-0.2,0-0.4,0-0.5-0.1c-0.2-0.1-0.4-0.2-0.6-0.3c-0.2-0.1-0.4-0.2-0.6-0.3c-0.1,0-0.3-0.1-0.4-0.1
		c-0.2,0-0.3,0.1-0.5,0.2c-0.1,0.2-0.2,0.4-0.2,0.6l-1.3-0.1c0-0.5,0.2-1.1,0.5-1.5c0.3-0.4,0.8-0.6,1.3-0.6c0.1,0,0.3,0,0.4,0.1
		c0.2,0.1,0.5,0.2,0.7,0.3c0.2,0.1,0.4,0.2,0.6,0.3c0.1,0,0.2,0,0.4,0c0.2,0,0.3-0.1,0.5-0.2c0.1-0.1,0.2-0.3,0.2-0.6L73,143.1z
		 M75.1,150.7c0-0.8,0.2-1.5,0.5-2.2c0.3-0.6,0.8-1.2,1.4-1.5c0.6-0.4,1.4-0.6,2.1-0.5c1,0,2,0.3,2.8,1c0.7,0.8,1.2,1.8,1.2,2.8
		l0,0.6c0.1,1.1-0.3,2.3-1.1,3.1c-0.8,0.8-1.8,1.2-2.9,1.2c-1.1,0-2.2-0.4-2.9-1.2c-0.8-0.9-1.2-2-1.1-3.2V150.7z M77.4,150.9
		c0,0.6,0.1,1.3,0.4,1.8c0.3,0.4,0.8,0.7,1.3,0.6c0.5,0,1-0.2,1.3-0.6c0.4-0.6,0.5-1.3,0.5-2c0-0.6-0.1-1.3-0.5-1.8
		c-0.3-0.4-0.8-0.7-1.3-0.6c-0.5,0-1,0.2-1.3,0.6C77.5,149.5,77.3,150.2,77.4,150.9L77.4,150.9z"/>
	<path id="Trazado_101114" class="st4" d="M677.6,42h-2.3v-8.5h2.3V42z M675.2,31.4c0-0.3,0.1-0.6,0.3-0.8c0.3-0.2,0.6-0.3,0.9-0.3
		c0.3,0,0.7,0.1,0.9,0.3c0.2,0.2,0.4,0.5,0.3,0.8c0,0.3-0.1,0.6-0.3,0.8c-0.3,0.2-0.6,0.3-0.9,0.3c-0.3,0-0.7-0.1-0.9-0.3
		C675.3,32,675.2,31.7,675.2,31.4L675.2,31.4z M679.1,37.7c-0.1-1.1,0.3-2.2,0.9-3.1c0.6-0.8,1.5-1.2,2.4-1.2c0.8,0,1.5,0.3,2,0.9
		V30h2.3v12h-2l-0.1-0.9c-0.5,0.7-1.3,1.1-2.2,1.1c-0.9,0-1.8-0.4-2.4-1.2C679.4,40,679.1,38.9,679.1,37.7L679.1,37.7z M681.4,37.9
		c0,0.6,0.1,1.3,0.4,1.8c0.3,0.4,0.7,0.7,1.2,0.6c0.6,0,1.2-0.3,1.5-0.9v-3.3c-0.3-0.6-0.8-0.9-1.5-0.9
		C681.9,35.2,681.4,36.1,681.4,37.9L681.4,37.9z M692.6,42V30.6h3.5c0.9,0,1.9,0.2,2.7,0.7c0.8,0.4,1.4,1.1,1.8,1.9
		c0.5,0.9,0.7,1.8,0.7,2.8v0.5c0,1-0.2,1.9-0.7,2.8c-0.4,0.8-1.1,1.5-1.8,1.9c-0.8,0.5-1.7,0.7-2.7,0.7H692.6z M695,32.5v7.6h1.1
		c0.8,0,1.6-0.3,2.1-0.9c0.5-0.7,0.8-1.7,0.7-2.6V36c0.1-0.9-0.2-1.9-0.7-2.6c-0.5-0.6-1.3-0.9-2.1-0.9H695z M707.9,41.1
		c-0.6,0.7-1.4,1.1-2.3,1c-0.8,0.1-1.5-0.2-2.1-0.8c-0.5-0.6-0.8-1.5-0.7-2.3v-5.5h2.3V39c0,0.9,0.4,1.3,1.2,1.3
		c0.6,0.1,1.3-0.2,1.6-0.8v-6h2.3V42H708L707.9,41.1z M715.7,42.2c-1.1,0-2.2-0.4-3-1.1c-0.8-0.8-1.2-1.9-1.2-3v-0.2
		c0-0.8,0.2-1.6,0.5-2.3c0.3-0.6,0.8-1.2,1.4-1.5c0.6-0.4,1.3-0.6,2.1-0.5c1-0.1,2,0.3,2.7,1.1c0.7,0.9,1.1,2,1,3.1v0.9h-5.4
		c0.1,0.5,0.3,1,0.7,1.3c0.4,0.3,0.9,0.5,1.4,0.5c0.8,0,1.6-0.3,2-0.9l1.1,1.2c-0.4,0.5-0.8,0.9-1.4,1.1
		C717,42,716.4,42.2,715.7,42.2z M715.5,35.2c-0.4,0-0.8,0.2-1.1,0.5c-0.3,0.4-0.5,0.8-0.5,1.3h3.1v-0.2c0-0.4-0.1-0.8-0.4-1.2
		C716.3,35.3,715.9,35.2,715.5,35.2z M722.6,33.5l0.1,1c0.6-0.7,1.5-1.2,2.4-1.1c0.8-0.1,1.5,0.2,2,0.8c0.5,0.7,0.7,1.5,0.7,2.4V42
		h-2.3v-5.4c0-0.4-0.1-0.7-0.3-1c-0.3-0.2-0.7-0.4-1-0.3c-0.6,0-1.1,0.3-1.4,0.8v6h-2.3v-8.5H722.6z M727,30.1
		c0,0.5-0.2,1.1-0.5,1.5c-0.3,0.4-0.8,0.6-1.3,0.6c-0.2,0-0.4,0-0.5-0.1c-0.2-0.1-0.4-0.2-0.6-0.3c-0.2-0.1-0.4-0.2-0.6-0.3
		c-0.1,0-0.3-0.1-0.4-0.1c-0.2,0-0.3,0.1-0.5,0.2c-0.1,0.2-0.2,0.4-0.2,0.6l-1.3-0.1c0-0.5,0.2-1.1,0.5-1.5c0.3-0.4,0.8-0.6,1.3-0.6
		c0.1,0,0.3,0,0.4,0.1c0.2,0.1,0.5,0.2,0.7,0.3c0.2,0.1,0.4,0.2,0.6,0.3c0.1,0,0.2,0,0.4,0c0.2,0,0.3-0.1,0.5-0.2
		c0.1-0.1,0.2-0.3,0.2-0.6L727,30.1z M729.1,37.7c0-0.8,0.2-1.5,0.5-2.2c0.3-0.6,0.8-1.2,1.4-1.5c0.6-0.4,1.4-0.6,2.1-0.5
		c1,0,2,0.3,2.8,1c0.7,0.8,1.2,1.8,1.2,2.8l0,0.6c0.1,1.1-0.3,2.3-1.1,3.1c-0.8,0.8-1.8,1.2-2.9,1.2c-1.1,0-2.2-0.4-2.9-1.2
		C729.4,40.1,729,39,729.1,37.7L729.1,37.7z M731.4,37.9c0,0.6,0.1,1.3,0.4,1.8c0.3,0.4,0.8,0.7,1.3,0.6c0.5,0,1-0.2,1.3-0.6
		c0.4-0.6,0.5-1.3,0.5-2c0-0.6-0.1-1.3-0.5-1.8c-0.3-0.4-0.8-0.7-1.3-0.6c-0.5,0-1,0.2-1.3,0.6C731.5,36.5,731.3,37.2,731.4,37.9
		L731.4,37.9z"/>
	<path id="Trazado_101115" class="st4" d="M847.4,42H845l-4.6-7.5V42h-2.3V30.6h2.3l4.6,7.5v-7.5h2.3V42z M848.9,37.7
		c0-0.8,0.2-1.5,0.5-2.2c0.3-0.6,0.8-1.2,1.4-1.5c0.6-0.4,1.4-0.6,2.1-0.5c1,0,2,0.3,2.8,1c0.7,0.8,1.2,1.8,1.2,2.8l0,0.6
		c0.1,1.1-0.3,2.3-1.1,3.1c-0.8,0.8-1.8,1.2-2.9,1.2c-1.1,0-2.2-0.4-2.9-1.2C849.3,40.1,848.9,39,848.9,37.7L848.9,37.7z
		 M851.2,37.9c0,0.6,0.1,1.3,0.5,1.8c0.3,0.4,0.8,0.7,1.3,0.6c0.5,0,1-0.2,1.3-0.6c0.4-0.6,0.5-1.3,0.5-2c0-0.6-0.1-1.3-0.5-1.8
		c-0.3-0.4-0.8-0.7-1.3-0.6c-0.5,0-1,0.2-1.3,0.6C851.3,36.5,851.1,37.2,851.2,37.9L851.2,37.9z M860.4,33.6l0.1,0.9
		c0.6-0.7,1.5-1.1,2.4-1.1c0.9-0.1,1.8,0.4,2.2,1.3c0.6-0.8,1.5-1.3,2.5-1.3c0.8-0.1,1.5,0.2,2,0.8c0.5,0.7,0.7,1.6,0.7,2.4V42h-2.3
		v-5.4c0-0.4-0.1-0.7-0.3-1.1c-0.3-0.3-0.6-0.4-1-0.3c-0.6,0-1.2,0.4-1.4,1l0,5.8h-2.3v-5.4c0-0.4-0.1-0.8-0.3-1.1
		c-0.3-0.2-0.6-0.4-1-0.3c-0.6,0-1.1,0.3-1.4,0.8v6h-2.3v-8.5L860.4,33.6z M879.8,37.9c0.1,1.1-0.2,2.2-0.9,3.2
		c-0.6,0.8-1.5,1.2-2.4,1.1c-0.9,0-1.7-0.4-2.2-1.1l-0.1,0.9h-2V30h2.3v4.3c0.5-0.6,1.3-0.9,2.1-0.9c0.9,0,1.9,0.4,2.4,1.1
		c0.6,0.9,0.9,2.1,0.9,3.2L879.8,37.9z M877.5,37.7c0-0.7-0.1-1.3-0.4-1.9c-0.3-0.4-0.7-0.6-1.2-0.6c-0.6-0.1-1.2,0.3-1.5,0.9v3.3
		c0.3,0.6,0.9,0.9,1.5,0.9c0.7,0,1.3-0.4,1.4-1.1C877.5,38.7,877.6,38.2,877.5,37.7z M885.9,35.7c-0.3,0-0.5-0.1-0.8-0.1
		c-0.7-0.1-1.4,0.3-1.7,0.9V42h-2.3v-8.5h2.1l0.1,1c0.4-0.7,1.1-1.2,1.9-1.2c0.2,0,0.5,0,0.7,0.1L885.9,35.7z M890.8,42.2
		c-1.1,0-2.2-0.4-3-1.1c-0.8-0.8-1.2-1.9-1.2-3v-0.2c0-0.8,0.2-1.6,0.5-2.3c0.3-0.6,0.8-1.2,1.4-1.5c0.6-0.4,1.3-0.6,2.1-0.5
		c1-0.1,2,0.3,2.7,1.1c0.7,0.9,1.1,2,1,3.1v0.9h-5.4c0.1,0.5,0.3,1,0.7,1.3c0.4,0.3,0.9,0.5,1.4,0.5c0.8,0,1.6-0.3,2-0.9l1.1,1.2
		c-0.4,0.5-0.8,0.9-1.4,1.1C892.1,42,891.4,42.2,890.8,42.2z M890.5,35.2c-0.4,0-0.8,0.2-1.1,0.5c-0.3,0.4-0.5,0.8-0.5,1.3h3.1v-0.2
		c0-0.4-0.1-0.8-0.4-1.2C891.3,35.3,890.9,35.2,890.5,35.2z M900.1,39.7c0-0.3-0.2-0.5-0.4-0.7c-0.4-0.2-0.9-0.4-1.3-0.4
		c-2-0.4-3-1.3-3-2.6c0-0.7,0.3-1.4,0.9-1.9c0.7-0.5,1.6-0.8,2.4-0.8c0.9,0,1.8,0.2,2.6,0.8c0.6,0.5,1,1.2,1,2H900
		c0-0.3-0.1-0.6-0.3-0.8c-0.3-0.2-0.6-0.3-1-0.3c-0.3,0-0.6,0.1-0.9,0.3c-0.2,0.2-0.3,0.4-0.3,0.7c0,0.3,0.1,0.5,0.4,0.6
		c0.4,0.2,0.8,0.3,1.2,0.4c0.5,0.1,1,0.2,1.4,0.4c1.1,0.3,1.8,1.2,1.8,2.3c0,0.8-0.4,1.5-1,1.9c-0.8,0.5-1.7,0.8-2.6,0.7
		c-0.6,0-1.3-0.1-1.9-0.4c-0.5-0.2-1-0.6-1.3-1c-0.3-0.4-0.5-0.9-0.5-1.4h2.1c0,0.4,0.2,0.7,0.4,0.9c0.3,0.2,0.7,0.3,1.1,0.3
		c0.3,0,0.7-0.1,1-0.2C900,40.2,900.1,39.9,900.1,39.7z"/>
	<path id="Trazado_101118" class="st4" d="M643.4,265h-2.3v-11.4h2.3V265z M645.1,260.7c-0.1-1.1,0.3-2.2,0.9-3.1
		c0.6-0.8,1.5-1.2,2.4-1.2c0.8,0,1.5,0.3,2,0.9V253h2.3v12h-2l-0.1-0.9c-0.5,0.7-1.3,1.1-2.2,1.1c-0.9,0-1.8-0.4-2.4-1.2
		C645.3,263,645,261.9,645.1,260.7z M647.3,260.9c0,0.6,0.1,1.3,0.4,1.8c0.3,0.4,0.7,0.7,1.2,0.6c0.6,0,1.2-0.3,1.5-0.9v-3.3
		c-0.3-0.6-0.8-0.9-1.5-0.9C647.9,258.2,647.3,259.1,647.3,260.9z M658.3,265.2c-1.1,0-2.2-0.4-3-1.1c-0.8-0.8-1.2-1.9-1.2-3v-0.2
		c0-0.8,0.2-1.6,0.5-2.3c0.3-0.6,0.8-1.2,1.4-1.5c0.6-0.4,1.3-0.6,2.1-0.5c1-0.1,2,0.3,2.7,1.1c0.7,0.9,1.1,2,1,3.1v0.9h-5.4
		c0.1,0.5,0.3,1,0.7,1.3c0.4,0.3,0.9,0.5,1.4,0.5c0.8,0,1.6-0.3,2-0.9l1.1,1.2c-0.4,0.5-0.8,0.9-1.4,1.1
		C659.7,265,659,265.2,658.3,265.2L658.3,265.2z M658.1,258.2c-0.4,0-0.8,0.2-1.1,0.5c-0.3,0.4-0.5,0.8-0.5,1.3h3.1v-0.2
		c0-0.4-0.1-0.8-0.4-1.2C658.9,258.3,658.5,258.2,658.1,258.2L658.1,258.2z M665.2,256.5l0.1,1c0.6-0.7,1.5-1.2,2.4-1.1
		c0.8-0.1,1.5,0.2,2,0.8c0.5,0.7,0.7,1.5,0.7,2.4v5.5h-2.3v-5.4c0-0.4-0.1-0.7-0.3-1c-0.3-0.2-0.7-0.4-1-0.3c-0.6,0-1.1,0.3-1.4,0.8
		v6h-2.3v-8.5L665.2,256.5z M674.8,254.5v2.1h1.4v1.7h-1.4v4.2c0,0.2,0,0.5,0.2,0.7c0.2,0.2,0.4,0.2,0.7,0.2c0.2,0,0.4,0,0.7-0.1
		v1.7c-0.4,0.1-0.9,0.2-1.4,0.2c-1.2,0.2-2.3-0.7-2.4-1.9c0-0.2,0-0.4,0-0.5v-4.6h-1.2v-1.7h1.2v-2.1L674.8,254.5z M679.9,265h-2.3
		v-8.5h2.3V265z M677.5,254.4c0-0.3,0.1-0.6,0.3-0.8c0.3-0.2,0.6-0.3,0.9-0.3c0.3,0,0.7,0.1,0.9,0.3c0.2,0.2,0.4,0.5,0.3,0.8
		c0,0.3-0.1,0.6-0.3,0.8c-0.3,0.2-0.6,0.3-0.9,0.3c-0.3,0-0.7-0.1-0.9-0.3C677.6,255,677.4,254.7,677.5,254.4L677.5,254.4z
		 M682.3,265v-6.8H681v-1.7h1.3v-0.4c0-0.9,0.3-1.8,1-2.5c0.8-0.6,1.7-0.9,2.7-0.9c0.9,0,1.7,0.2,2.6,0.5l-0.3,1.9
		c-0.4-0.1-0.8-0.2-1.2-0.3c-0.3,0-0.6-0.1-0.9-0.1c-1.1,0-1.6,0.5-1.6,1.4v0.3h1.7v1.7h-1.7v6.8H682.3z M689.6,265h-2.3v-8.5h2.3
		V265z M695,263.3c0.4,0,0.7-0.1,1-0.3c0.3-0.2,0.4-0.6,0.4-0.9h2.1c0,0.6-0.2,1.1-0.5,1.6c-0.3,0.5-0.7,0.9-1.3,1.1
		c-0.6,0.3-1.2,0.4-1.8,0.4c-1.1,0.1-2.1-0.4-2.9-1.2c-0.7-0.9-1.1-2-1-3.2v-0.1c-0.1-1.1,0.3-2.2,1-3.1c0.7-0.8,1.8-1.2,2.9-1.2
		c0.9,0,1.8,0.3,2.5,0.9c0.7,0.6,1,1.5,1,2.4h-2.1c0-0.4-0.1-0.8-0.4-1.1c-0.3-0.3-0.6-0.4-1-0.4c-0.5,0-0.9,0.2-1.2,0.6
		c-0.3,0.6-0.5,1.2-0.4,1.9v0.2c-0.1,0.7,0.1,1.3,0.4,1.9C694,263.2,694.5,263.4,695,263.3z M704.7,265c-0.1-0.2-0.2-0.5-0.2-0.8
		c-0.5,0.6-1.3,0.9-2.1,0.9c-0.8,0-1.5-0.2-2.1-0.7c-0.5-0.5-0.8-1.1-0.8-1.8c0-0.8,0.3-1.6,1-2.1c0.9-0.5,1.9-0.8,2.9-0.7h1v-0.5
		c0-0.3-0.1-0.7-0.3-0.9c-0.2-0.3-0.6-0.4-0.9-0.4c-0.3,0-0.6,0.1-0.9,0.3c-0.2,0.2-0.3,0.5-0.3,0.8h-2.3c0-0.5,0.2-1,0.5-1.4
		c0.3-0.4,0.8-0.8,1.3-1c0.6-0.2,1.2-0.4,1.9-0.4c0.9,0,1.8,0.2,2.5,0.8c0.6,0.6,1,1.4,0.9,2.2v3.7c0,0.6,0.1,1.2,0.3,1.8v0.1H704.7
		z M702.8,263.4c0.3,0,0.6-0.1,0.9-0.2c0.3-0.1,0.5-0.3,0.6-0.6v-1.5h-0.8c-1.1,0-1.7,0.4-1.8,1.2l0,0.1c0,0.3,0.1,0.5,0.3,0.7
		C702.2,263.3,702.5,263.4,702.8,263.4z M711.9,263.3c0.4,0,0.7-0.1,1-0.3c0.3-0.2,0.4-0.6,0.4-0.9h2.1c0,0.6-0.2,1.1-0.5,1.6
		c-0.3,0.5-0.7,0.9-1.3,1.1c-0.6,0.3-1.2,0.4-1.8,0.4c-1.1,0.1-2.1-0.4-2.9-1.2c-0.7-0.9-1.1-2-1-3.2v-0.1c-0.1-1.1,0.3-2.2,1-3.1
		c0.7-0.8,1.8-1.2,2.9-1.2c0.9,0,1.8,0.3,2.5,0.9c0.6,0.6,1,1.5,1,2.4h-2.1c0-0.4-0.1-0.8-0.4-1.1c-0.3-0.3-0.6-0.4-1-0.4
		c-0.5,0-0.9,0.2-1.2,0.6c-0.3,0.6-0.5,1.2-0.4,1.9v0.2c-0.1,0.7,0.1,1.3,0.4,1.9C711,263.2,711.4,263.4,711.9,263.3z M719.1,265
		h-2.3v-8.5h2.3V265z M716.7,254.4c0-0.3,0.1-0.6,0.3-0.8c0.3-0.2,0.6-0.3,0.9-0.3c0.3,0,0.7,0.1,0.9,0.3c0.2,0.2,0.4,0.5,0.3,0.8
		c0,0.3-0.1,0.6-0.3,0.8c-0.3,0.2-0.6,0.3-0.9,0.3c-0.3,0-0.7-0.1-0.9-0.3C716.8,255,716.7,254.7,716.7,254.4z M720.6,260.7
		c0-0.8,0.2-1.5,0.5-2.2c0.3-0.6,0.8-1.2,1.4-1.5c0.6-0.4,1.4-0.6,2.1-0.5c1,0,2,0.3,2.8,1c0.7,0.8,1.2,1.8,1.2,2.8l0,0.6
		c0.1,1.1-0.3,2.3-1.1,3.1c-0.8,0.8-1.8,1.2-2.9,1.2c-1.1,0-2.2-0.4-2.9-1.2C720.9,263.1,720.5,262,720.6,260.7L720.6,260.7z
		 M722.9,260.9c0,0.6,0.1,1.3,0.5,1.8c0.3,0.4,0.8,0.7,1.3,0.6c0.5,0,1-0.2,1.3-0.6c0.4-0.6,0.5-1.3,0.5-2c0-0.6-0.1-1.3-0.5-1.8
		c-0.3-0.4-0.8-0.7-1.3-0.6c-0.5,0-1,0.2-1.3,0.6C723,259.5,722.8,260.2,722.9,260.9L722.9,260.9z M725,253h2.5l-2.2,2.4h-1.8
		L725,253z M732.1,256.5l0.1,1c0.6-0.7,1.5-1.2,2.4-1.1c0.8-0.1,1.5,0.2,2,0.8c0.5,0.7,0.7,1.5,0.7,2.4v5.5H735v-5.4
		c0-0.4-0.1-0.7-0.3-1c-0.3-0.2-0.7-0.4-1-0.3c-0.6,0-1.1,0.3-1.4,0.8v6H730v-8.5H732.1z"/>
	<path id="Trazado_101117" class="st4" d="M843.9,262.7h-4.1L839,265h-2.5l4.2-11.4h2.2l4.3,11.4h-2.5L843.9,262.7z M840.4,260.8
		h2.8l-1.4-4.3L840.4,260.8z M855.3,260.9c0.1,1.1-0.3,2.2-0.9,3.1c-0.6,0.8-1.4,1.2-2.4,1.2c-0.8,0-1.5-0.3-2.1-0.9v4h-2.3v-11.7
		h2.1l0.1,0.8c0.5-0.6,1.3-1,2.1-1c1,0,1.9,0.4,2.4,1.2c0.6,0.9,0.9,2.1,0.9,3.2L855.3,260.9z M853.1,260.7c0-0.6-0.1-1.3-0.4-1.8
		c-0.3-0.4-0.7-0.7-1.2-0.6c-0.6-0.1-1.2,0.3-1.5,0.8v3.5c0.3,0.6,0.9,0.9,1.5,0.8C852.5,263.3,853.1,262.5,853.1,260.7L853.1,260.7
		z M860.6,265.2c-1.1,0-2.2-0.4-3-1.1c-0.8-0.8-1.2-1.9-1.2-3v-0.2c0-0.8,0.2-1.6,0.5-2.3c0.3-0.6,0.8-1.2,1.4-1.5
		c0.6-0.4,1.3-0.6,2.1-0.5c1-0.1,2,0.3,2.7,1.1c0.7,0.9,1.1,2,1,3.1v0.9h-5.4c0.1,0.5,0.3,1,0.7,1.3c0.4,0.3,0.9,0.5,1.4,0.5
		c0.8,0,1.6-0.3,2-0.9l1.1,1.2c-0.4,0.5-0.8,0.9-1.4,1.1C861.9,265,861.3,265.2,860.6,265.2z M860.4,258.2c-0.4,0-0.8,0.2-1.1,0.5
		c-0.3,0.4-0.5,0.8-0.5,1.3h3.1v-0.2c0-0.4-0.1-0.8-0.4-1.2C861.2,258.3,860.8,258.2,860.4,258.2z M867.8,265h-2.3v-12h2.3V265z
		 M872,265h-2.3v-12h2.3V265z M876.2,265H874v-8.5h2.3V265z M873.8,254.4c0-0.3,0.1-0.6,0.3-0.8c0.3-0.2,0.6-0.3,0.9-0.3
		c0.3,0,0.7,0.1,0.9,0.3c0.2,0.2,0.4,0.5,0.3,0.8c0,0.3-0.1,0.6-0.3,0.8c-0.3,0.2-0.6,0.3-0.9,0.3c-0.3,0-0.7-0.1-0.9-0.3
		C874,255,873.8,254.7,873.8,254.4L873.8,254.4z M877.8,260.7c-0.1-1.1,0.3-2.2,0.9-3.1c0.6-0.8,1.5-1.2,2.4-1.2
		c0.8,0,1.5,0.3,2,0.9V253h2.3v12h-2l-0.1-0.9c-0.5,0.7-1.3,1.1-2.2,1.1c-0.9,0-1.8-0.4-2.4-1.2C878,263,877.7,261.9,877.8,260.7z
		 M880,260.9c0,0.6,0.1,1.3,0.4,1.8c0.3,0.4,0.7,0.7,1.2,0.6c0.6,0,1.2-0.3,1.5-0.9v-3.3c-0.3-0.6-0.8-0.9-1.5-0.9
		C880.6,258.2,880,259.1,880,260.9z M886.8,260.7c0-0.8,0.2-1.5,0.5-2.2c0.3-0.6,0.8-1.2,1.4-1.5c0.6-0.4,1.4-0.6,2.1-0.5
		c1,0,2,0.3,2.8,1c0.7,0.8,1.2,1.8,1.2,2.8l0,0.6c0.1,1.1-0.3,2.3-1.1,3.1c-0.8,0.8-1.8,1.2-2.9,1.2c-1.1,0-2.2-0.4-2.9-1.2
		C887.1,263.1,886.7,262,886.8,260.7L886.8,260.7z M889,260.9c0,0.6,0.1,1.3,0.5,1.8c0.3,0.4,0.8,0.7,1.3,0.6c0.5,0,1-0.2,1.3-0.6
		c0.4-0.6,0.5-1.3,0.5-2c0-0.6-0.1-1.3-0.5-1.8c-0.3-0.4-0.8-0.7-1.3-0.6c-0.5,0-1,0.2-1.3,0.6C889.1,259.5,889,260.2,889,260.9
		L889,260.9z M900.8,262.7c0-0.3-0.2-0.5-0.4-0.7c-0.4-0.2-0.9-0.4-1.3-0.4c-2-0.4-3-1.3-3-2.6c0-0.7,0.3-1.4,0.9-1.9
		c0.7-0.5,1.6-0.8,2.4-0.8c0.9,0,1.8,0.2,2.6,0.8c0.6,0.5,1,1.2,1,2h-2.3c0-0.3-0.1-0.6-0.3-0.8c-0.3-0.2-0.6-0.3-1-0.3
		c-0.3,0-0.6,0.1-0.9,0.3c-0.2,0.2-0.3,0.4-0.3,0.7c0,0.3,0.1,0.5,0.4,0.6c0.4,0.2,0.8,0.3,1.2,0.4c0.5,0.1,1,0.2,1.4,0.4
		c1,0.3,1.8,1.2,1.8,2.3c0,0.8-0.4,1.5-1,1.9c-0.8,0.5-1.7,0.8-2.6,0.7c-0.7,0-1.3-0.1-1.9-0.4c-0.5-0.2-1-0.6-1.3-1
		c-0.3-0.4-0.5-0.9-0.5-1.4h2.1c0,0.4,0.2,0.7,0.4,0.9c0.3,0.2,0.7,0.3,1.1,0.3c0.3,0,0.7-0.1,1-0.2
		C900.6,263.2,900.8,262.9,900.8,262.7z"/>
	<path id="Trazado_101124" class="st4" d="M108.6,256h-2.3l-4.6-7.5v7.5h-2.3v-11.4h2.3l4.6,7.5v-7.5h2.3V256z M115.6,255.1
		c-0.6,0.7-1.4,1.1-2.3,1c-0.8,0.1-1.5-0.2-2.1-0.8c-0.5-0.6-0.8-1.5-0.7-2.3v-5.5h2.3v5.5c0,0.9,0.4,1.3,1.2,1.3
		c0.6,0.1,1.3-0.2,1.6-0.8v-6h2.3v8.5h-2.1L115.6,255.1z M114.5,244h2.5l-2.2,2.4H113L114.5,244z M121.6,247.5l0.1,0.9
		c0.6-0.7,1.5-1.1,2.4-1.1c0.9-0.1,1.8,0.4,2.2,1.3c0.6-0.8,1.5-1.3,2.5-1.3c0.8-0.1,1.5,0.2,2,0.8c0.5,0.7,0.7,1.6,0.7,2.4v5.4
		h-2.3v-5.4c0-0.4-0.1-0.7-0.3-1.1c-0.3-0.3-0.6-0.4-1-0.3c-0.6,0-1.2,0.4-1.4,1l0,5.8h-2.3v-5.4c0-0.4-0.1-0.8-0.3-1.1
		c-0.3-0.2-0.6-0.4-1-0.3c-0.6,0-1.1,0.3-1.4,0.8v6h-2.3v-8.5H121.6z M137.2,256.2c-1.1,0-2.2-0.4-3-1.1c-0.8-0.8-1.2-1.9-1.2-3
		v-0.2c0-0.8,0.2-1.6,0.5-2.3c0.3-0.6,0.8-1.2,1.4-1.5c0.6-0.4,1.3-0.6,2.1-0.5c1-0.1,2,0.3,2.7,1.1c0.7,0.9,1.1,2,1,3.1v0.9h-5.4
		c0.1,0.5,0.3,1,0.7,1.3c0.4,0.3,0.9,0.5,1.4,0.5c0.8,0,1.6-0.3,2-0.9l1.1,1.2c-0.4,0.5-0.8,0.9-1.4,1.1
		C138.5,256,137.8,256.2,137.2,256.2z M136.9,249.2c-0.4,0-0.8,0.2-1.1,0.5c-0.3,0.4-0.5,0.8-0.5,1.3h3.1v-0.2
		c0-0.4-0.1-0.8-0.4-1.2C137.7,249.3,137.3,249.2,136.9,249.2z M146.7,249.7c-0.3,0-0.5-0.1-0.8-0.1c-0.7-0.1-1.4,0.3-1.7,0.9v5.5
		h-2.3v-8.5h2.1l0.1,1c0.4-0.7,1.1-1.2,1.9-1.2c0.2,0,0.5,0,0.7,0.1L146.7,249.7z M147.1,251.7c0-0.8,0.2-1.5,0.5-2.2
		c0.3-0.6,0.8-1.2,1.4-1.5c0.6-0.4,1.4-0.6,2.1-0.5c1,0,2,0.3,2.8,1c0.7,0.8,1.2,1.8,1.2,2.8l0,0.6c0.1,1.1-0.3,2.3-1.1,3.1
		c-0.8,0.8-1.8,1.2-2.9,1.2c-1.1,0-2.2-0.4-2.9-1.2c-0.8-0.9-1.2-2-1.1-3.2V251.7z M149.4,251.9c0,0.6,0.1,1.3,0.5,1.8
		c0.3,0.4,0.8,0.7,1.3,0.6c0.5,0,1-0.2,1.3-0.6c0.4-0.6,0.5-1.3,0.5-2c0-0.6-0.1-1.3-0.5-1.8c-0.3-0.4-0.8-0.7-1.3-0.6
		c-0.5,0-1,0.2-1.3,0.6C149.5,250.5,149.4,251.2,149.4,251.9L149.4,251.9z M94.3,269.7c-0.1-1.1,0.3-2.2,0.9-3.1
		c0.6-0.8,1.5-1.2,2.4-1.2c0.8,0,1.5,0.3,2,0.9V262h2.3v12h-2l-0.1-0.9c-0.5,0.7-1.3,1.1-2.2,1.1c-0.9,0-1.8-0.4-2.4-1.2
		C94.6,272,94.3,270.9,94.3,269.7z M96.6,269.9c0,0.6,0.1,1.3,0.4,1.8c0.3,0.4,0.7,0.7,1.2,0.6c0.6,0,1.2-0.3,1.5-0.9v-3.4
		c-0.3-0.6-0.8-0.9-1.5-0.9C97.1,267.2,96.6,268.1,96.6,269.9z M107.6,274.2c-1.1,0-2.2-0.4-3-1.1c-0.8-0.8-1.2-1.9-1.2-3v-0.2
		c0-0.8,0.2-1.6,0.5-2.3c0.3-0.6,0.8-1.2,1.4-1.5c0.6-0.4,1.3-0.6,2.1-0.5c1-0.1,2,0.3,2.7,1.1c0.7,0.9,1.1,2,1,3.1v0.9h-5.4
		c0.1,0.5,0.3,1,0.7,1.3c0.4,0.3,0.9,0.5,1.4,0.5c0.8,0,1.6-0.3,2-0.9l1.1,1.2c-0.4,0.5-0.8,0.9-1.4,1.1
		C108.9,274,108.3,274.2,107.6,274.2L107.6,274.2z M107.3,267.2c-0.4,0-0.8,0.2-1.1,0.5c-0.3,0.4-0.5,0.8-0.5,1.3h3.1v-0.2
		c0-0.4-0.1-0.8-0.4-1.2C108.2,267.3,107.7,267.2,107.3,267.2L107.3,267.2z M118.8,270v4h-2.3v-11.4h4.4c0.8,0,1.5,0.1,2.3,0.5
		c0.6,0.3,1.1,0.7,1.5,1.3c0.4,0.6,0.5,1.3,0.5,2c0,1-0.4,2-1.1,2.6c-0.9,0.7-2,1-3.2,1H118.8z M118.8,268.1h2.1
		c0.5,0,1-0.1,1.4-0.4c0.3-0.3,0.5-0.8,0.5-1.2c0-0.5-0.2-1-0.5-1.4c-0.4-0.4-0.9-0.5-1.4-0.5h-2.1L118.8,268.1z M129,274h-2.3v-12
		h2.3V274z M135.8,274c-0.1-0.2-0.2-0.5-0.2-0.8c-0.5,0.6-1.3,0.9-2.1,0.9c-0.8,0-1.5-0.2-2.1-0.7c-0.5-0.5-0.8-1.1-0.8-1.8
		c0-0.8,0.3-1.6,1-2.1c0.9-0.5,1.9-0.8,2.9-0.7h1v-0.5c0-0.3-0.1-0.7-0.3-0.9c-0.2-0.3-0.6-0.4-0.9-0.4c-0.3,0-0.6,0.1-0.9,0.3
		c-0.2,0.2-0.3,0.5-0.3,0.8h-2.3c0-0.5,0.2-1,0.4-1.4c0.3-0.4,0.8-0.8,1.3-1c0.6-0.2,1.2-0.4,1.9-0.4c0.9,0,1.8,0.2,2.5,0.8
		c0.6,0.6,1,1.4,0.9,2.2v3.7c0,0.6,0.1,1.2,0.3,1.8v0.1H135.8z M133.9,272.4c0.3,0,0.6-0.1,0.9-0.2c0.3-0.1,0.5-0.3,0.6-0.6v-1.5
		h-0.8c-1.1,0-1.7,0.4-1.8,1.2l0,0.1c0,0.3,0.1,0.5,0.3,0.7C133.3,272.3,133.6,272.4,133.9,272.4z M143,272.3c0.4,0,0.7-0.1,1-0.3
		c0.3-0.2,0.4-0.6,0.4-0.9h2.1c0,0.6-0.2,1.1-0.5,1.6c-0.3,0.5-0.7,0.9-1.3,1.1c-0.6,0.3-1.2,0.4-1.8,0.4c-1.1,0.1-2.1-0.4-2.9-1.2
		c-0.7-0.9-1.1-2-1-3.2v-0.1c-0.1-1.1,0.3-2.2,1-3.1c0.7-0.8,1.8-1.2,2.9-1.2c0.9,0,1.8,0.3,2.5,0.9c0.6,0.6,1,1.5,1,2.4h-2.1
		c0-0.4-0.1-0.8-0.4-1.1c-0.6-0.6-1.6-0.5-2.1,0.1c0,0-0.1,0.1-0.1,0.1c-0.3,0.6-0.5,1.2-0.4,1.9v0.2c-0.1,0.7,0.1,1.3,0.4,1.9
		C142.1,272.1,142.5,272.4,143,272.3L143,272.3z M152.7,274c-0.1-0.2-0.2-0.5-0.2-0.8c-0.5,0.6-1.3,0.9-2.1,0.9
		c-0.8,0-1.5-0.2-2.1-0.7c-0.5-0.5-0.8-1.1-0.8-1.8c0-0.8,0.3-1.6,1-2.1c0.9-0.5,1.9-0.8,2.9-0.7h1v-0.5c0-0.3-0.1-0.7-0.3-0.9
		c-0.2-0.3-0.6-0.4-0.9-0.4c-0.3,0-0.6,0.1-0.9,0.3c-0.2,0.2-0.3,0.5-0.3,0.8h-2.3c0-0.5,0.2-1,0.5-1.4c0.3-0.4,0.8-0.8,1.3-1
		c0.6-0.2,1.2-0.4,1.9-0.4c0.9,0,1.8,0.2,2.5,0.8c0.6,0.6,1,1.4,0.9,2.2v3.7c0,0.6,0.1,1.2,0.3,1.8v0.1H152.7z M150.9,272.4
		c0.3,0,0.6-0.1,0.9-0.2c0.3-0.1,0.5-0.3,0.6-0.6v-1.5h-0.8c-1.1,0-1.7,0.4-1.8,1.2l0,0.1c0,0.3,0.1,0.5,0.3,0.7
		C150.3,272.3,150.6,272.4,150.9,272.4z M156.5,272.9c0-0.3,0.1-0.7,0.4-0.9c0.5-0.4,1.3-0.4,1.8,0c0.2,0.2,0.4,0.5,0.4,0.9
		c0,0.3-0.1,0.6-0.4,0.9c-0.5,0.4-1.3,0.4-1.8,0C156.6,273.5,156.5,273.2,156.5,272.9z"/>
	<path id="Trazado_101125" class="st4" d="M273.6,256h-2.3l-4.6-7.5v7.5h-2.3v-11.4h2.3l4.6,7.5v-7.5h2.3V256z M280.6,255.1
		c-0.6,0.7-1.4,1.1-2.3,1c-0.8,0.1-1.5-0.2-2.1-0.8c-0.5-0.6-0.8-1.5-0.7-2.3v-5.5h2.3v5.5c0,0.9,0.4,1.3,1.2,1.3
		c0.6,0.1,1.3-0.2,1.6-0.8v-6h2.3v8.5h-2.1L280.6,255.1z M279.5,244h2.5l-2.2,2.4H278L279.5,244z M286.6,247.5l0.1,0.9
		c0.6-0.7,1.5-1.1,2.4-1.1c0.9-0.1,1.8,0.4,2.2,1.3c0.6-0.8,1.5-1.3,2.5-1.3c0.8-0.1,1.5,0.2,2,0.8c0.5,0.7,0.7,1.6,0.7,2.4v5.4
		h-2.3v-5.4c0-0.4-0.1-0.7-0.3-1.1c-0.3-0.3-0.6-0.4-1-0.3c-0.6,0-1.2,0.4-1.4,1l0,5.8h-2.3v-5.4c0-0.4-0.1-0.8-0.3-1.1
		c-0.3-0.2-0.6-0.4-1-0.3c-0.6,0-1.1,0.3-1.4,0.8v6h-2.3v-8.5H286.6z M302.2,256.2c-1.1,0-2.2-0.4-3-1.1c-0.8-0.8-1.2-1.9-1.2-3
		v-0.2c0-0.8,0.2-1.6,0.5-2.3c0.3-0.6,0.8-1.2,1.4-1.5c0.6-0.4,1.3-0.6,2.1-0.5c1-0.1,2,0.3,2.7,1.1c0.7,0.9,1.1,2,1,3.1v0.9h-5.4
		c0.1,0.5,0.3,1,0.7,1.3c0.4,0.3,0.9,0.5,1.4,0.5c0.8,0,1.6-0.3,2-0.9l1.1,1.2c-0.4,0.5-0.8,0.9-1.4,1.1
		C303.5,256,302.8,256.2,302.2,256.2z M301.9,249.2c-0.4,0-0.8,0.2-1.1,0.5c-0.3,0.4-0.5,0.8-0.5,1.3h3.1v-0.2
		c0-0.4-0.1-0.8-0.4-1.2C302.7,249.3,302.3,249.2,301.9,249.2z M311.7,249.7c-0.3,0-0.5-0.1-0.8-0.1c-0.7-0.1-1.4,0.3-1.7,0.9v5.5
		h-2.3v-8.5h2.1l0.1,1c0.4-0.7,1.1-1.2,1.9-1.2c0.2,0,0.5,0,0.7,0.1L311.7,249.7z M312.1,251.7c0-0.8,0.2-1.5,0.5-2.2
		c0.3-0.6,0.8-1.2,1.4-1.5c0.6-0.4,1.4-0.6,2.1-0.5c1,0,2,0.3,2.8,1c0.7,0.8,1.2,1.8,1.2,2.8l0,0.6c0.1,1.1-0.3,2.3-1.1,3.1
		c-0.8,0.8-1.8,1.2-2.9,1.2c-1.1,0-2.2-0.4-2.9-1.2c-0.8-0.9-1.2-2-1.1-3.2V251.7z M314.4,251.9c0,0.6,0.1,1.3,0.5,1.8
		c0.3,0.4,0.8,0.7,1.3,0.6c0.5,0,1-0.2,1.3-0.6c0.4-0.6,0.5-1.3,0.5-2c0-0.6-0.1-1.3-0.5-1.8c-0.3-0.4-0.8-0.7-1.3-0.6
		c-0.5,0-1,0.2-1.3,0.6C314.5,250.5,314.4,251.2,314.4,251.9L314.4,251.9z M255,269.7c-0.1-1.1,0.3-2.2,0.9-3.1
		c0.6-0.8,1.5-1.2,2.4-1.2c0.8,0,1.5,0.3,2,0.9V262h2.3v12h-2l-0.1-0.9c-0.5,0.7-1.3,1.1-2.2,1.1c-0.9,0-1.8-0.4-2.4-1.2
		C255.3,272,255,270.9,255,269.7z M257.3,269.9c0,0.6,0.1,1.3,0.4,1.8c0.3,0.4,0.7,0.7,1.2,0.6c0.6,0,1.2-0.3,1.5-0.9v-3.4
		c-0.3-0.6-0.8-0.9-1.5-0.9C257.8,267.2,257.3,268.1,257.3,269.9L257.3,269.9z M268.3,274.2c-1.1,0-2.2-0.4-3-1.1
		c-0.8-0.8-1.2-1.9-1.2-3v-0.2c0-0.8,0.2-1.6,0.5-2.3c0.3-0.6,0.8-1.2,1.4-1.5c0.6-0.4,1.3-0.6,2.1-0.5c1-0.1,2,0.3,2.7,1.1
		c0.7,0.9,1.1,2,1,3.1v0.9h-5.4c0.1,0.5,0.3,1,0.7,1.3c0.4,0.3,0.9,0.5,1.4,0.5c0.8,0,1.6-0.3,2-0.9l1.1,1.2
		c-0.4,0.5-0.8,0.9-1.4,1.1C269.6,274,268.9,274.2,268.3,274.2L268.3,274.2z M268,267.2c-0.4,0-0.8,0.2-1.1,0.5
		c-0.3,0.4-0.5,0.8-0.5,1.3h3.1v-0.2c0-0.4-0.1-0.8-0.4-1.2C268.8,267.3,268.4,267.2,268,267.2L268,267.2z M286.1,270.2
		c0,1.1-0.5,2.2-1.4,2.9c-0.9,0.7-2.1,1.1-3.2,1.1c-1.3,0.1-2.6-0.5-3.4-1.5c-0.9-1.2-1.3-2.6-1.3-4v-0.7c0-1,0.2-2,0.6-2.9
		c0.3-0.8,0.9-1.5,1.7-1.9c0.8-0.5,1.6-0.7,2.5-0.7c1.2-0.1,2.3,0.3,3.2,1.1c0.8,0.8,1.3,1.8,1.4,3h-2.3c0-0.6-0.2-1.2-0.6-1.6
		c-0.5-0.4-1-0.5-1.6-0.5c-0.7,0-1.4,0.3-1.8,0.8c-0.4,0.8-0.7,1.7-0.6,2.6v0.9c-0.1,0.9,0.1,1.9,0.6,2.7c0.4,0.6,1.1,0.9,1.8,0.9
		c0.6,0,1.2-0.1,1.6-0.5c0.4-0.4,0.6-1,0.6-1.5L286.1,270.2z M289.7,266.5c0.5-0.7,1.4-1.1,2.3-1.1c1.8,0,2.8,1.1,2.8,3.2v5.4h-2.3
		v-5.4c0-0.4-0.1-0.8-0.3-1.1c-0.3-0.3-0.7-0.4-1-0.3c-0.6,0-1.1,0.3-1.4,0.8v6h-2.3v-12h2.3V266.5z M301.3,274
		c-0.1-0.2-0.2-0.5-0.2-0.8c-0.5,0.6-1.3,0.9-2.1,0.9c-0.8,0-1.5-0.2-2.1-0.7c-0.5-0.5-0.8-1.1-0.8-1.8c0-0.8,0.3-1.6,1-2.1
		c0.9-0.5,1.9-0.8,2.9-0.7h1v-0.5c0-0.3-0.1-0.7-0.3-0.9c-0.2-0.3-0.6-0.4-0.9-0.4c-0.3,0-0.6,0.1-0.9,0.3c-0.2,0.2-0.3,0.5-0.3,0.8
		h-2.3c0-0.5,0.2-1,0.5-1.4c0.3-0.4,0.8-0.8,1.3-1c0.6-0.2,1.2-0.4,1.9-0.4c0.9,0,1.8,0.2,2.5,0.8c0.6,0.6,1,1.4,0.9,2.2v3.7
		c0,0.6,0.1,1.2,0.3,1.8v0.1H301.3z M299.5,272.4c0.3,0,0.6-0.1,0.9-0.2c0.3-0.1,0.5-0.3,0.6-0.6v-1.5h-0.8c-1.1,0-1.7,0.4-1.8,1.2
		l0,0.1c0,0.3,0.1,0.5,0.3,0.7C298.9,272.3,299.2,272.4,299.5,272.4z M309.6,271.7c0-0.3-0.2-0.5-0.4-0.7c-0.4-0.2-0.9-0.4-1.3-0.4
		c-2-0.4-3-1.3-3-2.6c0-0.7,0.3-1.4,0.9-1.9c0.7-0.5,1.6-0.8,2.4-0.8c0.9,0,1.8,0.2,2.6,0.8c0.6,0.5,1,1.2,1,2h-2.3
		c0-0.3-0.1-0.6-0.3-0.8c-0.3-0.2-0.6-0.3-1-0.3c-0.3,0-0.6,0.1-0.9,0.3c-0.2,0.2-0.3,0.4-0.3,0.7c0,0.3,0.1,0.5,0.4,0.6
		c0.4,0.2,0.8,0.3,1.2,0.4c0.5,0.1,1,0.2,1.4,0.4c1.1,0.3,1.8,1.2,1.8,2.3c0,0.8-0.4,1.5-1,1.9c-0.8,0.5-1.7,0.8-2.6,0.7
		c-0.6,0-1.3-0.1-1.9-0.4c-0.5-0.2-1-0.6-1.3-1c-0.3-0.4-0.5-0.9-0.5-1.4h2.1c0,0.4,0.2,0.7,0.4,0.9c0.3,0.2,0.7,0.3,1.1,0.3
		c0.3,0,0.7-0.1,1-0.2C309.5,272.2,309.6,271.9,309.6,271.7z M315.6,274h-2.3v-8.5h2.3V274z M313.2,263.4c0-0.3,0.1-0.6,0.3-0.8
		c0.5-0.4,1.3-0.4,1.8,0c0.5,0.5,0.5,1.2,0,1.7c-0.5,0.4-1.3,0.4-1.8,0C313.3,264,313.2,263.7,313.2,263.4z M322.1,271.7
		c0-0.3-0.2-0.5-0.4-0.7c-0.4-0.2-0.9-0.4-1.3-0.4c-2-0.4-3-1.3-3-2.6c0-0.7,0.3-1.4,0.9-1.9c0.7-0.5,1.6-0.8,2.4-0.7
		c0.9,0,1.8,0.2,2.6,0.8c0.6,0.5,1,1.2,1,2H322c0-0.3-0.1-0.6-0.3-0.8c-0.3-0.2-0.6-0.3-1-0.3c-0.3,0-0.6,0.1-0.9,0.3
		c-0.2,0.2-0.3,0.4-0.3,0.7c0,0.3,0.1,0.5,0.4,0.6c0.4,0.2,0.8,0.3,1.2,0.4c0.5,0.1,1,0.2,1.4,0.4c1.1,0.3,1.8,1.2,1.8,2.3
		c0,0.8-0.4,1.5-1,1.9c-0.8,0.5-1.7,0.8-2.6,0.7c-0.6,0-1.3-0.1-1.9-0.4c-0.5-0.2-1-0.6-1.3-1c-0.3-0.4-0.5-0.9-0.5-1.4h2.1
		c0,0.4,0.2,0.7,0.4,0.9c0.3,0.2,0.7,0.3,1.1,0.3c0.3,0,0.7-0.1,1-0.2C321.9,272.2,322.1,271.9,322.1,271.7L322.1,271.7z
		 M325.8,272.9c0-0.3,0.1-0.7,0.4-0.9c0.5-0.4,1.3-0.4,1.8,0c0.2,0.2,0.4,0.5,0.4,0.9c0,0.3-0.1,0.6-0.4,0.9c-0.5,0.4-1.3,0.4-1.8,0
		C326,273.5,325.8,273.2,325.8,272.9L325.8,272.9z"/>
	<g id="Grupo_20847" transform="translate(127 104)">
		<circle id="Elipse_1215" class="st5" cx="45" cy="45" r="45"/>
		<g id="coche" transform="translate(14.024 22.735)">
			<g id="Grupo_20838" transform="translate(0.915 0.949)">
				<g id="Grupo_20827" transform="translate(53.911 12.869)">
					<path id="Trazado_2619" class="st6" d="M5,0H0.8C0.5,0,0.2,0.1,0,0.2c0,0.5,0,0.9,0,1.4v3.5c0.6,0.5,1.1,1,1.5,1.6H5
						c1,0,1.8-0.8,1.8-1.8V1.8C6.8,0.8,6,0,5,0z"/>
				</g>
				<g id="Grupo_20828" transform="translate(53.912 12.869)">
					<path id="Trazado_2620" class="st7" d="M2.9,4.9V1.8c0-1,0.8-1.8,1.8-1.8H0.8C0.5,0,0.2,0.1,0,0.2c0,0.5,0,0.9,0,1.4v3.5
						c0.6,0.5,1.1,1,1.5,1.6h3.2C3.7,6.7,2.9,5.9,2.9,4.9z"/>
					<path id="Trazado_2621" class="st7" d="M0,5.1L0,5.1z"/>
				</g>
				<g id="Grupo_20829" transform="translate(0 12.869)">
					<path id="Trazado_2622" class="st6" d="M5.8,5.1V1.6c0-0.5,0-1.1,0.1-1.6h-4C0.8,0,0,0.8,0,1.8v3.1c0,1,0.8,1.8,1.8,1.8h2.5
						C4.7,6.1,5.2,5.6,5.8,5.1L5.8,5.1z"/>
				</g>
				<path id="Trazado_2623" class="st7" d="M2.9,17.8v-3.1c0-1,0.8-1.8,1.8-1.8H1.8c-1,0-1.8,0.8-1.8,1.8v3.1c0,1,0.8,1.8,1.8,1.8
					h2.5l0,0C3.5,19.4,2.9,18.6,2.9,17.8z"/>
				<g id="Grupo_20830" transform="translate(5.523)">
					<path id="Trazado_2624" class="st8" d="M5.7,16H43c2.1,0,4.1,0.8,5.7,2.1v-3.5c0.1-3.5-0.8-7-2.5-10C44.4,1.6,41.9,0,39.3,0
						H9.4C6.8,0,4.3,1.6,2.5,4.6c-1.7,3.1-2.6,6.5-2.5,10v3.5C1.6,16.7,3.6,16,5.7,16z"/>
				</g>
				<g id="Grupo_20831" transform="translate(5.523)">
					<path id="Trazado_2625" class="st9" d="M3.9,14.6c-0.1-3.5,0.8-7,2.5-10C8.2,1.6,10.7,0,13.3,0H9.4C6.8,0,4.3,1.6,2.5,4.6
						c-1.7,3.1-2.6,6.5-2.5,10v3.5c1.1-1,2.5-1.6,3.9-2L3.9,14.6z"/>
				</g>
				<g id="Grupo_20832" transform="translate(8.605 3.109)">
					<path id="Trazado_2626" class="st10" d="M2.6,12.9h37.3c0.9,0,1.8,0.1,2.6,0.4v-1.8c0.1-2.9-0.7-5.8-2.1-8.4
						c-1.2-2-2.7-3.1-4.2-3.1H6.3c-1.5,0-3,1.1-4.2,3.1C0.7,5.6-0.1,8.5,0,11.5v1.8C0.8,13,1.7,12.9,2.6,12.9L2.6,12.9z"/>
				</g>
				<g id="Grupo_20833" transform="translate(8.605 3.109)">
					<path id="Trazado_2627" class="st11" d="M3.9,11.5C3.9,8.5,4.6,5.6,6,3.1C7.2,1.1,8.7,0,10.3,0H6.3c-1.5,0-3,1.1-4.2,3.1
						C0.7,5.6-0.1,8.5,0,11.5v1.8c0.8-0.3,1.7-0.4,2.6-0.4h1.3L3.9,11.5L3.9,11.5z"/>
				</g>
				<path id="Trazado_2628" class="st11" d="M40.9,8.2c-3.8,0-6.8,3.1-6.8,6.8c0,0.3,0,0.6,0.1,0.9h3.1c-0.1-0.3-0.1-0.6-0.1-0.9
					c0-2.1,1.6-3.8,3.7-3.8c2.1,0,3.8,1.6,3.8,3.7c0,0,0,0.1,0,0.1c0,0.3,0,0.6-0.1,0.9h3.1c0-0.3,0.1-0.6,0.1-0.9
					C47.7,11.3,44.6,8.2,40.9,8.2z"/>
				<path id="Trazado_2629" class="st11" d="M40.9,8.2c-3.8,0-6.8,3.1-6.8,6.8c0,0.3,0,0.6,0.1,0.9h3.1c-0.1-0.3-0.1-0.6-0.1-0.9
					c0-2.1,1.6-3.8,3.7-3.8c2.1,0,3.8,1.6,3.8,3.7c0,0,0,0.1,0,0.1c0,0.3,0,0.6-0.1,0.9h3.1c0-0.3,0.1-0.6,0.1-0.9
					C47.7,11.3,44.6,8.2,40.9,8.2z"/>
				<g id="Grupo_20834" transform="translate(34.094 8.212)">
					<path id="Trazado_2630" class="st12" d="M3.4,5.2c0.6-2.5,2.5-4.4,5-5C7.9,0.1,7.3,0,6.8,0C3,0,0,3.1,0,6.8
						c0,0.3,0,0.6,0.1,0.9h3.1C2.9,6.9,3,6,3.4,5.2L3.4,5.2z"/>
				</g>
				<path id="Trazado_2631" class="st13" d="M48.5,15.8H11.2c-4.8,0-8.7,3.9-8.8,8.8v9c0.1,0,0.3-0.1,0.4-0.1h20.4
					c0.3-0.4,0.7-0.6,1.2-0.6h10.9c0.5,0,0.9,0.2,1.2,0.6h20.4c0.1,0,0.3,0,0.4,0.1v-9C57.2,19.8,53.3,15.8,48.5,15.8L48.5,15.8z"/>
				<g id="Grupo_20835" transform="translate(2.463 15.834)">
					<path id="Trazado_2632" class="st8" d="M5.7,8.8C5.8,3.9,9.7,0,14.5,0H8.8C3.9,0,0,3.9,0,8.8v9c0.1,0,0.3-0.1,0.4-0.1h5.3
						C5.7,17.6,5.7,8.8,5.7,8.8z"/>
				</g>
				<path id="Trazado_2633" class="st8" d="M36.2,24.4c1.6,0,3.1-0.8,4-2.2l3.9-6.3H15.6l3.9,6.3c0.8,1.4,2.4,2.2,4,2.2H36.2z"/>
				<path id="Trazado_2634" class="st9" d="M24.8,22.2l-3.9-6.3h-5.3l3.9,6.3c0.8,1.4,2.4,2.2,4,2.2h5.3
					C27.1,24.4,25.6,23.5,24.8,22.2z"/>
				<circle id="Elipse_1216" class="st14" cx="49.4" cy="24.6" r="3.6"/>
				<circle id="Elipse_1217" class="st14" cx="10.3" cy="24.6" r="3.6"/>
				<path id="Trazado_2635" class="st15" d="M49.3,24.6c0-1.3,0.7-2.5,1.8-3.1c-1.7-1-3.9-0.4-4.9,1.3c-1,1.7-0.4,3.9,1.3,4.9
					c1.1,0.6,2.4,0.6,3.5,0C50,27.1,49.3,25.9,49.3,24.6z"/>
				<path id="Trazado_2636" class="st15" d="M10.3,24.6c0-1.3,0.7-2.5,1.8-3.1c-1.7-1-3.9-0.4-4.9,1.3s-0.4,3.9,1.3,4.9
					c1.1,0.6,2.4,0.6,3.5,0C11,27.1,10.3,25.9,10.3,24.6z"/>
				<g id="Grupo_20836" transform="translate(44.47 37.124)">
					<path id="Trazado_2637" class="st16" d="M0,0v3.9c0,1,0.8,1.8,1.8,1.8h8c1,0,1.8-0.8,1.8-1.8V0H0z"/>
				</g>
				<path id="Trazado_2638" class="st17" d="M49.8,41v-3.9h-5.3V41c0,1,0.8,1.8,1.8,1.8h5.3C50.6,42.8,49.8,42,49.8,41z"/>
				<g id="Grupo_20837" transform="translate(3.606 37.124)">
					<path id="Trazado_2639" class="st16" d="M0,0v3.9c0,1,0.8,1.8,1.8,1.8h8c1,0,1.8-0.8,1.8-1.8V0H0z"/>
				</g>
				<path id="Trazado_2640" class="st17" d="M8.9,41v-3.9H3.6V41c0,1,0.8,1.8,1.8,1.8h5.3C9.8,42.8,8.9,42,8.9,41z"/>
				<path id="Trazado_2641" class="st6" d="M23.1,36.6v-2.9c0-0.3,0.1-0.6,0.3-0.9H2.9c-0.8,0-1.5,0.7-1.5,1.5V36
					c0,0.8,0.7,1.5,1.5,1.5h20.5C23.2,37.2,23.1,36.9,23.1,36.6L23.1,36.6z"/>
				<path id="Trazado_2642" class="st7" d="M6.7,36v-1.7c0-0.8,0.7-1.5,1.5-1.5H2.9c-0.8,0-1.5,0.7-1.5,1.5V36
					c0,0.8,0.7,1.5,1.5,1.5h5.3C7.4,37.5,6.7,36.8,6.7,36z"/>
				<path id="Trazado_2643" class="st6" d="M56.9,32.9H36.4c0.2,0.3,0.3,0.6,0.3,0.9v2.9c0,0.3-0.1,0.6-0.3,0.9h20.5
					c0.8,0,1.5-0.7,1.5-1.5v-1.7C58.3,33.5,57.7,32.9,56.9,32.9z"/>
				<path id="Trazado_2644" class="st7" d="M35.7,38.1H24.1c-0.8,0-1.5-0.7-1.5-1.5v-2.9c0-0.8,0.7-1.5,1.5-1.5h11.6
					c0.8,0,1.5,0.7,1.5,1.5v2.9C37.1,37.4,36.5,38.1,35.7,38.1z"/>
				<path id="Trazado_2645" class="st18" d="M27.9,36.6v-2.9c0-0.8,0.7-1.5,1.5-1.5h-5.3c-0.8,0-1.5,0.7-1.5,1.5v2.9
					c0,0.8,0.7,1.5,1.5,1.5h5.3C28.6,38.1,27.9,37.4,27.9,36.6z"/>
			</g>
			<g id="Grupo_20839" transform="translate(0)">
				<path id="Trazado_2646" class="st19" d="M59.8,12.9h-3.9C55.2,6.7,51.7,0,45.7,0H15.8c-3,0-5.7,1.8-7.7,5
					c-1.4,2.4-2.3,5.1-2.5,7.9h-3c-1.5,0-2.7,1.2-2.7,2.7v3.2c0,1.5,1.2,2.7,2.7,2.7h0.7c-0.6,1.3-0.9,2.7-0.9,4.1v7.8
					c-0.7,0.4-1.1,1.2-1.1,2v1.7c0,1.3,1,2.3,2.2,2.4V42c0,1.5,1.2,2.7,2.7,2.7h8c1.5,0,2.7-1.2,2.7-2.7v-2.6h6.3
					c0.4,0.4,1,0.6,1.6,0.6h11.6c0.6,0,1.1-0.2,1.6-0.6h6.3V42c0,1.5,1.2,2.7,2.7,2.7h8c1.5,0,2.7-1.2,2.7-2.7v-2.6
					c1.2-0.1,2.2-1.1,2.2-2.4v-1.7c0-0.8-0.4-1.6-1.1-2v-3.1c0-0.5-0.4-0.9-0.9-0.9s-0.9,0.4-0.9,0.9v2.7H38.1
					c-0.4-0.4-1-0.6-1.6-0.6H25c-0.6,0-1.1,0.2-1.6,0.6H4.3v-7.4c0-4.3,3.5-7.8,7.8-7.8H16l3.6,5.9c1,1.7,2.8,2.7,4.8,2.7h12.8
					c1.9,0,3.7-1,4.8-2.7l3.6-5.9h3.9c4.3,0,7.8,3.5,7.8,7.8v0.4c0,0.5,0.4,0.9,0.9,0.9s0.9-0.4,0.9-0.9l0,0
					c0.1-1.5-0.3-3.1-0.9-4.5h1.6c1.5,0,2.7-1.2,2.7-2.7v-3.2C62.5,14.1,61.3,12.9,59.8,12.9z M2.7,19.6c-0.5,0-0.9-0.4-0.9-0.9
					v-3.2c0-0.5,0.4-0.9,0.9-0.9h2.8c0,0.2,0,0.4,0,0.7v3.1c-0.4,0.4-0.7,0.7-1,1.1L2.7,19.6z M15.3,42c0,0.5-0.4,0.9-0.9,0.9h0h-8
					c-0.5,0-0.9-0.4-0.9-0.9l0,0v-2.6h9.8L15.3,42z M56.1,42c0,0.5-0.4,0.9-0.9,0.9h0h-8c-0.5,0-0.9-0.4-0.9-0.9l0,0v-2.6h9.8
					L56.1,42z M57.8,34.7C57.8,34.7,57.8,34.7,57.8,34.7l0.1,0c0.3,0.1,0.4,0.3,0.4,0.5v1.7c0,0.3-0.3,0.6-0.6,0.6H39v-2.8
					L57.8,34.7z M36.6,34.1c0.3,0,0.6,0.3,0.6,0.6v2.9c0,0.3-0.3,0.6-0.6,0.6H25c-0.3,0-0.6-0.3-0.6-0.6v-2.9c0-0.3,0.3-0.6,0.6-0.6
					H36.6z M22.6,34.7v2.8H3.8c-0.3,0-0.6-0.3-0.6-0.6v-1.7c0-0.3,0.2-0.5,0.4-0.5l0,0c0,0,0.1,0,0.1,0L22.6,34.7L22.6,34.7z
					 M10.4,16v-0.6c-0.1-2.7,0.6-5.5,2-7.8c1-1.7,2.3-2.6,3.5-2.6h13.3C29.6,4.9,30,4.5,30,4s-0.4-0.9-0.9-0.9H15.8
					c-1.9,0-3.6,1.2-5,3.5c-1.5,2.7-2.3,5.7-2.2,8.8v1.1c-0.4,0.2-0.8,0.4-1.2,0.6v-1.7c-0.1-3.3,0.8-6.6,2.4-9.4
					c1.6-2.6,3.8-4.1,6.1-4.1h29.9c2.3,0,4.5,1.5,6.1,4.1c1.6,2.9,2.5,6.1,2.4,9.4v1.7c-0.4-0.2-0.8-0.4-1.2-0.6v-1.1
					c0.1-3.1-0.7-6.1-2.2-8.8c-1.4-2.3-3.2-3.5-5-3.5H33.4c-0.5,0-0.9,0.4-0.9,0.9s0.4,0.9,0.9,0.9h12.3c1.2,0,2.4,0.9,3.5,2.6
					c1.3,2.4,2,5.1,2,7.8V16c-0.5-0.1-1.1-0.1-1.6-0.1c0-4.3-3.4-7.7-7.7-7.7s-7.7,3.4-7.7,7.7h-22C11.6,15.8,11,15.9,10.4,16
					L10.4,16z M40.4,22.6c-0.7,1.1-1.9,1.8-3.2,1.8H24.4c-1.3,0-2.5-0.7-3.2-1.8l-3-4.9h25.2L40.4,22.6z M39,15.8
					c0-1.6,1.3-2.8,2.9-2.8c1.5,0,2.7,1.3,2.8,2.8H39z M46.5,15.8c0-2.6-2.1-4.7-4.7-4.7s-4.7,2.1-4.7,4.7h-1.2
					c0-3.2,2.7-5.8,5.9-5.8c3.2,0,5.8,2.6,5.8,5.8H46.5z M60.7,18.7c0,0.5-0.4,0.9-0.9,0.9h-2.7c-0.3-0.4-0.7-0.8-1-1.1v-3.1
					c0-0.2,0-0.4,0-0.7h3.8c0.5,0,0.9,0.4,0.9,0.9L60.7,18.7L60.7,18.7z"/>
				<path id="Trazado_2647" class="st19" d="M23.5,27.8c-0.5,0-0.9,0.4-0.9,0.9c0,0.5,0.4,0.9,0.9,0.9H38c0.5,0,0.9-0.4,0.9-0.9
					c0-0.5-0.4-0.9-0.9-0.9H23.5z"/>
				<path id="Trazado_2648" class="st19" d="M50.3,21c-2.5,0-4.5,2-4.5,4.5s2,4.5,4.5,4.5c2.5,0,4.5-2,4.5-4.5
					C54.8,23.1,52.8,21,50.3,21z M50.3,28.2c-1.5,0-2.7-1.2-2.7-2.7c0-1.5,1.2-2.7,2.7-2.7c1.5,0,2.7,1.2,2.7,2.7l0,0
					C52.9,27,51.8,28.2,50.3,28.2L50.3,28.2z"/>
				<path id="Trazado_2649" class="st19" d="M6.8,25.5c0,2.5,2,4.5,4.5,4.5s4.5-2,4.5-4.5c0-2.5-2-4.5-4.5-4.5
					C8.8,21,6.8,23.1,6.8,25.5z M13.9,25.5c0,1.5-1.2,2.7-2.7,2.7S8.6,27,8.6,25.5s1.2-2.7,2.7-2.7C12.7,22.9,13.9,24.1,13.9,25.5z"
					/>
			</g>
		</g>
	</g>
	<g id="Grupo_20848" transform="translate(774 104)">
		<circle id="Elipse_1212" class="st5" cx="45" cy="45" r="45"/>
		<g id="boy" transform="translate(18.749 15.512)">
			<g id="Grupo_20845" transform="translate(0.867 0.866)">
				<path id="Trazado_2650" class="st20" d="M40.4,53.5L40.4,53.5l-0.6-0.9l0.3-0.9c-0.3-1.2-0.8-2.3-1.3-3.4l-1.1-0.7l0.2-0.9
					c-1-1.7-2.3-3.2-3.9-4.4H17.4c-1.6,1.2-2.9,2.7-3.9,4.4l0,1l-0.9,0.5c-0.5,1.1-1,2.3-1.3,3.4l0.4,1.2L11,53.5
					c-0.2,1.3-0.4,2.6-0.3,3.9h6.7l0.7-0.6l1,0.6h5.8l0.9-0.6l0.9,0.6h5.8l1-0.6l0.7,0.6h6.7C40.7,56.1,40.6,54.8,40.4,53.5z"/>
				<path id="Trazado_2651" class="st21" d="M14.3,52.7c0-4.1,2-8.3,5-10.3h-1.8c-1.6,1.2-2.9,2.7-3.9,4.4l0,1l-0.9,0.5
					c-0.5,1.1-1,2.3-1.3,3.4l0.4,1.2L11,53.5c-0.2,1.3-0.4,2.6-0.3,3.9h4C14.4,55.9,14.2,54.3,14.3,52.7z"/>
				<path id="Trazado_2652" class="st22" d="M1.5,24.1C1.5,10.8,12.3,0,25.6,0C39,0,49.8,10.8,49.8,24.1c0,0,0,0,0,0H1.5z"/>
				<g id="Grupo_20840" transform="translate(40.011 19.671)">
					<circle id="Elipse_1218" class="st23" cx="5.6" cy="5.6" r="5.6"/>
				</g>
				<path id="Trazado_2653" class="st24" d="M9,22.2c-0.1-8,3.3-15.7,9.4-21.1c-10,3.2-16.9,12.5-16.9,23h7.6
					C9.1,23.5,9,22.9,9,22.2z"/>
				<path id="Trazado_2654" class="st25" d="M45.2,19.7c-0.3-1.5-1.4-2.8-2.9-3.4c-4.8-1.9-7.9-6.5-7.9-6.5
					c-4.2,7.1-13.5,7.2-13.5,7.2c2.8-2.8,1.1-7.2,1.1-7.2c-3.2,3.7-8.2,5.2-11.8,5.7c-1.9,0.3-3.4,1.6-3.9,3.4
					C3.5,29.7,9.8,40.6,20.5,43.5c10.7,2.8,21.6-3.5,24.5-14.2C45.8,26.1,45.9,22.9,45.2,19.7L45.2,19.7z"/>
				<path id="Trazado_2655" class="st23" d="M17.3,42.3C12,37,9,29.8,9,22.2c0-2.2,0.2-4.4,0.7-6.6c-1.7,0.4-3,1.7-3.5,3.4
					c-0.1,0.2-0.1,0.5-0.2,0.7c-0.2,0-0.3,0-0.5,0c-3.1,0-5.7,2.5-5.7,5.7C0,28.4,2.5,31,5.7,31c0.4,0,0.8,0,1.1-0.2
					C8.6,35.9,12.4,40,17.3,42.3z"/>
				<g id="Grupo_20844" transform="translate(9.029 24.49)">
					<g id="Grupo_20843">
						<g id="Grupo_20841">
							<ellipse id="Elipse_1219" class="st26" cx="4.5" cy="3.6" rx="4.5" ry="3.6"/>
						</g>
						<g id="Grupo_20842" transform="translate(24.289)">
							<ellipse id="Elipse_1220" class="st26" cx="4.5" cy="3.6" rx="4.5" ry="3.6"/>
						</g>
					</g>
				</g>
			</g>
			<g id="Grupo_20846">
				<path id="Trazado_2656" d="M16.1,23.7v1.8c0,0.5,0.4,0.9,0.9,0.9c0.5,0,0.9-0.4,0.9-0.9c0,0,0,0,0,0v-1.8c0-0.5-0.4-0.9-0.9-0.9
					C16.5,22.8,16.1,23.2,16.1,23.7z"/>
				<path id="Trazado_2657" d="M36.1,22.8c-0.5,0-0.9,0.4-0.9,0.9v1.8c0,0.5,0.4,0.9,0.9,0.9c0.5,0,0.9-0.4,0.9-0.9c0,0,0,0,0,0
					v-1.8C36.9,23.2,36.5,22.8,36.1,22.8z"/>
				<path id="Trazado_2658" d="M28.4,24.9c-0.9,1-2.4,1.1-3.5,0.2c-0.1-0.1-0.2-0.2-0.2-0.2c-0.3-0.4-0.9-0.4-1.2-0.1
					S23,25.6,23.4,26c1.5,1.7,4.2,1.9,5.9,0.4c0.1-0.1,0.3-0.3,0.4-0.4c0.3-0.4,0.3-0.9-0.1-1.2S28.7,24.5,28.4,24.9z"/>
				<path id="Trazado_2659" d="M43.2,6.4c-8.4-7.6-20.9-8.5-30.4-2.3c-0.4,0.3-0.5,0.8-0.2,1.2c0.3,0.4,0.8,0.5,1.2,0.2
					c10.8-7,25.2-4,32.2,6.7c1.6,2.4,2.7,5.2,3.3,8c-0.8-0.4-1.7-0.6-2.6-0.6c-0.6-1.5-1.7-2.7-3.2-3.3c-3-1.3-5.6-3.5-7.5-6.2
					c-0.3-0.4-0.8-0.5-1.2-0.2c-0.1,0.1-0.2,0.2-0.3,0.3c-2.3,3.9-6.6,5.9-11,6.6c0.8-2.1,0.9-4.4,0.1-6.5c-0.2-0.4-0.7-0.7-1.1-0.5
					c-0.1,0.1-0.2,0.1-0.3,0.2c-2.8,3.2-7.1,4.8-11.2,5.4c-2.2,0.3-4,1.9-4.6,4.1c-0.9,0-1.8,0.2-2.6,0.6c1-4.9,3.6-9.4,7.4-12.7
					c0.4-0.3,0.4-0.9,0.1-1.2C10.9,6,10.3,6,9.9,6.3c-4.5,4-7.4,9.5-8.2,15.5c-2.4,2.6-2.3,6.8,0.4,9.2c1.4,1.3,3.2,1.9,5,1.7
					c1.8,4.6,5.2,8.4,9.6,10.7c-4,3.9-6.2,9.3-6.1,14.9c0,0.5,0.4,0.9,0.9,0.9c0,0,0,0,0,0h30.1c0.5,0,0.9-0.4,0.9-0.9
					c0.1-5.6-2.1-11-6.1-14.8c1.6-0.9,3.1-1.9,4.4-3.2c0.4-0.3,0.4-0.9,0-1.2c-0.3-0.4-0.9-0.4-1.2,0l0,0c-7.7,7.2-19.8,6.8-27.1-1
					C8,33.2,6.3,26.4,8,20.1c0.4-1.5,1.6-2.6,3.2-2.8c4.1-0.5,8-2.2,11.2-4.9c0.4,1.7-0.1,3.6-1.3,4.9c-0.3,0.3-0.3,0.9,0,1.2
					c0.2,0.2,0.4,0.3,0.6,0.3c1.9-0.1,3.7-0.4,5.5-1c3.2-1,6.1-2.9,8.1-5.6c2,2.5,4.6,4.5,7.5,5.8c1.2,0.5,2.1,1.5,2.4,2.8
					c1.3,5.5,0,11.3-3.4,15.8c-0.3,0.4-0.2,0.9,0.2,1.2c0.4,0.3,0.9,0.2,1.2-0.2l0,0c1.1-1.5,2.1-3.2,2.8-4.9
					c3.6,0.3,6.7-2.3,7.1-5.9c0.2-1.8-0.5-3.6-1.7-5C50.5,15.8,47.7,10.4,43.2,6.4z M33.2,44.8v2.8h-5.8v-1.8
					C29.4,45.8,31.3,45.4,33.2,44.8z M39.9,52.6h-5v-3.3h3.7C39.2,50.4,39.6,51.5,39.9,52.6z M33.2,52.6h-5.8v-3.3h5.8L33.2,52.6z
					 M14.4,49.4h3.7v3.3h-5C13.4,51.5,13.9,50.4,14.4,49.4z M19.9,49.4h5.8v3.3h-5.8L19.9,49.4z M19.9,44.8c1.9,0.6,3.8,1,5.8,1.1
					v1.8h-5.8L19.9,44.8z M25.7,54.4v3h-5.8v-3H25.7z M27.4,54.4h5.8v3h-5.8L27.4,54.4z M18.1,44.5v3.1h-2.7
					C16.2,46.5,17.1,45.4,18.1,44.5L18.1,44.5z M12.7,54.4h5.4v3h-5.8C12.4,56.4,12.5,55.4,12.7,54.4z M34.9,57.4v-3h5.4
					c0.2,1,0.3,2,0.3,3L34.9,57.4z M37.6,47.6h-2.7v-3.1C35.9,45.4,36.9,46.5,37.6,47.6L37.6,47.6z M6.5,31c-2.6,0-4.8-2.1-4.8-4.8
					c0-2.4,1.8-4.5,4.2-4.8C5.4,24.6,5.6,27.9,6.5,31z M46.5,31c0.9-3.1,1.1-6.4,0.6-9.5c2.6,0.3,4.5,2.7,4.2,5.3
					C51,29.2,49,31,46.5,31z"/>
			</g>
		</g>
	</g>
	<path id="Trazado_2660" class="st3" d="M292.5,76.3v14.8h-23.4v18.1"/>
	<path id="Trazado_2661" class="st3" d="M127.4,76.3v16.8h45v6.7"/>
	<path id="Trazado_2663" class="st3" d="M165.7,198.6v12.1h-37v6.7"/>
	<path id="Trazado_2664" class="st3" d="M105.3,149.1h13.4"/>
	<path id="Trazado_2665" class="st3" d="M197.3,193.9v8.7h96.1v14.1"/>
	<path id="Trazado_2666" class="st3" d="M870.2,75.7v20.2h-46.4v5.4"/>
	<path id="Trazado_2667" class="st3" d="M698.8,75.7v9.4h113.6v14.8"/>
	<path id="Trazado_2668" class="st3" d="M869.7,149.1h12.6v65"/>
</g>
<path id="Trazado_2663_1_" class="st3" d="M870.4,250.6v12.1H744.6v6.7"/>
</svg>
