<svg xmlns="http://www.w3.org/2000/svg" width="190" height="152.652" viewBox="0 0 190 152.652">
  <g id="Grupo_20946" data-name="Grupo 20946" transform="translate(-2246.26 -1184.306)">
    <g id="Grupo_20931" data-name="Grupo 20931" transform="translate(2256.224 1214.479)">
      <path id="Trazado_2900" data-name="Trazado 2900" d="M2419.32,1412.876l-18.2,10.607a3.151,3.151,0,0,0,0,5.444L2411.5,1435a3.151,3.151,0,0,1-.072,5.481l-59.487,32.737a3.145,3.145,0,0,1-3.1-.034l-67.514-39.046a3.151,3.151,0,0,1,0-5.457l85.65-49.451a3.158,3.158,0,0,1,3.144-.007l29.693,17.025,1.36.779,1.705.978,1.363.782,15.05,8.628A3.152,3.152,0,0,1,2419.32,1412.876Z" transform="translate(-2279.759 -1351.131)" fill="#15325c" opacity="0.22" style="mix-blend-mode: multiply;isolation: isolate"/>
      <path id="Trazado_2901" data-name="Trazado 2901" d="M2420.888,1339v10.5l-.01-.007a3.1,3.1,0,0,1-1.555,2.467l-14.674,8.553-3.523,2.054a3.156,3.156,0,0,0-.007,5.45l5.727,3.349,2.078-4.531,4.121.752v8.851a3.228,3.228,0,0,1,0,.7v.021l0,0a3.08,3.08,0,0,1-1.609,2.412l-4.713,2.594-.906.5-1.093.6-1.278.707-6.865,3.78-1.367.752-1.709.94-1.367.752-8.1,4.453-32.091,17.664a3.16,3.16,0,0,1-2.508.233,3.376,3.376,0,0,1-.588-.267l-35.088-20.292-1.274-.738-1-.577-.1-.055-.9-.526-.372-.215-1.709-.988-1.367-.789-25.708-14.868a3.1,3.1,0,0,1-1.507-2.091v0a3.257,3.257,0,0,1-.01-1.261v-.01s0,0,0-.007l-.058-8.792v-.205a.011.011,0,0,1,0-.014l0-.43.038.037,5.327,5.129,38.635-22.308,43.221-24.956a3.172,3.172,0,0,1,3.147,0l43.744,25.079,3.089-3.964,3.851-.427Z" transform="translate(-2279.761 -1308.337)" fill="#d6edff"/>
      <path id="Trazado_2902" data-name="Trazado 2902" d="M2349.44,1403.209v69.271a3.384,3.384,0,0,1-.588-.267l-35.088-20.292-1.274-.738-1-.577-.1-.055-.9-.526-.372-.215-1.709-.988-1.367-.789-25.708-14.868a3.1,3.1,0,0,1-1.507-2.091v0a3.257,3.257,0,0,1-.01-1.261v-.01s0,0,0-.007l-.058-8.793v-.205l0-.444.038.037,5.327,5.129,38.635-22.308Z" transform="translate(-2279.761 -1368.272)" fill="#bbe0fd"/>
      <path id="Trazado_2903" data-name="Trazado 2903" d="M2419.32,1319.814l-18.2,10.607a3.151,3.151,0,0,0,0,5.444l10.385,6.076a3.151,3.151,0,0,1-.072,5.481l-59.487,32.737a3.142,3.142,0,0,1-3.1-.034l-67.514-39.045a3.151,3.151,0,0,1,0-5.457l85.65-49.451a3.158,3.158,0,0,1,3.144-.007l29.693,17.025,1.36.779,1.705.977,1.363.782,15.05,8.629A3.152,3.152,0,0,1,2419.32,1319.814Z" transform="translate(-2279.759 -1285.749)" fill="#fff"/>
      <path id="Trazado_2904" data-name="Trazado 2904" d="M2652.49,1519.247l.128,9.491,9.214-5.07-.129-9.491Z" transform="translate(-2541.628 -1446.235)" fill="#fff"/>
      <path id="Trazado_2905" data-name="Trazado 2905" d="M2630.348,1540.181v9.562l2.777-1.528v-9.562Z" transform="translate(-2526.072 -1463.431)" fill="#fff"/>
    </g>
    <g id="Grupo_20932" data-name="Grupo 20932" transform="translate(2386.127 1247.387)">
      <path id="Trazado_2906" data-name="Trazado 2906" d="M2716.513,1427.6v6.808l.036-.026a2.137,2.137,0,0,0,1.052,1.513l22.879,13.208a2.156,2.156,0,0,0,1.1.291,2.182,2.182,0,0,0,1.078-.291l22.905-13.261a2.15,2.15,0,0,0,1.081-1.885V1427.6l-4.8,2.336-19.148-11.026a2.177,2.177,0,0,0-2.172,0l-14.793,8.53-3.838,2.212Z" transform="translate(-2716.512 -1412.012)" fill="#bbe0fd"/>
      <path id="Trazado_2907" data-name="Trazado 2907" d="M2716.513,1448.442v6.808l.036-.026a2.138,2.138,0,0,0,1.052,1.513l22.879,13.209a2.158,2.158,0,0,0,1.1.291v-8.2l-15.852-13.754-3.838,2.212Z" transform="translate(-2716.512 -1432.85)" fill="#d6edff"/>
      <path id="Trazado_2908" data-name="Trazado 2908" d="M2742.69,1397.37l22.863,13.163a2.176,2.176,0,0,1,0,3.769l-22.9,13.26a2.176,2.176,0,0,1-2.178,0l-22.878-13.209a2.176,2.176,0,0,1,0-3.77l22.919-13.214A2.176,2.176,0,0,1,2742.69,1397.37Z" transform="translate(-2716.51 -1396.875)" fill="#fff"/>
      <path id="Trazado_2909" data-name="Trazado 2909" d="M2742.69,1396.682l22.863,13.163a2.176,2.176,0,0,1,0,3.769l-22.9,13.26a2.176,2.176,0,0,1-2.178,0l-22.878-13.209a2.176,2.176,0,0,1,0-3.77l22.919-13.214A2.176,2.176,0,0,1,2742.69,1396.682Z" transform="translate(-2716.51 -1396.392)" fill="#fff"/>
    </g>
    <path id="Trazado_2910" data-name="Trazado 2910" d="M2613.339,1346.924l-33.711,19.933-2.262-3.821,31.545-18.651,1.36.779,1.705.977Z" transform="translate(-232.625 -112.466)" fill="#77b8e0"/>
    <path id="Trazado_2911" data-name="Trazado 2911" d="M2595,1190a3.69,3.69,0,0,1,2.224-2.969c1.213-.383,2.591.191,3.791,1.41.563-2,1.673-3.459,3.24-3.954,3.4-1.072,7.64,2.785,9.482,8.616q.167.529.3,1.054c1.815.552,3.66,2.721,4.585,5.648a11.422,11.422,0,0,1,.552,3.783l.194.111a4.623,4.623,0,0,1,2.322,4.01h0a4.623,4.623,0,0,1-6.922,4.01l-22.965-13.171a4.623,4.623,0,0,1-2.323-4.01h0A4.628,4.628,0,0,1,2595,1190Z" transform="translate(-241.135)" fill="#fff"/>
    <path id="Trazado_2912" data-name="Trazado 2912" d="M2261.084,1318.984a2.049,2.049,0,0,0-1.236-1.649,2.151,2.151,0,0,0-2.105.783,2.962,2.962,0,0,0-1.8-2.2c-1.886-.6-4.244,1.547-5.266,4.785q-.093.294-.167.586a4.634,4.634,0,0,0-2.546,3.137,6.333,6.333,0,0,0-.306,2.1l-.107.062a2.568,2.568,0,0,0-1.291,2.227h0a2.568,2.568,0,0,0,3.845,2.227l12.755-7.315a2.567,2.567,0,0,0,1.29-2.227h0A2.57,2.57,0,0,0,2261.084,1318.984Z" transform="translate(0 -92.399)" fill="#fff"/>
    <g id="Grupo_20933" data-name="Grupo 20933" transform="translate(2285.959 1238.669)">
      <path id="Trazado_2913" data-name="Trazado 2913" d="M2419.919,1414.059l-40.186-22.964,39.68-24.017.441.263,39.745,23.744Zm-36.816-23.006,36.811,21.035,36.316-21.025-36.81-21.991Z" transform="translate(-2379.733 -1367.079)" fill="#77b8e0"/>
    </g>
    <path id="Trazado_2914" data-name="Trazado 2914" d="M2571,1464.477v9.719l-1.367.752-1.708.94-1.367.752v-9.6l-.072-.041-38.458-22.212,2.221-3.848Z" transform="translate(-197.964 -180.302)" fill="#77b8e0"/>
    <path id="Trazado_2915" data-name="Trazado 2915" d="M2414.464,1447.085l-.577.335-37.8,21.833-.15.085v9.39l-.1-.055-.9-.526-.372-.216-1.709-.987-1.367-.79v-9.38l.157-.089,40.593-23.449,1.644,2.846Z" transform="translate(-87.984 -181.917)" fill="#77b8e0"/>
    <path id="Trazado_2916" data-name="Trazado 2916" d="M2616.4,1347.982l-31.866,18.846-.871-1.473L2614.694,1347Z" transform="translate(-237.048 -114.306)" fill="#f1249a"/>
    <path id="Trazado_2917" data-name="Trazado 2917" d="M2574.044,1469.682v9.681l-1.709.94v-9.637l-.037-.021L2534.3,1448.7l.854-1.479Z" transform="translate(-202.371 -184.718)" fill="#ffd561"/>
    <path id="Trazado_2918" data-name="Trazado 2918" d="M2415.827,1451l-37.88,21.874-.151.089v9.384l-1.708-.988v-9.38l.154-.089,38.73-22.369Z" transform="translate(-91.213 -186.332)" fill="#f1249a"/>
    <path id="Trazado_2919" data-name="Trazado 2919" d="M2662.014,1519.79l-4.442,2.734v9.568l4.442-2.392Z" transform="translate(-288.975 -235.7)" fill="#77b8e0" opacity="0.39" style="mix-blend-mode: multiply;isolation: isolate"/>
    <path id="Trazado_2920" data-name="Trazado 2920" d="M2371.492,1522.087l4.442,2.734v9.227l-4.442-2.392Z" transform="translate(-87.984 -237.314)" fill="#77b8e0" opacity="0.39" style="mix-blend-mode: multiply;isolation: isolate"/>
    <g id="Grupo_20937" data-name="Grupo 20937" transform="translate(2390.998 1224.288)">
      <g id="Grupo_20934" data-name="Grupo 20934" transform="translate(0 22.017)">
        <path id="Trazado_2921" data-name="Trazado 2921" d="M2733.692,1418.122l18.02-10.551a1.627,1.627,0,0,1,1.628-.01l18.565,10.571a1.628,1.628,0,0,1,.009,2.824l-18.276,10.551a1.626,1.626,0,0,1-1.627,0l-18.31-10.571A1.628,1.628,0,0,1,2733.692,1418.122Z" transform="translate(-2732.887 -1403.007)" fill="#15325c" opacity="0.33" style="mix-blend-mode: multiply;isolation: isolate"/>
        <path id="Trazado_2922" data-name="Trazado 2922" d="M2814.383,1420.541l-14.315,8.265-.15,8.351,14.315-8.138Z" transform="translate(-2779.981 -1412.276)" fill="#a9d1ea"/>
        <path id="Trazado_2923" data-name="Trazado 2923" d="M2752.292,1401.018l14.115-8.265,14.515,8.265-14.315,8.265Z" transform="translate(-2746.521 -1392.753)" fill="#bbe0fd"/>
        <path id="Trazado_2924" data-name="Trazado 2924" d="M2773.129,1409.674l7.856-4.6,8.08,4.6-7.968,4.6Z" transform="translate(-2761.16 -1401.409)" fill="#15325c"/>
        <path id="Trazado_2925" data-name="Trazado 2925" d="M2752.292,1429.019v-8.479l14.315,8.265-.15,8.351Z" transform="translate(-2746.521 -1412.276)" fill="#77b8e0"/>
      </g>
      <rect id="Rectángulo_4951" data-name="Rectángulo 4951" width="3.941" height="12.02" transform="translate(17.586 17.735)" fill="#15325c"/>
      <path id="Trazado_2926" data-name="Trazado 2926" d="M2798.637,1381.01l6.9-7.291.788,1.379-7.291,7.882" transform="translate(-2779.081 -1357.363)" fill="#15325c"/>
      <g id="Grupo_20935" data-name="Grupo 20935" transform="translate(21.921 9.459)">
        <path id="Trazado_2927" data-name="Trazado 2927" d="M2818.608,1356.541a6.007,6.007,0,1,1-6.01-6.01A5.994,5.994,0,0,1,2818.608,1356.541Z" transform="translate(-2806.588 -1350.531)" fill="#77b8e0"/>
        <path id="Trazado_2928" data-name="Trazado 2928" d="M2818.342,1361.414a6.011,6.011,0,0,1-11.754-1.774c0-.2.01-.4.029-.593a6,6,0,0,1,2.237-4.1C2808.718,1361.288,2813.94,1361.864,2818.342,1361.414Z" transform="translate(-2806.588 -1353.63)" fill="#77b8e0" opacity="0.24" style="mix-blend-mode: multiply;isolation: isolate"/>
        <path id="Trazado_2929" data-name="Trazado 2929" d="M2816.624,1373.8a6.011,6.011,0,0,1-10.036-4.463c0-.2.01-.4.029-.593C2807.741,1372.94,2812.367,1374.312,2816.624,1373.8Z" transform="translate(-2806.588 -1363.326)" fill="#77b8e0" opacity="0.24" style="mix-blend-mode: multiply;isolation: isolate"/>
      </g>
      <g id="Grupo_20936" data-name="Grupo 20936" transform="translate(10.098)">
        <path id="Trazado_2930" data-name="Trazado 2930" d="M2785.951,1328.286a9.551,9.551,0,1,1-9.557-9.557A9.533,9.533,0,0,1,2785.951,1328.286Z" transform="translate(-2766.837 -1318.729)" fill="#77b8e0"/>
        <path id="Trazado_2931" data-name="Trazado 2931" d="M2785.528,1336.036a9.558,9.558,0,0,1-18.691-2.82,9.391,9.391,0,0,1,.047-.943,9.533,9.533,0,0,1,3.557-6.527C2770.224,1335.836,2778.528,1336.751,2785.528,1336.036Z" transform="translate(-2766.837 -1323.659)" fill="#77b8e0" opacity="0.24" style="mix-blend-mode: multiply;isolation: isolate"/>
        <path id="Trazado_2932" data-name="Trazado 2932" d="M2782.8,1355.731a9.558,9.558,0,0,1-15.959-7.1,9.387,9.387,0,0,1,.047-.943C2768.67,1354.365,2776.027,1356.546,2782.8,1355.731Z" transform="translate(-2766.837 -1339.077)" fill="#77b8e0" opacity="0.24" style="mix-blend-mode: multiply;isolation: isolate"/>
      </g>
    </g>
    <ellipse id="Elipse_1223" data-name="Elipse 1223" cx="11.15" cy="6.493" rx="11.15" ry="6.493" transform="translate(2265.539 1260.511)" fill="#15325c" opacity="0.33" style="mix-blend-mode: multiply;isolation: isolate"/>
    <g id="Grupo_20938" data-name="Grupo 20938" transform="translate(2268.53 1206.86)">
      <path id="Trazado_2933" data-name="Trazado 2933" d="M2412.551,1271.986s-.052-1.022.509-1.436.771.477.771.477c1.967-.838,2.134-.125,2.134-.125.828,1.123.266,1.536.266,1.536-.5.681-2.905,1.247-2.905,1.247Z" transform="translate(-2385.36 -1267.375)" fill="#f9beae"/>
      <path id="Trazado_2934" data-name="Trazado 2934" d="M2370.431,1273.695l-7.844,5.157s-6.93-.6-9.849.02l1.069,3.252.363,1.109s8.895-.144,9.914-.933c.961-.749,7.119-5.743,7.805-6.306a.031.031,0,0,1,.02-.015.139.139,0,0,0,.024-.019l.02-.015Z" transform="translate(-2343.338 -1269.662)" fill="#23477c"/>
      <path id="Trazado_2935" data-name="Trazado 2935" d="M2357.259,1452.537c.219-.72-2.363-2.632-2.363-2.632l-3.248-.5c-.81,1.446-.774,1.962-.165,2.354,4.276,2.145,5.216,1.643,5.216,1.643S2357.04,1453.257,2357.259,1452.537Z" transform="translate(-2342.14 -1393.112)" fill="#15325c"/>
      <path id="Trazado_2936" data-name="Trazado 2936" d="M2336.281,1463.856c.219-.72-2.362-2.632-2.362-2.632l-3.248-.5c-.81,1.446-.774,1.962-.166,2.354,4.276,2.145,5.216,1.643,5.216,1.643S2336.062,1464.576,2336.281,1463.856Z" transform="translate(-2327.401 -1401.065)" fill="#15325c"/>
      <path id="Trazado_2937" data-name="Trazado 2937" d="M2345.429,1346.536l.531,13.568-.565,14.989s-.767.875-3.83.433l-.644-12.911-3.533-19.826Z" transform="translate(-2332.553 -1318.204)" fill="#f1249a"/>
      <path id="Trazado_2938" data-name="Trazado 2938" d="M2332.528,1363.875l-1.758,29.307s-.766.875-3.83.438l-1.548-29.745Z" transform="translate(-2324.126 -1333.019)" fill="#f1249a"/>
      <path id="Trazado_2939" data-name="Trazado 2939" d="M2323.111,1297.188v16.053s8.325,3.723,12.611-2.354l-.357-18.207a3.289,3.289,0,0,0-.91-1.675,2.449,2.449,0,0,0-1.406-.685,2.528,2.528,0,0,0-1.543.289l-6.647,3.633a3.357,3.357,0,0,0-1.748,2.947Z" transform="translate(-2322.523 -1281.326)" fill="#15325c"/>
      <path id="Trazado_2940" data-name="Trazado 2940" d="M2365.282,1324.442s-.052-1.022.509-1.436.771.478.771.478c1.966-.838,2.134-.125,2.134-.125.827,1.122.266,1.536.266,1.536-.5.681-2.9,1.246-2.9,1.246Z" transform="translate(-2352.15 -1304.229)" fill="#f9beae"/>
      <path id="Trazado_2941" data-name="Trazado 2941" d="M2323.131,1305.415c2.4-.128,2.5,3.713,2.5,3.713l.495,5.707,7.925-3.156,1.148,2.138s-4.889,2.872-8.433,4.9a2.953,2.953,0,0,1-4.36-1.979c-.548-2.705-1.181-6.03-1.248-7.268C2320.98,1306.239,2321.929,1305.481,2323.131,1305.415Z" transform="translate(-2321.133 -1291.945)" fill="#23477c"/>
      <path id="Trazado_2942" data-name="Trazado 2942" d="M2341.1,1284.57s-2.518.765-3.612-.44v-6.378l.507.512,2.777,2.8.25,2.681Z" transform="translate(-2332.624 -1272.513)" fill="#f9beae"/>
      <path id="Trazado_2943" data-name="Trazado 2943" d="M2342.219,1284.957c-1.882-.732-2.994-2.329-3.027-5.483l2.776,2.8Z" transform="translate(-2333.821 -1273.722)" fill="#f9beae" style="mix-blend-mode: multiply;isolation: isolate"/>
      <path id="Trazado_2944" data-name="Trazado 2944" d="M2340.942,1267.193s2.972,7.92-.4,8.052-5.256-3.434-5.256-3.434l1.432-3.458Z" transform="translate(-2331.08 -1265.094)" fill="#f9beae"/>
      <path id="Trazado_2945" data-name="Trazado 2945" d="M2336.9,1260.917a2.228,2.228,0,0,0-3.322,0c-3.772.207-7.674,4.63-2.305,7.986v-.828l.552-.72c1.164-.248.674-2.3.674-2.3C2336.793,1265.32,2338.5,1262.678,2336.9,1260.917Z" transform="translate(-2326.404 -1260.135)" fill="#052754"/>
      <path id="Trazado_2946" data-name="Trazado 2946" d="M2336.258,1281.289a.929.929,0,1,1-1.483-.194A1.082,1.082,0,0,1,2336.258,1281.289Z" transform="translate(-2330.579 -1274.708)" fill="#f9beae"/>
    </g>
    <g id="Grupo_20939" data-name="Grupo 20939" transform="translate(2313.042 1287.849)">
      <path id="Trazado_2947" data-name="Trazado 2947" d="M2497.939,1554.951l-.085.05-13.492,7.79-.085-.049-13.49-7.79,4.11-2.407,9.275-5.43,9.6,5.464,4.085,2.326Z" transform="translate(-2470.788 -1542.745)" fill="#15325c" opacity="0.33" style="mix-blend-mode: multiply;isolation: isolate"/>
      <path id="Trazado_2948" data-name="Trazado 2948" d="M2484.363,1556.151l-.085,4.732-.057,3.188-13.433-7.718v-3.26l4.11-2.408Z" transform="translate(-2470.788 -1545.255)" fill="#183561"/>
      <path id="Trazado_2949" data-name="Trazado 2949" d="M2529.586,1553.125v.1l-.057,3.211-13.576,7.718.057-3.188.085-4.732,9.408-5.432Z" transform="translate(-2502.518 -1545.335)" fill="#23477c"/>
      <path id="Trazado_2950" data-name="Trazado 2950" d="M2497.939,1540.265l-.085.049-13.492,7.79-.085-.049-13.49-7.79,4.11-2.407,9.275-5.43,9.6,5.464,4.085,2.326Z" transform="translate(-2470.788 -1532.428)" fill="#3c6a9e"/>
      <path id="Trazado_2951" data-name="Trazado 2951" d="M2485.226,1546.141l9.106-5.331,9.411,5.358-9.236,5.333Z" transform="translate(-2480.931 -1538.317)" fill="#ffd561"/>
      <path id="Trazado_2952" data-name="Trazado 2952" d="M2489.353,1547.82l7.883-4.615,8.167,4.649-8,4.617Z" transform="translate(-2483.831 -1540)" fill="#5b95d3"/>
      <path id="Trazado_2953" data-name="Trazado 2953" d="M2510.2,1556.292l1.791-1.049,1.855,1.056-1.816,1.049Z" transform="translate(-2498.479 -1548.457)" fill="#bbe0fd"/>
      <path id="Trazado_2954" data-name="Trazado 2954" d="M2497.235,1543.822l7.628,4.343.538-.311-8.167-4.649-7.883,4.615.53.307Z" transform="translate(-2483.831 -1540)" fill="#183561"/>
    </g>
    <g id="Grupo_20940" data-name="Grupo 20940" transform="translate(2361.386 1245.141)">
      <path id="Trazado_2955" data-name="Trazado 2955" d="M2633.329,1404.5l1.738,1.052,1.5-.858a6.252,6.252,0,0,0,.9.216v1.007h2.1v-.972a6.405,6.405,0,0,0,1.142-.252l1.58.9,1.739-1.052-1.582-.9a1.614,1.614,0,0,0-.027-2.306l1.517-.868-1.738-1.006-1.508.855a6.348,6.348,0,0,0-1.008-.231v-.99h-2.1v.992a6.384,6.384,0,0,0-1,.229l-1.426-.809-1.738,1.006,1.436.822a1.734,1.734,0,0,0-.5,1.17,1.717,1.717,0,0,0,.472,1.139Zm3.934-1.989c0-.443.617-.8,1.376-.8s1.377.359,1.377.8-.617.8-1.377.8S2637.263,1402.958,2637.263,1402.515Z" transform="translate(-2633.329 -1396.052)" fill="#15325c" opacity="0.33" style="mix-blend-mode: multiply;isolation: isolate"/>
      <path id="Trazado_2956" data-name="Trazado 2956" d="M2633.329,1399.869l1.5-.85a1.718,1.718,0,0,1-.472-1.139c0-.211.024-1.351.024-1.351s.316.355.475.181l-1.436-.822,1.738-1.006,1.426.809a7.059,7.059,0,0,1,4.111,0l1.508-.855,1.738,1.006-1.517.868c.158.173.511-.273.511-.273s-.012,1.229-.012,1.442a1.715,1.715,0,0,1-.471,1.138l1.582.9-1.739,1.052-1.58-.9a7.056,7.056,0,0,1-4.148,0l-1.5.858Z" transform="translate(-2633.329 -1393.053)" fill="#e8a302"/>
      <rect id="Rectángulo_4952" data-name="Rectángulo 4952" width="2.104" height="1.372" transform="translate(4.117 6.816)" fill="#fec400"/>
      <path id="Trazado_2957" data-name="Trazado 2957" d="M2635.067,1408.04v1.418l-1.738-1.052v-1.418Z" transform="translate(-2633.329 -1401.589)" fill="#fec400"/>
      <path id="Trazado_2958" data-name="Trazado 2958" d="M2633.636,1393.606v1.418l1.052.595.595-1.281Z" transform="translate(-2633.545 -1392.188)" fill="#fec400"/>
      <path id="Trazado_2959" data-name="Trazado 2959" d="M2663.474,1408.193v1.418l1.738-1.052v-1.418Z" transform="translate(-2654.508 -1401.697)" fill="#fec400"/>
      <path id="Trazado_2960" data-name="Trazado 2960" d="M2665.229,1393.453v1.418l-1.119.64-.482-1.189Z" transform="translate(-2654.616 -1392.08)" fill="#fec400"/>
      <path id="Trazado_2961" data-name="Trazado 2961" d="M2633.329,1394.236l1.738,1.052,1.5-.858a6.268,6.268,0,0,0,.9.217v1.007h2.1v-.972a6.405,6.405,0,0,0,1.142-.252l1.58.9,1.739-1.052-1.582-.9a1.716,1.716,0,0,0,.471-1.138,1.734,1.734,0,0,0-.5-1.169l1.517-.868-1.738-1.006-1.508.855a6.334,6.334,0,0,0-1.008-.23v-.99h-2.1v.992a6.37,6.37,0,0,0-1,.229l-1.426-.809-1.738,1.006,1.436.822a1.735,1.735,0,0,0-.5,1.17,1.717,1.717,0,0,0,.472,1.139Zm3.934-1.989c0-.443.617-.8,1.376-.8s1.377.359,1.377.8-.617.8-1.377.8S2637.263,1392.69,2637.263,1392.247Z" transform="translate(-2633.329 -1388.838)" fill="#ffd561"/>
    </g>
    <g id="Grupo_20941" data-name="Grupo 20941" transform="translate(2371.854 1238.982)">
      <path id="Trazado_2962" data-name="Trazado 2962" d="M2668.523,1394.167l2.889,1.749,2.493-1.426a10.349,10.349,0,0,0,1.5.36v1.674h3.5v-1.616a10.635,10.635,0,0,0,1.9-.419l2.626,1.5,2.889-1.749-2.628-1.49a2.683,2.683,0,0,0-.046-3.833l2.522-1.443-2.889-1.673-2.505,1.42a10.588,10.588,0,0,0-1.676-.383V1385.2h-3.5v1.648a10.522,10.522,0,0,0-1.659.38l-2.37-1.344-2.889,1.672,2.386,1.365a2.685,2.685,0,0,0-.047,3.836Zm6.538-3.305c0-.736,1.024-1.332,2.288-1.332s2.288.6,2.288,1.332-1.024,1.332-2.288,1.332S2675.061,1391.6,2675.061,1390.862Z" transform="translate(-2668.523 -1380.121)" fill="#15325c" opacity="0.33" style="mix-blend-mode: multiply;isolation: isolate"/>
      <path id="Trazado_2963" data-name="Trazado 2963" d="M2668.523,1386.464l2.491-1.413a2.852,2.852,0,0,1-.783-1.892c0-.351.04-2.245.04-2.245s.525.591.79.3l-2.386-1.365,2.889-1.672,2.37,1.344a11.748,11.748,0,0,1,6.833,0l2.505-1.42,2.889,1.672-2.522,1.443c.263.287.849-.454.849-.454s-.02,2.043-.02,2.4a2.854,2.854,0,0,1-.783,1.891l2.628,1.49-2.889,1.749-2.627-1.5a11.732,11.732,0,0,1-6.893,0l-2.493,1.426Z" transform="translate(-2668.523 -1375.137)" fill="#e8a302"/>
      <rect id="Rectángulo_4953" data-name="Rectángulo 4953" width="3.497" height="2.281" transform="translate(6.842 11.328)" fill="#fec400"/>
      <path id="Trazado_2964" data-name="Trazado 2964" d="M2671.412,1400.043v2.357l-2.889-1.749v-2.357Z" transform="translate(-2668.523 -1389.323)" fill="#fec400"/>
      <path id="Trazado_2965" data-name="Trazado 2965" d="M2669.035,1376.057v2.357l1.749.988.988-2.129Z" transform="translate(-2668.882 -1373.7)" fill="#fec400"/>
      <path id="Trazado_2966" data-name="Trazado 2966" d="M2718.622,1400.3v2.357l2.889-1.749v-2.357Z" transform="translate(-2703.721 -1389.503)" fill="#fec400"/>
      <path id="Trazado_2967" data-name="Trazado 2967" d="M2721.539,1375.8v2.357l-1.86,1.064-.8-1.977Z" transform="translate(-2703.9 -1373.52)" fill="#fec400"/>
      <path id="Trazado_2968" data-name="Trazado 2968" d="M2668.523,1377.1l2.889,1.749,2.493-1.426a10.414,10.414,0,0,0,1.5.36v1.674h3.5v-1.616a10.645,10.645,0,0,0,1.9-.419l2.626,1.5,2.889-1.749-2.628-1.49a2.683,2.683,0,0,0-.046-3.834l2.522-1.443-2.889-1.672-2.505,1.421a10.521,10.521,0,0,0-1.676-.383v-1.646h-3.5v1.648a10.509,10.509,0,0,0-1.659.38l-2.37-1.344-2.889,1.673,2.386,1.365a2.685,2.685,0,0,0-.047,3.836Zm6.538-3.3c0-.736,1.024-1.332,2.288-1.332s2.288.6,2.288,1.332-1.024,1.332-2.288,1.332S2675.061,1374.535,2675.061,1373.8Z" transform="translate(-2668.523 -1368.133)" fill="#ffd561"/>
    </g>
    <g id="Grupo_20942" data-name="Grupo 20942" transform="translate(2350.369 1223.605)">
      <path id="Trazado_2969" data-name="Trazado 2969" d="M2596.285,1337.27l2.492,1.508,2.149-1.23a9.04,9.04,0,0,0,1.293.31v1.444h3.016v-1.394a9.178,9.178,0,0,0,1.636-.361l2.265,1.3,2.491-1.508-2.266-1.285a2.459,2.459,0,0,0,.675-1.631,2.486,2.486,0,0,0-.715-1.675l2.175-1.244-2.491-1.443-2.161,1.225a9.081,9.081,0,0,0-1.446-.33v-1.42h-3.016v1.422a9.06,9.06,0,0,0-1.431.327l-2.044-1.159-2.492,1.443,2.058,1.177a2.315,2.315,0,0,0-.04,3.309Zm5.639-2.85c0-.635.884-1.149,1.973-1.149s1.973.514,1.973,1.149-.883,1.149-1.973,1.149S2601.925,1335.054,2601.925,1334.42Z" transform="translate(-2596.285 -1325.636)" fill="#15325c" opacity="0.33" style="mix-blend-mode: multiply;isolation: isolate"/>
      <path id="Trazado_2970" data-name="Trazado 2970" d="M2596.285,1332.241l2.149-1.218a2.461,2.461,0,0,1-.676-1.632c0-.3.035-1.935.035-1.935s.452.509.681.259l-2.058-1.178,2.492-1.442,2.044,1.159a10.127,10.127,0,0,1,5.893,0l2.16-1.225,2.492,1.443-2.175,1.245c.226.248.733-.392.733-.392s-.018,1.762-.018,2.067a2.461,2.461,0,0,1-.675,1.631l2.266,1.285-2.491,1.508-2.265-1.3a10.114,10.114,0,0,1-5.945,0l-2.149,1.23Z" transform="translate(-2596.285 -1322.472)" fill="#e8a302"/>
      <rect id="Rectángulo_4954" data-name="Rectángulo 4954" width="3.016" height="1.967" transform="translate(5.901 9.769)" fill="#fec400"/>
      <path id="Trazado_2971" data-name="Trazado 2971" d="M2598.777,1343.952v2.033l-2.492-1.508v-2.032Z" transform="translate(-2596.285 -1334.708)" fill="#fec400"/>
      <path id="Trazado_2972" data-name="Trazado 2972" d="M2596.727,1323.266v2.032l1.508.852.853-1.836Z" transform="translate(-2596.595 -1321.233)" fill="#fec400"/>
      <path id="Trazado_2973" data-name="Trazado 2973" d="M2639.493,1344.173v2.032l2.492-1.508v-2.033Z" transform="translate(-2626.642 -1334.862)" fill="#fec400"/>
      <path id="Trazado_2974" data-name="Trazado 2974" d="M2642.009,1323.045v2.033l-1.6.918-.69-1.7Z" transform="translate(-2626.797 -1321.078)" fill="#fec400"/>
      <path id="Trazado_2975" data-name="Trazado 2975" d="M2596.285,1324.169l2.492,1.508,2.149-1.23a9.024,9.024,0,0,0,1.293.311v1.444h3.016v-1.393a9.168,9.168,0,0,0,1.636-.361l2.265,1.3,2.491-1.508-2.266-1.285a2.315,2.315,0,0,0-.04-3.306l2.175-1.245-2.491-1.442-2.161,1.225a9.107,9.107,0,0,0-1.446-.33v-1.419h-3.016v1.421a9.115,9.115,0,0,0-1.431.327l-2.044-1.159-2.492,1.442,2.058,1.177a2.314,2.314,0,0,0-.04,3.308Zm5.639-2.851c0-.635.884-1.149,1.973-1.149s1.973.515,1.973,1.149-.883,1.149-1.973,1.149S2601.925,1321.953,2601.925,1321.318Z" transform="translate(-2596.285 -1316.432)" fill="#ffd561"/>
    </g>
    <g id="Grupo_20945" data-name="Grupo 20945" transform="translate(2298.764 1198.111)">
      <path id="Trazado_2976" data-name="Trazado 2976" d="M2423.281,1246.942l27.156,15.518,26.8-15.518-27.157-16.224Z" transform="translate(-2423.134 -1230.718)" fill="#5b95d3"/>
      <path id="Trazado_2977" data-name="Trazado 2977" d="M2423.789,1413.647l24.641,14.909a2.08,2.08,0,0,0,2.131.014l25.393-14.923a2.08,2.08,0,0,0,.013-3.579l-25.168-15.036a2.08,2.08,0,0,0-2.143.006l-24.865,15.05A2.08,2.08,0,0,0,2423.789,1413.647Z" transform="translate(-2422.786 -1345.953)" fill="#15325c" opacity="0.33" style="mix-blend-mode: multiply;isolation: isolate"/>
      <path id="Trazado_2978" data-name="Trazado 2978" d="M2513.4,1299.949v47.965l27.157-16.224v-47.613Z" transform="translate(-2486.448 -1268.207)" fill="#23477c"/>
      <g id="Grupo_20943" data-name="Grupo 20943" transform="translate(30.126 21.403)">
        <path id="Trazado_2979" data-name="Trazado 2979" d="M2524.072,1355.387v-40.55l20.809-12.161v40.28Zm.706-40.146v38.9l19.4-11.588v-38.65Z" transform="translate(-2524.072 -1302.676)" fill="#052754"/>
      </g>
      <path id="Trazado_2980" data-name="Trazado 2980" d="M2423.281,1284.078v47.613l26.8,16.224v-47.965Z" transform="translate(-2423.134 -1268.207)" fill="#3c6a9e"/>
      <path id="Trazado_2981" data-name="Trazado 2981" d="M2432.917,1343.073v-38.46a1.56,1.56,0,0,1,2.355-1.343l17.952,10.629a1.561,1.561,0,0,1,.765,1.343v38.7a1.56,1.56,0,0,1-2.368,1.335l-17.951-10.865A1.56,1.56,0,0,1,2432.917,1343.073Z" transform="translate(-2429.904 -1281.537)" fill="#23477c"/>
      <path id="Trazado_2982" data-name="Trazado 2982" d="M2435.989,1343.351a1.56,1.56,0,0,1-.753-1.335v-38.46a1.636,1.636,0,0,1,.014-.21l-.127-.075a1.561,1.561,0,0,0-2.355,1.343v38.46a1.561,1.561,0,0,0,.752,1.335l17.952,10.865a1.561,1.561,0,0,0,2.354-1.127Z" transform="translate(-2429.799 -1281.537)" fill="#052754"/>
      <path id="Trazado_2983" data-name="Trazado 2983" d="M2462.259,1325.35l-17.634-10.441v6l17.634,10.441Z" transform="translate(-2438.129 -1289.868)" fill="#5b95d3"/>
      <path id="Trazado_2984" data-name="Trazado 2984" d="M2462.259,1350.251l-17.634-10.441v6l17.634,10.442Z" transform="translate(-2438.129 -1307.362)" fill="#5b95d3"/>
      <path id="Trazado_2985" data-name="Trazado 2985" d="M2462.259,1375.152l-17.634-10.441v6l17.634,10.441Z" transform="translate(-2438.129 -1324.857)" fill="#5b95d3"/>
      <path id="Trazado_2986" data-name="Trazado 2986" d="M2462.259,1400.054l-17.634-10.441v6l17.634,10.442Z" transform="translate(-2438.129 -1342.352)" fill="#5b95d3"/>
      <path id="Trazado_2987" data-name="Trazado 2987" d="M2462.259,1424.955l-17.634-10.442v6l17.634,10.442Z" transform="translate(-2438.129 -1359.847)" fill="#5b95d3"/>
      <g id="Grupo_20944" data-name="Grupo 20944" transform="translate(9.523 27.862)">
        <path id="Trazado_2988" data-name="Trazado 2988" d="M2454.8,1324.395v3.937l11.58,6.857v-3.937Z" transform="translate(-2454.802 -1324.395)" fill="#d6effb"/>
        <path id="Trazado_2989" data-name="Trazado 2989" d="M2454.8,1353.233l11.58,6.857v-3.937l-11.58-6.857Z" transform="translate(-2454.802 -1341.89)" fill="#d6effb"/>
        <path id="Trazado_2990" data-name="Trazado 2990" d="M2454.8,1378.135l11.58,6.857v-3.937l-11.58-6.857Z" transform="translate(-2454.802 -1359.384)" fill="#d6effb"/>
        <path id="Trazado_2991" data-name="Trazado 2991" d="M2454.8,1403.036l11.58,6.857v-3.937l-11.58-6.857Z" transform="translate(-2454.802 -1376.879)" fill="#d6effb"/>
        <path id="Trazado_2992" data-name="Trazado 2992" d="M2454.8,1427.937l11.58,6.857v-3.937L2454.8,1424Z" transform="translate(-2454.802 -1394.374)" fill="#d6effb"/>
      </g>
    </g>
  </g>
</svg>
