<svg xmlns="http://www.w3.org/2000/svg" xmlns:xlink="http://www.w3.org/1999/xlink" width="505" height="381" viewBox="0 0 505 381">
  <defs>
    <clipPath id="clip-path">
      <rect id="Rectángulo_4860" data-name="Rectángulo 4860" width="101" height="96" transform="translate(-0.46 0.079)" fill="#fff" stroke="#707070" stroke-width="1"/>
    </clipPath>
    <clipPath id="clip-path-2">
      <rect id="Rectángulo_4861" data-name="Rectángulo 4861" width="100" height="96" transform="translate(-0.01 0.079)" fill="#fff" stroke="#707070" stroke-width="1"/>
    </clipPath>
    <clipPath id="clip-path-3">
      <rect id="Rectángulo_4862" data-name="Rectángulo 4862" width="101" height="96" transform="translate(0.44 0.079)" fill="#fff" stroke="#707070" stroke-width="1"/>
    </clipPath>
  </defs>
  <g id="Grupo_21464" data-name="Grupo 21464" transform="translate(0 0.001)">
    <rect id="Rectángulo_5185" data-name="Rectángulo 5185" width="505" height="381" transform="translate(0 -0.001)" fill="#f3f9ff"/>
    <g id="Grupo_20811" data-name="Grupo 20811" transform="translate(33.33 89.89)">
      <rect id="Rectángulo_4859" data-name="Rectángulo 4859" width="440" height="37" transform="translate(-0.33 0.11)" fill="#cdedfe"/>
      <rect id="Rectángulo_4883" data-name="Rectángulo 4883" width="128" height="160" rx="10" transform="translate(-0.33 91.109)" fill="#fce8ac"/>
      <g id="Enmascarar_grupo_4" data-name="Enmascarar grupo 4" transform="translate(13.13 104.03)" clip-path="url(#clip-path)">
        <g id="matricula" transform="translate(0.264 15.706)">
          <path id="Trazado_2599" data-name="Trazado 2599" d="M99.622,3.738V62.243A1.63,1.63,0,0,1,98,63.868H3.738a1.63,1.63,0,0,1-1.625-1.625V3.738A1.63,1.63,0,0,1,3.738,2.113H98A1.63,1.63,0,0,1,99.622,3.738Zm0,0" transform="translate(-0.488 -0.488)" fill="#fcd770"/>
          <path id="Trazado_2600" data-name="Trazado 2600" d="M10.565,10.565H95.072V59.319H10.565Zm0,0" transform="translate(-2.439 -2.439)" fill="#e6e9ed"/>
          <path id="Trazado_2601" data-name="Trazado 2601" d="M97.509,0H3.25A3.254,3.254,0,0,0,0,3.25V61.756a3.254,3.254,0,0,0,3.25,3.25H97.509a3.254,3.254,0,0,0,3.25-3.25V3.25A3.254,3.254,0,0,0,97.509,0Zm0,61.756H3.25V3.25H97.509Zm0,0"/>
          <path id="Trazado_2602" data-name="Trazado 2602" d="M96.21,8.452H8.452v52H96.21Zm-3.25,48.754H11.7V11.7H92.959Zm0,0" transform="translate(-1.951 -1.951)"/>
          <path id="Trazado_2603" data-name="Trazado 2603" d="M109.871,16.9h3.25v3.25h-3.25Zm0,0" transform="translate(-25.363 -3.902)"/>
          <path id="Trazado_2604" data-name="Trazado 2604" d="M16.9,16.9h3.25v3.25H16.9Zm0,0" transform="translate(-3.902 -3.902)"/>
          <path id="Trazado_2605" data-name="Trazado 2605" d="M109.871,63.387h3.25v3.25h-3.25Zm0,0" transform="translate(-25.363 -14.633)"/>
          <path id="Trazado_2606" data-name="Trazado 2606" d="M16.9,63.387h3.25v3.25H16.9Zm0,0" transform="translate(-3.902 -14.633)"/>
          <path id="Trazado_2607" data-name="Trazado 2607" d="M19.016,42.094a8.126,8.126,0,1,0,16.251,0h-3.25a4.875,4.875,0,1,1-9.751,0v-6.5a4.875,4.875,0,1,1,9.751,0h3.25a8.126,8.126,0,0,0-16.251,0Zm0,0" transform="translate(-4.39 -6.341)"/>
          <path id="Trazado_2608" data-name="Trazado 2608" d="M44.371,40.145h9.751V43.4H44.371Zm0,0" transform="translate(-10.243 -9.267)"/>
          <path id="Trazado_2609" data-name="Trazado 2609" d="M66.8,32.343v3.25a1.627,1.627,0,0,1-1.625,1.625H60.3v3.25h4.875A1.627,1.627,0,0,1,66.8,42.094v3.25a1.627,1.627,0,0,1-1.625,1.625H57.048v3.25h8.126a4.882,4.882,0,0,0,4.875-4.875v-3.25a4.844,4.844,0,0,0-1.267-3.25,4.837,4.837,0,0,0,1.267-3.25v-3.25a4.882,4.882,0,0,0-4.875-4.875H57.048v3.25h8.126A1.627,1.627,0,0,1,66.8,32.343Zm0,0" transform="translate(-13.169 -6.341)"/>
          <path id="Trazado_2610" data-name="Trazado 2610" d="M91.179,46.97H82.1l6.31-6.31a9.528,9.528,0,0,0,2.768-6.691,6.5,6.5,0,0,0-13,0v1.625h3.25V33.968a3.25,3.25,0,0,1,6.5,0,6.254,6.254,0,0,1-1.816,4.393L78.177,46.3V50.22h13Zm0,0" transform="translate(-18.047 -6.341)"/>
          <path id="Trazado_2611" data-name="Trazado 2611" d="M109.057,46.97h-3.25v-19.5h-6.5v3.25h3.25V46.97h-3.25v3.25h9.751Zm0,0" transform="translate(-22.925 -6.341)"/>
        </g>
      </g>
      <rect id="Rectángulo_4881" data-name="Rectángulo 4881" width="126" height="160" rx="10" transform="translate(156.67 91.109)" fill="#fce8ac"/>
      <rect id="Rectángulo_4882" data-name="Rectángulo 4882" width="128" height="160" rx="10" transform="translate(311.67 91.109)" fill="#fce8ac"/>
      <g id="Enmascarar_grupo_2" data-name="Enmascarar grupo 2" transform="translate(169.68 104.03)" clip-path="url(#clip-path-2)">
        <g id="chasis" transform="translate(8.106 0.137)">
          <rect id="Rectángulo_4863" data-name="Rectángulo 4863" width="6.203" height="62.029" transform="translate(38.768 21.71)" fill="#afb8c9"/>
          <g id="Grupo_20804" data-name="Grupo 20804" transform="translate(38.768 21.71)">
            <rect id="Rectángulo_4864" data-name="Rectángulo 4864" width="6.203" height="9.304" fill="#8c95a4"/>
            <rect id="Rectángulo_4865" data-name="Rectángulo 4865" width="6.203" height="9.304" transform="translate(0 48.072)" fill="#8c95a4"/>
          </g>
          <g id="Grupo_20805" data-name="Grupo 20805" transform="translate(9.304 10.855)">
            <path id="Trazado_2584" data-name="Trazado 2584" d="M85.291,101.426H59.825a7.743,7.743,0,0,0-14.2,0H20.161v6.2H45.627a7.743,7.743,0,0,0,14.2,0H85.291Z" transform="translate(-20.161 -33.195)" fill="#ececec"/>
            <rect id="Rectángulo_4866" data-name="Rectángulo 4866" width="65.13" height="6.203" transform="translate(0)" fill="#ececec"/>
          </g>
          <g id="Grupo_20806" data-name="Grupo 20806" transform="translate(9.304 10.855)">
            <rect id="Rectángulo_4867" data-name="Rectángulo 4867" width="9.304" height="6.203" transform="translate(55.826)" fill="#b6c1ce"/>
            <rect id="Rectángulo_4868" data-name="Rectángulo 4868" width="9.304" height="6.203" fill="#b6c1ce"/>
            <rect id="Rectángulo_4869" data-name="Rectángulo 4869" width="9.304" height="6.203" transform="translate(55.826 68.231)" fill="#b6c1ce"/>
            <rect id="Rectángulo_4870" data-name="Rectángulo 4870" width="9.304" height="6.203" transform="translate(0 68.231)" fill="#b6c1ce"/>
          </g>
          <g id="Grupo_20807" data-name="Grupo 20807" transform="translate(1.551 1.551)">
            <rect id="Rectángulo_4871" data-name="Rectángulo 4871" width="12.406" height="24.811" fill="#afb8c9"/>
            <rect id="Rectángulo_4872" data-name="Rectángulo 4872" width="12.406" height="24.811" transform="translate(68.231)" fill="#afb8c9"/>
          </g>
          <rect id="Rectángulo_4873" data-name="Rectángulo 4873" width="6.203" height="24.811" transform="translate(75.985 1.551)" fill="#8c95a4"/>
          <rect id="Rectángulo_4874" data-name="Rectángulo 4874" width="12.406" height="24.811" transform="translate(1.551 69.782)" fill="#afb8c9"/>
          <rect id="Rectángulo_4875" data-name="Rectángulo 4875" width="6.203" height="24.811" transform="translate(7.754 1.551)" fill="#8c95a4"/>
          <rect id="Rectángulo_4876" data-name="Rectángulo 4876" width="12.406" height="24.811" transform="translate(69.782 69.782)" fill="#afb8c9"/>
          <g id="Grupo_20808" data-name="Grupo 20808" transform="translate(7.754 69.782)">
            <rect id="Rectángulo_4877" data-name="Rectángulo 4877" width="6.203" height="24.811" transform="translate(68.231)" fill="#8c95a4"/>
            <rect id="Rectángulo_4878" data-name="Rectángulo 4878" width="6.203" height="24.811" fill="#8c95a4"/>
          </g>
          <path id="Trazado_2585" data-name="Trazado 2585" d="M67,27.758H51.489a3.1,3.1,0,0,1-3.1-3.1V11.066A3.1,3.1,0,0,1,50.1,8.292L54.59,6.048h9.3l4.488,2.244A3.1,3.1,0,0,1,70.1,11.066v13.59A3.1,3.1,0,0,1,67,27.758Z" transform="translate(-17.373 -1.396)" fill="#fcd770"/>
          <rect id="Rectángulo_4879" data-name="Rectángulo 4879" width="9.304" height="9.304" transform="translate(37.217 4.652)" fill="#ffc729"/>
          <path id="Trazado_2586" data-name="Trazado 2586" d="M91.8,27.913V0H76.3V9.3H62.315A4.613,4.613,0,0,0,59.768,5.51L54.952,3.1H44.916L40.1,5.51A4.619,4.619,0,0,0,37.553,9.3H23.572V0H8.065V27.913H23.572v-9.3h7.754V36.851l-4.652,9.3v31.38h-3.1v-9.3H8.065V96.144H23.572v-9.3H41.884a9.29,9.29,0,0,0,16.1,0H76.3v9.3H91.8V68.231H76.3v9.3h-3.1V46.155l-4.652-9.3V18.609H76.3v9.3ZM88.7,3.1V6.2H85.6V9.3h3.1v3.1H85.6v3.1h3.1v3.1H85.6v3.1h3.1v3.1H79.4v-3.1h3.1v-3.1H79.4v-3.1h3.1v-3.1H79.4V9.3h3.1V6.2H79.4V3.1ZM46.832,6.2h6.2v6.2h-6.2Zm-6.2,3.467a1.541,1.541,0,0,1,.858-1.386l2.244-1.123v8.346H56.137V7.161l2.244,1.123a1.541,1.541,0,0,1,.858,1.386v13.59a1.553,1.553,0,0,1-1.551,1.551H42.18a1.553,1.553,0,0,1-1.551-1.551ZM11.166,24.811v-3.1h3.1v-3.1h-3.1v-3.1h3.1v-3.1h-3.1V9.3h3.1V6.2h-3.1V3.1h9.3V6.2h-3.1V9.3h3.1v3.1h-3.1v3.1h3.1v3.1h-3.1v3.1h3.1v3.1ZM23.572,12.406H37.528v3.1H23.572Zm6.2,34.482,4.652-9.3V18.609h3.1v4.652a4.658,4.658,0,0,0,4.652,4.652h3.1V74.135a9.3,9.3,0,0,0-3.4,3.4H29.775ZM11.166,93.043v-3.1h3.1v-3.1h-3.1v-3.1h3.1v-3.1h-3.1v-3.1h3.1v-3.1h-3.1v-3.1h9.3v3.1h-3.1v3.1h3.1v3.1h-3.1v3.1h3.1v3.1h-3.1v3.1h3.1v3.1ZM88.7,71.333v3.1H85.6v3.1h3.1v3.1H85.6v3.1h3.1v3.1H85.6v3.1h3.1v3.1H79.4v-3.1h3.1v-3.1H79.4v-3.1h3.1v-3.1H79.4v-3.1h3.1v-3.1H79.4v-3.1ZM76.3,83.738H56.019l-.406.929a6.192,6.192,0,0,1-11.357,0l-.406-.929H23.572v-3.1H43.849l.406-.929a6.192,6.192,0,0,1,11.357,0l.406.929H76.3Zm-6.2-36.851V77.536H57.984a9.316,9.316,0,0,0-3.4-3.4v-5.9h-3.1v4.8a8.321,8.321,0,0,0-3.1,0V27.913h3.1V65.13h3.1V27.913h3.1a4.658,4.658,0,0,0,4.652-4.652V18.609h3.1V37.583Zm-7.754-31.38v-3.1H76.3v3.1Z" transform="translate(-8.065)"/>
        </g>
      </g>
      <g id="Enmascarar_grupo_3" data-name="Enmascarar grupo 3" transform="translate(326.23 104.03)" clip-path="url(#clip-path-3)">
        <g id="cinturon-de-seguridad" transform="translate(1.533 0.137)">
          <rect id="Rectángulo_4880" data-name="Rectángulo 4880" width="18.609" height="20.159" transform="translate(39.442 51.174)" fill="#f9e0a6"/>
          <path id="Trazado_2587" data-name="Trazado 2587" d="M55.93,2.892A24.811,24.811,0,0,0,31.119,27.7V38.559H80.742V27.7A24.811,24.811,0,0,0,55.93,2.892Z" transform="translate(-7.184 -1.341)" fill="#d3a06c"/>
          <path id="Trazado_2588" data-name="Trazado 2588" d="M62.679,2.892c-.785,0-1.56.047-2.326.118A24.808,24.808,0,0,1,82.838,27.7V38.559H87.49V27.7A24.811,24.811,0,0,0,62.679,2.892Z" transform="translate(-13.932 -1.341)" fill="#b27946"/>
          <g id="Grupo_20809" data-name="Grupo 20809" transform="translate(23.935 24.811)">
            <path id="Trazado_2589" data-name="Trazado 2589" d="M37.322,53.6h0a6.2,6.2,0,0,1-6.2-6.2h0a6.2,6.2,0,0,1,6.2-6.2H74.539a6.2,6.2,0,0,1,6.2,6.2h0a6.2,6.2,0,0,1-6.2,6.2H37.322Z" transform="translate(-31.119 -34.996)" fill="#f9e0a6"/>
            <path id="Trazado_2590" data-name="Trazado 2590" d="M39.183,36.236V48.641A18.609,18.609,0,0,0,57.792,67.25h0A18.609,18.609,0,0,0,76.4,48.641V36.236a3.1,3.1,0,0,0-3.1-3.1H42.285A3.1,3.1,0,0,0,39.183,36.236Z" transform="translate(-32.981 -33.134)" fill="#f9e0a6"/>
          </g>
          <path id="Trazado_2591" data-name="Trazado 2591" d="M78.186,33.134H73.534a3.1,3.1,0,0,1,3.1,3.1V48.641A18.6,18.6,0,0,1,60.353,67.088,18.5,18.5,0,0,0,81.287,48.641V36.235A3.1,3.1,0,0,0,78.186,33.134Z" transform="translate(-13.932 -8.323)" fill="#eabd8c"/>
          <path id="Trazado_2592" data-name="Trazado 2592" d="M49.415,85.708c7.754,0,9.3-6.2,9.3-6.2L74.55,82.3A18.607,18.607,0,0,1,88.778,94.192l7.158,19.429H2.893l7.158-19.429A18.607,18.607,0,0,1,24.279,82.3L40.11,79.505S41.661,85.708,49.415,85.708Z" transform="translate(-0.668 -19.027)" fill="#92e0c0"/>
          <g id="Grupo_20810" data-name="Grupo 20810" transform="translate(15.15 61.883)">
            <path id="Trazado_2593" data-name="Trazado 2593" d="M63.936,108.126l-12.655,12.1H76.036Z" transform="translate(-26.988 -87.517)" fill="#afb8c9"/>
            <path id="Trazado_2594" data-name="Trazado 2594" d="M19.7,86.593,32.886,99.782l10.8-10.8-7.651-7.651h0l-7.876,1.389A18.56,18.56,0,0,0,19.7,86.593Z" transform="translate(-19.698 -81.332)" fill="#afb8c9"/>
          </g>
          <path id="Trazado_2595" data-name="Trazado 2595" d="M105.046,94.192A18.61,18.61,0,0,0,90.818,82.3L74.987,79.505a8.345,8.345,0,0,1-1.622,2.949l.071.152,12.244,5.248a21.658,21.658,0,0,1,12.294,13.958l3.374,11.809H112.2Z" transform="translate(-16.936 -19.027)" fill="#48c397"/>
          <path id="Trazado_2596" data-name="Trazado 2596" d="M60.335,99.65,51.7,91.011a3.056,3.056,0,0,0-4.32,0l-10.8,10.8a3.056,3.056,0,0,0,0,4.32l8.639,8.639a3.056,3.056,0,0,0,4.32,0l10.8-10.8A3.056,3.056,0,0,0,60.335,99.65Z" transform="translate(-8.237 -21.477)" fill="#ececec"/>
          <path id="Trazado_2597" data-name="Trazado 2597" d="M48.924,97.209,46.016,94.3l-6.147,6.149,2.908,2.908a4.347,4.347,0,1,0,6.147-6.149Z" transform="translate(-9.204 -22.443)" fill="#fcd770"/>
          <path id="Trazado_2598" data-name="Trazado 2598" d="M89.565,75.5A20.226,20.226,0,0,0,74.152,62.621L59.6,60.053v-1.8H59.44a20.2,20.2,0,0,0,8.929-12.508,7.739,7.739,0,0,0,6.739-7.651V27.238a26.362,26.362,0,0,0-52.724,0V38.093a7.739,7.739,0,0,0,6.739,7.651,20.193,20.193,0,0,0,8.929,12.508h-.161v1.8l-14.55,2.568A20.22,20.22,0,0,0,7.929,75.5L0,97.02H97.492Zm-2.911,1.072,6.389,17.343H64.84L54.087,83.165a4.6,4.6,0,0,0-.893-5.212l-8.641-8.641a4.594,4.594,0,0,0-5.212-.893l-4.652-4.652,3.751-.662c1.228,2.6,4.353,6,10.306,6s9.078-3.4,10.306-6l14.56,2.568A17.113,17.113,0,0,1,86.654,76.576ZM36.946,70.408l-8.608,8.606-2.126-2.126,8.606-8.606Zm1.678,6.332a2.8,2.8,0,0,1-3.954,3.954l-1.813-1.811,3.956-3.954Zm-9.19,5.566,1.23-1.23,1.813,1.811a5.9,5.9,0,0,0,8.338-8.34L39,72.736l1.23-1.23a1.507,1.507,0,0,1,2.128,0L51,80.145a1.5,1.5,0,0,1,0,2.126l-1.1,1.1L46.7,80.38l-2.12,2.266,3.122,2.92-4.212,4.212-2.92-3.122-2.266,2.12,2.99,3.2-1.1,1.1a1.505,1.505,0,0,1-2.126,0L29.434,84.43A1.5,1.5,0,0,1,29.434,82.305ZM52.1,85.562l2.126,2.126-6.229,6.231H43.741Zm4.32,4.319,4.037,4.038H52.38ZM56.5,61.127c-.267.808-1.9,4.879-7.754,4.879s-7.482-4.052-7.754-4.879V59.8a20.1,20.1,0,0,0,15.507,0ZM68.841,42.48c.028-.428.065-.851.065-1.286V33.726a4.624,4.624,0,0,1-.065,8.754ZM25.486,38.093a4.646,4.646,0,0,1,3.1-4.367v7.468c0,.434.037.858.065,1.286A4.644,4.644,0,0,1,25.486,38.093Zm6.2,3.1V28.789a1.551,1.551,0,0,1,1.551-1.551H56.5v-3.1H33.24a4.658,4.658,0,0,0-4.652,4.652V30.5a7.7,7.7,0,0,0-3.1,1.433V27.238a23.261,23.261,0,0,1,46.521,0v4.692a7.679,7.679,0,0,0-3.1-1.433V28.789a4.658,4.658,0,0,0-4.652-4.652H59.6v3.1h4.652A1.551,1.551,0,0,1,65.8,28.789V41.195a17.058,17.058,0,0,1-34.116,0Zm-7.808,24.48,7.081-1.248,1.664,1.664L24.019,74.7l-6.488-6.49A17,17,0,0,1,23.881,65.674Zm-13.042,10.9A16.976,16.976,0,0,1,15.1,70.162L26.35,81.411a4.6,4.6,0,0,0,.893,5.212l7.293,7.3H4.451Z" transform="translate(0 -0.876)"/>
        </g>
      </g>
      <path id="Trazado_101130" data-name="Trazado 101130" d="M-38.7,0h-2.556l-3.779-6.636V0h-2.571V-10.664h2.571l3.772,6.636v-6.636H-38.7Zm6.233-.857a2.545,2.545,0,0,1-2.117,1,2.5,2.5,0,0,1-1.974-.758,3.188,3.188,0,0,1-.67-2.179V-7.925h2.468v5.149a.887.887,0,0,0,.989,1.018,1.29,1.29,0,0,0,1.208-.608V-7.925h2.483V0H-32.4Zm-.879-10.393h2.607l-2.036,2.3-2.014,0ZM-26.4-7.925l.081.93a2.725,2.725,0,0,1,2.263-1.077,2.006,2.006,0,0,1,2.029,1.194,2.637,2.637,0,0,1,2.329-1.194q2.41,0,2.476,2.915V0h-2.476V-5a1.511,1.511,0,0,0-.205-.886.873.873,0,0,0-.747-.278,1.169,1.169,0,0,0-1.091.652l.007.1V0h-2.476V-4.988a1.588,1.588,0,0,0-.2-.9.87.87,0,0,0-.754-.278,1.184,1.184,0,0,0-1.084.652V0h-2.468V-7.925ZM-11.975.146A4.074,4.074,0,0,1-14.927-.941a3.756,3.756,0,0,1-1.128-2.831v-.205a4.867,4.867,0,0,1,.45-2.146A3.3,3.3,0,0,1-14.29-7.562a3.969,3.969,0,0,1,2.051-.509A3.43,3.43,0,0,1-9.6-7.035a4.073,4.073,0,0,1,.967,2.889v.959h-4.907a1.779,1.779,0,0,0,.579,1.047,1.722,1.722,0,0,0,1.157.381,2.218,2.218,0,0,0,1.831-.82l1.128,1.333A3.153,3.153,0,0,1-10.155-.231,4.418,4.418,0,0,1-11.975.146Zm-.278-6.313q-1.084,0-1.289,1.436h2.49v-.19a1.223,1.223,0,0,0-.3-.919A1.2,1.2,0,0,0-12.253-6.167Zm9.4.476-.813-.059a1.46,1.46,0,0,0-1.494.732V0H-7.625V-7.925H-5.31l.081,1.018A1.911,1.911,0,0,1-3.494-8.071a2.407,2.407,0,0,1,.688.088Zm.315,1.655a4.677,4.677,0,0,1,.461-2.113A3.3,3.3,0,0,1-.747-7.573a3.993,3.993,0,0,1,2.029-.5,3.644,3.644,0,0,1,2.805,1.1,4.23,4.23,0,0,1,1.025,3v.088A4.1,4.1,0,0,1,4.083-.941,3.654,3.654,0,0,1,1.3.146,3.7,3.7,0,0,1-1.421-.868a3.968,3.968,0,0,1-1.106-2.75Zm2.468.154A2.949,2.949,0,0,0,.278-2.271,1.147,1.147,0,0,0,1.3-1.758q1.318,0,1.348-2.029v-.249q0-2.131-1.362-2.131-1.238,0-1.34,1.838Zm12.188,5.72H5.508V0h6.614ZM20.178-3.9a4.779,4.779,0,0,1-.831,2.948A2.665,2.665,0,0,1,17.1.146a2.285,2.285,0,0,1-1.794-.8v3.7H12.839V-7.925h2.307l.073.732a2.285,2.285,0,0,1,1.868-.879,2.687,2.687,0,0,1,2.278,1.08,4.838,4.838,0,0,1,.813,2.97ZM17.71-4.058q0-2.109-1.23-2.109a1.162,1.162,0,0,0-1.172.63v3.12a1.2,1.2,0,0,0,1.187.659q1.179,0,1.216-2.036ZM23.87,0H21.394V-11.25H23.87Zm5.984,0a2.787,2.787,0,0,1-.234-.71,2.3,2.3,0,0,1-1.9.857,2.812,2.812,0,0,1-1.9-.677,2.156,2.156,0,0,1-.784-1.7,2.216,2.216,0,0,1,.952-1.948,4.851,4.851,0,0,1,2.769-.659h.762v-.42q0-1.1-.945-1.1a.772.772,0,0,0-.879.868H25.217A2.213,2.213,0,0,1,26.2-7.354a4.109,4.109,0,0,1,2.494-.717,3.6,3.6,0,0,1,2.4.74,2.572,2.572,0,0,1,.9,2.029v3.508a3.593,3.593,0,0,0,.337,1.67V0ZM28.308-1.611a1.377,1.377,0,0,0,.765-.2,1.239,1.239,0,0,0,.436-.447V-3.523h-.718q-1.289,0-1.289,1.157a.707.707,0,0,0,.227.546A.822.822,0,0,0,28.308-1.611ZM36.7-1.758a1.1,1.1,0,0,0,.806-.282,1.034,1.034,0,0,0,.278-.787H40.1a2.74,2.74,0,0,1-.934,2.139A3.474,3.474,0,0,1,36.76.146,3.517,3.517,0,0,1,34.036-.937a4.271,4.271,0,0,1-1-3v-.1a4.827,4.827,0,0,1,.443-2.12,3.226,3.226,0,0,1,1.278-1.414,3.811,3.811,0,0,1,1.978-.494,3.43,3.43,0,0,1,2.454.857A3.039,3.039,0,0,1,40.1-4.893H37.786a1.355,1.355,0,0,0-.3-.945,1.037,1.037,0,0,0-.806-.33q-.959,0-1.121,1.223a8.631,8.631,0,0,0-.051,1.069,3.39,3.39,0,0,0,.286,1.655A.989.989,0,0,0,36.7-1.758ZM45.608,0a2.787,2.787,0,0,1-.234-.71,2.3,2.3,0,0,1-1.9.857,2.812,2.812,0,0,1-1.9-.677,2.156,2.156,0,0,1-.784-1.7,2.216,2.216,0,0,1,.952-1.948A4.851,4.851,0,0,1,44.5-4.841h.762v-.42q0-1.1-.945-1.1a.772.772,0,0,0-.879.868H40.972a2.213,2.213,0,0,1,.978-1.865,4.109,4.109,0,0,1,2.494-.717,3.6,3.6,0,0,1,2.4.74,2.572,2.572,0,0,1,.9,2.029v3.508a3.593,3.593,0,0,0,.337,1.67V0ZM44.063-1.611a1.377,1.377,0,0,0,.765-.2,1.239,1.239,0,0,0,.436-.447V-3.523h-.718q-1.289,0-1.289,1.157a.707.707,0,0,0,.227.546A.822.822,0,0,0,44.063-1.611Z" transform="translate(61.67 231.11)" fill="#111e61"/>
      <path id="Trazado_101131" data-name="Trazado 101131" d="M-42.415,0h-2.556L-48.75-6.636V0h-2.571V-10.664h2.571l3.772,6.636v-6.636h2.563Zm6.233-.857a2.545,2.545,0,0,1-2.117,1,2.5,2.5,0,0,1-1.974-.758,3.188,3.188,0,0,1-.67-2.179V-7.925h2.468v5.149a.887.887,0,0,0,.989,1.018,1.29,1.29,0,0,0,1.208-.608V-7.925h2.483V0h-2.314Zm-.879-10.393h2.607l-2.036,2.3-2.014,0Zm6.951,3.325.081.93a2.725,2.725,0,0,1,2.263-1.077,2.006,2.006,0,0,1,2.029,1.194,2.637,2.637,0,0,1,2.329-1.194q2.41,0,2.476,2.915V0h-2.476V-5a1.511,1.511,0,0,0-.205-.886.873.873,0,0,0-.747-.278,1.169,1.169,0,0,0-1.091.652l.007.1V0H-27.92V-4.988a1.588,1.588,0,0,0-.2-.9.87.87,0,0,0-.754-.278,1.184,1.184,0,0,0-1.084.652V0h-2.468V-7.925ZM-15.688.146A4.074,4.074,0,0,1-18.64-.941a3.756,3.756,0,0,1-1.128-2.831v-.205a4.867,4.867,0,0,1,.45-2.146A3.3,3.3,0,0,1-18-7.562a3.969,3.969,0,0,1,2.051-.509,3.43,3.43,0,0,1,2.637,1.036,4.073,4.073,0,0,1,.967,2.889v.959h-4.907a1.779,1.779,0,0,0,.579,1.047,1.722,1.722,0,0,0,1.157.381,2.218,2.218,0,0,0,1.831-.82l1.128,1.333A3.153,3.153,0,0,1-13.868-.231,4.418,4.418,0,0,1-15.688.146Zm-.278-6.313q-1.084,0-1.289,1.436h2.49v-.19a1.223,1.223,0,0,0-.3-.919A1.2,1.2,0,0,0-15.967-6.167Zm9.4.476-.813-.059a1.46,1.46,0,0,0-1.494.732V0h-2.468V-7.925h2.314l.081,1.018A1.911,1.911,0,0,1-7.207-8.071a2.407,2.407,0,0,1,.688.088Zm.315,1.655a4.677,4.677,0,0,1,.461-2.113A3.3,3.3,0,0,1-4.46-7.573a3.993,3.993,0,0,1,2.029-.5,3.644,3.644,0,0,1,2.805,1.1,4.23,4.23,0,0,1,1.025,3v.088A4.1,4.1,0,0,1,.37-.941,3.654,3.654,0,0,1-2.417.146,3.7,3.7,0,0,1-5.134-.868,3.968,3.968,0,0,1-6.24-3.618Zm2.468.154a2.949,2.949,0,0,0,.344,1.611,1.147,1.147,0,0,0,1.018.513q1.318,0,1.348-2.029v-.249q0-2.131-1.362-2.131-1.238,0-1.34,1.838ZM8.408,1.838H1.794V0H8.408Zm4.05-3.6a1.1,1.1,0,0,0,.806-.282,1.034,1.034,0,0,0,.278-.787h2.314a2.74,2.74,0,0,1-.934,2.139,3.474,3.474,0,0,1-2.406.835A3.517,3.517,0,0,1,9.792-.937a4.271,4.271,0,0,1-1-3v-.1a4.827,4.827,0,0,1,.443-2.12,3.226,3.226,0,0,1,1.278-1.414A3.811,3.811,0,0,1,12.5-8.071a3.43,3.43,0,0,1,2.454.857,3.039,3.039,0,0,1,.908,2.322H13.542a1.355,1.355,0,0,0-.3-.945,1.037,1.037,0,0,0-.806-.33q-.959,0-1.121,1.223a8.631,8.631,0,0,0-.051,1.069,3.39,3.39,0,0,0,.286,1.655A.989.989,0,0,0,12.458-1.758Zm6.855-5.317a2.47,2.47,0,0,1,2.021-1,2.463,2.463,0,0,1,1.978.776A3.488,3.488,0,0,1,23.994-5V0H21.519V-4.944a1.4,1.4,0,0,0-.256-.927,1.1,1.1,0,0,0-.872-.3,1.186,1.186,0,0,0-1.077.483V0H16.846V-11.25h2.468ZM29.832,0A2.787,2.787,0,0,1,29.6-.71a2.3,2.3,0,0,1-1.9.857,2.812,2.812,0,0,1-1.9-.677A2.156,2.156,0,0,1,25-2.234a2.216,2.216,0,0,1,.952-1.948,4.851,4.851,0,0,1,2.769-.659h.762v-.42q0-1.1-.945-1.1a.772.772,0,0,0-.879.868H25.2a2.213,2.213,0,0,1,.978-1.865,4.109,4.109,0,0,1,2.494-.717,3.6,3.6,0,0,1,2.4.74,2.572,2.572,0,0,1,.9,2.029v3.508A3.593,3.593,0,0,0,32.3-.125V0ZM28.286-1.611a1.377,1.377,0,0,0,.765-.2,1.239,1.239,0,0,0,.436-.447V-3.523H28.77q-1.289,0-1.289,1.157a.707.707,0,0,0,.227.546A.822.822,0,0,0,28.286-1.611Zm9.192-.615a.57.57,0,0,0-.33-.505,5.013,5.013,0,0,0-1.252-.4,5.711,5.711,0,0,1-1.523-.538,2.552,2.552,0,0,1-.916-.809,1.933,1.933,0,0,1-.315-1.091,2.19,2.19,0,0,1,.9-1.8A3.711,3.711,0,0,1,36.4-8.071a4.112,4.112,0,0,1,2.52.71,2.222,2.222,0,0,1,.952,1.868H37.4q0-.952-1-.952a1,1,0,0,0-.652.216.669.669,0,0,0-.264.538.614.614,0,0,0,.322.535,3.045,3.045,0,0,0,1.029.337,8.893,8.893,0,0,1,1.241.315,2.255,2.255,0,0,1,1.787,2.2A2.075,2.075,0,0,1,38.9-.535,4.224,4.224,0,0,1,36.4.146,4.31,4.31,0,0,1,34.585-.22a3.037,3.037,0,0,1-1.245-1,2.256,2.256,0,0,1-.447-1.326H35.2a.954.954,0,0,0,.366.8,1.506,1.506,0,0,0,.9.253,1.185,1.185,0,0,0,.758-.205A.656.656,0,0,0,37.478-2.227ZM43.616,0H41.14V-7.925h2.476ZM40.994-9.976a1.111,1.111,0,0,1,.381-.87,1.432,1.432,0,0,1,.989-.339,1.432,1.432,0,0,1,.989.339,1.111,1.111,0,0,1,.381.87,1.111,1.111,0,0,1-.381.87,1.432,1.432,0,0,1-.989.339,1.432,1.432,0,0,1-.989-.339A1.111,1.111,0,0,1,40.994-9.976Zm8.291,7.749a.57.57,0,0,0-.33-.505,5.013,5.013,0,0,0-1.252-.4,5.711,5.711,0,0,1-1.523-.538,2.552,2.552,0,0,1-.916-.809,1.933,1.933,0,0,1-.315-1.091,2.19,2.19,0,0,1,.9-1.8,3.711,3.711,0,0,1,2.358-.707,4.112,4.112,0,0,1,2.52.71,2.222,2.222,0,0,1,.952,1.868H49.2q0-.952-1-.952a1,1,0,0,0-.652.216.669.669,0,0,0-.264.538.614.614,0,0,0,.322.535,3.045,3.045,0,0,0,1.029.337,8.893,8.893,0,0,1,1.241.315,2.255,2.255,0,0,1,1.787,2.2A2.075,2.075,0,0,1,50.7-.535a4.224,4.224,0,0,1-2.494.681A4.31,4.31,0,0,1,46.392-.22a3.037,3.037,0,0,1-1.245-1A2.256,2.256,0,0,1,44.7-2.542h2.307a.954.954,0,0,0,.366.8,1.506,1.506,0,0,0,.9.253,1.185,1.185,0,0,0,.758-.205A.656.656,0,0,0,49.285-2.227Z" transform="translate(218.67 231.11)" fill="#111e61"/>
      <path id="Trazado_101129" data-name="Trazado 101129" d="M-10.463-4.092a4.414,4.414,0,0,1-.681,2.229,4.108,4.108,0,0,1-1.747,1.5A5.947,5.947,0,0,1-15.46.166a4.746,4.746,0,0,1-3.752-1.552,6.409,6.409,0,0,1-1.37-4.383v-.6a7.316,7.316,0,0,1,.618-3.109,4.686,4.686,0,0,1,1.781-2.059,4.968,4.968,0,0,1,2.689-.726A5.209,5.209,0,0,1-11.957-11.1a4.575,4.575,0,0,1,1.519,3.192h-2.905A2.165,2.165,0,0,0-13.9-9.5a2.287,2.287,0,0,0-1.594-.481,1.74,1.74,0,0,0-1.594.813,5.228,5.228,0,0,0-.531,2.6v.855a5.785,5.785,0,0,0,.486,2.764,1.777,1.777,0,0,0,1.673.83,2.237,2.237,0,0,0,1.536-.473,2.008,2.008,0,0,0,.564-1.5ZM-4.155,0A3.159,3.159,0,0,1-4.42-.805,2.6,2.6,0,0,1-6.578.166,3.187,3.187,0,0,1-8.737-.6a2.444,2.444,0,0,1-.888-1.93A2.512,2.512,0,0,1-8.546-4.74a5.5,5.5,0,0,1,3.138-.747h.863v-.475q0-1.243-1.071-1.243a.875.875,0,0,0-1,.984h-2.8A2.508,2.508,0,0,1-8.3-8.335a4.657,4.657,0,0,1,2.826-.813,4.083,4.083,0,0,1,2.714.838,2.915,2.915,0,0,1,1.021,2.3v3.976A4.072,4.072,0,0,0-1.357-.141V0ZM-5.906-1.826a1.56,1.56,0,0,0,.867-.224,1.4,1.4,0,0,0,.494-.506V-3.993h-.813q-1.461,0-1.461,1.312a.8.8,0,0,0,.257.618A.931.931,0,0,0-5.906-1.826ZM5.242-6.45l-.921-.066a1.655,1.655,0,0,0-1.693.83V0H-.17V-8.981H2.453l.091,1.154a2.166,2.166,0,0,1,1.967-1.32,2.728,2.728,0,0,1,.78.1Zm6.441,0-.921-.066a1.655,1.655,0,0,0-1.693.83V0h-2.8V-8.981H8.894l.091,1.154a2.166,2.166,0,0,1,1.967-1.32,2.728,2.728,0,0,1,.78.1Zm.357,1.876a5.3,5.3,0,0,1,.523-2.395,3.74,3.74,0,0,1,1.5-1.615,4.525,4.525,0,0,1,2.3-.564A4.13,4.13,0,0,1,19.544-7.9a4.794,4.794,0,0,1,1.162,3.4v.1A4.651,4.651,0,0,1,19.54-1.067,4.141,4.141,0,0,1,16.382.166,4.188,4.188,0,0,1,13.3-.984,4.5,4.5,0,0,1,12.049-4.1Zm2.8.174a3.342,3.342,0,0,0,.39,1.826,1.3,1.3,0,0,0,1.154.581q1.494,0,1.527-2.3v-.282q0-2.416-1.544-2.416-1.4,0-1.519,2.083Z" transform="translate(219.67 24.11)" fill="#111e61"/>
      <path id="Trazado_101132" data-name="Trazado 101132" d="M-24.587,0h-2.476V-7.925h2.476Zm-2.622-9.976a1.111,1.111,0,0,1,.381-.87,1.432,1.432,0,0,1,.989-.339,1.432,1.432,0,0,1,.989.339,1.111,1.111,0,0,1,.381.87,1.111,1.111,0,0,1-.381.87,1.432,1.432,0,0,1-.989.339,1.432,1.432,0,0,1-.989-.339A1.111,1.111,0,0,1-27.209-9.976Zm3.831,5.955a4.841,4.841,0,0,1,.813-2.966A2.676,2.676,0,0,1-20.3-8.071a2.276,2.276,0,0,1,1.787.835V-11.25h2.476V0h-2.219l-.125-.85a2.337,2.337,0,0,1-1.934,1A2.671,2.671,0,0,1-22.551-.937,4.994,4.994,0,0,1-23.379-4.021Zm2.468.154q0,2.109,1.23,2.109a1.215,1.215,0,0,0,1.172-.688V-5.464a1.182,1.182,0,0,0-1.157-.7q-1.143,0-1.238,1.846ZM-14.517,0V-10.664h3.435a5.053,5.053,0,0,1,2.542.641A4.5,4.5,0,0,1-6.779-8.214,5.462,5.462,0,0,1-6.138-5.6V-5.1a5.494,5.494,0,0,1-.619,2.626A4.524,4.524,0,0,1-8.5-.663,4.942,4.942,0,0,1-11.008,0Zm2.571-8.679v6.7h.894a2,2,0,0,0,1.7-.787A3.858,3.858,0,0,0-8.76-5.1v-.461A3.827,3.827,0,0,0-9.353-7.9a2.035,2.035,0,0,0-1.729-.784ZM-.212-.857a2.545,2.545,0,0,1-2.117,1A2.5,2.5,0,0,1-4.3-.612a3.188,3.188,0,0,1-.67-2.179V-7.925H-2.5v5.149a.887.887,0,0,0,.989,1.018A1.29,1.29,0,0,0-.308-2.366V-7.925H2.175V0H-.139Zm7.573,1A4.074,4.074,0,0,1,4.409-.941,3.756,3.756,0,0,1,3.281-3.772v-.205a4.867,4.867,0,0,1,.45-2.146A3.3,3.3,0,0,1,5.046-7.562,3.969,3.969,0,0,1,7.1-8.071,3.43,3.43,0,0,1,9.734-7.035,4.073,4.073,0,0,1,10.7-4.146v.959H5.793a1.779,1.779,0,0,0,.579,1.047,1.722,1.722,0,0,0,1.157.381,2.218,2.218,0,0,0,1.831-.82l1.128,1.333A3.153,3.153,0,0,1,9.181-.231,4.418,4.418,0,0,1,7.361.146ZM7.083-6.167Q6-6.167,5.793-4.731h2.49v-.19a1.223,1.223,0,0,0-.3-.919A1.2,1.2,0,0,0,7.083-6.167ZM13.96-7.925l.081.93A2.687,2.687,0,0,1,16.3-8.071a2.261,2.261,0,0,1,1.849.74A3.522,3.522,0,0,1,18.787-5.1V0H16.311V-5a1.337,1.337,0,0,0-.242-.883,1.118,1.118,0,0,0-.879-.282,1.177,1.177,0,0,0-1.077.571V0H11.646V-7.925Zm4.094-3.267a2.135,2.135,0,0,1-.487,1.417,1.511,1.511,0,0,1-1.2.582A2.377,2.377,0,0,1,15.286-9.5a2.246,2.246,0,0,0-.959-.308.55.55,0,0,0-.4.161.669.669,0,0,0-.165.5l-1.37-.073a2.147,2.147,0,0,1,.487-1.406,1.494,1.494,0,0,1,1.2-.593,2.472,2.472,0,0,1,.959.271,5.892,5.892,0,0,0,.751.308,1.45,1.45,0,0,0,.333.037.559.559,0,0,0,.4-.163.672.672,0,0,0,.168-.5Zm1.787,7.156A4.677,4.677,0,0,1,20.3-6.149a3.3,3.3,0,0,1,1.326-1.425,3.993,3.993,0,0,1,2.029-.5,3.644,3.644,0,0,1,2.805,1.1,4.23,4.23,0,0,1,1.025,3v.088A4.1,4.1,0,0,1,26.459-.941,3.654,3.654,0,0,1,23.672.146,3.7,3.7,0,0,1,20.955-.868a3.968,3.968,0,0,1-1.106-2.75Zm2.468.154a2.949,2.949,0,0,0,.344,1.611,1.147,1.147,0,0,0,1.018.513q1.318,0,1.348-2.029v-.249q0-2.131-1.362-2.131-1.238,0-1.34,1.838Z" transform="translate(375.67 231.11)" fill="#111e61"/>
      <path id="Trazado_2612" data-name="Trazado 2612" d="M6410.5,1715.808V1692.5h317.082v23.308" transform="translate(-6347.199 -1628.636)" fill="none" stroke="#111e61" stroke-linecap="round" stroke-width="3"/>
      <path id="Trazado_2613" data-name="Trazado 2613" d="M6571.5,1715.158V1670" transform="translate(-6351.844 -1627.987)" fill="none" stroke="#111e61" stroke-linecap="round" stroke-width="3"/>
    </g>
  </g>
</svg>
