<svg xmlns="http://www.w3.org/2000/svg" width="604" height="325" viewBox="0 0 604 325">
  <g id="Grupo_55172" data-name="Grupo 55172" transform="translate(-700 -6080)">
    <rect id="Rectángulo_5190" data-name="Rectángulo 5190" width="604" height="325" rx="10" transform="translate(700 6080)" fill="#fef3d1"/>
    <g id="Grupo_21478" data-name="Grupo 21478" transform="translate(727.396 6128.39)">
      <g id="Grupo_21476" data-name="Grupo 21476" transform="translate(0.065 -0.03)">
        <g id="Rectángulo_4899" data-name="Rectángulo 4899" transform="translate(-0.462 29.64)" fill="#fff" stroke="#111e61" stroke-width="1">
          <rect width="270" height="200" rx="20" stroke="none"/>
          <rect x="0.5" y="0.5" width="269" height="199" rx="19.5" fill="none"/>
        </g>
        <path id="Rectángulo_4943" data-name="Rectángulo 4943" d="M20,0H250a20,20,0,0,1,20,20V37a0,0,0,0,1,0,0H0a0,0,0,0,1,0,0V20A20,20,0,0,1,20,0Z" transform="translate(-0.462 29.64)" fill="#039be5"/>
        <path id="Trazado_101098" data-name="Trazado 101098" d="M2.331,0H1.066V-7.4H2.331ZM.964-9.358a.755.755,0,0,1,.188-.52.706.706,0,0,1,.557-.212.717.717,0,0,1,.561.212.747.747,0,0,1,.191.52.722.722,0,0,1-.191.513.73.73,0,0,1-.561.205.718.718,0,0,1-.557-.205A.73.73,0,0,1,.964-9.358Zm3.083,5.6A4.333,4.333,0,0,1,4.854-6.5,2.551,2.551,0,0,1,6.966-7.533a2.565,2.565,0,0,1,2.058.889V-10.5h1.265V0H9.126L9.064-.793a2.575,2.575,0,0,1-2.112.93,2.526,2.526,0,0,1-2.1-1.053,4.382,4.382,0,0,1-.81-2.748Zm1.265.144a3.281,3.281,0,0,0,.52,1.969,1.68,1.68,0,0,0,1.436.711,1.845,1.845,0,0,0,1.757-1.08v-3.4A1.859,1.859,0,0,0,7.28-6.46a1.687,1.687,0,0,0-1.449.718A3.612,3.612,0,0,0,5.312-3.616ZM15.743-1.743l2.844-8.21h1.436L16.331,0H15.169L11.484-9.953h1.429ZM23.926.137a3.232,3.232,0,0,1-2.447-.988,3.666,3.666,0,0,1-.943-2.642v-.232a4.438,4.438,0,0,1,.42-1.965,3.28,3.28,0,0,1,1.176-1.354,2.956,2.956,0,0,1,1.637-.489,2.77,2.77,0,0,1,2.242.95,4.114,4.114,0,0,1,.8,2.721v.526H21.8a2.629,2.629,0,0,0,.639,1.767A2.009,2.009,0,0,0,23.994-.9a2.2,2.2,0,0,0,1.135-.273,2.851,2.851,0,0,0,.813-.725l.772.6A3.106,3.106,0,0,1,23.926.137Zm-.157-6.631a1.687,1.687,0,0,0-1.285.557,2.708,2.708,0,0,0-.643,1.562h3.705v-.1a2.409,2.409,0,0,0-.52-1.494A1.588,1.588,0,0,0,23.769-6.494Zm5.77-.007a2.689,2.689,0,0,1,2.188-1.032q2.345,0,2.365,2.646V0H32.826V-4.895a1.7,1.7,0,0,0-.366-1.183,1.466,1.466,0,0,0-1.118-.383,1.825,1.825,0,0,0-1.08.328,2.228,2.228,0,0,0-.725.861V0H28.273V-10.5h1.265ZM37.358,0H36.087V-7.4h1.271Zm.014-10.479H38.9L37.071-8.47l-1.019,0ZM42.41-.9a1.822,1.822,0,0,0,1.183-.41,1.443,1.443,0,0,0,.561-1.025h1.2a2.293,2.293,0,0,1-.437,1.21,2.881,2.881,0,0,1-1.077.916A3.107,3.107,0,0,1,42.41.137a3.047,3.047,0,0,1-2.4-1.008,4.016,4.016,0,0,1-.892-2.758v-.212a4.453,4.453,0,0,1,.4-1.921A3.02,3.02,0,0,1,40.65-7.068,3.233,3.233,0,0,1,42.4-7.533a2.966,2.966,0,0,1,2.068.745,2.663,2.663,0,0,1,.878,1.935h-1.2a1.743,1.743,0,0,0-.543-1.179A1.691,1.691,0,0,0,42.4-6.494,1.77,1.77,0,0,0,40.91-5.8a3.259,3.259,0,0,0-.53,2.006v.239a3.194,3.194,0,0,0,.526,1.969A1.779,1.779,0,0,0,42.41-.9Zm8.928.164a2.686,2.686,0,0,1-2.167.868,2.3,2.3,0,0,1-1.8-.687,2.974,2.974,0,0,1-.625-2.034V-7.4h1.265v4.778q0,1.682,1.367,1.682A1.893,1.893,0,0,0,51.3-2.017V-7.4h1.265V0h-1.2ZM55.863,0H54.6V-10.5h1.265Zm1.688-3.767a4.369,4.369,0,0,1,.427-1.955,3.187,3.187,0,0,1,1.189-1.34,3.238,3.238,0,0,1,1.74-.472,3.119,3.119,0,0,1,2.444,1.046,4.024,4.024,0,0,1,.933,2.782v.089a4.407,4.407,0,0,1-.414,1.938A3.14,3.14,0,0,1,62.689-.342a3.275,3.275,0,0,1-1.767.479A3.111,3.111,0,0,1,58.485-.909a4,4,0,0,1-.933-2.769Zm1.271.15a3.164,3.164,0,0,0,.571,1.976A1.827,1.827,0,0,0,60.922-.9a1.816,1.816,0,0,0,1.531-.755,3.46,3.46,0,0,0,.567-2.116,3.159,3.159,0,0,0-.578-1.972,1.836,1.836,0,0,0-1.535-.755,1.816,1.816,0,0,0-1.511.745A3.434,3.434,0,0,0,58.823-3.616ZM70.943,0H69.631V-9.953h1.313ZM80.992,0H79.673L74.662-7.67V0H73.343V-9.953h1.319l5.024,7.7v-7.7h1.306ZM90-8.88H86.8V0H85.5V-8.88H82.3V-9.953H90ZM2.851,11.047,6.1,19.168l3.254-8.121h1.7V21H9.748V17.124l.123-4.184L6.6,21h-1L2.338,12.961l.13,4.163V21H1.155V11.047ZM17.746,21a2.657,2.657,0,0,1-.178-.779,2.822,2.822,0,0,1-2.105.916,2.611,2.611,0,0,1-1.794-.619,2,2,0,0,1-.7-1.569,2.091,2.091,0,0,1,.878-1.794,4.142,4.142,0,0,1,2.471-.639h1.23v-.581a1.42,1.42,0,0,0-.4-1.056,1.593,1.593,0,0,0-1.169-.393,1.844,1.844,0,0,0-1.135.342,1.007,1.007,0,0,0-.458.827H13.118a1.745,1.745,0,0,1,.393-1.07,2.683,2.683,0,0,1,1.066-.817,3.588,3.588,0,0,1,1.48-.3,2.924,2.924,0,0,1,2,.639,2.306,2.306,0,0,1,.752,1.76v3.4a4.162,4.162,0,0,0,.26,1.62V21Zm-2.1-.964a2.223,2.223,0,0,0,1.128-.308,1.861,1.861,0,0,0,.772-.8V17.411h-.991q-2.324,0-2.324,1.36a1.151,1.151,0,0,0,.4.93A1.524,1.524,0,0,0,15.647,20.036Zm8.723-5.3a3.79,3.79,0,0,0-.622-.048,1.667,1.667,0,0,0-1.688,1.06V21H20.795V13.6h1.23l.021.854a1.969,1.969,0,0,1,1.764-.991,1.292,1.292,0,0,1,.561.1Zm4,5.366a1.822,1.822,0,0,0,1.183-.41,1.443,1.443,0,0,0,.561-1.025h1.2a2.293,2.293,0,0,1-.437,1.21,2.881,2.881,0,0,1-1.077.916,3.107,3.107,0,0,1-1.425.342,3.047,3.047,0,0,1-2.4-1.008,4.016,4.016,0,0,1-.892-2.758v-.212a4.453,4.453,0,0,1,.4-1.921,3.02,3.02,0,0,1,1.138-1.306,3.233,3.233,0,0,1,1.753-.465,2.966,2.966,0,0,1,2.068.745,2.663,2.663,0,0,1,.878,1.935h-1.2a1.743,1.743,0,0,0-.543-1.179,1.691,1.691,0,0,0-1.207-.461,1.77,1.77,0,0,0-1.494.694,3.259,3.259,0,0,0-.53,2.006v.239a3.194,3.194,0,0,0,.526,1.969A1.779,1.779,0,0,0,28.369,20.1ZM37.3,21a2.657,2.657,0,0,1-.178-.779,2.822,2.822,0,0,1-2.105.916,2.611,2.611,0,0,1-1.794-.619,2,2,0,0,1-.7-1.569,2.091,2.091,0,0,1,.878-1.794,4.142,4.142,0,0,1,2.471-.639H37.1v-.581a1.42,1.42,0,0,0-.4-1.056,1.593,1.593,0,0,0-1.169-.393,1.844,1.844,0,0,0-1.135.342,1.007,1.007,0,0,0-.458.827H32.669a1.745,1.745,0,0,1,.393-1.07,2.683,2.683,0,0,1,1.066-.817,3.588,3.588,0,0,1,1.48-.3,2.924,2.924,0,0,1,2,.639,2.306,2.306,0,0,1,.752,1.76v3.4a4.162,4.162,0,0,0,.26,1.62V21Zm-2.1-.964a2.223,2.223,0,0,0,1.128-.308,1.861,1.861,0,0,0,.772-.8V17.411h-.991q-2.324,0-2.324,1.36a1.151,1.151,0,0,0,.4.93A1.524,1.524,0,0,0,35.2,20.036ZM47.3,19.257l2.844-8.21h1.436L47.893,21H46.73l-3.685-9.953h1.429ZM57.9,18.4H53.73L52.794,21H51.44l3.8-9.953H56.39L60.2,21H58.851Zm-3.773-1.073h3.384l-1.7-4.655Zm11.061-.349H62.85V21H61.53V11.047h3.295a3.9,3.9,0,0,1,2.587.766,2.755,2.755,0,0,1,.906,2.229,2.68,2.68,0,0,1-.5,1.62,3,3,0,0,1-1.4,1.032l2.338,4.225V21H67.348ZM62.85,15.9h2.017a2.275,2.275,0,0,0,1.555-.507A1.714,1.714,0,0,0,67,14.038a1.8,1.8,0,0,0-.55-1.418,2.33,2.33,0,0,0-1.589-.5H62.85Zm14.629,1.941a3.662,3.662,0,0,1-1.166,2.437,3.82,3.82,0,0,1-2.608.858,3.507,3.507,0,0,1-2.827-1.265,5.088,5.088,0,0,1-1.063-3.384v-.957a5.671,5.671,0,0,1,.5-2.44,3.7,3.7,0,0,1,1.4-1.617,3.911,3.911,0,0,1,2.105-.564,3.6,3.6,0,0,1,2.543.885,3.706,3.706,0,0,1,1.114,2.451H76.159a2.86,2.86,0,0,0-.742-1.728,2.244,2.244,0,0,0-1.6-.535,2.348,2.348,0,0,0-1.972.93,4.272,4.272,0,0,0-.714,2.648v.965a4.391,4.391,0,0,0,.677,2.579,2.187,2.187,0,0,0,1.894.958,2.526,2.526,0,0,0,1.678-.5,2.75,2.75,0,0,0,.776-1.726ZM86.919,21H85.6V16.4H80.582V21H79.27V11.047h1.313v4.279H85.6V11.047h1.319Zm7.95-2.6H90.7L89.763,21H88.409l3.8-9.953h1.148L97.166,21H95.819ZM91.1,17.322h3.384l-1.7-4.655Zm11.061-.349H99.818V21H98.5V11.047h3.295a3.9,3.9,0,0,1,2.587.766,2.755,2.755,0,0,1,.906,2.229,2.68,2.68,0,0,1-.5,1.62,3,3,0,0,1-1.4,1.032l2.338,4.225V21h-1.408ZM99.818,15.9h2.017a2.275,2.275,0,0,0,1.555-.507,1.714,1.714,0,0,0,.578-1.356,1.8,1.8,0,0,0-.55-1.418,2.33,2.33,0,0,0-1.589-.5h-2.01Zm10.527,1.06a10.569,10.569,0,0,1,.414-2.967,8.618,8.618,0,0,1,1.234-2.584,5.249,5.249,0,0,1,1.7-1.641l.26.834a5.444,5.444,0,0,0-1.637,2.338,10.135,10.135,0,0,0-.7,3.521l-.007.581a10.188,10.188,0,0,0,.964,4.58,5.47,5.47,0,0,0,1.381,1.818l-.26.772a5.418,5.418,0,0,1-1.736-1.7A9.5,9.5,0,0,1,110.346,16.96Zm10.042.7h1.381v1.032h-1.381V21h-1.271V18.689h-4.532v-.745l4.457-6.9h1.347Zm-4.368,0h3.1V12.776l-.15.273Zm7.472-1.647L124,11.047h5.1v1.169H125.07l-.3,2.714a3.212,3.212,0,0,1,1.661-.431,2.746,2.746,0,0,1,2.16.9,3.523,3.523,0,0,1,.8,2.43,3.4,3.4,0,0,1-.831,2.423,3.027,3.027,0,0,1-2.321.885,3.146,3.146,0,0,1-2.153-.731,2.919,2.919,0,0,1-.95-2.023h1.2a2.009,2.009,0,0,0,.608,1.289,1.892,1.892,0,0,0,1.3.434,1.706,1.706,0,0,0,1.384-.6,2.515,2.515,0,0,0,.5-1.661,2.308,2.308,0,0,0-.543-1.6,1.849,1.849,0,0,0-1.446-.6,2.085,2.085,0,0,0-1.3.362l-.335.273Zm10.329,1.019a10.574,10.574,0,0,1-.4,2.922,8.641,8.641,0,0,1-1.224,2.581,5.361,5.361,0,0,1-1.726,1.682l-.267-.772a5.5,5.5,0,0,0,1.692-2.505,10.839,10.839,0,0,0,.653-3.77v-.219a11.254,11.254,0,0,0-.3-2.669,9.009,9.009,0,0,0-.837-2.211,5.108,5.108,0,0,0-1.207-1.524l.267-.772a5.34,5.34,0,0,1,1.719,1.668,8.66,8.66,0,0,1,1.224,2.577A10.818,10.818,0,0,1,133.82,17.028ZM8.8,42H7.485L2.475,34.33V42H1.155V32.047H2.475l5.024,7.7v-7.7H8.8Zm6.7-.731a2.686,2.686,0,0,1-2.167.868,2.3,2.3,0,0,1-1.8-.687,2.974,2.974,0,0,1-.625-2.034V34.6h1.265v4.778q0,1.682,1.367,1.682a1.893,1.893,0,0,0,1.928-1.08V34.6h1.265V42h-1.2Zm-1.025-9.755H16.01l-1.832,2.01-1.019,0Zm5.366,3.09.034.82a2.732,2.732,0,0,1,2.194-.957,2.115,2.115,0,0,1,2.112,1.189,2.8,2.8,0,0,1,.96-.861,2.837,2.837,0,0,1,1.4-.328q2.434,0,2.475,2.577V42H27.754V37.119a1.7,1.7,0,0,0-.362-1.186,1.6,1.6,0,0,0-1.217-.393,1.677,1.677,0,0,0-1.169.42,1.706,1.706,0,0,0-.54,1.131V42H23.194V37.153a1.411,1.411,0,0,0-1.579-1.613,1.692,1.692,0,0,0-1.7,1.06V42H18.648V34.6ZM34,42.137a3.232,3.232,0,0,1-2.447-.988,3.666,3.666,0,0,1-.943-2.642v-.232a4.438,4.438,0,0,1,.42-1.965A3.28,3.28,0,0,1,32.2,34.956a2.956,2.956,0,0,1,1.637-.489,2.77,2.77,0,0,1,2.242.95,4.114,4.114,0,0,1,.8,2.721v.526H31.869a2.629,2.629,0,0,0,.639,1.767,2.009,2.009,0,0,0,1.555.673,2.2,2.2,0,0,0,1.135-.273,2.851,2.851,0,0,0,.813-.725l.772.6A3.106,3.106,0,0,1,34,42.137Zm-.157-6.631a1.687,1.687,0,0,0-1.285.557,2.708,2.708,0,0,0-.643,1.562h3.705v-.1a2.409,2.409,0,0,0-.52-1.494A1.588,1.588,0,0,0,33.838,35.506Zm8.08.232a3.79,3.79,0,0,0-.622-.048,1.667,1.667,0,0,0-1.688,1.06V42H38.343V34.6h1.23l.021.854a1.969,1.969,0,0,1,1.764-.991,1.292,1.292,0,0,1,.561.1Zm.69,2.5a4.369,4.369,0,0,1,.427-1.955,3.187,3.187,0,0,1,1.189-1.34,3.238,3.238,0,0,1,1.74-.472,3.119,3.119,0,0,1,2.444,1.046,4.024,4.024,0,0,1,.933,2.782v.089a4.407,4.407,0,0,1-.414,1.938,3.14,3.14,0,0,1-1.183,1.336,3.275,3.275,0,0,1-1.767.479,3.111,3.111,0,0,1-2.437-1.046,4,4,0,0,1-.933-2.769Zm1.271.15a3.164,3.164,0,0,0,.571,1.976,1.934,1.934,0,0,0,3.059-.01,3.46,3.46,0,0,0,.567-2.116,3.159,3.159,0,0,0-.578-1.972,1.836,1.836,0,0,0-1.535-.755,1.816,1.816,0,0,0-1.511.745A3.435,3.435,0,0,0,43.88,38.384Zm10.206-.144a4.333,4.333,0,0,1,.807-2.738,2.745,2.745,0,0,1,4.17-.147V31.5h1.265V42H59.165l-.062-.793a2.575,2.575,0,0,1-2.112.93,2.526,2.526,0,0,1-2.1-1.053,4.382,4.382,0,0,1-.81-2.748Zm1.265.144a3.281,3.281,0,0,0,.52,1.969,1.68,1.68,0,0,0,1.436.711,1.845,1.845,0,0,0,1.757-1.08v-3.4a1.859,1.859,0,0,0-1.743-1.046,1.687,1.687,0,0,0-1.449.718A3.612,3.612,0,0,0,55.351,38.384Zm10.008,3.753a3.232,3.232,0,0,1-2.447-.988,3.666,3.666,0,0,1-.943-2.642v-.232a4.438,4.438,0,0,1,.42-1.965,3.28,3.28,0,0,1,1.176-1.354,2.956,2.956,0,0,1,1.637-.489,2.77,2.77,0,0,1,2.242.95,4.114,4.114,0,0,1,.8,2.721v.526H63.232a2.629,2.629,0,0,0,.639,1.767,2.009,2.009,0,0,0,1.555.673,2.2,2.2,0,0,0,1.135-.273,2.851,2.851,0,0,0,.813-.725l.772.6A3.106,3.106,0,0,1,65.358,42.137ZM65.2,35.506a1.687,1.687,0,0,0-1.285.557,2.708,2.708,0,0,0-.643,1.562h3.705v-.1a2.409,2.409,0,0,0-.52-1.494A1.588,1.588,0,0,0,65.2,35.506ZM79.42,38.384a4.429,4.429,0,0,1-.772,2.721,2.476,2.476,0,0,1-2.092,1.032,2.713,2.713,0,0,1-2.119-.854v3.562H73.172V34.6h1.155l.062.82a2.605,2.605,0,0,1,2.146-.957,2.522,2.522,0,0,1,2.109,1,4.477,4.477,0,0,1,.776,2.8Zm-1.265-.144a3.268,3.268,0,0,0-.533-1.976,1.718,1.718,0,0,0-1.463-.725,1.859,1.859,0,0,0-1.723,1.019v3.534A1.863,1.863,0,0,0,76.173,41.1a1.71,1.71,0,0,0,1.446-.721A3.567,3.567,0,0,0,78.155,38.24ZM82.4,42H81.136V31.5H82.4Zm6.59,0a2.657,2.657,0,0,1-.178-.779,2.822,2.822,0,0,1-2.105.916,2.611,2.611,0,0,1-1.794-.619,2,2,0,0,1-.7-1.569,2.091,2.091,0,0,1,.878-1.794,4.142,4.142,0,0,1,2.471-.639h1.23v-.581a1.42,1.42,0,0,0-.4-1.056,1.593,1.593,0,0,0-1.169-.393,1.844,1.844,0,0,0-1.135.342,1.007,1.007,0,0,0-.458.827H84.362a1.745,1.745,0,0,1,.393-1.07,2.683,2.683,0,0,1,1.066-.817,3.588,3.588,0,0,1,1.48-.3,2.924,2.924,0,0,1,2,.639,2.306,2.306,0,0,1,.752,1.76v3.4a4.162,4.162,0,0,0,.26,1.62V42Zm-2.1-.964a2.223,2.223,0,0,0,1.128-.308,1.861,1.861,0,0,0,.772-.8V38.411H87.8q-2.324,0-2.324,1.36a1.151,1.151,0,0,0,.4.93A1.524,1.524,0,0,0,86.892,41.036Zm8.114.068a1.822,1.822,0,0,0,1.183-.41,1.443,1.443,0,0,0,.561-1.025h1.2a2.293,2.293,0,0,1-.437,1.21,2.881,2.881,0,0,1-1.077.916,3.107,3.107,0,0,1-1.425.342,3.047,3.047,0,0,1-2.4-1.008,4.016,4.016,0,0,1-.892-2.758v-.212a8.373,8.373,0,0,1,.4-1.921,3.02,3.02,0,0,1,1.138-1.306A3.233,3.233,0,0,1,95,34.467a2.966,2.966,0,0,1,2.068.745,2.663,2.663,0,0,1,.878,1.935h-1.2a1.743,1.743,0,0,0-.543-1.179A1.691,1.691,0,0,0,95,35.506a1.77,1.77,0,0,0-1.494.694,3.259,3.259,0,0,0-.53,2.006v.239a3.194,3.194,0,0,0,.526,1.969A1.779,1.779,0,0,0,95.006,41.1Zm8.928.9a2.657,2.657,0,0,1-.178-.779,2.822,2.822,0,0,1-2.105.916,2.611,2.611,0,0,1-1.794-.619,2,2,0,0,1-.7-1.569,2.091,2.091,0,0,1,.878-1.794,4.142,4.142,0,0,1,2.471-.639h1.23v-.581a1.42,1.42,0,0,0-.4-1.056,1.593,1.593,0,0,0-1.169-.393,1.844,1.844,0,0,0-1.135.342,1.007,1.007,0,0,0-.458.827H99.306a1.745,1.745,0,0,1,.393-1.07,2.683,2.683,0,0,1,1.066-.817,3.588,3.588,0,0,1,1.48-.3,2.924,2.924,0,0,1,2,.639,2.306,2.306,0,0,1,.752,1.76v3.4a4.162,4.162,0,0,0,.26,1.62V42Zm-2.1-.964a2.223,2.223,0,0,0,1.128-.308,1.861,1.861,0,0,0,.772-.8V38.411h-.991q-2.324,0-2.324,1.36a1.151,1.151,0,0,0,.4.93A1.524,1.524,0,0,0,101.835,41.036Zm12.106-.779,2.844-8.21h1.436L114.529,42h-1.162l-3.685-9.953h1.429Zm10.6-.861h-4.17l-.937,2.6h-1.354l3.8-9.953h1.148L126.834,42h-1.347Zm-3.773-1.073h3.384l-1.7-4.655Zm11.061-.349h-2.338V42h-1.319V32.047h3.295a3.9,3.9,0,0,1,2.587.766,2.755,2.755,0,0,1,.906,2.229,2.68,2.68,0,0,1-.5,1.62,3,3,0,0,1-1.4,1.032l2.338,4.225V42h-1.408ZM129.486,36.9H131.5a2.275,2.275,0,0,0,1.555-.507,1.714,1.714,0,0,0,.578-1.356,1.8,1.8,0,0,0-.55-1.418,2.33,2.33,0,0,0-1.589-.5h-2.01Zm14.629,1.941a3.662,3.662,0,0,1-1.166,2.437,3.82,3.82,0,0,1-2.608.858,3.507,3.507,0,0,1-2.827-1.265,5.088,5.088,0,0,1-1.063-3.384v-.957a5.671,5.671,0,0,1,.5-2.44,3.7,3.7,0,0,1,1.4-1.617,3.911,3.911,0,0,1,2.105-.564A3.6,3.6,0,0,1,143,32.8a3.706,3.706,0,0,1,1.114,2.451H142.8a2.86,2.86,0,0,0-.742-1.728,2.244,2.244,0,0,0-1.6-.535,2.348,2.348,0,0,0-1.972.93,4.271,4.271,0,0,0-.714,2.648v.965a4.391,4.391,0,0,0,.677,2.579,2.187,2.187,0,0,0,1.894.958,2.526,2.526,0,0,0,1.678-.5,2.75,2.75,0,0,0,.776-1.726ZM153.556,42h-1.319V37.4h-5.018V42h-1.312V32.047h1.313v4.279h5.018V32.047h1.319Zm7.95-2.6h-4.17L156.4,42h-1.354l3.8-9.953H160L163.8,42h-1.347Zm-3.773-1.073h3.384l-1.7-4.655Zm11.061-.349h-2.338V42h-1.319V32.047h3.295a3.9,3.9,0,0,1,2.587.766,2.755,2.755,0,0,1,.906,2.229,2.68,2.68,0,0,1-.5,1.62,3,3,0,0,1-1.4,1.032l2.338,4.225V42h-1.408ZM166.455,36.9h2.017a2.275,2.275,0,0,0,1.555-.507,1.714,1.714,0,0,0,.578-1.356,1.8,1.8,0,0,0-.55-1.418,2.33,2.33,0,0,0-1.589-.5h-2.01Zm7.062,1.06a10.569,10.569,0,0,1,.414-2.967,8.618,8.618,0,0,1,1.234-2.584,5.249,5.249,0,0,1,1.7-1.641l.26.834a5.444,5.444,0,0,0-1.637,2.338,10.135,10.135,0,0,0-.7,3.521l-.007.581a10.188,10.188,0,0,0,.964,4.58,5.47,5.47,0,0,0,1.381,1.818l-.26.772a5.418,5.418,0,0,1-1.736-1.7A9.5,9.5,0,0,1,173.517,37.96ZM184.741,42H178.22v-.909l3.445-3.828a8.185,8.185,0,0,0,1.056-1.412,2.356,2.356,0,0,0,.291-1.125,1.786,1.786,0,0,0-.472-1.278,1.649,1.649,0,0,0-1.258-.5,1.953,1.953,0,0,0-1.466.537,2.05,2.05,0,0,0-.523,1.494h-1.265a2.936,2.936,0,0,1,.885-2.222,3.282,3.282,0,0,1,2.369-.848,3.153,3.153,0,0,1,2.194.728,2.483,2.483,0,0,1,.807,1.938q0,1.47-1.873,3.5l-2.666,2.892h5Zm7.581-4.245a5.784,5.784,0,0,1-.759,3.3,3.153,3.153,0,0,1-4.73.024,5.49,5.49,0,0,1-.793-3.155V36.237a5.655,5.655,0,0,1,.759-3.261,3.21,3.21,0,0,1,4.744-.038,5.458,5.458,0,0,1,.779,3.175Zm-1.265-1.729a4.634,4.634,0,0,0-.451-2.341,1.553,1.553,0,0,0-1.429-.735,1.532,1.532,0,0,0-1.415.731,4.525,4.525,0,0,0-.458,2.249v2.023a4.708,4.708,0,0,0,.468,2.382,1.55,1.55,0,0,0,1.418.769,1.529,1.529,0,0,0,1.391-.725,4.538,4.538,0,0,0,.475-2.283Zm5.934,2a10.574,10.574,0,0,1-.4,2.922,8.641,8.641,0,0,1-1.224,2.581,5.361,5.361,0,0,1-1.726,1.682l-.267-.772a5.5,5.5,0,0,0,1.692-2.505,10.839,10.839,0,0,0,.653-3.77v-.219a11.254,11.254,0,0,0-.3-2.669,9.009,9.009,0,0,0-.837-2.211,5.108,5.108,0,0,0-1.207-1.524l.267-.772a5.34,5.34,0,0,1,1.719,1.668,8.66,8.66,0,0,1,1.224,2.577A10.818,10.818,0,0,1,196.991,38.028ZM8.8,63H7.485L2.475,55.33V63H1.155V53.047H2.475l5.024,7.7v-7.7H8.8Zm6.7-.731a2.686,2.686,0,0,1-2.167.868,2.3,2.3,0,0,1-1.8-.687,2.974,2.974,0,0,1-.625-2.034V55.6h1.265v4.778q0,1.682,1.367,1.682a1.893,1.893,0,0,0,1.928-1.08V55.6h1.265V63h-1.2Zm-1.025-9.755H16.01l-1.832,2.01-1.019,0Zm5.366,3.09.034.82a2.732,2.732,0,0,1,2.194-.957,2.115,2.115,0,0,1,2.112,1.189,2.8,2.8,0,0,1,.96-.861,2.837,2.837,0,0,1,1.4-.328q2.434,0,2.475,2.577V63H27.754V58.119a1.7,1.7,0,0,0-.362-1.186,1.6,1.6,0,0,0-1.217-.393,1.677,1.677,0,0,0-1.169.42,1.706,1.706,0,0,0-.54,1.131V63H23.194V58.153a1.411,1.411,0,0,0-1.579-1.613,1.692,1.692,0,0,0-1.7,1.06V63H18.648V55.6ZM34,63.137a3.232,3.232,0,0,1-2.447-.988,3.666,3.666,0,0,1-.943-2.642v-.232a4.438,4.438,0,0,1,.42-1.965A3.28,3.28,0,0,1,32.2,55.956a2.956,2.956,0,0,1,1.637-.489,2.77,2.77,0,0,1,2.242.95,4.114,4.114,0,0,1,.8,2.721v.526H31.869a2.629,2.629,0,0,0,.639,1.767,2.009,2.009,0,0,0,1.555.673,2.2,2.2,0,0,0,1.135-.273,2.851,2.851,0,0,0,.813-.725l.772.6A3.106,3.106,0,0,1,34,63.137Zm-.157-6.631a1.687,1.687,0,0,0-1.285.557,2.708,2.708,0,0,0-.643,1.562h3.705v-.1a2.409,2.409,0,0,0-.52-1.494A1.588,1.588,0,0,0,33.838,56.506Zm8.08.232a3.79,3.79,0,0,0-.622-.048,1.667,1.667,0,0,0-1.688,1.06V63H38.343V55.6h1.23l.021.854a1.969,1.969,0,0,1,1.764-.991,1.292,1.292,0,0,1,.561.1Zm.69,2.5a4.369,4.369,0,0,1,.427-1.955,3.187,3.187,0,0,1,1.189-1.34,3.238,3.238,0,0,1,1.74-.472,3.119,3.119,0,0,1,2.444,1.046,4.024,4.024,0,0,1,.933,2.782v.089a4.407,4.407,0,0,1-.414,1.938,3.14,3.14,0,0,1-1.183,1.336,3.275,3.275,0,0,1-1.767.479,3.111,3.111,0,0,1-2.437-1.046,4,4,0,0,1-.933-2.769Zm1.271.15a3.164,3.164,0,0,0,.571,1.976,1.934,1.934,0,0,0,3.059-.01,3.46,3.46,0,0,0,.567-2.116,3.159,3.159,0,0,0-.578-1.972,1.836,1.836,0,0,0-1.535-.755,1.816,1.816,0,0,0-1.511.745A3.435,3.435,0,0,0,43.88,59.384Zm10.206-.144a4.333,4.333,0,0,1,.807-2.738,2.745,2.745,0,0,1,4.17-.147V52.5h1.265V63H59.165l-.062-.793a2.575,2.575,0,0,1-2.112.93,2.526,2.526,0,0,1-2.1-1.053,4.382,4.382,0,0,1-.81-2.748Zm1.265.144a3.281,3.281,0,0,0,.52,1.969,1.68,1.68,0,0,0,1.436.711,1.845,1.845,0,0,0,1.757-1.08v-3.4a1.859,1.859,0,0,0-1.743-1.046,1.687,1.687,0,0,0-1.449.718A3.612,3.612,0,0,0,55.351,59.384Zm10.008,3.753a3.232,3.232,0,0,1-2.447-.988,3.666,3.666,0,0,1-.943-2.642v-.232a4.438,4.438,0,0,1,.42-1.965,3.28,3.28,0,0,1,1.176-1.354,2.956,2.956,0,0,1,1.637-.489,2.77,2.77,0,0,1,2.242.95,4.114,4.114,0,0,1,.8,2.721v.526H63.232a2.629,2.629,0,0,0,.639,1.767,2.009,2.009,0,0,0,1.555.673,2.2,2.2,0,0,0,1.135-.273,2.851,2.851,0,0,0,.813-.725l.772.6A3.106,3.106,0,0,1,65.358,63.137ZM65.2,56.506a1.687,1.687,0,0,0-1.285.557,2.708,2.708,0,0,0-.643,1.562h3.705v-.1a2.409,2.409,0,0,0-.52-1.494A1.588,1.588,0,0,0,65.2,56.506Zm10.938,5.6a1.822,1.822,0,0,0,1.183-.41,1.443,1.443,0,0,0,.561-1.025h1.2a2.293,2.293,0,0,1-.437,1.21,2.881,2.881,0,0,1-1.077.916,3.107,3.107,0,0,1-1.425.342,3.047,3.047,0,0,1-2.4-1.008,4.016,4.016,0,0,1-.892-2.758v-.212a4.453,4.453,0,0,1,.4-1.921,3.02,3.02,0,0,1,1.138-1.306,3.233,3.233,0,0,1,1.753-.465,2.966,2.966,0,0,1,2.068.745,2.663,2.663,0,0,1,.878,1.935h-1.2a1.743,1.743,0,0,0-.543-1.179,1.691,1.691,0,0,0-1.207-.461,1.77,1.77,0,0,0-1.494.694,3.259,3.259,0,0,0-.53,2.006v.239a3.194,3.194,0,0,0,.526,1.969A1.779,1.779,0,0,0,76.139,62.1ZM81.765,56.5a2.689,2.689,0,0,1,2.188-1.032q2.345,0,2.365,2.646V63H85.053V58.105a1.7,1.7,0,0,0-.366-1.183,1.466,1.466,0,0,0-1.118-.383,1.825,1.825,0,0,0-1.08.328,2.228,2.228,0,0,0-.725.861V63H80.5V52.5h1.265ZM92.777,63a2.657,2.657,0,0,1-.178-.779,2.822,2.822,0,0,1-2.105.916,2.611,2.611,0,0,1-1.794-.619,2,2,0,0,1-.7-1.569,2.091,2.091,0,0,1,.878-1.794,4.142,4.142,0,0,1,2.471-.639h1.23v-.581a1.42,1.42,0,0,0-.4-1.056,1.593,1.593,0,0,0-1.169-.393,1.844,1.844,0,0,0-1.135.342,1.007,1.007,0,0,0-.458.827H88.149a1.745,1.745,0,0,1,.393-1.07,2.683,2.683,0,0,1,1.066-.817,3.588,3.588,0,0,1,1.48-.3,2.924,2.924,0,0,1,2,.639,2.306,2.306,0,0,1,.752,1.76v3.4a4.162,4.162,0,0,0,.26,1.62V63Zm-2.1-.964a2.223,2.223,0,0,0,1.128-.308,1.861,1.861,0,0,0,.772-.8V59.411h-.991q-2.324,0-2.324,1.36a1.151,1.151,0,0,0,.4.93A1.524,1.524,0,0,0,90.679,62.036Zm9.454-1a.931.931,0,0,0-.386-.8,3.718,3.718,0,0,0-1.347-.489,6.367,6.367,0,0,1-1.524-.492,2.169,2.169,0,0,1-.834-.684,1.635,1.635,0,0,1-.27-.943,1.919,1.919,0,0,1,.769-1.538,3,3,0,0,1,1.965-.629,3.091,3.091,0,0,1,2.041.649,2.063,2.063,0,0,1,.783,1.661h-1.271a1.142,1.142,0,0,0-.441-.9,1.652,1.652,0,0,0-1.111-.376,1.729,1.729,0,0,0-1.08.3.947.947,0,0,0-.39.786.767.767,0,0,0,.362.69,4.458,4.458,0,0,0,1.309.444,6.821,6.821,0,0,1,1.535.506,2.239,2.239,0,0,1,.872.708,1.74,1.74,0,0,1,.284,1.008,1.893,1.893,0,0,1-.793,1.589,3.326,3.326,0,0,1-2.058.6,3.725,3.725,0,0,1-1.572-.314,2.557,2.557,0,0,1-1.07-.878,2.117,2.117,0,0,1-.386-1.22h1.265a1.309,1.309,0,0,0,.509,1.008,1.976,1.976,0,0,0,1.254.373,2.039,2.039,0,0,0,1.152-.291A.893.893,0,0,0,100.133,61.038ZM104.419,63h-1.265V55.6h1.265Zm-1.367-9.358a.755.755,0,0,1,.188-.52.706.706,0,0,1,.557-.212.717.717,0,0,1,.561.212.747.747,0,0,1,.191.52.722.722,0,0,1-.191.513.73.73,0,0,1-.561.205.718.718,0,0,1-.557-.205A.73.73,0,0,1,103.052,53.642Zm7.7,7.4a.931.931,0,0,0-.386-.8,3.718,3.718,0,0,0-1.347-.489,6.367,6.367,0,0,1-1.524-.492,2.169,2.169,0,0,1-.834-.684,1.635,1.635,0,0,1-.27-.943,1.919,1.919,0,0,1,.769-1.538,3,3,0,0,1,1.965-.629,3.091,3.091,0,0,1,2.041.649,2.063,2.063,0,0,1,.783,1.661h-1.271a1.142,1.142,0,0,0-.441-.9,1.652,1.652,0,0,0-1.111-.376,1.729,1.729,0,0,0-1.08.3.947.947,0,0,0-.39.786.767.767,0,0,0,.362.69,4.458,4.458,0,0,0,1.309.444,6.821,6.821,0,0,1,1.535.506,2.239,2.239,0,0,1,.872.708,1.74,1.74,0,0,1,.284,1.008,1.893,1.893,0,0,1-.793,1.589,3.326,3.326,0,0,1-2.058.6,3.725,3.725,0,0,1-1.572-.314,2.557,2.557,0,0,1-1.07-.878,2.117,2.117,0,0,1-.386-1.22H107.4a1.309,1.309,0,0,0,.509,1.008,1.976,1.976,0,0,0,1.254.373,2.039,2.039,0,0,0,1.152-.291A.893.893,0,0,0,110.749,61.038Zm9.871.219,2.844-8.21H124.9L121.208,63h-1.162l-3.685-9.953h1.429Zm10.6-.861h-4.17l-.937,2.6h-1.354l3.8-9.953h1.148L133.513,63h-1.347Zm-3.773-1.073h3.384l-1.7-4.655Zm11.061-.349h-2.338V63h-1.319V53.047h3.295a3.9,3.9,0,0,1,2.587.766,2.755,2.755,0,0,1,.906,2.229,2.68,2.68,0,0,1-.5,1.62,3,3,0,0,1-1.4,1.032l2.338,4.225V63h-1.408ZM136.165,57.9h2.017a2.275,2.275,0,0,0,1.555-.507,1.714,1.714,0,0,0,.578-1.356,1.8,1.8,0,0,0-.55-1.418,2.33,2.33,0,0,0-1.589-.5h-2.01Zm14.629,1.941a3.662,3.662,0,0,1-1.166,2.437,3.82,3.82,0,0,1-2.608.858,3.507,3.507,0,0,1-2.827-1.265,5.088,5.088,0,0,1-1.063-3.384v-.957a5.671,5.671,0,0,1,.5-2.44,3.7,3.7,0,0,1,1.4-1.617,3.911,3.911,0,0,1,2.105-.564,3.6,3.6,0,0,1,2.543.885,3.706,3.706,0,0,1,1.114,2.451h-1.319a2.86,2.86,0,0,0-.742-1.728,2.244,2.244,0,0,0-1.6-.535,2.348,2.348,0,0,0-1.972.93,4.271,4.271,0,0,0-.714,2.648v.965a4.391,4.391,0,0,0,.677,2.579,2.187,2.187,0,0,0,1.894.958,2.526,2.526,0,0,0,1.678-.5,2.75,2.75,0,0,0,.776-1.726ZM160.234,63h-1.319V58.4H153.9V63h-1.312V53.047H153.9v4.279h5.018V53.047h1.319Zm7.95-2.6h-4.17l-.937,2.6h-1.354l3.8-9.953h1.148L170.481,63h-1.347Zm-3.773-1.073h3.384l-1.7-4.655Zm11.061-.349h-2.338V63h-1.319V53.047h3.295a3.9,3.9,0,0,1,2.587.766,2.755,2.755,0,0,1,.906,2.229,2.68,2.68,0,0,1-.5,1.62,3,3,0,0,1-1.4,1.032l2.338,4.225V63h-1.408ZM173.134,57.9h2.017a2.275,2.275,0,0,0,1.555-.507,1.714,1.714,0,0,0,.578-1.356,1.8,1.8,0,0,0-.55-1.418,2.33,2.33,0,0,0-1.589-.5h-2.01Zm7.062,1.06a10.569,10.569,0,0,1,.414-2.967,8.618,8.618,0,0,1,1.234-2.584,5.249,5.249,0,0,1,1.7-1.641l.26.834a5.444,5.444,0,0,0-1.637,2.338,10.135,10.135,0,0,0-.7,3.521l-.007.581a10.188,10.188,0,0,0,.964,4.58A5.47,5.47,0,0,0,183.8,65.44l-.26.772a5.418,5.418,0,0,1-1.736-1.7A9.5,9.5,0,0,1,180.2,58.96Zm6.542-1.552h.95a2.088,2.088,0,0,0,1.408-.472,1.576,1.576,0,0,0,.513-1.237,1.544,1.544,0,0,0-1.743-1.75,1.813,1.813,0,0,0-1.309.468,1.639,1.639,0,0,0-.489,1.241H184.8a2.539,2.539,0,0,1,.865-1.965,3.15,3.15,0,0,1,2.2-.783,3.113,3.113,0,0,1,2.208.745,2.692,2.692,0,0,1,.8,2.071,2.185,2.185,0,0,1-.42,1.258,2.538,2.538,0,0,1-1.145.909,2.446,2.446,0,0,1,1.268.861,2.392,2.392,0,0,1,.448,1.47,2.715,2.715,0,0,1-.875,2.126,3.277,3.277,0,0,1-2.276.786,3.363,3.363,0,0,1-2.28-.759,2.517,2.517,0,0,1-.878-2h1.271a1.627,1.627,0,0,0,.513,1.258,1.95,1.95,0,0,0,1.374.472,1.914,1.914,0,0,0,1.4-.479,1.844,1.844,0,0,0,.485-1.374,1.673,1.673,0,0,0-.533-1.333,2.323,2.323,0,0,0-1.538-.479h-.95Zm6.6.6.506-4.963h5.1v1.169H194.92l-.3,2.714a3.212,3.212,0,0,1,1.661-.431,2.746,2.746,0,0,1,2.16.9,3.523,3.523,0,0,1,.8,2.43,3.4,3.4,0,0,1-.831,2.423,3.027,3.027,0,0,1-2.321.885,3.146,3.146,0,0,1-2.153-.731,2.919,2.919,0,0,1-.95-2.023h1.2a2.008,2.008,0,0,0,.608,1.289,1.892,1.892,0,0,0,1.3.434,1.706,1.706,0,0,0,1.384-.6,2.515,2.515,0,0,0,.5-1.661,2.308,2.308,0,0,0-.543-1.6,1.849,1.849,0,0,0-1.446-.6,2.085,2.085,0,0,0-1.3.362l-.335.273Zm10.329,1.019a10.574,10.574,0,0,1-.4,2.922,8.641,8.641,0,0,1-1.224,2.581,5.361,5.361,0,0,1-1.726,1.682l-.267-.772a5.5,5.5,0,0,0,1.692-2.505,10.839,10.839,0,0,0,.653-3.77v-.219a11.254,11.254,0,0,0-.3-2.669,9.009,9.009,0,0,0-.837-2.211,5.108,5.108,0,0,0-1.207-1.524l.267-.772a5.34,5.34,0,0,1,1.719,1.668,8.66,8.66,0,0,1,1.224,2.577A10.818,10.818,0,0,1,203.67,59.028Z" transform="translate(26.539 114.639)" fill="#111e61"/>
        <path id="Trazado_101097" data-name="Trazado 101097" d="M4.285-2.514,6.125-9.242H8.614L5.5,0H3.066L-.019-9.242H2.45ZM15.019-3.923h-3.5v2.209h4.139V0H9.287V-9.242h6.379v1.72H11.515v1.949h3.5ZM24.286,0H22.071V-3.859H18.789V0H16.561V-9.242h2.228v3.669h3.282V-9.242h2.215Zm3.783,0H25.848V-9.242h2.222Zm-.844-11.718h2.26L27.72-9.725l-1.746,0ZM37.1-3.129a3.375,3.375,0,0,1-.521,1.7A3.141,3.141,0,0,1,35.239-.279a4.548,4.548,0,0,1-1.965.406A3.629,3.629,0,0,1,30.405-1.06a4.9,4.9,0,0,1-1.047-3.352v-.457a5.594,5.594,0,0,1,.473-2.377A3.583,3.583,0,0,1,31.192-8.82a3.8,3.8,0,0,1,2.057-.555,3.984,3.984,0,0,1,2.7.885,3.5,3.5,0,0,1,1.162,2.441H34.893a1.655,1.655,0,0,0-.425-1.212,1.749,1.749,0,0,0-1.219-.368,1.331,1.331,0,0,0-1.219.622,4,4,0,0,0-.406,1.987v.654A4.424,4.424,0,0,0,32-2.253a1.359,1.359,0,0,0,1.279.635,1.711,1.711,0,0,0,1.174-.362,1.536,1.536,0,0,0,.432-1.149Zm8.3-6.113v6.049a3.477,3.477,0,0,1-.438,1.781A2.837,2.837,0,0,1,43.7-.267a4.428,4.428,0,0,1-1.936.394,3.825,3.825,0,0,1-2.66-.876,3.124,3.124,0,0,1-.99-2.4V-9.242h2.241V-3.1q.038,1.517,1.409,1.517a1.364,1.364,0,0,0,1.047-.381,1.78,1.78,0,0,0,.355-1.238V-9.242Zm3.618,7.528H52.9V0H46.789V-9.242h2.228ZM61.255-4.431a5.45,5.45,0,0,1-.5,2.393,3.706,3.706,0,0,1-1.425,1.6,3.968,3.968,0,0,1-2.1.562,4.024,4.024,0,0,1-2.095-.543A3.7,3.7,0,0,1,53.7-1.968a5.293,5.293,0,0,1-.536-2.317v-.521a5.474,5.474,0,0,1,.5-2.4,3.7,3.7,0,0,1,1.428-1.6,4,4,0,0,1,2.117-.565,3.957,3.957,0,0,1,2.095.559,3.764,3.764,0,0,1,1.431,1.59,5.317,5.317,0,0,1,.517,2.365Zm-2.266-.387a3.886,3.886,0,0,0-.46-2.092,1.476,1.476,0,0,0-1.317-.714q-1.676,0-1.771,2.514l-.006.679a4,4,0,0,0,.451,2.088,1.474,1.474,0,0,0,1.339.73,1.456,1.456,0,0,0,1.3-.717,3.888,3.888,0,0,0,.463-2.063Z" transform="translate(110.539 55.639)" fill="#fff"/>
        <g id="Grupo_20870" data-name="Grupo 20870" transform="translate(24.084 0)">
          <circle id="Elipse_1215" data-name="Elipse 1215" cx="30" cy="30" r="30" transform="translate(0.455 -0.36)" fill="#4dd0e1"/>
          <g id="coche" transform="translate(8.614 14.795)">
            <g id="Grupo_20838" data-name="Grupo 20838" transform="translate(0.622 0.646)">
              <g id="Grupo_20827" data-name="Grupo 20827" transform="translate(36.669 8.753)">
                <path id="Trazado_2619" data-name="Trazado 2619" d="M452.4,186.2h-2.873a1.2,1.2,0,0,0-.517.118q.03.477.03.961v2.38a6.028,6.028,0,0,1,1.012,1.119H452.4a1.221,1.221,0,0,0,1.218-1.218v-2.143A1.221,1.221,0,0,0,452.4,186.2Z" transform="translate(-449.011 -186.195)" fill="#dfebfa"/>
              </g>
              <g id="Grupo_20828" data-name="Grupo 20828" transform="translate(36.669 8.753)">
                <path id="Trazado_2620" data-name="Trazado 2620" d="M450.993,189.554v-2.143a1.221,1.221,0,0,1,1.218-1.218H449.53a1.2,1.2,0,0,0-.518.118q.03.477.03.961v2.38a6.027,6.027,0,0,1,1.012,1.119h2.157A1.221,1.221,0,0,1,450.993,189.554Z" transform="translate(-449.012 -186.194)" fill="#b1dbfc"/>
                <path id="Trazado_2621" data-name="Trazado 2621" d="M449.373,227.839h0Z" transform="translate(-449.343 -224.38)" fill="#b1dbfc"/>
              </g>
              <g id="Grupo_20829" data-name="Grupo 20829" transform="translate(0 8.753)">
                <path id="Trazado_2622" data-name="Trazado 2622" d="M11.417,189.653v-2.38c0-.363.014-.723.039-1.079H8.712a1.221,1.221,0,0,0-1.218,1.218v2.143a1.221,1.221,0,0,0,1.218,1.218H10.4A6.032,6.032,0,0,1,11.417,189.653Z" transform="translate(-7.494 -186.194)" fill="#dfebfa"/>
              </g>
              <path id="Trazado_2623" data-name="Trazado 2623" d="M9.475,189.554v-2.143a1.221,1.221,0,0,1,1.218-1.218H8.712a1.221,1.221,0,0,0-1.218,1.218v2.143a1.221,1.221,0,0,0,1.218,1.218H10.4l.022-.03A1.222,1.222,0,0,1,9.475,189.554Z" transform="translate(-7.494 -177.441)" fill="#b1dbfc"/>
              <g id="Grupo_20830" data-name="Grupo 20830" transform="translate(3.757)">
                <path id="Trazado_2624" data-name="Trazado 2624" d="M56.6,91.667H81.963a5.892,5.892,0,0,1,3.871,1.455v-2.4a13.347,13.347,0,0,0-1.725-6.808c-1.211-2.006-2.871-3.11-4.674-3.11H59.125c-1.8,0-3.463,1.1-4.674,3.11a13.347,13.347,0,0,0-1.725,6.808v2.4A5.893,5.893,0,0,1,56.6,91.667Z" transform="translate(-52.726 -80.803)" fill="#ff4756"/>
              </g>
              <g id="Grupo_20831" data-name="Grupo 20831" transform="translate(3.757)">
                <path id="Trazado_2625" data-name="Trazado 2625" d="M55.4,90.722a13.347,13.347,0,0,1,1.725-6.808c1.211-2.006,2.871-3.11,4.674-3.11H59.126c-1.8,0-3.463,1.1-4.674,3.11a13.347,13.347,0,0,0-1.725,6.808v2.4A5.93,5.93,0,0,1,55.4,91.793Z" transform="translate(-52.727 -80.803)" fill="#fc2d39"/>
              </g>
              <g id="Grupo_20832" data-name="Grupo 20832" transform="translate(5.853 2.114)">
                <path id="Trazado_2626" data-name="Trazado 2626" d="M79.739,115.011h25.366a5.857,5.857,0,0,1,1.775.275v-1.22a11.205,11.205,0,0,0-1.419-5.708,3.633,3.633,0,0,0-2.884-2.1H82.267a3.633,3.633,0,0,0-2.884,2.1,11.205,11.205,0,0,0-1.419,5.708v1.22a5.856,5.856,0,0,1,1.775-.275Z" transform="translate(-77.964 -106.261)" fill="#60b8fe"/>
              </g>
              <g id="Grupo_20833" data-name="Grupo 20833" transform="translate(5.853 2.114)">
                <path id="Trazado_2627" data-name="Trazado 2627" d="M80.634,114.065a11.2,11.2,0,0,1,1.419-5.708,3.633,3.633,0,0,1,2.884-2.1H82.266a3.633,3.633,0,0,0-2.884,2.1,11.205,11.205,0,0,0-1.419,5.708v1.22a5.857,5.857,0,0,1,1.775-.275h.9v-.946Z" transform="translate(-77.963 -106.261)" fill="#23a8fe"/>
              </g>
              <path id="Trazado_2628" data-name="Trazado 2628" d="M291.325,148.059a4.636,4.636,0,0,0-4.616,4.657,4.734,4.734,0,0,0,.042.622h2.1a2.6,2.6,0,0,1-.076-.622,2.548,2.548,0,1,1,5.1,0,2.594,2.594,0,0,1-.076.622h2.1a4.725,4.725,0,0,0,.042-.622A4.636,4.636,0,0,0,291.325,148.059Z" transform="translate(-263.52 -142.473)" fill="#23a8fe"/>
              <path id="Trazado_2629" data-name="Trazado 2629" d="M291.325,148.059a4.636,4.636,0,0,0-4.616,4.657,4.734,4.734,0,0,0,.042.622h2.1a2.6,2.6,0,0,1-.076-.622,2.548,2.548,0,1,1,5.1,0,2.594,2.594,0,0,1-.076.622h2.1a4.725,4.725,0,0,0,.042-.622A4.636,4.636,0,0,0,291.325,148.059Z" transform="translate(-263.52 -142.473)" fill="#23a8fe"/>
              <g id="Grupo_20834" data-name="Grupo 20834" transform="translate(23.189 5.586)">
                <path id="Trazado_2630" data-name="Trazado 2630" d="M289.028,151.6a4.642,4.642,0,0,1,3.389-3.411,4.584,4.584,0,0,0-1.093-.132,4.636,4.636,0,0,0-4.616,4.657,4.735,4.735,0,0,0,.042.622h2.1a2.6,2.6,0,0,1,.175-1.735Z" transform="translate(-286.709 -148.059)" fill="#0193fa"/>
              </g>
              <path id="Trazado_2631" data-name="Trazado 2631" d="M58.982,210.476H33.616a5.97,5.97,0,0,0-5.953,5.953v6.089a.994.994,0,0,1,.277-.04H41.8a1,1,0,0,1,.805-.406H49.99a1,1,0,0,1,.805.406H64.658a.994.994,0,0,1,.277.04v-6.089a5.97,5.97,0,0,0-5.953-5.953Z" transform="translate(-25.988 -199.706)" fill="#ff656f"/>
              <g id="Grupo_20835" data-name="Grupo 20835" transform="translate(1.675 10.769)">
                <path id="Trazado_2632" data-name="Trazado 2632" d="M31.573,216.428a5.97,5.97,0,0,1,5.953-5.953H33.617a5.97,5.97,0,0,0-5.953,5.953v6.088a1,1,0,0,1,.277-.04h3.632v-6.049Z" transform="translate(-27.664 -210.475)" fill="#ff4756"/>
              </g>
              <path id="Trazado_2633" data-name="Trazado 2633" d="M149.52,216.288a3.173,3.173,0,0,0,2.705-1.515l2.635-4.3H135.5l2.635,4.3a3.173,3.173,0,0,0,2.705,1.515Z" transform="translate(-124.87 -199.706)" fill="#ff4756"/>
              <path id="Trazado_2634" data-name="Trazado 2634" d="M141.729,214.773l-2.635-4.3H135.5l2.635,4.3a3.173,3.173,0,0,0,2.705,1.515h3.592A3.173,3.173,0,0,1,141.729,214.773Z" transform="translate(-124.871 -199.706)" fill="#fc2d39"/>
              <ellipse id="Elipse_1216" data-name="Elipse 1216" cx="2.428" cy="2.428" rx="2.428" ry="2.428" transform="translate(31.154 14.314)" fill="#ffd301"/>
              <ellipse id="Elipse_1217" data-name="Elipse 1217" cx="2.428" cy="2.428" rx="2.428" ry="2.428" transform="translate(4.611 14.314)" fill="#ffd301"/>
              <path id="Trazado_2635" data-name="Trazado 2635" d="M385.023,255.583a2.427,2.427,0,0,1,1.224-2.108,2.428,2.428,0,1,0,0,4.216A2.427,2.427,0,0,1,385.023,255.583Z" transform="translate(-351.46 -238.841)" fill="#ffc20c"/>
              <path id="Trazado_2636" data-name="Trazado 2636" d="M65.424,255.583a2.427,2.427,0,0,1,1.224-2.108,2.428,2.428,0,1,0,0,4.216A2.427,2.427,0,0,1,65.424,255.583Z" transform="translate(-58.404 -238.841)" fill="#ffc20c"/>
              <g id="Grupo_20836" data-name="Grupo 20836" transform="translate(30.247 25.25)">
                <path id="Trazado_2637" data-name="Trazado 2637" d="M371.685,384.836V387.5a1.237,1.237,0,0,0,1.233,1.233h5.456a1.237,1.237,0,0,0,1.233-1.233v-2.663Z" transform="translate(-371.685 -384.836)" fill="#665e68"/>
              </g>
              <path id="Trazado_2638" data-name="Trazado 2638" d="M375.317,387.5v-2.663h-3.632V387.5a1.237,1.237,0,0,0,1.233,1.233h3.632A1.237,1.237,0,0,1,375.317,387.5Z" transform="translate(-341.438 -359.586)" fill="#544e55"/>
              <g id="Grupo_20837" data-name="Grupo 20837" transform="translate(2.453 25.25)">
                <path id="Trazado_2639" data-name="Trazado 2639" d="M37.028,384.836V387.5a1.237,1.237,0,0,0,1.233,1.233h5.456A1.237,1.237,0,0,0,44.95,387.5v-2.663Z" transform="translate(-37.028 -384.836)" fill="#665e68"/>
              </g>
              <path id="Trazado_2640" data-name="Trazado 2640" d="M40.66,387.5v-2.663H37.028V387.5a1.237,1.237,0,0,0,1.233,1.233h3.632A1.237,1.237,0,0,1,40.66,387.5Z" transform="translate(-34.575 -359.586)" fill="#544e55"/>
              <path id="Trazado_2641" data-name="Trazado 2641" d="M33.631,352.529v-1.944a1,1,0,0,1,.2-.6H19.886a1.009,1.009,0,0,0-1.006,1.006v1.132a1.009,1.009,0,0,0,1.006,1.006H33.832a1,1,0,0,1-.2-.6Z" transform="translate(-17.934 -327.629)" fill="#dfebfa"/>
              <path id="Trazado_2642" data-name="Trazado 2642" d="M22.512,352.123v-1.132a1.009,1.009,0,0,1,1.006-1.006H19.886a1.009,1.009,0,0,0-1.006,1.006v1.132a1.009,1.009,0,0,0,1.006,1.006h3.632A1.009,1.009,0,0,1,22.512,352.123Z" transform="translate(-17.934 -327.629)" fill="#b1dbfc"/>
              <path id="Trazado_2643" data-name="Trazado 2643" d="M319.134,349.984H305.188a1,1,0,0,1,.2.6v1.944a1,1,0,0,1-.2.6h13.946a1.009,1.009,0,0,0,1.006-1.006V350.99A1.009,1.009,0,0,0,319.134,349.984Z" transform="translate(-280.464 -327.628)" fill="#dfebfa"/>
              <path id="Trazado_2644" data-name="Trazado 2644" d="M201.38,349.048H193.5a1.009,1.009,0,0,1-1.006-1.006V346.1a1.009,1.009,0,0,1,1.006-1.006h7.881a1.009,1.009,0,0,1,1.006,1.006v1.945A1.009,1.009,0,0,1,201.38,349.048Z" transform="translate(-177.128 -323.141)" fill="#b1dbfc"/>
              <path id="Trazado_2645" data-name="Trazado 2645" d="M196.126,348.042V346.1a1.009,1.009,0,0,1,1.006-1.006H193.5a1.009,1.009,0,0,0-1.006,1.006v1.945a1.009,1.009,0,0,0,1.006,1.006h3.632A1.009,1.009,0,0,1,196.126,348.042Z" transform="translate(-177.129 -323.141)" fill="#8bcaff"/>
            </g>
            <g id="Grupo_20839" data-name="Grupo 20839" transform="translate(0 0)">
              <path id="Trazado_2646" data-name="Trazado 2646" d="M40.682,81.781H38.018c-.448-4.171-2.834-8.753-6.929-8.753H10.779c-2.029,0-3.878,1.2-5.206,3.382a13.081,13.081,0,0,0-1.723,5.371H1.84A1.843,1.843,0,0,0,0,83.622v2.143A1.843,1.843,0,0,0,1.84,87.6h.448a6.535,6.535,0,0,0-.613,2.769v5.283a1.628,1.628,0,0,0-.729,1.357v1.132a1.63,1.63,0,0,0,1.507,1.623v1.8a1.858,1.858,0,0,0,1.856,1.856H9.765a1.858,1.858,0,0,0,1.856-1.856V99.774h4.3a1.62,1.62,0,0,0,1.073.406h7.881a1.62,1.62,0,0,0,1.073-.406h4.3v1.791A1.858,1.858,0,0,0,32.1,103.42h5.456a1.858,1.858,0,0,0,1.856-1.856v-1.8a1.63,1.63,0,0,0,1.507-1.623V97.013a1.628,1.628,0,0,0-.729-1.357V93.572a.623.623,0,0,0-1.246,0v1.812h-13a1.636,1.636,0,0,0-1.073-.406H16.993a1.638,1.638,0,0,0-1.073.406h-13V90.373a5.35,5.35,0,0,1,5.33-5.33h2.654l2.452,4a3.82,3.82,0,0,0,3.237,1.812h8.679a3.821,3.821,0,0,0,3.237-1.812l2.452-4h2.654a5.349,5.349,0,0,1,5.33,5.33v.292a.623.623,0,0,0,1.246,0,6.748,6.748,0,0,0-.613-3.061h1.1a1.843,1.843,0,0,0,1.84-1.841V83.622A1.843,1.843,0,0,0,40.682,81.781ZM1.841,86.359a.6.6,0,0,1-.595-.595V83.622a.6.6,0,0,1,.595-.595H3.764c0,.152-.007.3-.007.456v2.1a6.627,6.627,0,0,0-.709.779Zm8.534,15.206a.611.611,0,0,1-.61.61H4.309a.611.611,0,0,1-.61-.61V99.774h6.676Zm27.794,0a.611.611,0,0,1-.61.61H32.1a.611.611,0,0,1-.61-.61V99.774h6.676Zm1.124-4.935a.363.363,0,0,1,.064.007l.026.006a.389.389,0,0,1,.293.371v1.132a.388.388,0,0,1-.383.383H26.5v-1.9Zm-14.419-.406a.39.39,0,0,1,.383.383v1.944a.39.39,0,0,1-.383.383H16.993a.39.39,0,0,1-.383-.383V96.607a.39.39,0,0,1,.383-.383h7.881Zm-9.51.406v1.9H2.575a.388.388,0,0,1-.383-.383V97.013a.388.388,0,0,1,.293-.371l.026-.006a.362.362,0,0,1,.064-.007h12.79ZM7.1,83.9v-.417a10.405,10.405,0,0,1,1.328-5.335,3.063,3.063,0,0,1,2.352-1.779h9.029a.623.623,0,1,0,0-1.246H10.779A4.213,4.213,0,0,0,7.362,77.5a11.658,11.658,0,0,0-1.51,5.983v.769A6.538,6.538,0,0,0,5,84.66V83.483a12.594,12.594,0,0,1,1.634-6.425c1.094-1.8,2.565-2.784,4.142-2.784h20.31c1.577,0,3.048.989,4.142,2.784a12.566,12.566,0,0,1,1.634,6.425V84.66a6.541,6.541,0,0,0-.85-.407v-.769a11.657,11.657,0,0,0-1.51-5.983,4.213,4.213,0,0,0-3.416-2.376H22.715a.623.623,0,1,0,0,1.246h8.374a3.063,3.063,0,0,1,2.352,1.779,10.4,10.4,0,0,1,1.328,5.335V83.9a6.786,6.786,0,0,0-1.1-.1,5.239,5.239,0,0,0-10.477,0H8.251a6.849,6.849,0,0,0-1.153.1Zm20.349,4.494a2.566,2.566,0,0,1-2.174,1.218H16.594a2.566,2.566,0,0,1-2.174-1.218l-2.053-3.35H29.5ZM26.5,83.8a1.925,1.925,0,0,1,3.849,0Zm5.1,0a3.171,3.171,0,0,0-6.341,0h-.822a3.993,3.993,0,0,1,7.986,0Zm9.678,1.966a.6.6,0,0,1-.595.595H38.819a6.634,6.634,0,0,0-.709-.779v-2.1c0-.151,0-.3-.007-.456h2.578a.6.6,0,0,1,.595.595v2.143Z" transform="translate(0 -73.028)" fill="#050402"/>
              <path id="Trazado_2647" data-name="Trazado 2647" d="M185.874,300.85a.623.623,0,1,0,0,1.246h9.851a.623.623,0,1,0,0-1.246Z" transform="translate(-169.866 -281.929)" fill="#050402"/>
              <path id="Trazado_2648" data-name="Trazado 2648" d="M378.172,245.381a3.051,3.051,0,1,0,3.051,3.051A3.054,3.054,0,0,0,378.172,245.381Zm0,4.856a1.805,1.805,0,1,1,1.805-1.805A1.807,1.807,0,0,1,378.172,250.237Z" transform="translate(-343.966 -231.067)" fill="#050402"/>
              <path id="Trazado_2649" data-name="Trazado 2649" d="M55.521,248.432a3.051,3.051,0,1,0,3.051-3.051A3.054,3.054,0,0,0,55.521,248.432Zm4.856,0a1.805,1.805,0,1,1-1.805-1.805A1.807,1.807,0,0,1,60.377,248.432Z" transform="translate(-50.91 -231.067)" fill="#050402"/>
            </g>
          </g>
        </g>
      </g>
      <g id="Grupo_21477" data-name="Grupo 21477" transform="translate(305.45 -0.03)">
        <g id="Rectángulo_4901" data-name="Rectángulo 4901" transform="translate(0.154 29.64)" fill="#fff" stroke="#111e61" stroke-width="1">
          <rect width="245" height="200" rx="20" stroke="none"/>
          <rect x="0.5" y="0.5" width="244" height="199" rx="19.5" fill="none"/>
        </g>
        <path id="Trazado_101100" data-name="Trazado 101100" d="M2.331,0H1.066V-7.4H2.331ZM.964-9.358a.755.755,0,0,1,.188-.52.706.706,0,0,1,.557-.212.717.717,0,0,1,.561.212.747.747,0,0,1,.191.52.722.722,0,0,1-.191.513.73.73,0,0,1-.561.205.718.718,0,0,1-.557-.205A.73.73,0,0,1,.964-9.358Zm3.083,5.6A4.333,4.333,0,0,1,4.854-6.5,2.551,2.551,0,0,1,6.966-7.533a2.565,2.565,0,0,1,2.058.889V-10.5h1.265V0H9.126L9.064-.793a2.575,2.575,0,0,1-2.112.93,2.526,2.526,0,0,1-2.1-1.053,4.382,4.382,0,0,1-.81-2.748Zm1.265.144a3.281,3.281,0,0,0,.52,1.969,1.68,1.68,0,0,0,1.436.711,1.845,1.845,0,0,0,1.757-1.08v-3.4A1.859,1.859,0,0,0,7.28-6.46a1.687,1.687,0,0,0-1.449.718A3.612,3.612,0,0,0,5.312-3.616ZM12.448,0V-9.953h2.81a4.523,4.523,0,0,1,2.3.574A3.884,3.884,0,0,1,19.1-7.745a5.318,5.318,0,0,1,.55,2.434v.636A5.336,5.336,0,0,1,19.1-2.208,3.823,3.823,0,0,1,17.551-.581,4.811,4.811,0,0,1,15.2,0Zm1.313-8.88v7.807h1.381A3,3,0,0,0,17.5-2.017a3.9,3.9,0,0,0,.844-2.689v-.582a3.963,3.963,0,0,0-.8-2.637,2.834,2.834,0,0,0-2.259-.954ZM26-.731A2.686,2.686,0,0,1,23.83.137a2.3,2.3,0,0,1-1.8-.687A2.974,2.974,0,0,1,21.4-2.584V-7.4h1.265v4.778q0,1.682,1.367,1.682a1.893,1.893,0,0,0,1.928-1.08V-7.4h1.265V0h-1.2Zm6.221.868a3.232,3.232,0,0,1-2.447-.988,3.666,3.666,0,0,1-.943-2.642v-.232a4.438,4.438,0,0,1,.42-1.965,3.28,3.28,0,0,1,1.176-1.354,2.956,2.956,0,0,1,1.637-.489,2.77,2.77,0,0,1,2.242.95,4.114,4.114,0,0,1,.8,2.721v.526H30.092a2.629,2.629,0,0,0,.639,1.767A2.009,2.009,0,0,0,32.286-.9a2.2,2.2,0,0,0,1.135-.273,2.851,2.851,0,0,0,.813-.725l.772.6A3.106,3.106,0,0,1,32.218.137Zm-.157-6.631a1.687,1.687,0,0,0-1.285.557,2.708,2.708,0,0,0-.643,1.562h3.705v-.1a2.409,2.409,0,0,0-.52-1.494A1.588,1.588,0,0,0,32.061-6.494Zm5.7-.9.041.93a2.7,2.7,0,0,1,2.215-1.066q2.345,0,2.365,2.646V0H41.118V-4.895a1.7,1.7,0,0,0-.366-1.183,1.466,1.466,0,0,0-1.118-.383,1.825,1.825,0,0,0-1.08.328,2.228,2.228,0,0,0-.725.861V0H36.565V-7.4Zm4.184-2.885a1.7,1.7,0,0,1-.42,1.2,1.365,1.365,0,0,1-1.049.458A1.54,1.54,0,0,1,39.99-8.7a2.619,2.619,0,0,1-.537-.28,2.324,2.324,0,0,0-.479-.256,1.171,1.171,0,0,0-.338-.044.627.627,0,0,0-.479.215.781.781,0,0,0-.2.55l-.848-.048a1.784,1.784,0,0,1,.414-1.21,1.326,1.326,0,0,1,1.049-.479,1.275,1.275,0,0,1,.431.068,3.139,3.139,0,0,1,.52.267,3.057,3.057,0,0,0,.5.26,1.154,1.154,0,0,0,.386.062.612.612,0,0,0,.489-.232.815.815,0,0,0,.195-.54Zm2.01,6.515a4.369,4.369,0,0,1,.427-1.955,3.187,3.187,0,0,1,1.189-1.34,3.238,3.238,0,0,1,1.74-.472,3.119,3.119,0,0,1,2.444,1.046,4.024,4.024,0,0,1,.933,2.782v.089a4.407,4.407,0,0,1-.414,1.938A3.14,3.14,0,0,1,49.092-.342a3.275,3.275,0,0,1-1.767.479A3.111,3.111,0,0,1,44.888-.909a4,4,0,0,1-.933-2.769Zm1.271.15A3.164,3.164,0,0,0,45.8-1.641,1.827,1.827,0,0,0,47.325-.9a1.816,1.816,0,0,0,1.531-.755,3.46,3.46,0,0,0,.567-2.116,3.159,3.159,0,0,0-.578-1.972,1.836,1.836,0,0,0-1.535-.755,1.816,1.816,0,0,0-1.511.745A3.434,3.434,0,0,0,45.227-3.616ZM57.347,0H56.034V-9.953h1.313ZM67.4,0H66.076L61.065-7.67V0H59.746V-9.953h1.319l5.024,7.7v-7.7H67.4Zm9.01-8.88h-3.2V0H71.9V-8.88H68.708V-9.953h7.7ZM8.8,21H7.485L2.475,13.33V21H1.155V11.047H2.475l5.024,7.7v-7.7H8.8Zm1.8-3.767a4.369,4.369,0,0,1,.427-1.955,3.187,3.187,0,0,1,1.189-1.34,3.238,3.238,0,0,1,1.74-.472A3.119,3.119,0,0,1,16.4,14.513a4.024,4.024,0,0,1,.933,2.782v.089a4.407,4.407,0,0,1-.414,1.938,3.14,3.14,0,0,1-1.183,1.336,3.275,3.275,0,0,1-1.767.479,3.111,3.111,0,0,1-2.437-1.046,4,4,0,0,1-.933-2.769Zm1.271.15a3.164,3.164,0,0,0,.571,1.976,1.934,1.934,0,0,0,3.059-.01,3.46,3.46,0,0,0,.567-2.116,3.159,3.159,0,0,0-.578-1.972,1.836,1.836,0,0,0-1.535-.755,1.816,1.816,0,0,0-1.511.745A3.434,3.434,0,0,0,11.874,17.384Zm8.237-3.78.034.82a2.732,2.732,0,0,1,2.194-.957,2.115,2.115,0,0,1,2.112,1.189,2.8,2.8,0,0,1,.96-.861,2.837,2.837,0,0,1,1.4-.328q2.434,0,2.475,2.577V21H28.021V16.119a1.7,1.7,0,0,0-.362-1.186,1.6,1.6,0,0,0-1.217-.393,1.677,1.677,0,0,0-1.169.42,1.706,1.706,0,0,0-.54,1.131V21H23.461V16.153a1.411,1.411,0,0,0-1.579-1.613,1.692,1.692,0,0,0-1.7,1.06V21H18.915V13.6Zm17.343,3.78a4.4,4.4,0,0,1-.779,2.724,2.49,2.49,0,0,1-2.092,1.029,2.578,2.578,0,0,1-2.167-.991L32.354,21H31.192V10.5h1.265v3.917a2.564,2.564,0,0,1,2.112-.95,2.505,2.505,0,0,1,2.116,1.019,4.53,4.53,0,0,1,.769,2.789Zm-1.265-.144a3.417,3.417,0,0,0-.5-2,1.652,1.652,0,0,0-1.436-.7,1.857,1.857,0,0,0-1.8,1.162v3.2a1.909,1.909,0,0,0,1.812,1.162,1.643,1.643,0,0,0,1.415-.7A3.634,3.634,0,0,0,36.189,17.24Zm6.433-2.5A3.79,3.79,0,0,0,42,14.69a1.667,1.667,0,0,0-1.688,1.06V21H39.047V13.6h1.23l.021.854a1.969,1.969,0,0,1,1.764-.991,1.292,1.292,0,0,1,.561.1Zm4.1,6.4a3.232,3.232,0,0,1-2.447-.988,3.666,3.666,0,0,1-.943-2.642v-.232a4.438,4.438,0,0,1,.42-1.965,3.28,3.28,0,0,1,1.176-1.354,2.956,2.956,0,0,1,1.637-.489,2.77,2.77,0,0,1,2.242.95,4.114,4.114,0,0,1,.8,2.721v.526H44.6a2.629,2.629,0,0,0,.639,1.767,2.009,2.009,0,0,0,1.555.673,2.2,2.2,0,0,0,1.135-.273,2.851,2.851,0,0,0,.813-.725l.772.6A3.106,3.106,0,0,1,46.724,21.137Zm-.157-6.631a1.687,1.687,0,0,0-1.285.557,2.708,2.708,0,0,0-.643,1.562h3.705v-.1a2.409,2.409,0,0,0-.52-1.494A1.588,1.588,0,0,0,46.566,14.506Zm8.812,4.532a.931.931,0,0,0-.386-.8,3.718,3.718,0,0,0-1.347-.489,6.367,6.367,0,0,1-1.524-.492,2.169,2.169,0,0,1-.834-.684,1.635,1.635,0,0,1-.27-.943,1.919,1.919,0,0,1,.769-1.538,3,3,0,0,1,1.965-.629,3.091,3.091,0,0,1,2.041.649,2.063,2.063,0,0,1,.783,1.661H55.3a1.142,1.142,0,0,0-.441-.9,1.652,1.652,0,0,0-1.111-.376,1.729,1.729,0,0,0-1.08.3.947.947,0,0,0-.39.786.767.767,0,0,0,.362.69,4.458,4.458,0,0,0,1.309.444,6.821,6.821,0,0,1,1.535.506,2.239,2.239,0,0,1,.872.708,1.74,1.74,0,0,1,.284,1.008,1.893,1.893,0,0,1-.793,1.589,3.326,3.326,0,0,1-2.058.6,3.725,3.725,0,0,1-1.572-.314,2.557,2.557,0,0,1-1.07-.878,2.117,2.117,0,0,1-.386-1.22h1.265a1.309,1.309,0,0,0,.509,1.008,1.976,1.976,0,0,0,1.254.373,2.039,2.039,0,0,0,1.152-.291A.893.893,0,0,0,55.378,19.038Zm9.871.219,2.844-8.21h1.436L65.837,21H64.675L60.99,11.047h1.429Zm10.6-.861h-4.17L70.738,21H69.385l3.8-9.953h1.148L78.142,21H76.795Zm-3.773-1.073h3.384l-1.7-4.655Zm11.061-.349H80.794V21H79.475V11.047H82.77a3.9,3.9,0,0,1,2.587.766,2.755,2.755,0,0,1,.906,2.229,2.68,2.68,0,0,1-.5,1.62,3,3,0,0,1-1.4,1.032L86.7,20.918V21H85.292ZM80.794,15.9h2.017a2.275,2.275,0,0,0,1.555-.507,1.714,1.714,0,0,0,.578-1.356,1.8,1.8,0,0,0-.55-1.418,2.33,2.33,0,0,0-1.589-.5h-2.01Zm14.629,1.941a3.662,3.662,0,0,1-1.166,2.437,3.82,3.82,0,0,1-2.608.858,3.507,3.507,0,0,1-2.827-1.265,5.088,5.088,0,0,1-1.063-3.384v-.957a5.671,5.671,0,0,1,.5-2.44,3.7,3.7,0,0,1,1.4-1.617,3.911,3.911,0,0,1,2.105-.564,3.6,3.6,0,0,1,2.543.885,3.706,3.706,0,0,1,1.114,2.451H94.1a2.86,2.86,0,0,0-.742-1.728,2.244,2.244,0,0,0-1.6-.535,2.348,2.348,0,0,0-1.972.93,4.272,4.272,0,0,0-.714,2.648v.965a4.391,4.391,0,0,0,.677,2.579,2.187,2.187,0,0,0,1.894.958,2.526,2.526,0,0,0,1.678-.5,2.75,2.75,0,0,0,.776-1.726ZM104.863,21h-1.319V16.4H98.526V21H97.214V11.047h1.313v4.279h5.018V11.047h1.319Zm7.95-2.6h-4.17l-.937,2.6h-1.354l3.8-9.953H111.3L115.11,21h-1.347Zm-3.773-1.073h3.384l-1.7-4.655Zm11.061-.349h-2.338V21h-1.319V11.047h3.295a3.9,3.9,0,0,1,2.587.766,2.755,2.755,0,0,1,.906,2.229,2.68,2.68,0,0,1-.5,1.62,3,3,0,0,1-1.4,1.032l2.338,4.225V21h-1.408ZM117.763,15.9h2.017a2.275,2.275,0,0,0,1.555-.507,1.714,1.714,0,0,0,.578-1.356,1.8,1.8,0,0,0-.55-1.418,2.33,2.33,0,0,0-1.589-.5h-2.01Zm10.527,1.06a10.569,10.569,0,0,1,.414-2.967,8.618,8.618,0,0,1,1.234-2.584,5.249,5.249,0,0,1,1.7-1.641l.26.834a5.444,5.444,0,0,0-1.637,2.338,10.135,10.135,0,0,0-.7,3.521l-.007.581a10.188,10.188,0,0,0,.964,4.58A5.47,5.47,0,0,0,131.9,23.44l-.26.772a5.418,5.418,0,0,1-1.736-1.7A9.5,9.5,0,0,1,128.29,16.96Zm10.042.7h1.381v1.032h-1.381V21h-1.271V18.689h-4.532v-.745l4.457-6.9h1.347Zm-4.368,0h3.1V12.776l-.15.273Zm7.472-1.647.506-4.963h5.1v1.169h-4.026l-.3,2.714a3.212,3.212,0,0,1,1.661-.431,2.746,2.746,0,0,1,2.16.9,3.523,3.523,0,0,1,.8,2.43,3.4,3.4,0,0,1-.831,2.423,3.027,3.027,0,0,1-2.321.885,3.146,3.146,0,0,1-2.153-.731,2.919,2.919,0,0,1-.95-2.023h1.2a2.008,2.008,0,0,0,.608,1.289,1.892,1.892,0,0,0,1.3.434,1.706,1.706,0,0,0,1.384-.6,2.515,2.515,0,0,0,.5-1.661,2.308,2.308,0,0,0-.543-1.6,1.849,1.849,0,0,0-1.446-.6,2.085,2.085,0,0,0-1.3.362l-.335.273Zm10.329,1.019a10.574,10.574,0,0,1-.4,2.922,8.641,8.641,0,0,1-1.224,2.581,5.361,5.361,0,0,1-1.726,1.682l-.267-.772a5.5,5.5,0,0,0,1.692-2.505,10.839,10.839,0,0,0,.653-3.77v-.219a11.254,11.254,0,0,0-.3-2.669,9.009,9.009,0,0,0-.837-2.211,5.108,5.108,0,0,0-1.207-1.524l.267-.772a5.34,5.34,0,0,1,1.719,1.668,8.66,8.66,0,0,1,1.224,2.577A10.818,10.818,0,0,1,151.765,17.028ZM6.651,39.4H2.481L1.545,42H.191l3.8-9.953H5.141L8.948,42H7.6ZM2.878,38.322H6.262l-1.7-4.655Zm13.46.062a4.429,4.429,0,0,1-.772,2.721,2.476,2.476,0,0,1-2.092,1.032,2.713,2.713,0,0,1-2.119-.854v3.562H10.09V34.6h1.155l.062.82a2.605,2.605,0,0,1,2.146-.957,2.522,2.522,0,0,1,2.109,1,4.477,4.477,0,0,1,.776,2.8Zm-1.265-.144a3.268,3.268,0,0,0-.533-1.976,1.718,1.718,0,0,0-1.463-.725,1.859,1.859,0,0,0-1.723,1.019v3.534A1.863,1.863,0,0,0,13.091,41.1a1.71,1.71,0,0,0,1.446-.721A3.567,3.567,0,0,0,15.073,38.24Zm5.94,3.9a3.232,3.232,0,0,1-2.447-.988,3.666,3.666,0,0,1-.943-2.642v-.232a4.438,4.438,0,0,1,.42-1.965,3.28,3.28,0,0,1,1.176-1.354,2.956,2.956,0,0,1,1.637-.489,2.77,2.77,0,0,1,2.242.95,4.114,4.114,0,0,1,.8,2.721v.526H18.888a2.629,2.629,0,0,0,.639,1.767,2.009,2.009,0,0,0,1.555.673,2.2,2.2,0,0,0,1.135-.273,2.851,2.851,0,0,0,.813-.725l.772.6A3.106,3.106,0,0,1,21.014,42.137Zm-.157-6.631a1.687,1.687,0,0,0-1.285.557,2.708,2.708,0,0,0-.643,1.562h3.705v-.1a2.409,2.409,0,0,0-.52-1.494A1.588,1.588,0,0,0,20.856,35.506ZM26.735,42H25.471V31.5h1.265Zm3.4,0H28.868V31.5h1.265Zm3.4,0H32.266V34.6H33.53Zm-1.367-9.358a.755.755,0,0,1,.188-.52.706.706,0,0,1,.557-.212.717.717,0,0,1,.561.212.747.747,0,0,1,.191.52.722.722,0,0,1-.191.513.73.73,0,0,1-.561.205.718.718,0,0,1-.557-.205A.73.73,0,0,1,32.163,32.642Zm3.083,5.6a4.333,4.333,0,0,1,.807-2.738,2.745,2.745,0,0,1,4.17-.147V31.5h1.265V42H40.325l-.062-.793a2.575,2.575,0,0,1-2.112.93,2.526,2.526,0,0,1-2.1-1.053,4.382,4.382,0,0,1-.81-2.748Zm1.265.144a3.281,3.281,0,0,0,.52,1.969,1.68,1.68,0,0,0,1.436.711,1.845,1.845,0,0,0,1.757-1.08v-3.4a1.859,1.859,0,0,0-1.743-1.046,1.687,1.687,0,0,0-1.449.718A3.612,3.612,0,0,0,36.511,38.384Zm6.6-.15a4.369,4.369,0,0,1,.427-1.955,3.187,3.187,0,0,1,1.189-1.34,3.238,3.238,0,0,1,1.74-.472,3.119,3.119,0,0,1,2.444,1.046,4.024,4.024,0,0,1,.933,2.782v.089a4.407,4.407,0,0,1-.414,1.938,3.14,3.14,0,0,1-1.183,1.336,3.275,3.275,0,0,1-1.767.479,3.111,3.111,0,0,1-2.437-1.046,4,4,0,0,1-.933-2.769Zm1.271.15a3.164,3.164,0,0,0,.571,1.976,1.934,1.934,0,0,0,3.059-.01,3.46,3.46,0,0,0,.567-2.116,3.159,3.159,0,0,0-.578-1.972,1.836,1.836,0,0,0-1.535-.755,1.816,1.816,0,0,0-1.511.745A3.435,3.435,0,0,0,44.386,38.384ZM55.74,40.038a.931.931,0,0,0-.386-.8,3.718,3.718,0,0,0-1.347-.489,6.367,6.367,0,0,1-1.524-.492,2.169,2.169,0,0,1-.834-.684,1.635,1.635,0,0,1-.27-.943,1.919,1.919,0,0,1,.769-1.538,3,3,0,0,1,1.965-.629,3.091,3.091,0,0,1,2.041.649,2.063,2.063,0,0,1,.783,1.661H55.665a1.142,1.142,0,0,0-.441-.9,1.652,1.652,0,0,0-1.111-.376,1.729,1.729,0,0,0-1.08.3.947.947,0,0,0-.39.786.767.767,0,0,0,.362.69,4.458,4.458,0,0,0,1.309.444,6.821,6.821,0,0,1,1.535.506,2.239,2.239,0,0,1,.872.708A1.74,1.74,0,0,1,57,39.949a1.893,1.893,0,0,1-.793,1.589,3.326,3.326,0,0,1-2.058.6,3.725,3.725,0,0,1-1.572-.314,2.557,2.557,0,0,1-1.07-.878,2.117,2.117,0,0,1-.386-1.22h1.265a1.309,1.309,0,0,0,.509,1.008,1.976,1.976,0,0,0,1.254.373,2.039,2.039,0,0,0,1.152-.291A.893.893,0,0,0,55.74,40.038Zm9.871.219,2.844-8.21h1.436L66.2,42H65.037l-3.685-9.953h1.429Zm10.6-.861h-4.17L71.1,42H69.747l3.8-9.953H74.7L78.5,42H77.157Zm-3.773-1.073h3.384l-1.7-4.655Zm11.061-.349H81.156V42H79.837V32.047h3.295a3.9,3.9,0,0,1,2.587.766,2.755,2.755,0,0,1,.906,2.229,2.68,2.68,0,0,1-.5,1.62,3,3,0,0,1-1.4,1.032l2.338,4.225V42H85.654ZM81.156,36.9h2.017a2.275,2.275,0,0,0,1.555-.507,1.714,1.714,0,0,0,.578-1.356,1.8,1.8,0,0,0-.55-1.418,2.33,2.33,0,0,0-1.589-.5h-2.01Zm14.629,1.941a3.662,3.662,0,0,1-1.166,2.437,3.82,3.82,0,0,1-2.608.858,3.507,3.507,0,0,1-2.827-1.265,5.088,5.088,0,0,1-1.063-3.384v-.957a5.671,5.671,0,0,1,.5-2.44,3.7,3.7,0,0,1,1.4-1.617,3.911,3.911,0,0,1,2.105-.564,3.6,3.6,0,0,1,2.543.885,3.706,3.706,0,0,1,1.114,2.451H94.466a2.86,2.86,0,0,0-.742-1.728,2.244,2.244,0,0,0-1.6-.535,2.348,2.348,0,0,0-1.972.93,4.272,4.272,0,0,0-.714,2.648v.965a4.391,4.391,0,0,0,.677,2.579,2.187,2.187,0,0,0,1.894.958,2.526,2.526,0,0,0,1.678-.5,2.75,2.75,0,0,0,.776-1.726ZM105.226,42h-1.319V37.4H98.889V42H97.576V32.047h1.313v4.279h5.018V32.047h1.319Zm7.95-2.6h-4.17l-.937,2.6h-1.354l3.8-9.953h1.148L115.473,42h-1.347ZM109.4,38.322h3.384l-1.7-4.655Zm11.061-.349h-2.338V42h-1.319V32.047H120.1a3.9,3.9,0,0,1,2.587.766,2.755,2.755,0,0,1,.906,2.229,2.68,2.68,0,0,1-.5,1.62,3,3,0,0,1-1.4,1.032l2.338,4.225V42h-1.408ZM118.125,36.9h2.017a2.275,2.275,0,0,0,1.555-.507,1.714,1.714,0,0,0,.578-1.356,1.8,1.8,0,0,0-.55-1.418,2.33,2.33,0,0,0-1.589-.5h-2.01Zm7.062,1.06a10.569,10.569,0,0,1,.414-2.967,8.618,8.618,0,0,1,1.234-2.584,5.249,5.249,0,0,1,1.7-1.641l.26.834a5.445,5.445,0,0,0-1.637,2.338,10.135,10.135,0,0,0-.7,3.521l-.007.581a10.188,10.188,0,0,0,.964,4.58A5.47,5.47,0,0,0,128.8,44.44l-.26.772a5.418,5.418,0,0,1-1.736-1.7A9.5,9.5,0,0,1,125.187,37.96Zm10.042.7h1.381v1.032h-1.381V42h-1.271V39.689h-4.532v-.745l4.457-6.9h1.347Zm-4.368,0h3.1V33.776l-.15.273Zm7.472-1.647.506-4.963h5.1v1.169h-4.026l-.3,2.714a3.212,3.212,0,0,1,1.661-.431,2.746,2.746,0,0,1,2.16.9,3.523,3.523,0,0,1,.8,2.43,3.4,3.4,0,0,1-.831,2.423,3.027,3.027,0,0,1-2.321.885,3.146,3.146,0,0,1-2.153-.731,2.919,2.919,0,0,1-.95-2.023h1.2a2.008,2.008,0,0,0,.608,1.289,1.892,1.892,0,0,0,1.3.434,1.706,1.706,0,0,0,1.384-.6,2.515,2.515,0,0,0,.5-1.661,2.308,2.308,0,0,0-.543-1.6,1.849,1.849,0,0,0-1.446-.6,2.085,2.085,0,0,0-1.3.362l-.335.273Zm10.329,1.019a10.574,10.574,0,0,1-.4,2.922,8.641,8.641,0,0,1-1.224,2.581,5.361,5.361,0,0,1-1.726,1.682l-.267-.772a5.5,5.5,0,0,0,1.692-2.505,10.839,10.839,0,0,0,.653-3.77v-.219a11.254,11.254,0,0,0-.3-2.669,9.009,9.009,0,0,0-.837-2.211,5.108,5.108,0,0,0-1.207-1.524l.267-.772a5.34,5.34,0,0,1,1.719,1.668,8.66,8.66,0,0,1,1.224,2.577A10.818,10.818,0,0,1,148.661,38.028ZM2.563,63H1.251V53.047H2.563Zm1.894-3.76A4.333,4.333,0,0,1,5.264,56.5a2.551,2.551,0,0,1,2.112-1.036,2.565,2.565,0,0,1,2.058.889V52.5H10.7V63H9.536l-.062-.793a2.575,2.575,0,0,1-2.112.93,2.526,2.526,0,0,1-2.1-1.053,4.382,4.382,0,0,1-.81-2.748Zm1.265.144a3.281,3.281,0,0,0,.52,1.969,1.68,1.68,0,0,0,1.436.711,1.845,1.845,0,0,0,1.757-1.08v-3.4A1.859,1.859,0,0,0,7.69,56.54a1.687,1.687,0,0,0-1.449.718A3.612,3.612,0,0,0,5.722,59.384Zm10.008,3.753a3.232,3.232,0,0,1-2.447-.988,3.666,3.666,0,0,1-.943-2.642v-.232a4.438,4.438,0,0,1,.42-1.965,3.28,3.28,0,0,1,1.176-1.354,2.956,2.956,0,0,1,1.637-.489,2.77,2.77,0,0,1,2.242.95,4.114,4.114,0,0,1,.8,2.721v.526H13.6a2.629,2.629,0,0,0,.639,1.767A2.009,2.009,0,0,0,15.8,62.1a2.2,2.2,0,0,0,1.135-.273,2.851,2.851,0,0,0,.813-.725l.772.6A3.106,3.106,0,0,1,15.729,63.137Zm-.157-6.631a1.687,1.687,0,0,0-1.285.557,2.708,2.708,0,0,0-.643,1.562H17.35v-.1a2.409,2.409,0,0,0-.52-1.494A1.588,1.588,0,0,0,15.572,56.506Zm5.7-.9.041.93a2.7,2.7,0,0,1,2.215-1.066q2.345,0,2.365,2.646V63H24.63V58.105a1.7,1.7,0,0,0-.366-1.183,1.466,1.466,0,0,0-1.118-.383,1.825,1.825,0,0,0-1.08.328,2.228,2.228,0,0,0-.725.861V63H20.077V55.6Zm8.244-1.791V55.6H30.9v.978H29.518v4.593a1.027,1.027,0,0,0,.185.667.777.777,0,0,0,.629.222,3.062,3.062,0,0,0,.6-.082V63a3.688,3.688,0,0,1-.971.136,1.575,1.575,0,0,1-1.278-.513,2.2,2.2,0,0,1-.431-1.456V56.581H26.906V55.6h1.347V53.813ZM33.749,63H32.484V55.6h1.265Zm-1.367-9.358a.755.755,0,0,1,.188-.52.706.706,0,0,1,.557-.212.717.717,0,0,1,.561.212.747.747,0,0,1,.191.52.722.722,0,0,1-.191.513.73.73,0,0,1-.561.205.718.718,0,0,1-.557-.205A.73.73,0,0,1,32.382,53.642ZM36.2,63V56.581H35.027V55.6H36.2v-.629a2.57,2.57,0,0,1,.708-1.928,2.744,2.744,0,0,1,2-.69,6.021,6.021,0,0,1,1.935.417l-.212,1.066A4.382,4.382,0,0,0,39,53.5a1.592,1.592,0,0,0-1.172.366,1.508,1.508,0,0,0-.359,1.1V55.6h1.511v.978H37.468V63Zm5.271,0H40.2V55.6h1.271Zm5.024-.9a1.822,1.822,0,0,0,1.183-.41,1.443,1.443,0,0,0,.561-1.025h1.2a2.293,2.293,0,0,1-.437,1.21,2.881,2.881,0,0,1-1.077.916,3.107,3.107,0,0,1-1.425.342,3.047,3.047,0,0,1-2.4-1.008A4.016,4.016,0,0,1,43.2,59.37v-.212a4.453,4.453,0,0,1,.4-1.921,3.02,3.02,0,0,1,1.138-1.306,3.233,3.233,0,0,1,1.753-.465,2.966,2.966,0,0,1,2.068.745,2.663,2.663,0,0,1,.878,1.935h-1.2a1.743,1.743,0,0,0-.543-1.179,1.691,1.691,0,0,0-1.207-.461,1.77,1.77,0,0,0-1.494.694,3.259,3.259,0,0,0-.53,2.006v.239a3.194,3.194,0,0,0,.526,1.969A1.779,1.779,0,0,0,46.491,62.1Zm8.928.9a2.657,2.657,0,0,1-.178-.779,2.822,2.822,0,0,1-2.105.916,2.611,2.611,0,0,1-1.794-.619,2,2,0,0,1-.7-1.569,2.091,2.091,0,0,1,.878-1.794,4.142,4.142,0,0,1,2.471-.639h1.23v-.581a1.42,1.42,0,0,0-.4-1.056,1.593,1.593,0,0,0-1.169-.393,1.844,1.844,0,0,0-1.135.342,1.007,1.007,0,0,0-.458.827H50.791a1.745,1.745,0,0,1,.393-1.07,2.683,2.683,0,0,1,1.066-.817,3.588,3.588,0,0,1,1.48-.3,2.924,2.924,0,0,1,2,.639,2.306,2.306,0,0,1,.752,1.76v3.4a4.162,4.162,0,0,0,.26,1.62V63Zm-2.1-.964a2.223,2.223,0,0,0,1.128-.308,1.861,1.861,0,0,0,.772-.8V59.411h-.991q-2.324,0-2.324,1.36a1.151,1.151,0,0,0,.4.93A1.524,1.524,0,0,0,53.32,62.036Zm8.114.068a1.822,1.822,0,0,0,1.183-.41,1.443,1.443,0,0,0,.561-1.025h1.2a2.293,2.293,0,0,1-.437,1.21,2.881,2.881,0,0,1-1.077.916,3.107,3.107,0,0,1-1.425.342,3.047,3.047,0,0,1-2.4-1.008,4.016,4.016,0,0,1-.892-2.758v-.212a4.453,4.453,0,0,1,.4-1.921,3.02,3.02,0,0,1,1.138-1.306,3.233,3.233,0,0,1,1.753-.465,2.966,2.966,0,0,1,2.068.745,2.663,2.663,0,0,1,.878,1.935h-1.2a1.743,1.743,0,0,0-.543-1.179,1.691,1.691,0,0,0-1.207-.461,1.77,1.77,0,0,0-1.494.694,3.259,3.259,0,0,0-.53,2.006v.239a3.194,3.194,0,0,0,.526,1.969A1.779,1.779,0,0,0,61.435,62.1Zm5.735.9H65.905V55.6H67.17ZM65.8,53.642a.755.755,0,0,1,.188-.52.706.706,0,0,1,.557-.212.717.717,0,0,1,.561.212.747.747,0,0,1,.191.52.722.722,0,0,1-.191.513.73.73,0,0,1-.561.205.718.718,0,0,1-.557-.205A.73.73,0,0,1,65.8,53.642Zm3.056,5.592a4.369,4.369,0,0,1,.427-1.955,3.187,3.187,0,0,1,1.189-1.34,3.238,3.238,0,0,1,1.74-.472,3.119,3.119,0,0,1,2.444,1.046,4.024,4.024,0,0,1,.933,2.782v.089a4.407,4.407,0,0,1-.414,1.938A3.14,3.14,0,0,1,74,62.658a3.275,3.275,0,0,1-1.767.479,3.111,3.111,0,0,1-2.437-1.046,4,4,0,0,1-.933-2.769Zm1.271.15a3.164,3.164,0,0,0,.571,1.976,1.934,1.934,0,0,0,3.059-.01,3.46,3.46,0,0,0,.567-2.116,3.159,3.159,0,0,0-.578-1.972,1.836,1.836,0,0,0-1.535-.755,1.816,1.816,0,0,0-1.511.745A3.435,3.435,0,0,0,70.13,59.384Zm2.659-6.87H74.32l-1.832,2.01-1.019,0Zm5.585,3.09.041.93a2.7,2.7,0,0,1,2.215-1.066q2.345,0,2.365,2.646V63H81.73V58.105a1.7,1.7,0,0,0-.366-1.183,1.466,1.466,0,0,0-1.118-.383,1.825,1.825,0,0,0-1.08.328,2.228,2.228,0,0,0-.725.861V63H77.178V55.6Zm13.487,5.653,2.844-8.21h1.436L92.449,63H91.287L87.6,53.047h1.429Zm10.6-.861h-4.17L97.351,63H96l3.8-9.953h1.148L104.754,63h-1.347Zm-3.773-1.073h3.384l-1.7-4.655Zm11.061-.349h-2.338V63h-1.319V53.047h3.295a3.9,3.9,0,0,1,2.587.766,2.755,2.755,0,0,1,.906,2.229,2.68,2.68,0,0,1-.5,1.62,3,3,0,0,1-1.4,1.032l2.338,4.225V63H111.9ZM107.406,57.9h2.017a2.275,2.275,0,0,0,1.555-.507,1.714,1.714,0,0,0,.578-1.356,1.8,1.8,0,0,0-.55-1.418,2.33,2.33,0,0,0-1.589-.5h-2.01Zm14.629,1.941a3.662,3.662,0,0,1-1.166,2.437,3.82,3.82,0,0,1-2.608.858,3.507,3.507,0,0,1-2.827-1.265,5.088,5.088,0,0,1-1.063-3.384v-.957a5.671,5.671,0,0,1,.5-2.44,3.7,3.7,0,0,1,1.4-1.617,3.911,3.911,0,0,1,2.105-.564,3.6,3.6,0,0,1,2.543.885,3.706,3.706,0,0,1,1.114,2.451h-1.319a2.86,2.86,0,0,0-.742-1.728,2.244,2.244,0,0,0-1.6-.535,2.348,2.348,0,0,0-1.972.93,4.272,4.272,0,0,0-.714,2.648v.965a4.391,4.391,0,0,0,.677,2.579,2.187,2.187,0,0,0,1.894.958,2.526,2.526,0,0,0,1.678-.5,2.75,2.75,0,0,0,.776-1.726ZM131.476,63h-1.319V58.4h-5.018V63h-1.312V53.047h1.313v4.279h5.018V53.047h1.319Zm7.95-2.6h-4.17l-.937,2.6h-1.354l3.8-9.953h1.148L141.723,63h-1.347Zm-3.773-1.073h3.384l-1.7-4.655Zm11.061-.349h-2.338V63h-1.319V53.047h3.295a3.9,3.9,0,0,1,2.587.766,2.755,2.755,0,0,1,.906,2.229,2.68,2.68,0,0,1-.5,1.62,3,3,0,0,1-1.4,1.032l2.338,4.225V63h-1.408ZM144.375,57.9h2.017a2.275,2.275,0,0,0,1.555-.507,1.714,1.714,0,0,0,.578-1.356,1.8,1.8,0,0,0-.55-1.418,2.33,2.33,0,0,0-1.589-.5h-2.01Zm7.062,1.06a10.569,10.569,0,0,1,.414-2.967,8.618,8.618,0,0,1,1.234-2.584,5.249,5.249,0,0,1,1.7-1.641l.26.834a5.444,5.444,0,0,0-1.637,2.338,10.135,10.135,0,0,0-.7,3.521l-.007.581a10.188,10.188,0,0,0,.964,4.58,5.47,5.47,0,0,0,1.381,1.818l-.26.772a5.418,5.418,0,0,1-1.736-1.7A9.5,9.5,0,0,1,151.437,58.96Zm10.042.7h1.381v1.032h-1.381V63h-1.271V60.689h-4.532v-.745l4.457-6.9h1.347Zm-4.368,0h3.1V54.776l-.15.273Zm7.472-1.647.506-4.963h5.1v1.169h-4.026l-.3,2.714a3.212,3.212,0,0,1,1.661-.431,2.746,2.746,0,0,1,2.16.9,3.523,3.523,0,0,1,.8,2.43,3.4,3.4,0,0,1-.831,2.423,3.027,3.027,0,0,1-2.321.885,3.146,3.146,0,0,1-2.153-.731,2.919,2.919,0,0,1-.95-2.023h1.2a2.008,2.008,0,0,0,.608,1.289,1.892,1.892,0,0,0,1.3.434,1.706,1.706,0,0,0,1.384-.6,2.515,2.515,0,0,0,.5-1.661,2.308,2.308,0,0,0-.543-1.6,1.849,1.849,0,0,0-1.446-.6,2.085,2.085,0,0,0-1.3.362l-.335.273Zm10.329,1.019a10.574,10.574,0,0,1-.4,2.922,8.641,8.641,0,0,1-1.224,2.581,5.361,5.361,0,0,1-1.726,1.682l-.267-.772a5.5,5.5,0,0,0,1.692-2.505,10.839,10.839,0,0,0,.653-3.77v-.219a11.254,11.254,0,0,0-.3-2.669,9.009,9.009,0,0,0-.837-2.211,5.108,5.108,0,0,0-1.207-1.524l.267-.772a5.34,5.34,0,0,1,1.719,1.668,8.66,8.66,0,0,1,1.224,2.577A10.818,10.818,0,0,1,174.911,59.028ZM4.45,82.257l2.844-8.21H8.729L5.038,84H3.876L.191,74.047H1.62Zm8.183,1.88a3.232,3.232,0,0,1-2.447-.988,3.666,3.666,0,0,1-.943-2.642v-.232a4.438,4.438,0,0,1,.42-1.965,3.279,3.279,0,0,1,1.176-1.354,2.956,2.956,0,0,1,1.637-.489,2.77,2.77,0,0,1,2.242.95,4.114,4.114,0,0,1,.8,2.721v.526H10.507a2.629,2.629,0,0,0,.639,1.767A2.009,2.009,0,0,0,12.7,83.1a2.2,2.2,0,0,0,1.135-.273,2.851,2.851,0,0,0,.813-.725l.772.6A3.106,3.106,0,0,1,12.633,84.137Zm-.157-6.631a1.687,1.687,0,0,0-1.285.557,2.708,2.708,0,0,0-.643,1.562h3.705v-.1a2.409,2.409,0,0,0-.52-1.494A1.588,1.588,0,0,0,12.476,77.506Zm5.77-.007a2.689,2.689,0,0,1,2.188-1.032q2.345,0,2.365,2.646V84H21.533V79.105a1.7,1.7,0,0,0-.366-1.183,1.466,1.466,0,0,0-1.118-.383,1.825,1.825,0,0,0-1.08.328,2.228,2.228,0,0,0-.725.861V84H16.98V73.5h1.265Zm7.82,6.5H24.794V76.6h1.271Zm.014-10.479H27.61l-1.832,2.01-1.019,0ZM31.117,83.1a1.822,1.822,0,0,0,1.183-.41,1.443,1.443,0,0,0,.561-1.025h1.2a2.293,2.293,0,0,1-.437,1.21,2.881,2.881,0,0,1-1.077.916,3.107,3.107,0,0,1-1.425.342,3.047,3.047,0,0,1-2.4-1.008,4.016,4.016,0,0,1-.892-2.758v-.212a4.453,4.453,0,0,1,.4-1.921,3.02,3.02,0,0,1,1.138-1.306,3.233,3.233,0,0,1,1.753-.465,2.966,2.966,0,0,1,2.068.745,2.663,2.663,0,0,1,.878,1.935h-1.2a1.743,1.743,0,0,0-.543-1.179,1.691,1.691,0,0,0-1.207-.461,1.77,1.77,0,0,0-1.494.694,3.259,3.259,0,0,0-.53,2.006v.239a3.194,3.194,0,0,0,.526,1.969A1.779,1.779,0,0,0,31.117,83.1Zm8.928.164a2.686,2.686,0,0,1-2.167.868,2.3,2.3,0,0,1-1.8-.687,2.974,2.974,0,0,1-.625-2.034V76.6h1.265v4.778q0,1.682,1.367,1.682a1.893,1.893,0,0,0,1.928-1.08V76.6h1.265V84h-1.2ZM44.57,84H43.306V73.5H44.57Zm1.688-3.767a4.369,4.369,0,0,1,.427-1.955,3.187,3.187,0,0,1,1.189-1.34,3.238,3.238,0,0,1,1.74-.472,3.119,3.119,0,0,1,2.444,1.046,4.024,4.024,0,0,1,.933,2.782v.089a4.407,4.407,0,0,1-.414,1.938A3.14,3.14,0,0,1,51.4,83.658a3.275,3.275,0,0,1-1.767.479,3.111,3.111,0,0,1-2.437-1.046,4,4,0,0,1-.933-2.769Zm1.271.15a3.164,3.164,0,0,0,.571,1.976,1.934,1.934,0,0,0,3.059-.01,3.46,3.46,0,0,0,.567-2.116,3.159,3.159,0,0,0-.578-1.972,1.836,1.836,0,0,0-1.535-.755,1.816,1.816,0,0,0-1.511.745A3.434,3.434,0,0,0,47.53,80.384Zm12.38,4.648H53.648V84H59.91ZM62.269,84H61V76.6h1.265ZM60.9,74.642a.755.755,0,0,1,.188-.52.706.706,0,0,1,.557-.212.717.717,0,0,1,.561.212.747.747,0,0,1,.191.52.722.722,0,0,1-.191.513.73.73,0,0,1-.561.205.718.718,0,0,1-.557-.205A.73.73,0,0,1,60.9,74.642Zm3.083,5.6a4.333,4.333,0,0,1,.807-2.738,2.745,2.745,0,0,1,4.17-.147V73.5h1.265V84H69.063L69,83.207a2.575,2.575,0,0,1-2.112.93,2.526,2.526,0,0,1-2.1-1.053,4.382,4.382,0,0,1-.81-2.748Zm1.265.144a3.281,3.281,0,0,0,.52,1.969,1.68,1.68,0,0,0,1.436.711,1.845,1.845,0,0,0,1.757-1.08v-3.4a1.859,1.859,0,0,0-1.743-1.046,1.687,1.687,0,0,0-1.449.718A3.612,3.612,0,0,0,65.249,80.384Zm10.432,1.873,2.844-8.21H79.96L76.269,84H75.106l-3.685-9.953h1.429Zm8.183,1.88a3.232,3.232,0,0,1-2.447-.988,3.666,3.666,0,0,1-.943-2.642v-.232a4.438,4.438,0,0,1,.42-1.965,3.28,3.28,0,0,1,1.176-1.354,2.956,2.956,0,0,1,1.637-.489,2.77,2.77,0,0,1,2.242.95,4.114,4.114,0,0,1,.8,2.721v.526H81.737a2.629,2.629,0,0,0,.639,1.767,2.009,2.009,0,0,0,1.555.673,2.2,2.2,0,0,0,1.135-.273,2.851,2.851,0,0,0,.813-.725l.772.6A3.106,3.106,0,0,1,83.863,84.137Zm-.157-6.631a1.687,1.687,0,0,0-1.285.557,2.708,2.708,0,0,0-.643,1.562h3.705v-.1a2.409,2.409,0,0,0-.52-1.494A1.588,1.588,0,0,0,83.706,77.506Zm5.77-.007a2.689,2.689,0,0,1,2.188-1.032q2.345,0,2.365,2.646V84H92.764V79.105a1.7,1.7,0,0,0-.366-1.183,1.466,1.466,0,0,0-1.118-.383,1.825,1.825,0,0,0-1.08.328,2.228,2.228,0,0,0-.725.861V84H88.211V73.5h1.265ZM97.3,84H96.024V76.6H97.3Zm.014-10.479h1.531l-1.832,2.01-1.019,0Zm5.038,9.584a1.822,1.822,0,0,0,1.183-.41,1.443,1.443,0,0,0,.561-1.025h1.2a2.293,2.293,0,0,1-.437,1.21,2.882,2.882,0,0,1-1.077.916,3.107,3.107,0,0,1-1.425.342,3.047,3.047,0,0,1-2.4-1.008,4.016,4.016,0,0,1-.892-2.758v-.212a4.453,4.453,0,0,1,.4-1.921,3.02,3.02,0,0,1,1.138-1.306,3.233,3.233,0,0,1,1.753-.465,2.966,2.966,0,0,1,2.068.745,2.663,2.663,0,0,1,.878,1.935h-1.2a1.743,1.743,0,0,0-.543-1.179,1.691,1.691,0,0,0-1.207-.461,1.77,1.77,0,0,0-1.494.694,3.259,3.259,0,0,0-.53,2.006v.239a3.194,3.194,0,0,0,.526,1.969A1.779,1.779,0,0,0,102.348,83.1Zm8.928.164a2.686,2.686,0,0,1-2.167.868,2.3,2.3,0,0,1-1.8-.687,2.974,2.974,0,0,1-.625-2.034V76.6h1.265v4.778q0,1.682,1.367,1.682a1.893,1.893,0,0,0,1.928-1.08V76.6h1.265V84h-1.2ZM115.8,84h-1.265V73.5H115.8Zm1.688-3.767a4.369,4.369,0,0,1,.427-1.955,3.187,3.187,0,0,1,1.189-1.34,3.238,3.238,0,0,1,1.74-.472,3.119,3.119,0,0,1,2.444,1.046,4.024,4.024,0,0,1,.933,2.782v.089a4.407,4.407,0,0,1-.414,1.938,3.14,3.14,0,0,1-1.183,1.336,3.275,3.275,0,0,1-1.767.479,3.111,3.111,0,0,1-2.437-1.046,4,4,0,0,1-.933-2.769Zm1.271.15a3.164,3.164,0,0,0,.571,1.976,1.934,1.934,0,0,0,3.059-.01,3.46,3.46,0,0,0,.567-2.116,3.159,3.159,0,0,0-.578-1.972,1.836,1.836,0,0,0-1.535-.755,1.816,1.816,0,0,0-1.511.745A3.434,3.434,0,0,0,118.761,80.384ZM130.881,84h-1.312V74.047h1.313Zm10.049,0H139.61L134.6,76.33V84H133.28V74.047H134.6l5.024,7.7v-7.7h1.306Zm9.01-8.88h-3.2V84h-1.306V75.12h-3.192V74.047h7.7Z" transform="translate(36.154 104.639)" fill="#111e61"/>
        <path id="Rectángulo_4944" data-name="Rectángulo 4944" d="M20,0H225a20,20,0,0,1,20,20V37a0,0,0,0,1,0,0H0a0,0,0,0,1,0,0V20A20,20,0,0,1,20,0Z" transform="translate(0.154 29.64)" fill="#039be5"/>
        <path id="Trazado_101099" data-name="Trazado 101099" d="M.7,0V-9.242H3.675a4.379,4.379,0,0,1,2.2.555A3.9,3.9,0,0,1,7.4-7.119,4.734,4.734,0,0,1,7.96-4.85v.425a4.761,4.761,0,0,1-.536,2.276A3.921,3.921,0,0,1,5.913-.574,4.283,4.283,0,0,1,3.739,0ZM2.926-7.522v5.808H3.7A1.733,1.733,0,0,0,5.173-2.4a3.344,3.344,0,0,0,.514-2.028v-.4a3.317,3.317,0,0,0-.514-2.019,1.763,1.763,0,0,0-1.5-.679Zm13.425-1.72v6.049a3.477,3.477,0,0,1-.438,1.781A2.837,2.837,0,0,1,14.657-.267a4.428,4.428,0,0,1-1.936.394,3.825,3.825,0,0,1-2.66-.876,3.124,3.124,0,0,1-.99-2.4V-9.242h2.241V-3.1q.038,1.517,1.409,1.517a1.364,1.364,0,0,0,1.047-.381,1.78,1.78,0,0,0,.355-1.238V-9.242Zm7.122,5.319h-3.5v2.209h4.139V0H17.742V-9.242h6.379v1.72H19.97v1.949h3.5ZM32.735,0H30.52L27.244-5.751V0H25.016V-9.242h2.228l3.269,5.751V-9.242h2.222ZM31.376-11.661a1.851,1.851,0,0,1-.422,1.228,1.31,1.31,0,0,1-1.044.5,2.06,2.06,0,0,1-.933-.267,1.946,1.946,0,0,0-.832-.267.477.477,0,0,0-.346.14.58.58,0,0,0-.143.432L26.47-9.953a1.861,1.861,0,0,1,.422-1.219,1.3,1.3,0,0,1,1.038-.514,2.143,2.143,0,0,1,.832.234,5.106,5.106,0,0,0,.651.267,1.257,1.257,0,0,0,.289.032.485.485,0,0,0,.349-.141.583.583,0,0,0,.146-.436Zm10.594,7.23a5.45,5.45,0,0,1-.5,2.393,3.706,3.706,0,0,1-1.425,1.6,3.968,3.968,0,0,1-2.1.562,4.024,4.024,0,0,1-2.095-.543A3.7,3.7,0,0,1,34.42-1.968a5.293,5.293,0,0,1-.536-2.317v-.521a5.474,5.474,0,0,1,.5-2.4A3.7,3.7,0,0,1,35.81-8.8a4,4,0,0,1,2.117-.565,3.957,3.957,0,0,1,2.095.559,3.764,3.764,0,0,1,1.431,1.59,5.317,5.317,0,0,1,.517,2.365ZM39.7-4.818a3.886,3.886,0,0,0-.46-2.092,1.476,1.476,0,0,0-1.317-.714q-1.676,0-1.771,2.514l-.006.679A4,4,0,0,0,36.6-2.342a1.474,1.474,0,0,0,1.339.73,1.456,1.456,0,0,0,1.3-.717A3.888,3.888,0,0,0,39.7-4.393Z" transform="translate(112.154 55.639)" fill="#fff"/>
        <g id="Grupo_20871" data-name="Grupo 20871" transform="translate(25.047 0)">
          <ellipse id="Elipse_1212" data-name="Elipse 1212" cx="30.5" cy="30" rx="30.5" ry="30" transform="translate(0.107 -0.36)" fill="#4dd0e1"/>
          <g id="boy" transform="translate(12.817 9.882)">
            <g id="Grupo_20845" data-name="Grupo 20845" transform="translate(0.59 0.589)">
              <path id="Trazado_2650" data-name="Trazado 2650" d="M145.933,381.979h0l-.442-.579.179-.579a12.978,12.978,0,0,0-.886-2.336l-.755-.466.16-.6a10.574,10.574,0,0,0-2.657-2.977h-11.2a10.576,10.576,0,0,0-2.657,2.977l0,.7-.589.37a12.971,12.971,0,0,0-.887,2.337l.275.8-.537.353a14.906,14.906,0,0,0-.237,2.677h4.529l.494-.39.684.39h3.939l.589-.39.589.39h3.939l.684-.39.494.39h4.529A14.893,14.893,0,0,0,145.933,381.979Z" transform="translate(-118.485 -345.615)" fill="#ff889e"/>
              <path id="Trazado_2651" data-name="Trazado 2651" d="M128.194,381.466a8.753,8.753,0,0,1,3.4-7.027h-1.258a10.576,10.576,0,0,0-2.657,2.977l0,.7-.589.37a12.974,12.974,0,0,0-.887,2.337l.275.8-.537.353a14.9,14.9,0,0,0-.237,2.677h2.75A15.563,15.563,0,0,1,128.194,381.466Z" transform="translate(-118.484 -345.615)" fill="#ff748f"/>
              <path id="Trazado_2652" data-name="Trazado 2652" d="M46.986,23.919a16.419,16.419,0,0,1,32.837,0Z" transform="translate(-45.955 -7.5)" fill="#5c586f"/>
              <g id="Grupo_20840" data-name="Grupo 20840" transform="translate(27.214 13.38)">
                <ellipse id="Elipse_1218" data-name="Elipse 1218" cx="3.842" cy="3.842" rx="3.842" ry="3.842" fill="#ffbd86"/>
              </g>
              <path id="Trazado_2653" data-name="Trazado 2653" d="M52.1,31.545A18.985,18.985,0,0,1,58.457,17.2,16.448,16.448,0,0,0,46.986,32.861H52.14C52.112,32.426,52.1,31.987,52.1,31.545Z" transform="translate(-45.955 -16.443)" fill="#4f4c5f"/>
              <path id="Trazado_2654" data-name="Trazado 2654" d="M109.655,99.372a3.235,3.235,0,0,0-1.979-2.3,13.329,13.329,0,0,1-5.371-4.416c-2.839,4.808-9.211,4.924-9.211,4.924,1.912-1.912.753-4.924.753-4.924-2.208,2.542-5.557,3.52-7.993,3.892a3.206,3.206,0,0,0-2.623,2.338,13.607,13.607,0,1,0,26.424.486Z" transform="translate(-78.934 -85.967)" fill="#fed2a4"/>
              <path id="Trazado_2655" data-name="Trazado 2655" d="M45.654,161.047a19.059,19.059,0,0,1-5.648-13.684,19.8,19.8,0,0,1,.508-4.466,3.2,3.2,0,0,0-2.352,2.284c-.042.158-.081.318-.117.478a3.19,3.19,0,0,0-.338-.017,3.842,3.842,0,0,0,0,7.684,2.332,2.332,0,0,0,.781-.113A13.728,13.728,0,0,0,45.654,161.047Z" transform="translate(-33.865 -132.261)" fill="#ffbd86"/>
              <g id="Grupo_20844" data-name="Grupo 20844" transform="translate(6.141 16.657)">
                <g id="Grupo_20843" data-name="Grupo 20843">
                  <g id="Grupo_20841" data-name="Grupo 20841">
                    <ellipse id="Elipse_1219" data-name="Elipse 1219" cx="3.048" cy="2.427" rx="3.048" ry="2.427" fill="#ff9db0"/>
                  </g>
                  <g id="Grupo_20842" data-name="Grupo 20842" transform="translate(16.52)">
                    <ellipse id="Elipse_1220" data-name="Elipse 1220" cx="3.048" cy="2.427" rx="3.048" ry="2.427" fill="#ff9db0"/>
                  </g>
                </g>
              </g>
            </g>
            <g id="Grupo_20846" data-name="Grupo 20846" transform="translate(0)">
              <path id="Trazado_2656" data-name="Trazado 2656" d="M165.949,197.938v1.246a.589.589,0,0,0,1.178,0v-1.246a.589.589,0,1,0-1.178,0Z" transform="translate(-154.984 -181.847)"/>
              <path id="Trazado_2657" data-name="Trazado 2657" d="M331.625,197.349a.589.589,0,0,0-.589.589v1.246a.589.589,0,0,0,1.178,0v-1.246A.589.589,0,0,0,331.625,197.349Z" transform="translate(-307.103 -181.847)"/>
              <path id="Trazado_2658" data-name="Trazado 2658" d="M230.293,212.941a1.677,1.677,0,0,1-2.531,0,.589.589,0,1,0-.888.774,2.855,2.855,0,0,0,4.307,0,.589.589,0,0,0-.888-.774Z" transform="translate(-210.99 -196.028)"/>
              <path id="Trazado_2659" data-name="Trazado 2659" d="M55.731,4.339A16.974,16.974,0,0,0,35.076,2.787a.589.589,0,1,0,.647.984A15.836,15.836,0,0,1,59.9,13.8a4.48,4.48,0,0,0-1.8-.423,3.838,3.838,0,0,0-2.2-2.235,12.4,12.4,0,0,1-5.1-4.2.59.59,0,0,0-1,.031c-1.547,2.621-4.481,4.034-7.476,4.5a6.111,6.111,0,0,0,.075-4.416.59.59,0,0,0-.995-.175,12.489,12.489,0,0,1-7.637,3.7,3.8,3.8,0,0,0-3.11,2.793,4.479,4.479,0,0,0-1.774.422A15.827,15.827,0,0,1,33.9,5.166a.589.589,0,1,0-.782-.881,16.985,16.985,0,0,0-5.59,10.525A4.428,4.428,0,0,0,31.2,22.222a14.36,14.36,0,0,0,6.533,7.306,13.616,13.616,0,0,0-4.162,10.1.589.589,0,0,0,.589.589H54.631a.589.589,0,0,0,.589-.589,13.634,13.634,0,0,0-4.149-10.09,14.226,14.226,0,0,0,3-2.142.589.589,0,0,0-.8-.862A13.019,13.019,0,0,1,31.812,13.66a2.617,2.617,0,0,1,2.143-1.907,14.361,14.361,0,0,0,7.589-3.307,3.8,3.8,0,0,1-.855,3.339.589.589,0,0,0,.427,1.006,14.429,14.429,0,0,0,3.712-.687A10.807,10.807,0,0,0,50.351,8.3a13.114,13.114,0,0,0,5.122,3.946,2.618,2.618,0,0,1,1.618,1.874A13.008,13.008,0,0,1,54.779,24.86a.589.589,0,0,0,.939.711,14.176,14.176,0,0,0,1.887-3.348,4.435,4.435,0,0,0,3.654-7.413A16.992,16.992,0,0,0,55.731,4.339ZM48.924,30.466V32.39H44.985v-1.2A14.164,14.164,0,0,0,48.924,30.466Zm4.6,5.33H50.1V33.568h2.54A12.19,12.19,0,0,1,53.523,35.8Zm-4.6,0H44.985V33.568h3.939ZM36.149,33.568h2.54V35.8H35.267A12.185,12.185,0,0,1,36.149,33.568Zm3.718,0h3.939V35.8H39.867Zm0-3.108a13.982,13.982,0,0,0,3.939.731v1.2H39.867Zm3.939,6.514V39.04H39.867V36.974Zm1.178,0h3.939V39.04H44.985Zm-6.3-6.719V32.39H36.842A10.836,10.836,0,0,1,38.689,30.255Zm-3.7,6.719h3.7V39.04H34.76A14.119,14.119,0,0,1,34.991,36.974ZM50.1,39.04V36.974h3.7a14.117,14.117,0,0,1,.23,2.067Zm1.846-6.65H50.1V30.255A10.834,10.834,0,0,1,51.948,32.39ZM30.794,21.064a3.253,3.253,0,0,1-.387-6.483A14.2,14.2,0,0,0,30.794,21.064Zm27.213,0a14.343,14.343,0,0,0,.378-6.483,3.253,3.253,0,0,1-.378,6.483Z" transform="translate(-26.357 0)"/>
            </g>
          </g>
        </g>
      </g>
      <path id="Trazado_2670" data-name="Trazado 2670" d="M6538,5251.95h8.341l5.562-5.284,3.178,5.284,3.973-5.284,3.972,5.284h5.562" transform="translate(-6266.595 -5110.048)" fill="none" stroke="#111e61" stroke-linecap="round" stroke-width="3"/>
    </g>
  </g>
</svg>
