<svg xmlns="http://www.w3.org/2000/svg" width="79.332" height="94.158" viewBox="0 0 79.332 94.158">
  <g id="server" transform="translate(-3.246)">
    <g id="Grupo_54342" data-name="Grupo 54342" transform="translate(15.484 18.38)">
      <path id="Trazado_100354" data-name="Trazado 100354" d="M135.332,378.012H113.694V364.2a1.339,1.339,0,1,0-2.645,0v13.813H89.416a1.567,1.567,0,0,0,0,3.1h45.915a1.567,1.567,0,0,0,0-3.1Z" transform="translate(-85.756 -308.114)" fill="#3a556a"/>
      <rect id="Rectángulo_6701" data-name="Rectángulo 6701" width="54.854" height="37.533" fill="#3a556a"/>
    </g>
    <path id="Trazado_100355" data-name="Trazado 100355" d="M80.433,22.285H5.391a2.35,2.35,0,0,1-2.145-2.511V2.511A2.35,2.35,0,0,1,5.391,0H80.433a2.35,2.35,0,0,1,2.145,2.511V19.774A2.35,2.35,0,0,1,80.433,22.285Z" transform="translate(0 0)" fill="#64798a"/>
    <g id="Grupo_54343" data-name="Grupo 54343" transform="translate(47.353 6.042)">
      <rect id="Rectángulo_6702" data-name="Rectángulo 6702" width="2.115" height="10.199" fill="#2f4859"/>
      <rect id="Rectángulo_6703" data-name="Rectángulo 6703" width="2.115" height="10.199" transform="translate(6.736)" fill="#2f4859"/>
      <rect id="Rectángulo_6704" data-name="Rectángulo 6704" width="2.115" height="10.199" transform="translate(13.473)" fill="#2f4859"/>
      <rect id="Rectángulo_6705" data-name="Rectángulo 6705" width="2.115" height="10.199" transform="translate(20.209)" fill="#2f4859"/>
      <rect id="Rectángulo_6706" data-name="Rectángulo 6706" width="2.115" height="10.199" transform="translate(26.945)" fill="#2f4859"/>
    </g>
    <ellipse id="Elipse_4015" data-name="Elipse 4015" cx="3.173" cy="3.714" rx="3.173" ry="3.714" transform="translate(9.412 7.429)" fill="#fcd462"/>
    <ellipse id="Elipse_4016" data-name="Elipse 4016" cx="3.173" cy="3.714" rx="3.173" ry="3.714" transform="translate(18.931 7.429)" fill="#44c4a1"/>
    <ellipse id="Elipse_4017" data-name="Elipse 4017" cx="3.173" cy="3.714" rx="3.173" ry="3.714" transform="translate(28.451 7.429)" fill="#e1e6e9"/>
    <path id="Trazado_100356" data-name="Trazado 100356" d="M80.433,151.589H5.391a2.35,2.35,0,0,1-2.145-2.511V131.815A2.35,2.35,0,0,1,5.391,129.3H80.433a2.35,2.35,0,0,1,2.145,2.511v17.263A2.35,2.35,0,0,1,80.433,151.589Z" transform="translate(0 -103.305)" fill="#64798a"/>
    <g id="Grupo_54344" data-name="Grupo 54344" transform="translate(47.353 32.039)">
      <rect id="Rectángulo_6707" data-name="Rectángulo 6707" width="2.115" height="10.199" fill="#2f4859"/>
      <rect id="Rectángulo_6708" data-name="Rectángulo 6708" width="2.115" height="10.199" transform="translate(6.736)" fill="#2f4859"/>
      <rect id="Rectángulo_6709" data-name="Rectángulo 6709" width="2.115" height="10.199" transform="translate(13.473)" fill="#2f4859"/>
      <rect id="Rectángulo_6710" data-name="Rectángulo 6710" width="2.115" height="10.199" transform="translate(20.209)" fill="#2f4859"/>
      <rect id="Rectángulo_6711" data-name="Rectángulo 6711" width="2.115" height="10.199" transform="translate(26.945)" fill="#2f4859"/>
    </g>
    <ellipse id="Elipse_4018" data-name="Elipse 4018" cx="3.173" cy="3.714" rx="3.173" ry="3.714" transform="translate(9.412 33.423)" fill="#fcd462"/>
    <ellipse id="Elipse_4019" data-name="Elipse 4019" cx="3.173" cy="3.714" rx="3.173" ry="3.714" transform="translate(18.931 33.423)" fill="#44c4a1"/>
    <ellipse id="Elipse_4020" data-name="Elipse 4020" cx="3.173" cy="3.714" rx="3.173" ry="3.714" transform="translate(28.451 33.423)" fill="#e1e6e9"/>
    <path id="Trazado_100357" data-name="Trazado 100357" d="M80.433,281.8H5.391a2.35,2.35,0,0,1-2.145-2.511V262.027a2.35,2.35,0,0,1,2.145-2.511H80.433a2.35,2.35,0,0,1,2.145,2.511V279.29A2.35,2.35,0,0,1,80.433,281.8Z" transform="translate(0 -207.336)" fill="#64798a"/>
    <g id="Grupo_54345" data-name="Grupo 54345" transform="translate(47.353 58.222)">
      <rect id="Rectángulo_6712" data-name="Rectángulo 6712" width="2.115" height="10.199" fill="#2f4859"/>
      <rect id="Rectángulo_6713" data-name="Rectángulo 6713" width="2.115" height="10.199" transform="translate(6.736)" fill="#2f4859"/>
      <rect id="Rectángulo_6714" data-name="Rectángulo 6714" width="2.115" height="10.199" transform="translate(13.473)" fill="#2f4859"/>
      <rect id="Rectángulo_6715" data-name="Rectángulo 6715" width="2.115" height="10.199" transform="translate(20.209)" fill="#2f4859"/>
      <rect id="Rectángulo_6716" data-name="Rectángulo 6716" width="2.115" height="10.199" transform="translate(26.945)" fill="#2f4859"/>
    </g>
    <ellipse id="Elipse_4021" data-name="Elipse 4021" cx="3.173" cy="3.714" rx="3.173" ry="3.714" transform="translate(9.412 59.608)" fill="#fcd462"/>
    <ellipse id="Elipse_4022" data-name="Elipse 4022" cx="3.173" cy="3.714" rx="3.173" ry="3.714" transform="translate(18.931 59.608)" fill="#44c4a1"/>
    <ellipse id="Elipse_4023" data-name="Elipse 4023" cx="3.173" cy="3.714" rx="3.173" ry="3.714" transform="translate(28.451 59.608)" fill="#e1e6e9"/>
    <path id="Trazado_100358" data-name="Trazado 100358" d="M203.01,433.858h-9.185a2.577,2.577,0,0,1-2.352-2.753v-3.159a2.577,2.577,0,0,1,2.352-2.753h9.185a2.577,2.577,0,0,1,2.352,2.753V431.1A2.577,2.577,0,0,1,203.01,433.858Z" transform="translate(-155.892 -339.7)" fill="#2f4859"/>
  </g>
</svg>
