<svg xmlns="http://www.w3.org/2000/svg" width="85" height="85" viewBox="0 0 85 85">
  <g id="Grupo_54359" data-name="Grupo 54359" transform="translate(-285 -6345)">
    <g id="Grupo_54358" data-name="Grupo 54358" transform="translate(286.245 6346.245)">
      <g id="Grupo_54356" data-name="Grupo 54356">
        <g id="Grupo_54348" data-name="Grupo 54348" transform="translate(37.104)">
          <path id="Trazado_100377" data-name="Trazado 100377" d="M240.259,11.65a4.137,4.137,0,0,1-.326,1.615,4.019,4.019,0,0,1-3.912,2.219,3.529,3.529,0,0,1-3.871-3.663,4.249,4.249,0,0,1,2.2-3.931,4.152,4.152,0,0,1,5.91,3.76Z" transform="translate(-231.958 -7.5)" fill="#ccf49f"/>
          <path id="Trazado_100378" data-name="Trazado 100378" d="M238.959,15.019A4.15,4.15,0,1,1,233.5,9.56a4.151,4.151,0,0,0,5.459,5.459Z" transform="translate(-231 -9.218)" fill="#b3e59f"/>
        </g>
        <g id="Grupo_54349" data-name="Grupo 54349" transform="translate(63.341 10.868)">
          <path id="Trazado_100379" data-name="Trazado 100379" d="M398.3,77.112a4.137,4.137,0,0,1-.326,1.616,4.019,4.019,0,0,1-3.913,2.219,3.529,3.529,0,0,1-3.871-3.663,4.249,4.249,0,0,1,2.2-3.931,4.152,4.152,0,0,1,5.91,3.76Z" transform="translate(-389.996 -72.962)" fill="#ccf49f"/>
          <path id="Trazado_100380" data-name="Trazado 100380" d="M397,80.481a4.15,4.15,0,1,1-5.459-5.459A4.151,4.151,0,0,0,397,80.481Z" transform="translate(-389.038 -74.68)" fill="#b3e59f"/>
        </g>
        <g id="Grupo_54350" data-name="Grupo 54350" transform="translate(10.868 10.868)">
          <path id="Trazado_100381" data-name="Trazado 100381" d="M82.221,77.112a4.137,4.137,0,0,1-.326,1.616,4.019,4.019,0,0,1-3.912,2.219,3.529,3.529,0,0,1-3.871-3.663,4.249,4.249,0,0,1,2.2-3.931,4.152,4.152,0,0,1,5.91,3.76Z" transform="translate(-73.92 -72.962)" fill="#ccf49f"/>
          <path id="Trazado_100382" data-name="Trazado 100382" d="M80.921,80.481a4.15,4.15,0,1,1-5.459-5.459,4.151,4.151,0,0,0,5.459,5.459Z" transform="translate(-72.962 -74.68)" fill="#b3e59f"/>
        </g>
        <g id="Grupo_54351" data-name="Grupo 54351" transform="translate(63.341 63.341)">
          <path id="Trazado_100383" data-name="Trazado 100383" d="M398.3,393.188a4.137,4.137,0,0,1-.326,1.616,4.019,4.019,0,0,1-3.913,2.219,3.529,3.529,0,0,1-3.871-3.663,4.249,4.249,0,0,1,2.2-3.931,4.152,4.152,0,0,1,5.91,3.76Z" transform="translate(-389.996 -389.038)" fill="#ccf49f"/>
          <path id="Trazado_100384" data-name="Trazado 100384" d="M397,396.557a4.15,4.15,0,1,1-5.459-5.459A4.151,4.151,0,0,0,397,396.557Z" transform="translate(-389.038 -390.756)" fill="#b3e59f"/>
        </g>
        <g id="Grupo_54352" data-name="Grupo 54352" transform="translate(37.104 74.209)">
          <path id="Trazado_100385" data-name="Trazado 100385" d="M240.259,458.65a4.137,4.137,0,0,1-.326,1.615,4.019,4.019,0,0,1-3.912,2.219,3.529,3.529,0,0,1-3.871-3.663,4.249,4.249,0,0,1,2.2-3.931,4.152,4.152,0,0,1,5.91,3.76Z" transform="translate(-231.958 -454.5)" fill="#ccf49f"/>
          <path id="Trazado_100386" data-name="Trazado 100386" d="M238.959,462.019a4.151,4.151,0,1,1-5.459-5.459,4.151,4.151,0,0,0,5.459,5.459Z" transform="translate(-231 -456.218)" fill="#b3e59f"/>
        </g>
        <g id="Grupo_54353" data-name="Grupo 54353" transform="translate(10.868 63.341)">
          <path id="Trazado_100387" data-name="Trazado 100387" d="M82.221,393.188a4.137,4.137,0,0,1-.326,1.616,4.019,4.019,0,0,1-3.912,2.219,3.529,3.529,0,0,1-3.871-3.663,4.249,4.249,0,0,1,2.2-3.931,4.152,4.152,0,0,1,5.91,3.76Z" transform="translate(-73.92 -389.038)" fill="#ccf49f"/>
          <path id="Trazado_100388" data-name="Trazado 100388" d="M80.921,396.557a4.15,4.15,0,1,1-5.459-5.459,4.151,4.151,0,0,0,5.459,5.459Z" transform="translate(-72.962 -390.756)" fill="#b3e59f"/>
        </g>
        <g id="Grupo_54354" data-name="Grupo 54354" transform="translate(0 37.014)">
          <path id="Trazado_100389" data-name="Trazado 100389" d="M16.759,234.606a4.137,4.137,0,0,1-.326,1.615,4.019,4.019,0,0,1-3.912,2.219,3.529,3.529,0,0,1-3.871-3.663,4.249,4.249,0,0,1,2.2-3.931,4.152,4.152,0,0,1,5.91,3.76Z" transform="translate(-8.458 -230.456)" fill="#ccf49f"/>
          <path id="Trazado_100390" data-name="Trazado 100390" d="M15.459,237.975A4.15,4.15,0,1,1,10,232.516a4.151,4.151,0,0,0,5.459,5.459Z" transform="translate(-7.5 -232.174)" fill="#b3e59f"/>
        </g>
        <g id="Grupo_54355" data-name="Grupo 54355" transform="translate(74.209 37.014)">
          <path id="Trazado_100391" data-name="Trazado 100391" d="M463.759,234.606a4.137,4.137,0,0,1-.326,1.615,4.019,4.019,0,0,1-3.912,2.219,3.529,3.529,0,0,1-3.871-3.663,4.249,4.249,0,0,1,2.2-3.931,4.152,4.152,0,0,1,5.91,3.76Z" transform="translate(-455.458 -230.456)" fill="#ccf49f"/>
          <path id="Trazado_100392" data-name="Trazado 100392" d="M462.459,237.975A4.151,4.151,0,1,1,457,232.516a4.151,4.151,0,0,0,5.459,5.459Z" transform="translate(-454.5 -232.174)" fill="#b3e59f"/>
        </g>
      </g>
      <g id="Grupo_54357" data-name="Grupo 54357" transform="translate(15.005 15.005)">
        <circle id="Elipse_4024" data-name="Elipse 4024" cx="26.5" cy="26.5" r="26.5" transform="translate(-0.25 -0.25)" fill="#b2e5fb"/>
        <path id="Trazado_100393" data-name="Trazado 100393" d="M144.5,201.385a25.734,25.734,0,0,1-38.972-33.195A26.988,26.988,0,0,0,144.5,201.385Z" transform="translate(-100.482 -156.518)" fill="#98e0f9"/>
      </g>
    </g>
    <path id="Trazado_100394" data-name="Trazado 100394" d="M85,42.5a5.4,5.4,0,0,0-4.518-5.323A38.223,38.223,0,0,0,73.12,19.409a5.4,5.4,0,0,0-7.529-7.529A38.231,38.231,0,0,0,47.823,4.517a5.395,5.395,0,0,0-10.646,0,38.22,38.22,0,0,0-7.008,1.656,1.245,1.245,0,1,0,.8,2.358,35.727,35.727,0,0,1,6.382-1.526,5.415,5.415,0,0,0,3.9,3.635v4.908A26.874,26.874,0,0,0,24.273,22.63L20.81,19.167a5.415,5.415,0,0,0,.236-5.4A35.991,35.991,0,0,1,25.91,10.7a1.245,1.245,0,0,0-1.154-2.207,38.478,38.478,0,0,0-5.346,3.387,5.355,5.355,0,0,0-3.147-1.013,5.465,5.465,0,0,0-5.4,5.4,5.356,5.356,0,0,0,1.012,3.146A38.224,38.224,0,0,0,4.518,37.177a5.395,5.395,0,0,0,0,10.646A38.233,38.233,0,0,0,11.88,65.591a5.4,5.4,0,0,0,7.529,7.529,38.219,38.219,0,0,0,17.768,7.362,5.395,5.395,0,0,0,10.647,0,38.143,38.143,0,0,0,8.776-2.3,1.245,1.245,0,1,0-.916-2.316,35.65,35.65,0,0,1-8.035,2.129,5.415,5.415,0,0,0-3.9-3.633V69.448A26.874,26.874,0,0,0,60.727,62.37l3.463,3.463a5.415,5.415,0,0,0-.237,5.4,36.087,36.087,0,0,1-3.227,2.157,1.245,1.245,0,1,0,1.268,2.144,38.538,38.538,0,0,0,3.595-2.414,5.4,5.4,0,0,0,7.532-7.527,38.234,38.234,0,0,0,7.362-17.768A5.4,5.4,0,0,0,85,42.5ZM68.737,63.341a5.363,5.363,0,0,0-2.76.757L62.483,60.6a26.873,26.873,0,0,0,6.965-16.86h4.908a5.416,5.416,0,0,0,3.636,3.9,35.744,35.744,0,0,1-6.755,16.3,5.366,5.366,0,0,0-2.5-.612ZM37.351,77.992a35.729,35.729,0,0,1-16.305-6.757,5.417,5.417,0,0,0-.146-5.257l3.487-3.487a27.047,27.047,0,0,0,16.867,6.958v4.907A5.415,5.415,0,0,0,37.351,77.992ZM13.764,63.953a35.743,35.743,0,0,1-6.755-16.3,5.415,5.415,0,0,0,3.636-3.9h4.91c.041.892.122,1.782.248,2.658a1.245,1.245,0,0,0,1.231,1.067,1.3,1.3,0,0,0,1.234-1.424c-.11-.758-.181-1.528-.22-2.3H28.4a48.447,48.447,0,0,0,1.359,10.5H21.005A25.011,25.011,0,0,1,19.68,51.4a1.245,1.245,0,0,0-2.32.905,26.9,26.9,0,0,0,5.257,8.435l-3.449,3.45a5.516,5.516,0,0,0-5.4-.236Zm2.5-42.295a5.363,5.363,0,0,0,2.76-.757L22.517,24.4a26.873,26.873,0,0,0-6.965,16.86H10.644a5.415,5.415,0,0,0-3.636-3.9,35.735,35.735,0,0,1,6.755-16.3A5.368,5.368,0,0,0,16.263,21.659ZM47.649,7.009a35.74,35.74,0,0,1,16.305,6.756,5.417,5.417,0,0,0,.145,5.257l-3.487,3.487a27.04,27.04,0,0,0-16.868-6.957V10.644a5.415,5.415,0,0,0,3.9-3.636ZM71.236,21.047a35.737,35.737,0,0,1,6.755,16.3,5.415,5.415,0,0,0-3.636,3.9h-4.91c-.036-.788-.1-1.574-.206-2.35a1.245,1.245,0,0,0-2.468.329c.089.667.147,1.343.181,2.021H56.6a48.447,48.447,0,0,0-1.359-10.5h8.748a24.132,24.132,0,0,1,1.436,3.109,1.245,1.245,0,1,0,2.33-.878,26.879,26.879,0,0,0-5.37-8.723l3.451-3.451a5.516,5.516,0,0,0,5.4.236Zm-7.255,33.2H55.237a48.436,48.436,0,0,0,1.359-10.5H66.956a24.313,24.313,0,0,1-2.975,10.5Zm-41.424,2.49h7.912a25.6,25.6,0,0,0,4.973,9.228A24.239,24.239,0,0,1,22.557,56.736ZM18.044,41.255a24.316,24.316,0,0,1,2.975-10.5h8.744a48.437,48.437,0,0,0-1.359,10.5Zm14.311-10.5h8.9v10.5H30.895A45.487,45.487,0,0,1,32.355,30.754Zm30.06-2.49H54.531A25.68,25.68,0,0,0,49.6,19.08,24.739,24.739,0,0,1,62.415,28.264Zm-18.67,0v-10.1c3.3.781,6.241,4.622,8.14,10.1Zm8.9,2.49a45.479,45.479,0,0,1,1.46,10.5H43.745v-10.5Zm-11.39-2.49h-8.14c1.9-5.482,4.836-9.322,8.14-10.1Zm0,15.481v10.5h-8.9a45.478,45.478,0,0,1-1.46-10.5Zm0,12.991v10.1c-3.3-.781-6.241-4.622-8.14-10.1Zm2.49,0h8.14c-1.9,5.482-4.836,9.322-8.14,10.1Zm0-2.49v-10.5h10.36a45.488,45.488,0,0,1-1.46,10.5Zm-11.457-30.5a31.872,31.872,0,0,0-1.82,4.517H22.587a24.582,24.582,0,0,1,12.836-9.207A20.544,20.544,0,0,0,32.289,23.748Zm20.423,37.5a31.872,31.872,0,0,0,1.82-4.517h7.881a24.582,24.582,0,0,1-12.835,9.207A20.544,20.544,0,0,0,52.711,61.252ZM82.51,42.5A2.905,2.905,0,1,1,79.6,39.595,2.909,2.909,0,0,1,82.51,42.5ZM68.737,13.358a2.886,2.886,0,0,1,2.054.851,2.905,2.905,0,1,1-4.109,4.109,2.905,2.905,0,0,1,2.054-4.96ZM39.595,5.4A2.905,2.905,0,1,1,42.5,8.3,2.909,2.909,0,0,1,39.595,5.4ZM14.209,14.209a2.964,2.964,0,0,1,4.109,0,2.909,2.909,0,0,1,0,4.109,2.905,2.905,0,1,1-4.109-4.109ZM2.49,42.5A2.905,2.905,0,1,1,5.4,45.405,2.909,2.909,0,0,1,2.49,42.5ZM16.263,71.642a2.886,2.886,0,0,1-2.054-.851,2.905,2.905,0,0,1,4.109-4.109,2.905,2.905,0,0,1-2.054,4.96ZM45.405,79.6A2.905,2.905,0,1,1,42.5,76.7,2.909,2.909,0,0,1,45.405,79.6Zm25.386-8.813a2.964,2.964,0,0,1-4.109,0h0a2.909,2.909,0,0,1,0-4.109,2.905,2.905,0,1,1,4.109,4.109Z" transform="translate(285 6345)" fill="#415360"/>
  </g>
</svg>
