<svg xmlns="http://www.w3.org/2000/svg" width="190" height="172.185" viewBox="0 0 190 172.185">
  <g id="Grupo_21065" data-name="Grupo 21065" transform="translate(-282.438 -403.916)">
    <g id="Grupo_21056" data-name="Grupo 21056" transform="translate(282.438 453.964)">
      <path id="Trazado_3378" data-name="Trazado 3378" d="M384.857,871.345,282.439,930.83l40.534,23.4a94.129,94.129,0,0,0,94.411-.163l55.055-32.04Z" transform="translate(-282.439 -844.706)" fill="#15325c" opacity="0.22" style="mix-blend-mode: multiply;isolation: isolate"/>
      <g id="Grupo_21055" data-name="Grupo 21055" transform="translate(0 7.739)">
        <path id="Trazado_3379" data-name="Trazado 3379" d="M472.438,806.83l-55.055,32.04a94.129,94.129,0,0,1-94.411.163l-40.534-23.4,102.418-59.485Z" transform="translate(-282.438 -756.146)" fill="#d6edff"/>
        <path id="Trazado_3380" data-name="Trazado 3380" d="M1406.667,1017.906v7.739l-6.649-3.869Z" transform="translate(-1216.667 -974.961)" fill="#d6edff"/>
        <path id="Trazado_3381" data-name="Trazado 3381" d="M289.218,1075.355l-6.779,3.937v-7.739Z" transform="translate(-282.438 -1019.807)" fill="#d6edff"/>
      </g>
      <path id="Trazado_3382" data-name="Trazado 3382" d="M878.475,1052.2l.132,8.626,60.93-35.185v-7.739l-98.328,39.75Z" transform="translate(-749.537 -967.222)" fill="#bbe0fd"/>
      <path id="Trazado_3383" data-name="Trazado 3383" d="M384.857,708.973,282.439,768.458l40.534,23.4a94.129,94.129,0,0,0,94.411-.163l55.055-32.04Z" transform="translate(-282.439 -708.973)" fill="#fff"/>
      <path id="Trazado_3384" data-name="Trazado 3384" d="M494.843,1194.175v7.739l-8.057-4.641v-7.739Z" transform="translate(-453.26 -1110.692)" fill="#fff"/>
      <path id="Trazado_3385" data-name="Trazado 3385" d="M549.953,1225.455v7.737l3.02,1.516v-7.739Z" transform="translate(-506.064 -1140.721)" fill="#fff"/>
    </g>
    <g id="Grupo_21057" data-name="Grupo 21057" transform="translate(402.149 509.258)">
      <rect id="Rect치ngulo_4957" data-name="Rect치ngulo 4957" width="24.318" height="2.184" transform="matrix(0.857, -0.516, 0.516, 0.857, 0, 12.548)" fill="#5b95d3"/>
    </g>
    <g id="Grupo_21058" data-name="Grupo 21058" transform="translate(400.624 489.274)">
      <rect id="Rect치ngulo_4958" data-name="Rect치ngulo 4958" width="2.183" height="22.917" transform="matrix(0.514, -0.857, 0.857, 0.514, 0, 1.872)" fill="#5b95d3"/>
    </g>
    <g id="Grupo_21059" data-name="Grupo 21059" transform="translate(410.683 495.887)">
      <path id="Trazado_3386" data-name="Trazado 3386" d="M1099.424,1011.962l-.11.064-17.536,10.125-.11-.064-17.534-10.125,5.342-3.129,12.055-7.058,12.474,7.1,5.31,3.023Z" transform="translate(-1064.134 -995.661)" fill="#15325c" opacity="0.33" style="mix-blend-mode: multiply;isolation: isolate"/>
      <path id="Trazado_3387" data-name="Trazado 3387" d="M1081.778,1014.634l-.11,6.15-.074,4.143-17.459-10.031v-4.238l5.342-3.129Z" transform="translate(-1064.134 -1000.471)" fill="#183561"/>
      <path id="Trazado_3388" data-name="Trazado 3388" d="M1188.277,1010.821l0,.126-.074,4.173-17.646,10.031.074-4.143.11-6.15,12.228-7.06Z" transform="translate(-1153.095 -1000.696)" fill="#23477c"/>
      <path id="Trazado_3389" data-name="Trazado 3389" d="M1099.424,974.7l-.11.064-17.536,10.125-.11-.064L1064.134,974.7l5.342-3.129,12.055-7.058,12.474,7.1,5.31,3.023Z" transform="translate(-1064.134 -964.509)" fill="#3c6a9e"/>
      <path id="Trazado_3390" data-name="Trazado 3390" d="M1098.155,991.189l11.836-6.929,12.231,6.964-12,6.931Z" transform="translate(-1092.574 -981.02)" fill="#ffd561"/>
      <path id="Trazado_3391" data-name="Trazado 3391" d="M1107.879,995.9l10.246-6,10.614,6.043-10.392,6Z" transform="translate(-1100.702 -985.737)" fill="#5b95d3"/>
      <path id="Trazado_3392" data-name="Trazado 3392" d="M1157.01,1019.632l2.328-1.363,2.411,1.373-2.361,1.363Z" transform="translate(-1141.772 -1009.45)" fill="#bbe0fd"/>
      <path id="Trazado_3393" data-name="Trazado 3393" d="M1118.124,990.706l9.915,5.645.7-.4-10.614-6.043-10.246,6,.689.4Z" transform="translate(-1100.702 -985.737)" fill="#183561"/>
    </g>
    <g id="Grupo_21062" data-name="Grupo 21062" transform="translate(355.177 403.916)">
      <path id="Trazado_3394" data-name="Trazado 3394" d="M726.954,424.649l34.7,19.831,34.254-19.831-34.7-20.733Z" transform="translate(-726.766 -403.916)" fill="#5b95d3"/>
      <path id="Trazado_3395" data-name="Trazado 3395" d="M727.088,808.086l31.489,19.053a2.658,2.658,0,0,0,2.723.017l32.451-19.071a2.658,2.658,0,0,0,.016-4.573L761.6,784.3a2.658,2.658,0,0,0-2.739.008l-31.776,19.233A2.658,2.658,0,0,0,727.088,808.086Z" transform="translate(-725.806 -721.577)" fill="#15325c" opacity="0.33" style="mix-blend-mode: multiply;isolation: isolate"/>
      <path id="Trazado_3396" data-name="Trazado 3396" d="M935.744,547.824v61.3l34.7-20.733V527.542Z" transform="translate(-901.302 -507.26)" fill="#23477c"/>
      <g id="Grupo_21060" data-name="Grupo 21060" transform="translate(38.499 27.351)">
        <path id="Trazado_3397" data-name="Trazado 3397" d="M960.469,637.992V586.171l26.592-15.54v51.475Zm.9-51.3V636.4l24.789-14.809V572.2Z" transform="translate(-960.469 -570.631)" fill="#052754"/>
      </g>
      <path id="Trazado_3398" data-name="Trazado 3398" d="M726.954,527.542v60.846l34.254,20.733v-61.3Z" transform="translate(-726.766 -507.26)" fill="#3c6a9e"/>
      <path id="Trazado_3399" data-name="Trazado 3399" d="M749.278,622.645v-49.15a1.994,1.994,0,0,1,3.01-1.716l22.941,13.583a2,2,0,0,1,.978,1.716V636.53a1.994,1.994,0,0,1-3.027,1.706L750.24,624.351A1.994,1.994,0,0,1,749.278,622.645Z" transform="translate(-745.427 -544.004)" fill="#23477c"/>
      <path id="Trazado_3400" data-name="Trazado 3400" d="M753.049,623a1.994,1.994,0,0,1-.962-1.706v-49.15a2.04,2.04,0,0,1,.018-.267l-.163-.1a1.994,1.994,0,0,0-3.01,1.716v49.15a1.994,1.994,0,0,0,.962,1.706l22.94,13.885a1.994,1.994,0,0,0,3.009-1.441Z" transform="translate(-745.138 -544.004)" fill="#052754"/>
      <path id="Trazado_3401" data-name="Trazado 3401" d="M798.94,612.314,776.4,598.97v7.662l22.536,13.344Z" transform="translate(-768.103 -566.969)" fill="#5b95d3"/>
      <path id="Trazado_3402" data-name="Trazado 3402" d="M798.94,670.006,776.4,656.662v7.662l22.536,13.344Z" transform="translate(-768.103 -615.197)" fill="#5b95d3"/>
      <path id="Trazado_3403" data-name="Trazado 3403" d="M798.94,727.7,776.4,714.354v7.662L798.94,735.36Z" transform="translate(-768.103 -663.424)" fill="#5b95d3"/>
      <path id="Trazado_3404" data-name="Trazado 3404" d="M798.94,785.39,776.4,772.046v7.662l22.536,13.344Z" transform="translate(-768.103 -711.651)" fill="#5b95d3"/>
      <path id="Trazado_3405" data-name="Trazado 3405" d="M798.94,843.082,776.4,829.738V837.4l22.536,13.344Z" transform="translate(-768.103 -759.878)" fill="#5b95d3"/>
      <g id="Grupo_21061" data-name="Grupo 21061" transform="translate(12.17 35.606)">
        <path id="Trazado_3406" data-name="Trazado 3406" d="M799.983,620.948v5.032l14.8,8.763v-5.032Z" transform="translate(-799.983 -620.948)" fill="#d6effb"/>
        <path id="Trazado_3407" data-name="Trazado 3407" d="M799.983,683.672l14.8,8.763V687.4l-14.8-8.763Z" transform="translate(-799.983 -669.175)" fill="#d6effb"/>
        <path id="Trazado_3408" data-name="Trazado 3408" d="M799.983,741.364l14.8,8.763v-5.032l-14.8-8.763Z" transform="translate(-799.983 -717.402)" fill="#d6effb"/>
        <path id="Trazado_3409" data-name="Trazado 3409" d="M799.983,799.056l14.8,8.763v-5.032l-14.8-8.763Z" transform="translate(-799.983 -765.629)" fill="#d6effb"/>
        <path id="Trazado_3410" data-name="Trazado 3410" d="M799.983,856.748l14.8,8.763v-5.032l-14.8-8.762Z" transform="translate(-799.983 -813.856)" fill="#d6effb"/>
      </g>
    </g>
    <path id="Trazado_3411" data-name="Trazado 3411" d="M749.089,1122.375l-.247-.145-26.819-15.721.5-.849,26.572,15.576,17.785-10.261.492.853Z" transform="translate(-367.467 -586.616)" fill="#5b95d3"/>
    <g id="Grupo_21063" data-name="Grupo 21063" transform="translate(383.608 511.608)">
      <path id="Trazado_3412" data-name="Trazado 3412" d="M934.39,1105.126l-.11.064-17.536,10.125-.11-.064L899.1,1105.126l5.342-3.129,12.055-7.058,12.474,7.1,5.31,3.023Z" transform="translate(-899.1 -1089.262)" fill="#15325c" opacity="0.33" style="mix-blend-mode: multiply;isolation: isolate"/>
      <path id="Trazado_3413" data-name="Trazado 3413" d="M916.744,1110.46l-.11,6.15-.074,4.143L899.1,1110.722v-4.238l5.342-3.129Z" transform="translate(-899.1 -1096.298)" fill="#183561"/>
      <path id="Trazado_3414" data-name="Trazado 3414" d="M1023.243,1106.647l0,.126-.074,4.173-17.646,10.031.074-4.143.11-6.15,12.228-7.06Z" transform="translate(-988.061 -1096.522)" fill="#23477c"/>
      <path id="Trazado_3415" data-name="Trazado 3415" d="M934.39,1070.522l-.11.064-17.536,10.125-.11-.064L899.1,1070.522l5.342-3.129,12.055-7.058,12.474,7.1,5.31,3.023Z" transform="translate(-899.1 -1060.335)" fill="#3c6a9e"/>
      <path id="Trazado_3416" data-name="Trazado 3416" d="M933.121,1087.015l11.835-6.929,12.232,6.964-12,6.931Z" transform="translate(-927.54 -1076.846)" fill="#ffd561"/>
      <path id="Trazado_3417" data-name="Trazado 3417" d="M942.845,1091.728l10.246-6,10.614,6.043-10.392,6Z" transform="translate(-935.668 -1081.564)" fill="#5b95d3"/>
      <path id="Trazado_3418" data-name="Trazado 3418" d="M991.976,1115.458l2.328-1.363,2.411,1.373-2.361,1.363Z" transform="translate(-976.739 -1105.276)" fill="#bbe0fd"/>
      <path id="Trazado_3419" data-name="Trazado 3419" d="M953.091,1086.532l9.915,5.645.7-.4-10.614-6.043-10.246,6,.689.4Z" transform="translate(-935.668 -1081.564)" fill="#183561"/>
    </g>
    <g id="Grupo_21064" data-name="Grupo 21064" transform="translate(311.02 488.026)">
      <path id="Trazado_3420" data-name="Trazado 3420" d="M522.7,1000.428l-.206.12-32.82,18.95-.206-.12-32.816-18.95,10-5.857,22.563-13.21,23.347,13.292,9.938,5.658Z" transform="translate(-456.656 -970.736)" fill="#15325c" opacity="0.33" style="mix-blend-mode: multiply;isolation: isolate"/>
      <path id="Trazado_3421" data-name="Trazado 3421" d="M489.678,1010.41l-.206,11.51-.139,7.755L456.656,1010.9v-7.931l10-5.856Z" transform="translate(-456.656 -983.904)" fill="#183561"/>
      <path id="Trazado_3422" data-name="Trazado 3422" d="M689,1003.275l0,.236-.139,7.811L655.835,1030.1l.139-7.755.206-11.51,22.885-13.214Z" transform="translate(-623.157 -984.325)" fill="#23477c"/>
      <path id="Trazado_3423" data-name="Trazado 3423" d="M522.7,935.662l-.206.12-32.82,18.95-.206-.12-32.816-18.95,10-5.856,22.563-13.21,23.347,13.292,9.938,5.658Z" transform="translate(-456.656 -916.596)" fill="#3c6a9e"/>
      <path id="Trazado_3424" data-name="Trazado 3424" d="M520.331,966.531l22.151-12.969L565.375,966.6l-22.467,12.972Z" transform="translate(-509.884 -947.497)" fill="#ffd561"/>
      <path id="Trazado_3425" data-name="Trazado 3425" d="M538.529,975.352l19.176-11.227,19.865,11.31-19.45,11.23Z" transform="translate(-525.097 -956.328)" fill="#5b95d3"/>
      <path id="Trazado_3426" data-name="Trazado 3426" d="M630.484,1019.765l4.356-2.55,4.513,2.569-4.419,2.551Z" transform="translate(-601.966 -1000.707)" fill="#bbe0fd"/>
      <path id="Trazado_3427" data-name="Trazado 3427" d="M557.705,965.626l18.556,10.565,1.309-.756-19.865-11.31-19.176,11.227,1.29.745Z" transform="translate(-525.097 -956.328)" fill="#183561"/>
    </g>
  </g>
</svg>
