<svg xmlns="http://www.w3.org/2000/svg" xmlns:xlink="http://www.w3.org/1999/xlink" width="266.13" height="267.17" viewBox="0 0 266.13 267.17">
  <defs>
    <style>
      .cls-1 {
        isolation: isolate;
      }

      .cls-2 {
        fill: #92b4d1;
        opacity: 0.2;
      }

      .cls-3 {
        fill: #2672ab;
      }

      .cls-4 {
        fill: #d1ebff;
      }

      .cls-5, .cls-6 {
        fill: #3f92d1;
      }

      .cls-17, .cls-5 {
        opacity: 0.5;
      }

      .cls-14, .cls-52, .cls-7, .cls-8 {
        fill: #fff;
      }

      .cls-8 {
        opacity: 0.3;
      }

      .cls-9 {
        fill: #a8cff0;
      }

      .cls-10 {
        fill: #72b5e8;
      }

      .cls-11 {
        fill: #03336e;
      }

      .cls-12 {
        fill: #022652;
      }

      .cls-13 {
        fill: #4f9fdb;
      }

      .cls-14 {
        mix-blend-mode: screen;
      }

      .cls-15, .cls-45 {
        fill: #001a46;
      }

      .cls-15, .cls-21 {
        opacity: 0.1;
      }

      .cls-16 {
        fill: #feda8e;
      }

      .cls-17 {
        fill: #fc0;
      }

      .cls-17, .cls-18, .cls-21, .cls-22, .cls-23, .cls-24, .cls-25, .cls-26, .cls-27, .cls-28, .cls-29, .cls-30, .cls-31, .cls-32, .cls-33, .cls-34, .cls-35, .cls-36, .cls-37, .cls-38, .cls-39, .cls-40, .cls-41, .cls-42, .cls-44 {
        mix-blend-mode: multiply;
      }

      .cls-19 {
        fill: #603913;
      }

      .cls-20 {
        fill: #0fbab8;
      }

      .cls-21 {
        fill: url(#linear-gradient);
      }

      .cls-22 {
        opacity: 0.14;
        fill: url(#linear-gradient-2);
      }

      .cls-23 {
        opacity: 0.19;
        fill: url(#linear-gradient-3);
      }

      .cls-24 {
        opacity: 0.23;
        fill: url(#linear-gradient-4);
      }

      .cls-25 {
        opacity: 0.27;
        fill: url(#linear-gradient-5);
      }

      .cls-26 {
        opacity: 0.31;
        fill: url(#linear-gradient-6);
      }

      .cls-27 {
        opacity: 0.36;
        fill: url(#linear-gradient-7);
      }

      .cls-28 {
        opacity: 0.4;
        fill: url(#linear-gradient-8);
      }

      .cls-29 {
        opacity: 0.44;
        fill: url(#linear-gradient-9);
      }

      .cls-30 {
        opacity: 0.49;
        fill: url(#linear-gradient-10);
      }

      .cls-31 {
        opacity: 0.53;
        fill: url(#linear-gradient-11);
      }

      .cls-32 {
        opacity: 0.57;
        fill: url(#linear-gradient-12);
      }

      .cls-33 {
        opacity: 0.61;
        fill: url(#linear-gradient-13);
      }

      .cls-34 {
        opacity: 0.66;
        fill: url(#linear-gradient-14);
      }

      .cls-35 {
        opacity: 0.7;
        fill: url(#linear-gradient-15);
      }

      .cls-36 {
        opacity: 0.74;
        fill: url(#linear-gradient-16);
      }

      .cls-37 {
        opacity: 0.79;
        fill: url(#linear-gradient-17);
      }

      .cls-38 {
        opacity: 0.83;
        fill: url(#linear-gradient-18);
      }

      .cls-39 {
        opacity: 0.87;
        fill: url(#linear-gradient-19);
      }

      .cls-40 {
        opacity: 0.91;
        fill: url(#linear-gradient-20);
      }

      .cls-41 {
        opacity: 0.96;
        fill: url(#linear-gradient-21);
      }

      .cls-42 {
        fill: url(#linear-gradient-22);
      }

      .cls-43 {
        fill: #084c94;
      }

      .cls-44 {
        fill: url(#radial-gradient);
      }

      .cls-46 {
        fill: #f76195;
      }

      .cls-47 {
        fill: #eb4680;
      }

      .cls-48 {
        fill: #f5b500;
      }

      .cls-49 {
        fill: #ffd70f;
      }

      .cls-50 {
        fill: #0ba19f;
      }

      .cls-51 {
        fill: #3ecfcd;
      }

      .cls-52 {
        opacity: 0.7;
      }
    </style>
    <linearGradient id="linear-gradient" x1="125.62" y1="72.58" x2="205.07" y2="50.42" gradientUnits="userSpaceOnUse">
      <stop offset="0.06" stop-color="#92a3b0"/>
      <stop offset="1" stop-color="#fff"/>
    </linearGradient>
    <linearGradient id="linear-gradient-2" x1="125.46" y1="73.23" x2="202.46" y2="51.76" xlink:href="#linear-gradient"/>
    <linearGradient id="linear-gradient-3" x1="125.3" y1="73.88" x2="199.89" y2="53.09" xlink:href="#linear-gradient"/>
    <linearGradient id="linear-gradient-4" x1="125.14" y1="74.54" x2="197.35" y2="54.4" xlink:href="#linear-gradient"/>
    <linearGradient id="linear-gradient-5" x1="124.98" y1="75.19" x2="194.85" y2="55.71" xlink:href="#linear-gradient"/>
    <linearGradient id="linear-gradient-6" x1="124.83" y1="75.85" x2="192.4" y2="57.01" xlink:href="#linear-gradient"/>
    <linearGradient id="linear-gradient-7" x1="124.67" y1="76.51" x2="189.98" y2="58.3" xlink:href="#linear-gradient"/>
    <linearGradient id="linear-gradient-8" x1="124.51" y1="77.17" x2="187.6" y2="59.57" xlink:href="#linear-gradient"/>
    <linearGradient id="linear-gradient-9" x1="124.36" y1="77.83" x2="185.25" y2="60.85" xlink:href="#linear-gradient"/>
    <linearGradient id="linear-gradient-10" x1="124.2" y1="78.49" x2="182.95" y2="62.11" xlink:href="#linear-gradient"/>
    <linearGradient id="linear-gradient-11" x1="124.05" y1="79.16" x2="180.69" y2="63.36" xlink:href="#linear-gradient"/>
    <linearGradient id="linear-gradient-12" x1="123.89" y1="79.83" x2="178.46" y2="64.61" xlink:href="#linear-gradient"/>
    <linearGradient id="linear-gradient-13" x1="123.74" y1="80.5" x2="176.28" y2="65.85" xlink:href="#linear-gradient"/>
    <linearGradient id="linear-gradient-14" x1="123.59" y1="81.18" x2="174.13" y2="67.08" xlink:href="#linear-gradient"/>
    <linearGradient id="linear-gradient-15" x1="123.44" y1="81.86" x2="172.03" y2="68.31" xlink:href="#linear-gradient"/>
    <linearGradient id="linear-gradient-16" x1="123.29" y1="82.55" x2="169.96" y2="69.54" xlink:href="#linear-gradient"/>
    <linearGradient id="linear-gradient-17" x1="123.15" y1="83.26" x2="167.94" y2="70.77" xlink:href="#linear-gradient"/>
    <linearGradient id="linear-gradient-18" x1="123.01" y1="83.97" x2="165.96" y2="71.99" xlink:href="#linear-gradient"/>
    <linearGradient id="linear-gradient-19" x1="122.87" y1="84.7" x2="164.02" y2="73.23" xlink:href="#linear-gradient"/>
    <linearGradient id="linear-gradient-20" x1="122.74" y1="85.46" x2="162.13" y2="74.48" xlink:href="#linear-gradient"/>
    <linearGradient id="linear-gradient-21" x1="122.62" y1="86.24" x2="160.28" y2="75.74" xlink:href="#linear-gradient"/>
    <linearGradient id="linear-gradient-22" x1="122.51" y1="87.06" x2="158.48" y2="77.03" xlink:href="#linear-gradient"/>
    <radialGradient id="radial-gradient" cx="7685.26" cy="2015.15" r="23.23" gradientTransform="matrix(-0.5, -0.87, -0.5, 0.86, 4935.79, 5026.23)" xlink:href="#linear-gradient"/>
  </defs>
  <g class="cls-1">
    <g id="Layer_1" data-name="Layer 1">
      <g>
        <g>
          <path class="cls-2" d="M162.75,226.79,51,162.24c-4.42-2.55-3.86-7,1.23-9.94l63.45-36.64c5.1-2.94,12.81-3.26,17.23-.71l111.8,64.55c4.42,2.55,3.86,7-1.24,9.94L180,226.08C174.88,229,167.16,229.34,162.75,226.79Z"/>
          <path class="cls-3" d="M162.75,222.5,51,158c-2-1.13-3-2.65-3-4.24v-5.54c0-1.93,1.46,1.43,4.21-.16l63.45-36.64c5.1-2.94,12.81-3.26,17.23-.71l111.8,64.55c1.47.85,2.54-2.76,2.93-1.61.12.38,0,5.45,0,5.84,0,2-1.39,4.08-4.22,5.71L180,221.79C174.88,224.73,167.16,225.05,162.75,222.5Z"/>
          <path class="cls-4" d="M162.75,217.07,51,152.52c-4.42-2.55-3.86-7,1.23-10l63.45-36.63c5.1-2.94,12.81-3.26,17.23-.72l111.8,64.55c4.42,2.55,3.86,7-1.24,9.95L180,216.35C174.88,219.29,167.16,219.61,162.75,217.07Z"/>
          <path class="cls-5" d="M162.75,222.5c4.41,2.55,12.13,2.23,17.22-.71v-5.44c-5.09,2.94-12.81,3.26-17.22.72Z"/>
          <path class="cls-6" d="M162.75,217.07,51,152.52c-2.14-1.24-3.1-2.91-3-4.65a2.36,2.36,0,0,0,0,.3v5.54c0,1.59,1,3.11,3,4.24l111.8,64.55Z"/>
          <path class="cls-7" d="M243.42,178.8,180,215.43c-5.09,2.94-12.81,3.26-17.22.71L51,151.59a5.27,5.27,0,0,1-3-3.91c-.23,1.8.73,3.56,3,4.84l111.8,64.55c4.41,2.54,12.13,2.22,17.22-.72l63.45-36.63c3-1.72,4.4-4,4.19-6C247.38,175.48,246,177.33,243.42,178.8Z"/>
          <path class="cls-8" d="M137.3,194.52l-39.79-23c-.8-.46-.7-1.26.22-1.79l14.94-8.63a3.46,3.46,0,0,1,3.11-.13l39.79,23c.8.46.7,1.26-.22,1.79l-14.94,8.63A3.46,3.46,0,0,1,137.3,194.52Z"/>
          <path class="cls-9" d="M97.73,170.69l14.94-8.62a3.46,3.46,0,0,1,3.11-.13l39.79,23a1.32,1.32,0,0,1,.37.32.83.83,0,0,0-.37-1.26l-39.79-23a3.46,3.46,0,0,0-3.11.13l-14.94,8.63c-.73.42-.93,1-.59,1.47A1.82,1.82,0,0,1,97.73,170.69Z"/>
          <path class="cls-10" d="M125.58,113.52l6.86,4a3.49,3.49,0,0,0,3.15,0,1,1,0,0,0,0-1.81l-6.86-4a3.46,3.46,0,0,0-3.15,0A1,1,0,0,0,125.58,113.52Zm11.74,6.78,3.25,1.87a3.46,3.46,0,0,0,3.15,0,1,1,0,0,0,0-1.82l-3.25-1.87a3.46,3.46,0,0,0-3.15,0C136.44,119,136.45,119.79,137.32,120.3Zm8.13,4.69,3.25,1.88a3.49,3.49,0,0,0,3.15,0c.87-.5.86-1.31,0-1.81l-3.25-1.88a3.5,3.5,0,0,0-3.15,0A1,1,0,0,0,145.45,125Zm8.13,4.7,3.25,1.87a3.46,3.46,0,0,0,3.15,0,1,1,0,0,0,0-1.82l-3.25-1.87a3.46,3.46,0,0,0-3.15,0A1,1,0,0,0,153.58,129.69Zm8.14,4.69,3.24,1.88a3.49,3.49,0,0,0,3.15,0c.87-.5.87-1.31,0-1.81l-3.25-1.88a3.44,3.44,0,0,0-3.14,0C160.84,133.07,160.84,133.88,161.72,134.38Zm8.13,4.7L173.1,141a3.44,3.44,0,0,0,3.14,0,1,1,0,0,0,0-1.82L173,137.27a3.46,3.46,0,0,0-3.15,0C169,137.76,169,138.57,169.85,139.08Zm8.13,4.69,3.25,1.88a3.5,3.5,0,0,0,3.15,0,1,1,0,0,0,0-1.81L181.12,142a3.46,3.46,0,0,0-3.15,0C177.1,142.46,177.11,143.27,178,143.77Zm8.13,4.7,3.25,1.87a3.46,3.46,0,0,0,3.15,0,1,1,0,0,0,0-1.82l-3.25-1.87a3.46,3.46,0,0,0-3.15,0A1,1,0,0,0,186.11,148.47Zm8.13,4.69,3.25,1.88a3.5,3.5,0,0,0,3.15,0c.87-.5.86-1.31,0-1.81l-3.25-1.88a3.5,3.5,0,0,0-3.15,0A1,1,0,0,0,194.24,153.16Zm8.14,4.7,3.24,1.87a3.46,3.46,0,0,0,3.15,0,1,1,0,0,0,0-1.82l-3.25-1.87a3.44,3.44,0,0,0-3.14,0C201.5,156.54,201.5,157.35,202.38,157.86Zm8.13,4.69,3.25,1.88a3.47,3.47,0,0,0,3.14,0c.87-.5.87-1.31,0-1.81l-3.24-1.88a3.5,3.5,0,0,0-3.15,0A1,1,0,0,0,210.51,162.55Zm8.13,4.7,3.25,1.87a3.46,3.46,0,0,0,3.15,0,1,1,0,0,0,0-1.82l-3.25-1.87a3.46,3.46,0,0,0-3.15,0C217.76,165.93,217.77,166.74,218.64,167.25Zm8.3,4.79,3.25,1.87a3.46,3.46,0,0,0,3.15,0,1,1,0,0,0,0-1.82l-3.25-1.87a3.46,3.46,0,0,0-3.15,0A1,1,0,0,0,226.94,172ZM118.27,118l2.81,1.63a4,4,0,0,0,3.58,0l2.8-1.61a1.09,1.09,0,0,0,0-2.07l-2.81-1.62a4,4,0,0,0-3.58,0l-2.79,1.62C117.27,116.49,117.27,117.42,118.27,118Zm14.52,6.33,2.8-1.61a1.09,1.09,0,0,0,0-2.07L132.76,119a4,4,0,0,0-3.58,0l-2.79,1.61a1.09,1.09,0,0,0,0,2.07l2.81,1.62A3.93,3.93,0,0,0,132.79,124.32Zm1.74,3.06,2.81,1.63a4,4,0,0,0,3.58,0l2.8-1.61a1.09,1.09,0,0,0,0-2.07l-2.81-1.62a4,4,0,0,0-3.59,0l-2.79,1.62C133.53,125.88,133.54,126.81,134.53,127.38Zm8.13,4.7,2.81,1.62a4,4,0,0,0,3.59,0l2.79-1.61a1.09,1.09,0,0,0,0-2.07L149,128.4a4,4,0,0,0-3.58,0l-2.8,1.61A1.09,1.09,0,0,0,142.66,132.08ZM160,134.72l-2.81-1.62a3.93,3.93,0,0,0-3.58,0l-2.8,1.61a1.09,1.09,0,0,0,0,2.07l2.82,1.63a4,4,0,0,0,3.58,0l2.79-1.61A1.09,1.09,0,0,0,160,134.72Zm8.13,4.7-2.81-1.63a4,4,0,0,0-3.58,0l-2.8,1.61a1.09,1.09,0,0,0,0,2.07l2.81,1.62a4,4,0,0,0,3.58,0l2.79-1.62C169.1,140.92,169.1,140,168.1,139.42Zm8.14,4.69-2.82-1.62a3.93,3.93,0,0,0-3.58,0l-2.79,1.61a1.09,1.09,0,0,0,0,2.07l2.81,1.63a4,4,0,0,0,3.58,0l2.8-1.61A1.09,1.09,0,0,0,176.24,144.11Zm8.13,4.7-2.81-1.63a4,4,0,0,0-3.59,0l-2.79,1.61a1.09,1.09,0,0,0,0,2.07l2.81,1.62a4,4,0,0,0,3.58,0l2.8-1.62A1.09,1.09,0,0,0,184.37,148.81Zm8.13,4.69-2.81-1.62a4,4,0,0,0-3.59,0l-2.79,1.61a1.09,1.09,0,0,0,0,2.07l2.81,1.63a4,4,0,0,0,3.59,0l2.79-1.61A1.09,1.09,0,0,0,192.5,153.5Zm8.13,4.7-2.81-1.63a4,4,0,0,0-3.58,0l-2.8,1.61a1.09,1.09,0,0,0,0,2.07l2.81,1.62a4,4,0,0,0,3.59,0l2.79-1.62C201.63,159.7,201.62,158.77,200.63,158.2Zm-1,6.74,2.82,1.63a4,4,0,0,0,3.58,0l2.79-1.61a1.09,1.09,0,0,0,0-2.07L206,161.27a3.93,3.93,0,0,0-3.58,0l-2.8,1.61A1.09,1.09,0,0,0,199.58,164.94Zm17.31,2.65L214.08,166a4,4,0,0,0-3.58,0l-2.8,1.61c-1,.57-1,1.49,0,2.07l2.81,1.62a4,4,0,0,0,3.58,0l2.8-1.62C217.89,169.08,217.89,168.16,216.89,167.59Zm11.91,6.87-6.42-3.71a4,4,0,0,0-3.58,0L216,172.36a1.09,1.09,0,0,0,0,2.07l6.42,3.71a4,4,0,0,0,3.58,0l2.8-1.61C229.8,176,229.8,175,228.8,174.46ZM110.73,122.34l6.43,3.71a4,4,0,0,0,3.58,0l2.79-1.62c1-.57,1-1.49,0-2.07l-6.42-3.7a3.93,3.93,0,0,0-3.58,0l-2.8,1.61A1.09,1.09,0,0,0,110.73,122.34Zm11.75,6.78,2.81,1.62a3.93,3.93,0,0,0,3.58,0l2.8-1.61a1.09,1.09,0,0,0,0-2.07l-2.81-1.62a3.93,3.93,0,0,0-3.58,0l-2.8,1.61A1.09,1.09,0,0,0,122.48,129.12Zm10.94,6.32a4,4,0,0,0,3.58,0l2.8-1.62a1.09,1.09,0,0,0,0-2.07L137,130.14a4,4,0,0,0-3.58,0l-2.79,1.62c-1,.57-1,1.49,0,2.07Zm8.13,4.69a3.93,3.93,0,0,0,3.58,0l2.8-1.61a1.09,1.09,0,0,0,0-2.07l-2.81-1.62a4,4,0,0,0-3.59,0l-2.79,1.61a1.09,1.09,0,0,0,0,2.07Zm8.1-.61-2.79,1.62c-1,.57-1,1.49,0,2.07l2.81,1.62a4,4,0,0,0,3.59,0l2.79-1.62c1-.57,1-1.49,0-2.07l-2.81-1.62A4,4,0,0,0,149.65,139.52Zm8.31,4.6-3.14,1.81a1,1,0,0,0,0,1.87l3.16,1.82a3.59,3.59,0,0,0,3.24,0l3.13-1.81c.9-.52.89-1.35,0-1.87l-3.15-1.82A3.56,3.56,0,0,0,158,144.12Zm8.13,4.69L163,150.63c-.89.51-.89,1.35,0,1.87l3.16,1.82a3.56,3.56,0,0,0,3.24,0l3.14-1.81c.89-.51.88-1.35,0-1.87l-3.16-1.82A3.59,3.59,0,0,0,166.09,148.81Zm8.13,4.7-3.14,1.81a1,1,0,0,0,0,1.87l3.16,1.82a3.59,3.59,0,0,0,3.24,0l3.14-1.81a1,1,0,0,0,0-1.87l-3.16-1.82A3.56,3.56,0,0,0,174.22,153.51Zm8.13,4.69L179.21,160c-.89.51-.88,1.35,0,1.87l3.15,1.82a3.56,3.56,0,0,0,3.24,0l3.14-1.81c.89-.51.89-1.35,0-1.87l-3.16-1.82A3.59,3.59,0,0,0,182.35,158.2Zm8.13,4.7-3.13,1.81a1,1,0,0,0,0,1.87l3.15,1.82a3.59,3.59,0,0,0,3.24,0l3.14-1.81a1,1,0,0,0,0-1.87l-3.16-1.83A3.59,3.59,0,0,0,190.48,162.9Zm11.4,10.2,3.14-1.81c.89-.51.89-1.35,0-1.87l-3.16-1.82a3.57,3.57,0,0,0-3.23,0l-3.14,1.82c-.89.51-.89,1.35,0,1.87l3.16,1.82A3.54,3.54,0,0,0,201.88,173.1Zm8.14,4.7,3.13-1.81c.9-.52.89-1.35,0-1.87L210,172.29a3.59,3.59,0,0,0-3.24,0l-3.14,1.81a1,1,0,0,0,0,1.87l3.16,1.82A3.59,3.59,0,0,0,210,177.8Zm11.43,1.11-3.16-1.82a3.59,3.59,0,0,0-3.24,0l-3.14,1.81a1,1,0,0,0,0,1.87l3.16,1.83a3.59,3.59,0,0,0,3.24,0l3.14-1.81C222.35,180.27,222.34,179.43,221.45,178.91ZM103,126.59l10.2,5.89a3.54,3.54,0,0,0,3.23,0l3.14-1.81c.89-.51.89-1.35,0-1.87l-10.19-5.88a3.59,3.59,0,0,0-3.24,0L103,124.72A1,1,0,0,0,103,126.59Zm15.17,8.76,3.16,1.82a3.59,3.59,0,0,0,3.24,0l3.13-1.81a1,1,0,0,0,0-1.87l-3.15-1.83a3.59,3.59,0,0,0-3.24,0l-3.14,1.81C117.3,134,117.3,134.83,118.2,135.35Zm8.13,4.69,3.16,1.83a3.56,3.56,0,0,0,3.24,0l3.14-1.81c.89-.51.88-1.35,0-1.87l-3.16-1.82a3.59,3.59,0,0,0-3.24,0l-3.14,1.81A1,1,0,0,0,126.33,140Zm8.13,4.7,3.16,1.82a3.59,3.59,0,0,0,3.24,0l3.14-1.81a1,1,0,0,0,0-1.87l-3.16-1.83a3.59,3.59,0,0,0-3.24,0l-3.14,1.81C133.56,143.38,133.57,144.22,134.46,144.74ZM149,151.26l3.14-1.81c.89-.51.89-1.35,0-1.87L149,145.76a3.59,3.59,0,0,0-3.24,0l-3.14,1.81a1,1,0,0,0,0,1.87l3.16,1.83A3.56,3.56,0,0,0,149,151.26Zm8.13,4.7,3.14-1.81a1,1,0,0,0,0-1.87l-3.16-1.83a3.59,3.59,0,0,0-3.24,0l-3.13,1.81c-.89.51-.89,1.35,0,1.87l3.15,1.82A3.59,3.59,0,0,0,157.12,156Zm8.13,4.69,3.14-1.81c.89-.51.89-1.35,0-1.87l-3.16-1.82a3.57,3.57,0,0,0-3.23,0L158.85,157a1,1,0,0,0,0,1.87l3.16,1.83A3.57,3.57,0,0,0,165.25,160.65Zm8.14,4.7,3.13-1.81a1,1,0,0,0,0-1.87l-3.15-1.83a3.59,3.59,0,0,0-3.24,0L167,161.65c-.89.51-.89,1.35,0,1.87l3.16,1.82A3.59,3.59,0,0,0,173.39,165.35Zm8.13,4.69,3.14-1.81c.89-.51.88-1.35,0-1.87l-3.16-1.82a3.59,3.59,0,0,0-3.24,0l-3.14,1.81a1,1,0,0,0,0,1.87l3.16,1.83A3.59,3.59,0,0,0,181.52,170Zm8.13,4.7,3.14-1.81a1,1,0,0,0,0-1.87l-3.16-1.83a3.56,3.56,0,0,0-3.24,0L183.24,171c-.89.51-.88,1.35,0,1.87l3.16,1.82A3.59,3.59,0,0,0,189.65,174.74Zm1.74,2.86,3.15,1.83a3.59,3.59,0,0,0,3.24,0l3.14-1.81c.89-.51.89-1.35,0-1.87l-3.16-1.82a3.59,3.59,0,0,0-3.24,0l-3.13,1.81A1,1,0,0,0,191.39,177.6Zm22.52,5.66-8-4.64a3.54,3.54,0,0,0-3.23,0l-3.14,1.81c-.89.51-.89,1.35,0,1.87l8,4.63a3.59,3.59,0,0,0,3.24,0l3.13-1.81C214.82,184.61,214.81,183.78,213.91,183.26ZM95.53,131.16,110,139.52a4,4,0,0,0,3.65,0l2.72-1.57c1-.58,1-1.52,0-2.11l-14.46-8.35a4,4,0,0,0-3.66,0l-2.72,1.57A1.11,1.11,0,0,0,95.53,131.16Zm19.86,11.47,2.74,1.58a4,4,0,0,0,3.66,0l2.72-1.57a1.11,1.11,0,0,0,0-2.11L121.76,139a4,4,0,0,0-3.66,0l-2.72,1.57A1.11,1.11,0,0,0,115.39,142.63Zm8.13,4.7,2.74,1.58a4.07,4.07,0,0,0,3.66,0l2.72-1.57a1.12,1.12,0,0,0,0-2.11l-2.74-1.58a4.07,4.07,0,0,0-3.66,0l-2.72,1.57A1.12,1.12,0,0,0,123.52,147.33Zm8.13,4.69,2.74,1.58a4,4,0,0,0,3.66,0l2.72-1.57a1.11,1.11,0,0,0,0-2.11L138,148.35a4,4,0,0,0-3.66,0l-2.72,1.57A1.12,1.12,0,0,0,131.65,152Zm8.14,4.7,2.73,1.58a4.07,4.07,0,0,0,3.66,0l2.72-1.57c1-.58,1-1.52,0-2.11L146.15,153a4.07,4.07,0,0,0-3.66,0l-2.72,1.57A1.12,1.12,0,0,0,139.79,156.72Zm8.13,4.69,2.73,1.58a4,4,0,0,0,3.66,0l2.72-1.57a1.11,1.11,0,0,0,0-2.11l-2.74-1.58a4,4,0,0,0-3.65,0l-2.72,1.57A1.11,1.11,0,0,0,147.92,161.41Zm8.13,4.7,2.74,1.58a4,4,0,0,0,3.65,0l2.72-1.57c1-.58,1-1.52,0-2.11l-2.73-1.58a4.07,4.07,0,0,0-3.66,0L156,164A1.12,1.12,0,0,0,156.05,166.11Zm8.13,4.69,2.74,1.58a4,4,0,0,0,3.66,0l2.72-1.57a1.11,1.11,0,0,0,0-2.11l-2.73-1.58a4,4,0,0,0-3.66,0l-2.72,1.57A1.11,1.11,0,0,0,164.18,170.8Zm8.13,4.7,2.74,1.58a4.07,4.07,0,0,0,3.66,0l2.72-1.57a1.12,1.12,0,0,0,0-2.11l-2.74-1.58a4.07,4.07,0,0,0-3.66,0l-2.72,1.57A1.12,1.12,0,0,0,172.31,175.5Zm8.13,4.69,2.74,1.58a4,4,0,0,0,3.66,0l2.72-1.57a1.11,1.11,0,0,0,0-2.11l-2.74-1.58a4,4,0,0,0-3.66,0l-2.72,1.57A1.12,1.12,0,0,0,180.44,180.19Zm8.14,4.7,2.73,1.58a4.07,4.07,0,0,0,3.66,0l2.72-1.57c1-.58,1-1.52,0-2.11l-2.74-1.58a4,4,0,0,0-3.65,0l-2.72,1.57A1.12,1.12,0,0,0,188.58,184.89Zm17.41,2.7L203.26,186a4,4,0,0,0-3.66,0l-2.72,1.57a1.11,1.11,0,0,0,0,2.11l2.74,1.58a4,4,0,0,0,3.65,0L206,189.7A1.11,1.11,0,0,0,206,187.59ZM100.71,135.5l-6.35-3.66a4,4,0,0,0-3.65,0L88,133.4a1.11,1.11,0,0,0,0,2.11l6.34,3.67a4,4,0,0,0,3.66,0l2.72-1.57C101.73,137,101.72,136.09,100.71,135.5Zm8.13,4.7-2.74-1.58a4,4,0,0,0-3.65,0l-2.72,1.57a1.11,1.11,0,0,0,0,2.11l2.74,1.58a4,4,0,0,0,3.65,0l2.72-1.57A1.11,1.11,0,0,0,108.84,140.2Zm8.13,4.69-2.73-1.58a4.07,4.07,0,0,0-3.66,0l-2.72,1.57a1.12,1.12,0,0,0,0,2.12l2.74,1.58a4,4,0,0,0,3.65,0L117,147C118,146.42,118,145.48,117,144.89Zm56.93,32.87L122.37,148a4,4,0,0,0-3.66,0L116,149.57a1.11,1.11,0,0,0,0,2.11l51.53,29.75a4,4,0,0,0,3.66,0l2.72-1.57A1.12,1.12,0,0,0,173.9,177.76Zm8.13,4.69-2.74-1.58a4.07,4.07,0,0,0-3.66,0l-2.72,1.57a1.12,1.12,0,0,0,0,2.12l2.74,1.58a4.07,4.07,0,0,0,3.66,0l2.72-1.57C183.05,184,183,183,182,182.45Zm8.13,4.7-2.74-1.58a4,4,0,0,0-3.66,0L181,187.13a1.11,1.11,0,0,0,0,2.11l2.73,1.58a4,4,0,0,0,3.66,0l2.72-1.57A1.11,1.11,0,0,0,190.16,187.15Zm8.3,4.79-2.74-1.58a4,4,0,0,0-3.65,0l-2.72,1.57a1.11,1.11,0,0,0,0,2.11l2.73,1.58a4,4,0,0,0,3.66,0l2.72-1.57A1.11,1.11,0,0,0,198.46,191.94Z"/>
          <path class="cls-9" d="M125.58,112.76l6.86,4a3.5,3.5,0,0,0,3.15,0,1,1,0,0,0,0-1.82l-6.86-4a3.5,3.5,0,0,0-3.15,0A1,1,0,0,0,125.58,112.76Zm11.74,6.78,3.25,1.88a3.49,3.49,0,0,0,3.15,0,1,1,0,0,0,0-1.82l-3.25-1.87a3.5,3.5,0,0,0-3.15,0A1,1,0,0,0,137.32,119.54Zm8.13,4.7,3.25,1.87a3.5,3.5,0,0,0,3.15,0,1,1,0,0,0,0-1.82l-3.25-1.88a3.5,3.5,0,0,0-3.15,0A1,1,0,0,0,145.45,124.24Zm8.13,4.69,3.25,1.88a3.5,3.5,0,0,0,3.15,0c.87-.5.86-1.31,0-1.82l-3.25-1.87a3.5,3.5,0,0,0-3.15,0A1,1,0,0,0,153.58,128.93Zm8.14,4.7L165,135.5a3.5,3.5,0,0,0,3.15,0,1,1,0,0,0,0-1.82l-3.25-1.88a3.47,3.47,0,0,0-3.14,0C160.84,132.31,160.84,133.12,161.72,133.63Zm8.13,4.69,3.25,1.88a3.47,3.47,0,0,0,3.14,0c.87-.5.87-1.31,0-1.82L173,136.51a3.46,3.46,0,0,0-3.15,0A1,1,0,0,0,169.85,138.32ZM178,143l3.25,1.87a3.5,3.5,0,0,0,3.15,0,1,1,0,0,0,0-1.82l-3.25-1.88a3.49,3.49,0,0,0-3.15,0C177.1,141.7,177.11,142.51,178,143Zm8.13,4.69,3.25,1.88a3.5,3.5,0,0,0,3.15,0,1,1,0,0,0,0-1.82l-3.25-1.87a3.46,3.46,0,0,0-3.15,0A1,1,0,0,0,186.11,147.71Zm8.13,4.69,3.25,1.88a3.5,3.5,0,0,0,3.15,0,1,1,0,0,0,0-1.82l-3.25-1.88a3.5,3.5,0,0,0-3.15,0A1,1,0,0,0,194.24,152.4Zm8.14,4.7,3.24,1.88a3.49,3.49,0,0,0,3.15,0c.87-.5.86-1.31,0-1.82l-3.25-1.87a3.44,3.44,0,0,0-3.14,0A1,1,0,0,0,202.38,157.1Zm8.13,4.69,3.25,1.88a3.47,3.47,0,0,0,3.14,0,1,1,0,0,0,0-1.82L213.65,160a3.49,3.49,0,0,0-3.15,0C209.63,160.48,209.64,161.29,210.51,161.79Zm8.13,4.7,3.25,1.87a3.46,3.46,0,0,0,3.15,0,1,1,0,0,0,0-1.82l-3.25-1.87a3.46,3.46,0,0,0-3.15,0A1,1,0,0,0,218.64,166.49Zm8.3,4.79,3.25,1.88a3.5,3.5,0,0,0,3.15,0,1,1,0,0,0,0-1.81l-3.25-1.88a3.5,3.5,0,0,0-3.15,0A1,1,0,0,0,226.94,171.28Zm-108.67-54,2.81,1.62a4,4,0,0,0,3.58,0l2.8-1.62c1-.57,1-1.49,0-2.07l-2.81-1.62a4,4,0,0,0-3.58,0l-2.79,1.62C117.27,115.74,117.27,116.66,118.27,117.24Zm14.52,6.32,2.8-1.61a1.09,1.09,0,0,0,0-2.07l-2.82-1.62a3.93,3.93,0,0,0-3.58,0l-2.79,1.61a1.09,1.09,0,0,0,0,2.07l2.81,1.62A3.93,3.93,0,0,0,132.79,123.56Zm1.74,3.07,2.81,1.62a4,4,0,0,0,3.58,0l2.8-1.62c1-.57,1-1.49,0-2.07L140.9,123a4,4,0,0,0-3.59,0l-2.79,1.62C133.53,125.13,133.54,126.05,134.53,126.63Zm8.13,4.69,2.81,1.62a4,4,0,0,0,3.59,0l2.79-1.61a1.09,1.09,0,0,0,0-2.07L149,127.65a3.93,3.93,0,0,0-3.58,0l-2.8,1.61A1.09,1.09,0,0,0,142.66,131.32ZM160,134l-2.81-1.62a4,4,0,0,0-3.58,0l-2.8,1.62a1.09,1.09,0,0,0,0,2.07l2.82,1.62a4,4,0,0,0,3.58,0L160,136C161,135.46,161,134.54,160,134Zm8.13,4.7L165.29,137a3.93,3.93,0,0,0-3.58,0l-2.8,1.61a1.09,1.09,0,0,0,0,2.07l2.81,1.62a3.93,3.93,0,0,0,3.58,0l2.79-1.61A1.09,1.09,0,0,0,168.1,138.66Zm8.14,4.69-2.82-1.62a4,4,0,0,0-3.58,0l-2.79,1.62c-1,.57-1,1.49,0,2.07l2.81,1.62a4,4,0,0,0,3.58,0l2.8-1.62A1.09,1.09,0,0,0,176.24,143.35Zm8.13,4.7-2.81-1.62a4,4,0,0,0-3.59,0L175.18,148a1.09,1.09,0,0,0,0,2.07l2.81,1.62a3.93,3.93,0,0,0,3.58,0l2.8-1.61A1.09,1.09,0,0,0,184.37,148.05Zm8.13,4.69-2.81-1.62a4,4,0,0,0-3.59,0l-2.79,1.62c-1,.57-1,1.49,0,2.07l2.81,1.62a4,4,0,0,0,3.59,0l2.79-1.62C193.5,154.24,193.49,153.32,192.5,152.74Zm8.13,4.7-2.81-1.63a4,4,0,0,0-3.58,0l-2.8,1.61a1.09,1.09,0,0,0,0,2.07l2.81,1.62a4,4,0,0,0,3.59,0l2.79-1.61A1.09,1.09,0,0,0,200.63,157.44Zm-1,6.75,2.82,1.62a4,4,0,0,0,3.58,0l2.79-1.62c1-.57,1-1.49,0-2.07L206,160.51a4,4,0,0,0-3.58,0l-2.8,1.62A1.09,1.09,0,0,0,199.58,164.19Zm17.31,2.64-2.81-1.63a4,4,0,0,0-3.58,0l-2.8,1.61a1.09,1.09,0,0,0,0,2.07l2.81,1.62a3.93,3.93,0,0,0,3.58,0l2.8-1.61A1.09,1.09,0,0,0,216.89,166.83Zm11.91,6.87-6.42-3.7a3.93,3.93,0,0,0-3.58,0L216,171.6a1.09,1.09,0,0,0,0,2.07l6.42,3.71a4,4,0,0,0,3.58,0l2.8-1.62C229.8,175.2,229.8,174.28,228.8,173.7ZM110.73,121.59l6.43,3.7a3.93,3.93,0,0,0,3.58,0l2.79-1.61a1.09,1.09,0,0,0,0-2.07l-6.42-3.71a4,4,0,0,0-3.58,0l-2.8,1.62A1.09,1.09,0,0,0,110.73,121.59Zm11.75,6.77,2.81,1.63a4,4,0,0,0,3.58,0l2.8-1.61a1.09,1.09,0,0,0,0-2.07l-2.81-1.62a4,4,0,0,0-3.58,0l-2.8,1.62C121.48,126.86,121.48,127.79,122.48,128.36Zm10.94,6.32a3.93,3.93,0,0,0,3.58,0l2.8-1.61a1.09,1.09,0,0,0,0-2.07L137,129.38a4,4,0,0,0-3.58,0L130.6,131a1.09,1.09,0,0,0,0,2.07Zm8.13,4.7a4,4,0,0,0,3.58,0l2.8-1.61a1.09,1.09,0,0,0,0-2.07l-2.81-1.62a4,4,0,0,0-3.59,0l-2.79,1.61a1.09,1.09,0,0,0,0,2.07Zm8.1-.61-2.79,1.61a1.09,1.09,0,0,0,0,2.07l2.81,1.62a4,4,0,0,0,3.59,0l2.79-1.62c1-.56,1-1.49,0-2.06l-2.81-1.63A4,4,0,0,0,149.65,138.77Zm8.31,4.59-3.14,1.81a1,1,0,0,0,0,1.87l3.16,1.83a3.59,3.59,0,0,0,3.24,0l3.13-1.81c.9-.51.89-1.35,0-1.87l-3.15-1.82A3.59,3.59,0,0,0,158,143.36Zm8.13,4.7L163,149.87c-.89.51-.89,1.35,0,1.87l3.16,1.82a3.59,3.59,0,0,0,3.24,0l3.14-1.81a1,1,0,0,0,0-1.87l-3.16-1.83A3.56,3.56,0,0,0,166.09,148.06Zm8.13,4.69-3.14,1.81a1,1,0,0,0,0,1.87l3.16,1.83a3.59,3.59,0,0,0,3.24,0l3.14-1.81c.89-.51.88-1.35,0-1.87l-3.16-1.82A3.59,3.59,0,0,0,174.22,152.75Zm8.13,4.7-3.14,1.81c-.89.51-.88,1.35,0,1.87l3.15,1.82a3.59,3.59,0,0,0,3.24,0l3.14-1.81a1,1,0,0,0,0-1.87l-3.16-1.83A3.56,3.56,0,0,0,182.35,157.45Zm8.13,4.69L187.35,164a1,1,0,0,0,0,1.87l3.15,1.83a3.59,3.59,0,0,0,3.24,0l3.14-1.81c.89-.51.89-1.35,0-1.87l-3.16-1.82A3.59,3.59,0,0,0,190.48,162.14Zm11.4,10.21,3.14-1.81a1,1,0,0,0,0-1.87l-3.16-1.83a3.54,3.54,0,0,0-3.23,0l-3.14,1.81c-.89.51-.89,1.35,0,1.87l3.16,1.82A3.57,3.57,0,0,0,201.88,172.35ZM210,177l3.13-1.81c.9-.51.89-1.35,0-1.87L210,171.54a3.59,3.59,0,0,0-3.24,0l-3.14,1.81a1,1,0,0,0,0,1.87l3.16,1.83A3.59,3.59,0,0,0,210,177Zm11.43,1.11-3.16-1.82a3.59,3.59,0,0,0-3.24,0l-3.14,1.82c-.89.51-.89,1.35,0,1.87l3.16,1.82a3.56,3.56,0,0,0,3.24,0l3.14-1.81C222.35,179.51,222.34,178.67,221.45,178.15ZM103,125.83l10.2,5.89a3.57,3.57,0,0,0,3.23,0l3.14-1.82c.89-.51.89-1.35,0-1.87l-10.19-5.88a3.59,3.59,0,0,0-3.24,0L103,124A1,1,0,0,0,103,125.83Zm15.17,8.76,3.16,1.83a3.59,3.59,0,0,0,3.24,0l3.13-1.81c.9-.52.89-1.35,0-1.87l-3.15-1.82a3.59,3.59,0,0,0-3.24,0l-3.14,1.81A1,1,0,0,0,118.2,134.59Zm8.13,4.7,3.16,1.82a3.59,3.59,0,0,0,3.24,0l3.14-1.82c.89-.51.88-1.35,0-1.87l-3.16-1.82a3.56,3.56,0,0,0-3.24,0l-3.14,1.81C125.43,137.93,125.43,138.77,126.33,139.29Zm8.13,4.69,3.16,1.82a3.56,3.56,0,0,0,3.24,0L144,144a1,1,0,0,0,0-1.87l-3.16-1.82a3.59,3.59,0,0,0-3.24,0l-3.14,1.81A1,1,0,0,0,134.46,144ZM149,150.51l3.14-1.82c.89-.51.89-1.35,0-1.87L149,145a3.56,3.56,0,0,0-3.24,0l-3.14,1.81c-.89.51-.88,1.35,0,1.87l3.16,1.82A3.59,3.59,0,0,0,149,150.51Zm8.13,4.69,3.14-1.81a1,1,0,0,0,0-1.87l-3.16-1.82a3.59,3.59,0,0,0-3.24,0l-3.13,1.81a1,1,0,0,0,0,1.87l3.15,1.82A3.56,3.56,0,0,0,157.12,155.2Zm8.13,4.7,3.14-1.82c.89-.51.89-1.35,0-1.87l-3.16-1.82a3.57,3.57,0,0,0-3.23,0l-3.14,1.82c-.89.51-.89,1.35,0,1.87l3.16,1.82A3.57,3.57,0,0,0,165.25,159.9Zm8.14,4.69,3.13-1.81c.9-.52.89-1.35,0-1.87l-3.15-1.82a3.59,3.59,0,0,0-3.24,0L167,160.89a1,1,0,0,0,0,1.87l3.16,1.82A3.59,3.59,0,0,0,173.39,164.59Zm8.13,4.7,3.14-1.82c.89-.51.88-1.35,0-1.87l-3.16-1.82a3.59,3.59,0,0,0-3.24,0l-3.14,1.82c-.89.51-.89,1.35,0,1.87l3.16,1.82A3.59,3.59,0,0,0,181.52,169.29Zm8.13,4.69,3.14-1.81a1,1,0,0,0,0-1.87l-3.16-1.82a3.56,3.56,0,0,0-3.24,0l-3.14,1.81a1,1,0,0,0,0,1.87l3.16,1.82A3.59,3.59,0,0,0,189.65,174Zm1.74,2.87,3.15,1.82a3.56,3.56,0,0,0,3.24,0l3.14-1.81c.89-.51.89-1.35,0-1.87l-3.16-1.82a3.59,3.59,0,0,0-3.24,0L191.38,175C190.48,175.49,190.49,176.33,191.39,176.85Zm22.52,5.65-8-4.63a3.54,3.54,0,0,0-3.23,0l-3.14,1.81a1,1,0,0,0,0,1.87l8,4.64a3.59,3.59,0,0,0,3.24,0l3.13-1.81C214.82,183.86,214.81,183,213.91,182.5ZM95.53,130.41,110,138.76a4,4,0,0,0,3.65,0l2.72-1.57a1.12,1.12,0,0,0,0-2.12l-14.46-8.35a4,4,0,0,0-3.66,0l-2.72,1.57C94.51,128.88,94.52,129.82,95.53,130.41Zm19.86,11.46,2.74,1.58a4,4,0,0,0,3.66,0l2.72-1.57a1.11,1.11,0,0,0,0-2.11l-2.73-1.58a4,4,0,0,0-3.66,0l-2.72,1.57A1.11,1.11,0,0,0,115.39,141.87Zm8.13,4.7,2.74,1.58a4.07,4.07,0,0,0,3.66,0l2.72-1.57a1.12,1.12,0,0,0,0-2.12l-2.74-1.58a4.07,4.07,0,0,0-3.66,0l-2.72,1.57C122.5,145,122.51,146,123.52,146.57Zm8.13,4.69,2.74,1.58a4,4,0,0,0,3.66,0l2.72-1.57a1.11,1.11,0,0,0,0-2.11L138,147.59a4,4,0,0,0-3.66,0l-2.72,1.57A1.12,1.12,0,0,0,131.65,151.26Zm8.14,4.7,2.73,1.58a4.07,4.07,0,0,0,3.66,0L148.9,156a1.12,1.12,0,0,0,0-2.12l-2.74-1.58a4.07,4.07,0,0,0-3.66,0l-2.72,1.57C138.77,154.43,138.77,155.37,139.79,156Zm8.13,4.69,2.73,1.58a4,4,0,0,0,3.66,0l2.72-1.57a1.11,1.11,0,0,0,0-2.11L154.28,157a4,4,0,0,0-3.65,0l-2.72,1.57A1.11,1.11,0,0,0,147.92,160.65Zm8.13,4.7,2.74,1.58a4,4,0,0,0,3.65,0l2.72-1.57a1.12,1.12,0,0,0,0-2.12l-2.73-1.58a4.07,4.07,0,0,0-3.66,0L156,163.24C155,163.82,155,164.76,156.05,165.35Zm8.13,4.69,2.74,1.58a4,4,0,0,0,3.66,0l2.72-1.57a1.11,1.11,0,0,0,0-2.11l-2.73-1.58a4,4,0,0,0-3.66,0l-2.72,1.57A1.11,1.11,0,0,0,164.18,170Zm8.13,4.7,2.74,1.58a4.07,4.07,0,0,0,3.66,0l2.72-1.58a1.12,1.12,0,0,0,0-2.11l-2.74-1.58a4,4,0,0,0-3.66,0l-2.72,1.57C171.29,173.21,171.3,174.15,172.31,174.74Zm8.13,4.69,2.74,1.58a4,4,0,0,0,3.66,0l2.72-1.57a1.11,1.11,0,0,0,0-2.11l-2.74-1.58a4,4,0,0,0-3.66,0l-2.72,1.57A1.12,1.12,0,0,0,180.44,179.43Zm8.14,4.7,2.73,1.58a4.07,4.07,0,0,0,3.66,0l2.72-1.58c1-.58,1-1.52,0-2.11l-2.74-1.58a4,4,0,0,0-3.65,0L188.57,182C187.56,182.6,187.56,183.54,188.58,184.13Zm17.41,2.7-2.73-1.58a4,4,0,0,0-3.66,0l-2.72,1.57c-1,.58-1,1.52,0,2.11l2.74,1.58a4,4,0,0,0,3.65,0l2.72-1.57C207,188.36,207,187.42,206,186.83ZM100.71,134.74l-6.35-3.66a4,4,0,0,0-3.65,0L88,132.64a1.12,1.12,0,0,0,0,2.12l6.34,3.66a4.07,4.07,0,0,0,3.66,0l2.72-1.57A1.12,1.12,0,0,0,100.71,134.74Zm8.13,4.7-2.74-1.58a4,4,0,0,0-3.65,0l-2.72,1.57a1.11,1.11,0,0,0,0,2.11l2.74,1.58a4,4,0,0,0,3.65,0l2.72-1.57A1.11,1.11,0,0,0,108.84,139.44Zm8.13,4.69-2.73-1.58a4.07,4.07,0,0,0-3.66,0l-2.72,1.57c-1,.58-1,1.52,0,2.11l2.74,1.58a4,4,0,0,0,3.65,0l2.72-1.57A1.12,1.12,0,0,0,117,144.13ZM173.9,177l-51.53-29.75a4,4,0,0,0-3.66,0L116,148.81a1.11,1.11,0,0,0,0,2.11l51.53,29.75a4,4,0,0,0,3.66,0l2.72-1.57A1.12,1.12,0,0,0,173.9,177Zm8.13,4.69-2.74-1.58a4,4,0,0,0-3.66,0l-2.72,1.57a1.12,1.12,0,0,0,0,2.11l2.74,1.58a4.07,4.07,0,0,0,3.66,0L182,183.8C183.05,183.22,183,182.28,182,181.69Zm8.13,4.7-2.74-1.58a4,4,0,0,0-3.66,0L181,186.37a1.11,1.11,0,0,0,0,2.11l2.73,1.58a4,4,0,0,0,3.66,0l2.72-1.57A1.11,1.11,0,0,0,190.16,186.39Zm8.3,4.79-2.74-1.58a4,4,0,0,0-3.65,0l-2.72,1.57a1.12,1.12,0,0,0,0,2.12l2.73,1.58a4.07,4.07,0,0,0,3.66,0l2.72-1.57C199.48,192.71,199.47,191.77,198.46,191.18Z"/>
          <g>
            <path class="cls-9" d="M242.89,168.92,135.17,106.69c-4.17-2.41-7.55-8.87-7.55-14.43V7.75c0-5.56,3.38-8.11,7.55-5.71L242.89,64.27c4.17,2.41,7.55,8.87,7.55,14.43v84.51C250.44,168.77,247.06,171.32,242.89,168.92Z"/>
            <path class="cls-11" d="M243.86,164.57,137.29,103c-3.36-2.13-5.43-6.39-5.43-10.75V7.34a1.34,1.34,0,0,1,2-1.15l.24.14L240.77,68c4,2.3,5.43,6.39,5.43,10.75v84.72a1.44,1.44,0,0,1-2.16,1.25Z"/>
            <path class="cls-12" d="M240.77,68,134.11,6.33l-.24-.14a1.34,1.34,0,0,0-2,1.15V92.26c0,4.36,2.07,8.62,5.43,10.75l106.57,61.56.18.1a1.44,1.44,0,0,0,2.16-1.25V78.7C246.2,74.34,244.76,70.25,240.77,68Zm4.58,95.47a.59.59,0,0,1-.89.52L137.71,102.28c-3-1.93-5-5.87-5-10V7.34a.5.5,0,0,1,.5-.49.42.42,0,0,1,.24.07l106.9,61.76c4.14,2.39,5,6.77,5,10Z"/>
            <path class="cls-6" d="M245,63.14,137.31.91a5.08,5.08,0,0,0-4.42-.65c-.16.06-2.26,1.18-2.41,1.26h0a5,5,0,0,1,4.7.52L242.89,64.27c4.17,2.41,7.55,8.87,7.55,14.43v84.51c0,3.47-1.32,5.77-3.32,6.42a1.22,1.22,0,0,0,.66-.22l2.47-1.41c1.44-1,2.33-3.07,2.33-5.93V77.56C252.58,72,249.2,65.54,245,63.14Z"/>
            <path class="cls-13" d="M245,63.14,137.31.91a5.08,5.08,0,0,0-4.42-.65c-.16.06-2.26,1.18-2.41,1.26h0a5,5,0,0,1,4.7.52L242.89,64.27Z"/>
            <path class="cls-14" d="M243.25,64.09,135.53,1.86A5,5,0,0,0,131,1.28a5.59,5.59,0,0,1,3.64.85L242.35,64.36c4.17,2.41,7.55,8.87,7.55,14.43V163.3c0,3.28-1.19,5.5-3,6.29,2.33-.37,3.91-2.77,3.91-6.56V78.52C250.8,73,247.42,66.5,243.25,64.09Z"/>
          </g>
        </g>
        <path class="cls-15" d="M233.82,68.43l-90-51.17c-.23,12,0,49.54-.09,61.82-.11,19.87-3.08,35.52-26,53.48-7.3,5.72-39.51,23.26-65.65,37-10.6,5.57-11.4,7.92-16.77,12.46-5.19,4.4-13.16,8.49-15.49,9.85L109.2,243.6c1.68-1,10.38-5.36,16.09-10.2,5.36-4.54,6.17-9.39,16.77-15,26.14-13.73,70.91-41.23,78.86-46,10.2-6.12,12.81-10,12.81-26.06C233.73,134,233.59,80.19,233.82,68.43Z"/>
        <path class="cls-7" d="M233.82,68.79l-90-51.17c-.23,5.73,0,53.28-.09,65.55-.11,19.88-3.08,25.54-26,43.5-7.3,5.71-39.51,23.26-65.65,37-10.6,5.58-12.31,12.69-17.67,17.23-5.2,4.4-11,5.6-13.29,7l89.46,51.73c1.67-1,8.16-2.47,13.88-7.31,5.36-4.55,7.07-11.66,17.67-17.23,26.14-13.73,58.35-31.28,65.65-37,22.94-18,25.91-23.62,26-43.5C233.8,122.21,233.59,74.3,233.82,68.79Z"/>
        <g>
          <path class="cls-16" d="M210.15,242.43c-2.46,15.16-19.65,13-30.39,13a19.34,19.34,0,0,1-4.22-1.56c-6.77-3.44-11.54-10.6-4.38-17.76a22.32,22.32,0,0,1,2.82-2.38,26.06,26.06,0,0,1,11.77-4.55,24.44,24.44,0,0,1,3.2-.2,19.55,19.55,0,0,1,20.35,10.08A10,10,0,0,1,210.15,242.43Z"/>
          <path class="cls-17" d="M209.66,240.09c-.56,3.28-1.75,6.61-3.49,8.45-1.06,1.13-2.3.55-3.67,1.26-2.57,1.33-4.83,3.34-8,3.67-2.42.25-4.46-.88-7.07-1.08s-6,.53-8.15.53a20.1,20.1,0,0,1-4.22-1.57c-3.45-1.75-6.38-4.48-7.47-7.68.1,4.27,3.59,8,7.92,10.19a19.34,19.34,0,0,0,4.22,1.56c10.74,0,27.93,2.17,30.39-13A9.77,9.77,0,0,0,209.66,240.09Z"/>
          <g class="cls-18">
            <path class="cls-19" d="M196.89,232.91a.76.76,0,0,0,.33-.71,1.47,1.47,0,0,0-.77-1.32,1,1,0,0,0-1.35.46,1.34,1.34,0,0,1-.16.39c-.21.27-.64.14-.93,0s-.66-.38-.95-.21a.7.7,0,0,0,.23,1.06,1.84,1.84,0,0,0,1.25.07,2.31,2.31,0,0,1,1.25,0C196.16,232.73,196.53,233.08,196.89,232.91Z"/>
            <path class="cls-19" d="M205.21,236.63a6.66,6.66,0,0,1-.77-.19c-.27-.12-.49-.35-.77-.46a1.84,1.84,0,0,0-1,0l-1.28.26a.64.64,0,0,0-.33.13.55.55,0,0,0-.15.41c0,.69.71,1.18,1.39,1.32s1.39,0,2.06.16a8.52,8.52,0,0,0,.46.84,1,1,0,0,0,.58.51c.4.07.74-.34.85-.74A1.83,1.83,0,0,0,205.21,236.63Z"/>
            <path class="cls-19" d="M192.46,239.92a21.2,21.2,0,0,0,2.44,1.2.43.43,0,0,0,.4,0,.46.46,0,0,0,.13-.28,3.51,3.51,0,0,0,0-1.61l.81-.12a3.29,3.29,0,0,0-1.62-.63,14,14,0,0,0-4.34,0,.75.75,0,0,0,.35.82A7.22,7.22,0,0,0,192.46,239.92Z"/>
            <path class="cls-19" d="M183.79,231.09l-1.31,0a1.36,1.36,0,0,0-.4,0,.77.77,0,0,0-.32,1.06,1.44,1.44,0,0,0,1,.65,2.81,2.81,0,0,0,1.44-.07,2.5,2.5,0,0,1,1.34-.3c.35.09.74.39,1,.17a.49.49,0,0,0,.17-.3c.14-.64-.47-1.21-1.1-1.36a10.49,10.49,0,0,0-1.94-.05Z"/>
            <path class="cls-19" d="M175.63,237.22a3.13,3.13,0,0,0-1.46.8.41.41,0,0,0-.14.21c0,.18.14.33.3.42a3,3,0,0,0,2.52.11,6.66,6.66,0,0,1,1.91-.81.44.44,0,0,0-.06-.52,1.2,1.2,0,0,0-.47-.29,9.9,9.9,0,0,0-1.93-.55,1.75,1.75,0,0,0-.82,0,.67.67,0,0,0-.5.58Z"/>
            <path class="cls-19" d="M171.76,245.4a.78.78,0,0,0,0-.4,1.77,1.77,0,0,0-.87-1.19c-.34-.18-.72-.25-1.07-.4a1.14,1.14,0,0,1-.76-.79,4.25,4.25,0,0,0,.3,2,2,2,0,0,0,1.52,1.21A.8.8,0,0,0,171.76,245.4Z"/>
            <path class="cls-19" d="M185.44,245.73l.35-.25a.44.44,0,0,0,.17-.16.42.42,0,0,0,0-.33,1.32,1.32,0,0,0-.83-.86,2.44,2.44,0,0,0-1.23-.09,4.31,4.31,0,0,0-1.48.49,6.31,6.31,0,0,0,1.95,1.31,1.08,1.08,0,0,0,.61.11A1.3,1.3,0,0,0,185.44,245.73Z"/>
            <path class="cls-19" d="M197.63,244.63c-.56.1-1.09.37-1.66.44s-1.24-.18-1.76.09c.73,1.5,3.39,1.64,4.8,1.37.68-.13,2.57-.19,2-1.27C200.62,244.42,198.38,244.5,197.63,244.63Z"/>
            <path class="cls-19" d="M205.55,243.76l2,.17a1,1,0,0,0,.61-.08.73.73,0,0,0,.27-.68,1.84,1.84,0,0,0-1.6-1.45,1.6,1.6,0,0,0-.92.07.77.77,0,0,0-.47.75c0,.23.18.5,0,.66s-.26.07-.39.13c-.28.13-.23.58,0,.76a1.32,1.32,0,0,0,.88.15Z"/>
            <path class="cls-19" d="M182.77,238.62a.77.77,0,0,0,.39.14l.8.14a1.24,1.24,0,0,0,.69,0c.39-.16.51-.63.73-1a3.09,3.09,0,0,1,1-.86l.26-.18a2.2,2.2,0,0,1,1.05-.43.74.74,0,0,0-.84-.9c-.39.1-.61.49-.89.77a6.17,6.17,0,0,1-2.56,1.11,1.39,1.39,0,0,0-.68.45A.56.56,0,0,0,182.77,238.62Z"/>
            <path class="cls-19" d="M179.48,249.68c.38.28.18.9.38,1.33a.88.88,0,0,0,.42.39,1,1,0,0,0,1.13-.26.85.85,0,0,0-.1-1.13c-.18-.15-.42-.22-.59-.37a1.45,1.45,0,0,1-.3-.4,2.66,2.66,0,0,0-1.53-1.44,4,4,0,0,0-1.2.08,1.29,1.29,0,0,1-1.13-.31,2,2,0,0,0,2.06,2.05A1.26,1.26,0,0,1,179.48,249.68Z"/>
            <path class="cls-19" d="M193.75,249.17c0,.13-.13.23-.26.27a5.13,5.13,0,0,1-1.74.25c-.42,0-1,0-1.11.4a.6.6,0,0,0,.36.69,1.72,1.72,0,0,0,.84.12,33,33,0,0,0,3.85-.38,1.49,1.49,0,0,0,.66-.23.89.89,0,0,0-.1-1.37,1.26,1.26,0,0,0-1.49.16,1.5,1.5,0,0,1-.56.42c-.23.05-.52-.18-.4-.39Z"/>
          </g>
        </g>
        <g>
          <path class="cls-16" d="M148.33,257.73a23.18,23.18,0,0,1,2.82-2.38,26.06,26.06,0,0,1,11.77-4.55c1.06-.13.46-.2,1.53-.2l.29,0c-.22-.41.14-2.55-.15-2.91-2.5-3.08-11-8.42-18.47-7.05a26,26,0,0,0-15,4.75,23.18,23.18,0,0,0-2.82,2.38c-7.16,7.16-2.39,14.33,4.38,17.76a19.37,19.37,0,0,0,4.22,1.57c2.45,0,5.24.11,8.11.11C144.29,264.26,145.07,261,148.33,257.73Z"/>
          <path class="cls-17" d="M164.45,247.63c-.76,0-1.53.07-2.28.17a26.06,26.06,0,0,0-11.77,4.55,23.18,23.18,0,0,0-2.82,2.38c-3.26,3.26-4,6.53-3.29,9.44-2.87,0-5.66-.11-8.11-.11a19.37,19.37,0,0,1-4.22-1.57,15.3,15.3,0,0,1-7.18-6.9c.25,4.15,3.7,7.75,7.93,9.9a19.37,19.37,0,0,0,4.22,1.57c2.45,0,5.24.11,8.11.11-.75-2.91,0-6.18,3.29-9.44a23.18,23.18,0,0,1,2.82-2.38,26.06,26.06,0,0,1,11.77-4.55c1.06-.13.46-.2,1.53-.2l.29,0C164.18,249.52,165.19,248.54,164.45,247.63Z"/>
          <g class="cls-18">
            <path class="cls-19" d="M154.06,244.54a.74.74,0,0,0,.33-.71,1.49,1.49,0,0,0-.76-1.32,1,1,0,0,0-1.36.46,1.66,1.66,0,0,1-.15.39c-.22.27-.65.14-.94,0s-.66-.38-1-.2-.14.85.23,1.06a1.9,1.9,0,0,0,1.25.06,2.31,2.31,0,0,1,1.25,0C153.33,244.36,153.7,244.71,154.06,244.54Z"/>
            <path class="cls-19" d="M161.55,247.18a6.66,6.66,0,0,1-.77-.19c-.28-.12-.49-.35-.77-.46a1.88,1.88,0,0,0-1,0l-1.27.26a.64.64,0,0,0-.33.13.48.48,0,0,0-.15.41c0,.69.71,1.18,1.39,1.32s1.38,0,2.06.16a8.52,8.52,0,0,0,.46.84,1,1,0,0,0,.57.5c.41.08.74-.33.86-.73A1.83,1.83,0,0,0,161.55,247.18Z"/>
            <path class="cls-19" d="M149.71,249.3a22.12,22.12,0,0,0,2.44,1.21.36.36,0,0,0,.53-.31,3.42,3.42,0,0,0,0-1.62l.81-.12a3.26,3.26,0,0,0-1.62-.62,13.8,13.8,0,0,0-4.35-.06.78.78,0,0,0,.35.82A7.36,7.36,0,0,0,149.71,249.3Z"/>
            <path class="cls-19" d="M141,242.72l-1.31,0a1,1,0,0,0-.39.05.75.75,0,0,0-.33,1.05,1.45,1.45,0,0,0,1,.66,2.78,2.78,0,0,0,1.43-.08,2.4,2.4,0,0,1,1.34-.29c.35.08.74.38,1,.16a.46.46,0,0,0,.17-.3c.14-.63-.47-1.21-1.1-1.36a12.54,12.54,0,0,0-1.94-.05Z"/>
            <path class="cls-19" d="M132.8,248.86a3,3,0,0,0-1.46.79.4.4,0,0,0-.14.22c0,.18.14.32.3.41a3,3,0,0,0,2.52.12,6.42,6.42,0,0,1,1.91-.82.43.43,0,0,0-.06-.51,1.12,1.12,0,0,0-.47-.3,10.65,10.65,0,0,0-1.93-.55,1.89,1.89,0,0,0-.82,0,.67.67,0,0,0-.5.58Z"/>
            <path class="cls-19" d="M128.93,257a.78.78,0,0,0,0-.4,1.8,1.8,0,0,0-.87-1.19,10.55,10.55,0,0,0-1.07-.39,1.15,1.15,0,0,1-.76-.8,4.38,4.38,0,0,0,.3,2,2,2,0,0,0,1.53,1.21A.79.79,0,0,0,128.93,257Z"/>
            <path class="cls-19" d="M140.8,254.6c-.56.1-1.09.36-1.66.43s-1.24-.18-1.76.1c.73,1.49,3.39,1.63,4.8,1.37.68-.13,2.57-.2,2-1.27C143.79,254.39,141.55,254.46,140.8,254.6Z"/>
            <path class="cls-19" d="M139.94,250.26a1.07,1.07,0,0,0,.39.14l.81.14a1.24,1.24,0,0,0,.69,0c.38-.15.5-.63.72-1a3.09,3.09,0,0,1,1-.86l.26-.17a2.12,2.12,0,0,1,1.05-.44.74.74,0,0,0-.84-.9c-.39.1-.61.49-.89.78a6.44,6.44,0,0,1-2.56,1.11,1.37,1.37,0,0,0-.68.44A.58.58,0,0,0,139.94,250.26Z"/>
            <path class="cls-19" d="M136.65,261.32c.38.27.18.89.38,1.32a.84.84,0,0,0,.42.39,1,1,0,0,0,1.13-.25.86.86,0,0,0-.1-1.14c-.18-.15-.42-.21-.59-.37a1.31,1.31,0,0,1-.3-.4c-.37-.62-.82-1.29-1.53-1.43a4,4,0,0,0-1.2.07,1.32,1.32,0,0,1-1.13-.3,2,2,0,0,0,2.06,2A1.32,1.32,0,0,1,136.65,261.32Z"/>
          </g>
          <path class="cls-16" d="M157.17,259.24c-3.67,1.25-.16,4.66,3.42,3.91S167.17,255.82,157.17,259.24Z"/>
          <path class="cls-17" d="M163.28,258.56a4.6,4.6,0,0,1-3.36,3.18,5,5,0,0,1-4.28-1.08c-.16,1.41,2.37,3,5,2.49C163,262.65,165.11,259.55,163.28,258.56Z"/>
          <path class="cls-16" d="M149,261.43c-1.59.55-.07,2,1.48,1.7S153.33,260,149,261.43Z"/>
          <path class="cls-17" d="M151.64,261.14a2,2,0,0,1-1.45,1.38,2.18,2.18,0,0,1-1.86-.47c-.07.61,1,1.31,2.14,1.08S152.43,261.57,151.64,261.14Z"/>
          <path class="cls-16" d="M153.74,264.18c-1.59.55-.07,2,1.48,1.7S158.08,262.7,153.74,264.18Z"/>
          <path class="cls-17" d="M156.39,263.89a2,2,0,0,1-1.45,1.38,2.18,2.18,0,0,1-1.86-.47c-.07.61,1,1.31,2.14,1.08S157.18,264.32,156.39,263.89Z"/>
        </g>
        <g>
          <path class="cls-9" d="M86.26,166.43l-2.78,1.49,63.36,36.69,2.83-1.51Z"/>
          <path class="cls-9" d="M92.14,163.25l-2.77,1.5,63.42,36.69,2.82-1.51Z"/>
          <path class="cls-9" d="M103.83,156.86l-2.75,1.51,63.56,36.7,2.8-1.53Z"/>
          <path class="cls-9" d="M98,160.06l-2.76,1.51,63.48,36.69,2.82-1.51Z"/>
          <path class="cls-9" d="M109.63,153.63l-2.74,1.53,63.63,36.7,2.79-1.54Z"/>
          <path class="cls-20" d="M63.68,165.56c-1,.52-3.15,1.53-4,2L109,195.92c.82-.55,2.92-1.59,3.86-2.11Z"/>
          <path class="cls-9" d="M56.52,169.2l-1.25.66c-.53.28-1,.56-1.5.85l76.48,44.1q1-.93,2.19-1.86Z"/>
          <path class="cls-20" d="M104.71,143.05c-.89.51-3.11,1.68-4,2.2l51.54,29.54c.94-.52,3.19-1.7,4.09-2.21Z"/>
          <path class="cls-9" d="M43.43,181.32c-.55.7-1.12,1.41-1.73,2.1l76.94,44.46c.41-.3.82-.62,1.22-1a10.19,10.19,0,0,0,1-.91Z"/>
          <path class="cls-20" d="M150.68,62.66l46.63,26.09V83.84L150.68,57.29v5.37Z"/>
          <path class="cls-9" d="M150.69,69.17l76,42.81v-3.13l-76-42.75Z"/>
          <path class="cls-9" d="M51,172.6a24.29,24.29,0,0,0-2.1,1.88l77.32,44.61c.56-.68,1.16-1.37,1.81-2.08Z"/>
          <path class="cls-9" d="M46.9,176.77c-.57.7-1.12,1.41-1.66,2.14l77.52,44.76.92-1.23.71-1Z"/>
          <path class="cls-9" d="M145.51,108.83c-.44.77-.92,1.52-1.43,2.28L222,155.35a25.91,25.91,0,0,0,1.46-2.31Z"/>
          <path class="cls-9" d="M147.94,103.67c-.32.85-.66,1.68-1,2.5l77.84,44.15a21.53,21.53,0,0,0,.85-2.65Z"/>
          <path class="cls-20" d="M149.5,96.34c-.19.93-.39,3.53-.63,4.41l62.94,35.5c.14-.94.24-3.61.32-4.64Z"/>
          <path class="cls-9" d="M150.7,72.62v3.07l76,42.86v-3.13Z"/>
          <path class="cls-9" d="M150.69,79.13V82.2l76.05,42.93V122Z"/>
          <path class="cls-9" d="M150.69,36l76,42.81V75.63l-76-42.75Z"/>
          <path class="cls-9" d="M150.7,39.4v3.07l76,42.86V82.2Z"/>
          <path class="cls-9" d="M150.69,45.91V49l76.05,42.93V88.78Z"/>
          <path class="cls-9" d="M150.65,85.62c0,1-.06,2-.1,3l76.19,43.06v-3.13Z"/>
          <path class="cls-9" d="M124.94,129.84l-2.27,1.79,76.59,43.72c1-.62,1.84-1.18,2.56-1.68Z"/>
          <path class="cls-9" d="M120,133.59c-.74.51-1.58,1.07-2.5,1.66l76.15,43.51,2.67-1.61Z"/>
          <path class="cls-9" d="M114.66,137.06c-.83.52-1.71,1.05-2.62,1.6L188,182.09l2.73-1.58Z"/>
          <path class="cls-9" d="M142.3,113.55c-.55.69-1.13,1.39-1.75,2.1l77.68,44.15c.68-.7,1.31-1.39,1.89-2.06Z"/>
          <path class="cls-20" d="M135.2,120.94c-.68.62-2.38,2.33-3.12,3l55,31.29c.79-.64,2.53-2.35,3.24-2.95Z"/>
          <path class="cls-9" d="M129.65,126c-.71.6-1.45,1.21-2.21,1.83l77,43.9c.8-.62,1.57-1.23,2.31-1.82Z"/>
          <g>
            <path class="cls-20" d="M107,153.49a3.77,3.77,0,0,1-3.43,0,1,1,0,0,1,0-2,3.8,3.8,0,0,1,3.43,0A1,1,0,0,1,107,153.49Z"/>
            <path class="cls-20" d="M101.24,156.64a3.8,3.8,0,0,1-3.43,0,1,1,0,0,1,0-2,3.8,3.8,0,0,1,3.43,0C102.18,155.21,102.19,156.09,101.24,156.64Z"/>
            <path class="cls-20" d="M95.53,159.79a3.8,3.8,0,0,1-3.43,0,1,1,0,0,1,0-2,3.77,3.77,0,0,1,3.43,0A1,1,0,0,1,95.53,159.79Z"/>
            <path class="cls-20" d="M89.82,162.93a3.75,3.75,0,0,1-3.42,0c-1-.54-1-1.43,0-2a3.77,3.77,0,0,1,3.43,0C90.76,161.5,90.77,162.39,89.82,162.93Z"/>
            <path class="cls-20" d="M84.12,166.08a3.8,3.8,0,0,1-3.43,0c-1-.55-1-1.43,0-2a3.8,3.8,0,0,1,3.43,0A1,1,0,0,1,84.12,166.08Z"/>
          </g>
        </g>
        <g>
          <g>
            <path class="cls-21" d="M119.66,134.42s34.65-1,47.65-7.5,19.5-25.5,19.5-35,1.5-32.5,1.5-32.5a103.2,103.2,0,0,1-33-19c-9.62-8.17-27.5-35-27.5-35v85.5C127.81,108.92,119.66,134.42,119.66,134.42Z"/>
            <path class="cls-22" d="M119.66,134.42s33.88-1.2,46.61-7.63c13-6.62,19.27-25.32,19.27-34.64S187,59.46,187,59.46s-16.19-4.33-32.37-18.06c-9.44-8-27-34.34-27-34.34V91.74C127.66,109.4,119.66,134.42,119.66,134.42Z"/>
            <path class="cls-23" d="M119.66,134.42s33.14-1.35,45.56-7.76c13-6.69,19.05-25.14,19.05-34.28s1.44-32.87,1.44-32.87S169.84,55.84,154,42.38C144.7,34.52,127.5,8.7,127.5,8.7V92.57C127.5,109.88,119.66,134.42,119.66,134.42Z"/>
            <path class="cls-24" d="M119.66,134.42s32.38-1.53,44.51-7.88c13-6.8,18.82-25,18.82-33.92s1.42-33.06,1.42-33.06-15.56-3-31.13-16.2c-9.07-7.71-25.93-33-25.93-33v83C127.35,110.37,119.66,134.42,119.66,134.42Z"/>
            <path class="cls-25" d="M119.66,134.42s31.62-1.72,43.46-8c13-6.89,18.6-24.78,18.6-33.56s1.39-33.25,1.39-33.25-15.25-2.33-30.5-15.27C143.72,36.79,127.19,12,127.19,12V94.22C127.19,110.85,119.66,134.42,119.66,134.42Z"/>
            <path class="cls-26" d="M119.66,134.42s30.85-1.9,42.41-8.14c13-7,18.38-24.6,18.38-33.2s1.35-33.43,1.35-33.43S166.87,58,151.93,45.31C143.22,37.92,127,13.63,127,13.63V95C127,111.34,119.66,134.42,119.66,134.42Z"/>
            <path class="cls-27" d="M119.66,134.42s30.09-2.09,41.37-8.26c12.95-7.1,18.14-24.43,18.14-32.84s1.33-33.63,1.33-33.63-14.62-1-29.24-13.4c-8.53-7.23-24.37-31-24.37-31v80.6C126.89,111.82,119.66,134.42,119.66,134.42Z"/>
            <path class="cls-28" d="M119.66,134.42S149,132.15,160,126c12.94-7.21,17.92-24.24,17.92-32.48s1.3-33.81,1.3-33.81-14.31-.33-28.62-12.47c-8.34-7.08-23.85-30.35-23.85-30.35V96.69C126.73,112.3,119.66,134.42,119.66,134.42Z"/>
            <path class="cls-29" d="M119.66,134.42s28.56-2.46,39.27-8.52c12.94-7.31,17.7-24.06,17.7-32.12s1.27-34,1.27-34-14,.34-28-11.54c-8.17-6.92-23.33-29.69-23.33-29.69v79C126.58,112.79,119.66,134.42,119.66,134.42Z"/>
            <path class="cls-30" d="M119.66,134.42s27.8-2.66,38.22-8.65c12.93-7.42,17.47-23.88,17.47-31.76s1.25-34.18,1.25-34.18-13.69,1-27.37-10.6c-8-6.77-22.81-29-22.81-29V98.34C126.42,113.27,119.66,134.42,119.66,134.42Z"/>
            <path class="cls-31" d="M119.66,134.42s27-2.85,37.18-8.77c12.9-7.54,17.24-23.7,17.24-31.4s1.22-34.37,1.22-34.37-13.37,1.68-26.75-9.67c-7.79-6.62-22.28-28.36-22.28-28.36V99.17C126.27,113.75,119.66,134.42,119.66,134.42Z"/>
            <path class="cls-32" d="M119.66,134.42s26.26-3,36.13-8.9c12.89-7.65,17-23.52,17-31S174,59.92,174,59.92s-13.06,2.35-26.12-8.73c-7.62-6.46-21.77-27.7-21.77-27.7V100C126.11,114.24,119.66,134.42,119.66,134.42Z"/>
            <path class="cls-33" d="M119.66,134.42s25.49-3.25,35.08-9c12.88-7.76,16.79-23.34,16.79-30.68S172.69,60,172.69,60,160,63,147.2,52.17c-7.43-6.31-21.24-27-21.24-27v75.69C126,114.72,119.66,134.42,119.66,134.42Z"/>
            <path class="cls-34" d="M119.66,134.42s24.72-3.45,34-9.15c12.86-7.89,16.57-23.17,16.57-30.32S171.39,60,171.39,60,159,63.7,146.53,53.15C139.28,47,125.8,26.77,125.8,26.77v74.87C125.8,115.2,119.66,134.42,119.66,134.42Z"/>
            <path class="cls-35" d="M119.66,134.42s24-3.65,33-9.28c12.84-8,16.34-23,16.34-30s1.1-35.12,1.1-35.12S158,64.41,145.85,54.13c-7.07-6-20.2-25.71-20.2-25.71v74.05C125.65,115.69,119.66,134.42,119.66,134.42Z"/>
            <path class="cls-36" d="M119.66,134.42s23.18-3.85,31.94-9.41c12.82-8.13,16.12-22.8,16.12-29.6s1.07-35.3,1.07-35.3-11.81,5-23.62-5c-6.88-5.85-19.67-25-19.67-25v73.23C125.5,116.17,119.66,134.42,119.66,134.42Z"/>
            <path class="cls-37" d="M119.66,134.42s22.41-4.06,30.89-9.53c12.8-8.26,15.89-22.63,15.89-29.24s1.05-35.5,1.05-35.5-11.5,5.69-23-4.06c-6.7-5.69-19.16-24.39-19.16-24.39v72.41C125.34,116.65,119.66,134.42,119.66,134.42Z"/>
            <path class="cls-38" d="M119.66,134.42s21.63-4.27,29.84-9.66c12.78-8.39,15.67-22.44,15.67-28.88s1-35.68,1-35.68S155,66.55,143.82,57.06c-6.52-5.53-18.63-23.71-18.63-23.71v71.59C125.19,117.14,119.66,134.42,119.66,134.42Z"/>
            <path class="cls-39" d="M119.66,134.42s20.85-4.47,28.8-9.79c12.74-8.53,15.44-22.26,15.44-28.52s1-35.86,1-35.86A18.52,18.52,0,0,1,143.15,58C136.81,52.67,125,35,125,35v70.77C125,117.62,119.66,134.42,119.66,134.42Z"/>
            <path class="cls-40" d="M119.66,134.42s20.08-4.69,27.75-9.92a35,35,0,0,0,15.21-28.16c0-6.07,1-36.05,1-36.05S153,68,142.47,59c-6.16-5.22-17.59-22.39-17.59-22.39v70C124.88,118.11,119.66,134.42,119.66,134.42Z"/>
            <path class="cls-41" d="M119.66,134.42s19.3-4.9,26.7-10a34.58,34.58,0,0,0,15-27.8c0-5.9.93-36.24.93-36.24S152,68.69,141.79,60c-6-5.07-17.07-21.73-17.07-21.73v69.14C124.72,118.59,119.66,134.42,119.66,134.42Z"/>
            <path class="cls-42" d="M119.66,134.42s18.52-5.11,25.65-10.17a34.17,34.17,0,0,0,14.77-27.44c0-5.72.9-36.42.9-36.42s-9.93,9-19.86.59c-5.79-4.91-16.55-21.06-16.55-21.06v68.32C124.57,119.07,119.66,134.42,119.66,134.42Z"/>
          </g>
          <path class="cls-9" d="M155.31,65.47c-12.63-7.14-25-19.33-35.33-34.86l-.14-.08C109.49,34.11,97.14,32,84.51,24.6L84,24.31l.68,23.6c2.4,36.58,14.87,52.5,35,86.51l.49.28c20.08-10.82,32.56-12.33,35-46.15l.68-22.81Z"/>
          <path class="cls-4" d="M162.43,60c-12.63-7.14-25-19.33-35.33-34.86L127,25.1c-10.35,3.58-22.69,1.51-35.32-5.93l-.49-.28-7,5.5.34.21c12.63,7.44,25,9.51,35.33,5.93l.14.08c10.35,15.53,22.7,27.72,35.33,34.86l.48.27-.68,22.81c-1.57,22.07-7.43,30.38-16.89,36.5,11.82-7,22.25-17.12,24-41.92l.68-22.81Z"/>
          <path class="cls-4" d="M162.91,60.32l-.48-.28c-12.63-7.14-25-19.33-35.33-34.86L127,25.1l-7.12,5.43.14.08c10.35,15.53,22.7,27.72,35.33,34.86l.48.27Z"/>
          <path class="cls-10" d="M155.79,65.74l-.68,22.81c-1.57,22.07-7.43,30.38-16.89,36.5,11.82-7,22.25-17.12,24-41.92l.68-22.81Z"/>
          <path class="cls-43" d="M117.41,118.94C101.82,93.08,94,80.08,92.09,51.7l-.43-14.9c10,4.52,19.61,6,28.25,4.25,8.64,11.7,18.24,21.33,28.24,28.37l-.43,14.4C145.83,110,138,114,122.4,121.83l-2.49,1.26C119.06,121.68,118.23,120.29,117.41,118.94Z"/>
          <ellipse class="cls-44" cx="118.76" cy="78.86" rx="21.6" ry="37.42" transform="translate(-23.56 70.71) rotate(-30.31)"/>
          <path class="cls-45" d="M123.68,120.7,121.19,122l-2.5-4.15C103.1,92,95.26,79,93.37,50.57L93,37.38l-1.33-.58.43,14.9c1.89,28.38,9.73,41.38,25.32,67.24.82,1.35,1.65,2.74,2.5,4.15l2.49-1.26c6.36-3.21,11.43-5.77,15.34-9.45C134,115.48,129.37,117.83,123.68,120.7Z"/>
          <path class="cls-7" d="M155.76,65c-12.63-7.15-25-19.33-35.33-34.86l-.14-.08c-10.35,3.58-22.7,1.51-35.33-5.93l-.46.49c12.61,7.4,24.93,9.46,35.26,5.89l.14.08c10.35,15.53,22.7,27.72,35.33,34.86l.48.27L155,88.55c-1.3,18.32-5.55,27.16-12.37,33.13,7.12-6,11.57-14.8,12.9-33.58l.68-22.81Z"/>
          <path class="cls-9" d="M71.86,65.4a.51.51,0,0,1-.5-.5c0-.69,0-1.37,0-2a.5.5,0,0,1,1,.05c0,.65,0,1.3,0,2A.5.5,0,0,1,71.86,65.4Zm.3-5H72.1a.5.5,0,0,1-.43-.56q.12-1,.3-2a.51.51,0,0,1,.59-.4A.5.5,0,0,1,73,58q-.18,1-.3,1.95A.51.51,0,0,1,72.16,60.41Zm1-4.89-.14,0a.51.51,0,0,1-.34-.62c.2-.66.41-1.31.64-1.94a.51.51,0,0,1,.65-.29.5.5,0,0,1,.29.64c-.22.6-.43,1.23-.62,1.87A.5.5,0,0,1,73.15,55.52ZM75,50.89a.46.46,0,0,1-.23-.06.5.5,0,0,1-.21-.68,19.45,19.45,0,0,1,1.05-1.76.5.5,0,0,1,.69-.14.51.51,0,0,1,.14.7c-.35.53-.69,1.09-1,1.67A.5.5,0,0,1,75,50.89Zm2.88-4.07a.47.47,0,0,1-.34-.14.49.49,0,0,1,0-.7A16.6,16.6,0,0,1,79,44.56a.49.49,0,0,1,.7.06.51.51,0,0,1-.06.71,16,16,0,0,0-1.4,1.33A.5.5,0,0,1,77.89,46.82Zm3.91-3.08a.51.51,0,0,1-.44-.26.51.51,0,0,1,.19-.68,17.64,17.64,0,0,1,1.86-.89.5.5,0,1,1,.38.92,16.44,16.44,0,0,0-1.74.84A.47.47,0,0,1,81.8,43.74ZM86.46,42A.5.5,0,0,1,86,41.6a.51.51,0,0,1,.39-.6c.65-.13,1.34-.24,2-.31a.52.52,0,0,1,.55.45.49.49,0,0,1-.45.54q-1,.1-1.92.3Z"/>
          <path class="cls-9" d="M91.85,112.23a.52.52,0,0,1-.37-.16l-1.34-1.5a.5.5,0,1,1,.75-.66l1.32,1.48a.5.5,0,0,1,0,.71A.51.51,0,0,1,91.85,112.23Zm-3.26-3.79a.51.51,0,0,1-.39-.19c-.42-.52-.83-1-1.24-1.59a.51.51,0,0,1,.09-.7.52.52,0,0,1,.71.1c.4.52.81,1,1.22,1.56a.5.5,0,0,1-.39.82Zm-3-4a.49.49,0,0,1-.41-.21L84,102.57a.51.51,0,0,1,.14-.7.5.5,0,0,1,.69.14c.37.55.75,1.1,1.13,1.64a.51.51,0,0,1-.12.7A.52.52,0,0,1,85.59,104.44Zm-2.75-4.18a.51.51,0,0,1-.43-.23l-1-1.73a.49.49,0,0,1,.18-.68.51.51,0,0,1,.69.18c.33.57.67,1.14,1,1.7a.5.5,0,0,1-.17.69A.48.48,0,0,1,82.84,100.26Zm-2.49-4.33a.5.5,0,0,1-.44-.27c-.32-.59-.63-1.18-.93-1.78a.5.5,0,0,1,.22-.67.49.49,0,0,1,.67.22c.3.59.61,1.18.92,1.76a.5.5,0,0,1-.21.68A.46.46,0,0,1,80.35,95.93Zm-2.23-4.48a.49.49,0,0,1-.45-.29c-.28-.61-.55-1.23-.82-1.84a.51.51,0,0,1,.27-.66.49.49,0,0,1,.65.26c.26.61.53,1.22.81,1.82a.5.5,0,0,1-.25.66A.54.54,0,0,1,78.12,91.45Z"/>
          <path class="cls-46" d="M105.22,113.51c-14-8.08-25.39-27.73-25.39-43.79,0-7.86,2.69-13.74,7.56-16.55S98.82,51,105.72,55a41.31,41.31,0,0,1,6.8,5l-.67.75a39.71,39.71,0,0,0-6.63-4.85C98.64,52,92.49,51.38,87.89,54s-7.06,8.2-7.06,15.69c0,15.74,11.17,35,24.89,42.93Z"/>
          <path class="cls-47" d="M107.17,114c0,.82-.6,1.18-1.26.8a2.57,2.57,0,0,1-1.12-2.17c0-.83.6-1.18,1.26-.8A2.57,2.57,0,0,1,107.17,114Z"/>
          <path class="cls-46" d="M113.52,61.35l-3.87-1a.51.51,0,0,1-.37-.61.5.5,0,0,1,.61-.36l2,.51-.72-2a.5.5,0,0,1,.93-.35Z"/>
          <g>
            <g>
              <path class="cls-48" d="M91.51,74.55c.27-10,7.56-14,16.49-8.84,4.6,2.65,8.76,7.23,11.76,12.45l3.3-.83C119.3,70.52,114,64.51,108,61.08c-11.24-6.49-20.4-1.36-20.54,11.43L90.1,74.9Z"/>
              <path class="cls-48" d="M116.28,105.81a14.1,14.1,0,0,1-8.28-2.2c-8.46-4.88-15.45-16.26-16.4-26.23l-4-2c0,.08-1.35.35-1.34.42,1.16,12.42,11.24,26.39,21.77,32.48,3.83,2.21,6.42,3.37,9.49,3,.13,0,1.25-.33,1.38-.35Z"/>
              <path class="cls-48" d="M121.32,81.19a31.56,31.56,0,0,1,3.2,13c0,6-2.44,9.92-6.23,11.2l2.55,5.06c4.7-1.62,7.71-6.51,7.71-13.94a39.19,39.19,0,0,0-4-16.15Z"/>
            </g>
            <path class="cls-48" d="M113.67,89.5A14.4,14.4,0,0,1,110.78,86c-.48-.8-.47-1.67,0-2a3.72,3.72,0,0,0,1.48-1.64c.51.14,1.14,0,1.14-.75a2.74,2.74,0,0,0-.74-1.87A9.21,9.21,0,0,0,108,71.64a4.36,4.36,0,0,0-2.84-.8c-.16,0-1.54.39-1.68.46-.94.47-.07,1.49-.14,3.14-.42-.09-.74.32-.74,1a3.34,3.34,0,0,0,1.14,2,17,17,0,0,0,1.48,3.36c.47.81.48,1.7,0,2a3.78,3.78,0,0,1-2.89.12,2.2,2.2,0,0,0-1.21,0c-.1,0-1.35.35-1.44.4-.65.32.09.8.09,1.9v3.13a2.13,2.13,0,0,0,1,1.66l13.43,8.89c.23.13,1.55-.34,1.72-.4a.63.63,0,0,0,.34-.65V94.7A7.44,7.44,0,0,0,113.67,89.5Z"/>
            <g>
              <path class="cls-7" d="M90.61,74.81c.27-10,7.55-14,16.49-8.85,4.6,2.66,8.76,7.23,11.76,12.46l3.3-.83C118.4,70.78,113,64.77,107.1,61.34,95.86,54.85,86.7,60,86.56,72.77Z"/>
              <path class="cls-7" d="M115.38,106.07a14.08,14.08,0,0,1-8.28-2.2C98.64,99,91.65,87.61,90.7,77.63l-4-2c1.08,12.47,9.83,26.78,20.43,32.89,4,2.31,7.71,3.14,10.86,2.7Z"/>
              <path class="cls-7" d="M120.42,81.45a31.55,31.55,0,0,1,3.2,13c0,6-2.44,9.92-6.23,11.21l2.55,5.06c4.69-1.62,7.71-6.51,7.71-13.94a39.27,39.27,0,0,0-4-16.16Z"/>
            </g>
            <path class="cls-7" d="M112.77,89.75a14,14,0,0,1-2.9-3.46c-.48-.81-.46-1.68,0-2a3.75,3.75,0,0,0,1.48-1.65c.5.14,1.13,0,1.13-.74a2.73,2.73,0,0,0-.73-1.87,9.19,9.19,0,0,0-4.66-8.18c-3.49-2-4.53-.1-4.66,2.8-.42-.1-.73.31-.73,1a3.34,3.34,0,0,0,1.14,2,15.91,15.91,0,0,0,1.48,3.36c.46.81.48,1.7,0,2a3.85,3.85,0,0,1-2.9.12c-1.46-.45-2.55.44-2.55,2.25v3.13a2.11,2.11,0,0,0,1,1.65l14.54,8.4c.53.3,1,.06,1-.55V95A7.46,7.46,0,0,0,112.77,89.75Z"/>
            <g>
              <path class="cls-49" d="M90.09,74.94c.28-10,7.56-14,16.49-8.85a33.85,33.85,0,0,1,11.76,12.46l3.3-.83c-3.76-6.81-9.11-12.82-15.06-16.25C95.34,55,86.18,60.11,86,72.9Z"/>
              <path class="cls-49" d="M114.86,106.2a14.25,14.25,0,0,1-8.28-2.2c-8.46-4.89-15.45-16.26-16.4-26.24l-4-2c1.08,12.46,9.83,26.77,20.43,32.89,4,2.31,7.71,3.14,10.87,2.7Z"/>
              <path class="cls-49" d="M119.9,81.58a31.55,31.55,0,0,1,3.2,13c0,6-2.44,9.92-6.23,11.21l2.55,5.06c4.7-1.62,7.71-6.51,7.71-13.94a39.23,39.23,0,0,0-3.95-16.16Z"/>
            </g>
            <path class="cls-49" d="M112.25,89.88a14,14,0,0,1-2.89-3.47c-.48-.8-.46-1.67,0-1.94a3.75,3.75,0,0,0,1.48-1.65c.51.14,1.14,0,1.14-.74a2.74,2.74,0,0,0-.74-1.87A9.22,9.22,0,0,0,106.59,72c-3.5-2-4.54-.09-4.66,2.81-.42-.1-.74.31-.74,1a3.36,3.36,0,0,0,1.14,2.06,17,17,0,0,0,1.48,3.36c.47.81.48,1.7,0,1.94a3.78,3.78,0,0,1-2.89.13c-1.47-.45-2.56.44-2.56,2.25v3.13a2.09,2.09,0,0,0,1,1.65l14.53,8.4c.53.3,1,.06,1-.55V95.09A7.46,7.46,0,0,0,112.25,89.88Z"/>
          </g>
        </g>
        <g>
          <path class="cls-20" d="M253.64,140.4l-38.86-22.47c-2.22-1.28-4-4.71-4-7.67v-9.21c0-3,1.79-4.31,4-3l38.86,22.47c2.22,1.28,4,4.71,4,7.67v9.21C257.66,140.32,255.86,141.68,253.64,140.4Z"/>
          <path class="cls-43" d="M254.16,136.55l-38.25-22.12a6.79,6.79,0,0,1-2.89-5.71v-6.6a.71.71,0,0,1,1.07-.61l.13.07,38.3,22.15c2.12,1.22,2.88,3.39,2.88,5.71v6.5a.76.76,0,0,1-1.14.66Z"/>
          <path class="cls-45" d="M254.9,136.08l-.1-.05-38.25-22.12a6.82,6.82,0,0,1-2.89-5.72v-6.6a.57.57,0,0,1,0-.18.71.71,0,0,0-.67.71v6.6a6.79,6.79,0,0,0,2.89,5.71l38.25,22.12.1,0a.77.77,0,0,0,1.11-.43A.71.71,0,0,1,254.9,136.08Z"/>
          <path class="cls-50" d="M255.53,119.53,216.67,97.06a2.73,2.73,0,0,0-2.35-.35c-.08,0-1.95,1-2,1h0a2.63,2.63,0,0,1,2.5.28l38.86,22.47c2.22,1.28,4,4.71,4,7.67v9.21c0,1.84-.7,3.06-1.77,3.41a.6.6,0,0,0,.35-.12c.05,0,2-1.07,2.07-1.11a3.71,3.71,0,0,0,1.24-3.15v-9.21C259.55,124.24,257.75,120.81,255.53,119.53Z"/>
          <path class="cls-51" d="M255.53,119.53,216.67,97.06a2.73,2.73,0,0,0-2.35-.35c-.08,0-1.95,1-2,1h0a2.63,2.63,0,0,1,2.5.28l38.86,22.47Z"/>
          <path class="cls-52" d="M253.84,120.4,215,97.92a2.67,2.67,0,0,0-2.41-.31,2.94,2.94,0,0,1,1.93.46l38.87,22.47c2.21,1.28,4,4.71,4,7.67v9.21c0,1.74-.63,2.92-1.6,3.34,1.24-.2,2.08-1.47,2.08-3.49v-9.21C257.85,125.11,256.05,121.68,253.84,120.4Z"/>
          <g>
            <path class="cls-45" d="M244.66,124.51a5.36,5.36,0,0,0,2.42,4.18c1.34.77,2.42.15,2.42-1.38a5.34,5.34,0,0,0-2.42-4.18C245.75,122.36,244.66,123,244.66,124.51Z"/>
            <path class="cls-45" d="M238.43,120.89a5.34,5.34,0,0,0,2.41,4.17c1.34.77,2.42.16,2.42-1.38a5.32,5.32,0,0,0-2.42-4.17C239.51,118.74,238.43,119.36,238.43,120.89Z"/>
            <path class="cls-45" d="M232.19,117.27a5.32,5.32,0,0,0,2.42,4.17c1.33.77,2.41.15,2.41-1.38a5.34,5.34,0,0,0-2.41-4.17C233.27,115.12,232.19,115.73,232.19,117.27Z"/>
            <path class="cls-45" d="M226,113.64a5.3,5.3,0,0,0,2.42,4.17c1.33.78,2.42.16,2.42-1.37a5.35,5.35,0,0,0-2.42-4.18C227,111.49,226,112.11,226,113.64Z"/>
            <path class="cls-45" d="M219.71,110a5.32,5.32,0,0,0,2.42,4.17c1.33.77,2.42.15,2.42-1.38a5.35,5.35,0,0,0-2.42-4.17C220.79,107.87,219.71,108.49,219.71,110Z"/>
          </g>
          <g>
            <path class="cls-9" d="M243.91,124.56a5.36,5.36,0,0,0,2.42,4.18c1.34.77,2.42.15,2.42-1.38a5.34,5.34,0,0,0-2.42-4.18C245,122.41,243.91,123,243.91,124.56Z"/>
            <path class="cls-9" d="M237.68,120.94a5.32,5.32,0,0,0,2.42,4.17c1.33.77,2.41.16,2.41-1.38a5.34,5.34,0,0,0-2.41-4.17C238.76,118.79,237.68,119.41,237.68,120.94Z"/>
            <path class="cls-9" d="M231.44,117.32a5.32,5.32,0,0,0,2.42,4.17c1.33.77,2.42.15,2.42-1.38a5.35,5.35,0,0,0-2.42-4.17C232.52,115.17,231.44,115.78,231.44,117.32Z"/>
            <path class="cls-9" d="M225.2,113.69a5.3,5.3,0,0,0,2.42,4.17c1.33.78,2.42.16,2.42-1.37a5.35,5.35,0,0,0-2.42-4.18C226.28,111.54,225.2,112.16,225.2,113.69Z"/>
            <path class="cls-9" d="M219,110.07a5.32,5.32,0,0,0,2.42,4.17c1.34.77,2.42.15,2.42-1.38a5.32,5.32,0,0,0-2.42-4.17C220,107.92,219,108.54,219,110.07Z"/>
          </g>
        </g>
        <g>
          <path class="cls-47" d="M111.83,196.92c0,.77,1.07,1.4,2.4,1.4s2.4-.63,2.4-1.4-1.07-1.4-2.4-1.4S111.83,196.15,111.83,196.92Z"/>
          <polygon class="cls-47" points="161.88 235.79 158.56 238.48 164.56 240.48 161.88 235.79"/>
          <path class="cls-9" d="M263.66,128.75a.5.5,0,0,1-.5-.5v-2a.5.5,0,0,1,.5-.5.5.5,0,0,1,.5.5v2A.5.5,0,0,1,263.66,128.75Zm0-5a.49.49,0,0,1-.5-.49,7.66,7.66,0,0,0-.28-1.84.5.5,0,0,1,1-.28,8.75,8.75,0,0,1,.32,2.1.51.51,0,0,1-.49.51ZM262,119.14a.49.49,0,0,1-.39-.19,6.78,6.78,0,0,0-1.35-1.27.5.5,0,0,1-.11-.7.48.48,0,0,1,.69-.11,7.9,7.9,0,0,1,1.55,1.45.51.51,0,0,1-.07.71A.54.54,0,0,1,262,119.14Zm-4-2.93a.48.48,0,0,1-.26-.07l-1.72-1a.5.5,0,1,1,.52-.86l1.71,1a.51.51,0,0,1,.18.69A.5.5,0,0,1,258,116.21Z"/>
          <path class="cls-47" d="M163.15,239.42a.5.5,0,0,1-.27-.08l-.79-.49a.5.5,0,0,1,.53-.85l.79.49a.5.5,0,0,1,.16.69A.52.52,0,0,1,163.15,239.42Zm-3.34-2.08a.56.56,0,0,1-.27-.08l-1.69-1.06a.49.49,0,0,1-.16-.69.51.51,0,0,1,.69-.16l1.69,1.06a.49.49,0,0,1,.16.69A.5.5,0,0,1,159.81,237.34Zm-4.24-2.65a.43.43,0,0,1-.27-.08l-1.7-1.06a.5.5,0,1,1,.53-.84l1.7,1.06a.5.5,0,0,1-.26.92ZM151.32,232a.48.48,0,0,1-.26-.07l-1.7-1.06a.5.5,0,1,1,.53-.85l1.7,1.06a.5.5,0,0,1-.27.92Zm-3.6-3.24a.5.5,0,0,1-.48-.39,3.48,3.48,0,0,1-.09-.79V226.3a.5.5,0,0,1,.5-.5.5.5,0,0,1,.5.5v1.32a2.6,2.6,0,0,0,.06.56.5.5,0,0,1-.37.6Zm-.07-5a.5.5,0,0,1-.5-.5v-2a.5.5,0,0,1,.5-.5.5.5,0,0,1,.5.5v2A.5.5,0,0,1,147.65,223.8Zm0-5a.5.5,0,0,1-.49-.44,3.27,3.27,0,0,0-.64-1.59.51.51,0,0,1,.1-.7.49.49,0,0,1,.7.1,4.13,4.13,0,0,1,.83,2.08.5.5,0,0,1-.44.55Zm-3.14-3.58a.48.48,0,0,1-.26-.07l-1.72-1a.5.5,0,0,1-.18-.68.51.51,0,0,1,.69-.18l1.72,1a.51.51,0,0,1,.18.69A.49.49,0,0,1,144.48,215.22Zm-4.31-2.53a.45.45,0,0,1-.25-.07l-1.73-1a.49.49,0,0,1-.18-.68.51.51,0,0,1,.69-.18l1.72,1a.5.5,0,0,1-.25.93Zm-4.31-2.54a.45.45,0,0,1-.25-.07l-1.73-1a.5.5,0,0,1-.18-.68.51.51,0,0,1,.69-.18l1.72,1a.51.51,0,0,1,.18.69A.49.49,0,0,1,135.86,210.15Zm-4.31-2.53a.45.45,0,0,1-.25-.07l-1.73-1a.51.51,0,0,1-.18-.69.52.52,0,0,1,.69-.18l1.72,1a.5.5,0,0,1-.25.93Zm-4.31-2.54A.45.45,0,0,1,127,205l-1.73-1a.48.48,0,0,1-.17-.68.49.49,0,0,1,.68-.18l1.72,1a.51.51,0,0,1,.18.69A.49.49,0,0,1,127.24,205.08Zm-4.31-2.53a.45.45,0,0,1-.25-.07l-1.73-1a.51.51,0,0,1-.18-.69.51.51,0,0,1,.69-.18l1.72,1a.5.5,0,0,1-.25.93ZM118.62,200a.45.45,0,0,1-.25-.07l-1.73-1a.48.48,0,0,1-.17-.68.49.49,0,0,1,.68-.18l1.72,1a.51.51,0,0,1,.18.69A.49.49,0,0,1,118.62,200Z"/>
          <path class="cls-20" d="M96.6,153.92a.47.47,0,0,1-.25-.07L95,153a.5.5,0,1,1,.5-.86l1.4.82a.5.5,0,0,1,.18.68A.51.51,0,0,1,96.6,153.92Zm-4-2.33a.43.43,0,0,1-.25-.07l-1.73-1a.5.5,0,1,1,.5-.86l1.73,1a.5.5,0,0,1-.25.93Zm-4.32-2.52a.45.45,0,0,1-.25-.07l-1.73-1a.5.5,0,1,1,.5-.86l1.73,1a.5.5,0,0,1-.25.93ZM84,146.55a.47.47,0,0,1-.25-.07l-1.73-1a.49.49,0,0,1-.18-.68.51.51,0,0,1,.69-.18l1.72,1a.5.5,0,0,1-.25.93ZM79.66,144a.47.47,0,0,1-.25-.07l-1.73-1a.5.5,0,0,1-.17-.68.48.48,0,0,1,.68-.18l1.73,1a.5.5,0,0,1,.17.68A.48.48,0,0,1,79.66,144Zm-4.31-2.52a.59.59,0,0,1-.26-.07l-1.72-1a.5.5,0,0,1-.18-.68.49.49,0,0,1,.68-.18l1.73,1a.5.5,0,0,1-.25.94ZM71,139a.51.51,0,0,1-.25-.06l-1.73-1a.51.51,0,0,1-.18-.69.49.49,0,0,1,.68-.18l1.73,1a.51.51,0,0,1,.18.69A.49.49,0,0,1,71,139Zm-4.32-2.52a.45.45,0,0,1-.25-.07l-1.73-1a.51.51,0,0,1-.18-.69.5.5,0,0,1,.68-.18l1.73,1a.5.5,0,0,1-.25.93Zm-5.65-1.06a.5.5,0,0,1-.5-.5,1.79,1.79,0,0,1,1.76-1.78h0a.5.5,0,0,1,.5.49.52.52,0,0,1-.49.51.78.78,0,0,0-.78.78A.5.5,0,0,1,61.06,135.4Z"/>
          <path class="cls-20" d="M58.29,138A.47.47,0,0,1,58,138l-1.73-1a.5.5,0,1,1,.51-.86l1.73,1a.51.51,0,0,1,.17.69A.49.49,0,0,1,58.29,138ZM54,135.51a.51.51,0,0,1-.25-.06l-1.73-1a.49.49,0,0,1-.18-.68.51.51,0,0,1,.69-.18l1.72,1a.51.51,0,0,1,.18.69A.49.49,0,0,1,54,135.51ZM49.67,133a.59.59,0,0,1-.26-.07l-1.72-1a.5.5,0,0,1,.5-.87l1.73,1a.5.5,0,0,1-.25.94Zm-4.32-2.53a.59.59,0,0,1-.25-.07l-1.73-1a.51.51,0,0,1-.18-.69.52.52,0,0,1,.69-.18l1.72,1a.5.5,0,0,1-.25.93ZM41,127.93a.43.43,0,0,1-.25-.07l-1.73-1a.51.51,0,0,1-.18-.69.51.51,0,0,1,.69-.17l1.72,1a.5.5,0,0,1-.25.93Z"/>
          <polygon class="cls-20" points="43.23 126.83 40.15 129.08 38.03 125.46 43.23 126.83"/>
        </g>
        <g>
          <path class="cls-2" d="M247.57,225l-30.7-17.67c-3.2-1.85-2.8-5.07.89-7.2h0c3.69-2.13,15.89-2.14,19.09-.3l27.21,15.71c4.91,2.89.05,6.87-4,8.94h0C256.34,226.58,250.76,226.81,247.57,225Z"/>
          <path class="cls-10" d="M259.53,187.86,215.14,171.3v32.92a2.91,2.91,0,0,0,1.73,2.87l30,17.38c2.6,1.5,7.14,1.32,10.14-.42h0c1.59-.91,2.43-2.08,2.48-3.2h0Z"/>
          <path class="cls-9" d="M246.89,191.4l-30-17.38c-2.6-1.5-2.27-4.13.73-5.86h0c3-1.73,7.55-1.92,10.15-.42l30,17.38c2.6,1.5,2.28,4.13-.73,5.86h0C254,192.71,249.49,192.9,246.89,191.4Z"/>
          <path class="cls-7" d="M257,190.56c-3,1.74-7.54,1.92-10.14.42l-30-17.38a3.1,3.1,0,0,1-1.73-2.32,2.91,2.91,0,0,0,1.73,2.83l30,17.38c2.6,1.5,7.14,1.31,10.14-.42,1.75-1,2.59-2.32,2.47-3.54A4.41,4.41,0,0,1,257,190.56Z"/>
          <g>
            <path class="cls-3" d="M240.29,147.54h0a12.57,12.57,0,0,0-18.85,10.89v13.64h0v0c0,1.34,1.85,2.41,4.13,2.41s4.13-1.07,4.13-2.4c0,0,0,0,0,0h.05V160.19a5.33,5.33,0,0,1,8-4.62h0a13.31,13.31,0,0,1,6.67,11.53v18.18h0c0,1.3,1.87,2.35,4.13,2.35s4.1-1.06,4.12-2.38h0V169A24.72,24.72,0,0,0,240.29,147.54Z"/>
            <path class="cls-6" d="M240.05,153.83a7.85,7.85,0,0,0-.77-.38,14.48,14.48,0,0,1,6.39,12v21.34a5.09,5.09,0,0,0,1.61.59v-21A14.5,14.5,0,0,0,240.05,153.83Z"/>
            <path class="cls-43" d="M231.67,151.65a6.76,6.76,0,0,0-6.76,6.75v14.25l0,1.47a5.62,5.62,0,0,0,2.36-.28l.05-1.48V158.12a6.76,6.76,0,0,1,4.77-6.46Z"/>
            <path class="cls-6" d="M235.72,148.73a13.06,13.06,0,0,1,6.14,1.54,23.6,23.6,0,0,0-2.28-1.5,11,11,0,0,0-5.54-1.51,11.2,11.2,0,0,0-11.18,11.17v0A13.49,13.49,0,0,1,235.72,148.73Z"/>
            <path class="cls-43" d="M249.5,171.47v15.95a5,5,0,0,0,2.07-.71,1.25,1.25,0,0,0,.14-.56V169.87C251.7,162.83,249.5,164.29,249.5,171.47Z"/>
          </g>
          <path class="cls-43" d="M237.64,197.23a9,9,0,0,0-4.07-7c-2.25-1.3-4.07-.26-4.07,2.32a8.9,8.9,0,0,0,2.05,5.24v8.17l4,2.32v-8.17C236.81,200,237.64,199,237.64,197.23Z"/>
          <path class="cls-45" d="M232.26,205.64v-8.17a8.85,8.85,0,0,1-2.06-5.24,2.9,2.9,0,0,1,1.06-2.53c-1.06.22-1.76,1.23-1.76,2.83a8.9,8.9,0,0,0,2.05,5.24v8.17l4,2.32v-.7Z"/>
        </g>
        <g>
          <path class="cls-43" d="M24.5,121.93a3,3,0,0,1-2.68,0,.45.45,0,0,0-.42,0l-10.46,6-1.4-.81c-.12-.06-.12-.17,0-.24l11.86-6.85a.45.45,0,0,1,.42,0,3,3,0,0,0,2.68,0,1,1,0,0,0,.56-.77h0v1.83h0A.93.93,0,0,1,24.5,121.93Z"/>
          <path class="cls-43" d="M27.87,114.21a2,2,0,0,0,1.18,1.69,3,3,0,0,0,2.69,0c.74-.43.75-1.12,0-1.55-.12-.07-.12-.18,0-.24l11.86-6.85a.45.45,0,0,1,.42,0l6.77,3.91c.12.06.12.17,0,.24l-1.4.81L44,109.12a.45.45,0,0,0-.42,0l-11.29,6.52V117h0a.91.91,0,0,1-.55.81,3,3,0,0,1-2.69,0,2.07,2.07,0,0,1-1.15-1.49l0,0v-2Z"/>
          <path class="cls-6" d="M21.34,124.27a3.7,3.7,0,0,0,3.35,0l15.14-8.74c.93-.54.94-1.4,0-1.94a3.7,3.7,0,0,0-3.35,0l-15.14,8.74C20.42,122.87,20.41,123.74,21.34,124.27Z"/>
          <path class="cls-43" d="M28.59,124c.12.07.12.18,0,.24l-.57.33V123.1h0A.86.86,0,0,0,28.59,124Z"/>
          <path class="cls-43" d="M6.84,128.73l6.78,3.91a6.4,6.4,0,0,0,5.78,0l11.87-6.85A2,2,0,0,0,32.45,124h0v2.08h0a2.14,2.14,0,0,1-1.18,1.56L19.4,134.49a6.43,6.43,0,0,1-5.78,0l-6.78-3.91a2.12,2.12,0,0,1-1.16-1.5h0v-1.91A2.09,2.09,0,0,0,6.84,128.73Z"/>
          <path class="cls-43" d="M21.34,124.27a3.7,3.7,0,0,0,3.35,0l15.14-8.74a1.3,1.3,0,0,0,.67-.76v1.43c.12.42-.1.86-.67,1.19l-15.14,8.74a3.7,3.7,0,0,1-3.35,0,1.33,1.33,0,0,1-.66-.75h0v0a.92.92,0,0,1,0-.33v-1.53A1.26,1.26,0,0,0,21.34,124.27Z"/>
          <path class="cls-6" d="M29.05,115.9a3,3,0,0,0,2.69,0c.74-.43.75-1.12,0-1.55-.12-.07-.12-.18,0-.24l11.86-6.85a.45.45,0,0,1,.42,0l6.77,3.91c.12.06.12.17,0,.24l-11.86,6.85a.48.48,0,0,1-.42,0,3,3,0,0,0-2.68,0c-.75.43-.75,1.13,0,1.55a6.37,6.37,0,0,0,5.78,0L53.48,113c1.6-.92,1.61-2.42,0-3.34l-6.78-3.91a6.4,6.4,0,0,0-5.78,0l-11.87,6.85C27.47,113.49,27.46,115,29.05,115.9Z"/>
          <path class="cls-43" d="M35.83,119.81a6.37,6.37,0,0,0,5.78,0L53.48,113a2,2,0,0,0,1.19-1.75h0v2.11h0a2.12,2.12,0,0,1-1.17,1.5l-11.87,6.85a6.37,6.37,0,0,1-5.78,0,1,1,0,0,1-.54-.66h0v-2h0A.91.91,0,0,0,35.83,119.81Z"/>
          <path class="cls-6" d="M6.84,128.73l6.78,3.91a6.4,6.4,0,0,0,5.78,0l11.87-6.85c1.6-.93,1.6-2.43,0-3.34a3,3,0,0,0-2.68,0c-.74.43-.75,1.12,0,1.55.12.07.12.18,0,.24l-11.86,6.85a.45.45,0,0,1-.42,0l-6.77-3.91c-.12-.06-.12-.17,0-.24l11.86-6.85a.45.45,0,0,1,.42,0,3,3,0,0,0,2.68,0c.75-.43.75-1.13,0-1.55a6.39,6.39,0,0,0-5.79,0L6.86,125.39C5.26,126.31,5.25,127.81,6.84,128.73Z"/>
          <path class="cls-10" d="M21.34,124.12a3.7,3.7,0,0,0,3.35,0l15.14-8.74a1.31,1.31,0,0,0,.67-.77.86.86,0,0,1,0,.16,1.23,1.23,0,0,1-.68.83l-15.14,8.75a3.7,3.7,0,0,1-3.35,0,1.23,1.23,0,0,1-.67-.82.76.76,0,0,1,0-.15A1.33,1.33,0,0,0,21.34,124.12Z"/>
          <path class="cls-10" d="M50.65,111.15,44,107.33a.45.45,0,0,0-.42,0L31.89,114.1l-.14-.1,0,0,0,0,11.86-6.84a.48.48,0,0,1,.42,0L50.8,111l0,0,0,0Z"/>
          <path class="cls-10" d="M35.83,119.66a6.4,6.4,0,0,0,5.78,0l11.87-6.85a2.16,2.16,0,0,0,1.17-1.47.53.53,0,0,0,0,.13A2.11,2.11,0,0,1,53.48,113l-11.87,6.85a6.43,6.43,0,0,1-5.78,0,1,1,0,0,1-.53-.66.53.53,0,0,1,0-.13A1.06,1.06,0,0,0,35.83,119.66Z"/>
          <path class="cls-10" d="M29.05,115.75a3,3,0,0,0,2.69,0,1.08,1.08,0,0,0,.52-.57.5.5,0,0,1,0,.12,1,1,0,0,1-.54.67,3,3,0,0,1-2.69,0,2.08,2.08,0,0,1-1.16-1.55.57.57,0,0,0,0-.13A2.12,2.12,0,0,0,29.05,115.75Z"/>
          <path class="cls-10" d="M21.4,119.93a.45.45,0,0,1,.42,0,3,3,0,0,0,2.68,0,1.12,1.12,0,0,0,.53-.56.49.49,0,0,1,0,.12,1,1,0,0,1-.54.67,3,3,0,0,1-2.68,0,.51.51,0,0,0-.42,0L9.69,126.91l-.15-.09s0,0,0,0l0,0Z"/>
          <path class="cls-10" d="M6.84,128.57l6.78,3.91a6.37,6.37,0,0,0,5.78,0l11.87-6.84a2.18,2.18,0,0,0,1.17-1.47v.12a2.05,2.05,0,0,1-1.17,1.57L19.4,132.7a6.4,6.4,0,0,1-5.78,0L6.84,128.8a2,2,0,0,1-1.16-1.55s0-.08,0-.13A2.1,2.1,0,0,0,6.84,128.57Z"/>
        </g>
        <g>
          <path class="cls-2" d="M1.25,179.41c-1.66-1-1.67-2.52,0-3.47l13.66-7.89a9.29,9.29,0,0,1,8.39,0c2.32,1.34,2.33,3.51,0,4.84l-12.2,7a1,1,0,0,1-.93,0c-.25-.15-.26-.39,0-.54l12.2-7c1.8-1,1.79-2.73,0-3.77a7.22,7.22,0,0,0-6.53,0L2.17,176.48c-1.15.65-1.14,1.73,0,2.39a4.57,4.57,0,0,0,4.15,0l13.08-7.55a.58.58,0,0,0,0-1.09,2.08,2.08,0,0,0-1.88,0l-10.9,6.29c-.06,0-.06.09,0,.13a.28.28,0,0,0,.22,0l8-4.63a1,1,0,0,1,.93,0,.28.28,0,0,1,0,.54l-8,4.63a2.32,2.32,0,0,1-2.07,0c-.58-.33-.58-.87,0-1.19l10.9-6.3a4.12,4.12,0,0,1,3.73,0,1.14,1.14,0,0,1,0,2.16L7.26,179.42A6.66,6.66,0,0,1,1.25,179.41Z"/>
          <path class="cls-3" d="M1.25,179.06c-1.66-1-1.67-2.52,0-3.47l13.66-7.89a9.29,9.29,0,0,1,8.39,0c2.32,1.33,2.33,3.51,0,4.84l-12.2,7a1,1,0,0,1-.93,0c-.25-.15-.26-.39,0-.54l12.2-7c1.8-1,1.79-2.73,0-3.77a7.22,7.22,0,0,0-6.53,0L2.17,176.12a1.27,1.27,0,0,0,0,2.4,4.57,4.57,0,0,0,4.15,0L19.41,171a.58.58,0,0,0,0-1.09,2.08,2.08,0,0,0-1.88,0l-10.9,6.29c-.06,0-.06.09,0,.13a.28.28,0,0,0,.22,0l8-4.63a1,1,0,0,1,.93,0,.28.28,0,0,1,0,.54l-8,4.62a2.29,2.29,0,0,1-2.07,0,.63.63,0,0,1,0-1.2l10.9-6.29a4.12,4.12,0,0,1,3.73,0,1.14,1.14,0,0,1,0,2.16L7.26,179.07A6.66,6.66,0,0,1,1.25,179.06Z"/>
          <g>
            <path class="cls-43" d="M19.41,169.54a2.08,2.08,0,0,0-1.88,0l-10.9,6.29c-.06,0-.06.09,0,.12a.22.22,0,0,0,.22,0l8-4.62a1,1,0,0,1,.31-.08l2.36-1.36a2.08,2.08,0,0,1,1.88,0,.76.76,0,0,1,.33.37C19.84,170,19.75,169.74,19.41,169.54Z"/>
            <path class="cls-43" d="M5.71,176.84a2.29,2.29,0,0,0,2.07,0l8-4.62c.21-.12.24-.3.11-.45a.24.24,0,0,1-.11.09l-8,4.63a2.29,2.29,0,0,1-2.07,0,.81.81,0,0,1-.38-.43A.63.63,0,0,0,5.71,176.84Z"/>
            <path class="cls-43" d="M22.35,167.9a7.22,7.22,0,0,0-6.53,0L2.17,175.77a1.35,1.35,0,0,0-.83,1.37,1.55,1.55,0,0,1,.83-1l13.65-7.88a7.22,7.22,0,0,1,6.53,0A2.37,2.37,0,0,1,23.68,170,2.17,2.17,0,0,0,22.35,167.9Z"/>
            <path class="cls-43" d="M23.3,172.21l-12.2,7a1,1,0,0,1-.93,0l-.11-.1c-.13.15-.1.33.11.45a1,1,0,0,0,.93,0l12.2-7A2.82,2.82,0,0,0,25,170,3,3,0,0,1,23.3,172.21Z"/>
            <path class="cls-43" d="M21.08,170.27a1.36,1.36,0,0,1-.73.89L7.26,178.72a6.66,6.66,0,0,1-6,0A2.23,2.23,0,0,1,0,177.14a2,2,0,0,0,1.22,1.92,6.66,6.66,0,0,0,6,0l13.09-7.56A1.19,1.19,0,0,0,21.08,170.27Z"/>
          </g>
          <g>
            <path class="cls-2" d="M26.16,157.47c1.66-1,1.67-2.52,0-3.47l-13.66-7.89a9.27,9.27,0,0,0-8.38,0c-2.32,1.34-2.33,3.51,0,4.84l12.2,7a1,1,0,0,0,.93,0c.26-.15.26-.39,0-.53l-12.2-7c-1.79-1-1.78-2.73,0-3.77a7.22,7.22,0,0,1,6.53,0l13.66,7.89a1.26,1.26,0,0,1,0,2.39,4.59,4.59,0,0,1-4.16,0L8,149.39c-.52-.3-.51-.79,0-1.09a2.06,2.06,0,0,1,1.87,0l10.9,6.29c.06,0,.06.09,0,.13a.26.26,0,0,1-.21,0l-8-4.63a1,1,0,0,0-.93,0c-.25.15-.26.39,0,.54l8,4.63a2.32,2.32,0,0,0,2.07,0,.63.63,0,0,0,0-1.19l-10.89-6.3a4.14,4.14,0,0,0-3.74,0,1.14,1.14,0,0,0,0,2.16l13.08,7.55A6.66,6.66,0,0,0,26.16,157.47Z"/>
            <path class="cls-10" d="M26.16,157c1.66-1,1.67-2.52,0-3.47l-13.66-7.89a9.27,9.27,0,0,0-8.38,0c-2.32,1.34-2.33,3.51,0,4.84l12.2,7a1,1,0,0,0,.93,0c.26-.15.26-.39,0-.53L5,150c-1.79-1-1.78-2.73,0-3.77a7.22,7.22,0,0,1,6.53,0l13.66,7.89a1.26,1.26,0,0,1,0,2.39,4.59,4.59,0,0,1-4.16,0L8,149c-.52-.3-.51-.78,0-1.08a2.06,2.06,0,0,1,1.87,0l10.9,6.29c.06,0,.06.09,0,.13a.26.26,0,0,1-.21,0l-8-4.63a1,1,0,0,0-.93,0c-.25.15-.26.39,0,.54l8,4.63a2.32,2.32,0,0,0,2.07,0,.63.63,0,0,0,0-1.19l-10.89-6.3a4.14,4.14,0,0,0-3.74,0,1.14,1.14,0,0,0,0,2.16l13.08,7.55A6.66,6.66,0,0,0,26.16,157Z"/>
            <g>
              <path class="cls-6" d="M25.25,153.79l-13.66-7.88a7.22,7.22,0,0,0-6.53,0A2.21,2.21,0,0,0,3.73,148a2.38,2.38,0,0,1,1.33-1.74,7.22,7.22,0,0,1,6.53,0l13.66,7.89a1.52,1.52,0,0,1,.83,1A1.37,1.37,0,0,0,25.25,153.79Z"/>
              <path class="cls-6" d="M8,147.88a2.06,2.06,0,0,1,1.87,0l2.48,1.43a1.05,1.05,0,0,1,.19,0l8,4.63a.26.26,0,0,0,.21,0c.06,0,.06-.09,0-.13l-10.9-6.29a2.06,2.06,0,0,0-1.87,0,.57.57,0,0,0-.34.7A.71.71,0,0,1,8,147.88Z"/>
              <path class="cls-6" d="M21.71,154.51a2.29,2.29,0,0,1-2.07,0l-8-4.62a.51.51,0,0,1-.13-.12c-.11.14-.07.31.13.43l8,4.63a2.29,2.29,0,0,0,2.07,0,.63.63,0,0,0,.38-.75A.82.82,0,0,1,21.71,154.51Z"/>
              <path class="cls-6" d="M17.37,157.16a.36.36,0,0,1-.13.11,1,1,0,0,1-.93,0l-12.2-7A3,3,0,0,1,2.42,148a2.8,2.8,0,0,0,1.69,2.57l12.2,7a1,1,0,0,0,.93,0C17.44,157.47,17.48,157.3,17.37,157.16Z"/>
              <path class="cls-6" d="M26.16,156.73a6.66,6.66,0,0,1-6,0L7.07,149.19a1.41,1.41,0,0,1-.74-.92,1.21,1.21,0,0,0,.74,1.23l13.08,7.55a6.66,6.66,0,0,0,6,0,2,2,0,0,0,1.23-1.9A2.2,2.2,0,0,1,26.16,156.73Z"/>
            </g>
          </g>
          <path class="cls-2" d="M33.34,160.89c-2.16.34-4.63-.32-5.49-1.47l-7.18-9.49c-1.21-1.6.26-3.28,3.28-3.75s6.45.46,7.67,2.06L38,156.72c.13.17,0,.36-.37.41a1,1,0,0,1-.85-.23l-6.41-8.47c-.94-1.25-3.62-2-6-1.61s-3.49,1.68-2.55,2.92l7.18,9.49c.6.8,2.3,1.25,3.8,1s2.22-1.06,1.62-1.86l-6.87-9.08a2,2,0,0,0-1.72-.47c-.68.11-1,.49-.73.84l5.72,7.58a.24.24,0,0,0,.2.05c.08,0,.11-.06.08-.1L27,151.64c-.13-.17,0-.36.36-.41a1,1,0,0,1,.85.23L32.37,157c.3.39-.06.81-.81.92a2.16,2.16,0,0,1-1.89-.51l-5.73-7.57c-.53-.71.12-1.46,1.46-1.67a3.94,3.94,0,0,1,3.42.92l6.87,9.09C36.56,159.35,35.51,160.56,33.34,160.89Z"/>
          <path class="cls-3" d="M33.34,160.47c-2.16.33-4.63-.33-5.49-1.48l-7.18-9.49c-1.21-1.6.26-3.28,3.28-3.75s6.45.46,7.67,2.06L38,156.29c.13.17,0,.36-.37.41a1,1,0,0,1-.85-.23L30.4,148c-.94-1.25-3.62-2-6-1.61s-3.49,1.68-2.55,2.92l7.18,9.49c.6.8,2.3,1.25,3.8,1s2.22-1.06,1.62-1.86l-6.87-9.08a2,2,0,0,0-1.72-.46c-.68.1-1,.48-.73.84l5.72,7.57a.24.24,0,0,0,.2,0c.08,0,.11-.06.08-.1L27,151.21c-.13-.17,0-.36.36-.41a1,1,0,0,1,.85.23l4.21,5.57c.3.39-.06.81-.81.92a2.16,2.16,0,0,1-1.89-.51l-5.73-7.57c-.53-.71.12-1.46,1.46-1.67a4,4,0,0,1,3.42.92l6.87,9.09C36.56,158.92,35.51,160.13,33.34,160.47Z"/>
          <g>
            <path class="cls-43" d="M27,150.92c-.11.08-.15.19-.07.29l4,5.24a.24.24,0,0,0,.17,0c.08,0,.11-.06.08-.1Z"/>
            <path class="cls-43" d="M34.48,157.57l-6.87-9.08a2,2,0,0,0-1.72-.46c-.64.09-.95.44-.75.78a1,1,0,0,1,.75-.39,2,2,0,0,1,1.72.46L34.48,158a1,1,0,0,1,.17.36A.83.83,0,0,0,34.48,157.57Z"/>
            <path class="cls-43" d="M38,156.19a.59.59,0,0,1-.3.12,1,1,0,0,1-.85-.23l-6.41-8.47c-.94-1.25-3.62-2-6-1.61-1.91.3-3,1.22-2.84,2.23.15-.85,1.19-1.58,2.84-1.84,2.35-.36,5,.36,6,1.61l6.41,8.47a1,1,0,0,0,.85.23c.34,0,.5-.24.37-.41Z"/>
            <path class="cls-43" d="M23.94,149.44,29.67,157a2.16,2.16,0,0,0,1.89.51c.7-.1,1-.47.84-.84a1.11,1.11,0,0,1-.84.45,2.16,2.16,0,0,1-1.89-.51l-5.73-7.57a1.05,1.05,0,0,1-.15-.3A.79.79,0,0,0,23.94,149.44Z"/>
            <path class="cls-43" d="M33.34,160.07c-2.16.34-4.63-.32-5.49-1.47l-7.18-9.49a2,2,0,0,1-.39-1,1.79,1.79,0,0,0,.39,1.35L27.85,159c.86,1.15,3.33,1.81,5.49,1.48,1.78-.28,2.78-1.14,2.62-2.07C35.82,159.17,34.86,159.84,33.34,160.07Z"/>
          </g>
        </g>
      </g>
    </g>
  </g>
</svg>
