<svg xmlns="http://www.w3.org/2000/svg" width="85" height="85" viewBox="0 0 85 85">
  <g id="Grupo_54361" data-name="Grupo 54361" transform="translate(-285 -6734)">
    <path id="Trazado_100395" data-name="Trazado 100395" d="M168.793,8.793,160,0V8.793Zm0,0" transform="translate(154.31 6734)" fill="#7f9aa5"/>
    <path id="Trazado_100396" data-name="Trazado 100396" d="M42.379,0H16V19.052h7.328l2.931,4.4H51.172V8.793H42.379Zm0,0" transform="translate(271.931 6734)" fill="#c7dde6"/>
    <path id="Trazado_100397" data-name="Trazado 100397" d="M282.379,224.793V216H256v19.052h7.328l2.931,4.4h24.914V224.793Zm0,0" transform="translate(75.896 6557.569)" fill="#c2dfeb"/>
    <path id="Trazado_100398" data-name="Trazado 100398" d="M408.793,224.793,400,216v8.793Zm0,0" transform="translate(-41.724 6557.569)" fill="#628594"/>
    <path id="Trazado_100399" data-name="Trazado 100399" d="M41.034,108.4H13.19L10.259,104H0v26.379H41.034Zm0,0" transform="translate(285 6649.052)" fill="#ffcd00"/>
    <path id="Trazado_100400" data-name="Trazado 100400" d="M253.19,324.4l-2.931-4.4H240v26.379h41.034V324.4Zm0,0" transform="translate(88.966 6472.621)" fill="#ffcd00"/>
    <g id="Grupo_54360" data-name="Grupo 54360" transform="translate(292.328 6741.328)">
      <path id="Trazado_100401" data-name="Trazado 100401" d="M40,40H54.655v2.931H40Zm0,0" transform="translate(-40 -40)" fill="#95a9b2"/>
      <path id="Trazado_100402" data-name="Trazado 100402" d="M56,64H73.586v2.931H56Zm0,0" transform="translate(-53.069 -59.603)" fill="#95a9b2"/>
      <path id="Trazado_100403" data-name="Trazado 100403" d="M96,88h14.655v2.931H96Zm0,0" transform="translate(-85.741 -79.207)" fill="#95a9b2"/>
      <path id="Trazado_100404" data-name="Trazado 100404" d="M280,256h14.655v2.931H280Zm0,0" transform="translate(-236.034 -216.431)" fill="#7f9aa5"/>
      <path id="Trazado_100405" data-name="Trazado 100405" d="M296,280h17.586v2.931H296Zm0,0" transform="translate(-249.103 -236.034)" fill="#7f9aa5"/>
      <path id="Trazado_100406" data-name="Trazado 100406" d="M336,304h14.655v2.931H336Zm0,0" transform="translate(-281.776 -255.638)" fill="#7f9aa5"/>
    </g>
    <path id="Trazado_100407" data-name="Trazado 100407" d="M265.586,53.376l-3.715-3.715L259.8,51.733l7.253,7.253,7.253-7.253-2.072-2.072-3.715,3.715V32H248v2.931h17.586Zm0,0" transform="translate(82.431 6707.862)" fill="#66f5dd"/>
    <path id="Trazado_100408" data-name="Trazado 100408" d="M65.125,290.3l3.715,3.715,2.072-2.072-7.253-7.253-7.253,7.253,2.072,2.072,3.715-3.715v21.376H82.711v-2.931H65.125Zm0,0" transform="translate(238.927 6501.464)" fill="#66f5dd"/>
    <path id="Trazado_100409" data-name="Trazado 100409" d="M240,376v16.121h20.517C249.177,392.121,240,384.91,240,376Zm0,0" transform="translate(88.966 6426.879)" fill="#ebbf00"/>
    <path id="Trazado_100410" data-name="Trazado 100410" d="M0,160v16.121H20.517C9.177,176.121,0,168.91,0,160Zm0,0" transform="translate(285 6603.311)" fill="#ebbf00"/>
  </g>
</svg>
