<svg id="computer" xmlns="http://www.w3.org/2000/svg" width="85" height="85" viewBox="0 0 85 85">
  <path id="Trazado_100359" data-name="Trazado 100359" d="M80.02,386.9H4.98A4.98,4.98,0,0,1,0,381.922V366.98A4.98,4.98,0,0,1,4.98,362H80.02A4.98,4.98,0,0,1,85,366.98v14.941A4.98,4.98,0,0,1,80.02,386.9Z" transform="translate(0 -301.902)" fill="#5c5f66"/>
  <path id="Trazado_100360" data-name="Trazado 100360" d="M293.52,362H256v24.9h37.52a4.98,4.98,0,0,0,4.98-4.98V366.98A4.98,4.98,0,0,0,293.52,362Z" transform="translate(-213.5 -301.902)" fill="#53565c"/>
  <path id="Trazado_100361" data-name="Trazado 100361" d="M223.451,256.941H213.49a2.489,2.489,0,0,1-2.49-2.49V244.49a2.489,2.489,0,0,1,2.49-2.49h9.961a2.489,2.489,0,0,1,2.49,2.49v9.961A2.489,2.489,0,0,1,223.451,256.941Z" transform="translate(-175.971 -201.824)" fill="#a1a7b3"/>
  <path id="Trazado_100362" data-name="Trazado 100362" d="M260.98,242H256v14.941h4.98a2.489,2.489,0,0,0,2.49-2.49V244.49A2.489,2.489,0,0,0,260.98,242Z" transform="translate(-213.5 -201.824)" fill="#979ca7"/>
  <path id="Trazado_100363" data-name="Trazado 100363" d="M64.98,197,60,199.49v2.49a7.479,7.479,0,0,0,7.471,7.471h50.137a7.479,7.479,0,0,0,7.471-7.471v-2.49L120.1,197Z" transform="translate(-50.039 -164.295)" fill="#5c5f66"/>
  <path id="Trazado_100364" data-name="Trazado 100364" d="M256,197v12.451h25.068a7.479,7.479,0,0,0,7.471-7.471v-2.49l-4.98-2.49Z" transform="translate(-213.5 -164.295)" fill="#53565c"/>
  <path id="Trazado_100365" data-name="Trazado 100365" d="M182.705,306.98H152.49a2.49,2.49,0,0,1,0-4.98h30.215a2.49,2.49,0,1,1,0,4.98Z" transform="translate(-125.098 -251.863)" fill="#5c5f66"/>
  <path id="Trazado_100366" data-name="Trazado 100366" d="M52.471,426.98H47.49a2.49,2.49,0,0,1,0-4.98h4.98a2.49,2.49,0,0,1,0,4.98Z" transform="translate(-37.529 -351.941)" fill="#40ffdf"/>
  <g id="Grupo_54346" data-name="Grupo 54346" transform="translate(22.412 70.059)">
    <path id="Trazado_100367" data-name="Trazado 100367" d="M142.637,426.98H137.49a2.49,2.49,0,0,1,0-4.98h5.146a2.49,2.49,0,1,1,0,4.98Z" transform="translate(-135 -422)" fill="#e6eeff"/>
    <path id="Trazado_100368" data-name="Trazado 100368" d="M233.471,426.98h-4.98a2.49,2.49,0,0,1,0-4.98h4.98a2.49,2.49,0,0,1,0,4.98Z" transform="translate(-210.893 -422)" fill="#e6eeff"/>
  </g>
  <g id="Grupo_54347" data-name="Grupo 54347" transform="translate(42.5 70.059)">
    <path id="Trazado_100369" data-name="Trazado 100369" d="M323.637,426.98H318.49a2.49,2.49,0,0,1,0-4.98h5.146a2.49,2.49,0,0,1,0,4.98Z" transform="translate(-306.039 -422)" fill="#dae2f2"/>
    <path id="Trazado_100370" data-name="Trazado 100370" d="M414.471,426.98h-4.98a2.49,2.49,0,0,1,0-4.98h4.98a2.49,2.49,0,0,1,0,4.98Z" transform="translate(-381.932 -422)" fill="#dae2f2"/>
    <path id="Trazado_100371" data-name="Trazado 100371" d="M258.49,422H256v4.98h2.49a2.49,2.49,0,0,0,0-4.98Z" transform="translate(-256 -422)" fill="#dae2f2"/>
  </g>
  <path id="Trazado_100372" data-name="Trazado 100372" d="M271.107,302H256v4.98h15.107a2.49,2.49,0,0,0,0-4.98Z" transform="translate(-213.5 -251.863)" fill="#53565c"/>
  <path id="Trazado_100373" data-name="Trazado 100373" d="M117.607,0H67.471A7.479,7.479,0,0,0,60,7.471V35.2h65.078V7.471A7.479,7.479,0,0,0,117.607,0Z" transform="translate(-50.039)" fill="#7f838c"/>
  <path id="Trazado_100374" data-name="Trazado 100374" d="M281.068,0H256V35.2h32.539V7.471A7.479,7.479,0,0,0,281.068,0Z" transform="translate(-213.5)" fill="#757982"/>
  <path id="Trazado_100375" data-name="Trazado 100375" d="M145.117,60.215H90V32.49A2.49,2.49,0,0,1,92.49,30h50.137a2.49,2.49,0,0,1,2.49,2.49Z" transform="translate(-75.059 -25.02)" fill="#40ffdf"/>
  <path id="Trazado_100376" data-name="Trazado 100376" d="M281.068,30H256V60.215h27.559V32.49A2.49,2.49,0,0,0,281.068,30Z" transform="translate(-213.5 -25.02)" fill="#30f2d2"/>
</svg>
