<svg xmlns="http://www.w3.org/2000/svg" width="190" height="179.854" viewBox="0 0 190 179.854">
  <g id="Grupo_21054" data-name="Grupo 21054" transform="translate(-1510 -1085.248)">
    <path id="Trazado_3247" data-name="Trazado 3247" d="M1649.741,1236.318v5.875l-.031-.023a1.846,1.846,0,0,1-.908,1.305l-19.741,11.4a1.862,1.862,0,0,1-.947.251,1.887,1.887,0,0,1-.93-.251l-19.763-11.442a1.855,1.855,0,0,1-.933-1.626v-5.486l4.144,2.016,16.521-9.514a1.878,1.878,0,0,1,1.875,0l12.764,7.36,3.312,1.908Z" transform="translate(-68.207 -101.315)" fill="#bbe0fd"/>
    <path id="Trazado_3248" data-name="Trazado 3248" d="M1701.9,1254.677v5.875l-.031-.023a1.845,1.845,0,0,1-.908,1.305l-19.741,11.4a1.864,1.864,0,0,1-.947.251v-7.073l13.677-11.867,3.312,1.908Z" transform="translate(-120.367 -119.674)" fill="#d6edff"/>
    <path id="Trazado_3249" data-name="Trazado 3249" d="M1627.145,1209.958l-19.726,11.357a1.878,1.878,0,0,0,0,3.252l19.761,11.441a1.877,1.877,0,0,0,1.88,0l19.74-11.4a1.877,1.877,0,0,0,0-3.252l-19.775-11.4A1.878,1.878,0,0,0,1627.145,1209.958Z" transform="translate(-68.2 -87.981)" fill="#fff"/>
    <path id="Trazado_3250" data-name="Trazado 3250" d="M1627.145,1209.355l-19.726,11.357a1.877,1.877,0,0,0,0,3.252l19.761,11.441a1.878,1.878,0,0,0,1.88,0l19.74-11.4a1.878,1.878,0,0,0,0-3.253l-19.775-11.4A1.877,1.877,0,0,0,1627.145,1209.355Z" transform="translate(-68.2 -87.555)" fill="#fff"/>
    <g id="Grupo_21010" data-name="Grupo 21010" transform="translate(1547.081 1117.477)">
      <ellipse id="Elipse_1235" data-name="Elipse 1235" cx="12.643" cy="7.362" rx="12.643" ry="7.362" transform="translate(0.015 9.924)" fill="#15325c" opacity="0.33" style="mix-blend-mode: multiply;isolation: isolate"/>
      <path id="Trazado_3251" data-name="Trazado 3251" d="M1661.844,1211.733c0,4.066-5.661,7.363-12.643,7.363a20.605,20.605,0,0,1-5-.6q-.443-.111-.867-.24-.444-.136-.867-.291a13.49,13.49,0,0,1-2.6-1.267c-2.056-1.309-3.309-3.052-3.309-4.965v0h0v-3.3h1.345a8.9,8.9,0,0,1,1.966-1.66,13.469,13.469,0,0,1,2.6-1.267q.422-.155.867-.291.425-.129.867-.241a20.626,20.626,0,0,1,5-.6c4.941,0,9.221,1.651,11.3,4.058h1.342v3.215C1661.843,1211.673,1661.844,1211.7,1661.844,1211.733Z" transform="translate(-1636.543 -1201.685)" fill="#f1249a"/>
      <ellipse id="Elipse_1236" data-name="Elipse 1236" cx="7.362" cy="12.643" rx="7.362" ry="12.643" transform="translate(0 14.725) rotate(-89.886)" fill="#ec69b9"/>
      <ellipse id="Elipse_1237" data-name="Elipse 1237" cx="10.695" cy="6.228" rx="10.695" ry="6.228" transform="translate(1.962 1.159)" fill="#f1249a"/>
      <g id="Grupo_21009" data-name="Grupo 21009" transform="translate(6.873 4.169)">
        <path id="Trazado_3252" data-name="Trazado 3252" d="M1660.987,1215.866l-1.024-6.142,1.748-.292.748,4.488,11.125-1.236.2,1.761Z" transform="translate(-1659.963 -1209.432)" fill="#fff"/>
      </g>
    </g>
    <path id="Trazado_3253" data-name="Trazado 3253" d="M1553.263,1298v5.875l-.031-.022a1.845,1.845,0,0,1-.908,1.305l-19.741,11.4a1.856,1.856,0,0,1-.947.251,1.884,1.884,0,0,1-.93-.251l-19.763-11.442a1.856,1.856,0,0,1-.933-1.627V1298l4.144,2.015,16.521-9.514a1.878,1.878,0,0,1,1.875,0l12.764,7.36,3.312,1.908Z" transform="translate(-0.007 -144.919)" fill="#bbe0fd"/>
    <path id="Trazado_3254" data-name="Trazado 3254" d="M1605.422,1316.36v5.875l-.031-.022a1.845,1.845,0,0,1-.908,1.305l-19.741,11.4a1.857,1.857,0,0,1-.947.251v-7.072l13.677-11.868,3.312,1.908Z" transform="translate(-52.166 -163.278)" fill="#d6edff"/>
    <path id="Trazado_3255" data-name="Trazado 3255" d="M1530.667,1271.641,1510.941,1283a1.877,1.877,0,0,0,0,3.252l19.761,11.441a1.877,1.877,0,0,0,1.88,0l19.74-11.4a1.878,1.878,0,0,0,0-3.253l-19.775-11.4A1.877,1.877,0,0,0,1530.667,1271.641Z" transform="translate(0 -131.585)" fill="#fff"/>
    <path id="Trazado_3256" data-name="Trazado 3256" d="M1530.667,1271.038l-19.726,11.357a1.877,1.877,0,0,0,0,3.252l19.761,11.441a1.878,1.878,0,0,0,1.88,0l19.74-11.4a1.877,1.877,0,0,0,0-3.252l-19.775-11.4A1.877,1.877,0,0,0,1530.667,1271.038Z" transform="translate(0 -131.158)" fill="#fff"/>
    <g id="Grupo_21012" data-name="Grupo 21012" transform="translate(1518.816 1135.581)">
      <ellipse id="Elipse_1238" data-name="Elipse 1238" cx="12.643" cy="7.362" rx="12.643" ry="7.362" transform="translate(0.002 9.899)" fill="#15325c" opacity="0.33" style="mix-blend-mode: multiply;isolation: isolate"/>
      <path id="Trazado_3257" data-name="Trazado 3257" d="M1565.366,1273.416c0,4.066-5.661,7.362-12.644,7.362a20.621,20.621,0,0,1-5-.6q-.443-.111-.867-.24-.444-.136-.867-.291a13.5,13.5,0,0,1-2.6-1.267c-2.055-1.309-3.308-3.052-3.308-4.965v0h0v-3.3h1.345a8.91,8.91,0,0,1,1.966-1.661,13.51,13.51,0,0,1,2.6-1.267q.422-.155.867-.291.425-.13.867-.241a20.617,20.617,0,0,1,5-.6c4.942,0,9.222,1.651,11.3,4.058h1.342v3.215C1565.365,1273.356,1565.366,1273.386,1565.366,1273.416Z" transform="translate(-1540.077 -1263.393)" fill="#f1249a"/>
      <path id="Trazado_3258" data-name="Trazado 3258" d="M1565.371,1264.363c-.008,4.066-5.675,7.351-12.658,7.337s-12.637-3.321-12.628-7.387,5.675-7.351,12.658-7.338S1565.379,1260.3,1565.371,1264.363Z" transform="translate(-1540.083 -1256.976)" fill="#ec69b9"/>
      <ellipse id="Elipse_1239" data-name="Elipse 1239" cx="10.695" cy="6.228" rx="10.695" ry="6.228" transform="translate(1.95 1.134)" fill="#f1249a"/>
      <g id="Grupo_21011" data-name="Grupo 21011" transform="translate(6.861 4.144)">
        <path id="Trazado_3259" data-name="Trazado 3259" d="M1564.509,1277.549l-1.024-6.143,1.747-.291.748,4.487,11.125-1.236.2,1.761Z" transform="translate(-1563.485 -1271.115)" fill="#fff"/>
      </g>
    </g>
    <g id="Grupo_21016" data-name="Grupo 21016" transform="translate(1584.223 1085.248)">
      <path id="Trazado_3260" data-name="Trazado 3260" d="M1780.868,1095v19.385l-.548.438-16.538-10.186-.547-18.947.547-.438Z" transform="translate(-1763.235 -1085.248)" fill="#183561"/>
      <path id="Trazado_3261" data-name="Trazado 3261" d="M1763.235,1086.742v19.385l17.085,9.748V1096.49Z" transform="translate(-1763.235 -1086.304)" fill="#d6effb"/>
      <path id="Trazado_3262" data-name="Trazado 3262" d="M1763.235,1086.742v4.052l17.085,9.747v-4.052Z" transform="translate(-1763.235 -1086.304)" fill="#3c6a9e"/>
      <g id="Grupo_21015" data-name="Grupo 21015" transform="translate(1.185 8.105)">
        <path id="Trazado_3263" data-name="Trazado 3263" d="M1767.277,1112.9l.008,1.348,9.283,5.378-.057-1.385Z" transform="translate(-1767.277 -1112.899)" fill="#fec400"/>
        <path id="Trazado_3264" data-name="Trazado 3264" d="M1783.127,1151.232l.008,1.348,9.283,5.378-.057-1.385Z" transform="translate(-1778.481 -1139.997)" fill="#fec400"/>
        <g id="Grupo_21013" data-name="Grupo 21013" transform="translate(10.358 6.008)">
          <path id="Trazado_3265" data-name="Trazado 3265" d="M1802.617,1133.4v1.307l3.49,2.023v-1.306Z" transform="translate(-1802.617 -1133.398)" fill="#77b8e0"/>
        </g>
        <g id="Grupo_21014" data-name="Grupo 21014" transform="translate(1.501 6.688)">
          <path id="Trazado_3266" data-name="Trazado 3266" d="M1772.4,1135.717v1.307l3.489,2.023v-1.306Z" transform="translate(-1772.397 -1135.717)" fill="#77b8e0"/>
        </g>
        <path id="Trazado_3267" data-name="Trazado 3267" d="M1768.544,1143.686v1.307l3.489,2.023v-1.306Z" transform="translate(-1768.172 -1134.662)" fill="#fff"/>
        <path id="Trazado_3268" data-name="Trazado 3268" d="M1786.814,1133.4l8.1,4.678v1.353l-8.117-4.724Z" transform="translate(-1781.077 -1127.39)" fill="#fff"/>
        <path id="Trazado_3269" data-name="Trazado 3269" d="M1786.814,1143.105l8.1,4.678v1.353l-8.117-4.724Z" transform="translate(-1781.077 -1134.252)" fill="#fff"/>
      </g>
    </g>
    <g id="Grupo_21017" data-name="Grupo 21017" transform="translate(1530.18 1133.219)">
      <path id="Trazado_3270" data-name="Trazado 3270" d="M1580.877,1400.722l2,1.154,90.391,52.133a4.048,4.048,0,0,0,2.193.538,4.008,4.008,0,0,0,1.864-.538l66.137-38.244,1.034-.6,2.007-1.159a4.019,4.019,0,0,0,2.026-3.509c0-.046,0-.1,0-.144a3.993,3.993,0,0,0-2.026-3.366l-8.057-4.64-84.291-48.563a4.069,4.069,0,0,0-4.047,0l-69.229,39.913A4.055,4.055,0,0,0,1580.877,1400.722Z" transform="translate(-1578.85 -1322.668)" fill="#15325c" opacity="0.22" style="mix-blend-mode: multiply;isolation: isolate"/>
      <path id="Trazado_3271" data-name="Trazado 3271" d="M1578.885,1324.96a4.344,4.344,0,0,1,0-.495v-8.733l5.176,3.643,66.065-38.089a4.046,4.046,0,0,1,4.047,0l77.647,44.734,10.848,6.249,1.849,1.066,2,1.154a4.053,4.053,0,0,1,0,7.019l-69.178,40a4.073,4.073,0,0,1-4.056,0l-92.394-53.287a4,4,0,0,1-2.005-3.163l-.006,0Z" transform="translate(-1578.87 -1271.416)" fill="#d6edff"/>
      <path id="Trazado_3272" data-name="Trazado 3272" d="M1908.446,1468.647v9.327a4.056,4.056,0,0,0,1.873-.538l69.178-40a4.013,4.013,0,0,0,2.021-3.417l.144.116-.139-9.54v-.148l0,0a3.994,3.994,0,0,0-2.026-3.365l-8.057-4.641-6.643,5.5-56.337,46.7Z" transform="translate(-1811.842 -1367.343)" fill="#bbe0fd"/>
      <path id="Trazado_3273" data-name="Trazado 3273" d="M1717.672,1469.442l.024,15.529-7.807-4.559.076-14.049Z" transform="translate(-1671.482 -1402.63)" fill="#fff"/>
      <path id="Trazado_3274" data-name="Trazado 3274" d="M1746.817,1491.083v13.052l2.2,1.269v-12.263Z" transform="translate(-1697.586 -1420.105)" fill="#fff"/>
      <path id="Trazado_3275" data-name="Trazado 3275" d="M1580.877,1296.393l2,1.154,90.391,52.133a4.072,4.072,0,0,0,4.056,0l66.137-38.244,1.034-.6,2.007-1.159a4.019,4.019,0,0,0,2.026-3.509c0-.046,0-.1,0-.144a3.993,3.993,0,0,0-2.026-3.365l-8.057-4.641-84.291-48.563a4.069,4.069,0,0,0-4.047,0l-69.229,39.913A4.055,4.055,0,0,0,1580.877,1296.393Z" transform="translate(-1578.85 -1248.918)" fill="#fff"/>
    </g>
    <g id="Grupo_21020" data-name="Grupo 21020" transform="translate(1580.615 1116.42)">
      <g id="Grupo_21018" data-name="Grupo 21018" transform="translate(2.328 30.115)" opacity="0.4" style="mix-blend-mode: multiply;isolation: isolate">
        <ellipse id="Elipse_1240" data-name="Elipse 1240" cx="6.561" cy="3.821" rx="6.561" ry="3.821" fill="#7d88c4"/>
      </g>
      <path id="Trazado_3276" data-name="Trazado 3276" d="M1772.158,1263.6v8.164c0,.076,0,.155,0,.232a6.443,6.443,0,0,1-3.243,5.361,6.441,6.441,0,0,1-9.64-5.593V1263.6Z" transform="translate(-1756.825 -1242.496)" fill="#77b8e0"/>
      <path id="Trazado_3277" data-name="Trazado 3277" d="M1772.154,1274.827a6.443,6.443,0,0,1-3.243,5.362,6.441,6.441,0,0,1-9.64-5.593v-6.989C1762.472,1274.469,1767.563,1275.613,1772.154,1274.827Z" transform="translate(-1756.825 -1245.33)" fill="#262e54" opacity="0.3" style="mix-blend-mode: multiply;isolation: isolate"/>
      <ellipse id="Elipse_1241" data-name="Elipse 1241" cx="6.561" cy="3.821" rx="6.561" ry="3.821" transform="translate(2.328 17.23)" fill="#bbe0fd"/>
      <ellipse id="Elipse_1242" data-name="Elipse 1242" cx="4.8" cy="2.795" rx="4.8" ry="2.795" transform="translate(4.089 18.255)" fill="#15325c"/>
      <path id="Trazado_3278" data-name="Trazado 3278" d="M1769.678,1255.634c2.126,0,3.929.806,4.559,1.922a1.764,1.764,0,0,0,.24-.873c0-1.544-2.149-2.8-4.8-2.8s-4.8,1.251-4.8,2.8a1.766,1.766,0,0,0,.24.873C1765.749,1256.44,1767.551,1255.634,1769.678,1255.634Z" transform="translate(-1760.789 -1235.631)" fill="#262e54" opacity="0.3" style="mix-blend-mode: multiply;isolation: isolate"/>
      <g id="Grupo_21019" data-name="Grupo 21019" transform="translate(0)">
        <path id="Trazado_3279" data-name="Trazado 3279" d="M1791.06,1227.633a20.764,20.764,0,0,1-1.885,6.266c-1.525,3.107-3.833,5.535-6.688,5.78l-.1.006-.383.017a32.546,32.546,0,0,1,1.463-2.987,35.8,35.8,0,0,1,2.97-4.6c.069-.08.131-.16.194-.246A19.96,19.96,0,0,1,1791.06,1227.633Z" transform="translate(-1772.897 -1217.072)" fill="#77b8e0"/>
        <path id="Trazado_3280" data-name="Trazado 3280" d="M1787.52,1196.748s-6.411,9.805-5.657,21.119l.48-.022C1788.857,1211.79,1787.52,1196.748,1787.52,1196.748Z" transform="translate(-1772.752 -1195.24)" fill="#5b95d3"/>
        <path id="Trazado_3281" data-name="Trazado 3281" d="M1759.973,1239.7l-.479-.023c-4.644-.4-7.837-6.58-8.568-12.046a19.761,19.761,0,0,1,4.427,4.244A36.617,36.617,0,0,1,1759.973,1239.7Z" transform="translate(-1750.926 -1217.072)" fill="#77b8e0"/>
        <path id="Trazado_3282" data-name="Trazado 3282" d="M1767.917,1217.222c-.005.143-.011.286-.023.434,0,.069-.005.143-.011.211l-.479-.023a16.005,16.005,0,0,1-4.141-7.8,44.9,44.9,0,0,1-1.034-13.3,39.725,39.725,0,0,1,3.947,8.67v.006a35.36,35.36,0,0,1,1.742,9.2C1767.952,1215.469,1767.958,1216.336,1767.917,1217.222Z" transform="translate(-1758.836 -1195.238)" fill="#5b95d3"/>
        <path id="Trazado_3283" data-name="Trazado 3283" d="M1780.1,1204.55a24.63,24.63,0,0,1-.914,6.694,21.391,21.391,0,0,1-1.08,2.97c0,.006-.006.011-.006.017h-.377c-.017-.069-.034-.143-.051-.212a53.009,53.009,0,0,1-1.719-12.234v-.006a36.869,36.869,0,0,1,.246-5.083,20.426,20.426,0,0,1,1.148-5.095,32.284,32.284,0,0,1,2.5,8.973A29.507,29.507,0,0,1,1780.1,1204.55Z" transform="translate(-1768.612 -1191.602)" fill="#77b8e0"/>
        <path id="Trazado_3284" data-name="Trazado 3284" d="M1767.2,1212.064a13.916,13.916,0,0,1-2.45,3.581,6.792,6.792,0,0,1-4.238,2.2l-.1.006c0,.006-.006.011-.006.017h-.377c-.017-.069-.034-.143-.051-.211,0,.069-.006.143-.011.211l-.479-.023c-4.644-.4-7.837-6.58-8.568-12.046a19.769,19.769,0,0,1,4.427,4.243c-.046-.183-.091-.365-.131-.548l-.006-.006a45.409,45.409,0,0,1-.9-12.742,39.725,39.725,0,0,1,3.947,8.67,36.835,36.835,0,0,1,.246-5.083,22.531,22.531,0,0,0,2.833,6.4,15.01,15.01,0,0,0,1.068,1.456,15.222,15.222,0,0,0,2.056,2.091l.108.091A13.547,13.547,0,0,0,1767.2,1212.064Z" transform="translate(-1750.926 -1195.238)" fill="#77b8e0" opacity="0.33" style="mix-blend-mode: multiply;isolation: isolate"/>
        <path id="Trazado_3285" data-name="Trazado 3285" d="M1764.754,1237.48a6.793,6.793,0,0,1-4.238,2.2l-.1.006c0,.006-.006.011-.006.017h-.377c-.017-.068-.034-.143-.051-.212,0,.069-.006.143-.011.212l-.479-.023c-4.644-.4-7.837-6.58-8.568-12.046a19.761,19.761,0,0,1,4.427,4.244c-.046-.183-.091-.365-.131-.548A15.1,15.1,0,0,0,1764.754,1237.48Z" transform="translate(-1750.926 -1217.072)" fill="#77b8e0" opacity="0.33" style="mix-blend-mode: multiply;isolation: isolate"/>
      </g>
    </g>
    <g id="Grupo_21023" data-name="Grupo 21023" transform="translate(1552.177 1164.323)">
      <g id="Grupo_21021" data-name="Grupo 21021" transform="translate(0 1.391)">
        <path id="Trazado_3286" data-name="Trazado 3286" d="M1725.22,1418.035a10.941,10.941,0,0,1-5.5-1.482l-61.91-35.942a7.85,7.85,0,0,1-.065-13.542l10.436-6.191a7.88,7.88,0,0,1,7.789-.126l4.438,2.441-2.235,4.062-4.438-2.441a3.23,3.23,0,0,0-3.189.052l-10.435,6.191a3.142,3.142,0,0,0-1.55,2.364,3.188,3.188,0,0,0,1.577,3.181l61.91,35.942a6.329,6.329,0,0,0,6.434-.047l37.345-22.406,2.385,3.975-37.345,22.407a11,11,0,0,1-5.144,1.551Q1725.47,1418.035,1725.22,1418.035Z" transform="translate(-1653.899 -1359.785)" fill="#5b95d3"/>
      </g>
      <g id="Grupo_21022" data-name="Grupo 21022" transform="translate(0)">
        <path id="Trazado_3287" data-name="Trazado 3287" d="M1725.22,1413.291a10.939,10.939,0,0,1-5.5-1.482l-61.91-35.943a7.849,7.849,0,0,1-.065-13.541l10.436-6.191a7.881,7.881,0,0,1,7.789-.126l4.438,2.441-2.235,4.062-4.438-2.441a3.229,3.229,0,0,0-3.189.052l-10.435,6.19a3.142,3.142,0,0,0-1.55,2.365,3.188,3.188,0,0,0,1.577,3.181l61.91,35.943a6.331,6.331,0,0,0,6.434-.047l37.345-22.406,2.385,3.975-37.345,22.407a11,11,0,0,1-5.144,1.552C1725.553,1413.286,1725.387,1413.291,1725.22,1413.291Z" transform="translate(-1653.899 -1355.04)" fill="#77b8e0"/>
      </g>
      <path id="Trazado_3288" data-name="Trazado 3288" d="M1728.738,1367.092v0l-6.851,3.827-5.829-3.384v-2.024l5.041-2.856,5.878,3.412Z" transform="translate(-1697.839 -1360.424)" fill="#052754"/>
      <path id="Trazado_3289" data-name="Trazado 3289" d="M1722.869,1359.252l5.871,3.408-.931.526-5.878,3.327-5.871-3.408,5.041-2.854Z" transform="translate(-1697.841 -1358.017)" fill="#23477c"/>
    </g>
    <g id="Grupo_21049" data-name="Grupo 21049" transform="translate(1565.165 1102.049)">
      <path id="Trazado_3290" data-name="Trazado 3290" d="M1789.7,1350.663l-39.754,24.365a3.436,3.436,0,0,1-3.521.042l-47.327-27.464a1.774,1.774,0,0,1-.035-3.05l39.5-24.15Z" transform="translate(-1698.211 -1268.284)" fill="#15325c" opacity="0.33" style="mix-blend-mode: multiply;isolation: isolate"/>
      <circle id="Elipse_1243" data-name="Elipse 1243" cx="2.375" cy="2.375" r="2.375" transform="matrix(0.924, -0.383, 0.383, 0.924, 37.31, 45.86)" fill="#d6effb"/>
      <path id="Trazado_3291" data-name="Trazado 3291" d="M1838.258,1143.645l1.885,45.568,47.507,30.88,1.885-1.015a2.941,2.941,0,0,0,1.547-2.589v-43.918a2.277,2.277,0,0,0-1.126-1.964l-47.145-27.6a3.154,3.154,0,0,0-3.126-.035Z" transform="translate(-1797.21 -1142.571)" fill="#a9d1ea"/>
      <path id="Trazado_3292" data-name="Trazado 3292" d="M1836.555,1147.694v45.866l50.938,29.032v-45.68a2.266,2.266,0,0,0-1.121-1.956l-48.172-28.2a1.092,1.092,0,0,0-1.645.943Z" transform="translate(-1796.007 -1145.419)" fill="#d6effb"/>
      <path id="Trazado_3293" data-name="Trazado 3293" d="M1840.156,1163.587v38.3l6.029,3.436,1.811,1.033,12.378,7.055,6.857,3.907,10.766,6.137,10.458,5.961v-37.546l-10.237-5.993-5.541-3.245-8.743-5.119-10.519-6.16-6.551-3.835-4.782-2.8Z" transform="translate(-1798.552 -1157.427)" fill="#183561"/>
      <path id="Trazado_3294" data-name="Trazado 3294" d="M1791.4,1349.234l-37.767,21.685a3.194,3.194,0,0,1-3.194-.007l-46.515-26.993a2.251,2.251,0,0,1-1.12-2.014l.065-2.149,39.663-21.232,50.411,25.6v2.443a3.074,3.074,0,0,1-1.543,2.666Z" transform="translate(-1701.461 -1266.952)" fill="#a9d1ea"/>
      <path id="Trazado_3295" data-name="Trazado 3295" d="M1792.852,1333.941l-39.186,24.017a3.388,3.388,0,0,1-3.471.042l-46.65-27.072a1.75,1.75,0,0,1-.035-3.006l38.931-23.8Z" transform="translate(-1701.366 -1256.768)" fill="#d6effb"/>
      <path id="Trazado_3296" data-name="Trazado 3296" d="M1808.134,1340.176l-46.055-27.247-30.818,18.844,46.055,27.247Z" transform="translate(-1721.574 -1262.997)" fill="#77b8e0"/>
      <circle id="Elipse_1244" data-name="Elipse 1244" cx="2.375" cy="2.375" r="2.375" transform="translate(88.436 78.827) rotate(-80.783)" fill="#a9d1ea"/>
      <g id="Grupo_21024" data-name="Grupo 21024" transform="translate(13.894 52.383)" opacity="0.71">
        <path id="Trazado_3297" data-name="Trazado 3297" d="M1885.16,1379.32l-6.254-3.7-4.7,2.78,6.254,3.7Z" transform="translate(-1836.517 -1359.697)" fill="#d6edff"/>
        <path id="Trazado_3298" data-name="Trazado 3298" d="M1849.829,1363.977l6.254,3.7,4.7-2.78-6.254-3.7Z" transform="translate(-1819.284 -1349.501)" fill="#d6edff"/>
        <path id="Trazado_3299" data-name="Trazado 3299" d="M1899.532,1371.11l4.494-2.659-6.254-3.7-4.494,2.659Z" transform="translate(-1849.998 -1352.014)" fill="#d6edff"/>
        <path id="Trazado_3300" data-name="Trazado 3300" d="M1923.91,1385.533l4.494-2.659-6.255-3.7-4.494,2.659Z" transform="translate(-1867.231 -1362.209)" fill="#d6edff"/>
        <path id="Trazado_3301" data-name="Trazado 3301" d="M1787.31,1372.12l6.254,3.7,4.7-2.78-6.254-3.7Z" transform="translate(-1775.089 -1355.258)" fill="#d6edff"/>
        <path id="Trazado_3302" data-name="Trazado 3302" d="M1830.759,1375.26l6.254,3.7,4.7-2.78-6.254-3.7Z" transform="translate(-1805.803 -1357.478)" fill="#d6edff"/>
        <path id="Trazado_3303" data-name="Trazado 3303" d="M1806.38,1360.837l6.255,3.7,4.7-2.78-6.255-3.7Z" transform="translate(-1788.57 -1347.282)" fill="#d6edff"/>
        <path id="Trazado_3304" data-name="Trazado 3304" d="M1948.361,1400l4.415-2.705-6.249-3.7-4.494,2.659Z" transform="translate(-1884.463 -1372.405)" fill="#d6edff"/>
        <path id="Trazado_3305" data-name="Trazado 3305" d="M1774.5,1358.873l-6.076-3.594-4.621,2.826,6,3.549Z" transform="translate(-1758.474 -1345.318)" fill="#d6edff"/>
        <path id="Trazado_3306" data-name="Trazado 3306" d="M1750.071,1366.748l-4.456,2.725,5.908,3.5,4.531-2.681Z" transform="translate(-1745.614 -1353.425)" fill="#d6edff"/>
        <path id="Trazado_3307" data-name="Trazado 3307" d="M1793.352,1347.459l-6.168-3.649-4.621,2.826,6.09,3.6Z" transform="translate(-1771.733 -1337.21)" fill="#d6edff"/>
        <path id="Trazado_3308" data-name="Trazado 3308" d="M1822.641,1387.463l-6.254-3.7-4.7,2.78,6.254,3.7Z" transform="translate(-1792.322 -1365.453)" fill="#d6edff"/>
        <path id="Trazado_3309" data-name="Trazado 3309" d="M1875.154,1356.688l4.494-2.658-6.255-3.7-4.494,2.658Z" transform="translate(-1832.765 -1341.819)" fill="#d6edff"/>
        <path id="Trazado_3310" data-name="Trazado 3310" d="M1850.776,1342.265l4.494-2.658-6.255-3.7-4.494,2.659Z" transform="translate(-1815.532 -1331.623)" fill="#d6edff"/>
        <path id="Trazado_3311" data-name="Trazado 3311" d="M1812.2,1336.045l-6.26-3.7-4.621,2.826,6.182,3.658Z" transform="translate(-1784.992 -1329.103)" fill="#d6edff"/>
        <path id="Trazado_3312" data-name="Trazado 3312" d="M1908.591,1415.748l-4.7,2.78,6.525,3.861,4.616-2.829Z" transform="translate(-1857.501 -1388.063)" fill="#d6edff"/>
        <path id="Trazado_3313" data-name="Trazado 3313" d="M1896.062,1430.9l-6.541-3.87-4.7,2.78,6.624,3.919Z" transform="translate(-1844.021 -1396.039)" fill="#d6edff"/>
        <path id="Trazado_3314" data-name="Trazado 3314" d="M1871.4,1416.308l-6.254-3.7-4.7,2.78,6.255,3.7Z" transform="translate(-1826.787 -1385.844)" fill="#d6edff"/>
        <path id="Trazado_3315" data-name="Trazado 3315" d="M1826.35,1327.708l4.494-2.659-6.349-3.756-4.42,2.7Z" transform="translate(-1798.251 -1321.294)" fill="#d6edff"/>
        <path id="Trazado_3316" data-name="Trazado 3316" d="M1870.855,1438.313l-4.531,2.681,6.72,3.976,4.451-2.728Z" transform="translate(-1830.944 -1404.015)" fill="#d6edff"/>
        <path id="Trazado_3317" data-name="Trazado 3317" d="M1852.731,1427.591l-6.255-3.7-4.531,2.68,6.254,3.7Z" transform="translate(-1813.711 -1393.819)" fill="#d6edff"/>
        <path id="Trazado_3318" data-name="Trazado 3318" d="M1927.662,1404.465l-4.7,2.78,6.427,3.8,4.615-2.829Z" transform="translate(-1870.982 -1380.088)" fill="#d6edff"/>
        <path id="Trazado_3319" data-name="Trazado 3319" d="M1866.09,1390.6l-6.255-3.7-4.7,2.78,6.255,3.7Z" transform="translate(-1823.035 -1367.673)" fill="#d6edff"/>
        <path id="Trazado_3320" data-name="Trazado 3320" d="M1909.538,1393.743l-6.254-3.7-4.7,2.78,6.254,3.7Z" transform="translate(-1853.75 -1369.892)" fill="#d6edff"/>
        <path id="Trazado_3321" data-name="Trazado 3321" d="M1890.468,1405.026l-6.254-3.7-4.7,2.78,6.254,3.7Z" transform="translate(-1840.268 -1377.868)" fill="#d6edff"/>
        <path id="Trazado_3322" data-name="Trazado 3322" d="M1846.308,1401.885l-6.254-3.7-4.7,2.78-.295-.174,6.549,3.875Z" transform="translate(-1808.844 -1375.648)" fill="#d6edff"/>
        <path id="Trazado_3323" data-name="Trazado 3323" d="M1825.451,1349.555l6.254,3.7,4.7-2.78-6.255-3.7Z" transform="translate(-1802.051 -1339.306)" fill="#d6edff"/>
        <path id="Trazado_3324" data-name="Trazado 3324" d="M1779.6,1384.323l-6.254-3.7-4.531,2.681,6.254,3.7Z" transform="translate(-1762.013 -1363.234)" fill="#d6edff"/>
        <path id="Trazado_3325" data-name="Trazado 3325" d="M1811.12,1402.973l-13.4-7.927-4.531,2.681,13.4,7.927Z" transform="translate(-1779.245 -1373.429)" fill="#d6edff"/>
      </g>
      <g id="Grupo_21034" data-name="Grupo 21034" transform="translate(44.123 16.586)">
        <path id="Trazado_3326" data-name="Trazado 3326" d="M1935.961,1233.652l-1.217-.713V1230.8l1.217.713,2.619,1.533,4.837,2.832v2.143l-4.837-2.832Z" transform="translate(-1909.539 -1221.523)" fill="#fec400"/>
        <g id="Grupo_21025" data-name="Grupo 21025" transform="translate(26.688 15.418)">
          <path id="Trazado_3327" data-name="Trazado 3327" d="M1939.806,1253.905v-2.143l2.352,1.377,4.837,2.832v2.144l-4.837-2.832Z" transform="translate(-1939.806 -1251.762)" fill="#fff"/>
        </g>
        <path id="Trazado_3328" data-name="Trazado 3328" d="M1932.615,1276.8l4.838,2.832v2.143l-4.838-2.832-2.619-1.533-3.69-2.161v-2.143l3.69,2.16Z" transform="translate(-1903.575 -1251.435)" fill="#fec400"/>
        <g id="Grupo_21026" data-name="Grupo 21026" transform="translate(19.269 15.36)">
          <path id="Trazado_3329" data-name="Trazado 3329" d="M1914.492,1251.566l3.021,1.769,4.132,2.419,2.41,1.411v2.143l-2.41-1.411-4.132-2.419-3.021-1.769Z" transform="translate(-1914.492 -1251.566)" fill="#fff"/>
        </g>
        <g id="Grupo_21027" data-name="Grupo 21027" transform="translate(29.491 21.346)">
          <path id="Trazado_3330" data-name="Trazado 3330" d="M1949.37,1271.988l4.386,2.568v2.143l-4.386-2.568Z" transform="translate(-1949.37 -1271.988)" fill="#fff"/>
        </g>
        <g id="Grupo_21028" data-name="Grupo 21028" transform="translate(14.916 8.525)">
          <path id="Trazado_3331" data-name="Trazado 3331" d="M1910.755,1236.895l-3.739-2.189-4.971-2.911-2.4-1.407v-2.143l2.4,1.407,4.971,2.911,3.739,2.189Z" transform="translate(-1899.642 -1228.245)" fill="#fff"/>
        </g>
        <g id="Grupo_21029" data-name="Grupo 21029">
          <path id="Trazado_3332" data-name="Trazado 3332" d="M1860.715,1205.956l2.216,1.3v2.143l-2.216-1.3-11.963-6.8v-2.143Z" transform="translate(-1848.751 -1199.159)" fill="#77b8e0"/>
        </g>
        <g id="Grupo_21030" data-name="Grupo 21030" transform="translate(7.916 8.784)">
          <path id="Trazado_3333" data-name="Trazado 3333" d="M1886.451,1235.319v2.143l-1.29-.755-3.1-1.812-2.26-1.323-4.048-2.3v-2.143l4.048,2.3,2.26,1.323,3.1,1.812Z" transform="translate(-1875.758 -1229.128)" fill="#fff"/>
        </g>
        <g id="Grupo_21031" data-name="Grupo 21031" transform="translate(0 4.287)">
          <path id="Trazado_3334" data-name="Trazado 3334" d="M1855.93,1220.007l-7.179-4.079v-2.143l7.179,4.078Z" transform="translate(-1848.751 -1213.785)" fill="#fff"/>
        </g>
        <g id="Grupo_21032" data-name="Grupo 21032" transform="translate(0 8.574)">
          <path id="Trazado_3335" data-name="Trazado 3335" d="M1858.877,1236.308l-10.126-5.753v-2.143l10.126,5.753Z" transform="translate(-1848.751 -1228.411)" fill="#fff"/>
        </g>
        <g id="Grupo_21033" data-name="Grupo 21033" transform="translate(10.863 14.746)">
          <path id="Trazado_3336" data-name="Trazado 3336" d="M1889.174,1251.416l3.1,1.812,4.753,2.783v2.143l-4.753-2.783-3.1-1.812-2.26-1.323-1.1-.625v-2.143l1.1.625Z" transform="translate(-1885.814 -1249.468)" fill="#fff"/>
        </g>
      </g>
      <g id="Grupo_21037" data-name="Grupo 21037" transform="translate(80.02 32.004)">
        <g id="Grupo_21035" data-name="Grupo 21035">
          <path id="Trazado_3337" data-name="Trazado 3337" d="M1971.225,1253.905v-2.143l2.352,1.377,4.837,2.832v2.144l-4.837-2.832Z" transform="translate(-1971.225 -1251.762)" fill="#fff"/>
        </g>
        <g id="Grupo_21036" data-name="Grupo 21036" transform="translate(2.803 5.928)">
          <path id="Trazado_3338" data-name="Trazado 3338" d="M1980.789,1271.988l4.386,2.568v2.143l-4.386-2.568Z" transform="translate(-1980.789 -1271.988)" fill="#fff"/>
        </g>
      </g>
      <g id="Grupo_21040" data-name="Grupo 21040" transform="translate(80.02 49.398)">
        <g id="Grupo_21038" data-name="Grupo 21038">
          <path id="Trazado_3339" data-name="Trazado 3339" d="M1971.225,1313.251v-2.143l2.352,1.377,4.837,2.832v2.144l-4.837-2.832Z" transform="translate(-1971.225 -1311.108)" fill="#fff"/>
        </g>
        <g id="Grupo_21039" data-name="Grupo 21039" transform="translate(2.803 5.928)">
          <path id="Trazado_3340" data-name="Trazado 3340" d="M1980.789,1331.334l4.386,2.568v2.143l-4.386-2.568Z" transform="translate(-1980.789 -1331.334)" fill="#fff"/>
        </g>
      </g>
      <g id="Grupo_21048" data-name="Grupo 21048" transform="translate(43.782 35.685)">
        <g id="Grupo_21041" data-name="Grupo 21041" transform="translate(25.204 9.273)">
          <path id="Trazado_3341" data-name="Trazado 3341" d="M1934.8,1298.816l-1.217-.713v-2.144l1.217.713,2.619,1.533,4.837,2.832v2.143l-4.837-2.832Z" transform="translate(-1933.58 -1295.96)" fill="#fff"/>
        </g>
        <g id="Grupo_21042" data-name="Grupo 21042" transform="translate(26.688 15.418)">
          <path id="Trazado_3342" data-name="Trazado 3342" d="M1938.643,1319.069v-2.143l2.352,1.377,4.837,2.832v2.143l-4.837-2.832Z" transform="translate(-1938.643 -1316.926)" fill="#fff"/>
        </g>
        <path id="Trazado_3343" data-name="Trazado 3343" d="M1913.328,1316.73l3.021,1.769,4.132,2.419,2.41,1.411v2.144l-2.41-1.411-4.132-2.419-3.021-1.769Z" transform="translate(-1894.06 -1301.37)" fill="#fec400"/>
        <g id="Grupo_21043" data-name="Grupo 21043" transform="translate(29.491 21.346)">
          <path id="Trazado_3344" data-name="Trazado 3344" d="M1948.207,1337.152l4.386,2.568v2.143l-4.386-2.568Z" transform="translate(-1948.207 -1337.152)" fill="#fff"/>
        </g>
        <g id="Grupo_21044" data-name="Grupo 21044" transform="translate(14.916 8.525)">
          <path id="Trazado_3345" data-name="Trazado 3345" d="M1909.591,1302.059l-3.739-2.189-4.971-2.911-2.4-1.407v-2.143l2.4,1.407,4.971,2.911,3.739,2.189Z" transform="translate(-1898.479 -1293.409)" fill="#fff"/>
        </g>
        <g id="Grupo_21045" data-name="Grupo 21045">
          <path id="Trazado_3346" data-name="Trazado 3346" d="M1859.551,1271.12l2.216,1.3v2.143l-2.216-1.3-11.964-6.8v-2.144Z" transform="translate(-1847.587 -1264.323)" fill="#77b8e0"/>
        </g>
        <g id="Grupo_21046" data-name="Grupo 21046" transform="translate(7.916 8.784)">
          <path id="Trazado_3347" data-name="Trazado 3347" d="M1885.288,1300.483v2.143l-1.29-.756-3.1-1.812-2.26-1.323-4.048-2.3v-2.143l4.048,2.3,2.26,1.323,3.1,1.812Z" transform="translate(-1874.594 -1294.293)" fill="#fff"/>
        </g>
        <g id="Grupo_21047" data-name="Grupo 21047" transform="translate(0 4.287)">
          <path id="Trazado_3348" data-name="Trazado 3348" d="M1854.766,1285.171l-7.179-4.078v-2.144l7.179,4.078Z" transform="translate(-1847.587 -1278.949)" fill="#fff"/>
        </g>
      </g>
    </g>
    <g id="Grupo_21052" data-name="Grupo 21052" transform="translate(1647.798 1146.088)">
      <path id="Trazado_3349" data-name="Trazado 3349" d="M1980.522,1305.091l20.532,11.733,20.266-11.733-20.532-12.266Z" transform="translate(-1980.41 -1292.824)" fill="#5b95d3"/>
      <path id="Trazado_3350" data-name="Trazado 3350" d="M1980.9,1432.964l18.63,11.272a1.573,1.573,0,0,0,1.611.011l19.2-11.283a1.573,1.573,0,0,0,.01-2.706l-19.029-11.368a1.572,1.572,0,0,0-1.621,0l-18.8,11.379A1.573,1.573,0,0,0,1980.9,1432.964Z" transform="translate(-1980.142 -1381.783)" fill="#15325c" opacity="0.33" style="mix-blend-mode: multiply;isolation: isolate"/>
      <path id="Trazado_3351" data-name="Trazado 3351" d="M2049.665,1345.764v36.265l20.533-12.266v-36Z" transform="translate(-2029.288 -1321.765)" fill="#23477c"/>
      <g id="Grupo_21050" data-name="Grupo 21050" transform="translate(22.777 16.182)">
        <path id="Trazado_3352" data-name="Trazado 3352" d="M2057.853,1387.887v-30.659l15.733-9.194v30.454Zm.533-30.353v29.412l14.666-8.761v-29.222Z" transform="translate(-2057.853 -1348.034)" fill="#052754"/>
      </g>
      <path id="Trazado_3353" data-name="Trazado 3353" d="M1980.522,1333.765v36l20.266,12.266v-36.265Z" transform="translate(-1980.41 -1321.765)" fill="#3c6a9e"/>
      <path id="Trazado_3354" data-name="Trazado 3354" d="M1987.915,1378.581V1349.5a1.18,1.18,0,0,1,1.781-1.015l13.572,8.036a1.18,1.18,0,0,1,.579,1.015V1386.8a1.18,1.18,0,0,1-1.791,1.009l-13.572-8.215A1.18,1.18,0,0,1,1987.915,1378.581Z" transform="translate(-1985.637 -1332.055)" fill="#23477c"/>
      <path id="Trazado_3355" data-name="Trazado 3355" d="M1990.236,1378.79a1.18,1.18,0,0,1-.569-1.009V1348.7a1.2,1.2,0,0,1,.011-.158l-.1-.057a1.18,1.18,0,0,0-1.781,1.015v29.078a1.179,1.179,0,0,0,.569,1.009l13.572,8.215a1.18,1.18,0,0,0,1.78-.852Z" transform="translate(-1985.556 -1332.055)" fill="#052754"/>
      <path id="Trazado_3356" data-name="Trazado 3356" d="M2010.23,1365.313l-13.333-7.894v4.533l13.333,7.894Z" transform="translate(-1991.987 -1338.486)" fill="#5b95d3"/>
      <path id="Trazado_3357" data-name="Trazado 3357" d="M2010.23,1384.418l-13.333-7.894v4.533l13.333,7.894Z" transform="translate(-1991.987 -1351.992)" fill="#5b95d3"/>
      <path id="Trazado_3358" data-name="Trazado 3358" d="M2010.23,1403.523l-13.333-7.894v4.533l13.333,7.895Z" transform="translate(-1991.987 -1365.497)" fill="#5b95d3"/>
      <path id="Trazado_3359" data-name="Trazado 3359" d="M2010.23,1422.629l-13.333-7.895v4.533l13.333,7.895Z" transform="translate(-1991.987 -1379.003)" fill="#5b95d3"/>
      <path id="Trazado_3360" data-name="Trazado 3360" d="M2010.23,1441.734l-13.333-7.894v4.533l13.333,7.894Z" transform="translate(-1991.987 -1392.509)" fill="#5b95d3"/>
      <g id="Grupo_21051" data-name="Grupo 21051" transform="translate(7.2 21.066)">
        <path id="Trazado_3361" data-name="Trazado 3361" d="M2004.706,1364.7v2.977l8.755,5.184v-2.977Z" transform="translate(-2004.706 -1364.697)" fill="#d6effb"/>
        <path id="Trazado_3362" data-name="Trazado 3362" d="M2004.706,1386.779l8.755,5.184v-2.977l-8.755-5.184Z" transform="translate(-2004.706 -1378.202)" fill="#d6effb"/>
        <path id="Trazado_3363" data-name="Trazado 3363" d="M2004.706,1405.884l8.755,5.184v-2.977l-8.755-5.184Z" transform="translate(-2004.706 -1391.708)" fill="#d6effb"/>
        <path id="Trazado_3364" data-name="Trazado 3364" d="M2004.706,1424.99l8.755,5.184V1427.2l-8.755-5.184Z" transform="translate(-2004.706 -1405.214)" fill="#d6effb"/>
        <path id="Trazado_3365" data-name="Trazado 3365" d="M2004.706,1444.095l8.755,5.184V1446.3l-8.755-5.184Z" transform="translate(-2004.706 -1418.719)" fill="#d6effb"/>
      </g>
    </g>
    <ellipse id="Elipse_1245" data-name="Elipse 1245" cx="7.394" cy="4.305" rx="7.394" ry="4.305" transform="translate(1599.996 1183.637)" fill="#15325c" opacity="0.33" style="mix-blend-mode: multiply;isolation: isolate"/>
    <g id="Grupo_21053" data-name="Grupo 21053" transform="translate(1600.681 1140.062)">
      <path id="Trazado_3366" data-name="Trazado 3366" d="M1821.51,1300.639c-.905-.091-1.7.367-1.943,2.8s-.168,6.664-.168,6.664l1.649,7.614,1.819-.244-.773-7.715.855-6.057S1823.321,1300.82,1821.51,1300.639Z" transform="translate(-1819.388 -1292.315)" fill="#ec69b9"/>
      <path id="Trazado_3367" data-name="Trazado 3367" d="M1828.11,1426.38c-.165-.579-2.729-.744-2.729-.744l-2.4,1.075c.083,1.323.331,1.654.91,1.654,3.805-.414,4.219-1.158,4.219-1.158A1.053,1.053,0,0,0,1828.11,1426.38Z" transform="translate(-1821.929 -1380.683)" fill="#052754"/>
      <path id="Trazado_3368" data-name="Trazado 3368" d="M1827.76,1355.689l-1.489,11-1.241,8.933s-.579.661-2.9.33l.578-10.008-.27-11.995Z" transform="translate(-1821.33 -1330.009)" fill="#15325c"/>
      <path id="Trazado_3369" data-name="Trazado 3369" d="M1847.3,1435.693c-.165-.579-2.729-.744-2.729-.744l-2.4,1.075c.083,1.324.331,1.655.91,1.655,3.8-.414,4.218-1.158,4.218-1.158A1.052,1.052,0,0,0,1847.3,1435.693Z" transform="translate(-1835.494 -1387.266)" fill="#052754"/>
      <path id="Trazado_3370" data-name="Trazado 3370" d="M1837.1,1357.581l.414,10.256-.414,11.332s-.579.662-2.9.331l-.5-9.76-2.689-14.985Z" transform="translate(-1827.607 -1330.577)" fill="#15325c"/>
      <path id="Trazado_3371" data-name="Trazado 3371" d="M1830.694,1303.493v14.954s-6.948,1.9-9.264-3.474l.331-4.8-.331-10.091a2.487,2.487,0,0,1,.688-1.266,1.852,1.852,0,0,1,1.063-.518,1.914,1.914,0,0,1,1.167.218l5.025,2.746a2.54,2.54,0,0,1,1.321,2.228Z" transform="translate(-1820.832 -1290.658)" fill="#f1249a"/>
      <path id="Trazado_3372" data-name="Trazado 3372" d="M1837.2,1280.73s.579,6.369-1.9,5.79-3.143-3.556-3.143-3.556l1.737-2.234Z" transform="translate(-1828.412 -1278.249)" fill="#f9beae"/>
      <path id="Trazado_3373" data-name="Trazado 3373" d="M1834.776,1295.538l.248,2.647s-1.9.579-2.73-.331v-2.316Z" transform="translate(-1828.512 -1288.716)" fill="#f4caab"/>
      <path id="Trazado_3374" data-name="Trazado 3374" d="M1834.222,1277.144a.873.873,0,0,0,.662-1.241s1.406-.579,1.406-1.737a2.593,2.593,0,0,0-1.075-1.9l-.579.413s-3.226-.248-4.219,1.654.331,5.294.331,5.294h1.4l1.244-1.985Z" transform="translate(-1826.924 -1272.264)" fill="#052754"/>
      <path id="Trazado_3375" data-name="Trazado 3375" d="M1841.707,1287.975a.935.935,0,1,1-.935-.935A.935.935,0,0,1,1841.707,1287.975Z" transform="translate(-1833.844 -1282.709)" fill="#f9beae"/>
      <path id="Trazado_3376" data-name="Trazado 3376" d="M1878.827,1302.146c.132-.96-.715-.791-1.11,1.167l1.035.584C1882.647,1303.914,1881.819,1301.844,1878.827,1302.146Z" transform="translate(-1860.621 -1292.985)" fill="#f9beae"/>
      <path id="Trazado_3377" data-name="Trazado 3377" d="M1840.744,1307.17c1.591-1.163,3.374,1.428,3.374,1.428l2.892,3.693,4.024-5.709,1.743.953s-2.068,4.157-3.593,7.13a2.419,2.419,0,0,1-3.876.594c-1.586-1.61-3.507-3.608-4.107-4.427C1839.638,1308.7,1839.95,1307.753,1840.744,1307.17Z" transform="translate(-1834.021 -1296.524)" fill="#ec69b9"/>
    </g>
  </g>
</svg>
