<svg xmlns="http://www.w3.org/2000/svg" width="178.121" height="181.33" viewBox="0 0 178.121 181.33">
  <g id="Grupo_20968" data-name="Grupo 20968" transform="translate(-8653 -626)">
    <g id="Grupo_20967" data-name="Grupo 20967" transform="translate(8653 626)">
      <g id="Grupo_20949" data-name="Grupo 20949" transform="translate(5.907 25.401)">
        <path id="Trazado_2993" data-name="Trazado 2993" d="M1747.729,491.343c-.123.088-.25.167-.385.245l-49.919,28.823-8.949,5.165-47.519,27.435a5.1,5.1,0,0,1-3.688.556,5,5,0,0,1-1.432-.561L1588,525.239l-.464-.271q-.191-.112-.368-.237a5.111,5.111,0,0,1,.4-8.625l.451-.258,20.658-11.788a4.037,4.037,0,0,0,.407-.263,5.107,5.107,0,0,0-.324-8.568l-27.513-16.4-1.051-.626c-.11-.066-.219-.136-.32-.206a5.023,5.023,0,0,1-2.159-3.793,4.911,4.911,0,0,1,0-.8c0-.065.009-.131.018-.193a5.06,5.06,0,0,1,2.549-3.842l69.951-39.831a5.115,5.115,0,0,1,5.085.018l92.024,53.182A5.114,5.114,0,0,1,1747.729,491.343Z" transform="translate(-1577.704 -397.767)" fill="#15325c" opacity="0.22" style="mix-blend-mode: multiply;isolation: isolate"/>
        <path id="Trazado_2994" data-name="Trazado 2994" d="M1749.825,415.579l.093-6.9-94.594-49.006a5.106,5.106,0,0,0-5.086-.018l-69.008,39.3-3.51-4.011-.017,8.535.021-.018h0a5.078,5.078,0,0,0,2.475,4.863l28.565,17.022c.114.065.219.135.324.206a5.119,5.119,0,0,1-.407,8.63l-12.953,7.389L1589.9,444.9l.2-.215-5.107-2.374.013,7.985a5.081,5.081,0,0,0,2.532,4.8l45.653,26.5,2.646,1.537a5.106,5.106,0,0,0,5.121.009l47.519-27.435,8.949-5.169,48.7-27.5a8.193,8.193,0,0,0,2.818-2.659A7.95,7.95,0,0,0,1749.825,415.579Z" transform="translate(-1577.703 -350.624)" fill="#d6edff"/>
        <path id="Trazado_2995" data-name="Trazado 2995" d="M1918.155,619.8v8.365L1927.1,623v-8.365Z" transform="translate(-1807.384 -523.09)" fill="#fff"/>
        <path id="Trazado_2996" data-name="Trazado 2996" d="M1951.335,607.375v8.365l3.327-1.921v-8.365Z" transform="translate(-1829.768 -516.898)" fill="#fff"/>
        <path id="Trazado_2997" data-name="Trazado 2997" d="M1652.524,638.46v8.266l-4.223-2.133-45.652-26.5a5.081,5.081,0,0,1-2.532-4.8l-.013-7.985a5.064,5.064,0,0,1,2.58-4.446l.451-.258c2.435,1.288,5.252,2.755,7.705,3.969a38.449,38.449,0,0,0,5.822,2.558c2.357.42,33.339,29,35.718,31.193Z" transform="translate(-1592.815 -513.629)" fill="#bbe0fd"/>
        <path id="Trazado_2998" data-name="Trazado 2998" d="M1747.729,395.756c-.123.088-.25.166-.385.245l-49.919,28.823-8.949,5.165-47.519,27.435a5.1,5.1,0,0,1-3.688.556,4.988,4.988,0,0,1-1.432-.561L1588,429.651l-.464-.272q-.191-.112-.368-.237a5.111,5.111,0,0,1,.4-8.625l.451-.258,20.658-11.788a4.04,4.04,0,0,0,.407-.263,5.107,5.107,0,0,0-.324-8.568l-27.513-16.4-1.051-.627c-.11-.065-.219-.136-.32-.206a5.023,5.023,0,0,1-2.159-3.793,4.911,4.911,0,0,1,0-.8c0-.066.009-.131.018-.193a5.06,5.06,0,0,1,2.549-3.842l69.951-39.831a5.115,5.115,0,0,1,5.085.018l92.024,53.183A5.114,5.114,0,0,1,1747.729,395.756Z" transform="translate(-1577.704 -333.28)" fill="#fff"/>
        <g id="Grupo_20947" data-name="Grupo 20947" transform="translate(121.993 108.076)">
          <path id="Trazado_2999" data-name="Trazado 2999" d="M1993.337,688.247l-.1-.067a.628.628,0,0,1-.207.2l-31.462,18.163a.584.584,0,0,1-.277.081.611.611,0,0,1-.341-.084l-8-4.718a.6.6,0,0,1-.291-.6l-.008,0v-5.374l4.072,2.747,4.572-2.641,23.039-13.3a.615.615,0,0,1,.613,0l2.873,1.66,5.505-1.741Z" transform="translate(-1952.646 -676.999)" fill="#d6edff"/>
          <path id="Trazado_3000" data-name="Trazado 3000" d="M1961.291,723.478v10.676a.611.611,0,0,1-.341-.084l-8-4.718a.6.6,0,0,1-.291-.6l-.008,0v-5.374l4.072,2.747Z" transform="translate(-1952.646 -704.525)" fill="#bbe0fd"/>
          <path id="Trazado_3001" data-name="Trazado 3001" d="M1952.945,685.2l8,4.718a.612.612,0,0,0,.617,0l31.462-18.165a.613.613,0,0,0,0-1.061l-8.087-4.669a.613.613,0,0,0-.612,0l-31.377,18.116A.613.613,0,0,0,1952.945,685.2Z" transform="translate(-1952.644 -665.785)" fill="#fff"/>
          <path id="Trazado_3002" data-name="Trazado 3002" d="M1952.945,684.7l8,4.718a.612.612,0,0,0,.617,0l31.462-18.164a.612.612,0,0,0,0-1.061l-8.087-4.669a.613.613,0,0,0-.612,0l-31.377,18.116A.613.613,0,0,0,1952.945,684.7Z" transform="translate(-1952.644 -665.448)" fill="#fff"/>
        </g>
        <g id="Grupo_20948" data-name="Grupo 20948" transform="translate(109.6 94.996)">
          <path id="Trazado_3003" data-name="Trazado 3003" d="M1955.249,648.044l-.1-.067a.624.624,0,0,1-.207.2l-31.463,18.163a.592.592,0,0,1-.277.081.613.613,0,0,1-.341-.084l-8-4.717a.6.6,0,0,1-.291-.6l-.008,0v-5.374l4.072,2.747,4.572-2.641,23.04-13.3a.614.614,0,0,1,.612,0l2.873,1.66,5.506-1.741Z" transform="translate(-1914.557 -636.797)" fill="#d6edff"/>
          <path id="Trazado_3004" data-name="Trazado 3004" d="M1923.2,683.275v10.676a.613.613,0,0,1-.341-.084l-8-4.718a.6.6,0,0,1-.291-.6l-.008,0v-5.374l4.072,2.747Z" transform="translate(-1914.557 -664.323)" fill="#bbe0fd"/>
          <path id="Trazado_3005" data-name="Trazado 3005" d="M1914.856,645l8,4.718a.613.613,0,0,0,.618,0l31.462-18.165a.612.612,0,0,0,0-1.061l-8.087-4.669a.611.611,0,0,0-.613,0l-31.377,18.115A.613.613,0,0,0,1914.856,645Z" transform="translate(-1914.555 -625.582)" fill="#fff"/>
          <path id="Trazado_3006" data-name="Trazado 3006" d="M1914.856,644.5l8,4.718a.613.613,0,0,0,.618,0l31.462-18.165a.613.613,0,0,0,0-1.061l-8.087-4.669a.613.613,0,0,0-.613,0l-31.377,18.116A.613.613,0,0,0,1914.856,644.5Z" transform="translate(-1914.555 -625.246)" fill="#fff"/>
        </g>
      </g>
      <g id="Grupo_20950" data-name="Grupo 20950" transform="translate(134.386 0)">
        <path id="Trazado_3007" data-name="Trazado 3007" d="M1983.685,257.488c-4.848-.67-9.71,5.536-10.86,13.861a24.807,24.807,0,0,0-.111,6.059q.06.546.145,1.073.089.552.2,1.082a16.255,16.255,0,0,0,1.083,3.31c1.222,2.666,3.094,4.447,5.375,4.762h0v0l3.935.543.222-1.6a10.744,10.744,0,0,0,2.3-2.071,16.267,16.267,0,0,0,1.939-2.892q.255-.478.49-.986.224-.485.429-.994a24.8,24.8,0,0,0,1.536-5.861c.814-5.892-.449-11.266-2.976-14.141l.221-1.6-3.833-.529Z" transform="translate(-1972.58 -256.714)" fill="#d2008e"/>
        <ellipse id="Elipse_1224" data-name="Elipse 1224" cx="15.216" cy="8.861" rx="15.216" ry="8.861" transform="matrix(0.137, -0.991, 0.991, 0.137, 1.335, 30.146)" fill="#ec69b9"/>
        <ellipse id="Elipse_1225" data-name="Elipse 1225" cx="12.872" cy="7.496" rx="12.872" ry="7.496" transform="translate(3.008 28.011) rotate(-82.135)" fill="#f1249a"/>
        <path id="Trazado_3008" data-name="Trazado 3008" d="M2003.444,289.026a.974.974,0,0,0-1.563.014l-6.053,7.869-1.746-2.3a.986.986,0,0,0-1.565-.137,1.532,1.532,0,0,0-.028,1.886l3.411,4.49,7.64-9.932A1.548,1.548,0,0,0,2003.444,289.026Z" transform="translate(-1985.802 -277.764)" fill="#fff"/>
      </g>
      <g id="Grupo_20953" data-name="Grupo 20953" transform="translate(35.254 94.904)">
        <g id="Grupo_20951" data-name="Grupo 20951" transform="translate(0 9.403)">
          <path id="Trazado_3009" data-name="Trazado 3009" d="M1667.9,620.351l3.979,2.408,3.432-1.964a14.322,14.322,0,0,0,2.065.5V623.6h4.816v-2.226a14.629,14.629,0,0,0,2.613-.577l3.617,2.07,3.979-2.408-3.619-2.052a3.7,3.7,0,0,0-.063-5.28l3.473-1.987-3.979-2.3-3.45,1.956a14.536,14.536,0,0,0-2.308-.527V608h-4.817v2.27a14.508,14.508,0,0,0-2.285.523l-3.264-1.851-3.979,2.3,3.286,1.88a3.7,3.7,0,0,0-.064,5.283Zm9-4.552c0-1.014,1.411-1.835,3.151-1.835s3.151.822,3.151,1.835-1.411,1.835-3.151,1.835S1676.9,616.812,1676.9,615.8Z" transform="translate(-1667.9 -597.519)" fill="#15325c" opacity="0.33" style="mix-blend-mode: multiply;isolation: isolate"/>
          <path id="Trazado_3010" data-name="Trazado 3010" d="M1667.9,599.862l3.432-1.946a3.93,3.93,0,0,1-1.079-2.607c0-.484.056-3.091.056-3.091s.723.813,1.087.414l-3.286-1.88,3.979-2.3,3.264,1.851a16.174,16.174,0,0,1,9.41,0l3.45-1.956,3.979,2.3-3.473,1.987c.361.4,1.169-.626,1.169-.626s-.028,2.814-.028,3.3a3.93,3.93,0,0,1-1.078,2.6l3.619,2.052-3.979,2.408-3.617-2.07a16.16,16.16,0,0,1-9.494,0l-3.432,1.964Z" transform="translate(-1667.9 -584.261)" fill="#e8a302"/>
          <rect id="Rect치ngulo_4955" data-name="Rect치ngulo 4955" width="4.816" height="3.141" transform="translate(9.423 15.601)" fill="#fec400"/>
          <path id="Trazado_3011" data-name="Trazado 3011" d="M1671.879,616.175v3.246l-3.979-2.408v-3.246Z" transform="translate(-1667.9 -601.412)" fill="#fec400"/>
          <path id="Trazado_3012" data-name="Trazado 3012" d="M1668.544,585.77v3.246l2.408,1.361,1.361-2.932Z" transform="translate(-1668.334 -582.524)" fill="#fec400"/>
          <path id="Trazado_3013" data-name="Trazado 3013" d="M1730.974,616.5v3.246l3.979-2.408v-3.246Z" transform="translate(-1710.452 -601.629)" fill="#fec400"/>
          <path id="Trazado_3014" data-name="Trazado 3014" d="M1734.96,585.448v3.246l-2.562,1.466-1.1-2.722Z" transform="translate(-1710.669 -582.307)" fill="#fec400"/>
          <path id="Trazado_3015" data-name="Trazado 3015" d="M1667.9,588.149l3.979,2.408,3.432-1.964a14.412,14.412,0,0,0,2.065.5V591.4h4.816v-2.226a14.634,14.634,0,0,0,2.613-.577l3.617,2.07,3.979-2.408-3.619-2.052a3.7,3.7,0,0,0-.063-5.28l3.473-1.987-3.979-2.3-3.45,1.956a14.522,14.522,0,0,0-2.308-.527v-2.267h-4.817v2.27a14.535,14.535,0,0,0-2.285.523l-3.264-1.851-3.979,2.3,3.286,1.88a3.7,3.7,0,0,0-.064,5.284Zm9-4.552c0-1.013,1.411-1.835,3.151-1.835s3.151.822,3.151,1.835-1.411,1.835-3.151,1.835S1676.9,584.61,1676.9,583.6Z" transform="translate(-1667.9 -575.794)" fill="#ffd561"/>
        </g>
        <g id="Grupo_20952" data-name="Grupo 20952" transform="translate(25.622)">
          <path id="Trazado_3016" data-name="Trazado 3016" d="M1746.648,602.736l5.7,3.452,4.919-2.814a20.638,20.638,0,0,0,2.96.71v3.3h6.9V604.2a20.962,20.962,0,0,0,3.745-.827l5.185,2.966,5.7-3.452-5.187-2.941a5.3,5.3,0,0,0-.091-7.567l4.978-2.848-5.7-3.3-4.946,2.8a20.819,20.819,0,0,0-3.309-.756v-3.249h-6.9v3.254a20.8,20.8,0,0,0-3.276.75l-4.678-2.653-5.7,3.3,4.71,2.695a5.3,5.3,0,0,0-.092,7.573Zm12.907-6.525c0-1.453,2.022-2.63,4.516-2.63s4.516,1.177,4.516,2.63-2.022,2.63-4.516,2.63S1759.555,597.664,1759.555,596.211Z" transform="translate(-1746.648 -572.62)" fill="#15325c" opacity="0.33" style="mix-blend-mode: multiply;isolation: isolate"/>
          <path id="Trazado_3017" data-name="Trazado 3017" d="M1746.647,581.391l4.919-2.789a5.631,5.631,0,0,1-1.547-3.736c0-.693.08-4.431.08-4.431s1.036,1.166,1.558.594l-4.71-2.695,5.7-3.3,4.678,2.653a23.186,23.186,0,0,1,13.487,0l4.945-2.8,5.7,3.3-4.978,2.848c.518.567,1.676-.9,1.676-.9s-.041,4.033-.041,4.731a5.631,5.631,0,0,1-1.545,3.734l5.187,2.941-5.7,3.452-5.185-2.966a23.156,23.156,0,0,1-13.608,0l-4.919,2.815Z" transform="translate(-1746.647 -559.03)" fill="#e8a302"/>
          <rect id="Rect치ngulo_4956" data-name="Rect치ngulo 4956" width="6.903" height="4.502" transform="translate(13.507 22.361)" fill="#fec400"/>
          <path id="Trazado_3018" data-name="Trazado 3018" d="M1752.35,604.772v4.652l-5.7-3.452v-4.652Z" transform="translate(-1746.647 -583.612)" fill="#fec400"/>
          <path id="Trazado_3019" data-name="Trazado 3019" d="M1747.57,561.193v4.652l3.451,1.951,1.951-4.2Z" transform="translate(-1747.27 -556.54)" fill="#fec400"/>
          <path id="Trazado_3020" data-name="Trazado 3020" d="M1837.051,605.234v4.652l5.7-3.452v-4.652Z" transform="translate(-1807.636 -583.923)" fill="#fec400"/>
          <path id="Trazado_3021" data-name="Trazado 3021" d="M1842.765,560.732v4.652l-3.672,2.1-1.58-3.9Z" transform="translate(-1807.948 -556.229)" fill="#fec400"/>
          <path id="Trazado_3022" data-name="Trazado 3022" d="M1746.648,564.6l5.7,3.452,4.919-2.815a20.63,20.63,0,0,0,2.96.71v3.3h6.9v-3.19a20.962,20.962,0,0,0,3.745-.827l5.185,2.966,5.7-3.452-5.187-2.941a5.3,5.3,0,0,0-.091-7.567l4.978-2.848-5.7-3.3-4.946,2.8a20.772,20.772,0,0,0-3.309-.756v-3.249h-6.9v3.254a20.8,20.8,0,0,0-3.276.75l-4.678-2.653-5.7,3.3,4.71,2.695a5.3,5.3,0,0,0-.092,7.573Zm12.907-6.525c0-1.452,2.022-2.63,4.516-2.63s4.516,1.178,4.516,2.63-2.022,2.63-4.516,2.63S1759.555,559.53,1759.555,558.078Z" transform="translate(-1746.648 -546.894)" fill="#ffd561"/>
        </g>
      </g>
      <path id="Trazado_3023" data-name="Trazado 3023" d="M1887.976,490.693l-33.682-19.943.829-1.4,32.9,19.481,17.12-8.988.756,1.44Z" transform="translate(-1758.394 -399.677)" fill="#5b95d3"/>
      <path id="Trazado_3024" data-name="Trazado 3024" d="M1653.853,431.972l-.824-1.4,26.892-15.779,17.922,9.409-.756,1.44-17.122-8.989Z" transform="translate(-1622.614 -362.869)" fill="#5b95d3"/>
      <g id="Grupo_20954" data-name="Grupo 20954" transform="translate(62.936 43.762)">
        <path id="Trazado_3025" data-name="Trazado 3025" d="M1810.707,467.85l-.18.1-28.684,16.562-.18-.1-28.681-16.562,8.738-5.118,19.72-11.545,20.4,11.617,8.686,4.945Z" transform="translate(-1752.982 -431.185)" fill="#15325c" opacity="0.33" style="mix-blend-mode: multiply;isolation: isolate"/>
        <path id="Trazado_3026" data-name="Trazado 3026" d="M1781.843,436.817l-.18,10.06-.121,6.777-28.559-16.408v-6.932l8.738-5.118Z" transform="translate(-1752.982 -413.651)" fill="#183561"/>
        <path id="Trazado_3027" data-name="Trazado 3027" d="M1869.747,430.363l0,.207-.122,6.827L1840.758,453.8l.121-6.777.18-10.06,20-11.548Z" transform="translate(-1812.198 -413.801)" fill="#23477c"/>
        <path id="Trazado_3028" data-name="Trazado 3028" d="M1810.707,406.376l-.18.1-28.684,16.562-.18-.1-28.681-16.562,8.738-5.118,19.72-11.545,20.4,11.617,8.686,4.945Z" transform="translate(-1752.982 -389.713)" fill="#3c6a9e"/>
        <path id="Trazado_3029" data-name="Trazado 3029" d="M1781.043,417.338,1800.4,406l20.008,11.391-19.636,11.338Z" transform="translate(-1771.912 -400.703)" fill="#ffd561"/>
        <path id="Trazado_3030" data-name="Trazado 3030" d="M1789.062,420.471l16.76-9.812,17.362,9.885-17,9.815Z" transform="translate(-1777.323 -403.844)" fill="#5b95d3"/>
        <path id="Trazado_3031" data-name="Trazado 3031" d="M1829.586,436.284l3.807-2.229,3.944,2.246-3.862,2.23Z" transform="translate(-1804.662 -419.627)" fill="#bbe0fd"/>
        <path id="Trazado_3032" data-name="Trazado 3032" d="M1805.822,411.97l16.218,9.234,1.144-.66-17.362-9.885-16.76,9.812,1.128.651Z" transform="translate(-1777.323 -403.844)" fill="#183561"/>
      </g>
      <g id="Grupo_20955" data-name="Grupo 20955" transform="translate(62.936 28.72)">
        <path id="Trazado_3033" data-name="Trazado 3033" d="M1781.843,390.585l-.18,10.06-.121,6.778-28.559-16.408v-6.932l8.738-5.118Z" transform="translate(-1752.982 -367.419)" fill="#183561"/>
        <path id="Trazado_3034" data-name="Trazado 3034" d="M1869.747,384.131l0,.207-.122,6.827-28.864,16.408.121-6.778.18-10.06,20-11.548Z" transform="translate(-1812.198 -367.569)" fill="#23477c"/>
        <path id="Trazado_3035" data-name="Trazado 3035" d="M1810.707,360.145l-.18.1-28.684,16.562-.18-.1-28.681-16.562,8.738-5.118,19.72-11.545,20.4,11.617,8.686,4.945Z" transform="translate(-1752.982 -343.481)" fill="#3c6a9e"/>
        <path id="Trazado_3036" data-name="Trazado 3036" d="M1781.043,371.106l19.36-11.334,20.008,11.391L1800.775,382.5Z" transform="translate(-1771.912 -354.471)" fill="#ffd561"/>
        <path id="Trazado_3037" data-name="Trazado 3037" d="M1789.062,374.239l16.76-9.812,17.362,9.885-17,9.815Z" transform="translate(-1777.323 -357.612)" fill="#5b95d3"/>
        <path id="Trazado_3038" data-name="Trazado 3038" d="M1829.586,390.052l3.807-2.229,3.944,2.246-3.862,2.23Z" transform="translate(-1804.662 -373.395)" fill="#bbe0fd"/>
        <path id="Trazado_3039" data-name="Trazado 3039" d="M1805.822,365.738l16.218,9.234,1.144-.66-17.362-9.885-16.76,9.812,1.128.651Z" transform="translate(-1777.323 -357.612)" fill="#183561"/>
      </g>
      <g id="Grupo_20956" data-name="Grupo 20956" transform="translate(62.936 14.361)">
        <path id="Trazado_3040" data-name="Trazado 3040" d="M1781.843,346.455l-.18,10.06-.121,6.777-28.559-16.408v-6.932l8.738-5.118Z" transform="translate(-1752.982 -323.289)" fill="#183561"/>
        <path id="Trazado_3041" data-name="Trazado 3041" d="M1869.747,340l0,.207-.122,6.827-28.864,16.408.121-6.777.18-10.06,20-11.548Z" transform="translate(-1812.198 -323.438)" fill="#23477c"/>
        <path id="Trazado_3042" data-name="Trazado 3042" d="M1810.707,316.014l-.18.1-28.684,16.562-.18-.1-28.681-16.562,8.738-5.118,19.72-11.545,20.4,11.617,8.686,4.945Z" transform="translate(-1752.982 -299.351)" fill="#3c6a9e"/>
        <path id="Trazado_3043" data-name="Trazado 3043" d="M1781.043,326.976l19.36-11.334,20.008,11.391-19.636,11.338Z" transform="translate(-1771.912 -310.341)" fill="#ffd561"/>
        <path id="Trazado_3044" data-name="Trazado 3044" d="M1789.062,330.108l16.76-9.812,17.362,9.885-17,9.815Z" transform="translate(-1777.323 -313.481)" fill="#5b95d3"/>
        <path id="Trazado_3045" data-name="Trazado 3045" d="M1829.586,345.921l3.807-2.229,3.944,2.246-3.862,2.23Z" transform="translate(-1804.662 -329.265)" fill="#bbe0fd"/>
        <path id="Trazado_3046" data-name="Trazado 3046" d="M1805.822,321.608l16.218,9.234,1.144-.66-17.362-9.885-16.76,9.812,1.128.651Z" transform="translate(-1777.323 -313.481)" fill="#183561"/>
      </g>
      <g id="Grupo_20957" data-name="Grupo 20957" transform="translate(62.936 0.003)">
        <path id="Trazado_3047" data-name="Trazado 3047" d="M1781.843,302.324l-.18,10.06-.121,6.777-28.559-16.408v-6.932l8.738-5.118Z" transform="translate(-1752.982 -279.158)" fill="#183561"/>
        <path id="Trazado_3048" data-name="Trazado 3048" d="M1869.747,295.87l0,.207-.122,6.827-28.864,16.408.121-6.777.18-10.06,20-11.548Z" transform="translate(-1812.198 -279.308)" fill="#23477c"/>
        <path id="Trazado_3049" data-name="Trazado 3049" d="M1810.707,271.884l-.18.1-28.684,16.562-.18-.1-28.681-16.562,8.738-5.118,19.72-11.545,20.4,11.617,8.686,4.945Z" transform="translate(-1752.982 -255.22)" fill="#3c6a9e"/>
        <path id="Trazado_3050" data-name="Trazado 3050" d="M1781.043,282.845l19.36-11.334L1820.41,282.9l-19.636,11.338Z" transform="translate(-1771.912 -266.21)" fill="#ffd561"/>
        <path id="Trazado_3051" data-name="Trazado 3051" d="M1789.062,285.978l16.76-9.812,17.362,9.885-17,9.815Z" transform="translate(-1777.323 -269.351)" fill="#5b95d3"/>
        <path id="Trazado_3052" data-name="Trazado 3052" d="M1829.586,301.791l3.807-2.229,3.944,2.246-3.862,2.23Z" transform="translate(-1804.662 -285.135)" fill="#bbe0fd"/>
        <path id="Trazado_3053" data-name="Trazado 3053" d="M1805.822,277.477l16.218,9.234,1.144-.66-17.362-9.885-16.76,9.812,1.128.651Z" transform="translate(-1777.323 -269.351)" fill="#183561"/>
      </g>
      <g id="Grupo_20960" data-name="Grupo 20960" transform="translate(131.56 48.909)">
        <path id="Trazado_3054" data-name="Trazado 3054" d="M1964.118,413.555l13.429,7.674,13.254-7.674-13.429-8.022Z" transform="translate(-1964.045 -405.532)" fill="#5b95d3"/>
        <path id="Trazado_3055" data-name="Trazado 3055" d="M1964.39,489.026l12.185,7.372a1.027,1.027,0,0,0,1.053.007l12.557-7.379a1.029,1.029,0,0,0,.006-1.77l-12.445-7.435a1.029,1.029,0,0,0-1.06,0l-12.3,7.442A1.028,1.028,0,0,0,1964.39,489.026Z" transform="translate(-1963.894 -455.552)" fill="#15325c" opacity="0.33" style="mix-blend-mode: multiply;isolation: isolate"/>
        <path id="Trazado_3056" data-name="Trazado 3056" d="M2004.855,437.5V461.22l13.429-8.022V429.653Z" transform="translate(-1991.527 -421.805)" fill="#23477c"/>
        <g id="Grupo_20958" data-name="Grupo 20958" transform="translate(14.897 10.583)">
          <path id="Trazado_3057" data-name="Trazado 3057" d="M2009.679,464.125V444.073l10.29-6.013v19.918Zm.349-19.852V463.51l9.592-5.73V438.668Z" transform="translate(-2009.679 -438.06)" fill="#052754"/>
        </g>
        <path id="Trazado_3058" data-name="Trazado 3058" d="M1964.118,429.653V453.2l13.254,8.022V437.5Z" transform="translate(-1964.045 -421.805)" fill="#3c6a9e"/>
        <path id="Trazado_3059" data-name="Trazado 3059" d="M1968.473,458.02V439a.771.771,0,0,1,1.165-.664l8.877,5.256a.772.772,0,0,1,.379.664v19.135a.772.772,0,0,1-1.172.66l-8.877-5.373A.772.772,0,0,1,1968.473,458.02Z" transform="translate(-1966.983 -427.591)" fill="#23477c"/>
        <path id="Trazado_3060" data-name="Trazado 3060" d="M1970,458.157a.772.772,0,0,1-.372-.66V438.479a.794.794,0,0,1,.007-.1l-.063-.037a.771.771,0,0,0-1.165.664V458.02a.772.772,0,0,0,.372.66l8.877,5.373a.771.771,0,0,0,1.164-.557Z" transform="translate(-1966.938 -427.591)" fill="#052754"/>
        <path id="Trazado_3061" data-name="Trazado 3061" d="M1982.486,448.753l-8.72-5.163v2.965l8.72,5.163Z" transform="translate(-1970.554 -431.207)" fill="#5b95d3"/>
        <path id="Trazado_3062" data-name="Trazado 3062" d="M1982.486,460.009l-8.72-5.163v2.965l8.72,5.163Z" transform="translate(-1970.554 -438.801)" fill="#5b95d3"/>
        <path id="Trazado_3063" data-name="Trazado 3063" d="M1982.486,471.265l-8.72-5.163v2.965l8.72,5.163Z" transform="translate(-1970.554 -446.395)" fill="#5b95d3"/>
        <path id="Trazado_3064" data-name="Trazado 3064" d="M1982.486,482.522l-8.72-5.163v2.965l8.72,5.163Z" transform="translate(-1970.554 -453.989)" fill="#5b95d3"/>
        <path id="Trazado_3065" data-name="Trazado 3065" d="M1982.486,493.778l-8.72-5.163v2.965l8.72,5.163Z" transform="translate(-1970.554 -461.583)" fill="#5b95d3"/>
        <g id="Grupo_20959" data-name="Grupo 20959" transform="translate(4.709 13.778)">
          <path id="Trazado_3066" data-name="Trazado 3066" d="M1978.366,447.878v1.947l5.726,3.391v-1.947Z" transform="translate(-1978.366 -447.878)" fill="#d6effb"/>
          <path id="Trazado_3067" data-name="Trazado 3067" d="M1978.366,461.081l5.726,3.391v-1.947l-5.726-3.391Z" transform="translate(-1978.366 -455.471)" fill="#d6effb"/>
          <path id="Trazado_3068" data-name="Trazado 3068" d="M1978.366,472.337l5.726,3.391v-1.947l-5.726-3.391Z" transform="translate(-1978.366 -463.065)" fill="#d6effb"/>
          <path id="Trazado_3069" data-name="Trazado 3069" d="M1978.366,483.593l5.726,3.391v-1.947l-5.726-3.391Z" transform="translate(-1978.366 -470.659)" fill="#d6effb"/>
          <path id="Trazado_3070" data-name="Trazado 3070" d="M1978.366,494.85l5.726,3.391v-1.947l-5.726-3.391Z" transform="translate(-1978.366 -478.253)" fill="#d6effb"/>
        </g>
      </g>
      <g id="Grupo_20963" data-name="Grupo 20963" transform="translate(14.654 30.95)">
        <path id="Trazado_3071" data-name="Trazado 3071" d="M1604.854,359.9l16.012,9.15,15.8-9.15-16.012-9.565Z" transform="translate(-1604.768 -350.334)" fill="#5b95d3"/>
        <path id="Trazado_3072" data-name="Trazado 3072" d="M1605.179,449.886l14.528,8.79a1.227,1.227,0,0,0,1.256.008l14.972-8.8a1.226,1.226,0,0,0,.007-2.11L1621.1,438.91a1.227,1.227,0,0,0-1.264,0l-14.66,8.873A1.226,1.226,0,0,0,1605.179,449.886Z" transform="translate(-1604.587 -409.974)" fill="#15325c" opacity="0.33" style="mix-blend-mode: multiply;isolation: isolate"/>
        <path id="Trazado_3073" data-name="Trazado 3073" d="M1653.427,388.451v28.28l16.012-9.565V379.094Z" transform="translate(-1637.536 -369.736)" fill="#23477c"/>
        <g id="Grupo_20961" data-name="Grupo 20961" transform="translate(17.762 12.619)">
          <path id="Trazado_3074" data-name="Trazado 3074" d="M1659.179,420.2V396.288l12.269-7.17v23.749Zm.416-23.67v22.937l11.437-6.832V389.843Z" transform="translate(-1659.179 -389.118)" fill="#052754"/>
        </g>
        <path id="Trazado_3075" data-name="Trazado 3075" d="M1604.854,379.094v28.073l15.8,9.565v-28.28Z" transform="translate(-1604.768 -369.736)" fill="#3c6a9e"/>
        <path id="Trazado_3076" data-name="Trazado 3076" d="M1610.048,412.917V390.241a.92.92,0,0,1,1.389-.792l10.584,6.267a.92.92,0,0,1,.451.792v22.815a.92.92,0,0,1-1.4.787l-10.584-6.406A.92.92,0,0,1,1610.048,412.917Z" transform="translate(-1608.271 -376.635)" fill="#23477c"/>
        <path id="Trazado_3077" data-name="Trazado 3077" d="M1611.866,413.08a.92.92,0,0,1-.444-.787V389.617a.975.975,0,0,1,.008-.123l-.075-.045a.92.92,0,0,0-1.389.792v22.676a.92.92,0,0,0,.444.787l10.584,6.406a.92.92,0,0,0,1.388-.665Z" transform="translate(-1608.217 -376.635)" fill="#052754"/>
        <path id="Trazado_3078" data-name="Trazado 3078" d="M1626.755,401.867l-10.4-6.156v3.535l10.4,6.156Z" transform="translate(-1612.529 -380.947)" fill="#5b95d3"/>
        <path id="Trazado_3079" data-name="Trazado 3079" d="M1626.755,415.288l-10.4-6.156v3.535l10.4,6.156Z" transform="translate(-1612.529 -390.001)" fill="#5b95d3"/>
        <path id="Trazado_3080" data-name="Trazado 3080" d="M1626.755,428.709l-10.4-6.156v3.535l10.4,6.156Z" transform="translate(-1612.529 -399.055)" fill="#5b95d3"/>
        <path id="Trazado_3081" data-name="Trazado 3081" d="M1626.755,442.131l-10.4-6.156v3.535l10.4,6.156Z" transform="translate(-1612.529 -408.11)" fill="#5b95d3"/>
        <path id="Trazado_3082" data-name="Trazado 3082" d="M1626.755,455.552l-10.4-6.156v3.535l10.4,6.156Z" transform="translate(-1612.529 -417.164)" fill="#5b95d3"/>
        <g id="Grupo_20962" data-name="Grupo 20962" transform="translate(5.615 16.428)">
          <path id="Trazado_3083" data-name="Trazado 3083" d="M1621.844,400.823v2.321l6.828,4.043v-2.321Z" transform="translate(-1621.844 -400.823)" fill="#d6effb"/>
          <path id="Trazado_3084" data-name="Trazado 3084" d="M1621.844,416.566l6.828,4.043v-2.321l-6.828-4.043Z" transform="translate(-1621.844 -409.878)" fill="#d6effb"/>
          <path id="Trazado_3085" data-name="Trazado 3085" d="M1621.844,429.987l6.828,4.043v-2.321l-6.828-4.043Z" transform="translate(-1621.844 -418.932)" fill="#d6effb"/>
          <path id="Trazado_3086" data-name="Trazado 3086" d="M1621.844,443.409l6.828,4.043V445.13l-6.828-4.043Z" transform="translate(-1621.844 -427.987)" fill="#d6effb"/>
          <path id="Trazado_3087" data-name="Trazado 3087" d="M1621.844,456.83l6.828,4.043v-2.322l-6.828-4.043Z" transform="translate(-1621.844 -437.041)" fill="#d6effb"/>
        </g>
      </g>
      <g id="Grupo_20964" data-name="Grupo 20964" transform="translate(24.049 12.114)">
        <path id="Trazado_3088" data-name="Trazado 3088" d="M1638.323,295.022c-4.549-.506-4.043,4.043-3.791,7.581s-.758,4.3-.758,4.3,4.8-.505,4.549-4.3-.192-4.933,1.294-4.488Z" transform="translate(-1633.673 -294.157)" fill="#052754"/>
        <path id="Trazado_3089" data-name="Trazado 3089" d="M1645.621,295.588a1.263,1.263,0,1,1-1.263-1.263A1.263,1.263,0,0,1,1645.621,295.588Z" transform="translate(-1639.96 -293.713)" fill="#f1249a"/>
        <path id="Trazado_3090" data-name="Trazado 3090" d="M1672.724,383.731l-.287,1.887-.373,2.442-3.271,12.078s-.484.86-1.964-.538l1.442-11.566-.145-4.3Z" transform="translate(-1655.973 -354.029)" fill="#f9beae"/>
        <path id="Trazado_3091" data-name="Trazado 3091" d="M1666.217,432.042s2.247,1.547,2.436,2.22.07,1.286-.543,1.168-3.806-.893-4.85-1.254,1.035-2.928,1.035-2.928S1664.505,432.666,1666.217,432.042Z" transform="translate(-1653.367 -386.086)" fill="#15325c"/>
        <path id="Trazado_3092" data-name="Trazado 3092" d="M1683.352,384.062l6.236,10.846s.268.95-1.769,1.01l-7.222-9.261-.012-.012-1.416-1.32,3.411-2.312Z" transform="translate(-1664.298 -353.545)" fill="#f9beae"/>
        <path id="Trazado_3093" data-name="Trazado 3093" d="M1706.941,418.6s2.683-.5,3.292-.156.96.86.443,1.21-3.321,2.062-4.314,2.547-1.341-2.8-1.341-2.8S1706.174,420.254,1706.941,418.6Z" transform="translate(-1681.738 -377.368)" fill="#15325c"/>
        <path id="Trazado_3094" data-name="Trazado 3094" d="M1653.759,364.559c.022.655-1.713,2.092-3.611,3.462-1.784,1.286-3.71,2.509-4.46,2.967-1.552.943-12.5-3.267-12.22-7.419a18.053,18.053,0,0,1,1.231-5.256,17.118,17.118,0,0,1,1.086-2.32l5.817-.6S1653.716,363.288,1653.759,364.559Z" transform="translate(-1633.463 -334.91)" fill="#15325c"/>
        <path id="Trazado_3095" data-name="Trazado 3095" d="M1650.148,374.077c-1.784,1.286-3.71,2.509-4.46,2.967-1.552.943-12.5-3.267-12.22-7.419a18.052,18.052,0,0,1,1.231-5.256C1636.895,370.107,1642.135,374.441,1650.148,374.077Z" transform="translate(-1633.463 -340.967)" fill="#15325c" opacity="0.33" style="mix-blend-mode: multiply;isolation: isolate"/>
        <path id="Trazado_3096" data-name="Trazado 3096" d="M1701.32,341s.627-.588,1.2-.453.112.753.112.753c1.6.806,1.238,1.3,1.238,1.3-.271,1.14-.84,1-.84,1-.707.05-2.376-1.186-2.376-1.186Z" transform="translate(-1678.79 -324.884)" fill="#f9beae"/>
        <path id="Trazado_3097" data-name="Trazado 3097" d="M1672.7,323.137l-7.562-2.229s-3.377-4.767-5.358-6.3l-1.5,2.45-.514.835s4.92,5.623,5.979,5.848c1,.21,7.545,1.447,8.278,1.581a.025.025,0,0,1,.02,0,.159.159,0,0,0,.025,0l.021,0Z" transform="translate(-1649.858 -307.394)" fill="#ffd561"/>
        <path id="Trazado_3098" data-name="Trazado 3098" d="M1636.424,319.03l.18.872a23.673,23.673,0,0,1-.18,10.352h0s7.219,1.906,10.624-.937l-.026-.158a42.962,42.962,0,0,1-.535-9.114l.23-4.8a2.759,2.759,0,0,0-.764-1.407,2.058,2.058,0,0,0-1.181-.576,2.126,2.126,0,0,0-1.3.243l-5.583,3.051a2.819,2.819,0,0,0-1.468,2.475Z" transform="translate(-1635.461 -306.475)" fill="#fec400"/>
        <path id="Trazado_3099" data-name="Trazado 3099" d="M1651.92,309.337s-2.112.645-3.032-.366v-5.357l.975.983,1.782,1.8.222,2.37Z" transform="translate(-1643.869 -299.979)" fill="#f9beae"/>
        <path id="Trazado_3100" data-name="Trazado 3100" d="M1653.889,310.807c-.609-.323-1.673-1.3-2-4.172l1.782,1.8Z" transform="translate(-1645.891 -302.017)" fill="#f9beae" style="mix-blend-mode: multiply;isolation: isolate"/>
        <path id="Trazado_3101" data-name="Trazado 3101" d="M1664.892,369.15a1.6,1.6,0,0,1,1.268.173c.436.391-.261.715-.261.715,1.025,1.474.467,1.734.467,1.734-.781.873-1.218.482-1.218.482-.645-.293-1.521-2.176-1.521-2.176Z" transform="translate(-1653.812 -344.152)" fill="#f9beae"/>
        <path id="Trazado_3102" data-name="Trazado 3102" d="M1646.835,338.956l-5.581-5.569a50.206,50.206,0,0,0-1.423-7.362,2.154,2.154,0,0,0-.845-1.116h0a1.8,1.8,0,0,0-2.8,1.565l.021.531a2.24,2.24,0,0,0,.055.415c.273,1.19,1.674,7.154,2.415,7.787.78.662,5.939,4.873,6.52,5.341a.025.025,0,0,1,.016.014.126.126,0,0,0,.02.016l.016.014Z" transform="translate(-1635.298 -314.137)" fill="#ffd561"/>
        <path id="Trazado_3103" data-name="Trazado 3103" d="M1651.946,295.5s2.5,6.652-.332,6.763-4.415-2.884-4.415-2.884l1.2-2.9Z" transform="translate(-1642.73 -294.507)" fill="#f9beae"/>
        <path id="Trazado_3104" data-name="Trazado 3104" d="M1645.635,293.469c-2.576,2.113.2,4.518.2,4.518l.647-.216a1.6,1.6,0,0,0,.674-1.3c2.221.965,2.726-1.035,3.806-.209C1651.657,293.424,1648.654,290.992,1645.635,293.469Z" transform="translate(-1640.936 -292.443)" fill="#052754"/>
        <path id="Trazado_3105" data-name="Trazado 3105" d="M1655.28,296.088l-3.643,2.206c1.264,2.274,4.548,1.011,4.548,1.011S1656.9,297.167,1655.28,296.088Z" transform="translate(-1645.724 -294.902)" fill="#052754"/>
        <path id="Trazado_3106" data-name="Trazado 3106" d="M1648.53,302.6l1.011,2.021s1.01-.253,1.01-2.527Z" transform="translate(-1643.628 -298.952)" fill="#052754"/>
        <path id="Trazado_3107" data-name="Trazado 3107" d="M1648.064,306.356a.781.781,0,1,1-1.246-.163A.909.909,0,0,1,1648.064,306.356Z" transform="translate(-1642.361 -301.596)" fill="#f9beae"/>
      </g>
      <ellipse id="Elipse_1226" data-name="Elipse 1226" cx="10.907" cy="6.352" rx="10.907" ry="6.352" transform="translate(103.824 102.35)" fill="#15325c" opacity="0.33" style="mix-blend-mode: multiply;isolation: isolate"/>
      <g id="Grupo_20965" data-name="Grupo 20965" transform="translate(99.7 55.643)">
        <path id="Trazado_3108" data-name="Trazado 3108" d="M1955.9,484.4s.706-.359,1.1-.169-.192.6-.192.6c.951.865.483,1.191.483,1.191-.632.839-1.026.649-1.026.649-.569-.068-1.411-1.276-1.411-1.276Z" transform="translate(-1925.934 -465.32)" fill="#f9beae"/>
        <path id="Trazado_3109" data-name="Trazado 3109" d="M1926.3,456.222c-.769.536-1.157,1.32-.056,2.9a45.577,45.577,0,0,0,3.413,4l5.365,3.375,1.318-1.326-4.722-4-2.542-4.1S1927.837,455.15,1926.3,456.222Z" transform="translate(-1906.172 -446.244)" fill="#ec69b9"/>
        <path id="Trazado_3110" data-name="Trazado 3110" d="M1868.027,506.123a1.642,1.642,0,0,0-1.311-.049c-.51.318.137.768.137.768-1.3,1.308-.778,1.668-.778,1.668.635,1.019,1.145.7,1.145.7.7-.182,1.921-1.929,1.921-1.929Z" transform="translate(-1865.973 -480.007)" fill="#f9beae"/>
        <path id="Trazado_3111" data-name="Trazado 3111" d="M1910.98,581.251c.188-.659,3.109-.848,3.109-.848l2.732,1.225c-.094,1.507-.377,1.884-1.036,1.884-4.334-.471-4.8-1.319-4.8-1.319A1.2,1.2,0,0,1,1910.98,581.251Z" transform="translate(-1896.28 -530.239)" fill="#15325c"/>
        <path id="Trazado_3112" data-name="Trazado 3112" d="M1910.285,508.83l1.7,12.531,1.413,10.175s.66.754,3.3.377l-.658-11.4.307-13.662Z" transform="translate(-1895.867 -480.618)" fill="#15325c"/>
        <path id="Trazado_3113" data-name="Trazado 3113" d="M1891.289,590.806c.188-.66,3.109-.848,3.109-.848l2.732,1.225c-.094,1.507-.377,1.884-1.036,1.884-4.334-.471-4.8-1.319-4.8-1.319A1.2,1.2,0,0,1,1891.289,590.806Z" transform="translate(-1882.996 -536.686)" fill="#15325c"/>
        <path id="Trazado_3114" data-name="Trazado 3114" d="M1898.594,510.894l-.471,11.683.471,12.907s.659.754,3.3.377l.568-11.117,3.063-17.068Z" transform="translate(-1887.662 -481.175)" fill="#15325c"/>
        <path id="Trazado_3115" data-name="Trazado 3115" d="M1899.016,459.889l-1.817,16.936s7.638,3,10.914-2.809l.208-5.473,1.6-11.388a2.83,2.83,0,0,0-.625-1.518,2.111,2.111,0,0,0-1.141-.716,2.177,2.177,0,0,0-1.348.106l-6.025,2.5a2.891,2.891,0,0,0-1.767,2.362Z" transform="translate(-1887.04 -445.544)" fill="#f1249a"/>
        <path id="Trazado_3116" data-name="Trazado 3116" d="M1885.251,463.711c.85.593,1.2,1.577-.395,3.862s-4.794,5.888-4.794,5.888l-7.069,5.364-1.393-1.559,6.386-6.1,3.75-5.873S1883.551,462.526,1885.251,463.711Z" transform="translate(-1869.771 -451.316)" fill="#ec69b9"/>
        <path id="Trazado_3117" data-name="Trazado 3117" d="M1909.656,434.679s-1.429,7.143,1.451,6.788,3.992-3.646,3.992-3.646l-1.7-2.74Z" transform="translate(-1895.204 -431.929)" fill="#f9beae"/>
        <path id="Trazado_3118" data-name="Trazado 3118" d="M1916.3,450.728l-.6,2.968s2.084.887,3.131-.043l.282-2.623Z" transform="translate(-1899.521 -442.756)" fill="#f9beae"/>
        <path id="Trazado_3119" data-name="Trazado 3119" d="M1910.553,431.874a.994.994,0,0,1-.6-1.485s-1.522-.827-1.382-2.138a2.954,2.954,0,0,1,1.449-2.024l.606.539s3.683.111,4.577,2.386-1.018,5.955-1.018,5.955l-1.588-.17-1.168-2.4Z" transform="translate(-1894.706 -426.227)" fill="#052754"/>
        <path id="Trazado_3120" data-name="Trazado 3120" d="M1912.555,442.743a1.065,1.065,0,1,0,1.172-.945A1.064,1.064,0,0,0,1912.555,442.743Z" transform="translate(-1897.395 -436.727)" fill="#f9beae"/>
      </g>
      <g id="Grupo_20966" data-name="Grupo 20966" transform="translate(0 85.267)">
        <path id="Trazado_3121" data-name="Trazado 3121" d="M1567.806,517.313c-3.6-.5-7.219,4.116-8.074,10.306a18.426,18.426,0,0,0-.082,4.505q.044.406.107.8.067.41.152.8a12.063,12.063,0,0,0,.8,2.461c.909,1.982,2.3,3.307,4,3.541h0v0l2.926.4.165-1.192a7.98,7.98,0,0,0,1.713-1.54,12.076,12.076,0,0,0,1.442-2.15q.189-.355.364-.733.167-.361.319-.739a18.44,18.44,0,0,0,1.142-4.358c.605-4.38-.334-8.376-2.213-10.514l.164-1.189-2.849-.394Z" transform="translate(-1559.549 -517.276)" fill="#d2008e"/>
        <path id="Trazado_3122" data-name="Trazado 3122" d="M1575.055,518.314c-3.6-.5-7.219,4.116-8.074,10.306s1.374,11.611,4.978,12.109,7.219-4.116,8.074-10.306S1578.659,518.812,1575.055,518.314Z" transform="translate(-1564.44 -517.951)" fill="#ec69b9"/>
        <ellipse id="Elipse_1227" data-name="Elipse 1227" cx="9.571" cy="5.573" rx="9.571" ry="5.573" transform="translate(2.237 20.288) rotate(-82.135)" fill="#f1249a"/>
        <path id="Trazado_3123" data-name="Trazado 3123" d="M1582.5,540.761a.724.724,0,0,0-1.162.01l-4.5,5.85-1.3-1.708a.733.733,0,0,0-1.164-.1,1.139,1.139,0,0,0-.021,1.4l2.536,3.338,5.681-7.385A1.151,1.151,0,0,0,1582.5,540.761Z" transform="translate(-1569.38 -532.927)" fill="#fff"/>
      </g>
    </g>
  </g>
</svg>
