<svg xmlns="http://www.w3.org/2000/svg" width="190" height="178.718" viewBox="0 0 190 178.718">
  <g id="Grupo_21008" data-name="Grupo 21008" transform="translate(-2241.037 -276.036)">
    <g id="Grupo_20971" data-name="Grupo 20971" transform="translate(2259.571 323.95)">
      <path id="Trazado_3124" data-name="Trazado 3124" d="M2308.754,605.335l91.47-52.81a3.367,3.367,0,0,1,3.358-.005l52.513,30.107a3.366,3.366,0,0,1,.02,5.829l-19.436,11.327a3.366,3.366,0,0,0,0,5.814l11.092,6.487a3.366,3.366,0,0,1-.076,5.855l-63.529,34.96a3.366,3.366,0,0,1-3.308-.035l-72.1-41.7A3.366,3.366,0,0,1,2308.754,605.335Z" transform="translate(-2307.071 -522.514)" fill="#15325c" opacity="0.22" style="mix-blend-mode: multiply;isolation: isolate"/>
      <g id="Grupo_20969" data-name="Grupo 20969" transform="translate(137.565 57.941)">
        <path id="Trazado_3125" data-name="Trazado 3125" d="M2831.11,674.457l-.084-.056a.522.522,0,0,1-.172.17L2804.641,689.7a.488.488,0,0,1-.23.068.512.512,0,0,1-.284-.07l-6.669-3.93a.5.5,0,0,1-.243-.5l-.006,0v-4.477l3.392,2.289,3.81-2.2,19.195-11.081a.511.511,0,0,1,.51,0l2.393,1.383,4.587-1.45Z" transform="translate(-2797.208 -665.087)" fill="#d6edff"/>
        <path id="Trazado_3126" data-name="Trazado 3126" d="M2804.411,709.223v8.894a.512.512,0,0,1-.284-.07l-6.669-3.93a.5.5,0,0,1-.243-.5l-.006,0v-4.477l3.392,2.289Z" transform="translate(-2797.208 -693.434)" fill="#bbe0fd"/>
        <path id="Trazado_3127" data-name="Trazado 3127" d="M2797.457,669.716l6.667,3.93a.511.511,0,0,0,.515,0l26.211-15.134a.51.51,0,0,0,0-.884l-6.737-3.89a.511.511,0,0,0-.51,0l-26.141,15.093A.51.51,0,0,0,2797.457,669.716Z" transform="translate(-2797.206 -653.538)" fill="#fff"/>
        <path id="Trazado_3128" data-name="Trazado 3128" d="M2797.457,669.235l6.667,3.93a.51.51,0,0,0,.515,0l26.211-15.134a.51.51,0,0,0,0-.884l-6.737-3.89a.512.512,0,0,0-.51,0l-26.141,15.093A.51.51,0,0,0,2797.457,669.235Z" transform="translate(-2797.206 -653.192)" fill="#fff"/>
      </g>
      <g id="Grupo_20970" data-name="Grupo 20970" transform="translate(127.24 47.043)">
        <path id="Trazado_3129" data-name="Trazado 3129" d="M2794.323,635.629l-.083-.056a.524.524,0,0,1-.172.17l-26.212,15.132a.487.487,0,0,1-.23.067.509.509,0,0,1-.284-.07l-6.669-3.93a.5.5,0,0,1-.242-.5l-.007,0V641.96l3.393,2.288,3.809-2.2,19.194-11.081a.511.511,0,0,1,.51,0l2.393,1.383,4.587-1.45Z" transform="translate(-2760.422 -626.259)" fill="#d6edff"/>
        <path id="Trazado_3130" data-name="Trazado 3130" d="M2767.625,670.4v8.894a.509.509,0,0,1-.284-.07l-6.669-3.93a.5.5,0,0,1-.242-.5l-.007,0v-4.477l3.393,2.289Z" transform="translate(-2760.422 -654.606)" fill="#bbe0fd"/>
        <path id="Trazado_3131" data-name="Trazado 3131" d="M2760.671,630.888l6.667,3.93a.511.511,0,0,0,.514,0l26.211-15.134a.51.51,0,0,0,0-.884l-6.737-3.89a.51.51,0,0,0-.51,0l-26.141,15.093A.51.51,0,0,0,2760.671,630.888Z" transform="translate(-2760.419 -614.71)" fill="#fff"/>
        <path id="Trazado_3132" data-name="Trazado 3132" d="M2760.671,630.407l6.667,3.931a.511.511,0,0,0,.514,0l26.211-15.133a.51.51,0,0,0,0-.884l-6.737-3.89a.512.512,0,0,0-.51,0l-26.141,15.093A.51.51,0,0,0,2760.671,630.407Z" transform="translate(-2760.419 -614.364)" fill="#fff"/>
      </g>
      <path id="Trazado_3133" data-name="Trazado 3133" d="M2457.789,505.67v11.221l-.011-.007a3.317,3.317,0,0,1-1.659,2.636l-19.436,11.327a3.369,3.369,0,0,0-.007,5.818l6.119,3.579,2.217-4.841,4.4.8v9.452a3.443,3.443,0,0,1,0,.749v.022l0,0a3.292,3.292,0,0,1-1.717,2.577l-5.032,2.771-.969.529-1.167.646-1.365.756-54.993,30.264a3.371,3.371,0,0,1-2.679.246,3.451,3.451,0,0,1-.627-.283l-37.469-21.671-1.362-.789-1.171-.676-.962-.562-31.138-18a3.32,3.32,0,0,1-1.608-2.235v0a3.465,3.465,0,0,1-.01-1.347v-.011s0,0,0-.008l-.066-10.083,5.73,5.521,41.261-23.826,46.157-26.652a3.393,3.393,0,0,1,3.362,0l46.716,26.784,3.3-4.232Z" transform="translate(-2307.074 -472.926)" fill="#d6edff"/>
      <path id="Trazado_3134" data-name="Trazado 3134" d="M2381.485,579.687v73.977a3.451,3.451,0,0,1-.627-.283l-37.469-21.671-1.362-.789-1.171-.676-.962-.562-31.138-18a3.319,3.319,0,0,1-1.608-2.235v0a3.465,3.465,0,0,1-.01-1.347v-.011s0,0,0-.008l-.066-10.083,5.73,5.521,41.261-23.826Z" transform="translate(-2307.074 -542.377)" fill="#bbe0fd"/>
      <path id="Trazado_3135" data-name="Trazado 3135" d="M2308.754,500.013l91.47-52.81a3.367,3.367,0,0,1,3.358-.005l52.513,30.107a3.366,3.366,0,0,1,.02,5.829l-19.436,11.327a3.366,3.366,0,0,0,0,5.814l11.092,6.487a3.366,3.366,0,0,1-.076,5.855l-63.529,34.96a3.366,3.366,0,0,1-3.308-.035l-72.1-41.7A3.366,3.366,0,0,1,2308.754,500.013Z" transform="translate(-2307.071 -446.752)" fill="#fff"/>
      <path id="Trazado_3136" data-name="Trazado 3136" d="M2728.9,710.69l.138,10.136,9.84-5.415-.138-10.136Z" transform="translate(-2610.51 -632.716)" fill="#fff"/>
      <path id="Trazado_3137" data-name="Trazado 3137" d="M2703.846,734.608V744.82l2.965-1.632V732.976Z" transform="translate(-2592.484 -652.642)" fill="#fff"/>
    </g>
    <path id="Trazado_3138" data-name="Trazado 3138" d="M2469.545,545.044l-20.829,11.874a.711.711,0,0,0,0,1.233l16.612,9.621a1.166,1.166,0,0,0,1.168,0l20.9-12.066a.6.6,0,0,0,0-1.042l-16.684-9.618A1.169,1.169,0,0,0,2469.545,545.044Z" transform="translate(-149.133 -193.396)" fill="#15325c" opacity="0.33" style="mix-blend-mode: multiply;isolation: isolate"/>
    <path id="Trazado_3139" data-name="Trazado 3139" d="M2505.546,532.522l-11.295,6.566-1.144-.542a1.268,1.268,0,0,1,.455-.454l10.127-5.893a1.162,1.162,0,0,1,1.079-.049Z" transform="translate(-181.322 -184.153)" fill="#a34b73"/>
    <g id="Grupo_20972" data-name="Grupo 20972" transform="translate(2283.441 276.036)">
      <path id="Trazado_3140" data-name="Trazado 3140" d="M2492.762,557.02v-1.812l-1.281.8-12.893-7.432a.973.973,0,0,0-.968,0l-16.42,9.361-1.283-.756v2l.042-.031a.584.584,0,0,0,.276.362l13.863,8.029a.973.973,0,0,0,.974,0l17.44-10.069A.5.5,0,0,0,2492.762,557.02Z" transform="translate(-2440.888 -471.99)" fill="#183561"/>
      <path id="Trazado_3141" data-name="Trazado 3141" d="M2477.635,541.581l-17.382,9.909a.593.593,0,0,0,0,1.028l13.863,8.029a.974.974,0,0,0,.975,0l17.44-10.069a.5.5,0,0,0,0-.869l-13.924-8.026A.974.974,0,0,0,2477.635,541.581Z" transform="translate(-2440.916 -466.96)" fill="#d6effb"/>
      <path id="Trazado_3142" data-name="Trazado 3142" d="M2507.576,528.691l-1.365,10.229-9.284,7.569-1.387-.782a1.038,1.038,0,0,1-.593-.938l.019-9.421a1.252,1.252,0,0,1,.171-.633,1.267,1.267,0,0,1,.455-.454l10.128-5.893a1.163,1.163,0,0,1,1.079-.049Z" transform="translate(-2466.087 -457.433)" fill="#183561"/>
      <path id="Trazado_3143" data-name="Trazado 3143" d="M2513.636,528.393l-.031,11.4-11.823,6.828.01-11.336Z" transform="translate(-2471.004 -457.564)" fill="#3c6a9e"/>
      <path id="Trazado_3144" data-name="Trazado 3144" d="M2454.344,276.364l2.741,1.476-4.1,54.873-56.766,36.9-2.252-1.212a3.512,3.512,0,0,1-1.848-3.093V312.828a2.72,2.72,0,0,1,1.346-2.348l58.188-34.069a2.745,2.745,0,0,1,2.69-.048Z" transform="translate(-2392.121 -276.036)" fill="#a9d1ea"/>
      <path id="Trazado_3145" data-name="Trazado 3145" d="M2467.593,282.465v57.081l-60.865,34.69V318.1Z" transform="translate(-2402.628 -280.66)" fill="#d6effb"/>
      <path id="Trazado_3146" data-name="Trazado 3146" d="M2471.181,307.117v45.76l-7.2,4.105-2.163,1.234-14.791,8.43-8.193,4.669-12.864,7.333-12.5,7.122V340.907l12.232-7.161,6.622-3.877,10.447-6.116,12.569-7.361,7.828-4.583,5.714-3.344Z" transform="translate(-2407.478 -298.393)" fill="#183561"/>
    </g>
    <g id="Grupo_20974" data-name="Grupo 20974" transform="translate(2305.804 355.638)">
      <path id="Trazado_3147" data-name="Trazado 3147" d="M2543.7,587.4l-22.121-12.888a1.406,1.406,0,0,0-1.409,0L2472.5,601.925a1.407,1.407,0,0,0,0,2.437l20.817,12.024a4.409,4.409,0,0,0,4.41,0l45.967-26.55a1.406,1.406,0,0,0,0-2.433Z" transform="translate(-2471.798 -570.208)" fill="#15325c" opacity="0.33" style="mix-blend-mode: multiply;isolation: isolate"/>
      <path id="Trazado_3148" data-name="Trazado 3148" d="M2544.382,576.632l-23.4-12.351-47.934,26.088a2.067,2.067,0,0,0-1.078,1.746l-.025.765a2.089,2.089,0,0,0,1.043,1.879l21.14,12.21a3,3,0,0,0,3,0l46.4-26.8a1.78,1.78,0,0,0,.889-1.575Z" transform="translate(-2471.901 -562.983)" fill="#a9d1ea"/>
      <path id="Trazado_3149" data-name="Trazado 3149" d="M2543.7,572.734l-22.121-12.888a1.406,1.406,0,0,0-1.409,0L2472.5,587.257a1.407,1.407,0,0,0,0,2.437l20.817,12.024a4.409,4.409,0,0,0,4.41,0l45.967-26.55a1.406,1.406,0,0,0,0-2.433Z" transform="translate(-2471.798 -559.656)" fill="#d6effb"/>
      <path id="Trazado_3150" data-name="Trazado 3150" d="M2552.041,582.736l-21.076-12.279-42.7,24.558,21.259,12.279Z" transform="translate(-2483.642 -567.426)" fill="#77b8e0"/>
      <g id="Grupo_20973" data-name="Grupo 20973" transform="translate(8.723 5.368)">
        <path id="Trazado_3151" data-name="Trazado 3151" d="M2643.773,610.747l-4.862,2.8-3.68-2.116,4.863-2.8Z" transform="translate(-2598.083 -600.253)" fill="#d6edff"/>
        <path id="Trazado_3152" data-name="Trazado 3152" d="M2659.67,619.889l-4.863,2.8-3.679-2.116,4.863-2.8Z" transform="translate(-2609.518 -606.829)" fill="#d6edff"/>
        <path id="Trazado_3153" data-name="Trazado 3153" d="M2623.662,622.314l-4.862,2.8-3.68-2.116,4.862-2.8Z" transform="translate(-2583.617 -608.573)" fill="#d6edff"/>
        <path id="Trazado_3154" data-name="Trazado 3154" d="M2607.764,613.172l-4.862,2.8-3.68-2.116,4.863-2.8Z" transform="translate(-2572.181 -601.997)" fill="#d6edff"/>
        <path id="Trazado_3155" data-name="Trazado 3155" d="M2570.679,666.837l4.863-2.8,3.679,2.116-4.862,2.8Z" transform="translate(-2551.649 -640.111)" fill="#d6edff"/>
        <path id="Trazado_3156" data-name="Trazado 3156" d="M2590.791,638.63l16.152-9.289,3.68,2.116-16.153,9.289Z" transform="translate(-2566.116 -615.15)" fill="#d6edff"/>
        <path id="Trazado_3157" data-name="Trazado 3157" d="M2655.343,599.943l4.806-2.764,3.656,2.13-4.783,2.751Z" transform="translate(-2612.551 -592.015)" fill="#d6edff"/>
        <path id="Trazado_3158" data-name="Trazado 3158" d="M2554.782,657.694l4.863-2.8,3.679,2.116-4.862,2.8Z" transform="translate(-2540.214 -633.534)" fill="#d6edff"/>
        <path id="Trazado_3159" data-name="Trazado 3159" d="M2639.446,590.758l4.836-2.781,3.656,2.13-4.812,2.767Z" transform="translate(-2601.115 -585.396)" fill="#d6edff"/>
        <path id="Trazado_3160" data-name="Trazado 3160" d="M2587.655,624.738l-4.861,2.8-3.68-2.116,4.862-2.8Z" transform="translate(-2557.716 -610.317)" fill="#d6edff"/>
        <path id="Trazado_3161" data-name="Trazado 3161" d="M2603.552,633.881l-4.861,2.8-3.679-2.116,4.862-2.8Z" transform="translate(-2569.152 -616.893)" fill="#d6edff"/>
        <path id="Trazado_3162" data-name="Trazado 3162" d="M2559,636.985l4.863-2.8,3.679,2.116-4.863,2.8Z" transform="translate(-2543.246 -618.637)" fill="#d6edff"/>
        <path id="Trazado_3163" data-name="Trazado 3163" d="M2574.894,646.128l4.863-2.8,3.679,2.116-4.862,2.8Z" transform="translate(-2554.68 -625.214)" fill="#d6edff"/>
        <path id="Trazado_3164" data-name="Trazado 3164" d="M2534.669,669.261l4.863-2.8,3.679,2.116-4.863,2.8Z" transform="translate(-2525.746 -641.854)" fill="#d6edff"/>
        <path id="Trazado_3165" data-name="Trazado 3165" d="M2550.566,678.4l4.863-2.8,3.679,2.116-4.863,2.8Z" transform="translate(-2537.181 -648.431)" fill="#d6edff"/>
        <path id="Trazado_3166" data-name="Trazado 3166" d="M2518.773,660.119l4.863-2.8,3.679,2.116-4.863,2.8Z" transform="translate(-2514.311 -635.278)" fill="#d6edff"/>
        <path id="Trazado_3167" data-name="Trazado 3167" d="M2502.876,650.977l4.863-2.8,3.679,2.116-4.863,2.8Z" transform="translate(-2502.876 -628.702)" fill="#d6edff"/>
        <path id="Trazado_3168" data-name="Trazado 3168" d="M2674.919,611.244l-3.68-2.116,4.778-2.748,3.656,2.13Z" transform="translate(-2623.985 -598.634)" fill="#d6edff"/>
        <path id="Trazado_3169" data-name="Trazado 3169" d="M2627.229,583.692l-3.68-2.116,4.863-2.8.3.171,3.36,1.958Z" transform="translate(-2589.68 -578.78)" fill="#d6edff"/>
        <path id="Trazado_3170" data-name="Trazado 3170" d="M2522.988,639.41l4.863-2.8,3.679,2.116-4.863,2.8Z" transform="translate(-2517.343 -620.381)" fill="#d6edff"/>
        <path id="Trazado_3171" data-name="Trazado 3171" d="M2551.643,627.162l-4.863,2.8-3.68-2.116,4.863-2.8Z" transform="translate(-2531.811 -612.06)" fill="#d6edff"/>
        <path id="Trazado_3172" data-name="Trazado 3172" d="M2538.885,648.552l4.863-2.8,3.679,2.116-4.863,2.8Z" transform="translate(-2528.778 -626.958)" fill="#d6edff"/>
        <path id="Trazado_3173" data-name="Trazado 3173" d="M2571.757,615.6l-4.861,2.8-3.68-2.116,4.862-2.8Z" transform="translate(-2546.28 -603.741)" fill="#d6edff"/>
        <path id="Trazado_3174" data-name="Trazado 3174" d="M2611.979,592.462l-4.863,2.8-3.679-2.116,4.863-2.8Z" transform="translate(-2575.213 -587.1)" fill="#d6edff"/>
        <path id="Trazado_3175" data-name="Trazado 3175" d="M2591.867,604.029l-4.863,2.8-3.679-2.116,4.863-2.8Z" transform="translate(-2560.745 -595.42)" fill="#d6edff"/>
        <path id="Trazado_3176" data-name="Trazado 3176" d="M2627.876,601.6l-4.863,2.8-3.679-2.116,4.862-2.8Z" transform="translate(-2586.648 -593.676)" fill="#d6edff"/>
      </g>
    </g>
    <g id="Grupo_20975" data-name="Grupo 20975" transform="translate(2366.239 350.897)">
      <path id="Trazado_3177" data-name="Trazado 3177" d="M2687.166,547.081a1.945,1.945,0,0,0,.463.782c1.478,1.686,6.089,4.3,9.693,5.133a5.341,5.341,0,0,0,3.748-.122c2.9-1.738,2.317-6.952-3.476-9.269S2686.587,544.184,2687.166,547.081Z" transform="translate(-2687.122 -542.762)" fill="#183561"/>
      <path id="Trazado_3178" data-name="Trazado 3178" d="M2688.93,560.563c1.478,1.686,6.089,4.3,9.693,5.133C2696.276,560.227,2691.45,560.164,2688.93,560.563Z" transform="translate(-2688.422 -555.463)" fill="#15325c" opacity="0.33" style="mix-blend-mode: multiply;isolation: isolate"/>
      <path id="Trazado_3179" data-name="Trazado 3179" d="M2697.706,546.091l-5.15-.093A6.052,6.052,0,0,1,2697.706,546.091Z" transform="translate(-2691.03 -544.721)" fill="#15325c" opacity="0.33" style="mix-blend-mode: multiply;isolation: isolate"/>
    </g>
    <g id="Grupo_20976" data-name="Grupo 20976" transform="translate(2308.042 313.948)">
      <path id="Trazado_3180" data-name="Trazado 3180" d="M2526.763,411.114l-.015,2.451-16.88,9.779.1-2.519Z" transform="translate(-2501.421 -411.114)" fill="#fec400"/>
      <path id="Trazado_3181" data-name="Trazado 3181" d="M2496.666,483.9l-.015,2.451-16.88,9.779.1-2.519Z" transform="translate(-2479.772 -463.473)" fill="#fff"/>
      <path id="Trazado_3182" data-name="Trazado 3182" d="M2486.7,450.039v2.376l-6.345,3.679v-2.375Z" transform="translate(-2480.188 -439.114)" fill="#f02098"/>
      <path id="Trazado_3183" data-name="Trazado 3183" d="M2544.079,454.443v2.376l-6.345,3.679v-2.375Z" transform="translate(-2521.466 -442.282)" fill="#f02098"/>
      <path id="Trazado_3184" data-name="Trazado 3184" d="M2551.4,469.574v2.376l-6.345,3.679v-2.375Z" transform="translate(-2526.73 -453.166)" fill="#fff"/>
      <path id="Trazado_3185" data-name="Trazado 3185" d="M2577.586,454.443v2.376l-6.345,3.679v-2.375Z" transform="translate(-2545.568 -442.282)" fill="#fff"/>
      <path id="Trazado_3186" data-name="Trazado 3186" d="M2495.136,450.039l-14.733,8.506V461l14.76-8.59Z" transform="translate(-2480.226 -439.114)" fill="#fff"/>
      <path id="Trazado_3187" data-name="Trazado 3187" d="M2495.136,468.472l-14.733,8.506v2.46l14.76-8.59Z" transform="translate(-2480.226 -452.373)" fill="#fff"/>
    </g>
    <g id="Grupo_20978" data-name="Grupo 20978" transform="translate(2346.254 327.469)">
      <ellipse id="Elipse_1228" data-name="Elipse 1228" cx="10.418" cy="6.066" rx="10.418" ry="6.066" transform="translate(0.012 8.177)" fill="#15325c" opacity="0.33" style="mix-blend-mode: multiply;isolation: isolate"/>
      <path id="Trazado_3188" data-name="Trazado 3188" d="M2615.96,473.24c0,3.351,4.664,6.067,10.418,6.067a16.993,16.993,0,0,0,4.119-.493q.365-.091.714-.2.366-.112.715-.24a11.135,11.135,0,0,0,2.143-1.044c1.693-1.079,2.726-2.515,2.726-4.092v0h0v-2.719h-1.108a7.343,7.343,0,0,0-1.62-1.368,11.139,11.139,0,0,0-2.143-1.044q-.349-.128-.715-.24-.35-.106-.714-.2a16.992,16.992,0,0,0-4.119-.493c-4.072,0-7.6,1.36-9.312,3.343h-1.105v2.649C2615.96,473.191,2615.96,473.216,2615.96,473.24Z" transform="translate(-2615.948 -464.961)" fill="#e8a302"/>
      <ellipse id="Elipse_1229" data-name="Elipse 1229" cx="10.418" cy="6.066" rx="10.418" ry="6.066" transform="translate(0 0.041) rotate(-0.113)" fill="#fec400"/>
      <ellipse id="Elipse_1230" data-name="Elipse 1230" cx="8.813" cy="5.132" rx="8.813" ry="5.132" transform="translate(1.617 0.955)" fill="#ffd561"/>
      <g id="Grupo_20977" data-name="Grupo 20977" transform="translate(7.893 1.592)">
        <path id="Trazado_3189" data-name="Trazado 3189" d="M2644.753,473.249a.715.715,0,0,1-.111-1.42l2.809-.445-.971-5.585a.714.714,0,1,1,1.408-.245l1.22,7.014-4.241.673A.7.7,0,0,1,2644.753,473.249Z" transform="translate(-2644.039 -464.962)" fill="#fff"/>
      </g>
    </g>
    <g id="Grupo_20980" data-name="Grupo 20980" transform="translate(2323.197 398.021)">
      <ellipse id="Elipse_1231" data-name="Elipse 1231" cx="10.418" cy="6.066" rx="10.418" ry="6.066" transform="translate(0.012 8.177)" fill="#15325c" opacity="0.33" style="mix-blend-mode: multiply;isolation: isolate"/>
      <path id="Trazado_3190" data-name="Trazado 3190" d="M2533.811,724.614c0,3.35,4.664,6.066,10.418,6.066a16.976,16.976,0,0,0,4.119-.493q.365-.091.714-.2.367-.112.715-.24a11.125,11.125,0,0,0,2.143-1.044c1.694-1.079,2.727-2.515,2.727-4.091v0h0v-2.72h-1.108a7.364,7.364,0,0,0-1.621-1.368,11.128,11.128,0,0,0-2.143-1.044q-.348-.128-.715-.24-.349-.106-.714-.2a16.976,16.976,0,0,0-4.119-.493c-4.072,0-7.6,1.36-9.311,3.343h-1.106v2.649C2533.811,724.565,2533.811,724.59,2533.811,724.614Z" transform="translate(-2533.799 -716.335)" fill="#e8a302"/>
      <ellipse id="Elipse_1232" data-name="Elipse 1232" cx="10.418" cy="6.066" rx="10.418" ry="6.066" transform="matrix(1, -0.002, 0.002, 1, 0, 0.041)" fill="#fec400"/>
      <ellipse id="Elipse_1233" data-name="Elipse 1233" cx="8.813" cy="5.132" rx="8.813" ry="5.132" transform="translate(1.617 0.955)" fill="#ffd561"/>
      <g id="Grupo_20979" data-name="Grupo 20979" transform="translate(7.893 1.592)">
        <path id="Trazado_3191" data-name="Trazado 3191" d="M2562.605,724.623a.714.714,0,0,1-.111-1.42l2.808-.446-.971-5.585a.714.714,0,1,1,1.408-.245l1.219,7.013-4.24.673A.749.749,0,0,1,2562.605,724.623Z" transform="translate(-2561.891 -716.335)" fill="#fff"/>
      </g>
    </g>
    <g id="Grupo_20991" data-name="Grupo 20991" transform="translate(2265.233 343.161)">
      <path id="Trazado_3192" data-name="Trazado 3192" d="M2327.247,531.569v16.656l1.005.574,27.138-17.23,1-15.794-1-.574Z" transform="translate(-2327.247 -515.2)" fill="#183561"/>
      <path id="Trazado_3193" data-name="Trazado 3193" d="M2330.828,533.615v16.656l28.143-16.656V517.247Z" transform="translate(-2329.823 -516.672)" fill="#a9d1ea"/>
      <g id="Grupo_20990" data-name="Grupo 20990" transform="translate(3.62 8.196)">
        <path id="Trazado_3194" data-name="Trazado 3194" d="M2345.248,568.964l.833-.488V567.01l-.833.488-1.792,1.049-3.31,1.938v1.467l3.31-1.938Z" transform="translate(-2340.146 -560.664)" fill="#fec400"/>
        <g id="Grupo_20981" data-name="Grupo 20981" transform="translate(0 10.551)">
          <path id="Trazado_3195" data-name="Trazado 3195" d="M2345.066,583.46v-1.467l-1.609.942-3.31,1.938v1.467l3.31-1.938Z" transform="translate(-2340.146 -581.993)" fill="#fff"/>
        </g>
        <path id="Trazado_3196" data-name="Trazado 3196" d="M2343.456,599.777l-3.31,1.938v1.467l3.31-1.938,1.792-1.049,2.526-1.478v-1.467l-2.526,1.478Z" transform="translate(-2340.146 -582.417)" fill="#fec400"/>
        <g id="Grupo_20982" data-name="Grupo 20982" transform="translate(3.453 10.512)">
          <path id="Trazado_3197" data-name="Trazado 3197" d="M2358.993,581.853l-2.068,1.211-2.827,1.655-1.649.966v1.467l1.649-.966,2.827-1.655,2.068-1.211Z" transform="translate(-2352.449 -581.853)" fill="#fff"/>
        </g>
        <g id="Grupo_20983" data-name="Grupo 20983" transform="translate(0 14.608)">
          <path id="Trazado_3198" data-name="Trazado 3198" d="M2343.148,596.447l-3,1.757v1.467l3-1.757Z" transform="translate(-2340.146 -596.447)" fill="#fff"/>
        </g>
        <g id="Grupo_20984" data-name="Grupo 20984" transform="translate(5.371 5.834)">
          <path id="Trazado_3199" data-name="Trazado 3199" d="M2359.284,571.106l2.558-1.5,3.4-1.992,1.645-.963v-1.467l-1.645.963-3.4,1.992-2.558,1.5Z" transform="translate(-2359.284 -565.187)" fill="#77b8e0"/>
        </g>
        <g id="Grupo_20985" data-name="Grupo 20985" transform="translate(13.48)">
          <path id="Trazado_3200" data-name="Trazado 3200" d="M2389.692,549.052l-1.516.888v1.467l1.516-.887,8.187-4.651V544.4Z" transform="translate(-2388.175 -544.401)" fill="#fff"/>
        </g>
        <g id="Grupo_20986" data-name="Grupo 20986" transform="translate(10.449 6.011)">
          <path id="Trazado_3201" data-name="Trazado 3201" d="M2377.375,570.054v1.467l.883-.517,2.118-1.24,1.547-.905,2.77-1.574v-1.467l-2.77,1.574-1.547.9-2.118,1.24Z" transform="translate(-2377.375 -565.818)" fill="#fff"/>
        </g>
        <g id="Grupo_20987" data-name="Grupo 20987" transform="translate(18.271 2.934)">
          <path id="Trazado_3202" data-name="Trazado 3202" d="M2405.244,559.111l4.913-2.791v-1.467l-4.913,2.791Z" transform="translate(-2405.244 -554.853)" fill="#fff"/>
        </g>
        <g id="Grupo_20988" data-name="Grupo 20988" transform="translate(16.254 5.867)">
          <path id="Trazado_3203" data-name="Trazado 3203" d="M2398.057,570.709l6.93-3.937v-1.467l-6.93,3.937Z" transform="translate(-2398.057 -565.306)" fill="#77b8e0"/>
        </g>
        <g id="Grupo_20989" data-name="Grupo 20989" transform="translate(8.079 10.091)">
          <path id="Trazado_3204" data-name="Trazado 3204" d="M2374.3,581.687l-2.118,1.24-3.252,1.9V586.3l3.252-1.9,2.118-1.24,1.546-.905.753-.428v-1.467l-.753.428Z" transform="translate(-2368.932 -580.354)" fill="#fff"/>
        </g>
      </g>
    </g>
    <g id="Grupo_20994" data-name="Grupo 20994" transform="translate(2274.87 364.38)">
      <g id="Grupo_20992" data-name="Grupo 20992" transform="translate(0 10.038)">
        <path id="Trazado_3205" data-name="Trazado 3205" d="M2362.155,645.2l12.8-7.494a1.156,1.156,0,0,1,1.156-.007l13.185,7.508a1.156,1.156,0,0,1,.006,2.006l-12.979,7.494a1.157,1.157,0,0,1-1.156,0l-13-7.508A1.156,1.156,0,0,1,2362.155,645.2Z" transform="translate(-2361.583 -634.468)" fill="#15325c" opacity="0.33" style="mix-blend-mode: multiply;isolation: isolate"/>
        <path id="Trazado_3206" data-name="Trazado 3206" d="M2422.3,647.48l-10.167,5.87-.106,5.931L2422.2,653.5Z" transform="translate(-2397.872 -641.61)" fill="#a9d1ea"/>
        <path id="Trazado_3207" data-name="Trazado 3207" d="M2376.188,632.436l10.024-5.87,10.309,5.87-10.167,5.87Z" transform="translate(-2372.088 -626.566)" fill="#bbe0fd"/>
        <path id="Trazado_3208" data-name="Trazado 3208" d="M2391.869,639.106l5.58-3.267,5.738,3.267-5.659,3.267Z" transform="translate(-2383.369 -633.237)" fill="#15325c"/>
        <path id="Trazado_3209" data-name="Trazado 3209" d="M2376.188,653.5V647.48l10.167,5.87-.107,5.931Z" transform="translate(-2372.088 -641.61)" fill="#77b8e0"/>
      </g>
      <g id="Grupo_20993" data-name="Grupo 20993" transform="translate(7.723)">
        <path id="Trazado_3210" data-name="Trazado 3210" d="M2400.385,604.147a7.13,7.13,0,0,1-2.176,2.134c-2.264,1.82-6.342,1.375-7.484-.814a5.113,5.113,0,0,1-1.594-4.3,5.063,5.063,0,0,0,1.8,2.258c-1.867-1.594-.677-6.26-.677-6.26a7.365,7.365,0,0,0,2.346,3.694,16.425,16.425,0,0,1,.157-6.109,7.1,7.1,0,0,1,2.313-3.947,11.158,11.158,0,0,0,1.908,7.778,6.72,6.72,0,0,0,1.2-4.686s2.278,4.371,1.231,7.7a5.117,5.117,0,0,0,2.258-1.82A7.869,7.869,0,0,1,2400.385,604.147Z" transform="translate(-2389.098 -590.8)" fill="#77b8e0"/>
        <path id="Trazado_3211" data-name="Trazado 3211" d="M2400.385,614.263a7.13,7.13,0,0,1-2.176,2.134,5.147,5.147,0,0,1-1.9.93c-2.169.574-4.714-.089-5.582-1.744a5.113,5.113,0,0,1-1.594-4.3,5.063,5.063,0,0,0,1.8,2.258c-1.867-1.594-.677-6.26-.677-6.26a7.435,7.435,0,0,0,2.346,3.694,16.425,16.425,0,0,1,.157-6.109C2392.75,611.554,2396.184,614.359,2400.385,614.263Z" transform="translate(-2389.098 -600.917)" fill="#77b8e0" opacity="0.33" style="mix-blend-mode: multiply;isolation: isolate"/>
        <path id="Trazado_3212" data-name="Trazado 3212" d="M2396.307,623.517c-2.169.575-4.714-.089-5.582-1.744a5.113,5.113,0,0,1-1.594-4.3,5.063,5.063,0,0,0,1.8,2.258c-1.867-1.594-.677-6.26-.677-6.26a6.922,6.922,0,0,0,.828,1.916A10.343,10.343,0,0,0,2396.307,623.517Z" transform="translate(-2389.098 -607.105)" fill="#77b8e0" opacity="0.33" style="mix-blend-mode: multiply;isolation: isolate"/>
      </g>
    </g>
    <g id="Grupo_20995" data-name="Grupo 20995" transform="translate(2286.716 368.733)">
      <path id="Trazado_3213" data-name="Trazado 3213" d="M2404.452,613.237a3.7,3.7,0,0,0,1.129,1.107c1.175.944,3.29.714,3.883-.422a2.652,2.652,0,0,0,.827-2.233,2.621,2.621,0,0,1-.934,1.172c.969-.827.352-3.248.352-3.248a3.82,3.82,0,0,1-1.217,1.917,8.517,8.517,0,0,0-.082-3.17,3.686,3.686,0,0,0-1.2-2.048,5.791,5.791,0,0,1-.99,4.036,3.486,3.486,0,0,1-.622-2.431s-1.182,2.268-.639,4a2.658,2.658,0,0,1-1.172-.944A4.084,4.084,0,0,0,2404.452,613.237Z" transform="translate(-2403.787 -606.312)" fill="#77b8e0"/>
      <path id="Trazado_3214" data-name="Trazado 3214" d="M2406.158,618.487a3.7,3.7,0,0,0,1.128,1.107,2.67,2.67,0,0,0,.987.483,2.585,2.585,0,0,0,2.9-.905,2.652,2.652,0,0,0,.827-2.233,2.623,2.623,0,0,1-.933,1.172c.969-.827.352-3.248.352-3.248a3.856,3.856,0,0,1-1.218,1.917,8.514,8.514,0,0,0-.082-3.17C2410.119,617.081,2408.337,618.536,2406.158,618.487Z" transform="translate(-2405.492 -611.562)" fill="#77b8e0" opacity="0.33" style="mix-blend-mode: multiply;isolation: isolate"/>
      <path id="Trazado_3215" data-name="Trazado 3215" d="M2413.7,623.288a2.585,2.585,0,0,0,2.9-.905,2.653,2.653,0,0,0,.827-2.233,2.625,2.625,0,0,1-.933,1.172c.969-.827.351-3.248.351-3.248a3.6,3.6,0,0,1-.43.994A5.367,5.367,0,0,1,2413.7,623.288Z" transform="translate(-2410.915 -614.773)" fill="#77b8e0" opacity="0.33" style="mix-blend-mode: multiply;isolation: isolate"/>
    </g>
    <g id="Grupo_20996" data-name="Grupo 20996" transform="translate(2279.074 332.789)">
      <path id="Trazado_3216" data-name="Trazado 3216" d="M2377.578,497.488h-1.017v-6.9l21.088-12.344.513.877-20.584,12.05Z" transform="translate(-2376.561 -478.245)" fill="#183561"/>
    </g>
    <g id="Grupo_20997" data-name="Grupo 20997" transform="translate(2340.825 306.528)">
      <path id="Trazado_3217" data-name="Trazado 3217" d="M2596.9,402.4l-.325-.572,14.308-8.13v-9.019h.658v9.4Z" transform="translate(-2596.573 -384.679)" fill="#183561"/>
    </g>
    <g id="Grupo_20998" data-name="Grupo 20998" transform="translate(2241.037 299.392)">
      <path id="Trazado_3218" data-name="Trazado 3218" d="M2723.3,365.332a3.941,3.941,0,0,1,2.375-3.17c1.3-.409,2.767.2,4.049,1.506.6-2.136,1.787-3.694,3.46-4.223,3.626-1.145,8.159,2.975,10.126,9.2q.179.565.32,1.126c1.939.589,3.909,2.906,4.9,6.033a12.2,12.2,0,0,1,.59,4.04l.207.118a4.936,4.936,0,0,1,2.48,4.282h0a4.937,4.937,0,0,1-7.393,4.282l-24.525-14.067a4.937,4.937,0,0,1-2.481-4.282h0A4.942,4.942,0,0,1,2723.3,365.332Z" transform="translate(-2583.704 -359.253)" fill="#fff"/>
      <path id="Trazado_3219" data-name="Trazado 3219" d="M2261.9,492.429a2.885,2.885,0,0,0-1.739-2.32,3.026,3.026,0,0,0-2.962,1.1,4.167,4.167,0,0,0-2.532-3.09c-2.654-.838-5.972,2.177-7.411,6.733q-.13.414-.234.824c-1.419.431-2.861,2.127-3.583,4.415a8.922,8.922,0,0,0-.431,2.956l-.152.087a3.612,3.612,0,0,0-1.814,3.134h0a3.612,3.612,0,0,0,5.41,3.134L2264.4,499.11a3.613,3.613,0,0,0,1.815-3.134h0A3.617,3.617,0,0,0,2261.9,492.429Z" transform="translate(-2241.037 -451.851)" fill="#fff"/>
    </g>
    <g id="Grupo_21002" data-name="Grupo 21002" transform="translate(2293.367 316.238)">
      <path id="Trazado_3220" data-name="Trazado 3220" d="M2435.558,422.366l1.318-.772v-2.321l-1.318.772-2.836,1.66-5.238,3.067v2.321l5.238-3.067Z" transform="translate(-2427.484 -419.273)" fill="#fec400"/>
      <g id="Grupo_20999" data-name="Grupo 20999" transform="translate(0 6.654)">
        <path id="Trazado_3221" data-name="Trazado 3221" d="M2435.269,445.3V442.98l-2.547,1.491-5.238,3.066v2.321l5.238-3.066Z" transform="translate(-2427.484 -442.98)" fill="#fff"/>
      </g>
      <path id="Trazado_3222" data-name="Trazado 3222" d="M2432.722,471.119l-5.238,3.066v2.321l5.238-3.067,2.836-1.66,4-2.339v-2.321l-4,2.339Z" transform="translate(-2427.484 -453.69)" fill="#fec400"/>
      <g id="Grupo_21000" data-name="Grupo 21000" transform="translate(5.464 6.591)">
        <path id="Trazado_3223" data-name="Trazado 3223" d="M2457.306,442.758l-3.271,1.916-4.474,2.619-2.61,1.528v2.321l2.61-1.528,4.474-2.619,3.271-1.916Z" transform="translate(-2446.951 -442.758)" fill="#fff"/>
      </g>
      <g id="Grupo_21001" data-name="Grupo 21001" transform="translate(0 13.073)">
        <path id="Trazado_3224" data-name="Trazado 3224" d="M2432.234,465.85l-4.75,2.781v2.321l4.75-2.781Z" transform="translate(-2427.484 -465.85)" fill="#fff"/>
      </g>
    </g>
    <g id="Grupo_21006" data-name="Grupo 21006" transform="translate(2343.877 280.05)">
      <path id="Trazado_3225" data-name="Trazado 3225" d="M2607.45,302.319v23.826l.673.538,20.326-12.519.673-23.287-.673-.538Z" transform="translate(-2607.45 -290.339)" fill="#183561"/>
      <path id="Trazado_3226" data-name="Trazado 3226" d="M2630.848,292.257v23.826l-21,11.98V304.238Z" transform="translate(-2609.176 -291.719)" fill="#a9d1ea"/>
      <path id="Trazado_3227" data-name="Trazado 3227" d="M2630.848,292.257v4.981l-21,11.98v-4.981Z" transform="translate(-2609.176 -291.719)" fill="#3c6a9e"/>
      <g id="Grupo_21005" data-name="Grupo 21005" transform="translate(3.087 9.961)">
        <path id="Trazado_3228" data-name="Trazado 3228" d="M2650.212,325.83l-.01,1.657-11.41,6.61.07-1.7Z" transform="translate(-2633.083 -325.83)" fill="#fec400"/>
        <path id="Trazado_3229" data-name="Trazado 3229" d="M2629.868,375.03l-.01,1.657-11.41,6.61.07-1.7Z" transform="translate(-2618.448 -361.221)" fill="#fec400"/>
        <g id="Grupo_21003" data-name="Grupo 21003" transform="translate(0.11 7.385)">
          <path id="Trazado_3230" data-name="Trazado 3230" d="M2623.129,352.141v1.606l-4.289,2.487v-1.605Z" transform="translate(-2618.84 -352.141)" fill="#77b8e0"/>
        </g>
        <g id="Grupo_21004" data-name="Grupo 21004" transform="translate(10.996 8.22)">
          <path id="Trazado_3231" data-name="Trazado 3231" d="M2661.916,355.117v1.606l-4.289,2.487V357.6Z" transform="translate(-2657.627 -355.117)" fill="#77b8e0"/>
        </g>
        <path id="Trazado_3232" data-name="Trazado 3232" d="M2666.862,365.345v1.606l-4.289,2.487v-1.605Z" transform="translate(-2650.189 -354.254)" fill="#fff"/>
        <path id="Trazado_3233" data-name="Trazado 3233" d="M2628.834,352.141l-9.959,5.749v1.663l9.977-5.806Z" transform="translate(-2618.756 -344.756)" fill="#fff"/>
        <path id="Trazado_3234" data-name="Trazado 3234" d="M2628.834,364.6l-9.959,5.749v1.663l9.977-5.806Z" transform="translate(-2618.756 -353.718)" fill="#fff"/>
      </g>
    </g>
    <ellipse id="Elipse_1234" data-name="Elipse 1234" cx="11.907" cy="6.934" rx="11.907" ry="6.934" transform="translate(2359.66 388.074)" fill="#15325c" opacity="0.33" style="mix-blend-mode: multiply;isolation: isolate"/>
    <g id="Grupo_21007" data-name="Grupo 21007" transform="translate(2358.358 336.616)">
      <path id="Trazado_3235" data-name="Trazado 3235" d="M2672.692,698.174l2.9,1.087v1.718a1.1,1.1,0,0,1-.553.953l-.165.094a1.1,1.1,0,0,1-1.1-.005c-1-.586-3.074-1.809-3.617-2.216C2669.431,699.262,2669.612,697.269,2672.692,698.174Z" transform="translate(-2666.783 -640.107)" fill="#183561"/>
      <path id="Trazado_3236" data-name="Trazado 3236" d="M2725.24,694l2.642-1.612,1.353,1.059a1.1,1.1,0,0,1,.41,1.023l-.028.188a1.1,1.1,0,0,1-.681.862c-1.079.428-3.319,1.306-3.975,1.483C2724.086,697.234,2722.629,695.863,2725.24,694Z" transform="translate(-2705.595 -636.109)" fill="#183561"/>
      <path id="Trazado_3237" data-name="Trazado 3237" d="M2698.317,594.861v15.85l6.385,11.5s-1.259,2.536-3.125,1.811c-.67-.906-8.015-11.095-8.333-13s-2.853-10.778-2.853-10.778v-5.389Z" transform="translate(-2681.594 -565.958)" fill="#15325c"/>
      <path id="Trazado_3238" data-name="Trazado 3238" d="M2676.4,594.861s-2.219,9.51-1.9,15.216.643,13.224,1.005,14.491c1.087,1.811,3.7.725,3.7.725l-.045-15.216,5.163-15.216Z" transform="translate(-2670.14 -565.958)" fill="#15325c"/>
      <path id="Trazado_3239" data-name="Trazado 3239" d="M2694.5,521.53c1.082-.38,2.19-.055,3.212,2.852s2.187,8.112,2.187,8.112l.244,9.815-2.3.242-1.347-9.678-2.849-7.164S2692.339,522.29,2694.5,521.53Z" transform="translate(-2683.655 -513.115)" fill="#ec69b9"/>
      <path id="Trazado_3240" data-name="Trazado 3240" d="M2670.328,616.571s-.912.348-1.057,1,.712.488.712.488c.025,2.036.71,1.909.71,1.909,1.3.291,1.442-.358,1.442-.358.4-.7-.029-3.012-.029-3.012Z" transform="translate(-2666.39 -581.575)" fill="#f9beae"/>
      <path id="Trazado_3241" data-name="Trazado 3241" d="M2668.467,527.685l3.994,16.263s8.546,1.465,10.765-4.956l-1.832-5.777-2.595-12.457a3.128,3.128,0,0,0-1.219-1.346,2.334,2.334,0,0,0-1.456-.319,2.41,2.41,0,0,0-1.364.614l-5.338,4.858a3.2,3.2,0,0,0-.956,3.121Z" transform="translate(-2665.758 -511.445)" fill="#f02098"/>
      <path id="Trazado_3242" data-name="Trazado 3242" d="M2667.554,540.794c1.127-.21,2.173.28,2.738,3.31s.921,8.351.921,8.351l-1.26,9.737-2.31-.112.149-9.771-1.72-7.516S2665.3,541.215,2667.554,540.794Z" transform="translate(-2664.009 -527.035)" fill="#ec69b9"/>
      <path id="Trazado_3243" data-name="Trazado 3243" d="M2662.424,500.9s1.185,7.972,4.051,6.526,2.792-5.29,2.792-5.29l-2.791-2.219Z" transform="translate(-2661.476 -497.663)" fill="#f9beae"/>
      <path id="Trazado_3244" data-name="Trazado 3244" d="M2678.03,517.8l.483,3.315s2.5.143,3.245-1.217l-.688-2.836Z" transform="translate(-2672.702 -509.995)" fill="#f9beae"/>
      <path id="Trazado_3245" data-name="Trazado 3245" d="M2662.53,497.616a1.1,1.1,0,0,1-1.179-1.323s-1.894-.291-2.239-1.709a3.27,3.27,0,0,1,.752-2.65l.832.334s3.877-1.263,5.658.772,1.168,6.582,1.168,6.582l-1.718.417-2.114-2.061Z" transform="translate(-2659.046 -491.881)" fill="#052754"/>
      <path id="Trazado_3246" data-name="Trazado 3246" d="M2669.319,510.862a1.178,1.178,0,1,0,.867-1.423A1.178,1.178,0,0,0,2669.319,510.862Z" transform="translate(-2666.411 -504.487)" fill="#f9beae"/>
    </g>
  </g>
</svg>
