<svg id="Grupo_20760" data-name="Grupo 20760" xmlns="http://www.w3.org/2000/svg" width="146.864" height="146.864" viewBox="0 0 146.864 146.864">
  <circle id="Elipse_1204" data-name="Elipse 1204" cx="73.432" cy="73.432" r="73.432" transform="translate(0)" fill="#c4e1ff"/>
  <g id="Grupo_20759" data-name="Grupo 20759" transform="translate(6.223 6.459)">
    <g id="Grupo_20742" data-name="Grupo 20742" transform="translate(3.744)">
      <g id="Grupo_20741" data-name="Grupo 20741">
        <path id="Trazado_2517" data-name="Trazado 2517" d="M605.142,200.941H496.76a1.4,1.4,0,0,0-1.395,1.394v79.156a1.4,1.4,0,0,0,1.395,1.394H605.142a1.393,1.393,0,0,0,1.394-1.394V202.335A1.393,1.393,0,0,0,605.142,200.941ZM603.748,280.1H498.154V203.729H603.748Zm1.394-79.156H496.76a1.4,1.4,0,0,0-1.395,1.394v79.156a1.4,1.4,0,0,0,1.395,1.394H605.142a1.393,1.393,0,0,0,1.394-1.394V202.335A1.393,1.393,0,0,0,605.142,200.941ZM603.748,280.1H498.154V203.729H603.748Zm1.394-79.156H496.76a1.4,1.4,0,0,0-1.395,1.394v79.156a1.4,1.4,0,0,0,1.395,1.394H605.142a1.393,1.393,0,0,0,1.394-1.394V202.335A1.393,1.393,0,0,0,605.142,200.941ZM603.748,280.1H498.154V203.729H603.748Zm1.394-79.156H496.76a1.4,1.4,0,0,0-1.395,1.394v79.156a1.4,1.4,0,0,0,1.395,1.394H605.142a1.393,1.393,0,0,0,1.394-1.394V202.335A1.393,1.393,0,0,0,605.142,200.941ZM603.748,280.1H498.154V203.729H603.748Zm1.394-79.156H496.76a1.4,1.4,0,0,0-1.395,1.394v79.156a1.4,1.4,0,0,0,1.395,1.394H605.142a1.393,1.393,0,0,0,1.394-1.394V202.335A1.393,1.393,0,0,0,605.142,200.941ZM603.748,280.1H498.154V203.729H603.748Zm1.394-79.156H496.76a1.4,1.4,0,0,0-1.395,1.394v79.156a1.4,1.4,0,0,0,1.395,1.394H605.142a1.393,1.393,0,0,0,1.394-1.394V202.335A1.393,1.393,0,0,0,605.142,200.941ZM603.748,280.1H498.154V203.729H603.748Zm1.394-79.156H496.76a1.4,1.4,0,0,0-1.395,1.394v79.156a1.4,1.4,0,0,0,1.395,1.394H605.142a1.393,1.393,0,0,0,1.394-1.394V202.335A1.393,1.393,0,0,0,605.142,200.941ZM603.748,280.1H498.154V203.729H603.748Zm1.394-79.156H496.76a1.4,1.4,0,0,0-1.395,1.394v79.156a1.4,1.4,0,0,0,1.395,1.394H605.142a1.393,1.393,0,0,0,1.394-1.394V202.335A1.393,1.393,0,0,0,605.142,200.941ZM603.748,280.1H498.154V203.729H603.748Zm1.394-79.156H496.76a1.4,1.4,0,0,0-1.395,1.394v79.156a1.4,1.4,0,0,0,1.395,1.394H605.142a1.393,1.393,0,0,0,1.394-1.394V202.335A1.393,1.393,0,0,0,605.142,200.941ZM603.748,280.1H498.154V203.729H603.748Zm1.394-79.156H496.76a1.4,1.4,0,0,0-1.395,1.394v79.156a1.4,1.4,0,0,0,1.395,1.394H605.142a1.393,1.393,0,0,0,1.394-1.394V202.335A1.393,1.393,0,0,0,605.142,200.941ZM603.748,280.1H498.154V203.729H603.748Zm4.934-86.8H493.228a5.086,5.086,0,0,0-4.934,5.213v86.813a5.088,5.088,0,0,0,4.934,5.222H608.682a5.086,5.086,0,0,0,4.925-5.222V198.506A5.084,5.084,0,0,0,608.682,193.293Zm2.138,92.026a2.306,2.306,0,0,1-2.138,2.435H493.228a2.306,2.306,0,0,1-2.147-2.435V198.506a2.3,2.3,0,0,1,2.147-2.425H608.682a2.3,2.3,0,0,1,2.138,2.425Zm-5.678-84.378H496.76a1.4,1.4,0,0,0-1.395,1.394v79.156a1.4,1.4,0,0,0,1.395,1.394H605.142a1.393,1.393,0,0,0,1.394-1.394V202.335A1.393,1.393,0,0,0,605.142,200.941ZM603.748,280.1H498.154V203.729H603.748Zm1.394-79.156H496.76a1.4,1.4,0,0,0-1.395,1.394v79.156a1.4,1.4,0,0,0,1.395,1.394H605.142a1.393,1.393,0,0,0,1.394-1.394V202.335A1.393,1.393,0,0,0,605.142,200.941ZM603.748,280.1H498.154V203.729H603.748Zm1.394-79.156H496.76a1.4,1.4,0,0,0-1.395,1.394v79.156a1.4,1.4,0,0,0,1.395,1.394H605.142a1.393,1.393,0,0,0,1.394-1.394V202.335A1.393,1.393,0,0,0,605.142,200.941ZM603.748,280.1H498.154V203.729H603.748Zm1.394-79.156H496.76a1.4,1.4,0,0,0-1.395,1.394v79.156a1.4,1.4,0,0,0,1.395,1.394H605.142a1.393,1.393,0,0,0,1.394-1.394V202.335A1.393,1.393,0,0,0,605.142,200.941ZM603.748,280.1H498.154V203.729H603.748Zm1.394-79.156H496.76a1.4,1.4,0,0,0-1.395,1.394v79.156a1.4,1.4,0,0,0,1.395,1.394H605.142a1.393,1.393,0,0,0,1.394-1.394V202.335A1.393,1.393,0,0,0,605.142,200.941ZM603.748,280.1H498.154V203.729H603.748Zm1.394-79.156H496.76a1.4,1.4,0,0,0-1.395,1.394v79.156a1.4,1.4,0,0,0,1.395,1.394H605.142a1.393,1.393,0,0,0,1.394-1.394V202.335A1.393,1.393,0,0,0,605.142,200.941ZM603.748,280.1H498.154V203.729H603.748Zm1.394-79.156H496.76a1.4,1.4,0,0,0-1.395,1.394v79.156a1.4,1.4,0,0,0,1.395,1.394H605.142a1.393,1.393,0,0,0,1.394-1.394V202.335A1.393,1.393,0,0,0,605.142,200.941ZM603.748,280.1H498.154V203.729H603.748Zm1.394-79.156H496.76a1.4,1.4,0,0,0-1.395,1.394v79.156a1.4,1.4,0,0,0,1.395,1.394H605.142a1.393,1.393,0,0,0,1.394-1.394V202.335A1.393,1.393,0,0,0,605.142,200.941ZM603.748,280.1H498.154V203.729H603.748Zm1.394-79.156H496.76a1.4,1.4,0,0,0-1.395,1.394v79.156a1.4,1.4,0,0,0,1.395,1.394H605.142a1.393,1.393,0,0,0,1.394-1.394V202.335A1.393,1.393,0,0,0,605.142,200.941ZM603.748,280.1H498.154V203.729H603.748Zm1.394-79.156H496.76a1.4,1.4,0,0,0-1.395,1.394v79.156a1.4,1.4,0,0,0,1.395,1.394H605.142a1.393,1.393,0,0,0,1.394-1.394V202.335A1.393,1.393,0,0,0,605.142,200.941ZM603.748,280.1H498.154V203.729H603.748Zm1.394-79.156H496.76a1.4,1.4,0,0,0-1.395,1.394v79.156a1.4,1.4,0,0,0,1.395,1.394H605.142a1.393,1.393,0,0,0,1.394-1.394V202.335A1.393,1.393,0,0,0,605.142,200.941ZM603.748,280.1H498.154V203.729H603.748Z" transform="translate(-488.294 -193.293)" fill="#1d6ea1"/>
        <path id="Trazado_2518" data-name="Trazado 2518" d="M609.494,196.893H494.041a2.3,2.3,0,0,0-2.147,2.425v86.813a2.306,2.306,0,0,0,2.147,2.435H609.494a2.305,2.305,0,0,0,2.138-2.435V199.318A2.3,2.3,0,0,0,609.494,196.893Zm-2.146,85.41a1.393,1.393,0,0,1-1.394,1.394H497.573a1.4,1.4,0,0,1-1.395-1.394V203.147a1.4,1.4,0,0,1,1.395-1.394H605.954a1.392,1.392,0,0,1,1.394,1.394Z" transform="translate(-489.106 -194.105)" fill="#4dd0e1"/>
      </g>
    </g>
    <g id="Grupo_20743" data-name="Grupo 20743" transform="translate(38.295 94.461)">
      <path id="Trazado_2519" data-name="Trazado 2519" d="M586.669,334.416a11.623,11.623,0,0,1-11.607-11.607v-6.143a1.391,1.391,0,0,0-1.394-1.394H546.19a1.392,1.392,0,0,0-1.394,1.394v7.258A10.5,10.5,0,0,1,534.3,334.416a1.4,1.4,0,0,0-1.394,1.394V343.2a1.4,1.4,0,0,0,1.394,1.394h52.364a1.4,1.4,0,0,0,1.394-1.394V335.81A1.4,1.4,0,0,0,586.669,334.416ZM535.7,341.8v-4.665a13.312,13.312,0,0,0,11.885-13.214v-5.864h24.69v4.749a14.41,14.41,0,0,0,13,14.329V341.8Z" transform="translate(-532.911 -315.273)" fill="#1d6ea1"/>
    </g>
    <g id="Grupo_20744" data-name="Grupo 20744" transform="translate(23.839 13.942)">
      <path id="Trazado_2520" data-name="Trazado 2520" d="M520.242,224.69a1.39,1.39,0,0,1-1.053-.48l-4.6-5.3a1.4,1.4,0,0,1,0-1.828l4.6-5.3a1.394,1.394,0,1,1,2.1,1.828l-3.811,4.389,3.811,4.388a1.394,1.394,0,0,1-1.052,2.308Z" transform="translate(-514.243 -211.297)" fill="#1d6ea1"/>
    </g>
    <g id="Grupo_20745" data-name="Grupo 20745" transform="translate(61.95 13.942)">
      <path id="Trazado_2521" data-name="Trazado 2521" d="M564.85,224.69a1.394,1.394,0,0,1-1.052-2.308l3.812-4.388-3.812-4.388a1.394,1.394,0,0,1,2.105-1.828l4.6,5.3a1.4,1.4,0,0,1,0,1.828l-4.6,5.3A1.391,1.391,0,0,1,564.85,224.69Z" transform="translate(-563.457 -211.297)" fill="#1d6ea1"/>
    </g>
    <g id="Grupo_20746" data-name="Grupo 20746" transform="translate(93.187 22.166)">
      <path id="Trazado_2522" data-name="Trazado 2522" d="M615.419,224.023l-5.5,9.2a1.376,1.376,0,0,1-1.19.678,1.421,1.421,0,0,1-1.2-.678l-3.541-5.938a1.394,1.394,0,0,1,2.4-1.422l2.342,3.922,4.294-7.193a1.4,1.4,0,0,1,2.4,1.432Z" transform="translate(-603.794 -221.917)" fill="#1d6ea1"/>
    </g>
    <g id="Grupo_20747" data-name="Grupo 20747" transform="translate(85.288 15.621)">
      <path id="Trazado_2523" data-name="Trazado 2523" d="M618.917,213.465H594.988a1.392,1.392,0,0,0-1.394,1.394v23.928a1.392,1.392,0,0,0,1.394,1.395h23.929a1.392,1.392,0,0,0,1.394-1.395V214.859A1.392,1.392,0,0,0,618.917,213.465Zm-1.394,23.928H596.382v-21.14h21.141Z" transform="translate(-593.594 -213.465)" fill="#1d6ea1"/>
      <path id="Trazado_2524" data-name="Trazado 2524" d="M597.194,217.065v21.14h21.141v-21.14Zm16.736,5.864-5.5,9.2a1.376,1.376,0,0,1-1.189.678,1.421,1.421,0,0,1-1.2-.678l-3.54-5.938a1.394,1.394,0,0,1,2.4-1.422l2.342,3.922,4.294-7.193a1.4,1.4,0,0,1,2.4,1.432Z" transform="translate(-594.406 -214.277)" fill="#6bd6c4"/>
    </g>
    <g id="Grupo_20748" data-name="Grupo 20748" transform="translate(93.187 60.087)">
      <path id="Trazado_2525" data-name="Trazado 2525" d="M615.419,272.995l-5.5,9.2a1.4,1.4,0,0,1-1.19.678h-.009a1.4,1.4,0,0,1-1.189-.678l-3.541-5.938a1.394,1.394,0,0,1,2.4-1.422l2.342,3.922,4.294-7.193a1.4,1.4,0,1,1,2.4,1.431Z" transform="translate(-603.794 -270.885)" fill="#1d6ea1"/>
    </g>
    <g id="Grupo_20749" data-name="Grupo 20749" transform="translate(85.288 53.545)">
      <path id="Trazado_2526" data-name="Trazado 2526" d="M618.917,262.437H594.988a1.392,1.392,0,0,0-1.394,1.394V287.76a1.392,1.392,0,0,0,1.394,1.394h23.929a1.392,1.392,0,0,0,1.394-1.394V263.831A1.392,1.392,0,0,0,618.917,262.437Zm-1.394,23.929H596.382V265.225h21.141Z" transform="translate(-593.594 -262.437)" fill="#1d6ea1"/>
      <path id="Trazado_2527" data-name="Trazado 2527" d="M597.194,266.037v21.141h21.141V266.037ZM613.93,271.9l-5.5,9.2a1.4,1.4,0,0,1-1.189.678h-.009a1.4,1.4,0,0,1-1.19-.678l-3.54-5.938a1.394,1.394,0,0,1,2.4-1.422l2.342,3.922,4.294-7.193a1.4,1.4,0,1,1,2.4,1.431Z" transform="translate(-594.406 -263.249)" fill="#6bd6c4"/>
    </g>
    <g id="Grupo_20750" data-name="Grupo 20750" transform="translate(32.934 39.448)">
      <path id="Trazado_2528" data-name="Trazado 2528" d="M550.882,244.233h-23.5a1.4,1.4,0,0,0-1.394,1.394v23.5a1.4,1.4,0,0,0,1.394,1.394h23.5a1.393,1.393,0,0,0,1.394-1.394v-23.5A1.393,1.393,0,0,0,550.882,244.233Zm-22.108,23.5V247.021h20.714v20.714Z" transform="translate(-525.987 -244.233)" fill="#1d6ea1"/>
      <path id="Trazado_2529" data-name="Trazado 2529" d="M529.586,247.833v20.714H550.3V247.833Zm16.691,15.3a1.392,1.392,0,0,1-1.395,1.394H535a1.4,1.4,0,0,1-1.394-1.394v-9.878A1.4,1.4,0,0,1,535,251.857h9.877a1.392,1.392,0,0,1,1.395,1.394Z" transform="translate(-526.799 -245.045)" fill="#6bd6c4"/>
    </g>
    <g id="Grupo_20751" data-name="Grupo 20751" transform="translate(23.839 19.245)">
      <path id="Trazado_2530" data-name="Trazado 2530" d="M557.828,220.933H515.637a1.394,1.394,0,1,1,0-2.788h42.191a1.394,1.394,0,1,1,0,2.788Z" transform="translate(-514.243 -218.145)" fill="#1d6ea1"/>
    </g>
    <g id="Grupo_20752" data-name="Grupo 20752" transform="translate(0 120.992)">
      <path id="Trazado_2531" data-name="Trazado 2531" d="M616.484,349.533H484.853a1.392,1.392,0,0,0-1.394,1.394v10.166a1.392,1.392,0,0,0,1.394,1.394H616.484a1.392,1.392,0,0,0,1.395-1.394V350.927A1.392,1.392,0,0,0,616.484,349.533ZM615.091,359.7H486.247v-7.378H615.091Z" transform="translate(-483.459 -349.533)" fill="#1d6ea1"/>
      <rect id="Rect치ngulo_4843" data-name="Rect치ngulo 4843" width="128.844" height="7.378" transform="translate(2.788 2.788)" fill="#4dd0e1"/>
    </g>
    <g id="Grupo_20753" data-name="Grupo 20753" transform="translate(23.11 29.571)">
      <path id="Trazado_2532" data-name="Trazado 2532" d="M524.573,244.144H514.7a1.394,1.394,0,0,1-1.394-1.394v-9.877a1.394,1.394,0,0,1,1.394-1.394h9.877a1.393,1.393,0,0,1,1.394,1.394v9.877A1.393,1.393,0,0,1,524.573,244.144Zm-8.483-2.788h7.089v-7.09H516.09Z" transform="translate(-513.302 -231.479)" fill="#1d6ea1"/>
    </g>
    <g id="Grupo_20754" data-name="Grupo 20754" transform="translate(56.073 29.571)">
      <path id="Trazado_2533" data-name="Trazado 2533" d="M567.139,244.144h-9.877a1.394,1.394,0,0,1-1.394-1.394v-9.877a1.394,1.394,0,0,1,1.394-1.394h9.877a1.394,1.394,0,0,1,1.394,1.394v9.877A1.394,1.394,0,0,1,567.139,244.144Zm-8.483-2.788h7.089v-7.09h-7.089Z" transform="translate(-555.868 -231.479)" fill="#1d6ea1"/>
    </g>
    <g id="Grupo_20755" data-name="Grupo 20755" transform="translate(39.745 46.259)">
      <path id="Trazado_2534" data-name="Trazado 2534" d="M546.054,253.029h-9.877a1.4,1.4,0,0,0-1.394,1.394V264.3a1.4,1.4,0,0,0,1.394,1.394h9.877a1.392,1.392,0,0,0,1.395-1.394v-9.878A1.392,1.392,0,0,0,546.054,253.029Zm-1.393,9.878h-7.09v-7.09h7.09Z" transform="translate(-534.783 -253.029)" fill="#1d6ea1"/>
    </g>
    <g id="Grupo_20756" data-name="Grupo 20756" transform="translate(23.268 62.949)">
      <path id="Trazado_2535" data-name="Trazado 2535" d="M524.776,287.245H514.9a1.393,1.393,0,0,1-1.394-1.394v-9.877a1.393,1.393,0,0,1,1.394-1.394h9.877a1.394,1.394,0,0,1,1.394,1.394v9.877A1.393,1.393,0,0,1,524.776,287.245Zm-8.483-2.788h7.09v-7.089h-7.09Z" transform="translate(-513.505 -274.581)" fill="#1d6ea1"/>
    </g>
    <g id="Grupo_20757" data-name="Grupo 20757" transform="translate(56.23 62.949)">
      <path id="Trazado_2536" data-name="Trazado 2536" d="M567.342,287.245h-9.877a1.393,1.393,0,0,1-1.394-1.394v-9.877a1.393,1.393,0,0,1,1.394-1.394h9.877a1.394,1.394,0,0,1,1.394,1.394v9.877A1.394,1.394,0,0,1,567.342,287.245Zm-8.483-2.788h7.089v-7.089h-7.089Z" transform="translate(-556.071 -274.581)" fill="#1d6ea1"/>
    </g>
    <g id="Grupo_20758" data-name="Grupo 20758" transform="translate(72.092 15.621)">
      <path id="Trazado_2537" data-name="Trazado 2537" d="M585.68,213.465h-7.732a1.392,1.392,0,0,0-1.394,1.394v61.853a1.392,1.392,0,0,0,1.394,1.394h7.732a1.392,1.392,0,0,0,1.395-1.394V214.859A1.392,1.392,0,0,0,585.68,213.465Zm-1.393,61.853h-4.945V216.253h4.945Z" transform="translate(-576.554 -213.465)" fill="#1d6ea1"/>
      <rect id="Rect치ngulo_4844" data-name="Rect치ngulo 4844" width="4.944" height="59.065" transform="translate(2.788 2.787)" fill="#4dd0e1"/>
    </g>
  </g>
</svg>
