<svg xmlns="http://www.w3.org/2000/svg" width="147" height="147" viewBox="0 0 147 147">
  <g id="Grupo_20786" data-name="Grupo 20786" transform="translate(0.429 -0.206)">
    <circle id="Elipse_1205" data-name="Elipse 1205" cx="73.5" cy="73.5" r="73.5" transform="translate(-0.429 0.206)" fill="#c4e1ff"/>
    <g id="Grupo_20785" data-name="Grupo 20785" transform="translate(6.44 7.496)">
      <g id="Grupo_20761" data-name="Grupo 20761" transform="translate(51.974 24.793)">
        <path id="Trazado_2538" data-name="Trazado 2538" d="M1305.876,235.689a1.424,1.424,0,0,0-1.05-.372l-.185.009a1.827,1.827,0,0,1-.224.019,6.512,6.512,0,0,1-6.5-6.5,5.147,5.147,0,0,1,.037-.66,1.389,1.389,0,0,0-1.394-1.533h-38.7a1.39,1.39,0,0,0-1.077.511,1.376,1.376,0,0,0-.28,1.162,6.584,6.584,0,0,1,.139,1.32,6.511,6.511,0,0,1-6.5,6.5,7.442,7.442,0,0,1-1.05-.093,1.386,1.386,0,0,0-1.617,1.375v38.807a1.416,1.416,0,0,0,.455,1.031,1.381,1.381,0,0,0,1.06.353,5.654,5.654,0,0,1,.567-.028,6.523,6.523,0,0,1,6.5,6.5,1.392,1.392,0,0,0,1.395,1.394h38.518a1.4,1.4,0,0,0,1.394-1.533,5.147,5.147,0,0,1-.037-.66,6.512,6.512,0,0,1,6.5-6.5,6.394,6.394,0,0,1,.892.074,1.4,1.4,0,0,0,1.106-.334,1.371,1.371,0,0,0,.483-1.05V236.7A1.392,1.392,0,0,0,1305.876,235.689Zm-3.234,38.4c-.149.019-.3.037-.437.065a3.183,3.183,0,0,0-.427.084,9.243,9.243,0,0,0-3.5,1.617c-.2.158-.409.325-.6.492-.1.093-.205.186-.307.287-.083.084-.167.168-.251.261a3.851,3.851,0,0,0-.325.353c-.093.1-.177.214-.27.325a8.886,8.886,0,0,0-.594.864c-.037.056-.074.111-.111.177-.075.121-.14.242-.205.372s-.13.251-.186.381a5.069,5.069,0,0,0-.223.51,4.479,4.479,0,0,0-.2.53,1.875,1.875,0,0,0-.065.214c-.037.121-.074.242-.1.362-.046.167-.083.335-.121.511-.037.2-.073.39-.092.595s-.047.4-.066.6v.009h-35.824c-.018-.121-.037-.232-.065-.344a2.5,2.5,0,0,0-.093-.465,5.123,5.123,0,0,0-.149-.539l-.139-.418a.288.288,0,0,0-.047-.112,5.415,5.415,0,0,0-.223-.548.132.132,0,0,0-.019-.056c-.055-.112-.112-.223-.158-.335a8.968,8.968,0,0,0-.771-1.245c-.139-.2-.287-.381-.446-.567l-2.676-2.157-.818-.39c-.232-.093-.465-.186-.706-.26s-.493-.149-.743-.214c-.381-.084-.771-.149-1.162-.2l-.26-.028v-35.9a.793.793,0,0,0,.148-.009,4.378,4.378,0,0,0,.493-.028c.214-.019.418-.046.632-.074.131-.019.27-.037.4-.065a9.555,9.555,0,0,0,1.877-.585,2.677,2.677,0,0,0,.372-.167c.121-.056.252-.121.372-.187a9.29,9.29,0,0,0,4.879-8.177,1.469,1.469,0,0,0-.01-.2h35.722v.009c.009.158.028.316.046.474a7.923,7.923,0,0,0,.167.957,5.206,5.206,0,0,0,.139.548,9.1,9.1,0,0,0,1.719,3.28c.083.1.167.2.26.307a.479.479,0,0,0,.065.074c.2.2.391.408.6.595a.068.068,0,0,0,.036.037c.223.2.446.39.688.567.1.074.2.149.307.214.122.084.232.157.353.232a7.462,7.462,0,0,0,1.143.6,3.05,3.05,0,0,0,.4.167,8.179,8.179,0,0,0,1.31.4,3.162,3.162,0,0,0,.316.065.472.472,0,0,0,.111.019,1.336,1.336,0,0,0,.2.037c.1.019.2.036.307.046a1.807,1.807,0,0,1,.214.019v35.926C1303.228,274.022,1302.93,274.049,1302.642,274.087Z" transform="translate(-1247.471 -226.647)" fill="#1d6ea1"/>
      </g>
      <g id="Grupo_20762" data-name="Grupo 20762" transform="translate(88.16 52.942)">
        <path id="Trazado_2539" data-name="Trazado 2539" d="M1315.461,265.785h-19.869a1.394,1.394,0,1,1,0-2.788h19.869a1.394,1.394,0,1,1,0,2.788Z" transform="translate(-1294.198 -262.997)" fill="#1d6ea1"/>
      </g>
      <g id="Grupo_20763" data-name="Grupo 20763" transform="translate(51.973 52.942)">
        <path id="Trazado_2540" data-name="Trazado 2540" d="M1268.475,265.785h-19.611a1.394,1.394,0,1,1,0-2.788h19.611a1.394,1.394,0,1,1,0,2.788Z" transform="translate(-1247.469 -262.997)" fill="#1d6ea1"/>
      </g>
      <g id="Grupo_20764" data-name="Grupo 20764" transform="translate(79.801 60.71)">
        <path id="Trazado_2541" data-name="Trazado 2541" d="M1284.8,295.951a1.394,1.394,0,0,1-1.394-1.394V274.421a1.394,1.394,0,0,1,2.788,0v20.136A1.394,1.394,0,0,1,1284.8,295.951Z" transform="translate(-1283.404 -273.027)" fill="#1d6ea1"/>
      </g>
      <g id="Grupo_20765" data-name="Grupo 20765" transform="translate(79.801 24.789)">
        <path id="Trazado_2542" data-name="Trazado 2542" d="M1284.8,249.563a1.394,1.394,0,0,1-1.394-1.394V228.036a1.394,1.394,0,0,1,2.788,0v20.133A1.394,1.394,0,0,1,1284.8,249.563Z" transform="translate(-1283.404 -226.642)" fill="#1d6ea1"/>
      </g>
      <g id="Grupo_20766" data-name="Grupo 20766" transform="translate(48.899 26.391)">
        <path id="Trazado_2543" data-name="Trazado 2543" d="M1250.636,234.454a1.392,1.392,0,0,1-1.394,1.394,5.747,5.747,0,0,1-5.743-5.743,1.394,1.394,0,1,1,2.788,0,2.962,2.962,0,0,0,2.955,2.955A1.392,1.392,0,0,1,1250.636,234.454Z" transform="translate(-1243.499 -228.711)" fill="#1d6ea1"/>
      </g>
      <g id="Grupo_20767" data-name="Grupo 20767" transform="translate(75.634 52.82)">
        <path id="Trazado_2544" data-name="Trazado 2544" d="M1285.16,268.582a1.392,1.392,0,0,1-1.394,1.394,5.753,5.753,0,0,1-5.743-5.743,1.394,1.394,0,1,1,2.788,0,2.963,2.963,0,0,0,2.955,2.955A1.392,1.392,0,0,1,1285.16,268.582Z" transform="translate(-1278.023 -262.839)" fill="#1d6ea1"/>
      </g>
      <g id="Grupo_20768" data-name="Grupo 20768" transform="translate(72.093 44.921)">
        <path id="Trazado_2545" data-name="Trazado 2545" d="M1291.934,260.658a9.223,9.223,0,0,0-1.672-4.19,9.375,9.375,0,0,0-4.646-3.373,8.67,8.67,0,0,0-1.673-.362,7.469,7.469,0,0,0-1.208-.093,8.842,8.842,0,0,0-1.58.139,9.288,9.288,0,0,0-7.61,7.879,8.208,8.208,0,0,0-.094,1.274,9.09,9.09,0,0,0,.13,1.515,9.281,9.281,0,0,0,7.574,7.629,8.842,8.842,0,0,0,1.58.139,8.693,8.693,0,0,0,1.208-.084,9.141,9.141,0,0,0,3.215-1.031,9.274,9.274,0,0,0,4.739-6.654,9.064,9.064,0,0,0,.13-1.515A8.314,8.314,0,0,0,1291.934,260.658Zm-6.105,6.989a6.5,6.5,0,1,1,3.41-5.715A6.509,6.509,0,0,1,1285.829,267.647Z" transform="translate(-1273.451 -252.639)" fill="#1d6ea1"/>
      </g>
      <g id="Grupo_20769" data-name="Grupo 20769" transform="translate(103.178 25.592)">
        <path id="Trazado_2546" data-name="Trazado 2546" d="M1320.728,233.422a1.392,1.392,0,0,1-1.394,1.394,5.747,5.747,0,0,1-5.743-5.743,1.394,1.394,0,0,1,2.788,0,2.956,2.956,0,0,0,2.955,2.954A1.393,1.393,0,0,1,1320.728,233.422Z" transform="translate(-1313.591 -227.679)" fill="#1d6ea1"/>
      </g>
      <g id="Grupo_20770" data-name="Grupo 20770" transform="translate(48.313 80.847)">
        <path id="Trazado_2547" data-name="Trazado 2547" d="M1249.881,304.774a1.393,1.393,0,0,1-1.395,1.394,5.747,5.747,0,0,1-5.743-5.743,1.394,1.394,0,1,1,2.788,0,2.962,2.962,0,0,0,2.955,2.955A1.393,1.393,0,0,1,1249.881,304.774Z" transform="translate(-1242.743 -299.031)" fill="#1d6ea1"/>
      </g>
      <g id="Grupo_20771" data-name="Grupo 20771" transform="translate(102.592 80.048)">
        <path id="Trazado_2548" data-name="Trazado 2548" d="M1319.972,303.742a1.392,1.392,0,0,1-1.394,1.394,5.747,5.747,0,0,1-5.743-5.743,1.394,1.394,0,0,1,2.788,0,2.957,2.957,0,0,0,2.955,2.955A1.392,1.392,0,0,1,1319.972,303.742Z" transform="translate(-1312.835 -297.999)" fill="#1d6ea1"/>
      </g>
      <g id="Grupo_20772" data-name="Grupo 20772" transform="translate(45.349 18.493)">
        <path id="Trazado_2549" data-name="Trazado 2549" d="M1257.3,225.917a8.8,8.8,0,0,0-.3-1.106,9.319,9.319,0,0,0-5.919-5.836,9.153,9.153,0,0,0-2.871-.465,9.282,9.282,0,0,0-2.667,18.177,8.246,8.246,0,0,0,1.172.279,9.566,9.566,0,0,0,1.5.13h.122a.794.794,0,0,0,.148-.009,4.371,4.371,0,0,0,.493-.028c.214-.019.418-.046.632-.074.131-.019.27-.037.4-.065a9.555,9.555,0,0,0,1.877-.585,2.669,2.669,0,0,0,.372-.167c.121-.056.252-.121.372-.187a9.291,9.291,0,0,0,4.879-8.177v-.2A10.567,10.567,0,0,0,1257.3,225.917Zm-6,7.611a6.473,6.473,0,0,1-3.085.781,7.439,7.439,0,0,1-1.05-.093,6.5,6.5,0,1,1,5.892-10.752,6.5,6.5,0,0,1-1.756,10.064Z" transform="translate(-1238.915 -218.511)" fill="#1d6ea1"/>
      </g>
      <g id="Grupo_20773" data-name="Grupo 20773" transform="translate(99.628 17.693)">
        <path id="Trazado_2550" data-name="Trazado 2550" d="M1325.818,221.317a9.287,9.287,0,0,0-16.764,4.516c-.028.307-.047.622-.047.939,0,.2.01.4.019.595v.009c.009.158.028.316.046.474a7.947,7.947,0,0,0,.168.957,5.236,5.236,0,0,0,.139.548,9.1,9.1,0,0,0,1.719,3.28c.083.1.167.2.26.307a.462.462,0,0,0,.065.074c.2.2.39.408.6.595a.068.068,0,0,0,.036.037c.223.2.446.39.688.567.1.074.2.149.307.214.121.084.232.157.353.232a7.455,7.455,0,0,0,1.143.6,3.052,3.052,0,0,0,.4.167,8.18,8.18,0,0,0,1.31.4,3.146,3.146,0,0,0,.316.065.471.471,0,0,0,.111.019,1.337,1.337,0,0,0,.2.037c.1.019.2.036.307.046a1.8,1.8,0,0,1,.214.019c.288.028.595.046.892.046a3.744,3.744,0,0,0,.455-.028l.139-.009a10.156,10.156,0,0,0,1.3-.167,8.984,8.984,0,0,0,2.518-.911,9.3,9.3,0,0,0,3.1-13.632Zm-4.433,11.179a6.462,6.462,0,0,1-2.676.753l-.185.009a1.827,1.827,0,0,1-.224.019,6.512,6.512,0,0,1-6.5-6.5,5.169,5.169,0,0,1,.037-.66,6.5,6.5,0,1,1,9.553,6.384Z" transform="translate(-1309.007 -217.479)" fill="#1d6ea1"/>
      </g>
      <g id="Grupo_20774" data-name="Grupo 20774" transform="translate(44.763 72.952)">
        <path id="Trazado_2551" data-name="Trazado 2551" d="M1256.633,296.731c-.019-.121-.037-.232-.065-.344a2.5,2.5,0,0,0-.093-.465,5.153,5.153,0,0,0-.149-.539l-.14-.418a.286.286,0,0,0-.046-.112,5.5,5.5,0,0,0-.223-.548.13.13,0,0,0-.019-.056c-.055-.112-.111-.223-.158-.335a9,9,0,0,0-.771-1.245c-.139-.2-.287-.381-.446-.567a9.05,9.05,0,0,0-2.677-2.157l-.818-.389c-.232-.093-.465-.186-.706-.26s-.492-.149-.743-.214a9.158,9.158,0,0,0-4.21-.009,9.285,9.285,0,0,0,2.082,18.335,9.283,9.283,0,0,0,9.181-7.89,8.763,8.763,0,0,0,0-2.788Zm-6.1,7.118a6.573,6.573,0,0,1-3.085.771,6.5,6.5,0,0,1-.567-12.973c.186-.009.372-.028.567-.028a6.5,6.5,0,0,1,3.085,12.229Z" transform="translate(-1238.159 -288.835)" fill="#1d6ea1"/>
      </g>
      <g id="Grupo_20775" data-name="Grupo 20775" transform="translate(99.042 72.149)">
        <path id="Trazado_2552" data-name="Trazado 2552" d="M1325.062,291.637a9.269,9.269,0,0,0-4.646-3.373,2.03,2.03,0,0,0-.391-.1,7.435,7.435,0,0,0-1.2-.26,9.023,9.023,0,0,0-1.282-.1c-.1,0-.2,0-.307.009-.3.009-.594.037-.883.074-.149.019-.3.037-.437.065a3.185,3.185,0,0,0-.427.084,9.244,9.244,0,0,0-3.5,1.617c-.2.158-.409.325-.6.492-.1.093-.205.186-.308.287-.083.084-.167.168-.251.261a3.884,3.884,0,0,0-.325.353c-.093.1-.177.214-.269.325a8.938,8.938,0,0,0-.595.864c-.037.056-.074.112-.111.177-.075.121-.14.242-.205.372s-.13.251-.186.381a5.064,5.064,0,0,0-.223.51,4.564,4.564,0,0,0-.2.53,1.875,1.875,0,0,0-.065.214c-.037.121-.074.242-.1.362-.046.167-.083.335-.121.511-.037.2-.073.39-.092.595s-.047.4-.066.6v.009c-.009.2-.019.39-.019.595,0,.316.019.632.047.939a9.4,9.4,0,0,0,.214,1.255,9.259,9.259,0,0,0,9.032,7.1,9.28,9.28,0,0,0,9.284-9.293A9.242,9.242,0,0,0,1325.062,291.637Zm-4.433,11.179a6.5,6.5,0,0,1-9.553-5.065,5.146,5.146,0,0,1-.037-.66,6.512,6.512,0,0,1,6.5-6.5,6.39,6.39,0,0,1,.892.074,6.823,6.823,0,0,1,1.115.252,6.5,6.5,0,0,1,1.078,11.9Z" transform="translate(-1308.251 -287.799)" fill="#1d6ea1"/>
      </g>
      <g id="Grupo_20776" data-name="Grupo 20776" transform="translate(53.991 104.525)">
        <path id="Trazado_2553" data-name="Trazado 2553" d="M1275.667,329.607h-24.2a1.4,1.4,0,0,0-1.394,1.394v12.415a1.392,1.392,0,0,0,1.394,1.394h24.2a1.392,1.392,0,0,0,1.394-1.394V331A1.4,1.4,0,0,0,1275.667,329.607Zm-1.394,12.415h-21.411v-9.627h21.411Z" transform="translate(-1250.075 -329.607)" fill="#1d6ea1"/>
      </g>
      <g id="Grupo_20777" data-name="Grupo 20777" transform="translate(39.736 116.94)">
        <path id="Trazado_2554" data-name="Trazado 2554" d="M1278.707,345.639h-39.569a7.467,7.467,0,1,0,0,14.934h39.569a7.467,7.467,0,1,0,0-14.934Zm0,12.146h-39.569a4.679,4.679,0,1,1,0-9.358h39.569a4.679,4.679,0,1,1,0,9.358Z" transform="translate(-1231.667 -345.639)" fill="#1d6ea1"/>
        <path id="Trazado_2555" data-name="Trazado 2555" d="M1284.2,353.923a4.686,4.686,0,0,1-4.684,4.674h-39.569a4.679,4.679,0,1,1,0-9.358h39.569A4.688,4.688,0,0,1,1284.2,353.923Z" transform="translate(-1232.479 -346.451)" fill="#2ec7e6"/>
      </g>
      <g id="Grupo_20779" data-name="Grupo 20779" transform="translate(0)">
        <g id="Grupo_20778" data-name="Grupo 20778">
          <path id="Trazado_2556" data-name="Trazado 2556" d="M1305.287,202.288H1189.406a1.4,1.4,0,0,0-1.394,1.394v89.211a1.392,1.392,0,0,0,1.394,1.394h115.881a1.393,1.393,0,0,0,1.395-1.394V203.682A1.4,1.4,0,0,0,1305.287,202.288Zm-1.393,89.211H1190.8V205.076h113.094Zm1.393-89.211H1189.406a1.4,1.4,0,0,0-1.394,1.394v89.211a1.392,1.392,0,0,0,1.394,1.394h115.881a1.393,1.393,0,0,0,1.395-1.394V203.682A1.4,1.4,0,0,0,1305.287,202.288Zm-1.393,89.211H1190.8V205.076h113.094Zm1.393-89.211H1189.406a1.4,1.4,0,0,0-1.394,1.394v89.211a1.392,1.392,0,0,0,1.394,1.394h115.881a1.393,1.393,0,0,0,1.395-1.394V203.682A1.4,1.4,0,0,0,1305.287,202.288Zm-1.393,89.211H1190.8V205.076h113.094Zm1.393-89.211H1189.406a1.4,1.4,0,0,0-1.394,1.394v89.211a1.392,1.392,0,0,0,1.394,1.394h115.881a1.393,1.393,0,0,0,1.395-1.394V203.682A1.4,1.4,0,0,0,1305.287,202.288Zm-1.393,89.211H1190.8V205.076h113.094Zm1.393-89.211H1189.406a1.4,1.4,0,0,0-1.394,1.394v89.211a1.392,1.392,0,0,0,1.394,1.394h115.881a1.393,1.393,0,0,0,1.395-1.394V203.682A1.4,1.4,0,0,0,1305.287,202.288Zm-1.393,89.211H1190.8V205.076h113.094Zm1.393-89.211H1189.406a1.4,1.4,0,0,0-1.394,1.394v89.211a1.392,1.392,0,0,0,1.394,1.394h115.881a1.393,1.393,0,0,0,1.395-1.394V203.682A1.4,1.4,0,0,0,1305.287,202.288Zm-1.393,89.211H1190.8V205.076h113.094Zm1.393-89.211H1189.406a1.4,1.4,0,0,0-1.394,1.394v89.211a1.392,1.392,0,0,0,1.394,1.394h115.881a1.393,1.393,0,0,0,1.395-1.394V203.682A1.4,1.4,0,0,0,1305.287,202.288Zm-1.393,89.211H1190.8V205.076h113.094Zm1.393-89.211H1189.406a1.4,1.4,0,0,0-1.394,1.394v89.211a1.392,1.392,0,0,0,1.394,1.394h115.881a1.393,1.393,0,0,0,1.395-1.394V203.682A1.4,1.4,0,0,0,1305.287,202.288Zm-1.393,89.211H1190.8V205.076h113.094Zm1.393-89.211H1189.406a1.4,1.4,0,0,0-1.394,1.394v89.211a1.392,1.392,0,0,0,1.394,1.394h115.881a1.393,1.393,0,0,0,1.395-1.394V203.682A1.4,1.4,0,0,0,1305.287,202.288Zm-1.393,89.211H1190.8V205.076h113.094Zm1.393-89.211H1189.406a1.4,1.4,0,0,0-1.394,1.394v89.211a1.392,1.392,0,0,0,1.394,1.394h115.881a1.393,1.393,0,0,0,1.395-1.394V203.682A1.4,1.4,0,0,0,1305.287,202.288Zm-1.393,89.211H1190.8V205.076h113.094Zm5.222-96.868H1185.578a5.233,5.233,0,0,0-5.223,5.223v96.868a5.228,5.228,0,0,0,5.223,5.223h123.538a5.234,5.234,0,0,0,5.223-5.223V199.854A5.24,5.24,0,0,0,1309.115,194.631Zm2.435,102.09a2.437,2.437,0,0,1-2.435,2.435H1185.578a2.438,2.438,0,0,1-2.435-2.435V199.854a2.444,2.444,0,0,1,2.435-2.435h123.538a2.443,2.443,0,0,1,2.435,2.435Zm-6.263-94.433H1189.406a1.4,1.4,0,0,0-1.394,1.394v89.211a1.392,1.392,0,0,0,1.394,1.394h115.881a1.393,1.393,0,0,0,1.395-1.394V203.682A1.4,1.4,0,0,0,1305.287,202.288Zm-1.393,89.211H1190.8V205.076h113.094Zm1.393-89.211H1189.406a1.4,1.4,0,0,0-1.394,1.394v89.211a1.392,1.392,0,0,0,1.394,1.394h115.881a1.393,1.393,0,0,0,1.395-1.394V203.682A1.4,1.4,0,0,0,1305.287,202.288Zm-1.393,89.211H1190.8V205.076h113.094Zm1.393-89.211H1189.406a1.4,1.4,0,0,0-1.394,1.394v89.211a1.392,1.392,0,0,0,1.394,1.394h115.881a1.393,1.393,0,0,0,1.395-1.394V203.682A1.4,1.4,0,0,0,1305.287,202.288Zm-1.393,89.211H1190.8V205.076h113.094Zm1.393-89.211H1189.406a1.4,1.4,0,0,0-1.394,1.394v89.211a1.392,1.392,0,0,0,1.394,1.394h115.881a1.393,1.393,0,0,0,1.395-1.394V203.682A1.4,1.4,0,0,0,1305.287,202.288Zm-1.393,89.211H1190.8V205.076h113.094Zm1.393-89.211H1189.406a1.4,1.4,0,0,0-1.394,1.394v89.211a1.392,1.392,0,0,0,1.394,1.394h115.881a1.393,1.393,0,0,0,1.395-1.394V203.682A1.4,1.4,0,0,0,1305.287,202.288Zm-1.393,89.211H1190.8V205.076h113.094Zm1.393-89.211H1189.406a1.4,1.4,0,0,0-1.394,1.394v89.211a1.392,1.392,0,0,0,1.394,1.394h115.881a1.393,1.393,0,0,0,1.395-1.394V203.682A1.4,1.4,0,0,0,1305.287,202.288Zm-1.393,89.211H1190.8V205.076h113.094Zm1.393-89.211H1189.406a1.4,1.4,0,0,0-1.394,1.394v89.211a1.392,1.392,0,0,0,1.394,1.394h115.881a1.393,1.393,0,0,0,1.395-1.394V203.682A1.4,1.4,0,0,0,1305.287,202.288Zm-1.393,89.211H1190.8V205.076h113.094Zm1.393-89.211H1189.406a1.4,1.4,0,0,0-1.394,1.394v89.211a1.392,1.392,0,0,0,1.394,1.394h115.881a1.393,1.393,0,0,0,1.395-1.394V203.682A1.4,1.4,0,0,0,1305.287,202.288Zm-1.393,89.211H1190.8V205.076h113.094Zm1.393-89.211H1189.406a1.4,1.4,0,0,0-1.394,1.394v89.211a1.392,1.392,0,0,0,1.394,1.394h115.881a1.393,1.393,0,0,0,1.395-1.394V203.682A1.4,1.4,0,0,0,1305.287,202.288Zm-1.393,89.211H1190.8V205.076h113.094Z" transform="translate(-1180.355 -194.631)" fill="#1d6ea1"/>
          <path id="Trazado_2557" data-name="Trazado 2557" d="M1309.928,198.231H1186.39a2.443,2.443,0,0,0-2.435,2.435v96.868a2.437,2.437,0,0,0,2.435,2.435h123.538a2.437,2.437,0,0,0,2.435-2.435V200.666A2.443,2.443,0,0,0,1309.928,198.231Zm-2.434,95.474a1.393,1.393,0,0,1-1.395,1.394H1190.218a1.392,1.392,0,0,1-1.394-1.394V204.494a1.4,1.4,0,0,1,1.394-1.394H1306.1a1.4,1.4,0,0,1,1.395,1.394Z" transform="translate(-1181.167 -195.443)" fill="#2ec7e6"/>
          <path id="Trazado_2558" data-name="Trazado 2558" d="M1320.363,291.724a6.832,6.832,0,0,0-1.115-.252,6.394,6.394,0,0,0-.892-.074,6.512,6.512,0,0,0-6.5,6.5,5.147,5.147,0,0,0,.037.66,6.5,6.5,0,1,0,8.475-6.839Zm-2.007,11.923a5.747,5.747,0,0,1-5.743-5.743,1.394,1.394,0,1,1,2.788,0,2.957,2.957,0,0,0,2.955,2.955,1.394,1.394,0,0,1,0,2.788Z" transform="translate(-1210.021 -216.462)" fill="#6bd6c4"/>
          <path id="Trazado_2559" data-name="Trazado 2559" d="M1250.281,292.756a6.54,6.54,0,0,0-2.016-.325,5.64,5.64,0,0,0-.567.028,6.509,6.509,0,1,0,2.583.3Zm-2.016,11.923a5.747,5.747,0,0,1-5.743-5.743,1.394,1.394,0,0,1,2.788,0,2.963,2.963,0,0,0,2.955,2.955,1.394,1.394,0,1,1,0,2.788Z" transform="translate(-1194.208 -216.695)" fill="#6bd6c4"/>
          <path id="Trazado_2560" data-name="Trazado 2560" d="M1255.385,227.3a6.572,6.572,0,0,0-1.524-3.02,6.449,6.449,0,0,0-2.825-1.84,6.5,6.5,0,1,0-3.066,12.592,7.436,7.436,0,0,0,1.05.093,6.511,6.511,0,0,0,6.5-6.5A6.566,6.566,0,0,0,1255.385,227.3Zm-6.365,7.063a5.747,5.747,0,0,1-5.743-5.743,1.394,1.394,0,1,1,2.788,0,2.962,2.962,0,0,0,2.955,2.955,1.394,1.394,0,0,1,0,2.788Z" transform="translate(-1194.379 -200.831)" fill="#6bd6c4"/>
          <path id="Trazado_2561" data-name="Trazado 2561" d="M1321.119,221.4a6.479,6.479,0,0,0-8.475,5.52,5.169,5.169,0,0,0-.037.66,6.512,6.512,0,0,0,6.5,6.5,1.825,1.825,0,0,0,.224-.019l.185-.009a6.493,6.493,0,0,0,1.6-12.657Zm-2.007,11.923a5.747,5.747,0,0,1-5.743-5.743,1.394,1.394,0,1,1,2.788,0,2.956,2.956,0,0,0,2.955,2.954,1.394,1.394,0,0,1,0,2.789Z" transform="translate(-1210.192 -200.598)" fill="#6bd6c4"/>
          <path id="Trazado_2562" data-name="Trazado 2562" d="M1285.563,256.564a6.5,6.5,0,1,0,4.489,6.18A6.471,6.471,0,0,0,1285.563,256.564Zm-2.017,11.923a5.753,5.753,0,0,1-5.743-5.743,1.394,1.394,0,1,1,2.788,0,2.963,2.963,0,0,0,2.955,2.955,1.394,1.394,0,1,1,0,2.788Z" transform="translate(-1202.17 -208.53)" fill="#2ec7e6"/>
        </g>
      </g>
      <g id="Grupo_20780" data-name="Grupo 20780" transform="translate(16.058 17.618)">
        <path id="Trazado_2563" data-name="Trazado 2563" d="M1223.254,217.382h-20.77a1.393,1.393,0,0,0-1.394,1.394v8.5a1.392,1.392,0,0,0,1.394,1.394h20.77a1.392,1.392,0,0,0,1.394-1.394v-8.5A1.392,1.392,0,0,0,1223.254,217.382Zm-1.394,8.5h-17.981v-5.715h17.981Z" transform="translate(-1201.091 -217.382)" fill="#1d6ea1"/>
        <rect id="Rect치ngulo_4845" data-name="Rect치ngulo 4845" width="17.982" height="5.715" transform="translate(2.788 2.788)" fill="#2ec7e6"/>
      </g>
      <g id="Grupo_20781" data-name="Grupo 20781" transform="translate(16.058 32.999)">
        <path id="Trazado_2564" data-name="Trazado 2564" d="M1223.254,237.243h-20.77a1.4,1.4,0,0,0-1.394,1.394v8.512a1.4,1.4,0,0,0,1.394,1.394h20.77a1.4,1.4,0,0,0,1.394-1.394v-8.512A1.4,1.4,0,0,0,1223.254,237.243Zm-1.394,8.512h-17.981v-5.724h17.981Z" transform="translate(-1201.091 -237.243)" fill="#1d6ea1"/>
        <rect id="Rect치ngulo_4846" data-name="Rect치ngulo 4846" width="17.982" height="5.724" transform="translate(2.788 2.788)" fill="#2ec7e6"/>
      </g>
      <g id="Grupo_20782" data-name="Grupo 20782" transform="translate(16.055 48.386)">
        <path id="Trazado_2565" data-name="Trazado 2565" d="M1223.25,268.405h-20.769a1.393,1.393,0,0,1-1.394-1.394v-8.5a1.394,1.394,0,0,1,1.394-1.394h20.769a1.394,1.394,0,0,1,1.394,1.394v8.5A1.393,1.393,0,0,1,1223.25,268.405Zm-19.375-2.787h17.981V259.9h-17.981Z" transform="translate(-1201.087 -257.113)" fill="#1d6ea1"/>
      </g>
      <g id="Grupo_20783" data-name="Grupo 20783" transform="translate(16.055 63.77)">
        <path id="Trazado_2566" data-name="Trazado 2566" d="M1223.25,288.271h-20.769a1.393,1.393,0,0,1-1.394-1.394v-8.5a1.393,1.393,0,0,1,1.394-1.394h20.769a1.393,1.393,0,0,1,1.394,1.394v8.5A1.393,1.393,0,0,1,1223.25,288.271Zm-19.375-2.788h17.981v-5.717h-17.981Z" transform="translate(-1201.087 -276.979)" fill="#1d6ea1"/>
      </g>
      <g id="Grupo_20784" data-name="Grupo 20784" transform="translate(16.055 79.154)">
        <path id="Trazado_2567" data-name="Trazado 2567" d="M1223.25,308.137h-20.769a1.394,1.394,0,0,1-1.394-1.394v-8.5a1.393,1.393,0,0,1,1.394-1.394h20.769a1.393,1.393,0,0,1,1.394,1.394v8.5A1.394,1.394,0,0,1,1223.25,308.137Zm-19.375-2.788h17.981v-5.717h-17.981Z" transform="translate(-1201.087 -296.845)" fill="#1d6ea1"/>
      </g>
    </g>
  </g>
</svg>
