<svg id="Grupo_20801" data-name="Grupo 20801" xmlns="http://www.w3.org/2000/svg" width="146.864" height="146.864" viewBox="0 0 146.864 146.864">
  <circle id="Elipse_1206" data-name="Elipse 1206" cx="73.432" cy="73.432" r="73.432" transform="translate(0)" fill="#c4e1ff"/>
  <g id="Grupo_20800" data-name="Grupo 20800" transform="translate(6.194 6.592)">
    <g id="Grupo_20787" data-name="Grupo 20787" transform="translate(31.791 44.765)">
      <path id="Trazado_2568" data-name="Trazado 2568" d="M914.72,258.461A37.43,37.43,0,0,0,901.1,261l1.868-6.366a1.392,1.392,0,0,0-.939-1.728l-5.343-1.58a1.424,1.424,0,0,0-1.069.121,1.38,1.38,0,0,0-.669.827l-4.656,15.816a4.182,4.182,0,0,0,2.825,5.195l15.816,4.656a1.391,1.391,0,0,0,1.728-.939l1.58-5.353a1.4,1.4,0,0,0-.112-1.059,1.372,1.372,0,0,0-.836-.669l-5.65-1.663a29.405,29.405,0,1,1-20.221,30.452,8.348,8.348,0,1,0-8.373.121,37.764,37.764,0,1,0,37.673-40.368Zm0,72.744a34.9,34.9,0,0,1-34.932-33.333,1.409,1.409,0,0,0-.846-1.217,5.572,5.572,0,1,1,4.461-.037,1.4,1.4,0,0,0-.827,1.347,32.19,32.19,0,1,0,32.144-33.928A31.8,31.8,0,0,0,900.8,267.2a1.392,1.392,0,0,0,.2,2.593l8.168,2.407-.79,2.676L893.9,270.607a1.38,1.38,0,0,1-.827-.669,1.362,1.362,0,0,1-.111-1.059l4.265-14.478,2.667.781-2.323,7.89a1.4,1.4,0,0,0,.437,1.459,1.412,1.412,0,0,0,1.505.2,34.637,34.637,0,0,1,15.2-3.476,34.978,34.978,0,0,1,0,69.956Z" transform="translate(-872.782 -251.271)" fill="#1d6ea1"/>
    </g>
    <g id="Grupo_20788" data-name="Grupo 20788" transform="translate(66.341 83.207)">
      <path id="Trazado_2569" data-name="Trazado 2569" d="M934.971,309.7a8.786,8.786,0,0,1-17.573,0,1.394,1.394,0,1,1,2.788,0,6,6,0,1,0,6-6,1.394,1.394,0,0,1,0-2.788A8.794,8.794,0,0,1,934.971,309.7Z" transform="translate(-917.398 -300.912)" fill="#1d6ea1"/>
    </g>
    <g id="Grupo_20789" data-name="Grupo 20789" transform="translate(54.437 71.441)">
      <path id="Trazado_2570" data-name="Trazado 2570" d="M943,305.076a1.406,1.406,0,0,0-.994-.4l-3.113.028a16.731,16.731,0,0,0-.52-2.853l2.946-1.087a1.4,1.4,0,0,0,.827-1.784,20.546,20.546,0,0,0-3.624-6.208,1.387,1.387,0,0,0-1.961-.158l-2.4,2.017a16.68,16.68,0,0,0-2.2-1.831l1.561-2.723a1.359,1.359,0,0,0,.14-1.059,1.337,1.337,0,0,0-.651-.836,20.461,20.461,0,0,0-6.765-2.444,1.391,1.391,0,0,0-1.608,1.143l-.53,3.085a14.828,14.828,0,0,0-2.871,0l-.548-3.076a1.422,1.422,0,0,0-.567-.9,1.4,1.4,0,0,0-1.05-.223,20.415,20.415,0,0,0-6.746,2.472,1.385,1.385,0,0,0-.5,1.905l1.58,2.714a16.145,16.145,0,0,0-2.193,1.849l-2.407-2.017a1.4,1.4,0,0,0-1.961.177,20.641,20.641,0,0,0-3.587,6.226,1.463,1.463,0,0,0,.047,1.069,1.439,1.439,0,0,0,.79.725l2.955,1.059a16.362,16.362,0,0,0-.5,2.825l-3.122.009a1.4,1.4,0,0,0-1.394,1.394,20.764,20.764,0,0,0,1.255,7.072,1.394,1.394,0,0,0,1.793.827l2.946-1.078a16.391,16.391,0,0,0,1.431,2.481l-2.4,2.017a1.459,1.459,0,0,0-.493.948,1.413,1.413,0,0,0,.325,1.022,20.8,20.8,0,0,0,5.5,4.609,1.415,1.415,0,0,0,1.905-.511l1.57-2.723a16.071,16.071,0,0,0,2.695.976l-.539,3.094a1.387,1.387,0,0,0,.232,1.041,1.422,1.422,0,0,0,.9.567,20.791,20.791,0,0,0,3.568.307,21.3,21.3,0,0,0,3.606-.307,1.4,1.4,0,0,0,1.124-1.617l-.539-3.095a15.509,15.509,0,0,0,2.686-.985l1.58,2.723a1.392,1.392,0,0,0,1.905.5,20.907,20.907,0,0,0,5.492-4.609,1.406,1.406,0,0,0,.316-1.022,1.381,1.381,0,0,0-.493-.948l-2.4-2.017a16.388,16.388,0,0,0,1.431-2.481l2.946,1.078a1.393,1.393,0,0,0,1.784-.836,20.668,20.668,0,0,0,1.245-7.137A1.414,1.414,0,0,0,943,305.076Zm-3.03,5.854-2.844-1.041a1.393,1.393,0,0,0-1.784.836,13.645,13.645,0,0,1-2.323,4.042,1.377,1.377,0,0,0-.325,1.013,1.438,1.438,0,0,0,.493.948l2.314,1.942a18.264,18.264,0,0,1-2.639,2.221l-1.515-2.621a1.38,1.38,0,0,0-.846-.651,1.4,1.4,0,0,0-1.059.139,13.2,13.2,0,0,1-4.377,1.6,1.406,1.406,0,0,0-1.134,1.617l.53,2.974a18.574,18.574,0,0,1-3.448.009l.52-2.983a1.389,1.389,0,0,0-1.134-1.608,13.316,13.316,0,0,1-4.377-1.589,1.4,1.4,0,0,0-1.905.5l-1.515,2.63a17.676,17.676,0,0,1-2.639-2.221l2.3-1.942a1.362,1.362,0,0,0,.492-.948,1.377,1.377,0,0,0-.325-1.013,13.556,13.556,0,0,1-2.333-4.042,1.391,1.391,0,0,0-1.784-.827l-2.844,1.041a17.418,17.418,0,0,1-.6-3.392l3.011-.009a1.414,1.414,0,0,0,1.385-1.422,13.449,13.449,0,0,1,.818-4.572,1.354,1.354,0,0,0-.047-1.059,1.409,1.409,0,0,0-.79-.725l-2.844-1.031a17.625,17.625,0,0,1,1.719-2.983l2.314,1.933a1.408,1.408,0,0,0,1.97-.177,13.427,13.427,0,0,1,3.568-3,1.388,1.388,0,0,0,.5-1.905l-1.524-2.621A17.617,17.617,0,0,1,918.2,288.8l.53,2.974a1.4,1.4,0,0,0,.576.9,1.382,1.382,0,0,0,1.041.223,12.7,12.7,0,0,1,4.665-.009,1.369,1.369,0,0,0,1.041-.232,1.4,1.4,0,0,0,.576-.9l.511-2.983a18.621,18.621,0,0,1,3.252,1.171l-1.505,2.63a1.378,1.378,0,0,0,.511,1.9,13.567,13.567,0,0,1,3.587,2.992,1.387,1.387,0,0,0,1.961.158l2.314-1.952a18.379,18.379,0,0,1,1.738,2.983l-2.844,1.041a1.385,1.385,0,0,0-.827,1.793,13.351,13.351,0,0,1,.846,4.628,1.393,1.393,0,0,0,.409.985,1.455,1.455,0,0,0,.994.4l3-.028A17.486,17.486,0,0,1,939.968,310.931Z" transform="translate(-902.026 -285.718)" fill="#1d6ea1"/>
    </g>
    <g id="Grupo_20790" data-name="Grupo 20790" transform="translate(36.047 80.801)">
      <path id="Trazado_2571" data-name="Trazado 2571" d="M882.432,297.8a4.154,4.154,0,1,0,4.154,4.154A4.158,4.158,0,0,0,882.432,297.8Zm0,5.52a1.366,1.366,0,1,1,1.366-1.366A1.368,1.368,0,0,1,882.432,303.324Z" transform="translate(-878.278 -297.804)" fill="#1d6ea1"/>
    </g>
    <g id="Grupo_20791" data-name="Grupo 20791" transform="translate(112.445 39.328)">
      <rect id="Rectángulo_4847" data-name="Rectángulo 4847" width="21.947" height="2.961" rx="1.48" fill="#1d6ea1"/>
    </g>
    <g id="Grupo_20792" data-name="Grupo 20792" transform="translate(119.177 118.465)">
      <path id="Trazado_2572" data-name="Trazado 2572" d="M987.019,361.656a1.394,1.394,0,0,1-1.393-1.394V347.835a1.394,1.394,0,0,1,1.394-1.394h12.427a1.394,1.394,0,0,1,.986,2.38l-12.427,12.428A1.392,1.392,0,0,1,987.019,361.656Zm1.395-12.427V356.9l7.669-7.669Z" transform="translate(-985.626 -346.441)" fill="#1d6ea1"/>
    </g>
    <g id="Grupo_20793" data-name="Grupo 20793">
      <path id="Trazado_2573" data-name="Trazado 2573" d="M945.566,193.464h-93.42a1.418,1.418,0,0,0-.279.028,1.216,1.216,0,0,0-.26.084,1.294,1.294,0,0,0-.446.3,1.4,1.4,0,0,0-.409.985v17.61h-17.6a1.4,1.4,0,0,0-.985.409,1.3,1.3,0,0,0-.3.446.621.621,0,0,0-.056.186.91.91,0,0,0-.056.353l-.028,93.448a1.408,1.408,0,0,0,.409.985,1.392,1.392,0,0,0,.985.409h25.341a1.392,1.392,0,0,0,1.394-1.394l-.084-71.554v-1.1a1.338,1.338,0,0,0,.084-.474V220.013h85.707a1.392,1.392,0,0,0,1.394-1.394V194.858A1.392,1.392,0,0,0,945.566,193.464Zm-87.1,23.762a1.4,1.4,0,0,0-.344.046,1.259,1.259,0,0,0-.409.186,1.406,1.406,0,0,0-.558,1.152v.028c0,.734-.084,15.4-.084,15.565v71.712H834.518l.028-90.66h17.6a1.392,1.392,0,0,0,1.394-1.394v-17.61h90.632v20.974Z" transform="translate(-831.73 -193.464)" fill="#1d6ea1"/>
      <path id="Trazado_2574" data-name="Trazado 2574" d="M944.985,197.064v20.974H859.278a1.4,1.4,0,0,0-.344.046,1.092,1.092,0,0,0-.409.186,1.215,1.215,0,0,0-.558,1.152v.028c0,.734-.083,15.4-.083,15.565v71.712H835.33l.028-90.66h17.6a1.392,1.392,0,0,0,1.394-1.394v-17.61Z" transform="translate(-832.542 -194.276)" fill="#6bd6c4"/>
    </g>
    <path id="Trazado_2575" data-name="Trazado 2575" d="M952.875,242.668c-.056,0-.1-.009-.149-.009l-.112-.028a1.737,1.737,0,0,1-.2-.065,1.213,1.213,0,0,1-.242-.13.837.837,0,0,1-.177-.139,1.526,1.526,0,0,1-.2-.232.874.874,0,0,1-.13-.242.709.709,0,0,1-.056-.186.544.544,0,0,1-.037-.177.573.573,0,0,1-.019-.177v-.177a1.392,1.392,0,0,1,1.394-1.394H867.242v1.394a1.338,1.338,0,0,1-.084.474v1.1l.084,71.554V242.678h85.707a.1.1,0,0,1-.056-.009A.013.013,0,0,1,952.875,242.668Zm0,0c-.056,0-.1-.009-.149-.009l-.112-.028a1.737,1.737,0,0,1-.2-.065,1.213,1.213,0,0,1-.242-.13.837.837,0,0,1-.177-.139,1.526,1.526,0,0,1-.2-.232.874.874,0,0,1-.13-.242.709.709,0,0,1-.056-.186.544.544,0,0,1-.037-.177.573.573,0,0,1-.019-.177v-.177a1.392,1.392,0,0,1,1.394-1.394H867.242v1.394a1.338,1.338,0,0,1-.084.474v1.1l.084,71.554V242.678h85.707a.1.1,0,0,1-.056-.009A.013.013,0,0,1,952.875,242.668Zm0,0c-.056,0-.1-.009-.149-.009l-.112-.028a1.737,1.737,0,0,1-.2-.065,1.213,1.213,0,0,1-.242-.13.837.837,0,0,1-.177-.139,1.526,1.526,0,0,1-.2-.232.874.874,0,0,1-.13-.242.709.709,0,0,1-.056-.186.544.544,0,0,1-.037-.177.573.573,0,0,1-.019-.177v-.177a1.392,1.392,0,0,1,1.394-1.394H867.242v1.394a1.338,1.338,0,0,1-.084.474v1.1l.084,71.554V242.678h85.707a.1.1,0,0,1-.056-.009A.013.013,0,0,1,952.875,242.668Zm0,0c-.056,0-.1-.009-.149-.009l-.112-.028a1.737,1.737,0,0,1-.2-.065,1.213,1.213,0,0,1-.242-.13.837.837,0,0,1-.177-.139,1.526,1.526,0,0,1-.2-.232.874.874,0,0,1-.13-.242.709.709,0,0,1-.056-.186.544.544,0,0,1-.037-.177.573.573,0,0,1-.019-.177v-.177a1.392,1.392,0,0,1,1.394-1.394H867.242v1.394a1.338,1.338,0,0,1-.084.474v1.1l.084,71.554V242.678h85.707a.1.1,0,0,1-.056-.009A.013.013,0,0,1,952.875,242.668Zm19.32-18.521H865.848a1.4,1.4,0,0,0-.344.046,1.09,1.09,0,0,0-.409.186,1.215,1.215,0,0,0-.558,1.152v.028l-.009,15.584v.548c-.009.009-.009.009,0,.019l-.065,73.915-.009,17.043a1.4,1.4,0,0,0,1.394,1.394H959.77a1.371,1.371,0,0,0,1.2-.7,1.27,1.27,0,0,0,.2-.7v-11.03h11.03a1.3,1.3,0,0,0,.678-.186,1.362,1.362,0,0,0,.715-1.208v-94.7A1.392,1.392,0,0,0,972.194,224.148Zm-104.952,2.788H970.8v12.778H867.242Zm92.528,91.915a1.392,1.392,0,0,0-1.394,1.394v11.031H867.242v-88.6H970.8v76.173Zm-6.9-76.182c-.056,0-.1-.009-.149-.009l-.112-.028a1.737,1.737,0,0,1-.2-.065,1.213,1.213,0,0,1-.242-.13.837.837,0,0,1-.177-.139,1.526,1.526,0,0,1-.2-.232.874.874,0,0,1-.13-.242.709.709,0,0,1-.056-.186.544.544,0,0,1-.037-.177.573.573,0,0,1-.019-.177v-.177a1.392,1.392,0,0,1,1.394-1.394H867.242v1.394a1.338,1.338,0,0,1-.084.474v1.1l.084,71.554V242.678h85.707a.1.1,0,0,1-.056-.009A.013.013,0,0,1,952.875,242.668Zm0,0c-.056,0-.1-.009-.149-.009l-.112-.028a1.737,1.737,0,0,1-.2-.065,1.213,1.213,0,0,1-.242-.13.837.837,0,0,1-.177-.139,1.526,1.526,0,0,1-.2-.232.874.874,0,0,1-.13-.242.709.709,0,0,1-.056-.186.544.544,0,0,1-.037-.177.573.573,0,0,1-.019-.177v-.177a1.392,1.392,0,0,1,1.394-1.394H867.242v1.394a1.338,1.338,0,0,1-.084.474v1.1l.084,71.554V242.678h85.707a.1.1,0,0,1-.056-.009A.013.013,0,0,1,952.875,242.668Zm0,0c-.056,0-.1-.009-.149-.009l-.112-.028a1.737,1.737,0,0,1-.2-.065,1.213,1.213,0,0,1-.242-.13.837.837,0,0,1-.177-.139,1.526,1.526,0,0,1-.2-.232.874.874,0,0,1-.13-.242.709.709,0,0,1-.056-.186.544.544,0,0,1-.037-.177.573.573,0,0,1-.019-.177v-.177a1.392,1.392,0,0,1,1.394-1.394H867.242v1.394a1.338,1.338,0,0,1-.084.474v1.1l.084,71.554V242.678h85.707a.1.1,0,0,1-.056-.009A.013.013,0,0,1,952.875,242.668Zm0,0c-.056,0-.1-.009-.149-.009l-.112-.028a1.737,1.737,0,0,1-.2-.065,1.213,1.213,0,0,1-.242-.13.837.837,0,0,1-.177-.139,1.526,1.526,0,0,1-.2-.232.874.874,0,0,1-.13-.242.709.709,0,0,1-.056-.186.544.544,0,0,1-.037-.177.573.573,0,0,1-.019-.177v-.177a1.392,1.392,0,0,1,1.394-1.394H867.242v1.394a1.338,1.338,0,0,1-.084.474v1.1l.084,71.554V242.678h85.707a.1.1,0,0,1-.056-.009A.013.013,0,0,1,952.875,242.668Z" transform="translate(-839.113 -200.386)" fill="#1d6ea1"/>
    <path id="Trazado_2576" data-name="Trazado 2576" d="M915.532,262.161a34.638,34.638,0,0,0-15.2,3.475,1.412,1.412,0,0,1-1.505-.2,1.4,1.4,0,0,1-.437-1.459l2.323-7.89-2.667-.781-4.265,14.478a1.361,1.361,0,0,0,.112,1.059,1.379,1.379,0,0,0,.827.669l14.478,4.265.79-2.676-8.168-2.407a1.392,1.392,0,0,1-.2-2.593,31.8,31.8,0,0,1,13.92-3.16,32.19,32.19,0,1,1-32.144,33.928,1.4,1.4,0,0,1,.827-1.347,5.561,5.561,0,1,0-4.461.037,1.408,1.408,0,0,1,.846,1.217,34.974,34.974,0,1,0,34.932-36.623ZM877.85,292.372A4.154,4.154,0,1,1,882,296.525,4.158,4.158,0,0,1,877.85,292.372Z" transform="translate(-841.804 -207.417)" fill="#2ec7e6"/>
    <path id="Trazado_2577" data-name="Trazado 2577" d="M938.4,308.393a1.455,1.455,0,0,1-.994-.4,1.393,1.393,0,0,1-.409-.985,13.354,13.354,0,0,0-.846-4.628,1.385,1.385,0,0,1,.827-1.793l2.844-1.041a18.382,18.382,0,0,0-1.738-2.983l-2.314,1.951a1.387,1.387,0,0,1-1.961-.158,13.563,13.563,0,0,0-3.587-2.992,1.379,1.379,0,0,1-.511-1.9l1.505-2.63a18.62,18.62,0,0,0-3.253-1.171l-.511,2.983a1.4,1.4,0,0,1-.576.9,1.369,1.369,0,0,1-1.041.232,12.7,12.7,0,0,0-4.665.009,1.382,1.382,0,0,1-1.041-.223,1.4,1.4,0,0,1-.576-.9l-.53-2.974a17.618,17.618,0,0,0-3.243,1.189l1.524,2.621a1.388,1.388,0,0,1-.5,1.905,13.423,13.423,0,0,0-3.568,3,1.408,1.408,0,0,1-1.97.177l-2.314-1.933a17.63,17.63,0,0,0-1.719,2.983l2.844,1.032a1.409,1.409,0,0,1,.79.725,1.354,1.354,0,0,1,.046,1.059,13.446,13.446,0,0,0-.818,4.572,1.414,1.414,0,0,1-1.385,1.422l-3.011.009a17.426,17.426,0,0,0,.6,3.392l2.844-1.041a1.391,1.391,0,0,1,1.784.827,13.55,13.55,0,0,0,2.332,4.042,1.377,1.377,0,0,1,.325,1.013,1.362,1.362,0,0,1-.492.948l-2.3,1.942a17.679,17.679,0,0,0,2.639,2.221l1.515-2.63a1.4,1.4,0,0,1,1.905-.5,13.315,13.315,0,0,0,4.377,1.589,1.39,1.39,0,0,1,1.134,1.608l-.52,2.983a18.576,18.576,0,0,0,3.448-.009l-.53-2.974a1.406,1.406,0,0,1,1.134-1.617,13.2,13.2,0,0,0,4.377-1.6,1.4,1.4,0,0,1,1.059-.139,1.38,1.38,0,0,1,.846.651l1.515,2.621a18.262,18.262,0,0,0,2.639-2.221l-2.314-1.942a1.438,1.438,0,0,1-.493-.948,1.377,1.377,0,0,1,.325-1.013,13.647,13.647,0,0,0,2.323-4.042,1.393,1.393,0,0,1,1.784-.836l2.844,1.041a17.486,17.486,0,0,0,.6-3.457Zm-14.85,7.555a8.794,8.794,0,0,1-8.791-8.782,1.394,1.394,0,1,1,2.788,0,6,6,0,1,0,6-6,1.394,1.394,0,0,1,0-2.788,8.786,8.786,0,0,1,0,17.573Z" transform="translate(-848.417 -215.168)" fill="#6bd6c4"/>
    <g id="Grupo_20794" data-name="Grupo 20794" transform="translate(25.345 39.329)">
      <path id="Trazado_2578" data-name="Trazado 2578" d="M952.788,247.21h-87.1a1.372,1.372,0,0,1-1.23-1.394l.084-.16a1.336,1.336,0,0,1,1.31-1.406h87.1a1.394,1.394,0,0,1,1.394,1.394v.173A1.439,1.439,0,0,1,952.788,247.21Z" transform="translate(-864.459 -244.25)" fill="#1d6ea1"/>
    </g>
    <g id="Grupo_20795" data-name="Grupo 20795" transform="translate(0.028)">
      <path id="Trazado_2579" data-name="Trazado 2579" d="M852.693,193.576a1.366,1.366,0,0,0-.539-.112,1.419,1.419,0,0,0-.279.028,1.217,1.217,0,0,0-.26.084,1.294,1.294,0,0,0-.446.3l-18.995,19a1.293,1.293,0,0,0-.3.446.614.614,0,0,0-.056.186.908.908,0,0,0-.056.353,1.314,1.314,0,0,0,.1.53,1.408,1.408,0,0,0,1.292.864h18.994a1.392,1.392,0,0,0,1.394-1.394v-19A1.387,1.387,0,0,0,852.693,193.576Zm-1.933,18.892H836.524l14.237-14.246Z" transform="translate(-831.766 -193.464)" fill="#1d6ea1"/>
    </g>
    <g id="Grupo_20796" data-name="Grupo 20796" transform="translate(114.914 47.997)">
      <path id="Trazado_2580" data-name="Trazado 2580" d="M992.342,255.444H981.516a1.4,1.4,0,0,0-1.394,1.394v10.817a1.4,1.4,0,0,0,1.394,1.394h10.826a1.4,1.4,0,0,0,1.394-1.394V256.838A1.4,1.4,0,0,0,992.342,255.444Zm-1.394,10.817H982.91v-8.029h8.038Z" transform="translate(-980.122 -255.444)" fill="#1d6ea1"/>
      <rect id="Rectángulo_4848" data-name="Rectángulo 4848" width="8.038" height="8.029" transform="translate(2.788 2.788)" fill="#2ec7e6"/>
    </g>
    <g id="Grupo_20797" data-name="Grupo 20797" transform="translate(114.914 64.91)">
      <path id="Trazado_2581" data-name="Trazado 2581" d="M992.342,277.284H981.516a1.4,1.4,0,0,0-1.394,1.394v10.817a1.4,1.4,0,0,0,1.394,1.394h10.826a1.4,1.4,0,0,0,1.394-1.394V278.678A1.4,1.4,0,0,0,992.342,277.284ZM990.948,288.1H982.91v-8.029h8.038Z" transform="translate(-980.122 -277.284)" fill="#1d6ea1"/>
      <rect id="Rectángulo_4849" data-name="Rectángulo 4849" width="8.038" height="8.029" transform="translate(2.788 2.788)" fill="#2ec7e6"/>
    </g>
    <g id="Grupo_20798" data-name="Grupo 20798" transform="translate(114.914 81.823)">
      <path id="Trazado_2582" data-name="Trazado 2582" d="M992.342,299.124H981.516a1.4,1.4,0,0,0-1.394,1.394v10.817a1.4,1.4,0,0,0,1.394,1.394h10.826a1.4,1.4,0,0,0,1.394-1.394V300.518A1.4,1.4,0,0,0,992.342,299.124Zm-1.394,10.817H982.91v-8.029h8.038Z" transform="translate(-980.122 -299.124)" fill="#1d6ea1"/>
      <rect id="Rectángulo_4850" data-name="Rectángulo 4850" width="8.038" height="8.029" transform="translate(2.788 2.788)" fill="#2ec7e6"/>
    </g>
    <g id="Grupo_20799" data-name="Grupo 20799" transform="translate(114.914 98.736)">
      <path id="Trazado_2583" data-name="Trazado 2583" d="M992.342,320.964H981.516a1.4,1.4,0,0,0-1.394,1.394v10.817a1.4,1.4,0,0,0,1.394,1.394h10.826a1.4,1.4,0,0,0,1.394-1.394V322.358A1.4,1.4,0,0,0,992.342,320.964Zm-1.394,10.817H982.91v-8.029h8.038Z" transform="translate(-980.122 -320.964)" fill="#1d6ea1"/>
      <rect id="Rectángulo_4851" data-name="Rectángulo 4851" width="8.038" height="8.029" transform="translate(2.788 2.788)" fill="#2ec7e6"/>
    </g>
  </g>
</svg>
