<svg xmlns="http://www.w3.org/2000/svg" width="147" height="147" viewBox="0 0 147 147">
  <g id="Grupo_20740" data-name="Grupo 20740" transform="translate(-0.004 -0.205)">
    <circle id="Elipse_1203" data-name="Elipse 1203" cx="73.5" cy="73.5" r="73.5" transform="translate(0.004 0.205)" fill="#c4e1ff"/>
    <g id="Grupo_20739" data-name="Grupo 20739" transform="translate(6.544 6.929)">
      <g id="Grupo_20727" data-name="Grupo 20727" transform="translate(0)">
        <path id="Trazado_2503" data-name="Trazado 2503" d="M258.836,211.211v40.87a1.394,1.394,0,0,1-2.788,0V212.605H241.523a1.392,1.392,0,0,1-1.394-1.394V196.686H138.355V314.38h18.223a1.3,1.3,0,0,1,.874.325,1.255,1.255,0,0,1,.483.762c0,.028.009.046.009.074a.93.93,0,0,1,.028.232,1.4,1.4,0,0,1-1.394,1.394H136.961a1.393,1.393,0,0,1-1.394-1.394V195.293a1.4,1.4,0,0,1,1.394-1.394H241.523a1.259,1.259,0,0,1,.53.112,1.332,1.332,0,0,1,.455.3,1.415,1.415,0,0,1,.409.985v14.525h14.525a1.4,1.4,0,0,1,.985.409,1.332,1.332,0,0,1,.3.455A1.259,1.259,0,0,1,258.836,211.211Z" transform="translate(-135.567 -193.899)" fill="#1d6ea1"/>
      </g>
      <g id="Grupo_20728" data-name="Grupo 20728" transform="translate(46.631 81.516)">
        <path id="Trazado_2504" data-name="Trazado 2504" d="M272.42,300.557v38.965a1.4,1.4,0,0,1-1.394,1.394h-9.785a1.4,1.4,0,0,1-1.366-1.673,8.479,8.479,0,0,0,.186-1.747v-3.931h-61.49V337.5a1.394,1.394,0,1,1-2.788,0v-5.325a1.392,1.392,0,0,1,1.394-1.394h64.278a1.392,1.392,0,0,1,1.394,1.394V337.5c0,.2-.009.418-.019.632h6.8V300.557a1.394,1.394,0,0,1,2.788,0Z" transform="translate(-195.783 -299.163)" fill="#1d6ea1"/>
      </g>
      <g id="Grupo_20729" data-name="Grupo 20729" transform="translate(19.413 113.13)">
        <path id="Trazado_2505" data-name="Trazado 2505" d="M190.641,341.381v5.325a11.376,11.376,0,0,1-.242,2.3c-.037.2-.093.409-.139.613a7.667,7.667,0,0,1-.307.994,12.484,12.484,0,0,1-2.741,4.451c-.149.167-.307.325-.474.483-.009.009-.009.018-.019.018q-.293.294-.613.558c-.121.112-.251.214-.381.316-.167.13-.335.259-.511.39a16.356,16.356,0,0,1-9.581,3.029c-.483,0-.957-.028-1.431-.065-6.4-.54-11.486-4.471-13.066-9.674a11.523,11.523,0,0,1-.483-2.788c-.009-.167-.019-.335-.019-.511v-.121a1.394,1.394,0,0,1,2.788,0v.084a9.47,9.47,0,0,0,.167,1.635c0,.028.009.046.009.074.92,4.526,5.269,8.057,10.826,8.522.4.028.8.056,1.208.056.288,0,.576-.009.855-.028a2.661,2.661,0,0,0,.39-.028c.2-.019.409-.037.6-.065s.4-.056.595-.093.4-.065.6-.111l.585-.139c.279-.074.539-.158.808-.242s.53-.186.79-.288c.019-.009.046-.019.065-.028a12.44,12.44,0,0,0,3.7-2.333c.009.01.009,0,.019-.008.139-.139.279-.27.409-.409.251-.26.483-.53.706-.8.112-.139.214-.279.316-.427a9.8,9.8,0,0,0,1.031-1.821,7.2,7.2,0,0,0,.325-.883c.093-.3.167-.6.232-.92v-.009a2.508,2.508,0,0,0,.074-.381c.037-.288.074-.567.093-.836.009-.167.019-.344.019-.52v-5.325a1.394,1.394,0,1,1,2.788,0Z" transform="translate(-160.635 -339.987)" fill="#1d6ea1"/>
      </g>
      <g id="Grupo_20730" data-name="Grupo 20730" transform="translate(19.413 19.459)">
        <path id="Trazado_2506" data-name="Trazado 2506" d="M244.465,220.421v24.635a1.392,1.392,0,0,1-1.394,1.394,1.3,1.3,0,0,1-.539-.112,1.4,1.4,0,0,1-.855-1.282V221.815H163.423V319.5a1.358,1.358,0,0,1-.316.874,1.379,1.379,0,0,1-2.351-.325,1.335,1.335,0,0,1-.121-.511V220.421a1.392,1.392,0,0,1,1.394-1.394h81.042A1.392,1.392,0,0,1,244.465,220.421Z" transform="translate(-160.635 -219.027)" fill="#1d6ea1"/>
      </g>
      <g id="Grupo_20731" data-name="Grupo 20731" transform="translate(100.455 94.514)">
        <path id="Trazado_2507" data-name="Trazado 2507" d="M266.681,337.351a1.394,1.394,0,0,1-1.394-1.394V317.341a1.394,1.394,0,0,1,2.788,0v18.617A1.394,1.394,0,0,1,266.681,337.351Z" transform="translate(-265.287 -315.947)" fill="#1d6ea1"/>
      </g>
      <g id="Grupo_20733" data-name="Grupo 20733" transform="translate(27.476 39.188)">
        <g id="Grupo_20732" data-name="Grupo 20732">
          <path id="Trazado_2508" data-name="Trazado 2508" d="M270.325,275.058c-1.357-1.44-2.816-2.881-4.34-4.284-7.676-7.109-23.037-18.92-40.637-19.4q-.572-.028-1.143-.028t-1.143.028c-17.563.483-32.915,12.275-40.591,19.357-1.543,1.422-3.02,2.881-4.386,4.33a1.387,1.387,0,0,0,0,1.914c1.357,1.44,2.834,2.89,4.386,4.33,7.843,7.239,23.7,19.385,41.734,19.385,18.074,0,33.937-12.173,41.78-19.44,1.543-1.413,3-2.853,4.34-4.275A1.387,1.387,0,0,0,270.325,275.058ZM264.1,279.2c-7.555,6.989-22.777,18.7-39.894,18.7-17.089,0-32.292-11.681-39.838-18.641-1.162-1.078-2.286-2.165-3.336-3.243,1.059-1.087,2.174-2.175,3.336-3.243,5.306-4.9,14.413-12.136,25.295-15.984a43.518,43.518,0,0,1,13.54-2.63q.5-.028,1-.028t1,.028a43.413,43.413,0,0,1,13.54,2.63c10.91,3.857,20.035,11.114,25.351,16.039,1.134,1.05,2.24,2.119,3.28,3.187C266.338,277.074,265.242,278.143,264.1,279.2Zm6.226-4.144c-1.357-1.44-2.816-2.881-4.34-4.284-7.676-7.109-23.037-18.92-40.637-19.4q-.572-.028-1.143-.028t-1.143.028c-17.563.483-32.915,12.275-40.591,19.357-1.543,1.422-3.02,2.881-4.386,4.33a1.387,1.387,0,0,0,0,1.914c1.357,1.44,2.834,2.89,4.386,4.33,7.843,7.239,23.7,19.385,41.734,19.385,18.074,0,33.937-12.173,41.78-19.44,1.543-1.413,3-2.853,4.34-4.275A1.387,1.387,0,0,0,270.325,275.058ZM264.1,279.2c-7.555,6.989-22.777,18.7-39.894,18.7-17.089,0-32.292-11.681-39.838-18.641-1.162-1.078-2.286-2.165-3.336-3.243,1.059-1.087,2.174-2.175,3.336-3.243,5.306-4.9,14.413-12.136,25.295-15.984a43.518,43.518,0,0,1,13.54-2.63q.5-.028,1-.028t1,.028a43.413,43.413,0,0,1,13.54,2.63c10.91,3.857,20.035,11.114,25.351,16.039,1.134,1.05,2.24,2.119,3.28,3.187C266.338,277.074,265.242,278.143,264.1,279.2Zm12.062-6.783a89.3,89.3,0,0,0-6.979-7.156q-1.073-1-2.342-2.091-1.3-1.142-2.788-2.341a85.583,85.583,0,0,0-17.238-10.92q-1.366-.64-2.788-1.226A52.054,52.054,0,0,0,224.2,244.5c-19.58,0-36.548,12.973-44.912,20.7a89.96,89.96,0,0,0-7.044,7.211,5.448,5.448,0,0,0-.585,5.938c.121.232.307.576.567,1.049a4.724,4.724,0,0,0,.595.865c1.059,1.189,3.3,3.624,6.468,6.551,8.363,7.732,25.332,20.694,44.912,20.694a52.054,52.054,0,0,0,19.821-4.181q1.422-.585,2.788-1.227a85.575,85.575,0,0,0,17.238-10.91q1.491-1.2,2.788-2.342,1.268-1.087,2.342-2.091c3.16-2.928,5.371-5.334,6.4-6.5a4.6,4.6,0,0,0,.595-.846c.26-.474.437-.818.558-1.041A5.534,5.534,0,0,0,276.161,272.418Zm-1.886,4.656c-.121.223-.3.548-.539,1a2.5,2.5,0,0,1-.242.344c-1,1.134-3.132,3.457-6.208,6.3-8.085,7.471-24.421,20.007-43.081,20.007-18.632,0-34.95-12.5-43.026-19.961-3.076-2.843-5.241-5.194-6.263-6.346a2.61,2.61,0,0,1-.242-.353c-.242-.446-.427-.781-.539-1a2.7,2.7,0,0,1,.242-2.834,84.916,84.916,0,0,1,6.8-6.979c8.075-7.453,24.393-19.961,43.026-19.961a50.5,50.5,0,0,1,20.676,4.8,86.689,86.689,0,0,1,22.4,15.222,84.889,84.889,0,0,1,6.747,6.923A2.713,2.713,0,0,1,274.274,277.074Zm-8.289-6.3c-7.676-7.109-23.037-18.92-40.637-19.4q-.572-.028-1.143-.028t-1.143.028c-17.563.483-32.915,12.275-40.591,19.357-1.543,1.422-3.02,2.881-4.386,4.33a1.387,1.387,0,0,0,0,1.914c1.357,1.44,2.834,2.89,4.386,4.33,7.843,7.239,23.7,19.385,41.734,19.385,18.074,0,33.937-12.173,41.78-19.44,1.543-1.413,3-2.853,4.34-4.275a1.387,1.387,0,0,0,0-1.914C268.968,273.617,267.509,272.177,265.985,270.774ZM264.1,279.2c-7.555,6.989-22.777,18.7-39.894,18.7-17.089,0-32.292-11.681-39.838-18.641-1.162-1.078-2.286-2.165-3.336-3.243,1.059-1.087,2.174-2.175,3.336-3.243,5.306-4.9,14.413-12.136,25.295-15.984a43.518,43.518,0,0,1,13.54-2.63q.5-.028,1-.028t1,.028a43.413,43.413,0,0,1,13.54,2.63c10.91,3.857,20.035,11.114,25.351,16.039,1.134,1.05,2.24,2.119,3.28,3.187C266.338,277.074,265.242,278.143,264.1,279.2Zm6.226-4.144c-1.357-1.44-2.816-2.881-4.34-4.284-7.676-7.109-23.037-18.92-40.637-19.4q-.572-.028-1.143-.028t-1.143.028c-17.563.483-32.915,12.275-40.591,19.357-1.543,1.422-3.02,2.881-4.386,4.33a1.387,1.387,0,0,0,0,1.914c1.357,1.44,2.834,2.89,4.386,4.33,7.843,7.239,23.7,19.385,41.734,19.385,18.074,0,33.937-12.173,41.78-19.44,1.543-1.413,3-2.853,4.34-4.275A1.387,1.387,0,0,0,270.325,275.058ZM264.1,279.2c-7.555,6.989-22.777,18.7-39.894,18.7-17.089,0-32.292-11.681-39.838-18.641-1.162-1.078-2.286-2.165-3.336-3.243,1.059-1.087,2.174-2.175,3.336-3.243,5.306-4.9,14.413-12.136,25.295-15.984a43.518,43.518,0,0,1,13.54-2.63q.5-.028,1-.028t1,.028a43.413,43.413,0,0,1,13.54,2.63c10.91,3.857,20.035,11.114,25.351,16.039,1.134,1.05,2.24,2.119,3.28,3.187C266.338,277.074,265.242,278.143,264.1,279.2Zm6.226-4.144c-1.357-1.44-2.816-2.881-4.34-4.284-7.676-7.109-23.037-18.92-40.637-19.4q-.572-.028-1.143-.028t-1.143.028c-17.563.483-32.915,12.275-40.591,19.357-1.543,1.422-3.02,2.881-4.386,4.33a1.387,1.387,0,0,0,0,1.914c1.357,1.44,2.834,2.89,4.386,4.33,7.843,7.239,23.7,19.385,41.734,19.385,18.074,0,33.937-12.173,41.78-19.44,1.543-1.413,3-2.853,4.34-4.275A1.387,1.387,0,0,0,270.325,275.058ZM264.1,279.2c-7.555,6.989-22.777,18.7-39.894,18.7-17.089,0-32.292-11.681-39.838-18.641-1.162-1.078-2.286-2.165-3.336-3.243,1.059-1.087,2.174-2.175,3.336-3.243,5.306-4.9,14.413-12.136,25.295-15.984a43.518,43.518,0,0,1,13.54-2.63q.5-.028,1-.028t1,.028a43.413,43.413,0,0,1,13.54,2.63c10.91,3.857,20.035,11.114,25.351,16.039,1.134,1.05,2.24,2.119,3.28,3.187C266.338,277.074,265.242,278.143,264.1,279.2Z" transform="translate(-171.047 -244.503)" fill="#1d6ea1"/>
        </g>
      </g>
      <g id="Grupo_20734" data-name="Grupo 20734" transform="translate(58.414 46.027)">
        <path id="Trazado_2509" data-name="Trazado 2509" d="M247.761,258.781a22.062,22.062,0,0,0-13.4-5.418q-.572-.028-1.143-.028t-1.143.028a22.263,22.263,0,1,0,15.686,5.418Zm-14.543,36.2a19.425,19.425,0,0,1-1-38.825q.5-.028,1-.028t1,.028a19.425,19.425,0,0,1-1,38.825Z" transform="translate(-210.999 -253.335)" fill="#1d6ea1"/>
        <path id="Trazado_2510" data-name="Trazado 2510" d="M235.034,256.963q-.5-.028-1-.028t-1,.028a19.431,19.431,0,1,0,2.007,0Zm-.5,29.839a10.445,10.445,0,1,1,10.445-10.445A10.46,10.46,0,0,1,234.532,286.8Z" transform="translate(-211.811 -254.147)" fill="#6bd6c4"/>
      </g>
      <g id="Grupo_20735" data-name="Grupo 20735" transform="translate(70.69 57.792)">
        <path id="Trazado_2511" data-name="Trazado 2511" d="M237.3,268.527a10.445,10.445,0,1,0,10.445,10.445A10.466,10.466,0,0,0,237.3,268.527Zm0,18.1a7.657,7.657,0,1,1,7.657-7.657A7.67,7.67,0,0,1,237.3,286.629Z" transform="translate(-226.851 -268.527)" fill="#1d6ea1"/>
      </g>
      <g id="Grupo_20736" data-name="Grupo 20736" transform="translate(33.017 113.13)">
        <path id="Trazado_2512" data-name="Trazado 2512" d="M257.489,339.987H193.211a1.392,1.392,0,0,0-1.394,1.394v5.325c0,.167-.009.344-.019.52-.019.27-.056.548-.093.836-.028.121-.046.251-.074.381v.009c-.065.316-.139.622-.232.92a7.2,7.2,0,0,1-.325.883,9.8,9.8,0,0,1-1.031,1.821,4.6,4.6,0,0,1-.316.427,7.123,7.123,0,0,1-.706.8,5.67,5.67,0,0,1-.409.409c-.009.008-.009.019-.019.008a11.906,11.906,0,0,1-3.7,2.333c-.019.009-.046.019-.065.028a8.037,8.037,0,0,1-.79.288c-.26.093-.53.167-.808.242q-.293.084-.585.139c-.2.046-.4.084-.6.111s-.4.074-.595.093-.4.047-.6.065c-.13.009-.26.028-.39.028-.279.019-.567.028-.855.028a1.394,1.394,0,0,0,0,2.788h64.278c6.858,0,12.75-4.042,14.478-9.739a9.361,9.361,0,0,0,.288-1.115,11.219,11.219,0,0,0,.223-1.673c.009-.214.019-.427.019-.632v-5.325A1.392,1.392,0,0,0,257.489,339.987Zm-13.614,17.089H188.843c.112-.074.223-.158.335-.242.177-.131.344-.26.511-.39.13-.1.26-.2.381-.316q.321-.265.613-.558c.009,0,.009-.008.019-.018.167-.158.325-.316.474-.483a12.485,12.485,0,0,0,2.741-4.451c.121-.325.214-.66.307-.994.046-.2.1-.409.139-.613a11.377,11.377,0,0,0,.242-2.3v-3.931h61.49v3.931a8.479,8.479,0,0,1-.186,1.747C254.905,353.451,249.841,357.076,243.875,357.076Z" transform="translate(-178.203 -339.987)" fill="#1d6ea1"/>
        <path id="Trazado_2513" data-name="Trazado 2513" d="M259.195,343.587v3.931a8.479,8.479,0,0,1-.186,1.747c-1,5-6.068,8.624-12.034,8.624H191.943c.112-.074.223-.158.335-.242.177-.121.344-.251.511-.39.13-.1.26-.2.381-.316q.321-.265.613-.558c.009,0,.009-.009.019-.018.167-.158.325-.316.474-.483a12.485,12.485,0,0,0,2.741-4.451,7.666,7.666,0,0,0,.307-.994c.046-.2.1-.409.139-.613a11.376,11.376,0,0,0,.242-2.3v-3.931Z" transform="translate(-181.303 -340.799)" fill="#6bd6c4"/>
      </g>
      <g id="Grupo_20737" data-name="Grupo 20737" transform="translate(104.562 0.007)">
        <path id="Trazado_2514" data-name="Trazado 2514" d="M289.186,210.684a1.332,1.332,0,0,0-.3-.455L272.97,194.31a1.332,1.332,0,0,0-.455-.3,1.394,1.394,0,0,0-1.924,1.282v15.919a1.392,1.392,0,0,0,1.394,1.394H287.9a1.394,1.394,0,0,0,1.282-1.924Zm-15.807-.864V198.659L284.53,209.82Z" transform="translate(-270.591 -193.908)" fill="#1d6ea1"/>
      </g>
      <g id="Grupo_20738" data-name="Grupo 20738" transform="translate(2.788 2.787)">
        <path id="Trazado_2515" data-name="Trazado 2515" d="M238.863,219.027H172.457a1.392,1.392,0,0,0-1.394,1.394V234.63a1.392,1.392,0,0,0,1.394,1.394h66.406a1.4,1.4,0,0,0,1.394-1.394V220.421A1.4,1.4,0,0,0,238.863,219.027Zm-1.394,14.208H173.851v-11.42h63.618Z" transform="translate(-146.363 -202.355)" fill="#1d6ea1"/>
        <rect id="Rectángulo_4842" data-name="Rectángulo 4842" width="63.618" height="11.421" transform="translate(27.488 19.46)" fill="#6bd6c4"/>
        <path id="Trazado_2516" data-name="Trazado 2516" d="M256.86,213.417v36.809a85.585,85.585,0,0,0-17.238-10.92V215.564a1.392,1.392,0,0,0-1.394-1.394H157.186a1.392,1.392,0,0,0-1.394,1.394v99.117c0,.177.009.344.019.511H139.167V197.5H240.941v14.525a1.392,1.392,0,0,0,1.394,1.394Z" transform="translate(-139.167 -197.498)" fill="#4dd0e1"/>
      </g>
    </g>
  </g>
</svg>
